<svg width="24" height="17" viewBox="0 0 24 17" fill="none" xmlns="http://www.w3.org/2000/svg">
<rect width="24" height="17" rx="2" fill="white"/>
<mask id="mask0" mask-type="alpha" maskUnits="userSpaceOnUse" x="0" y="0" width="24" height="17">
<rect width="24" height="17" rx="2" fill="white"/>
</mask>
<g mask="url(#mask0)">
<path fill-rule="evenodd" clip-rule="evenodd" d="M0 4.53333H24V0H0V4.53333Z" fill="#DD172C"/>
<path fill-rule="evenodd" clip-rule="evenodd" d="M0 17H24V12.4667H0V17Z" fill="#DD172C"/>
<path fill-rule="evenodd" clip-rule="evenodd" d="M0 12.4667H24V4.53333H0V12.4667Z" fill="#FFD133"/>
<path fill-rule="evenodd" clip-rule="evenodd" d="M6.28613 7.93338H7.42899V8.50005H6.28613V7.93338Z" fill="#FFEDB1"/>
<path d="M5.58197 7.69991H6.98904C7.18414 7.69991 7.33754 7.86674 7.3212 8.06116L7.1919 9.59982C7.15231 10.071 6.75833 10.4332 6.28551 10.4332C5.81268 10.4332 5.4187 10.071 5.37911 9.59982L5.24981 8.06116C5.23347 7.86674 5.38687 7.69991 5.58197 7.69991Z" stroke="#A41517" stroke-width="0.666667"/>
<path fill-rule="evenodd" clip-rule="evenodd" d="M5.14307 8.5H7.42878V9.06667H6.85735L6.28592 10.2L5.7145 9.06667H5.14307V8.5Z" fill="#A41517"/>
<rect x="3.42871" y="6.80005" width="1.14286" height="3.96667" rx="0.571429" fill="#A41517"/>
<rect x="8" y="6.80005" width="1.14286" height="3.96667" rx="0.571429" fill="#A41517"/>
<path d="M5.14307 6.57329C5.14307 6.07255 5.54899 5.66663 6.04973 5.66663H6.52211C7.02285 5.66663 7.42878 6.07255 7.42878 6.57329V6.57329C7.42878 6.69848 7.3273 6.79996 7.20211 6.79996H5.36973C5.24455 6.79996 5.14307 6.69848 5.14307 6.57329V6.57329Z" fill="#A41517"/>
</g>
</svg>
