<svg width="24" height="17" viewBox="0 0 24 17" fill="none" xmlns="http://www.w3.org/2000/svg">
<rect width="24" height="17" rx="2" fill="white"/>
<mask id="mask0" mask-type="alpha" maskUnits="userSpaceOnUse" x="0" y="0" width="24" height="17">
<rect width="24" height="17" rx="2" fill="white"/>
</mask>
<g mask="url(#mask0)">
<path fill-rule="evenodd" clip-rule="evenodd" d="M24 0H0V1.13333H24V0ZM24 2.26662H0V3.39995H24V2.26662ZM0 4.53338H24V5.66672H0V4.53338ZM24 6.8H0V7.93333H24V6.8ZM0 9.06662H24V10.2H0V9.06662ZM24 11.3334H0V12.4667H24V11.3334ZM0 13.6H24V14.7333H0V13.6ZM24 15.8666H0V17H24V15.8666Z" fill="#D02F44"/>
<rect width="10.2857" height="7.93333" fill="#46467F"/>
<g filter="url(#filter0_d)">
<path fill-rule="evenodd" clip-rule="evenodd" d="M2.28592 1.70009C2.28592 2.01305 2.03009 2.26676 1.7145 2.26676C1.3989 2.26676 1.14307 2.01305 1.14307 1.70009C1.14307 1.38713 1.3989 1.13342 1.7145 1.13342C2.03009 1.13342 2.28592 1.38713 2.28592 1.70009ZM4.57145 1.70009C4.57145 2.01305 4.31561 2.26676 4.00002 2.26676C3.68443 2.26676 3.4286 2.01305 3.4286 1.70009C3.4286 1.38713 3.68443 1.13342 4.00002 1.13342C4.31561 1.13342 4.57145 1.38713 4.57145 1.70009ZM6.28611 2.26676C6.6017 2.26676 6.85754 2.01305 6.85754 1.70009C6.85754 1.38713 6.6017 1.13342 6.28611 1.13342C5.97052 1.13342 5.71468 1.38713 5.71468 1.70009C5.71468 2.01305 5.97052 2.26676 6.28611 2.26676ZM9.14307 1.70009C9.14307 2.01305 8.88723 2.26676 8.57164 2.26676C8.25605 2.26676 8.00021 2.01305 8.00021 1.70009C8.00021 1.38713 8.25605 1.13342 8.57164 1.13342C8.88723 1.13342 9.14307 1.38713 9.14307 1.70009ZM2.85754 3.40014C3.17313 3.40014 3.42897 3.14643 3.42897 2.83347C3.42897 2.52051 3.17313 2.26681 2.85754 2.26681C2.54195 2.26681 2.28611 2.52051 2.28611 2.83347C2.28611 3.14643 2.54195 3.40014 2.85754 3.40014ZM5.7145 2.83347C5.7145 3.14643 5.45866 3.40014 5.14307 3.40014C4.82748 3.40014 4.57164 3.14643 4.57164 2.83347C4.57164 2.52051 4.82748 2.26681 5.14307 2.26681C5.45866 2.26681 5.7145 2.52051 5.7145 2.83347ZM7.42859 3.40014C7.74419 3.40014 8.00002 3.14643 8.00002 2.83347C8.00002 2.52051 7.74419 2.26681 7.42859 2.26681C7.113 2.26681 6.85717 2.52051 6.85717 2.83347C6.85717 3.14643 7.113 3.40014 7.42859 3.40014ZM9.14307 3.96671C9.14307 4.27967 8.88723 4.53337 8.57164 4.53337C8.25605 4.53337 8.00021 4.27967 8.00021 3.96671C8.00021 3.65375 8.25605 3.40004 8.57164 3.40004C8.88723 3.40004 9.14307 3.65375 9.14307 3.96671ZM6.28611 4.53337C6.6017 4.53337 6.85754 4.27967 6.85754 3.96671C6.85754 3.65375 6.6017 3.40004 6.28611 3.40004C5.97052 3.40004 5.71468 3.65375 5.71468 3.96671C5.71468 4.27967 5.97052 4.53337 6.28611 4.53337ZM4.57145 3.96671C4.57145 4.27967 4.31561 4.53337 4.00002 4.53337C3.68443 4.53337 3.4286 4.27967 3.4286 3.96671C3.4286 3.65375 3.68443 3.40004 4.00002 3.40004C4.31561 3.40004 4.57145 3.65375 4.57145 3.96671ZM1.7145 4.53337C2.03009 4.53337 2.28592 4.27967 2.28592 3.96671C2.28592 3.65375 2.03009 3.40004 1.7145 3.40004C1.3989 3.40004 1.14307 3.65375 1.14307 3.96671C1.14307 4.27967 1.3989 4.53337 1.7145 4.53337ZM3.42897 5.10009C3.42897 5.41305 3.17313 5.66676 2.85754 5.66676C2.54195 5.66676 2.28611 5.41305 2.28611 5.10009C2.28611 4.78713 2.54195 4.53342 2.85754 4.53342C3.17313 4.53342 3.42897 4.78713 3.42897 5.10009ZM5.14307 5.66676C5.45866 5.66676 5.7145 5.41305 5.7145 5.10009C5.7145 4.78713 5.45866 4.53342 5.14307 4.53342C4.82748 4.53342 4.57164 4.78713 4.57164 5.10009C4.57164 5.41305 4.82748 5.66676 5.14307 5.66676ZM8.00002 5.10009C8.00002 5.41305 7.74419 5.66676 7.42859 5.66676C7.113 5.66676 6.85717 5.41305 6.85717 5.10009C6.85717 4.78713 7.113 4.53342 7.42859 4.53342C7.74419 4.53342 8.00002 4.78713 8.00002 5.10009ZM8.57164 6.80014C8.88723 6.80014 9.14307 6.54643 9.14307 6.23347C9.14307 5.92051 8.88723 5.6668 8.57164 5.6668C8.25605 5.6668 8.00021 5.92051 8.00021 6.23347C8.00021 6.54643 8.25605 6.80014 8.57164 6.80014ZM6.85754 6.23347C6.85754 6.54643 6.6017 6.80014 6.28611 6.80014C5.97052 6.80014 5.71468 6.54643 5.71468 6.23347C5.71468 5.92051 5.97052 5.6668 6.28611 5.6668C6.6017 5.6668 6.85754 5.92051 6.85754 6.23347ZM4.00002 6.80014C4.31561 6.80014 4.57145 6.54643 4.57145 6.23347C4.57145 5.92051 4.31561 5.6668 4.00002 5.6668C3.68443 5.6668 3.4286 5.92051 3.4286 6.23347C3.4286 6.54643 3.68443 6.80014 4.00002 6.80014ZM2.28592 6.23347C2.28592 6.54643 2.03009 6.80014 1.7145 6.80014C1.3989 6.80014 1.14307 6.54643 1.14307 6.23347C1.14307 5.92051 1.3989 5.6668 1.7145 5.6668C2.03009 5.6668 2.28592 5.92051 2.28592 6.23347Z" fill="url(#paint0_linear)"/>
</g>
</g>
<defs>
<filter id="filter0_d" x="1.14307" y="1.13342" width="8" height="6.66672" filterUnits="userSpaceOnUse" color-interpolation-filters="sRGB">
<feFlood flood-opacity="0" result="BackgroundImageFix"/>
<feColorMatrix in="SourceAlpha" type="matrix" values="0 0 0 0 0 0 0 0 0 0 0 0 0 0 0 0 0 0 127 0"/>
<feOffset dy="1"/>
<feColorMatrix type="matrix" values="0 0 0 0 0 0 0 0 0 0 0 0 0 0 0 0 0 0 0.06 0"/>
<feBlend mode="normal" in2="BackgroundImageFix" result="effect1_dropShadow"/>
<feBlend mode="normal" in="SourceGraphic" in2="effect1_dropShadow" result="shape"/>
</filter>
<linearGradient id="paint0_linear" x1="1.14307" y1="1.13342" x2="1.14307" y2="6.80009" gradientUnits="userSpaceOnUse">
<stop stop-color="white"/>
<stop offset="1" stop-color="#F0F0F0"/>
</linearGradient>
</defs>
</svg>
