<svg width="434" height="674" viewBox="0 0 434 674" fill="none" xmlns="http://www.w3.org/2000/svg">
<g filter="url(#filter0_d)">
<rect x="14" y="13.1113" width="400" height="639.45" rx="5" fill="white"/>
<rect x="14.5" y="13.6113" width="399" height="638.45" rx="4.5" stroke="#F5F5F5"/>
</g>
<rect x="89.2344" y="64.4871" width="291.743" height="18.3486" fill="#F5F5F5"/>
<rect x="46.1133" y="39.7168" width="334.862" height="18.3486" fill="#F5F5F5"/>
<rect x="89.2344" y="64.4871" width="50.41" height="18.3486" fill="#ACA9A9"/>
<rect x="330.52" y="64.4871" width="50.41" height="18.3486" fill="#ACA9A9"/>
<rect x="47.0273" y="64.4871" width="36.6972" height="18.3486" fill="#F5F5F5"/>
<line x1="0.25" y1="-0.25" x2="40.7788" y2="-0.25" transform="matrix(0.894427 0.447214 -0.265366 0.964148 47.0273 64.4871)" stroke="#ACA9A9" stroke-width="0.5" stroke-linecap="round"/>
<line x1="0.25" y1="-0.25" x2="40.7788" y2="-0.25" transform="matrix(0.894427 -0.447214 0.265366 0.964148 47.0273 82.8357)" stroke="#ACA9A9" stroke-width="0.5" stroke-linecap="round"/>
<rect x="47.9492" y="94.7625" width="211.009" height="50.4587" fill="#FF1E1E"/>
<rect x="47.9492" y="571.827" width="211.009" height="50.4587" fill="#FF1E1E"/>
<rect x="47.9492" y="154.396" width="211.009" height="50.4587" fill="#FF1E1E"/>
<rect x="47.9492" y="214.029" width="211.009" height="50.4587" fill="#FF1E1E"/>
<rect x="47.9492" y="273.662" width="211.009" height="50.4587" fill="#F5F5F5"/>
<rect x="47.9492" y="333.295" width="211.009" height="50.4587" fill="#F5F5F5"/>
<path d="M258.385 357.672C258.881 357.43 259.087 356.831 258.845 356.335C258.603 355.838 258.004 355.632 257.508 355.874L258.385 357.672ZM47.2422 356.773C47.7112 357.656 47.7111 357.656 47.7113 357.656C47.7117 357.656 47.7121 357.656 47.7129 357.656C47.7145 357.655 47.717 357.653 47.7204 357.652C47.7274 357.648 47.7382 357.642 47.7528 357.635C47.7819 357.619 47.8263 357.596 47.8855 357.565C48.0039 357.504 48.1816 357.413 48.416 357.295C48.8849 357.059 49.5803 356.716 50.4808 356.291C52.2818 355.44 54.9022 354.26 58.1694 352.948C64.7065 350.322 73.8195 347.174 84.1316 345.077C104.797 340.874 130.037 340.933 149.121 357.528L150.434 356.019C130.645 338.811 104.617 338.87 83.733 343.117C73.2705 345.245 64.0384 348.435 57.4241 351.092C54.1156 352.42 51.4587 353.617 49.6264 354.483C48.7102 354.915 47.9999 355.266 47.5173 355.509C47.2759 355.63 47.0914 355.724 46.9665 355.789C46.9041 355.821 46.8565 355.846 46.8242 355.863C46.808 355.872 46.7957 355.878 46.7872 355.883C46.7829 355.885 46.7796 355.887 46.7773 355.888C46.7761 355.888 46.7751 355.889 46.7745 355.889C46.7738 355.89 46.7732 355.89 47.2422 356.773ZM149.121 357.528C168.916 374.741 196.36 374.673 218.626 370.432C229.788 368.306 239.72 365.118 246.86 362.464C250.431 361.137 253.307 359.941 255.292 359.076C256.285 358.644 257.055 358.294 257.579 358.052C257.841 357.931 258.041 357.837 258.176 357.772C258.244 357.74 258.295 357.715 258.33 357.698C258.348 357.69 258.361 357.684 258.37 357.679C258.375 357.677 258.378 357.675 258.381 357.674C258.382 357.673 258.383 357.673 258.384 357.673C258.384 357.672 258.385 357.672 257.946 356.773C257.508 355.874 257.508 355.874 257.508 355.875C257.507 355.875 257.507 355.875 257.506 355.875C257.504 355.876 257.501 355.878 257.498 355.88C257.49 355.883 257.478 355.889 257.462 355.897C257.43 355.912 257.382 355.935 257.317 355.966C257.188 356.028 256.994 356.119 256.739 356.237C256.228 356.473 255.472 356.817 254.494 357.243C252.538 358.095 249.696 359.276 246.163 360.589C239.095 363.217 229.274 366.368 218.252 368.467C196.152 372.676 169.512 372.608 150.434 356.019L149.121 357.528Z" fill="#ACA9A9"/>
<rect x="47.9492" y="392.927" width="211.009" height="50.4587" fill="#F5F5F5"/>
<rect x="47.9492" y="452.561" width="211.009" height="50.4587" fill="#FF1E1E"/>
<rect x="47.9492" y="512.194" width="211.009" height="50.4587" fill="#FF1E1E"/>
<defs>
<filter id="filter0_d" x="0" y="0.111328" width="434" height="673.45" filterUnits="userSpaceOnUse" color-interpolation-filters="sRGB">
<feFlood flood-opacity="0" result="BackgroundImageFix"/>
<feColorMatrix in="SourceAlpha" type="matrix" values="0 0 0 0 0 0 0 0 0 0 0 0 0 0 0 0 0 0 127 0" result="hardAlpha"/>
<feOffset dx="3" dy="4"/>
<feGaussianBlur stdDeviation="8.5"/>
<feColorMatrix type="matrix" values="0 0 0 0 0.729167 0 0 0 0 0.729167 0 0 0 0 0.729167 0 0 0 0.25 0"/>
<feBlend mode="normal" in2="BackgroundImageFix" result="effect1_dropShadow"/>
<feBlend mode="normal" in="SourceGraphic" in2="effect1_dropShadow" result="shape"/>
</filter>
</defs>
</svg>
