<svg width="277" height="192" viewBox="0 0 277 192" fill="none" xmlns="http://www.w3.org/2000/svg">
<g clip-path="url(#clip0)">
<path d="M432.27 191.096C432.27 191.188 335.507 191.255 216.175 191.255C96.8429 191.255 0.0546875 191.188 0.0546875 191.096C0.0546875 191.003 96.7938 190.936 216.175 190.936C335.556 190.936 432.27 190.985 432.27 191.096Z" fill="#263238"/>
<path d="M220.866 148.152C220.945 148.201 217.236 154.753 212.581 162.786C207.926 170.818 204.101 177.309 204.021 177.26C203.941 177.211 207.656 170.664 212.305 162.626C216.954 154.587 220.792 148.109 220.866 148.152Z" fill="#263238"/>
<path d="M228.252 174.625C228.252 174.625 228.16 174.546 228.019 174.374L227.405 173.606L225.127 170.775C223.198 168.392 220.484 165.138 217.37 161.643C214.257 158.149 211.334 155.091 209.185 152.899L206.63 150.313L205.942 149.607C205.858 149.526 205.782 149.438 205.715 149.343C205.813 149.404 205.904 149.476 205.985 149.558L206.716 150.227C207.33 150.804 208.245 151.664 209.344 152.739C211.537 154.888 214.49 157.934 217.61 161.435C220.73 164.935 223.419 168.19 225.305 170.646C226.244 171.874 227 172.845 227.503 173.538L228.08 174.343C228.147 174.431 228.205 174.526 228.252 174.625Z" fill="#263238"/>
<path d="M202.746 180.294C202.66 180.361 201.677 178.482 200.16 175.442C198.644 172.402 196.599 168.171 194.363 163.492C192.128 158.812 190.132 154.557 188.695 151.474L187.019 147.789L186.577 146.788C186.52 146.674 186.475 146.555 186.441 146.432C186.521 146.534 186.587 146.645 186.638 146.764L187.129 147.74L188.904 151.351L194.67 163.351L200.381 175.344C201.1 176.848 201.69 178.083 202.119 178.973C202.31 179.379 202.469 179.704 202.592 179.962C202.638 180.075 202.689 180.186 202.746 180.294Z" fill="#263238"/>
<path d="M202.749 149.503C202.691 149.611 202.623 149.714 202.546 149.81C202.38 150.031 202.171 150.313 201.932 150.663C201.379 151.394 200.562 152.444 199.531 153.734C197.474 156.288 194.526 159.74 191.234 163.51C187.943 167.281 184.964 170.72 182.864 173.213L180.408 176.204L179.732 177.014C179.657 177.112 179.573 177.202 179.48 177.284C179.535 177.174 179.603 177.071 179.683 176.977L180.297 176.124C180.85 175.393 181.667 174.343 182.698 173.053C184.756 170.493 187.703 167.041 190.995 163.271C194.286 159.5 197.252 156.073 199.353 153.556L201.809 150.565L202.485 149.754C202.565 149.662 202.653 149.578 202.749 149.503Z" fill="#263238"/>
<path d="M186.444 142.569C186.339 143.699 172.172 191.083 172.172 191.083H175.549L190.589 143.699L186.444 142.569Z" fill="#455A64"/>
<path d="M186.443 142.569C186.532 142.585 186.62 142.605 186.707 142.631L187.505 142.827L190.607 143.613H190.668V143.675C188.242 151.523 182.482 169.799 175.733 191.083V191.126L175.696 191.237H172.012L172.073 191.034L182.341 156.645C183.637 152.291 184.681 148.772 185.411 146.328L186.504 142.557C186.504 142.557 186.504 142.649 186.455 142.821C186.406 142.993 186.376 143.226 186.29 143.546C186.118 144.191 185.866 145.142 185.528 146.365C184.846 148.821 183.833 152.334 182.556 156.706C180.013 165.457 176.415 177.585 172.386 191.132L172.233 190.924H175.61L175.457 191.034V190.991C182.212 169.713 188.046 151.455 190.582 143.644L190.625 143.724L187.555 142.87L186.75 142.643C186.541 142.606 186.443 142.569 186.443 142.569Z" fill="#263238"/>
<path d="M202.315 141.304C202.517 142.422 201.547 191.096 201.547 191.096H205.053L206.558 141.243L202.315 141.304Z" fill="#455A64"/>
<path d="M202.311 141.304C202.401 141.295 202.492 141.295 202.581 141.304H203.392L206.555 141.231H206.622V141.243C206.438 149.404 205.898 168.472 205.228 190.684C205.228 190.825 205.228 190.96 205.228 191.089V191.243H201.402V191.083C201.673 177.149 201.918 164.708 202.096 155.736C202.176 151.265 202.238 147.654 202.287 145.149C202.287 142.803 202.324 141.685 202.33 141.292C202.33 141.292 202.33 141.384 202.33 141.55C202.33 141.716 202.33 141.955 202.33 142.287C202.33 142.938 202.33 143.908 202.33 145.149C202.33 147.642 202.299 151.253 202.238 155.736C202.127 164.702 201.918 177.149 201.623 191.089L201.464 190.924H204.97L204.811 191.077V190.678C205.48 168.46 206.1 149.392 206.401 141.243L206.463 141.304H202.219H202.311Z" fill="#263238"/>
<path d="M220.866 143.128C220.977 144.258 234.8 191.096 234.8 191.096H231.441L216.242 143.699L220.866 143.128Z" fill="#455A64"/>
<path d="M220.862 143.128L220.555 143.177L219.658 143.3L216.25 143.742L216.299 143.656C218.891 151.541 224.7 169.553 231.412 190.506C231.474 190.69 231.529 190.875 231.584 191.046L231.437 190.936H234.796L234.642 191.145C230.694 177.727 227.193 165.739 224.712 157.099C223.484 152.8 222.483 149.288 221.82 146.88C221.482 145.652 221.237 144.737 221.077 144.105C220.991 143.785 220.948 143.552 220.911 143.386L220.862 143.128C220.972 143.503 221.286 144.584 221.93 146.85C222.643 149.263 223.656 152.733 224.921 157.038C227.47 165.672 231.001 177.647 234.949 191.053L235.011 191.255H231.326L231.289 191.145L231.111 190.604C224.393 169.651 218.657 151.615 216.164 143.699V143.626H216.244L219.701 143.251L220.586 143.159L220.862 143.128Z" fill="#263238"/>
<path d="M162.341 105.515C162.556 106.073 172.166 133.702 177.662 140.696C183.159 147.691 190.712 150.755 199.77 151.099C208.238 151.425 234.823 145.996 234.823 145.996C234.823 145.996 240.816 136.349 241.191 135.403C241.566 134.457 236.088 109.488 233.625 106.27C231.163 103.052 212.629 105.042 207.71 101.591C202.791 98.1393 194.495 90.3832 189.76 89.4375C185.025 88.4918 157.901 93.9573 162.341 105.515Z" fill="#F5F5F5"/>
<path d="M162.341 105.515C162.341 105.515 162.274 105.33 162.151 104.962C161.975 104.417 161.868 103.851 161.832 103.279C161.802 102.343 161.967 101.41 162.317 100.54C162.851 99.3807 163.609 98.3374 164.546 97.4699C166.628 95.4741 169.766 93.7853 173.573 92.336C175.614 91.5876 177.697 90.9622 179.812 90.4631C182.181 89.8819 184.592 89.4857 187.022 89.2778C187.674 89.2286 188.328 89.2163 188.981 89.241C189.652 89.2806 190.314 89.4257 190.94 89.6709C192.232 90.1677 193.468 90.8018 194.625 91.5623C197.056 93.1551 199.403 94.8728 201.656 96.7085L205.261 99.5456C205.875 100.025 206.489 100.497 207.103 100.964C207.712 101.456 208.391 101.856 209.117 102.149C209.865 102.434 210.635 102.656 211.42 102.813C212.206 102.985 213.011 103.114 213.827 103.224C215.455 103.439 217.119 103.58 218.802 103.697C222.173 103.943 225.643 104.029 229.168 104.508C230.056 104.626 230.935 104.81 231.796 105.06C232.238 105.188 232.664 105.365 233.067 105.588C233.481 105.833 233.821 106.185 234.05 106.608C234.847 108.261 235.498 109.981 235.996 111.748C237.071 115.273 237.992 118.902 238.877 122.605C239.761 126.308 240.602 130.066 241.247 133.923C241.29 134.224 241.339 134.537 241.37 134.813C241.379 134.969 241.379 135.125 241.37 135.28C241.347 135.449 241.291 135.612 241.204 135.759C240.915 136.281 240.621 136.791 240.32 137.294L238.52 140.291L234.959 146.088L234.922 146.143H234.854C227.989 147.519 221.295 148.735 214.822 149.742C211.592 150.227 208.411 150.669 205.285 150.97C204.505 151.038 203.725 151.13 202.952 151.161C202.178 151.191 201.404 151.253 200.637 151.241C197.639 151.22 194.654 150.832 191.751 150.086C190.365 149.715 189.008 149.243 187.691 148.674C185.171 147.58 182.843 146.089 180.795 144.258C178.893 142.557 177.265 140.573 175.968 138.375C174.74 136.275 173.721 134.156 172.763 132.142C170.92 128.095 169.373 124.38 168.077 121.088C166.781 117.797 165.725 114.99 164.871 112.681C164.018 110.372 163.373 108.573 162.949 107.351L162.47 105.963C162.366 105.65 162.317 105.49 162.317 105.49C162.317 105.49 162.384 105.644 162.501 105.957L163.005 107.332C163.459 108.561 164.122 110.335 164.976 112.638C165.829 114.941 166.929 117.766 168.237 121.027C169.545 124.288 171.08 128.003 172.953 132.038C173.917 134.04 174.918 136.152 176.171 138.234C177.459 140.41 179.077 142.374 180.967 144.056C182.995 145.863 185.301 147.333 187.796 148.41C189.11 148.984 190.465 149.462 191.849 149.84C193.264 150.203 194.699 150.48 196.147 150.669C197.64 150.866 199.144 150.967 200.649 150.97C201.41 150.97 202.178 150.933 202.946 150.884C203.713 150.835 204.493 150.768 205.273 150.7C208.387 150.393 211.561 149.951 214.792 149.472C221.252 148.465 227.946 147.249 234.805 145.873L234.701 145.941C235.861 144.062 237.047 142.121 238.262 140.15C238.877 139.161 239.454 138.16 240.062 137.159C240.357 136.656 240.676 136.146 240.928 135.63C240.983 135.513 241.081 135.366 241.063 135.286C241.044 135.206 241.063 135.016 241.063 134.869C241.063 134.58 240.989 134.291 240.946 133.997C240.332 130.165 239.448 126.394 238.582 122.703C237.716 119.013 236.776 115.377 235.708 111.864C235.22 110.119 234.579 108.419 233.792 106.786C233.59 106.412 233.291 106.1 232.926 105.883C232.536 105.67 232.125 105.501 231.698 105.38C230.853 105.133 229.991 104.951 229.119 104.833C225.618 104.36 222.148 104.268 218.777 104.016C217.088 103.9 215.418 103.752 213.784 103.537C212.962 103.427 212.151 103.292 211.328 103.12C210.528 102.959 209.743 102.729 208.982 102.432C208.235 102.125 207.535 101.711 206.907 101.204C206.292 100.737 205.648 100.258 205.034 99.779C203.805 98.8148 202.614 97.8691 201.441 96.9295C199.077 95.0872 196.792 93.2818 194.44 91.7895C193.307 91.0362 192.097 90.4063 190.829 89.9104C189.603 89.4865 188.296 89.3541 187.01 89.5235C184.591 89.7249 182.191 90.1109 179.831 90.678C177.72 91.1664 175.641 91.7816 173.604 92.5203C169.803 93.9143 166.677 95.5908 164.601 97.5743C163.666 98.4227 162.91 99.4501 162.378 100.596C162.023 101.449 161.849 102.367 161.868 103.292C161.888 103.861 161.985 104.425 162.157 104.968C162.292 105.324 162.341 105.515 162.341 105.515Z" fill="#263238"/>
<path d="M193.75 77.702C193.75 77.702 198.19 77.9415 201.008 83.2289C203.827 88.5163 210.668 101.683 210.668 101.683L232.02 115.42L226.862 121.057C226.862 121.057 205.983 113.301 205.123 112.073C204.263 110.845 199.172 94.6266 199.172 94.6266L193.117 78.2056" fill="#455A64"/>
<path d="M172.13 74.0543L169.95 77.3766L164.688 80.5453L174.912 106.399L176.865 113.959C176.865 113.959 178.707 118.718 182.245 120.026C185.782 121.334 208.651 115.727 208.651 115.727L203.124 101.677C203.124 101.677 203.124 93.6502 202.731 91.0096C202.338 88.369 193.71 77.7082 193.71 77.7082L188.3 76.2651L185.45 73.8087L172.13 74.0543Z" fill="#455A64"/>
<path d="M165.45 80.1953C165.45 80.1953 159.242 83.1737 160.703 90.1376C161.858 95.6215 168.367 110.661 171.806 113.541C177.333 118.171 182.006 113.369 182.006 113.369C182.111 113.068 185.458 103.992 185.458 103.992L174.815 96.8681L165.45 80.1953Z" fill="#455A64"/>
<path d="M174.687 96.4137C174.601 96.4567 173.569 94.6819 172.23 92.5203C171.567 91.4333 171.002 90.4262 170.621 89.6893C170.383 89.3055 170.195 88.8927 170.062 88.4611C170.142 88.4181 171.174 90.199 172.519 92.3606C173.188 93.4414 173.747 94.4486 174.134 95.1916C174.365 95.5763 174.55 95.9864 174.687 96.4137Z" fill="#263238"/>
<path d="M187.918 87.632C187.918 87.632 187.543 87.3434 186.867 86.846C185.908 86.1523 184.879 85.5596 183.797 85.0774L183.975 84.973C183.92 86.2012 183.865 87.5829 183.797 89.0997V89.4191L183.564 89.2041L180.297 86.3179C177.539 83.8615 175.058 81.6323 173.265 80.0049L171.165 78.0644C170.894 77.8413 170.645 77.5925 170.422 77.3213C170.725 77.5199 171.01 77.7438 171.275 77.9907L173.449 79.833C175.292 81.4174 177.785 83.6281 180.542 86.0784L183.791 88.9831L183.539 89.0875C183.625 87.5706 183.705 86.1705 183.772 84.9607V84.7765L183.938 84.8563C185.02 85.3615 186.038 85.9923 186.972 86.7355C187.297 86.9995 187.543 87.2206 187.709 87.3803C187.875 87.5399 187.954 87.6198 187.918 87.632Z" fill="#263238"/>
<path d="M188.355 76.4309C188.663 77.0785 188.924 77.7476 189.135 78.4328C189.578 79.661 190.173 81.4174 190.806 83.3456L191.322 84.8993L191.414 85.1941L191.125 85.102C190.293 84.8237 189.544 84.3425 188.945 83.7018L189.172 83.6097C189.172 84.5677 189.123 85.3538 189.092 85.9065C189.098 86.1951 189.071 86.4835 189.013 86.7662C188.959 86.4809 188.936 86.1905 188.945 85.9003C188.945 85.3538 188.914 84.5616 188.908 83.6097V83.2842L189.135 83.5176C189.714 84.1088 190.429 84.5494 191.217 84.8011L191.021 84.9976L190.505 83.4501C189.891 81.5279 189.307 79.7655 188.92 78.5373C188.679 77.8504 188.49 77.1462 188.355 76.4309Z" fill="#263238"/>
<path d="M174.479 115.045C174.918 115.167 175.365 115.254 175.818 115.303C177.063 115.392 178.308 115.141 179.422 114.579C181.073 113.706 182.33 112.24 182.941 110.477C183.666 108.475 184.464 106.27 185.306 103.936L185.367 104.127L184.231 103.408L174.467 97.126L174.651 97.0707C173.668 99.0973 172.864 100.755 172.281 101.984L171.617 103.322C171.544 103.482 171.457 103.636 171.359 103.783C171.407 103.613 171.47 103.449 171.55 103.292L172.164 101.922C172.723 100.694 173.496 99.0297 174.43 97.0093L174.491 96.8804L174.614 96.9541L184.44 103.181L185.563 103.9L185.674 103.973L185.631 104.09C184.777 106.417 183.967 108.616 183.236 110.618C182.594 112.438 181.274 113.94 179.551 114.812C178.401 115.381 177.111 115.607 175.836 115.463C175.495 115.424 175.16 115.348 174.835 115.236C174.705 115.197 174.584 115.132 174.479 115.045Z" fill="#263238"/>
<path d="M208.077 112.994C208.077 112.994 208.022 112.915 207.948 112.749C207.874 112.583 207.764 112.313 207.635 112.018L206.511 109.31L202.777 99.9509V99.9202C202.777 98.692 202.777 97.3962 202.777 96.0759C202.777 94.7556 202.716 93.6195 202.642 92.465C202.607 91.3551 202.467 90.2509 202.225 89.1673C201.856 88.2317 201.399 87.3331 200.861 86.4837C200.37 85.6669 199.897 84.9116 199.455 84.2361C198.577 82.8728 197.84 81.7797 197.33 81.0305L196.753 80.1584C196.682 80.0587 196.618 79.9541 196.562 79.8452C196.562 79.8452 196.655 79.9312 196.802 80.1216L197.416 80.9568C197.957 81.6875 198.718 82.7561 199.627 84.1071C200.081 84.7826 200.566 85.5318 201.07 86.3486C201.628 87.2104 202.103 88.1234 202.489 89.0752C202.744 90.1824 202.894 91.3112 202.937 92.4466C203.017 93.6134 203.054 94.8293 203.078 96.0698C203.103 97.3103 203.078 98.6858 203.078 99.9263V99.8649L206.714 109.261L207.751 112.03C207.856 112.331 207.942 112.577 208.015 112.779C208.041 112.849 208.062 112.921 208.077 112.994Z" fill="#263238"/>
<path d="M191.019 107.805C190.976 107.775 191.412 107.117 192.013 106.018C192.799 104.58 193.446 103.071 193.948 101.511C194.444 99.95 194.793 98.3464 194.992 96.7207C195.139 95.4925 195.164 94.688 195.219 94.688C195.259 94.8673 195.273 95.0513 195.262 95.2346C195.272 95.7366 195.256 96.2389 195.213 96.7391C194.952 100.058 193.927 103.272 192.216 106.129C191.96 106.552 191.684 106.962 191.387 107.357C191.166 107.664 191.037 107.817 191.019 107.805Z" fill="#263238"/>
<path d="M250.303 171.782L249.689 184.003C249.689 184.003 261.91 188.713 262.02 190.979L238.285 190.672L238.433 171.598L250.303 171.782Z" fill="#455A64"/>
<path d="M242.38 182.879C242.151 182.946 241.955 183.096 241.829 183.298C241.704 183.501 241.657 183.743 241.698 183.978C241.757 184.209 241.901 184.409 242.102 184.537C242.303 184.665 242.545 184.711 242.779 184.666C243.022 184.596 243.231 184.437 243.364 184.221C243.497 184.006 243.544 183.748 243.498 183.499C243.459 183.377 243.396 183.264 243.313 183.167C243.23 183.07 243.128 182.99 243.013 182.933C242.899 182.876 242.774 182.842 242.646 182.834C242.518 182.825 242.39 182.843 242.269 182.885" fill="#E0E0E0"/>
<path d="M238.27 191.175V189.333L261.089 189.769C261.089 189.769 262.14 190.242 262.011 190.997L238.27 191.175Z" fill="#263238"/>
<path d="M250.095 183.886C250.095 184.003 249.511 184.046 248.934 184.414C248.357 184.783 248.05 185.262 247.946 185.212C247.841 185.163 248.019 184.5 248.725 184.07C249.432 183.64 250.119 183.782 250.095 183.886Z" fill="#263238"/>
<path d="M252.568 184.948C252.568 185.059 252.089 185.249 251.69 185.734C251.291 186.22 251.168 186.735 251.076 186.729C250.984 186.723 250.892 186.066 251.401 185.501C251.911 184.936 252.568 184.844 252.568 184.948Z" fill="#263238"/>
<path d="M253.945 187.945C253.84 187.945 253.687 187.386 253.994 186.754C254.301 186.121 254.841 185.882 254.89 185.974C254.939 186.066 254.602 186.41 254.356 186.932C254.11 187.454 254.061 187.915 253.945 187.945Z" fill="#263238"/>
<path d="M249.941 181.086C249.892 181.19 249.364 181.024 248.713 181.086C248.062 181.147 247.54 181.319 247.485 181.221C247.429 181.123 247.921 180.711 248.713 180.68C249.505 180.65 249.978 180.994 249.941 181.086Z" fill="#263238"/>
<path d="M258.022 144.559L262.726 155.846C262.726 155.846 275.782 154.858 276.85 156.86L255.289 166.771L247.238 149.478L258.022 144.559Z" fill="#455A64"/>
<path d="M255.634 157.977C255.453 158.135 255.338 158.355 255.311 158.593C255.284 158.832 255.346 159.072 255.487 159.267C255.638 159.451 255.855 159.57 256.092 159.598C256.328 159.627 256.567 159.563 256.758 159.42C256.946 159.251 257.066 159.019 257.093 158.767C257.12 158.515 257.053 158.262 256.905 158.057C256.724 157.885 256.483 157.789 256.233 157.789C255.983 157.789 255.742 157.885 255.56 158.057" fill="#E0E0E0"/>
<path d="M255.467 167.232L254.688 165.555L275.487 156.153C275.487 156.153 276.635 156.153 276.838 156.86L255.467 167.232Z" fill="#263238"/>
<path d="M263.027 155.576C263.07 155.687 262.566 155.975 262.204 156.552C261.841 157.13 261.768 157.701 261.651 157.701C261.534 157.701 261.412 157.025 261.866 156.331C262.32 155.637 263.002 155.472 263.027 155.576Z" fill="#263238"/>
<path d="M265.721 155.472C265.794 155.564 265.42 155.957 265.266 156.565C265.113 157.173 265.229 157.695 265.119 157.738C265.008 157.781 264.67 157.216 264.879 156.46C265.088 155.705 265.671 155.367 265.721 155.472Z" fill="#263238"/>
<path d="M268.248 157.59C268.162 157.658 267.775 157.197 267.781 156.497C267.787 155.797 268.174 155.343 268.26 155.41C268.346 155.478 268.181 155.926 268.181 156.497C268.181 157.068 268.365 157.535 268.248 157.59Z" fill="#263238"/>
<path d="M261.672 153.126C261.672 153.242 261.119 153.316 260.542 153.629C259.965 153.943 259.59 154.348 259.492 154.28C259.394 154.213 259.67 153.635 260.358 153.273C261.046 152.911 261.684 153.015 261.672 153.126Z" fill="#263238"/>
<path d="M170.796 47.777C170.865 46.3672 171.36 45.0113 172.215 43.8883C173.07 42.7653 174.245 41.9278 175.586 41.4862C176.927 41.0446 178.37 41.0198 179.725 41.4149C181.08 41.81 182.283 42.6065 183.177 43.6994C184.847 45.7443 185.437 48.7964 187.776 50.0246C189.373 50.872 191.4 50.5957 192.978 51.48C196.318 53.3653 195.766 59.1562 199.235 60.7959C197.655 62.7134 195.646 64.2322 193.371 65.2297C193.031 64.4523 192.475 63.7892 191.768 63.3198C192.554 64.5972 192.106 66.3473 191.111 67.4711C190.034 68.5242 188.726 69.3107 187.291 69.7679C183.926 71.0943 180.389 72.1752 176.772 72.1076C173.155 72.0401 169.402 70.689 167.161 67.8703C166.668 67.1007 166.045 66.4231 165.319 65.8684C164.465 65.3587 163.415 65.3464 162.445 65.1314C161.111 64.8112 159.902 64.1021 158.972 63.0941C158.041 62.0861 157.431 60.8246 157.219 59.4694C159.479 58.8553 160.609 56.3375 161.112 54.0469C161.616 51.7563 161.88 49.2324 163.501 47.5436C164.041 46.9793 164.702 46.5455 165.435 46.2753C166.167 46.0051 166.952 45.9056 167.729 45.9843C168.506 46.0631 169.255 46.318 169.918 46.7298C170.582 47.1415 171.142 47.6992 171.558 48.3604" fill="#263238"/>
<path d="M166.423 53.8996L165.938 51.9897L176.936 47.1137C180.4 45.8855 185.073 48.5692 186.148 52.0757C187.302 55.9752 188.53 60.7959 188.776 63.8664C189.224 70.0074 184.846 71.8497 184.846 71.8497L186.479 79.1268L188.321 87.1408L172.435 74.8097L166.423 53.8996Z" fill="#FFBE9D"/>
<path d="M185.101 57.314C185.152 57.5118 185.122 57.7216 185.019 57.8976C184.915 58.0736 184.746 58.2015 184.549 58.2535C184.453 58.2814 184.352 58.2898 184.253 58.2782C184.154 58.2667 184.058 58.2354 183.971 58.1862C183.884 58.1369 183.807 58.0708 183.746 57.9917C183.685 57.9126 183.641 57.822 183.615 57.7254C183.568 57.5277 183.599 57.3194 183.702 57.1442C183.805 56.9691 183.972 56.8406 184.168 56.7858C184.264 56.757 184.365 56.748 184.464 56.7592C184.564 56.7703 184.66 56.8015 184.747 56.8509C184.834 56.9002 184.911 56.9666 184.972 57.0462C185.032 57.1258 185.077 57.2169 185.101 57.314Z" fill="#263238"/>
<path d="M185.464 54.8944C185.397 55.0172 184.715 54.7224 183.898 54.8944C183.082 55.0663 182.572 55.6374 182.461 55.5576C182.351 55.4778 182.461 55.3181 182.682 55.0663C182.979 54.7394 183.369 54.5121 183.8 54.4154C184.226 54.3137 184.674 54.3503 185.077 54.5198C185.348 54.6549 185.464 54.8391 185.464 54.8944Z" fill="#263238"/>
<path d="M177.834 59.1071C177.884 59.305 177.854 59.5148 177.751 59.6908C177.647 59.8668 177.478 59.9947 177.281 60.0467C177.186 60.076 177.086 60.0863 176.987 60.0768C176.888 60.0674 176.791 60.0384 176.703 59.9916C176.615 59.9448 176.538 59.8811 176.475 59.8041C176.411 59.7272 176.364 59.6385 176.335 59.5431C176.286 59.3454 176.317 59.1363 176.42 58.9608C176.523 58.7852 176.691 58.657 176.888 58.6036C176.983 58.5725 177.083 58.5609 177.183 58.5696C177.283 58.5783 177.38 58.607 177.468 58.654C177.556 58.701 177.634 58.7654 177.697 58.8432C177.76 58.9211 177.806 59.0109 177.834 59.1071Z" fill="#263238"/>
<path d="M177.417 56.927C177.35 57.0499 176.668 56.7612 175.852 56.927C175.035 57.0928 174.525 57.6701 174.415 57.5903C174.304 57.5104 174.415 57.3569 174.629 57.1051C174.927 56.7755 175.32 56.546 175.753 56.448C176.179 56.3464 176.627 56.3829 177.031 56.5524C177.325 56.7121 177.479 56.8718 177.417 56.927Z" fill="#263238"/>
<path d="M181.813 62.3127C182.211 62.0743 182.638 61.8885 183.084 61.76C183.293 61.6925 183.477 61.6004 183.483 61.453C183.454 61.2231 183.353 61.0083 183.194 60.8389L182.206 59.3896C180.818 57.3201 179.749 55.6006 179.841 55.5453C179.934 55.4901 181.119 57.1236 182.507 59.1931L183.477 60.6547C183.666 60.8782 183.773 61.1602 183.778 61.453C183.764 61.5343 183.732 61.6114 183.685 61.6784C183.637 61.7455 183.574 61.8007 183.502 61.8399C183.392 61.8959 183.277 61.9392 183.158 61.9688C182.725 62.1381 182.273 62.2536 181.813 62.3127Z" fill="#263238"/>
<path d="M184.85 71.8497C181.997 72.5637 179.003 72.4852 176.191 71.6224C176.191 71.6224 179.17 75.307 185.188 73.3296L184.85 71.8497Z" fill="#EB996E"/>
<path d="M181.929 64.37C181.727 64.2095 181.487 64.1033 181.232 64.0614C180.978 64.0195 180.716 64.0432 180.474 64.1305C180.297 64.1891 180.134 64.2831 179.995 64.4066C179.855 64.5301 179.742 64.6806 179.663 64.849C179.584 65.01 179.557 65.1916 179.585 65.3687C179.614 65.5458 179.697 65.7097 179.823 65.8376C179.991 65.9488 180.189 66.0081 180.391 66.0081C180.593 66.0081 180.79 65.9488 180.959 65.8376C181.314 65.6092 181.621 65.3128 181.861 64.9656C181.94 64.8782 182.001 64.7759 182.039 64.6647C182.058 64.6128 182.061 64.5567 182.048 64.5033C182.034 64.4498 182.006 64.4013 181.966 64.3638" fill="#EB996E"/>
<path d="M179.537 63.4426C179.666 63.4058 179.875 64.2901 180.765 64.7445C181.656 65.199 182.607 64.8796 182.638 65.0025C182.669 65.1253 182.466 65.2235 182.067 65.3279C181.549 65.4612 181 65.4045 180.519 65.1683C180.056 64.9413 179.699 64.5426 179.525 64.0567C179.426 63.6944 179.475 63.4549 179.537 63.4426Z" fill="#263238"/>
<path d="M177.06 54.5689C177.029 54.8146 176.188 54.9005 175.255 55.2383C174.321 55.576 173.603 56.0243 173.412 55.8524C173.332 55.7725 173.412 55.533 173.682 55.2383C174.033 54.87 174.467 54.5919 174.948 54.4277C175.427 54.256 175.94 54.1972 176.446 54.2557C176.864 54.3233 177.072 54.4584 177.06 54.5689Z" fill="#263238"/>
<path d="M184.756 52.088C184.658 52.3091 184.044 52.2476 183.368 52.395C182.693 52.5424 182.14 52.8126 181.962 52.6529C181.882 52.567 181.931 52.3643 182.14 52.1248C182.425 51.8315 182.794 51.6341 183.196 51.5598C183.598 51.4687 184.018 51.5096 184.394 51.6765C184.676 51.8116 184.799 51.9836 184.756 52.088Z" fill="#263238"/>
<path d="M176.786 47.4024C176.955 48.6749 176.743 49.969 176.177 51.1211C175.611 52.2732 174.716 53.2316 173.605 53.875C172.708 54.3724 171.554 54.8391 171.437 55.8524C171.32 56.8656 172.414 57.621 173.04 58.4807C173.419 59.0163 173.631 59.6522 173.648 60.3081C173.666 60.964 173.488 61.6103 173.138 62.1653C172.739 62.7794 172.131 63.2584 171.763 63.8971C171.53 64.3301 171.397 64.8099 171.375 65.301C171.353 65.7921 171.441 66.2819 171.634 66.7342C172.032 67.6365 172.705 68.3905 173.556 68.8897C171.32 69.5038 168.612 68.8222 167.445 66.8325C166.745 65.6473 166.696 64.2041 166.604 62.8347C166.395 59.705 165.9 56.6011 165.124 53.5618C164.938 53.0593 164.919 52.5102 165.069 51.9958C165.328 51.5377 165.732 51.179 166.217 50.9764C169.205 49.3384 172.298 47.9023 175.478 46.6777" fill="#263238"/>
<path d="M175.273 46.8006C176.079 47.8644 177.047 48.7949 178.141 49.5579C178.691 49.9358 179.321 50.1817 179.981 50.2765C180.641 50.3713 181.315 50.3124 181.949 50.1044L181.021 49.0789C183.224 50.5834 185.714 51.6144 188.335 52.1064C186.69 50.1044 184.995 48.0595 182.747 46.7637C180.499 45.468 177.552 45.0688 175.378 46.4444" fill="#263238"/>
<path d="M182.063 57.6885C181.974 57.417 181.931 57.1328 181.934 56.8472C181.92 56.0514 182.185 55.2757 182.683 54.6549C183.022 54.2235 183.457 53.8783 183.954 53.6478C184.53 53.3837 185.167 53.2798 185.797 53.3468C186.135 53.3747 186.467 53.4576 186.779 53.5925C187.111 53.7242 187.419 53.911 187.688 54.1452C188.272 54.6246 188.686 55.2801 188.868 56.0137C189.049 56.7474 188.989 57.5201 188.695 58.2166C188.559 58.5465 188.373 58.8531 188.143 59.1255C187.927 59.3885 187.673 59.6164 187.387 59.801C186.897 60.1318 186.331 60.332 185.742 60.3825C185.153 60.433 184.561 60.3322 184.022 60.0897C183.292 59.7725 182.697 59.2097 182.339 58.4991C182.204 58.2459 182.11 57.972 182.063 57.6885C182.163 57.9526 182.278 58.2109 182.407 58.4623C182.776 59.1372 183.363 59.6675 184.071 59.9668C184.555 60.1744 185.081 60.2649 185.606 60.2309C186.208 60.1927 186.789 59.9956 187.289 59.6598C187.561 59.4815 187.803 59.2619 188.008 59.0088C188.223 58.7483 188.397 58.4563 188.523 58.143C188.799 57.4831 188.856 56.7519 188.684 56.0575C188.513 55.3631 188.123 54.7421 187.572 54.2864C187.316 54.0649 187.025 53.8865 186.712 53.7583C186.415 53.6313 186.1 53.5506 185.778 53.5188C185.179 53.4514 184.573 53.5446 184.022 53.789C183.542 54.0027 183.121 54.3292 182.794 54.7408C182.302 55.3339 182.027 56.0769 182.014 56.8472C182.016 57.1283 182.032 57.4091 182.063 57.6885Z" fill="#455A64"/>
<path d="M173.178 59.8747C173.089 59.6012 173.043 59.3151 173.043 59.0273C173.036 58.2344 173.301 57.463 173.792 56.8411C174.134 56.411 174.572 56.0662 175.07 55.8339C175.645 55.5684 176.282 55.4644 176.912 55.533C177.611 55.5999 178.273 55.8784 178.809 56.3314C179.385 56.8061 179.796 57.451 179.982 58.1737C180.161 58.9077 180.103 59.6792 179.817 60.3783C179.547 61.0242 179.092 61.5756 178.509 61.9626C178.018 62.2929 177.452 62.4927 176.863 62.5432C176.275 62.5937 175.683 62.4932 175.143 62.2513C174.414 61.9341 173.818 61.3714 173.461 60.6608C173.325 60.4075 173.232 60.1336 173.184 59.8502C173.284 60.1136 173.396 60.3719 173.522 60.6239C173.896 61.2975 174.484 61.827 175.192 62.1285C175.676 62.336 176.202 62.4265 176.728 62.3925C177.329 62.3543 177.91 62.1572 178.41 61.8214C178.681 61.6415 178.923 61.4221 179.129 61.1705C179.344 60.9099 179.518 60.6179 179.645 60.3046C179.91 59.6521 179.963 58.9322 179.794 58.2482C179.625 57.5641 179.244 56.9512 178.705 56.4972C178.197 56.0652 177.569 55.7975 176.906 55.7295C176.309 55.662 175.704 55.7553 175.156 55.9997C174.677 56.2157 174.256 56.5419 173.927 56.9516C173.441 57.5476 173.166 58.2887 173.148 59.058C173.129 59.5677 173.221 59.8686 173.178 59.8747Z" fill="#455A64"/>
<path d="M179.684 57.4859C179.684 57.4859 179.72 57.3201 179.899 57.1236C180.142 56.8741 180.458 56.7085 180.801 56.6507C181.145 56.598 181.496 56.6584 181.802 56.8227C182.036 56.9516 182.134 57.0867 182.122 57.099C182.109 57.1113 181.974 57.0315 181.747 56.9455C181.457 56.8278 181.141 56.7897 180.832 56.835C180.523 56.8902 180.234 57.0233 179.991 57.2218C179.8 57.3754 179.708 57.5043 179.684 57.4859Z" fill="#455A64"/>
<path d="M186.738 59.3098C187.157 58.988 187.499 58.578 187.741 58.1088C187.983 57.6397 188.119 57.123 188.138 56.5955C188.138 56.5955 188.212 56.7735 188.206 57.0745C188.189 57.4659 188.087 57.8489 187.906 58.1967C187.726 58.5446 187.472 58.849 187.162 59.0887C186.923 59.2668 186.744 59.3343 186.738 59.3098Z" fill="white"/>
<path d="M177.945 61.6863C178.362 61.3623 178.703 60.9519 178.946 60.4833C179.189 60.0147 179.327 59.4992 179.352 58.972C179.412 59.1219 179.433 59.2846 179.413 59.4449C179.399 59.8374 179.296 60.2217 179.112 60.5687C178.935 60.9194 178.681 61.2259 178.369 61.4652C178.13 61.6433 177.958 61.7048 177.945 61.6863Z" fill="white"/>
<path d="M182.796 71.0943C182.796 71.0943 181.5 69.8661 180.659 70.1793C180.27 70.3454 179.9 70.5512 179.553 70.7934C179.21 71.0149 178.914 71.3029 178.683 71.6403C178.452 71.9778 178.291 72.3579 178.208 72.7586L176.919 79.1268C176.919 79.1268 176.004 85.538 175.623 88.283C175.242 91.028 174.812 96.8804 174.812 96.8804L184.442 103.169L182.108 84.1992C182.108 84.1992 184.399 81.3007 184.853 79.6979C185.307 78.0951 185.541 77.4073 185.541 77.4073L185.774 76.2712L186.708 76.3326C186.8 76.4179 186.917 76.4728 187.041 76.4896C187.166 76.5065 187.293 76.4847 187.405 76.4271C187.517 76.3694 187.608 76.2788 187.667 76.1674C187.726 76.0561 187.749 75.9294 187.733 75.8045C187.733 75.754 187.713 75.7056 187.678 75.6694C187.475 75.5036 186.204 74.4105 186.204 74.4105C186.204 74.4105 186.149 73.213 185.59 72.8322C185.339 72.6662 185.06 72.5456 184.767 72.4761C184.523 72.4073 184.266 72.3932 184.016 72.4345C183.765 72.4759 183.527 72.5719 183.318 72.7156L182.618 73.1884L182.949 72.6419C183.096 72.3976 183.158 72.1118 183.126 71.8287C183.094 71.5456 182.969 71.281 182.771 71.0759L182.796 71.0943Z" fill="#FFBE9D"/>
<path d="M182.794 71.0943C182.832 71.1248 182.868 71.1598 182.898 71.1987C182.995 71.3149 183.07 71.4482 183.119 71.5917C183.203 71.8288 183.213 72.0854 183.15 72.3286C183.035 72.6489 182.878 72.9524 182.683 73.2314L182.609 73.1638C182.861 72.9919 183.125 72.8015 183.438 72.5989C183.791 72.3952 184.202 72.3173 184.605 72.3778C184.816 72.4196 185.022 72.4834 185.219 72.5682C185.455 72.6421 185.667 72.7778 185.833 72.9612C186.112 73.3988 186.267 73.904 186.282 74.4227L186.251 74.3613L187.547 75.4606L187.719 75.6079C187.755 75.6451 187.784 75.6894 187.803 75.7379C187.822 75.7864 187.831 75.8383 187.829 75.8904C187.837 75.9823 187.824 76.0747 187.791 76.1608C187.758 76.247 187.706 76.3246 187.639 76.3879C187.506 76.5225 187.327 76.6017 187.138 76.6097C186.949 76.6177 186.763 76.5538 186.619 76.4308H186.687L185.754 76.3817L185.87 76.2896C185.797 76.6396 185.723 77.0265 185.643 77.4257L185.139 79.1267C185.054 79.4154 184.974 79.7101 184.863 80.0172C184.747 80.3182 184.611 80.6116 184.458 80.8953C183.796 82.0751 183.045 83.2023 182.21 84.2667V84.1623C182.904 89.6892 183.709 96.2048 184.568 103.132L184.611 103.476L184.323 103.285L183.395 102.671L174.724 97.0277L174.645 96.9786V96.8865C174.816 94.6942 174.995 92.5878 175.203 90.549C175.412 88.5102 175.725 86.588 175.977 84.7642C176.229 82.9403 176.493 81.2208 176.726 79.618C176.96 78.0152 177.34 76.5475 177.598 75.2395C177.74 74.5701 177.869 73.9437 177.991 73.3481C178.059 73.0471 178.102 72.7339 178.188 72.476C178.27 72.2048 178.39 71.9464 178.544 71.7084C178.816 71.2789 179.189 70.9226 179.631 70.6706C179.979 70.4362 180.36 70.2542 180.761 70.1302C181.1 70.0957 181.442 70.1688 181.737 70.339C181.952 70.4534 182.158 70.5848 182.351 70.732C182.505 70.8487 182.616 70.9469 182.689 71.0145C182.729 71.0461 182.764 71.0833 182.794 71.125C182.794 71.125 182.751 71.125 182.671 71.039C182.591 70.9531 182.48 70.8855 182.321 70.775C182.126 70.6387 181.92 70.5175 181.707 70.4127C181.425 70.2594 181.104 70.1972 180.786 70.2346C180.402 70.3657 180.038 70.5496 179.705 70.7811C179.29 71.033 178.938 71.3777 178.679 71.7882C178.536 72.0173 178.427 72.2654 178.354 72.5252C178.28 72.7892 178.231 73.084 178.169 73.3788L177.801 75.2763C177.549 76.6089 177.218 78.0643 176.96 79.661L176.247 84.7764C176.008 86.6187 175.695 88.5225 175.504 90.549C175.314 92.5755 175.124 94.688 174.964 96.8804L174.89 96.7391L183.617 102.444L184.544 103.058L184.298 103.212C183.457 96.2847 182.665 89.7875 181.989 84.2422V84.1808L182.026 84.1378C182.861 83.092 183.61 81.981 184.267 80.8155C184.417 80.543 184.55 80.2621 184.667 79.9742C184.765 79.6917 184.851 79.3601 184.943 79.096L185.459 77.3765C185.545 76.9835 185.625 76.5905 185.698 76.2466V76.1483H185.797L186.73 76.2098H186.767C186.864 76.3036 186.994 76.356 187.129 76.356C187.264 76.356 187.394 76.3036 187.491 76.2098C187.537 76.1656 187.573 76.112 187.597 76.0526C187.62 75.9932 187.63 75.9295 187.627 75.8659C187.627 75.7983 187.627 75.7246 187.59 75.7246L187.418 75.5772L186.128 74.4596V74.4166C186.121 73.9353 185.985 73.4647 185.735 73.0533C185.592 72.8893 185.407 72.7664 185.201 72.6971C185.003 72.6135 184.797 72.5497 184.587 72.5067C184.215 72.4504 183.836 72.5173 183.506 72.6971C183.205 72.8813 182.929 73.0779 182.677 73.2375L182.493 73.3542L182.603 73.1638C182.796 72.8946 182.956 72.6041 183.082 72.2979C183.148 72.0692 183.148 71.8266 183.082 71.5979C183.016 71.4146 182.918 71.2442 182.794 71.0943Z" fill="#EB996E"/>
<path d="M183.48 75.4545C183.48 75.4545 183.517 75.2395 183.677 74.9632C183.89 74.5778 184.21 74.2622 184.598 74.0543C184.802 73.9478 185.031 73.8958 185.261 73.9034C185.491 73.9109 185.715 73.9777 185.912 74.0973C186.189 74.2938 186.299 74.4658 186.275 74.4965C186.25 74.5272 185.575 73.9131 184.739 74.343C184.399 74.5303 184.1 74.7852 183.861 75.0922C183.659 75.3317 183.523 75.479 183.48 75.4545Z" fill="#EB996E"/>
<path d="M183.129 72.8077C183.166 72.8814 182.932 73.1393 182.644 73.4894C182.355 73.8394 182.079 74.1035 182.03 74.0543C181.981 74.0052 182.11 73.6429 182.423 73.2806C182.736 72.9182 183.086 72.7217 183.129 72.8077Z" fill="#EB996E"/>
<path d="M182.747 71.0391C182.443 70.96 182.123 70.9633 181.821 71.0486C181.519 71.1338 181.245 71.298 181.027 71.5242C180.34 72.3409 179.91 73.1577 179.836 73.1147C179.974 72.4297 180.309 71.8 180.8 71.3031C180.997 71.1012 181.23 70.9386 181.488 70.8241C181.712 70.7326 181.957 70.7091 182.194 70.7566C182.587 70.8364 182.771 71.0022 182.747 71.0391Z" fill="#EB996E"/>
<path d="M191.761 119.099C197.257 117.453 202.87 116.221 208.55 115.414C221.158 113.572 237.309 112.54 239.943 112.865C244.604 113.43 246.766 117.066 249.038 119.909C251.31 122.752 264.728 150 264.728 150L251.832 155.158L250.831 134.003C250.831 134.003 246.772 125.719 236.995 128.335C236.995 128.335 219.463 139.388 214.918 140.5C210.374 141.611 198.663 146.07 190.711 140.045C182.758 134.021 182.242 120.063 182.242 120.063L191.761 119.099Z" fill="#263238"/>
<path d="M218.223 138.934L233.796 140.672C234.749 141.755 235.305 143.13 235.374 144.571L236.111 178.292H252.526L251.298 135.305C251.298 135.305 251.378 125.89 241.344 127.235C231.309 128.58 225.635 133.757 225.635 133.757L218.223 138.934Z" fill="#263238"/>
<path d="M251.857 155.122C251.85 155.071 251.85 155.019 251.857 154.968V154.514C251.857 154.084 251.814 153.5 251.777 152.757C251.728 151.204 251.648 149.005 251.556 146.303C251.464 143.601 251.372 140.328 251.261 136.729C251.179 134.863 250.605 133.051 249.597 131.479C249.061 130.655 248.41 129.913 247.663 129.274C246.863 128.636 245.976 128.117 245.028 127.733C244.092 127.353 243.101 127.125 242.093 127.057C241.117 127.011 240.141 127.153 239.219 127.475C237.472 128.174 235.766 128.971 234.109 129.864C230.922 131.534 228.122 133.174 225.776 134.568C223.43 135.962 221.557 137.116 220.249 137.915L218.757 138.836L218.364 139.069L218.223 139.143C218.257 139.103 218.299 139.069 218.345 139.044L218.72 138.78L220.188 137.81C221.465 136.981 223.326 135.796 225.653 134.371C227.981 132.946 230.775 131.301 233.968 129.6C235.63 128.696 237.342 127.888 239.096 127.18C240.061 126.841 241.083 126.691 242.105 126.738C243.148 126.808 244.174 127.042 245.145 127.432C246.108 127.84 247.007 128.384 247.816 129.047C248.589 129.7 249.26 130.466 249.806 131.319C250.844 132.939 251.432 134.807 251.507 136.729C251.593 140.328 251.673 143.57 251.734 146.309C251.796 149.048 251.826 151.222 251.857 152.763C251.857 153.507 251.857 154.096 251.857 154.52V154.98C251.863 155.072 251.857 155.122 251.857 155.122Z" fill="#455A64"/>
<path d="M170.109 114.106C178.685 117.46 187.62 119.809 196.737 121.107C211.751 123.219 219.366 121.518 220.963 126.019C222.16 129.391 223.53 146.899 223.53 146.899C223.53 146.899 198.929 151.922 190.369 146.622C181.808 141.323 177.798 133.493 174.813 125.89C171.338 117.14 170.109 114.106 170.109 114.106Z" fill="#F5F5F5"/>
<path d="M222.304 145.327C222.273 145.216 222.25 145.103 222.236 144.989L222.083 144.006C221.954 143.116 221.776 141.863 221.549 140.273C221.1 137.043 220.468 132.467 219.706 127.02V127.051C219.256 125.927 218.396 125.016 217.299 124.503C216.121 123.954 214.845 123.646 213.547 123.594L209.408 123.36C207.995 123.268 206.552 123.164 205.109 123.023C196.973 122.262 188.919 120.797 181.036 118.644C178.015 117.815 175.602 117.029 173.937 116.482L172.04 115.813L171.549 115.629L171.383 115.555L171.555 115.598L172.058 115.752L173.98 116.366C175.651 116.882 178.07 117.631 181.098 118.429C188.978 120.519 197.017 121.957 205.134 122.728C206.589 122.869 208.026 122.973 209.432 123.072C210.839 123.17 212.22 123.213 213.578 123.305C214.916 123.362 216.23 123.688 217.44 124.263C218.6 124.812 219.507 125.783 219.977 126.977C220.683 132.431 221.272 137.006 221.696 140.248C221.886 141.839 222.046 143.098 222.157 143.988C222.2 144.406 222.236 144.731 222.267 144.977C222.288 145.092 222.3 145.209 222.304 145.327Z" fill="#263238"/>
<path d="M236.123 114.554L214.955 113.719L193.117 117.25L218.854 118.098L236.123 114.554Z" fill="#E0E0E0"/>
<path d="M236.121 114.554L218.877 118.239H218.846L193.152 117.422H193.109V117.103L214.934 113.608L236.096 114.579L214.934 113.86H214.965L193.128 117.416V117.097H193.165L218.859 117.975L236.121 114.554Z" fill="#263238"/>
<path d="M193.117 117.25H218.952L225.793 90.1437H244.585L237.775 115.217L218.854 118.982L193.117 118.368V117.25Z" fill="#E0E0E0"/>
<path d="M193.117 117.25C193.117 117.25 193.117 117.342 193.117 117.526C193.117 117.711 193.117 117.993 193.117 118.368C195.991 118.368 205.399 118.583 218.854 118.877L237.768 115.088L237.652 115.193C239.752 107.467 242.049 98.9868 244.456 90.1191L244.609 90.3218H225.818L225.972 90.2051C223.386 100.387 221.059 109.617 219.1 117.305V117.397H219.001L200.118 117.293H194.941H193.59H193.117C193.117 117.293 193.265 117.293 193.565 117.293H194.898L200.038 117.262L218.952 117.195L218.836 117.287C220.764 109.598 223.085 100.362 225.646 90.1683L225.677 90.0516H244.794L244.738 90.2542C242.325 99.1219 240.016 107.603 237.916 115.328V115.42H237.824L218.903 119.16H218.873C205.442 118.816 196.016 118.546 193.142 118.448C193.142 118.067 193.142 117.784 193.142 117.588C193.142 117.391 193.117 117.25 193.117 117.25Z" fill="#263238"/>
<path d="M231.739 102.825C231.518 103.936 231.893 104.95 232.587 105.091C233.281 105.232 234.018 104.44 234.245 103.328C234.472 102.217 234.085 101.198 233.391 101.056C232.697 100.915 231.96 101.713 231.739 102.825Z" fill="white"/>
<path d="M76.0195 139.493C76.0195 139.493 87.4234 144.694 98.5079 144.694C108.782 144.694 120.265 139.523 120.265 139.523L76.0195 139.493Z" fill="#E0E0E0"/>
<path d="M99.6704 139.99H95.2734V186.06H99.6704V139.99Z" fill="#E0E0E0"/>
<path d="M117.188 184.144H78.1562V186.846H117.188V184.144Z" fill="#E0E0E0"/>
<path d="M79.7557 190.991C81.4006 190.991 82.7341 189.658 82.7341 188.013C82.7341 186.368 81.4006 185.034 79.7557 185.034C78.1108 185.034 76.7773 186.368 76.7773 188.013C76.7773 189.658 78.1108 190.991 79.7557 190.991Z" fill="#263238"/>
<path d="M100.098 188.013C100.099 188.603 99.9251 189.181 99.5979 189.673C99.2707 190.164 98.805 190.548 98.2598 190.774C97.7146 191.001 97.1143 191.061 96.5349 190.947C95.9556 190.832 95.4232 190.549 95.0052 190.131C94.5872 189.714 94.3024 189.183 94.1867 188.603C94.071 188.024 94.1298 187.424 94.3555 186.878C94.5812 186.332 94.9637 185.866 95.4547 185.538C95.9456 185.21 96.5229 185.034 97.1134 185.034C97.9039 185.034 98.6621 185.348 99.2216 185.906C99.7812 186.465 100.096 187.222 100.098 188.013Z" fill="#263238"/>
<path d="M117.189 190.991C118.834 190.991 120.168 189.658 120.168 188.013C120.168 186.368 118.834 185.034 117.189 185.034C115.544 185.034 114.211 186.368 114.211 188.013C114.211 189.658 115.544 190.991 117.189 190.991Z" fill="#263238"/>
<path d="M98.5087 156.571H92.5273V159.046H98.5087V156.571Z" fill="#E0E0E0"/>
<path d="M93.6176 154.833H91.4375V160.777H93.6176V154.833Z" fill="#E0E0E0"/>
<path d="M121.255 139.493H72.4155C71.5376 139.493 70.6957 139.144 70.0749 138.523C69.4542 137.903 69.1055 137.061 69.1055 136.183C69.1071 135.306 69.4565 134.466 70.0771 133.846C70.6977 133.227 71.5387 132.879 72.4155 132.879H125.535V135.206C125.532 136.341 125.08 137.429 124.278 138.232C123.476 139.035 122.39 139.488 121.255 139.493Z" fill="#455A64"/>
<path d="M87.4991 68.509L121.962 68.9389C122.778 68.9517 123.556 69.2835 124.13 69.8632C124.704 70.4429 125.028 71.2243 125.033 72.0401L125.518 132.879L79.0859 133.493L84.3242 71.3584C84.3955 70.5702 84.7625 69.8382 85.3515 69.3096C85.9405 68.781 86.7078 68.4949 87.4991 68.509Z" fill="#455A64"/>
<path d="M70.7461 134.488C70.7461 134.555 81.3946 134.611 94.524 134.611C107.653 134.611 118.302 134.555 118.302 134.488C118.302 134.42 107.653 134.359 94.524 134.359C81.3946 134.359 70.7461 134.396 70.7461 134.488Z" fill="#263238"/>
<path d="M118.459 108.561C118.391 108.561 118.336 114.302 118.336 121.389C118.336 128.476 118.391 134.218 118.459 134.218C118.526 134.218 118.588 128.476 118.588 121.389C118.588 114.302 118.52 108.561 118.459 108.561Z" fill="#263238"/>
<path d="M51.091 172.562L51.2813 184.31C51.2813 184.31 39.4047 188.449 39.2266 190.623L62.0219 191.071L62.4764 172.752L51.091 172.562Z" fill="#FF725E"/>
<path d="M58.3402 183.481C58.5569 183.553 58.7395 183.702 58.8528 183.901C58.9661 184.099 59.0022 184.332 58.9543 184.555C58.8897 184.773 58.7444 184.958 58.5481 185.072C58.3517 185.186 58.1192 185.221 57.898 185.17C57.6665 185.094 57.471 184.936 57.3496 184.725C57.2282 184.514 57.1895 184.265 57.2409 184.027C57.3302 183.803 57.5032 183.623 57.7234 183.524C57.9435 183.426 58.1934 183.417 58.42 183.499" fill="#E0E0E0"/>
<path d="M62.0286 191.089L62.1023 189.247L40.1544 189.511C40.1544 189.511 39.135 189.929 39.2332 190.647L62.0286 191.089Z" fill="#E0E0E0"/>
<path d="M50.9183 184.23C50.9183 184.34 51.4772 184.402 52.0176 184.77C52.558 185.139 52.8405 185.612 52.9449 185.569C53.0493 185.526 52.8957 184.881 52.2325 184.445C51.5693 184.009 50.8999 184.101 50.9183 184.23Z" fill="#263238"/>
<path d="M48.5156 185.145C48.5156 185.255 48.9639 185.452 49.3324 185.931C49.7008 186.41 49.7991 186.907 49.9096 186.907C50.0202 186.907 50.1061 186.293 49.6394 185.679C49.1727 185.065 48.5156 185.04 48.5156 185.145Z" fill="#263238"/>
<path d="M47.0903 187.982C47.1947 187.982 47.3605 187.454 47.0903 186.84C46.8201 186.226 46.3043 185.968 46.2551 186.06C46.206 186.152 46.5192 186.484 46.7341 186.993C46.9491 187.503 46.9798 187.97 47.0903 187.982Z" fill="#263238"/>
<path d="M51.1758 181.522C51.2188 181.626 51.7285 181.479 52.361 181.522C52.9935 181.565 53.4725 181.786 53.5339 181.694C53.5953 181.602 53.1286 181.19 52.3917 181.135C51.6548 181.08 51.1205 181.436 51.1758 181.522Z" fill="#263238"/>
<path d="M85.3616 112.178C85.3616 112.178 78.6065 113.191 71.6549 114.487C63.3216 116.034 54.4601 117.969 53.2319 118.902C51.0519 120.615 50.579 125.295 49.6456 131.061C48.7121 136.828 48.5156 179.729 48.5156 179.729L63.9971 180.177L67.0676 135.17C67.0676 135.17 89.6726 135.17 94.3275 135.133C98.0796 135.102 108.169 135.526 112.001 133.505C118.032 130.33 116.914 118.233 116.914 118.233C117.197 112.62 90.3604 107.541 89.6296 109.304L85.3616 112.178Z" fill="#263238"/>
<path d="M47.2131 144.356L44.9901 156.202C44.9901 156.202 32.1984 157.916 31.5781 160.065L54.3858 165.193L58.6108 146.887L47.2131 144.356Z" fill="#FF725E"/>
<path d="M52.263 156.804C52.4728 156.92 52.6312 157.111 52.7063 157.339C52.7814 157.567 52.7679 157.814 52.6683 158.032C52.5603 158.241 52.3765 158.399 52.1548 158.476C51.9331 158.553 51.6904 158.541 51.477 158.444C51.2608 158.32 51.098 158.12 51.0198 157.883C50.9417 157.646 50.9535 157.389 51.0532 157.16C51.189 156.955 51.3993 156.81 51.6398 156.756C51.8803 156.702 52.1323 156.744 52.3428 156.872" fill="#E0E0E0"/>
<path d="M54.2937 165.69L54.7051 163.916L32.7388 159.107C32.7388 159.107 31.6211 159.322 31.5781 160.065L54.2937 165.69Z" fill="#E0E0E0"/>
<path d="M44.6446 155.981C44.6446 156.098 45.1666 156.27 45.6333 156.755C46.1 157.24 46.2904 157.768 46.4009 157.75C46.5114 157.732 46.493 157.044 45.9158 156.473C45.3385 155.902 44.6384 155.895 44.6446 155.981Z" fill="#263238"/>
<path d="M42.0273 156.454C41.9781 156.552 42.4141 156.853 42.6843 157.406C42.9545 157.959 42.9545 158.487 43.0712 158.505C43.1879 158.524 43.3906 157.891 43.0712 157.228C42.7519 156.565 42.0518 156.344 42.0273 156.454Z" fill="#263238"/>
<path d="M40.0205 159.009C40.1187 159.058 40.4012 158.536 40.2477 157.861C40.0941 157.185 39.6336 156.823 39.566 156.909C39.4985 156.995 39.7503 157.388 39.8608 157.94C39.9713 158.493 39.9161 158.972 40.0205 159.009Z" fill="#263238"/>
<path d="M45.4414 153.359C45.4414 153.47 46.0125 153.433 46.6328 153.617C47.253 153.801 47.6951 154.108 47.775 154.029C47.8548 153.949 47.4741 153.445 46.7433 153.236C46.0125 153.028 45.4414 153.261 45.4414 153.359Z" fill="#263238"/>
<path d="M58.3066 103.396C58.3066 103.396 52.9701 103.021 51.8279 107.584C50.2373 113.915 43.2305 151.732 43.2305 151.732L58.9944 154.802L67.3093 117.889L82.2381 115.432L88.3791 112.976C88.3791 112.976 84.9033 109.291 77.6999 106.97C72.8178 105.416 58.3066 103.396 58.3066 103.396Z" fill="#263238"/>
<path d="M67.2602 118.828C66.7379 117.987 66.1082 117.217 65.3872 116.538C64.6115 115.923 63.764 115.406 62.8633 114.996C63.871 115.179 64.8049 115.648 65.553 116.347C66.0974 116.819 66.5583 117.38 66.9163 118.005C67.0899 118.251 67.2074 118.532 67.2602 118.828Z" fill="#455A64"/>
<path d="M63.826 111.336C63.826 111.336 63.9426 111.392 64.1207 111.533C64.3722 111.73 64.6082 111.945 64.8269 112.178C65.562 112.953 66.1526 113.854 66.571 114.837C66.9959 115.809 67.2474 116.848 67.314 117.907C67.3371 118.226 67.3371 118.546 67.314 118.865C67.314 119.092 67.2772 119.215 67.2588 119.215C67.2404 119.215 67.2588 118.712 67.1482 117.926C66.915 115.855 66.0584 113.904 64.6918 112.331C64.176 111.692 63.7952 111.373 63.826 111.336Z" fill="#455A64"/>
<path d="M51.1066 111.336L51.0575 111.533C51.0575 111.668 50.9899 111.858 50.9347 112.104C50.8303 112.626 50.6768 113.375 50.4802 114.339C50.0872 116.304 49.5222 119.148 48.8099 122.728C47.4036 129.901 45.4201 139.99 43.1172 151.713V151.83H43.2339L58.9978 154.901H59.1206V154.778C59.2066 154.415 59.2926 154.016 59.3847 153.617C62.4552 140.002 65.2432 127.499 67.4048 117.864L67.325 117.938L83.003 115.34L87.3017 114.616L88.4193 114.419L88.8001 114.345L88.4132 114.395L87.2894 114.56L82.9907 115.236L67.3004 117.741H67.2329V117.809C65.0528 127.444 62.2341 139.917 59.1575 153.55C59.0654 153.949 58.9794 154.348 58.8934 154.71L59.0408 154.618L43.2769 151.548L43.3751 151.689C45.6411 139.966 47.5878 129.864 48.9757 122.685C49.6573 119.105 50.2039 116.255 50.5785 114.29C50.7566 113.32 50.8978 112.564 50.9961 112.049C51.0391 111.797 51.0759 111.607 51.1005 111.465C51.125 111.324 51.1066 111.336 51.1066 111.336Z" fill="#455A64"/>
<path d="M93.902 25.5896C93.6162 25.1536 93.2025 24.8168 92.7175 24.6255C92.2326 24.4341 91.7003 24.3976 91.1939 24.521C90.5451 24.1093 89.7771 23.9267 89.0124 24.0024C88.2478 24.0781 87.5305 24.4077 86.975 24.9386C86.4993 24.7078 85.9721 24.6038 85.4445 24.6365C84.9168 24.6693 84.4065 24.8377 83.963 25.1255C83.5196 25.4134 83.1579 25.8108 82.9131 26.2794C82.6683 26.748 82.5487 27.2719 82.5658 27.8003C82.0302 27.7595 81.4953 27.8881 81.0368 28.168C80.5784 28.4478 80.2195 28.8648 80.011 29.3598C79.8026 29.8549 79.755 30.4029 79.8752 30.9264C79.9953 31.45 80.277 31.9225 80.6805 32.2771C80.1103 32.5053 79.6463 32.9388 79.3798 33.4921C79.1134 34.0455 79.064 34.6786 79.2413 35.2666C79.4185 35.8546 79.8096 36.3549 80.3374 36.6689C80.8653 36.9828 81.4916 37.0876 82.0929 36.9627L93.6748 28.4942C94.0091 28.0934 94.2105 27.5985 94.2512 27.0781C94.292 26.5577 94.1699 26.0375 93.902 25.5896Z" fill="#263238"/>
<path d="M81.766 37.3373C81.7684 34.7148 82.7578 32.1892 84.5374 30.2628C86.317 28.3364 88.7564 27.1504 91.3706 26.9406L91.911 26.8976C97.7449 26.7748 101.122 31.663 101.073 37.497L101.773 56.9025L101.159 59.4019L93.3418 65.8868L89.3932 62.3926L88.2632 56.6692C88.2632 56.6692 82.6073 56.2516 82.0915 50.6756C81.8213 47.9797 81.7599 42.3729 81.766 37.3373Z" fill="#FFBE9D"/>
<path d="M88.1914 56.6691C90.7836 56.461 93.262 55.5149 95.3334 53.9425C95.3334 53.9425 93.9332 58.1 88.3265 58.0386L88.1914 56.6691Z" fill="#EB996E"/>
<path d="M83.7971 42.3729C83.8113 42.5815 83.9068 42.7761 84.0629 42.915C84.2191 43.054 84.4235 43.1261 84.6323 43.116C84.7341 43.116 84.835 43.0957 84.9289 43.0564C85.0228 43.0171 85.108 42.9594 85.1795 42.8868C85.2509 42.8142 85.3072 42.7282 85.345 42.6336C85.3829 42.5391 85.4015 42.4379 85.3999 42.3361C85.3842 42.1281 85.2883 41.9344 85.1325 41.7958C84.9766 41.6572 84.7731 41.5845 84.5647 41.593C84.4626 41.5922 84.3614 41.6119 84.2671 41.6509C84.1728 41.69 84.0873 41.7476 84.0157 41.8203C83.944 41.8931 83.8878 41.9795 83.8502 42.0744C83.8127 42.1694 83.7946 42.2709 83.7971 42.3729Z" fill="#263238"/>
<path d="M83.1434 40.2604C83.2539 40.3525 83.8189 39.8613 84.6787 39.7937C85.5384 39.7262 86.2016 40.1069 86.2815 39.9964C86.3613 39.8858 86.2078 39.763 85.9191 39.5849C85.5273 39.3575 85.0747 39.2567 84.6234 39.2963C84.1704 39.3274 83.7396 39.504 83.3952 39.7998C83.168 40.0209 83.0943 40.2174 83.1434 40.2604Z" fill="#263238"/>
<path d="M91.1721 42.1579C91.1893 42.3653 91.2856 42.5581 91.4411 42.6964C91.5966 42.8348 91.7993 42.908 92.0073 42.901C92.1094 42.901 92.2104 42.8806 92.3045 42.8408C92.3985 42.801 92.4836 42.7427 92.5546 42.6693C92.6256 42.596 92.6812 42.5091 92.718 42.4139C92.7548 42.3186 92.7721 42.217 92.7688 42.1149C92.7561 41.9069 92.662 41.7123 92.5068 41.5732C92.3516 41.4341 92.1479 41.3618 91.9397 41.3719C91.8373 41.3718 91.736 41.3923 91.6416 41.432C91.5473 41.4717 91.4618 41.5299 91.3903 41.6032C91.3188 41.6764 91.2626 41.7632 91.2252 41.8585C91.1877 41.9538 91.1696 42.0556 91.1721 42.1579Z" fill="#263238"/>
<path d="M91.3426 39.4866C91.4532 39.5787 92.0181 39.0874 92.8779 39.0199C93.7376 38.9523 94.3947 39.3331 94.4807 39.2164C94.5667 39.0997 94.407 38.9892 94.1184 38.8111C93.7262 38.5844 93.2739 38.4837 92.8226 38.5225C92.3686 38.5491 91.9364 38.7263 91.5944 39.026C91.3672 39.2471 91.2935 39.4436 91.3426 39.4866Z" fill="#263238"/>
<path d="M89.0437 46.0575C88.5791 45.9482 88.1021 45.9007 87.6251 45.9163C87.4102 45.9163 87.1952 45.8794 87.1461 45.7382C87.1125 45.5123 87.1467 45.2815 87.2444 45.075C87.404 44.5284 87.576 43.9573 87.7541 43.3555C88.4664 40.8991 88.9823 38.9033 88.8656 38.8787C88.7489 38.8541 88.1102 40.807 87.3979 43.2572C87.2259 43.8713 87.0663 44.4363 86.9127 44.9829C86.7959 45.2593 86.7807 45.5682 86.8698 45.8549C86.9072 45.9287 86.961 45.993 87.0269 46.043C87.0929 46.093 87.1693 46.1274 87.2505 46.1435C87.377 46.1576 87.5047 46.1576 87.6312 46.1435C88.1038 46.1733 88.5782 46.1444 89.0437 46.0575Z" fill="#263238"/>
<path d="M91.5954 46.4567C91.4603 46.4567 91.5278 47.3901 90.7848 48.1147C90.0417 48.8394 89.0469 48.821 89.0469 48.9499C89.0469 49.0789 89.2802 49.1157 89.704 49.0912C90.2505 49.0566 90.7666 48.8279 91.1594 48.4464C91.5363 48.0834 91.7566 47.5876 91.7735 47.0646C91.7858 46.6716 91.6629 46.4505 91.5954 46.4567Z" fill="#263238"/>
<path d="M91.1316 37.0364C91.2544 37.2513 91.9791 36.9934 92.8757 36.932C93.7723 36.8706 94.5399 37.0057 94.6136 36.7723C94.6443 36.6679 94.4785 36.4775 94.1469 36.3117C93.7256 36.1158 93.2612 36.0309 92.7979 36.0653C92.3346 36.0997 91.8878 36.2522 91.5001 36.5082C91.2053 36.717 91.0825 36.932 91.1316 37.0364Z" fill="#263238"/>
<path d="M83.1486 37.8899C83.3022 38.0865 83.8978 37.8899 84.6102 37.8899C85.3225 37.8899 85.9244 38.025 86.0656 37.8224C86.127 37.718 86.0288 37.5276 85.7647 37.3373C85.4152 37.109 85.0025 36.9973 84.5856 37.0179C84.1662 37.0238 83.7587 37.1589 83.4188 37.4048C83.1671 37.5952 83.0872 37.7978 83.1486 37.8899Z" fill="#263238"/>
<path d="M82.0968 34.7335C82.0968 34.7335 83.2881 31.1164 84.9094 30.1707C86.8745 29.0162 87.9307 31.1901 89.8222 30.49C91.7136 29.79 93.5927 28.6846 95.6991 30.0295C98.0081 31.5033 97.0808 32.7377 97.4124 35.2063C98.7573 45.2039 100.821 47.8998 100.962 43.1282C100.962 42.6001 102.38 42.0781 102.423 39.8674C102.473 37.0057 102.307 33.5544 101.515 31.5893C100.839 29.9312 99.7828 28.8381 97.9405 27.6836C95.0359 25.8413 91.2714 26.1177 88.7291 26.5782C86.1867 27.0388 81.5134 30.3734 82.0968 34.7335Z" fill="#263238"/>
<path d="M100.607 42.987C100.598 42.7816 100.632 42.5767 100.704 42.3844C100.777 42.1922 100.888 42.0166 101.03 41.8681C101.172 41.7196 101.343 41.6013 101.532 41.5203C101.721 41.4393 101.924 41.3972 102.13 41.3965C103.174 41.3965 104.383 41.9124 104.482 44.0678C104.666 47.8937 100.797 47.2919 100.797 47.1813C100.797 47.0708 100.668 44.6021 100.607 42.987Z" fill="#FFBE9D"/>
<path d="M101.542 45.7136C101.542 45.7136 101.609 45.7566 101.726 45.8057C101.886 45.8696 102.064 45.8696 102.224 45.8057C102.463 45.6386 102.654 45.4104 102.776 45.1448C102.898 44.8792 102.947 44.5858 102.917 44.295C102.912 43.9663 102.832 43.6431 102.684 43.3493C102.643 43.2316 102.574 43.1256 102.483 43.0401C102.392 42.9547 102.282 42.8922 102.162 42.858C102.084 42.8418 102.003 42.8531 101.932 42.8901C101.862 42.927 101.806 42.9873 101.775 43.0607C101.726 43.1712 101.775 43.2449 101.738 43.251C101.702 43.2572 101.652 43.1958 101.677 43.0361C101.692 42.9392 101.74 42.8504 101.812 42.7843C101.916 42.7019 102.048 42.6624 102.181 42.6738C102.339 42.698 102.488 42.762 102.615 42.8597C102.742 42.9575 102.842 43.0858 102.905 43.2326C103.083 43.5566 103.178 43.9194 103.182 44.2889C103.217 44.6277 103.151 44.9695 102.993 45.2712C102.834 45.5728 102.59 45.8207 102.291 45.9838C102.19 46.0185 102.083 46.0304 101.976 46.0187C101.87 46.0071 101.768 45.9721 101.677 45.9162C101.554 45.8057 101.53 45.7197 101.542 45.7136Z" fill="#EB996E"/>
<path d="M99.9477 35.6178C99.5109 36.0383 98.974 36.3406 98.3879 36.496C98.0942 36.5691 97.7839 36.5312 97.5164 36.3895C97.2489 36.2479 97.0432 36.0124 96.9387 35.7284C96.8711 35.4705 96.9386 35.1573 96.7237 34.9607C96.5088 34.7642 96.1096 34.8441 95.7964 34.8993C95.243 34.9847 94.6771 34.8783 94.1924 34.598C93.7077 34.3177 93.3333 33.8802 93.1312 33.358C92.9749 33.5609 92.7484 33.6981 92.4961 33.7424C92.2438 33.7867 91.984 33.735 91.7679 33.5975C91.3467 33.301 90.9685 32.9476 90.6441 32.5473C90.4789 32.3517 90.2682 32.1996 90.0305 32.1043C89.7928 32.009 89.5354 31.9735 89.2808 32.0008C89.0184 32.1123 88.7445 32.1947 88.4641 32.2464C87.9605 32.2464 87.6719 31.6753 87.5552 31.184C87.4385 30.6928 87.3341 30.1155 86.8858 29.8822C86.4356 29.7428 85.9507 29.7667 85.5164 29.9497C85.0619 30.0541 84.4601 29.9927 84.2882 29.5505C84.2591 29.4324 84.2539 29.3096 84.2729 29.1894C84.2919 29.0692 84.3347 28.9539 84.3987 28.8505C84.6725 28.3644 85.1016 27.9845 85.6173 27.7718C86.133 27.5591 86.7052 27.5259 87.242 27.6775C87.3818 27.0289 87.7102 26.436 88.186 25.9735C88.6618 25.511 89.2637 25.1994 89.916 25.078C90.5683 24.9566 91.242 25.0308 91.8523 25.2911C92.4626 25.5515 92.9824 25.9865 93.3462 26.5414C93.7211 26.141 94.1873 25.8371 94.7051 25.6557C95.2229 25.4744 95.7769 25.4209 96.3198 25.5C96.8627 25.579 97.3784 25.7881 97.823 26.1095C98.2676 26.431 98.6278 26.8552 98.8731 27.3459C99.3313 27.1764 99.8296 27.1473 100.304 27.2625C100.779 27.3777 101.209 27.6318 101.539 27.9924C101.868 28.353 102.083 28.8037 102.155 29.2869C102.227 29.7701 102.153 30.2639 101.944 30.705C102.313 30.8529 102.639 31.0922 102.89 31.4005C103.141 31.7088 103.31 32.076 103.381 32.4675C103.403 32.6616 103.383 32.8583 103.322 33.0438C103.26 33.2293 103.159 33.3992 103.025 33.5414C102.891 33.6836 102.728 33.7947 102.546 33.867C102.365 33.9393 102.169 33.971 101.974 33.9598C102.154 34.2588 102.213 34.6151 102.139 34.9561C102.065 35.2971 101.863 35.5969 101.576 35.7944C101.288 35.9919 100.936 36.0722 100.591 36.0188C100.246 35.9655 99.935 35.7825 99.7205 35.5073" fill="#263238"/>
<path d="M102.268 33.9413C102.296 34.0716 102.294 34.2064 102.263 34.3359C102.232 34.4654 102.173 34.5865 102.09 34.6905C101.923 34.9493 101.664 35.1356 101.366 35.2125C101.173 35.2572 100.974 35.2594 100.781 35.2191C100.588 35.1788 100.406 35.0969 100.248 34.9792L100.408 34.9423C100.238 35.3153 100.007 35.6577 99.7259 35.9556C99.5373 36.1576 99.3123 36.3221 99.0627 36.4407C98.8255 36.553 98.5625 36.5997 98.3012 36.5758C98.0809 36.5758 97.8634 36.5273 97.6639 36.4339C97.4644 36.3406 97.2878 36.2045 97.1467 36.0354C96.9752 35.8036 96.8501 35.5409 96.7782 35.2617C96.7388 35.1642 96.72 35.0597 96.723 34.9546C96.723 34.9546 96.7782 35.0529 96.8581 35.2371C96.959 35.488 97.0978 35.722 97.2695 35.931C97.4239 36.083 97.6084 36.201 97.811 36.2774C98.0137 36.3538 98.2301 36.3871 98.4464 36.3749C98.6627 36.3628 98.874 36.3055 99.0669 36.2069C99.2597 36.1082 99.4298 35.9703 99.5662 35.8021C99.8303 35.5197 100.05 35.1987 100.217 34.8502L100.279 34.7335L100.377 34.8134C100.509 34.9163 100.662 34.9894 100.825 35.0276C100.989 35.0657 101.158 35.0681 101.323 35.0344C101.586 34.9778 101.821 34.8299 101.986 34.6169C102.125 34.4134 102.221 34.1835 102.268 33.9413Z" fill="#455A64"/>
<path d="M94.3653 25.7921C94.3653 25.7921 94.2671 25.829 94.1013 25.915C93.8648 26.0382 93.6719 26.2312 93.5486 26.4677L93.5117 26.5413L93.4503 26.4738C92.9215 25.8644 92.2447 25.4012 91.4852 25.1289C90.996 24.9522 90.4748 24.881 89.9561 24.9201C89.3828 24.9728 88.836 25.1856 88.3779 25.5342C88.0159 25.7987 87.7127 26.1353 87.4874 26.5229C87.2868 26.8867 87.1752 27.2929 87.1619 27.7081V27.831H87.0391C86.5528 27.7392 86.0497 27.8212 85.6176 28.0625C85.1855 28.3038 84.8518 28.6891 84.6748 29.1513C84.5514 29.5208 84.5013 29.9109 84.5274 30.2996C84.4853 30.2026 84.4623 30.0983 84.4599 29.9926C84.4299 29.6942 84.4634 29.3928 84.5582 29.1083C84.7068 28.6645 84.9929 28.2795 85.3749 28.009C85.8726 27.6644 86.4852 27.5278 87.0821 27.6283L86.9593 27.7266C86.9658 27.2768 87.084 26.8358 87.3032 26.4431C87.5377 26.0246 87.8604 25.6621 88.2489 25.3807C88.7445 25.0199 89.3321 24.807 89.9438 24.7666C90.491 24.7326 91.0392 24.8142 91.5528 25.0061C92.3355 25.3023 93.0231 25.8053 93.5424 26.4615H93.4442C93.5852 26.2169 93.8002 26.0233 94.0583 25.9088C94.1491 25.8446 94.2548 25.8044 94.3653 25.7921Z" fill="#455A64"/>
<path d="M62.7147 91.986H59.896C59.896 91.986 53.5401 89.6893 52.232 89.9103C51.0591 90.1069 46.7481 92.9808 45.9007 93.5397C45.8074 93.602 45.7365 93.6923 45.698 93.7976C45.6149 94.0218 45.6223 94.2696 45.7186 94.4885C45.8148 94.7073 45.9924 94.8802 46.2138 94.9705L46.2998 95.0074L46.263 95.1363C46.2123 95.3034 46.1895 95.4777 46.1954 95.6522C46.2 95.7871 46.2489 95.9167 46.3345 96.021C46.4202 96.1253 46.5378 96.1985 46.6692 96.2293C46.8006 96.26 46.9385 96.2467 47.0616 96.1912C47.1846 96.1357 47.286 96.0412 47.3499 95.9224L47.1903 96.211C47.1239 96.3266 47.092 96.4587 47.0981 96.5918V96.8558C47.1087 96.9948 47.1605 97.1276 47.2469 97.237C47.3333 97.3464 47.4505 97.4275 47.5833 97.4699C47.7114 97.5126 47.8491 97.5174 47.9799 97.4836C48.1106 97.4498 48.2288 97.379 48.3202 97.2795C49.0294 96.5256 49.9224 95.969 50.9117 95.6645C51.7494 95.4531 52.6011 95.3013 53.4602 95.21C53.6377 95.2099 53.8109 95.2639 53.9569 95.3649C54.1028 95.4658 54.2145 95.6089 54.277 95.775C52.8647 96.2363 51.4977 96.8263 50.1932 97.5375C50.0109 97.6257 49.8533 97.7577 49.7344 97.9216C49.6154 98.0856 49.5389 98.2764 49.5116 98.477C49.4686 98.8455 49.6528 99.2262 50.3774 99.0543C51.9311 98.692 53.8655 98.0165 53.8655 98.0165C53.8655 98.0165 55.3087 97.605 56.2421 98.2682C57.5563 99.1894 58.1581 99.5333 59.3126 99.1587C59.9972 98.9291 60.6542 98.6243 61.2716 98.2498L63.4946 98.0287C63.4946 98.0287 65.5887 92.7905 62.7147 91.986Z" fill="#FFBE9D"/>
<path d="M62.111 96.9295L61.9636 97.0339C61.9023 97.0795 61.8365 97.1186 61.7671 97.1506C61.6775 97.203 61.5829 97.2462 61.4846 97.2795C60.8633 97.508 60.1848 97.5295 59.5502 97.3409C59.1086 97.221 58.7008 97.0003 58.3589 96.6961L58.2238 96.5733L58.0948 96.4259C58.0108 96.3299 57.9348 96.2272 57.8676 96.1189C57.7263 95.8978 57.6219 95.6522 57.4684 95.4311C57.3278 95.2118 57.1077 95.0555 56.8543 94.9951C56.5732 94.9553 56.2879 94.9553 56.0069 94.9951C55.387 95.053 54.7618 94.9925 54.1646 94.817C53.6002 94.6546 53.0668 94.3993 52.5863 94.0617C52.3688 93.8989 52.1635 93.7203 51.9722 93.5274C51.9144 93.474 51.8736 93.4047 51.855 93.3282C51.8365 93.2518 51.8409 93.1715 51.8678 93.0975C51.8941 93.0259 51.9394 92.9629 51.999 92.9153C52.0585 92.8677 52.13 92.8372 52.2056 92.8273L56.3385 92.6554L57.5237 92.6185H57.9474H57.8369H57.5237L56.3385 92.6861L52.2117 92.901C52.1566 92.9079 52.1045 92.9299 52.0612 92.9646C52.0178 92.9993 51.9849 93.0453 51.9661 93.0975C51.9479 93.1509 51.9458 93.2084 51.96 93.263C51.9742 93.3176 52.0041 93.3668 52.0459 93.4046C52.2368 93.5942 52.4421 93.7687 52.66 93.9266C53.1288 94.257 53.6499 94.5061 54.2014 94.6635C54.7833 94.8312 55.391 94.8916 55.9946 94.8416C56.2878 94.7989 56.5857 94.7989 56.8789 94.8416C57.0255 94.8666 57.1643 94.9255 57.2842 95.0135C57.4022 95.0974 57.5024 95.2038 57.5789 95.3267C57.7448 95.5601 57.843 95.8057 57.9781 96.0206C58.0463 96.1248 58.1201 96.2253 58.1992 96.3215L58.322 96.4566L58.451 96.5794C58.7839 96.8662 59.176 97.0759 59.5993 97.1935C60.216 97.3939 60.8802 97.3939 61.4969 97.1935C61.7073 97.1194 61.9124 97.0311 62.111 96.9295Z" fill="#EB996E"/>
<path d="M132.927 80.2015C130.47 76.7932 123.979 70.6768 120.528 66.5869C119.213 65.1472 117.775 63.8259 116.229 62.6382C116.057 62.5829 115.099 62.061 114.94 61.9873H114.878L114.743 61.932L102.694 57.4552L93.3416 65.8868L88.521 58.3395L86.8506 60.1818C86.6787 60.2432 84.0196 61.7109 82.5519 62.2759C80.5131 63.0865 77.461 67.3361 76.6688 72.1383C75.9074 76.7809 74.0405 89.5112 74.0405 89.5112L61.4453 91.9676L61.691 99.3368L72.9413 101.099C75.6556 101.001 80.6728 99.4535 81.729 97.5682L81.6738 108.53C83.9582 109.881 87.1024 113.375 90.2712 112.786C100.465 110.913 112.379 113.117 116.585 117.698C115.911 111.301 115.567 104.873 115.554 98.4402C118.495 97.3164 122.646 96.2479 125.637 94.7924C135.622 89.9411 135.948 84.4142 132.927 80.2015ZM115.658 87.368C115.658 84.3343 115.658 81.9025 115.658 80.6497L119.656 84.5124L115.658 87.368Z" fill="#FF725E"/>
<g opacity="0.3">
<path opacity="0.3" d="M102.374 57.8482C102.014 57.9225 101.68 58.0897 101.404 58.3334C98.5986 60.3952 96.0303 62.7617 93.7463 65.3894L93.3594 66.1079C94.2191 65.5368 95.2017 64.9411 96.2211 65.1499C97.0626 65.4372 97.7844 65.9969 98.2722 66.7404C100.348 64.1278 102.24 61.3741 103.934 58.4992C103.518 58.0892 102.959 57.8559 102.374 57.8482Z" fill="#111111"/>
</g>
<path d="M93.3203 65.8868L96.7715 61.5205L101.961 55.3181L104.724 57.9096L99.885 65.3955L96.4522 63.3321L93.3203 65.8868Z" fill="white"/>
<g opacity="0.3">
<path opacity="0.3" d="M87.0921 60.237C87.5465 62.6934 88.6888 64.7445 89.1493 67.2009C89.6959 66.4886 89.5669 66.1815 90.1135 65.463C90.3113 65.1549 90.5895 64.9064 90.9179 64.7445C91.2285 64.6827 91.5489 64.6909 91.8559 64.7684C92.1629 64.846 92.4488 64.991 92.6927 65.1928C91.8548 64.265 90.9316 63.418 89.9354 62.6627C89.9175 62.7274 89.9031 62.793 89.8924 62.8592C88.9651 61.7109 88.0501 60.5809 87.043 59.4633" fill="#111111"/>
</g>
<path d="M93.2628 65.8561L88.4115 57.5964L86.6797 59.187L88.3193 66.5868L90.6468 63.59L93.2628 65.8561Z" fill="white"/>
<path d="M93.0758 65.5245C93.0418 65.4818 93.011 65.4367 92.9837 65.3894L92.738 64.9841L91.8046 63.412L88.3779 57.6149H88.4455L86.7015 59.144V59.101C87.1989 61.3425 87.7638 63.8541 88.3657 66.5623H88.2674L90.5948 63.5655L90.6317 63.5164L90.6747 63.5532L93.2969 65.8254H93.2416L93.5241 65.7701H93.4934C94.3347 65.0271 95.2681 64.284 96.1709 63.4979L96.4042 63.2953H96.4349H96.4718C97.7 63.9094 98.7624 64.7384 99.9046 65.3587H99.8248L104.664 57.8728V57.9404L101.943 55.355H102.017L95.9191 62.7672L94.2119 64.8306L93.7636 65.3648L93.6039 65.549L93.7513 65.3587L94.1873 64.806L95.87 62.7303L101.943 55.269L101.98 55.3059L104.744 57.8912V57.9219V57.9588L99.9169 65.4508L99.8862 65.4999H99.837C98.6825 64.8858 97.5956 64.0691 96.4042 63.4304H96.4718L96.2384 63.633C95.3296 64.4252 94.3961 65.1622 93.561 65.9052L93.2785 65.9605L90.6624 63.6883H90.7484L88.4209 66.679L88.3472 66.7772V66.6606C87.7331 63.9462 87.1927 61.4346 86.6953 59.1931L88.4516 57.664H88.4885V57.707L91.8845 63.5225C92.2775 64.2103 92.5845 64.7507 92.7995 65.1069L93.0328 65.5183L93.0758 65.5245Z" fill="#263238"/>
<path d="M126.424 94.5714L126.154 94.7003L125.343 95.0197L122.273 96.2049L111.501 100.27L111.372 100.319L111.317 100.19L108.161 92.7905L108.105 92.6738L108.21 92.6001L110.169 91.1938L119.515 84.5063V84.7212C116.365 81.6507 113.7 79.0469 111.808 77.1924L109.641 75.043L109.076 74.4658C109.005 74.4024 108.943 74.3302 108.892 74.2508C108.97 74.3014 109.042 74.3612 109.106 74.4289L109.721 74.9755L111.944 77.0695L119.73 84.5186L119.859 84.6353L119.718 84.7396L110.365 91.5009L108.413 92.9072L108.462 92.7168L111.6 100.098L111.415 100.018L122.224 96.0636L125.294 94.9583L126.117 94.6758C126.215 94.6285 126.318 94.5934 126.424 94.5714Z" fill="#263238"/>
<path d="M123.358 84.9607C122.682 84.7863 121.994 84.659 121.301 84.58C120.603 84.6009 119.908 84.6665 119.219 84.7765C119.832 84.3579 120.575 84.1727 121.313 84.2545C122.058 84.234 122.784 84.485 123.358 84.9607Z" fill="#263238"/>
<path d="M115.819 62.9452C115.819 63.0005 115.248 63.0066 114.37 63.2522C113.232 63.561 112.19 64.1525 111.342 64.9717C110.494 65.7909 109.866 66.8112 109.518 67.9378C109.242 68.8037 109.211 69.3748 109.156 69.3748C109.098 68.8706 109.149 68.3598 109.303 67.8764C109.613 66.6794 110.251 65.5926 111.146 64.7384C112.036 63.8883 113.143 63.298 114.345 63.0312C114.824 62.896 115.327 62.8666 115.819 62.9452Z" fill="#263238"/>
<path d="M79.2738 72.7094C79.3598 72.7094 80.0169 78.5495 80.7415 85.7652C81.4662 92.9809 81.9697 98.8517 81.8837 98.8578C81.7978 98.8639 81.1407 93.0238 80.4222 85.802C79.7037 78.5802 79.2185 72.7156 79.2738 72.7094Z" fill="#263238"/>
<path d="M100.455 93.1344C100.184 93.1784 99.9231 93.2743 99.6877 93.4169C99.1227 93.7976 98.9938 94.5652 98.9201 95.2592C98.9201 95.4741 98.8894 95.732 99.0613 95.8733C99.143 95.9116 99.2321 95.9315 99.3223 95.9315C99.4125 95.9315 99.5017 95.9116 99.5833 95.8733C100.745 95.5071 101.862 95.0106 102.912 94.3933C103.506 94.1204 103.979 93.6369 104.238 93.0361L104.275 92.7721C102.992 92.7394 101.709 92.861 100.455 93.1344Z" fill="#FFBE9D"/>
<path d="M105.458 87.6259C103.388 90.113 95.6873 99.2938 95.6873 99.2938L95.3925 100.614C95.389 100.633 95.3904 100.652 95.3968 100.669C95.4031 100.687 95.4141 100.702 95.4285 100.714C95.443 100.726 95.4604 100.734 95.4789 100.737C95.4974 100.74 95.5164 100.738 95.5338 100.731L96.762 100.246L106.71 88.6822C106.783 88.5964 106.838 88.4968 106.871 88.3895C106.904 88.2821 106.915 88.1691 106.904 88.0573C106.892 87.9455 106.858 87.8371 106.804 87.7387C106.75 87.6404 106.676 87.5539 106.588 87.4847C106.417 87.358 106.205 87.302 105.994 87.3283C105.784 87.3546 105.591 87.4612 105.458 87.6259Z" fill="#263238"/>
<path d="M104.715 88.5164L105.974 89.5665L106.324 89.1612L105.059 88.0988L104.715 88.5164Z" fill="#455A64"/>
<path d="M103.212 91.9062C103.108 91.906 103.008 91.869 102.93 91.8018C102.844 91.7262 102.791 91.6206 102.782 91.507C102.775 91.3911 102.812 91.2769 102.887 91.1877L104.33 89.4866C104.367 89.441 104.414 89.4038 104.467 89.3774C104.52 89.3509 104.578 89.3359 104.637 89.3331C104.694 89.3267 104.753 89.3327 104.808 89.3507C104.863 89.3687 104.913 89.3983 104.956 89.4375C105.042 89.5134 105.096 89.6193 105.106 89.7335C105.116 89.8478 105.082 89.9616 105.011 90.0516L103.568 91.7465C103.491 91.8381 103.381 91.8955 103.261 91.9062H103.212ZM102.973 91.7649C103.051 91.8293 103.152 91.8602 103.253 91.851C103.354 91.8418 103.447 91.7933 103.513 91.7158L104.956 90.0147C105.023 89.9356 105.057 89.8331 105.049 89.7295C105.041 89.626 104.992 89.5298 104.913 89.4621C104.832 89.3958 104.729 89.3628 104.624 89.37C104.522 89.3816 104.427 89.4321 104.36 89.5112L102.917 91.2061C102.851 91.2871 102.818 91.3903 102.825 91.4947C102.828 91.5457 102.842 91.5955 102.865 91.641C102.888 91.6864 102.921 91.7266 102.96 91.7588L102.973 91.7649Z" fill="#455A64"/>
<path d="M104.254 90.8868C104.254 90.8868 104.083 90.8008 103.911 90.6473C103.739 90.4937 103.628 90.3464 103.647 90.3218C103.665 90.2972 103.818 90.4078 103.99 90.5675C104.162 90.7271 104.273 90.8868 104.254 90.8868Z" fill="#455A64"/>
<path d="M108.455 92.9931L107.289 93.4046C107.289 93.4046 105.508 92.9563 104.765 92.7905C104.509 92.7304 104.244 92.7228 103.985 92.7682C103.727 92.8136 103.48 92.911 103.26 93.0545C102.345 93.6686 100.773 94.6635 100.19 95.0381C99.6061 95.4127 98.1876 96.604 98.1876 96.604C98.1876 96.604 97.1436 97.7954 97.4875 98.4832C97.8314 99.171 98.7709 99.0666 98.7709 99.0666C98.8365 99.3339 98.9782 99.5764 99.1787 99.765C99.3792 99.9535 99.6301 100.08 99.9009 100.129C99.9009 100.129 99.6614 100.504 100.552 100.743C101.537 100.869 102.533 100.869 103.518 100.743C103.518 100.743 107.313 100.903 107.682 100.743L110.936 99.2631L108.455 92.9931Z" fill="#FFBE9D"/>
<path d="M101.714 94.0433C101.533 94.199 101.34 94.3407 101.137 94.467C100.768 94.7188 100.258 95.0811 99.7119 95.4496C99.2463 95.787 98.8013 96.152 98.3793 96.5427C98.0538 96.8436 97.8696 97.0462 97.8573 97.034C97.8451 97.0217 97.8942 96.9725 97.974 96.8804C98.0835 96.7432 98.2003 96.6119 98.3241 96.4874C98.7334 96.0757 99.1772 95.6998 99.6505 95.3636C100.197 94.9644 100.719 94.6389 101.094 94.3994C101.291 94.2646 101.498 94.1455 101.714 94.0433Z" fill="#EB996E"/>
<path d="M103.485 95.7996C103.428 95.8485 103.364 95.8879 103.294 95.9162L102.754 96.211C102.299 96.4567 101.667 96.8251 101.01 97.2366C100.445 97.6037 99.9086 98.0143 99.4071 98.4648C99.0263 98.8148 98.793 99.0481 98.793 99.0359C98.8312 98.97 98.8787 98.91 98.9342 98.8578C99.066 98.6997 99.2076 98.55 99.3579 98.4095C99.8442 97.9335 100.377 97.5076 100.948 97.1383C101.516 96.7676 102.107 96.4333 102.717 96.1373C102.95 96.0206 103.141 95.9347 103.276 95.8732L103.485 95.7996Z" fill="#EB996E"/>
<path d="M105.414 97.212C105.414 97.212 105.359 97.2796 105.236 97.384C105.113 97.4884 104.941 97.6296 104.714 97.7893C104.26 98.127 103.596 98.5262 102.872 98.9622C102.234 99.3275 101.559 99.622 100.858 99.8404C100.593 99.9263 100.372 99.9878 100.243 100.031C100.166 100.058 100.086 100.075 100.004 100.08C100.074 100.041 100.148 100.01 100.225 99.9878L100.839 99.7667C101.526 99.5268 102.19 99.2247 102.823 98.8639C103.56 98.4341 104.223 98.0411 104.665 97.7279C104.892 97.5743 105.076 97.4392 105.205 97.3471C105.27 97.2944 105.34 97.2491 105.414 97.212Z" fill="#EB996E"/>
<path d="M106.243 98.9069C106.153 99.0363 106.043 99.1503 105.917 99.2447C105.635 99.491 105.335 99.7167 105.021 99.9202C104.703 100.12 104.37 100.294 104.026 100.442C103.889 100.514 103.742 100.565 103.59 100.596C103.59 100.565 104.204 100.295 104.959 99.8219C105.715 99.3491 106.243 98.8701 106.243 98.9069Z" fill="#EB996E"/>
<path d="M134.82 104.845H130.902V105.73L139.537 191.096H143.565L134.82 104.845Z" fill="#455A64"/>
<path d="M16.2935 104.845H20.2176V105.73L11.6754 190.985L7.25391 191.096L16.2935 104.845Z" fill="#455A64"/>
<path d="M1.94141 105.834L150.136 105.987L150.185 102.217H1.94141V105.834Z" fill="#455A64"/>
<path d="M2.34766 105.987C2.34766 105.914 35.4415 105.852 76.2546 105.852C117.068 105.852 150.168 105.914 150.168 105.987C150.168 106.061 117.08 106.116 76.2546 106.116C35.4292 106.116 2.34766 106.061 2.34766 105.987Z" fill="#263238"/>
<path d="M118.709 102.217H87.3281C87.3281 101.952 87.3804 101.689 87.4819 101.444C87.5834 101.199 87.7323 100.976 87.9199 100.788C88.1075 100.601 88.3302 100.452 88.5753 100.35C88.8205 100.249 89.0832 100.197 89.3485 100.197H116.676C116.941 100.197 117.204 100.249 117.449 100.35C117.694 100.452 117.917 100.601 118.105 100.788C118.292 100.976 118.441 101.199 118.543 101.444C118.644 101.689 118.696 101.952 118.696 102.217H118.709Z" fill="#263238"/>
<path d="M80.7854 100.491L66.2681 100.424L61.3553 77.1248C61.2603 76.6578 61.0065 76.238 60.6371 75.9369C60.2677 75.6358 59.8054 75.4718 59.3288 75.4729H28.9923C28.6826 75.4722 28.3766 75.541 28.097 75.6742C27.8175 75.8075 27.5713 76.0018 27.3769 76.2429C27.1824 76.4839 27.0445 76.7655 26.9733 77.067C26.9022 77.3684 26.8996 77.682 26.9658 77.9845L31.9645 100.903C32.0459 101.275 32.2523 101.609 32.5494 101.848C32.8466 102.087 33.2166 102.217 33.598 102.217H82.9041C82.9041 101.038 81.9645 100.491 80.7854 100.491Z" fill="#E0E0E0"/>
<path d="M65.3189 102.217C65.2882 102.217 63.9188 96.2417 62.2484 88.8603C60.5781 81.4788 59.2823 75.479 59.313 75.4729C59.3437 75.4667 60.7132 81.4481 62.3835 88.8296C64.0539 96.211 65.3496 102.211 65.3189 102.217Z" fill="#263238"/>
<path d="M47.3837 88.5041C47.5688 88.8318 47.6552 89.206 47.6326 89.5817C47.61 89.9573 47.4794 90.3185 47.2564 90.6217C47.0334 90.9248 46.7275 91.1571 46.3756 91.2905C46.0236 91.4239 45.6407 91.4528 45.2727 91.3737C44.9048 91.2946 44.5675 91.1108 44.3016 90.8445C44.0356 90.5782 43.8523 90.2407 43.7736 89.8727C43.6949 89.5046 43.7243 89.1217 43.8581 88.77C43.992 88.4182 44.2247 88.1126 44.5281 87.89C44.9885 87.5938 45.5475 87.4922 46.0827 87.6073C46.6179 87.7224 47.0857 88.0448 47.3837 88.5041Z" fill="white"/>
<path d="M73.5705 101.769H72.4283C72.3648 101.769 72.302 101.756 72.2435 101.732C72.185 101.707 72.1319 101.671 72.0874 101.626C72.0428 101.581 72.0076 101.528 71.9839 101.469C71.9602 101.41 71.9484 101.347 71.9493 101.284C71.9493 101.156 71.9997 101.035 72.0896 100.945C72.1794 100.855 72.3012 100.805 72.4283 100.805H73.5705C73.6975 100.805 73.8194 100.855 73.9092 100.945C73.999 101.035 74.0495 101.156 74.0495 101.284C74.0503 101.347 74.0385 101.41 74.0148 101.469C73.9911 101.528 73.9559 101.581 73.9114 101.626C73.8668 101.671 73.8137 101.707 73.7552 101.732C73.6967 101.756 73.6339 101.769 73.5705 101.769Z" fill="#263238"/>
<path d="M94.3333 101.191L94.3947 101.259C94.4471 101.332 94.4827 101.416 94.4991 101.505C94.5211 101.677 94.4976 101.852 94.4308 102.013C94.364 102.173 94.2562 102.314 94.1183 102.42C93.9115 102.566 93.6704 102.657 93.4183 102.684C93.1265 102.717 92.8319 102.717 92.5401 102.684C92.2092 102.631 91.874 102.611 91.5391 102.622C91.3593 102.632 91.1826 102.674 91.0172 102.745C90.8428 102.806 90.6966 102.928 90.6057 103.089C90.5726 103.177 90.5655 103.274 90.5851 103.366C90.6046 103.458 90.6501 103.543 90.7162 103.611C90.8554 103.763 91.0277 103.88 91.2198 103.955C91.4305 104.028 91.6357 104.117 91.8339 104.219C91.9407 104.277 92.0338 104.358 92.1069 104.455C92.18 104.553 92.2314 104.665 92.2576 104.784C92.2745 105.031 92.2097 105.278 92.0733 105.485C91.9369 105.693 91.7364 105.85 91.5023 105.932C91.0066 106.09 90.4865 106.157 89.967 106.129C88.8683 106.131 87.7707 106.059 86.6816 105.914C85.5455 105.785 84.3787 105.613 83.1751 105.508C82.0049 105.395 80.8265 105.395 79.6563 105.508C78.5202 105.619 77.4271 105.773 76.377 105.791C75.8594 105.818 75.3406 105.772 74.8356 105.656C74.3478 105.547 73.9134 105.271 73.6074 104.876C73.4623 104.693 73.3608 104.48 73.3108 104.252C73.2608 104.025 73.2635 103.788 73.3188 103.562C73.3745 103.349 73.5036 103.162 73.6834 103.035C73.8632 102.908 74.0821 102.849 74.3014 102.868C74.4067 102.881 74.506 102.924 74.5868 102.993C74.6676 103.062 74.7264 103.153 74.7558 103.255C74.7791 103.35 74.7807 103.449 74.7605 103.544C74.7403 103.64 74.6988 103.73 74.6391 103.807C74.5874 103.884 74.5213 103.949 74.4443 103.999C74.3674 104.05 74.2813 104.085 74.1908 104.102C74.022 104.126 73.8497 104.103 73.6934 104.035C73.4207 103.912 73.2024 103.693 73.0793 103.421C72.9904 103.189 72.9386 102.944 72.9258 102.696C72.9258 102.248 72.9258 101.904 72.9258 101.67V101.406C72.9258 101.345 72.9258 101.314 72.9258 101.314C72.9258 101.314 72.9258 101.345 72.9258 101.406C72.9302 101.494 72.9302 101.582 72.9258 101.67C72.9258 101.904 72.9258 102.248 72.9258 102.69C72.9397 102.932 72.9937 103.171 73.0854 103.396C73.1918 103.669 73.4013 103.89 73.6688 104.01C73.812 104.071 73.9696 104.091 74.1233 104.065C74.2041 104.05 74.2811 104.019 74.3496 103.974C74.4182 103.928 74.477 103.87 74.5224 103.801C74.5747 103.732 74.6106 103.652 74.6276 103.567C74.6447 103.482 74.6423 103.394 74.6207 103.31C74.5961 103.224 74.546 103.147 74.4769 103.09C74.4078 103.033 74.3231 102.998 74.2338 102.991C74.0389 102.975 73.8446 103.028 73.6843 103.14C73.5241 103.252 73.4078 103.416 73.3556 103.605C73.3064 103.817 73.3057 104.038 73.3535 104.25C73.4013 104.463 73.4965 104.662 73.632 104.833C73.927 105.205 74.3414 105.463 74.8049 105.564C75.2982 105.675 75.8044 105.719 76.3095 105.693C77.3534 105.693 78.4465 105.515 79.5826 105.404C80.7611 105.294 81.9474 105.294 83.126 105.404C84.3542 105.515 85.5025 105.68 86.6325 105.816C87.7177 105.959 88.811 106.033 89.9056 106.037C90.4101 106.065 90.9155 106.003 91.3979 105.852C91.6198 105.775 91.8113 105.629 91.9444 105.435C92.0699 105.256 92.1286 105.038 92.1102 104.821C92.0887 104.715 92.0439 104.616 91.9791 104.53C91.9143 104.444 91.8311 104.373 91.7356 104.323C91.5393 104.217 91.3337 104.129 91.1215 104.059C90.9149 103.981 90.7312 103.852 90.5873 103.685C90.518 103.6 90.4677 103.502 90.4399 103.396C90.4029 103.293 90.4029 103.18 90.4399 103.077C90.5396 102.895 90.7039 102.757 90.9005 102.69C91.074 102.617 91.259 102.575 91.447 102.567C91.7862 102.554 92.1258 102.577 92.4603 102.634C92.7468 102.678 93.0373 102.688 93.3262 102.665C93.5689 102.648 93.8023 102.565 94.0017 102.426C94.1359 102.325 94.2419 102.191 94.3096 102.037C94.3773 101.883 94.4045 101.715 94.3886 101.548C94.3994 101.426 94.3804 101.304 94.3333 101.191Z" fill="#263238"/>
<path d="M118.341 101.198C118.341 101.234 111.451 101.259 102.958 101.259C94.465 101.259 87.6055 101.259 87.6055 101.198C87.6055 101.136 94.4957 101.136 102.958 101.136C111.42 101.136 118.341 101.167 118.341 101.198Z" fill="#455A64"/>
</g>
<defs>
<clipPath id="clip0">
<rect width="277" height="192" fill="white"/>
</clipPath>
</defs>
</svg>
