<svg width="548" height="300" viewBox="0 0 548 300" fill="none" xmlns="http://www.w3.org/2000/svg">
<g clip-path="url(#clip0)">
<path d="M321.154 53.9897H28.9106C20.6433 53.9897 13.9414 60.6917 13.9414 68.9589V252.072C13.9414 260.339 20.6433 267.041 28.9106 267.041H321.154C329.421 267.041 336.123 260.339 336.123 252.072V68.9589C336.123 60.6917 329.421 53.9897 321.154 53.9897Z" fill="#263238"/>
<path d="M0.472656 251.291H349.531V251.651C349.531 256.501 347.604 261.152 344.174 264.582C340.745 268.012 336.093 269.938 331.243 269.938H18.7603C13.9101 269.938 9.25858 268.012 5.82898 264.582C2.39937 261.152 0.472656 256.501 0.472656 251.651V251.291Z" fill="#263238"/>
<path d="M326.58 62.4556H22.5938V242.373H326.58V62.4556Z" fill="#E0E0E0"/>
<path d="M143.27 251.291L147.605 258.185H208.55L212.578 251.291H143.27Z" fill="#455A64"/>
<path d="M312.604 74.4451H32.7305V242.311H312.604V74.4451Z" fill="#FAFAFA"/>
<path d="M44.682 82.7158C44.6841 83.1815 44.5478 83.6374 44.2905 84.0257C44.0332 84.4139 43.6665 84.7171 43.2368 84.8967C42.8071 85.0764 42.3337 85.1244 41.8766 85.0348C41.4196 84.9452 40.9994 84.7219 40.6693 84.3933C40.3392 84.0647 40.1141 83.6455 40.0225 83.1888C39.9309 82.7322 39.9769 82.2585 40.1547 81.828C40.3324 81.3975 40.634 81.0295 41.0211 80.7705C41.4082 80.5115 41.8635 80.3733 42.3293 80.3733C42.9515 80.3733 43.5484 80.6197 43.9893 81.0587C44.4302 81.4978 44.6793 82.0936 44.682 82.7158Z" fill="#455A64"/>
<path d="M54.2562 82.7158C54.2583 83.182 54.1217 83.6383 53.864 84.0267C53.6063 84.4152 53.2389 84.7184 52.8086 84.8977C52.3783 85.0771 51.9044 85.1245 51.447 85.034C50.9897 84.9436 50.5695 84.7193 50.2399 84.3897C49.9102 84.06 49.6859 83.6398 49.5955 83.1825C49.505 82.7252 49.5525 82.2513 49.7318 81.8209C49.9112 81.3906 50.2143 81.0233 50.6028 80.7655C50.9913 80.5078 51.4476 80.3713 51.9138 80.3733C52.535 80.3733 53.1308 80.6201 53.5701 81.0594C54.0094 81.4987 54.2562 82.0945 54.2562 82.7158Z" fill="#455A64"/>
<path d="M63.8422 82.7158C63.8442 83.1815 63.708 83.6374 63.4507 84.0257C63.1934 84.4139 62.8266 84.7171 62.3969 84.8967C61.9672 85.0764 61.4938 85.1244 61.0368 85.0348C60.5797 84.9452 60.1595 84.722 59.8295 84.3933C59.4994 84.0647 59.2743 83.6455 59.1827 83.1888C59.0911 82.7322 59.1371 82.2586 59.3148 81.8281C59.4926 81.3976 59.7941 81.0295 60.1813 80.7705C60.5684 80.5116 61.0237 80.3733 61.4894 80.3733C61.7979 80.372 62.1036 80.4315 62.389 80.5486C62.6744 80.6658 62.9338 80.8381 63.1525 81.0558C63.3711 81.2734 63.5445 81.5321 63.6629 81.817C63.7813 82.1018 63.8422 82.4073 63.8422 82.7158Z" fill="#455A64"/>
<path d="M312.604 92.9898C312.604 93.1439 249.933 93.2569 172.672 93.2569C95.412 93.2569 32.7305 93.1439 32.7305 92.9898C32.7305 92.8357 95.4017 92.7227 172.672 92.7227C249.943 92.7227 312.604 92.846 312.604 92.9898Z" fill="#455A64"/>
<path d="M336.123 251.435H13.9414V252.462H336.123V251.435Z" fill="#455A64"/>
<path d="M116.888 174.555H55.6758V178.654H116.888V174.555Z" fill="#455A64"/>
<path d="M195.958 117.699H134.746V121.798H195.958V117.699Z" fill="#455A64"/>
<path d="M287.006 132.956C287.006 133.099 252.917 133.223 210.876 133.223C168.835 133.223 134.746 133.099 134.746 132.956C134.746 132.812 168.825 132.678 210.876 132.678C252.928 132.678 287.006 132.801 287.006 132.956Z" fill="#455A64"/>
<path d="M287.006 141.894C287.006 142.038 252.917 142.161 210.876 142.161C168.835 142.161 134.746 142.038 134.746 141.894C134.746 141.75 168.825 141.627 210.876 141.627C252.928 141.627 287.006 141.781 287.006 141.894Z" fill="#455A64"/>
<path d="M287.006 150.832C287.006 150.986 252.917 151.099 210.876 151.099C168.835 151.099 134.746 150.986 134.746 150.832C134.746 150.678 168.825 150.565 210.876 150.565C252.928 150.565 287.006 150.688 287.006 150.832Z" fill="#455A64"/>
<path d="M287.006 159.781C287.006 159.925 252.917 160.048 210.876 160.048C168.835 160.048 134.746 159.925 134.746 159.781C134.746 159.637 168.825 159.503 210.876 159.503C252.928 159.503 287.006 159.627 287.006 159.781Z" fill="#455A64"/>
<path d="M287.006 168.719C287.006 168.863 252.917 168.986 210.876 168.986C168.835 168.986 134.746 168.863 134.746 168.719C134.746 168.575 168.825 168.452 210.876 168.452C252.928 168.452 287.006 168.565 287.006 168.719Z" fill="#455A64"/>
<path d="M194.181 177.658C194.181 177.802 180.876 177.925 164.469 177.925C148.061 177.925 134.746 177.802 134.746 177.658C134.746 177.514 148.102 177.391 164.469 177.391C180.835 177.391 194.181 177.514 194.181 177.658Z" fill="#455A64"/>
<path d="M285.881 195.01C285.881 195.164 263.473 195.277 235.847 195.277C208.22 195.277 185.812 195.164 185.812 195.01C185.812 194.856 208.21 194.743 235.847 194.743C263.484 194.743 285.881 194.866 285.881 195.01Z" fill="#455A64"/>
<path d="M285.881 204.503C285.881 204.647 263.473 204.771 235.847 204.771C208.22 204.771 185.812 204.647 185.812 204.503C185.812 204.36 208.21 204.236 235.847 204.236C263.484 204.236 285.881 204.36 285.881 204.503Z" fill="#455A64"/>
<path d="M285.881 213.997C285.881 214.14 263.473 214.264 235.847 214.264C208.22 214.264 185.812 214.14 185.812 213.997C185.812 213.853 208.21 213.729 235.847 213.729C263.484 213.729 285.881 213.843 285.881 213.997Z" fill="#455A64"/>
<path d="M285.881 223.49C285.881 223.634 263.473 223.757 235.847 223.757C208.22 223.757 185.812 223.634 185.812 223.49C185.812 223.346 208.21 223.223 235.847 223.223C263.484 223.223 285.881 223.336 285.881 223.49Z" fill="#455A64"/>
<path d="M117.042 194.106C117.042 194.25 103.686 194.373 87.2476 194.373C70.8093 194.373 57.4531 194.25 57.4531 194.106C57.4531 193.962 70.8093 193.839 87.2476 193.839C103.686 193.839 117.042 193.952 117.042 194.106Z" fill="#455A64"/>
<path d="M117.042 201.555C117.042 201.709 103.686 201.822 87.2476 201.822C70.8093 201.822 57.4531 201.709 57.4531 201.555C57.4531 201.401 70.8093 201.288 87.2476 201.288C103.686 201.288 117.042 201.37 117.042 201.555Z" fill="#455A64"/>
<path d="M117.042 209.014C117.042 209.158 103.686 209.281 87.2476 209.281C70.8093 209.281 57.4531 209.158 57.4531 209.014C57.4531 208.87 70.8093 208.747 87.2476 208.747C103.686 208.747 117.042 208.87 117.042 209.014Z" fill="#455A64"/>
<path d="M117.042 216.462C117.042 216.617 103.686 216.73 87.2476 216.73C70.8093 216.73 57.4531 216.617 57.4531 216.462C57.4531 216.308 70.8093 216.195 87.2476 216.195C103.686 216.195 117.042 216.319 117.042 216.462Z" fill="#455A64"/>
<path d="M117.042 223.973C117.042 224.117 103.686 224.24 87.2476 224.24C70.8093 224.24 57.4531 224.117 57.4531 223.973C57.4531 223.829 70.8093 223.706 87.2476 223.706C103.686 223.706 117.042 223.777 117.042 223.973Z" fill="#455A64"/>
<path d="M117.042 104.322H55.6758V163.695H117.042V104.322Z" fill="#E0E0E0"/>
<path d="M60.4297 158.61L77.4126 128.055L91.2927 147.586L99.7379 137.219L112.282 158.61H60.4297Z" fill="#FF725E"/>
<path d="M97.2106 122.117C97.2106 122.99 96.9515 123.844 96.4661 124.571C95.9806 125.297 95.2907 125.864 94.4834 126.198C93.6762 126.532 92.7879 126.62 91.9309 126.449C91.074 126.279 90.2868 125.858 89.6689 125.24C89.0511 124.623 88.6304 123.835 88.4599 122.978C88.2894 122.121 88.3769 121.233 88.7113 120.426C89.0457 119.619 89.6119 118.929 90.3384 118.443C91.0649 117.958 91.9191 117.699 92.7928 117.699C93.9645 117.699 95.0882 118.164 95.9167 118.993C96.7452 119.821 97.2106 120.945 97.2106 122.117Z" fill="#FF725E"/>
<path d="M112.284 158.774C112.28 158.695 112.28 158.616 112.284 158.538C112.284 158.353 112.284 158.127 112.284 157.839C112.284 157.212 112.284 156.318 112.284 155.168C112.284 152.815 112.284 149.414 112.212 145.089C112.212 136.418 112.14 124.068 112.089 109.233L112.336 109.49H60.4931C60.4212 109.551 61.0376 108.935 60.7808 109.202V122.558C60.7808 126.914 60.7808 131.188 60.7808 135.349C60.7808 143.661 60.7808 151.52 60.7808 158.753L60.5239 158.507L98.0136 158.63L108.596 158.702H111.401H112.377C112.377 158.702 112.305 158.702 112.151 158.702H111.452H108.699L98.178 158.774L60.5239 158.897H60.2773V158.64C60.2773 151.449 60.2773 143.548 60.2773 135.236C60.2773 131.075 60.2773 126.801 60.2773 122.445V109.089L60.5753 108.791H112.418H112.675V109.038C112.675 123.935 112.572 136.336 112.541 145.048C112.541 149.353 112.541 152.733 112.479 155.075C112.479 156.205 112.479 157.079 112.479 157.705C112.479 157.983 112.479 158.199 112.479 158.363C112.479 158.527 112.294 158.784 112.284 158.774Z" fill="#455A64"/>
<path d="M178.127 190.479H134.699V232.5H178.127V190.479Z" fill="#E0E0E0"/>
<path d="M138.07 228.904L150.081 207.288L159.913 221.106L165.882 213.76L174.769 228.904H138.07Z" fill="#FF725E"/>
<path d="M164.098 203.075C164.098 203.685 163.917 204.281 163.579 204.788C163.24 205.295 162.758 205.69 162.195 205.923C161.632 206.156 161.012 206.217 160.414 206.098C159.817 205.979 159.267 205.686 158.836 205.255C158.405 204.824 158.112 204.275 157.993 203.677C157.874 203.079 157.935 202.459 158.168 201.896C158.401 201.333 158.797 200.851 159.303 200.513C159.81 200.174 160.406 199.993 161.016 199.993C161.833 199.993 162.617 200.318 163.195 200.896C163.773 201.474 164.098 202.258 164.098 203.075Z" fill="#FF725E"/>
<path d="M174.77 229.027C174.766 228.969 174.766 228.911 174.77 228.853C174.77 228.729 174.77 228.565 174.77 228.36C174.77 227.918 174.77 227.332 174.77 226.469C174.77 224.805 174.77 222.36 174.719 219.329C174.719 213.164 174.719 204.452 174.637 193.962L174.811 194.137H138.113C138.113 194.137 138.503 193.747 138.318 193.942V212.435C138.318 218.322 138.318 223.88 138.318 229.007L138.133 228.822L164.671 228.914L172.15 228.966H174.133H172.181H164.743L138.092 229.058H137.917V228.884C137.917 223.747 137.917 218.199 137.917 212.312C137.917 209.373 137.917 206.342 137.917 203.26V193.849C137.732 194.024 138.164 193.582 138.123 193.634H174.822H174.996V193.808C174.996 204.349 174.924 213.123 174.904 219.298C174.904 222.38 174.904 224.733 174.904 226.387C174.904 227.188 174.904 227.805 174.904 228.247C174.904 228.442 174.904 228.596 174.904 228.719C174.88 228.83 174.834 228.934 174.77 229.027Z" fill="#455A64"/>
<path d="M540.77 251.712L530.496 250.49L528.082 269.743L543.113 271.685L543.339 270.504C544.305 265.223 547.849 243.606 547.212 239.918C546.503 235.808 540.77 251.712 540.77 251.712Z" fill="#FF725E"/>
<path d="M546.316 238.541C546.501 238.541 545.792 245.795 544.734 254.681C543.675 263.568 542.679 270.76 542.494 270.74C542.309 270.719 543.028 263.548 544.076 254.599C545.124 245.651 546.131 238.521 546.316 238.541Z" fill="#263238"/>
<path d="M542.906 250.808C542.803 250.952 542.269 250.747 541.776 250.274C541.282 249.802 541.077 249.247 541.221 249.154C541.365 249.062 541.796 249.36 542.248 249.802C542.7 250.243 543.019 250.685 542.906 250.808Z" fill="#263238"/>
<path d="M543.726 249.658C543.644 249.822 543.038 249.658 542.442 249.206C541.846 248.753 541.517 248.178 541.651 248.075C541.784 247.973 542.288 248.25 542.842 248.671C543.397 249.093 543.818 249.493 543.726 249.658Z" fill="#263238"/>
<path d="M543.121 264.925C543.121 265.007 542.865 265.264 542.351 265.634C541.698 266.078 541.089 266.584 540.532 267.144C540.006 267.701 539.625 268.378 539.423 269.117C539.279 269.692 539.32 270.072 539.217 270.093C539.115 270.113 538.93 269.733 538.96 269.065C539.033 268.189 539.394 267.361 539.988 266.713C540.576 266.099 541.272 265.601 542.043 265.243C542.69 264.956 543.07 264.843 543.121 264.925Z" fill="#263238"/>
<path d="M540.983 250.521C541.147 250.449 541.476 250.829 541.599 251.394C541.722 251.959 541.599 252.421 541.414 252.421C541.229 252.421 541.065 252.01 540.952 251.507C540.839 251.004 540.808 250.593 540.983 250.521Z" fill="#263238"/>
<path d="M539.96 250.685C540.134 250.685 540.227 251.219 540.165 251.877C540.103 252.534 539.888 253.028 539.713 252.986C539.538 252.945 539.436 252.421 539.508 251.805C539.579 251.188 539.775 250.685 539.96 250.685Z" fill="#263238"/>
<path d="M534.502 271.274L477.554 265.5L359.465 268.141L390.862 242.825L469.674 239.045L538.581 248.538L534.502 271.274Z" fill="#263238"/>
<path d="M438.245 255.462C438.245 255.617 427.159 255.73 413.484 255.73C399.81 255.73 388.734 255.617 388.734 255.462C388.734 255.308 399.81 255.195 413.484 255.195C427.159 255.195 438.245 255.319 438.245 255.462Z" fill="#455A64"/>
<path d="M432.738 240.812L436.786 266.281H444.553L438.646 240.534L432.738 240.812Z" fill="black"/>
<path d="M462.799 266.62L461.649 256.346L442.344 258.401L443.833 273.442H445.036C450.399 273.175 472.251 271.716 475.693 270.257C479.577 268.582 462.799 266.62 462.799 266.62Z" fill="#FF725E"/>
<path d="M476.094 269.178C476.094 269.363 468.902 270.319 460.015 271.315C451.128 272.312 443.896 272.969 443.875 272.784C443.854 272.599 451.067 271.654 459.944 270.658C468.82 269.661 476.074 269.034 476.094 269.178Z" fill="#263238"/>
<path d="M463.358 268.685C463.184 268.613 463.266 268.048 463.615 267.463C463.964 266.877 464.447 266.548 464.581 266.661C464.714 266.774 464.509 267.267 464.19 267.802C463.872 268.336 463.543 268.757 463.358 268.685Z" fill="#263238"/>
<path d="M464.676 269.178C464.502 269.178 464.522 268.51 464.831 267.822C465.139 267.134 465.591 266.702 465.745 266.795C465.899 266.887 465.745 267.442 465.437 268.079C465.129 268.716 464.851 269.271 464.676 269.178Z" fill="#263238"/>
<path d="M449.669 272.096C449.607 272.158 449.278 271.921 448.806 271.51C448.225 270.977 447.595 270.499 446.926 270.082C446.263 269.697 445.514 269.481 444.748 269.456C444.162 269.456 443.792 269.569 443.72 269.456C443.648 269.343 443.998 269.096 444.676 268.973C445.559 268.848 446.458 269.029 447.224 269.486C447.954 269.925 448.595 270.497 449.114 271.171C449.546 271.695 449.741 272.034 449.669 272.096Z" fill="#263238"/>
<path d="M463.209 266.743C463.322 266.887 463.024 267.288 462.5 267.545C461.976 267.801 461.473 267.781 461.473 267.606C461.473 267.432 461.791 267.175 462.253 266.949C462.716 266.723 463.106 266.589 463.209 266.743Z" fill="#263238"/>
<path d="M462.802 265.778C462.802 265.962 462.339 266.168 461.692 266.25C461.045 266.332 460.51 266.25 460.5 266.065C460.49 265.88 460.993 265.675 461.61 265.593C462.226 265.51 462.76 265.603 462.802 265.778Z" fill="#263238"/>
<path d="M349.848 149.096L366.286 148.798C366.512 146.897 366.831 139.49 366.831 139.49C366.831 139.49 373.714 138.843 374.218 132.041C374.721 125.24 374.505 109.5 374.505 109.5C370.733 107.596 366.521 106.733 362.304 107C358.087 107.267 354.017 108.655 350.516 111.021L349.488 111.74L349.848 149.096Z" fill="#FFBE9D"/>
<path d="M372.236 121.12C372.057 120.93 371.957 120.678 371.957 120.416C371.957 120.155 372.057 119.903 372.236 119.713C372.377 119.563 372.56 119.458 372.761 119.414C372.962 119.369 373.172 119.385 373.363 119.461C373.554 119.537 373.719 119.669 373.834 119.839C373.95 120.009 374.012 120.21 374.012 120.416C374.012 120.622 373.95 120.823 373.834 120.994C373.719 121.164 373.554 121.296 373.363 121.371C373.172 121.447 372.962 121.464 372.761 121.419C372.56 121.374 372.377 121.27 372.236 121.12Z" fill="#263238"/>
<path d="M373.973 119.661C373.86 119.774 373.223 119.219 372.288 119.158C371.353 119.096 370.634 119.538 370.541 119.415C370.449 119.291 370.613 119.147 370.921 118.942C371.341 118.678 371.835 118.556 372.329 118.593C372.822 118.623 373.291 118.815 373.665 119.137C373.973 119.394 374.045 119.61 373.973 119.661Z" fill="#263238"/>
<path d="M363.121 119.815C363.268 119.989 363.353 120.207 363.362 120.435C363.372 120.662 363.306 120.887 363.174 121.073C363.042 121.259 362.853 121.395 362.635 121.462C362.417 121.528 362.183 121.52 361.97 121.439C361.823 121.383 361.692 121.294 361.585 121.179C361.478 121.065 361.399 120.927 361.353 120.777C361.307 120.627 361.297 120.469 361.322 120.314C361.347 120.159 361.407 120.012 361.498 119.884C361.588 119.757 361.707 119.651 361.845 119.576C361.983 119.501 362.136 119.459 362.292 119.452C362.449 119.445 362.605 119.475 362.749 119.538C362.892 119.601 363.019 119.696 363.121 119.815Z" fill="#263238"/>
<path d="M363.698 119.856C363.585 119.969 362.948 119.414 362.003 119.353C361.057 119.291 360.359 119.733 360.256 119.61C360.153 119.486 360.328 119.342 360.646 119.137C361.065 118.873 361.558 118.75 362.052 118.787C362.546 118.824 363.015 119.019 363.39 119.342C363.698 119.589 363.79 119.815 363.698 119.856Z" fill="#263238"/>
<path d="M367.024 127.839C367.518 127.677 368.035 127.601 368.555 127.613C368.801 127.613 369.007 127.551 369.027 127.428C369.052 127.181 369.006 126.931 368.894 126.709L368.267 124.757C367.664 123.092 367.23 121.371 366.973 119.62C367.744 121.207 368.35 122.87 368.781 124.582C368.986 125.26 369.171 125.908 369.366 126.545C369.507 126.869 369.532 127.231 369.438 127.572C369.396 127.664 369.333 127.745 369.255 127.809C369.177 127.873 369.085 127.918 368.986 127.942C368.847 127.961 368.705 127.961 368.565 127.942C368.049 127.993 367.528 127.958 367.024 127.839Z" fill="#263238"/>
<path d="M363.911 128.692C362.966 128.045 366.51 130.284 368.432 130.305C368.081 130.779 367.582 131.121 367.013 131.275C366.444 131.43 365.84 131.389 365.298 131.158C363.305 130.284 363.911 128.692 363.911 128.692Z" fill="white"/>
<path d="M366.874 139.387C363.721 139.249 360.681 138.176 358.141 136.305C358.141 136.305 359.939 141.339 366.781 141.144L366.874 139.387Z" fill="#A36957"/>
<path d="M374.998 107.045C375.389 107.032 375.772 106.929 376.117 106.745C376.462 106.562 376.76 106.301 376.989 105.984C377.217 105.667 377.37 105.301 377.436 104.916C377.501 104.531 377.477 104.135 377.366 103.76C377.255 103.386 377.059 103.041 376.794 102.754C376.53 102.466 376.202 102.244 375.838 102.102C375.473 101.961 375.081 101.905 374.692 101.939C374.302 101.973 373.926 102.096 373.591 102.298C374.407 101.626 375.072 100.789 375.543 99.8425C375.769 99.3666 375.844 98.8328 375.758 98.313C375.671 97.7932 375.428 97.3123 375.06 96.935C374.631 96.6404 374.131 96.4676 373.611 96.4351C373.092 96.4025 372.574 96.5114 372.111 96.7501C370.663 97.3768 369.522 98.5994 368.002 99.1131C366.481 99.6268 364.858 99.37 363.266 99.4419C361.491 99.4755 359.772 100.069 358.355 101.137C357.657 101.677 357.096 102.372 356.716 103.168C356.336 103.964 356.147 104.838 356.166 105.719C353.937 105.452 351.471 105.421 349.714 106.808C349.008 107.437 348.449 108.215 348.077 109.085C347.706 109.955 347.532 110.897 347.567 111.843C347.738 113.731 348.188 115.583 348.903 117.339C349.027 117.854 349.258 118.337 349.581 118.757L350.413 123.647L353.444 123.586L353.248 113.414C353.248 113.414 352.94 109.12 356.639 109.5C360.337 109.88 365.341 114.041 372.522 112.983C373.697 112.921 374.842 112.594 375.872 112.027C376.371 111.713 376.777 111.271 377.048 110.748C377.319 110.224 377.445 109.637 377.413 109.048C377.35 108.465 377.063 107.93 376.612 107.556C376.162 107.182 375.582 106.998 374.998 107.045Z" fill="#263238"/>
<path d="M350.794 117.781C350.64 117.73 345.729 117.093 346.191 122.918C346.653 128.743 352.355 126.329 352.355 126.165C352.355 126 350.794 117.781 350.794 117.781Z" fill="#FFBE9D"/>
<path d="M350.425 124.243C350.425 124.243 350.322 124.315 350.158 124.408C349.927 124.529 349.659 124.559 349.408 124.49C349.016 124.282 348.685 123.973 348.451 123.596C348.216 123.219 348.086 122.786 348.072 122.343C348.014 121.847 348.07 121.344 348.237 120.873C348.276 120.687 348.36 120.512 348.481 120.366C348.603 120.219 348.759 120.104 348.935 120.031C349.049 119.992 349.174 119.994 349.286 120.037C349.399 120.08 349.493 120.162 349.552 120.267C349.644 120.421 349.613 120.534 349.644 120.545C349.675 120.555 349.767 120.442 349.695 120.206C349.656 120.061 349.564 119.937 349.439 119.856C349.356 119.802 349.264 119.765 349.166 119.748C349.069 119.73 348.97 119.732 348.874 119.753C348.627 119.82 348.403 119.95 348.223 120.13C348.043 120.31 347.913 120.535 347.846 120.781C347.636 121.302 347.562 121.867 347.63 122.425C347.641 122.942 347.805 123.444 348.102 123.869C348.398 124.293 348.813 124.62 349.295 124.808C349.454 124.842 349.62 124.839 349.778 124.8C349.936 124.761 350.084 124.687 350.209 124.582C350.425 124.377 350.445 124.253 350.425 124.243Z" fill="#EB996E"/>
<path d="M336.512 250.685C339.594 255.277 358.282 283.408 380.597 262.952C409.025 236.918 431.505 214.11 431.505 214.11L439.95 265.634L466.416 264.195C466.416 264.195 456.142 187.479 449.587 180.503C442.303 172.716 435.604 173.373 378.399 218.517L336.512 250.685Z" fill="#455A64"/>
<path d="M431.176 163.315L455.895 145.274L457.107 147.216L432.553 165.473L431.176 163.315Z" fill="#263238"/>
<path d="M437.289 162.761C437.289 162.761 440.597 154.13 441.399 152.291C442.2 150.452 443.402 147.247 443.875 147.154C444.347 147.062 446.073 147.36 443.875 152.846C441.676 158.332 446.546 154.983 446.546 154.983L451.303 151.572C451.303 151.572 455.063 162.812 452.926 166.202C451.246 168.734 449.359 171.122 447.286 173.343L437.289 162.761Z" fill="#FFBE9D"/>
<path d="M437.567 161.754C437.074 160.634 405.635 188.394 399.379 189.339L381.05 165.473C381.05 165.473 377.248 159.432 369.081 149.096C363.8 142.428 349.252 143.815 345.451 151.942C338.957 165.75 338.875 181.099 335.413 210.966L333.903 231.164C333.577 235.463 333.642 239.782 334.098 244.069C334.653 249.072 335.783 254.343 338.105 253.593L380.033 218.938L381.379 203.199C390.194 212.137 392.937 214.007 397.519 213.288C409.057 211.5 449.444 175.182 449.444 175.182C449.444 175.182 438.05 162.884 437.567 161.754Z" fill="#FF725E"/>
<path d="M444.026 180.226C443.208 179.734 442.452 179.144 441.776 178.469C440.058 176.935 438.448 175.284 436.957 173.527C435.458 171.778 434.084 169.924 432.848 167.98C432.297 167.196 431.832 166.355 431.461 165.473C432.083 166.192 432.65 166.958 433.156 167.764C434.183 169.192 435.622 171.144 437.358 173.178C439.094 175.212 440.779 176.959 442.033 178.192C442.744 178.822 443.41 179.502 444.026 180.226Z" fill="#263238"/>
<path d="M397.602 198.801C397.618 197.193 397.811 195.591 398.177 194.024C398.378 192.427 398.75 190.857 399.286 189.339C399.27 190.948 399.077 192.55 398.711 194.116C398.511 195.714 398.139 197.284 397.602 198.801Z" fill="#263238"/>
<path d="M401.607 197.815C400.972 196.509 400.502 195.128 400.209 193.706C399.755 192.33 399.462 190.906 399.336 189.462C399.971 190.769 400.44 192.149 400.733 193.572C401.185 194.948 401.479 196.372 401.607 197.815Z" fill="#263238"/>
<path d="M356.219 169.665C356.595 170.079 356.938 170.522 357.246 170.99L359.979 174.709C362.291 177.843 365.517 182.158 369.123 186.873L378.421 198.935L381.226 202.603C381.605 203.037 381.949 203.501 382.253 203.99C381.841 203.599 381.459 203.176 381.113 202.726C380.404 201.894 379.407 200.671 378.174 199.171C375.719 196.141 372.359 191.928 368.753 187.202C365.147 182.476 361.962 178.12 359.732 174.925C358.613 173.332 357.678 172.028 357.123 171.113C356.783 170.655 356.481 170.171 356.219 169.665Z" fill="#263238"/>
<path d="M350.853 189.966C349.766 189.35 348.773 188.582 347.904 187.685C346.917 186.913 346.042 186.007 345.305 184.993C346.397 185.609 347.394 186.381 348.264 187.285C349.254 188.046 350.126 188.95 350.853 189.966Z" fill="#263238"/>
<path d="M347.262 201.544C346.19 203.764 344.806 205.819 343.152 207.647C343.604 206.494 344.224 205.414 344.991 204.442C345.606 203.372 346.371 202.397 347.262 201.544Z" fill="#263238"/>
<path d="M352.313 217.521C352.2 217.613 351.286 216.689 350.258 215.466C349.566 214.769 349.002 213.955 348.594 213.062C348.707 212.969 349.621 213.894 350.649 215.117C351.343 215.812 351.906 216.626 352.313 217.521Z" fill="#263238"/>
<path d="M342.533 227.764C341.885 228.523 341.106 229.16 340.232 229.644C339.457 230.272 338.577 230.759 337.633 231.082C338.281 230.323 339.061 229.686 339.934 229.202C340.709 228.574 341.589 228.087 342.533 227.764Z" fill="#263238"/>
<path d="M356.206 230.476C355.118 230.001 354.175 229.246 353.474 228.288C352.64 227.43 352.048 226.366 351.758 225.206C351.902 225.134 352.652 226.49 353.874 227.918C355.097 229.346 356.299 230.343 356.206 230.476Z" fill="#263238"/>
<path d="M368.957 220.798C368.206 221.78 367.321 222.652 366.327 223.387C365.443 224.251 364.439 224.984 363.348 225.565C364.098 224.582 364.983 223.711 365.978 222.976C366.86 222.109 367.864 221.376 368.957 220.798Z" fill="#263238"/>
<path d="M342.719 239.486C340.964 238.681 339.569 237.253 338.805 235.48C338.928 235.397 339.699 236.384 340.777 237.473C341.856 238.562 342.812 239.384 342.719 239.486Z" fill="#263238"/>
<path d="M371.228 211.644C369.462 212.654 367.427 213.092 365.402 212.897C367.322 212.384 369.266 211.965 371.228 211.644Z" fill="#263238"/>
<path d="M361.733 200.846C361.52 202.098 361.176 203.324 360.705 204.503C360.371 205.69 359.969 206.856 359.503 207.997H359.39C359.39 207.935 359.452 207.914 359.472 207.914C359.493 207.914 359.472 207.914 359.472 208.027H359.359C359.48 206.794 359.749 205.58 360.161 204.411C360.474 203.141 361.006 201.934 361.733 200.846Z" fill="#263238"/>
<path d="M365.75 193.993C364.635 193.528 363.596 192.897 362.668 192.123C361.649 191.495 360.731 190.715 359.945 189.812C361.04 190.287 362.06 190.917 362.976 191.682C364.011 192.309 364.946 193.088 365.75 193.993Z" fill="#263238"/>
<path d="M357.534 178.89C357.223 179.91 356.705 180.854 356.013 181.664C355.457 182.572 354.723 183.359 353.855 183.976C354.316 183.029 354.896 182.145 355.581 181.346C356.118 180.443 356.775 179.617 357.534 178.89Z" fill="#263238"/>
<path d="M345.016 176.836C344.844 175.681 344.844 174.507 345.016 173.353C345.029 172.188 345.215 171.031 345.571 169.921C345.755 171.072 345.755 172.244 345.571 173.394C345.568 174.563 345.38 175.725 345.016 176.836Z" fill="#263238"/>
<path d="M340.137 199.48C339.859 198.25 339.748 196.989 339.809 195.73C339.705 194.476 339.774 193.214 340.014 191.979C340.411 194.461 340.453 196.986 340.137 199.48Z" fill="#263238"/>
<path d="M339.459 221.199C338.993 220.532 338.68 219.771 338.544 218.969C338.241 218.216 338.101 217.407 338.134 216.596C338.918 218.01 339.371 219.584 339.459 221.199Z" fill="#263238"/>
<path d="M356.762 159.894C355.946 160.83 355.06 161.703 354.111 162.504C353.29 163.435 352.393 164.298 351.43 165.082C351.988 163.947 352.775 162.94 353.741 162.123C354.581 161.177 355.61 160.417 356.762 159.894Z" fill="#263238"/>
<path d="M349.416 157.439C349.193 156.319 349.152 155.171 349.293 154.038C349.251 152.897 349.39 151.756 349.704 150.658C349.92 151.778 349.961 152.925 349.827 154.058C349.862 155.199 349.724 156.339 349.416 157.439Z" fill="#263238"/>
<path d="M367.417 154.993C365.486 153.826 363.62 152.553 361.828 151.182C363.99 151.946 365.917 153.259 367.417 154.993Z" fill="#263238"/>
<path d="M363.505 167.815C363.22 166.639 363.106 165.428 363.166 164.219C363.055 163.014 363.12 161.799 363.361 160.613C363.764 162.99 363.812 165.414 363.505 167.805V167.815Z" fill="#263238"/>
<path d="M374.043 175.315C371.97 174.903 369.914 174.409 367.879 173.836C370.035 173.705 372.181 174.22 374.043 175.315Z" fill="#263238"/>
<path d="M374.76 167.671C374.398 165.67 374.398 163.621 374.76 161.62C375.03 162.603 375.131 163.624 375.058 164.64C375.139 165.66 375.038 166.687 374.76 167.671Z" fill="#263238"/>
<path d="M382.796 180.503C382.469 179.26 382.32 177.977 382.355 176.692C382.213 175.416 382.248 174.126 382.457 172.86C382.919 175.38 383.033 177.952 382.796 180.503Z" fill="#263238"/>
<path d="M376.62 184.839C376.507 184.942 375.675 184.182 374.761 183.154C373.846 182.127 373.189 181.202 373.302 181.099C373.415 180.997 374.247 181.757 375.161 182.795C376.076 183.832 376.733 184.747 376.62 184.839Z" fill="#263238"/>
<path d="M384.432 190.757C383.463 191.087 382.446 191.253 381.422 191.25C380.402 191.428 379.36 191.428 378.34 191.25C379.303 190.909 380.319 190.742 381.34 190.757C382.362 190.566 383.41 190.566 384.432 190.757Z" fill="#263238"/>
<path d="M390.305 193.757C389.87 191.527 389.784 189.243 390.048 186.986C390.496 189.215 390.583 191.501 390.305 193.757Z" fill="#263238"/>
<path d="M396.102 205.007C394.87 205.243 393.605 205.243 392.373 205.007C391.12 204.958 389.889 204.668 388.746 204.154C389.983 204.149 391.218 204.259 392.434 204.483C393.671 204.536 394.9 204.711 396.102 205.007Z" fill="#263238"/>
<path d="M406.067 199.819C405.643 202.152 404.867 204.407 403.766 206.507C403.886 205.331 404.188 204.18 404.659 203.096C404.953 201.936 405.428 200.83 406.067 199.819Z" fill="#263238"/>
<path d="M413.25 190.736C411.114 190.512 409.031 189.932 407.086 189.021C409.22 189.257 411.301 189.837 413.25 190.736Z" fill="#263238"/>
<path d="M419.023 194.178C418.412 195.072 417.659 195.86 416.794 196.51C416.042 197.29 415.171 197.945 414.215 198.452C414.82 197.551 415.574 196.759 416.444 196.11C417.196 195.333 418.066 194.681 419.023 194.178Z" fill="#263238"/>
<path d="M421.331 185.682C420.763 184.666 420.413 183.543 420.304 182.384C420.009 181.25 419.96 180.066 420.16 178.911C420.487 180.015 420.711 181.146 420.828 182.291C421.101 183.403 421.27 184.538 421.331 185.682Z" fill="#263238"/>
<path d="M432.329 183.729C430.216 185.839 428.079 187.925 425.918 189.986C427.55 187.439 429.743 185.299 432.329 183.729Z" fill="#263238"/>
<path d="M433.415 179.795C432.235 179.628 431.088 179.282 430.014 178.767C428.874 178.432 427.793 177.923 426.809 177.257C427.984 177.428 429.127 177.774 430.199 178.284C431.34 178.626 432.423 179.135 433.415 179.795Z" fill="#263238"/>
<path d="M432.367 175.572C431.844 174.719 431.479 173.78 431.288 172.798C430.928 171.863 430.737 170.872 430.723 169.87C431.227 170.726 431.575 171.665 431.75 172.644C432.121 173.578 432.33 174.568 432.367 175.572Z" fill="#263238"/>
<path d="M374.853 205.171C374.73 205.264 373.826 204.247 372.922 202.911C372.271 202.152 371.763 201.282 371.422 200.343C372.195 200.975 372.849 201.74 373.353 202.603C373.995 203.368 374.503 204.236 374.853 205.171Z" fill="#263238"/>
<path d="M453.183 256.932C453.14 256.788 453.113 256.64 453.101 256.49C453.06 256.182 452.999 255.75 452.916 255.195C452.773 254.034 452.547 252.36 452.269 250.223C451.684 245.908 450.851 239.651 449.608 231.956C448.365 224.26 446.711 215.127 444.358 205.099C444.117 203.841 443.706 202.621 443.136 201.473C442.49 200.34 441.656 199.326 440.67 198.473C438.577 196.74 435.901 195.873 433.19 196.048C431.807 196.125 430.456 196.493 429.225 197.127C427.987 197.825 426.809 198.622 425.701 199.51L418.632 204.76C409.118 211.901 400.211 218.897 392.259 225.463C384.307 232.028 377.372 238.171 371.567 243.38C368.629 245.908 365.495 247.932 362.321 248.26C360.864 248.426 359.39 248.246 358.016 247.736C356.873 247.305 355.797 246.714 354.821 245.98C353.484 244.964 352.246 243.825 351.122 242.579L350.249 241.613C350.142 241.506 350.046 241.389 349.961 241.264C350.079 241.353 350.186 241.457 350.279 241.572L351.194 242.507C352.35 243.712 353.604 244.818 354.944 245.815C355.915 246.516 356.976 247.082 358.098 247.5C359.44 247.977 360.875 248.136 362.29 247.963C365.372 247.623 368.454 245.62 371.331 243.093C377.094 237.863 384.009 231.647 391.961 225.082C399.913 218.517 408.8 211.469 418.324 204.329L425.392 199.079C426.527 198.175 427.733 197.364 428.999 196.654C430.293 195.986 431.715 195.601 433.17 195.524C436.014 195.345 438.818 196.26 441.009 198.082C442.047 198.974 442.92 200.042 443.588 201.236C444.176 202.424 444.601 203.685 444.851 204.986C447.184 215.045 448.786 224.199 449.988 231.894C451.19 239.589 451.961 245.867 452.485 250.192C452.721 252.339 452.906 254.014 453.04 255.185C453.04 255.74 453.132 256.213 453.163 256.49C453.184 256.636 453.19 256.784 453.183 256.932Z" fill="#263238"/>
<path d="M465.183 256.356C464.85 256.459 464.504 256.514 464.155 256.521C463.488 256.593 462.522 256.675 461.33 256.757C458.936 256.921 455.638 257.096 451.991 257.25L442.652 257.651L439.816 257.754C439.475 257.794 439.13 257.794 438.789 257.754C439.121 257.644 439.467 257.582 439.816 257.569C440.484 257.487 441.45 257.394 442.642 257.291C445.036 257.096 448.334 256.901 451.981 256.737L461.33 256.398L464.166 256.336C464.504 256.301 464.846 256.307 465.183 256.356Z" fill="#263238"/>
<path d="M438.85 206.075C436.511 209.883 433.463 213.207 429.871 215.866C429.768 215.743 431.926 213.74 434.432 211.038C436.939 208.336 438.696 205.983 438.85 206.075Z" fill="#263238"/>
<path d="M439.846 209.199C438.461 210.256 436.998 211.207 435.47 212.045C434.033 213.042 432.522 213.929 430.949 214.695C432.22 213.489 433.643 212.453 435.182 211.613C436.626 210.611 438.194 209.799 439.846 209.199Z" fill="#263238"/>
<path d="M526.407 259.007C526.199 259.03 525.988 259.03 525.78 259.007L523.972 258.904L517.397 258.278L495.729 256.017C487.263 255.134 479.619 254.147 474.061 253.87C471.287 253.726 469.027 253.736 467.475 253.798L465.688 253.87C465.476 253.896 465.262 253.896 465.051 253.87C465.257 253.819 465.466 253.785 465.677 253.767C466.078 253.706 466.705 253.654 467.465 253.582C469.668 253.438 471.876 253.407 474.082 253.49C479.671 253.675 487.325 254.599 495.78 255.483L517.448 257.877L524.013 258.668L525.79 258.904C525.999 258.914 526.206 258.949 526.407 259.007Z" fill="#455A64"/>
<path d="M525.1 270.493C524.957 270.493 525.419 265.356 526.128 258.976C526.837 252.596 527.556 247.51 527.7 247.531C527.844 247.551 527.381 252.668 526.672 259.038C525.963 265.408 525.244 270.503 525.1 270.493Z" fill="#455A64"/>
<path d="M67.1553 295V285.047H69.9648C70.8307 285.047 71.5964 285.238 72.2617 285.621C72.9271 286.004 73.4398 286.549 73.7998 287.255C74.1644 287.961 74.349 288.772 74.3535 289.688V290.324C74.3535 291.263 74.1712 292.086 73.8066 292.792C73.4466 293.498 72.9294 294.041 72.2549 294.419C71.585 294.797 70.8034 294.991 69.9102 295H67.1553ZM68.4678 286.127V293.927H69.8486C70.8604 293.927 71.6465 293.612 72.207 292.983C72.7721 292.354 73.0547 291.459 73.0547 290.297V289.716C73.0547 288.586 72.7881 287.708 72.2549 287.084C71.7262 286.455 70.9743 286.136 69.999 286.127H68.4678ZM79.2139 295.137C78.2113 295.137 77.3955 294.809 76.7666 294.152C76.1377 293.492 75.8232 292.61 75.8232 291.507V291.274C75.8232 290.541 75.9622 289.887 76.2402 289.312C76.5228 288.734 76.9147 288.283 77.416 287.959C77.9219 287.631 78.4688 287.467 79.0566 287.467C80.0182 287.467 80.7656 287.784 81.2988 288.417C81.832 289.05 82.0986 289.957 82.0986 291.138V291.664H77.0879C77.1061 292.393 77.318 292.983 77.7236 293.435C78.1338 293.881 78.6533 294.104 79.2822 294.104C79.7288 294.104 80.1071 294.013 80.417 293.831C80.7269 293.649 80.998 293.407 81.2305 293.106L82.0029 293.708C81.3831 294.66 80.4535 295.137 79.2139 295.137ZM79.0566 288.506C78.5462 288.506 78.1178 288.693 77.7715 289.066C77.4251 289.436 77.2109 289.955 77.1289 290.625H80.834V290.529C80.7975 289.887 80.6243 289.39 80.3145 289.039C80.0046 288.684 79.5853 288.506 79.0566 288.506ZM87.875 293.038C87.875 292.696 87.7451 292.432 87.4854 292.245C87.2301 292.054 86.7812 291.89 86.1387 291.753C85.5007 291.616 84.9925 291.452 84.6143 291.261C84.2406 291.069 83.9626 290.841 83.7803 290.577C83.6025 290.313 83.5137 289.998 83.5137 289.634C83.5137 289.028 83.7689 288.515 84.2793 288.096C84.7943 287.676 85.4505 287.467 86.248 287.467C87.0866 287.467 87.7656 287.683 88.2852 288.116C88.8092 288.549 89.0713 289.103 89.0713 289.777H87.7998C87.7998 289.431 87.6517 289.132 87.3555 288.882C87.0638 288.631 86.6947 288.506 86.248 288.506C85.7878 288.506 85.4277 288.606 85.168 288.807C84.9082 289.007 84.7783 289.269 84.7783 289.593C84.7783 289.898 84.8991 290.128 85.1406 290.283C85.3822 290.438 85.8174 290.586 86.4463 290.728C87.0798 290.869 87.5924 291.037 87.9844 291.233C88.3763 291.429 88.6657 291.666 88.8525 291.944C89.0439 292.218 89.1396 292.553 89.1396 292.949C89.1396 293.61 88.8753 294.141 88.3467 294.542C87.818 294.938 87.1322 295.137 86.2891 295.137C85.6966 295.137 85.1725 295.032 84.7168 294.822C84.2611 294.613 83.9033 294.321 83.6436 293.947C83.3883 293.569 83.2607 293.161 83.2607 292.724H84.5254C84.5482 293.147 84.7168 293.485 85.0312 293.735C85.3503 293.981 85.7695 294.104 86.2891 294.104C86.7676 294.104 87.1504 294.009 87.4375 293.817C87.7292 293.621 87.875 293.362 87.875 293.038ZM92.1611 295H90.8965V287.604H92.1611V295ZM90.7939 285.642C90.7939 285.437 90.8555 285.263 90.9785 285.122C91.1061 284.981 91.293 284.91 91.5391 284.91C91.7852 284.91 91.972 284.981 92.0996 285.122C92.2272 285.263 92.291 285.437 92.291 285.642C92.291 285.847 92.2272 286.018 92.0996 286.154C91.972 286.291 91.7852 286.359 91.5391 286.359C91.293 286.359 91.1061 286.291 90.9785 286.154C90.8555 286.018 90.7939 285.847 90.7939 285.642ZM93.8906 291.24C93.8906 290.087 94.1572 289.171 94.6904 288.492C95.2236 287.809 95.93 287.467 96.8096 287.467C97.7119 287.467 98.416 287.786 98.9219 288.424L98.9834 287.604H100.139V294.822C100.139 295.779 99.8538 296.534 99.2842 297.085C98.7191 297.636 97.958 297.912 97.001 297.912C96.4678 297.912 95.946 297.798 95.4355 297.57C94.9251 297.342 94.5355 297.03 94.2666 296.634L94.9229 295.875C95.4652 296.545 96.1283 296.88 96.9121 296.88C97.5273 296.88 98.0059 296.707 98.3477 296.36C98.694 296.014 98.8672 295.526 98.8672 294.897V294.262C98.3613 294.845 97.6709 295.137 96.7959 295.137C95.93 295.137 95.2282 294.788 94.6904 294.091C94.1572 293.394 93.8906 292.443 93.8906 291.24ZM95.1621 291.384C95.1621 292.218 95.333 292.874 95.6748 293.353C96.0166 293.826 96.4951 294.063 97.1104 294.063C97.9079 294.063 98.4935 293.701 98.8672 292.977V289.6C98.4798 288.893 97.8988 288.54 97.124 288.54C96.5088 288.54 96.028 288.779 95.6816 289.258C95.3353 289.736 95.1621 290.445 95.1621 291.384ZM103.249 287.604L103.29 288.533C103.855 287.822 104.593 287.467 105.505 287.467C107.068 287.467 107.856 288.349 107.87 290.112V295H106.605V290.105C106.601 289.572 106.478 289.178 106.236 288.923C105.999 288.668 105.628 288.54 105.122 288.54C104.712 288.54 104.352 288.649 104.042 288.868C103.732 289.087 103.491 289.374 103.317 289.729V295H102.053V287.604H103.249ZM112.847 295.137C111.844 295.137 111.028 294.809 110.399 294.152C109.771 293.492 109.456 292.61 109.456 291.507V291.274C109.456 290.541 109.595 289.887 109.873 289.312C110.156 288.734 110.548 288.283 111.049 287.959C111.555 287.631 112.102 287.467 112.689 287.467C113.651 287.467 114.398 287.784 114.932 288.417C115.465 289.05 115.731 289.957 115.731 291.138V291.664H110.721C110.739 292.393 110.951 292.983 111.356 293.435C111.767 293.881 112.286 294.104 112.915 294.104C113.362 294.104 113.74 294.013 114.05 293.831C114.36 293.649 114.631 293.407 114.863 293.106L115.636 293.708C115.016 294.66 114.086 295.137 112.847 295.137ZM112.689 288.506C112.179 288.506 111.751 288.693 111.404 289.066C111.058 289.436 110.844 289.955 110.762 290.625H114.467V290.529C114.43 289.887 114.257 289.39 113.947 289.039C113.637 288.684 113.218 288.506 112.689 288.506ZM116.894 291.24C116.894 290.105 117.162 289.194 117.7 288.506C118.238 287.813 118.942 287.467 119.812 287.467C120.678 287.467 121.364 287.763 121.87 288.355V284.5H123.135V295H121.973L121.911 294.207C121.405 294.827 120.701 295.137 119.799 295.137C118.942 295.137 118.243 294.786 117.7 294.084C117.162 293.382 116.894 292.466 116.894 291.336V291.24ZM118.158 291.384C118.158 292.222 118.331 292.879 118.678 293.353C119.024 293.826 119.503 294.063 120.113 294.063C120.915 294.063 121.501 293.703 121.87 292.983V289.586C121.492 288.889 120.911 288.54 120.127 288.54C119.507 288.54 119.024 288.779 118.678 289.258C118.331 289.736 118.158 290.445 118.158 291.384ZM134.838 291.384C134.838 292.514 134.578 293.423 134.059 294.111C133.539 294.795 132.842 295.137 131.967 295.137C131.033 295.137 130.31 294.806 129.8 294.146L129.738 295H128.576V284.5H129.841V288.417C130.351 287.784 131.055 287.467 131.953 287.467C132.851 287.467 133.555 287.806 134.065 288.485C134.58 289.164 134.838 290.094 134.838 291.274V291.384ZM133.573 291.24C133.573 290.379 133.407 289.714 133.074 289.244C132.742 288.775 132.263 288.54 131.639 288.54C130.805 288.54 130.205 288.927 129.841 289.702V292.901C130.228 293.676 130.832 294.063 131.652 294.063C132.258 294.063 132.73 293.829 133.067 293.359C133.405 292.89 133.573 292.184 133.573 291.24ZM138.775 293.147L140.498 287.604H141.852L138.878 296.142C138.418 297.372 137.686 297.987 136.684 297.987L136.444 297.967L135.973 297.878V296.853L136.314 296.88C136.743 296.88 137.076 296.793 137.312 296.62C137.554 296.447 137.752 296.13 137.907 295.67L138.188 294.918L135.549 287.604H136.93L138.775 293.147ZM150.766 293.038C150.766 292.696 150.636 292.432 150.376 292.245C150.121 292.054 149.672 291.89 149.029 291.753C148.391 291.616 147.883 291.452 147.505 291.261C147.131 291.069 146.853 290.841 146.671 290.577C146.493 290.313 146.404 289.998 146.404 289.634C146.404 289.028 146.66 288.515 147.17 288.096C147.685 287.676 148.341 287.467 149.139 287.467C149.977 287.467 150.656 287.683 151.176 288.116C151.7 288.549 151.962 289.103 151.962 289.777H150.69C150.69 289.431 150.542 289.132 150.246 288.882C149.954 288.631 149.585 288.506 149.139 288.506C148.678 288.506 148.318 288.606 148.059 288.807C147.799 289.007 147.669 289.269 147.669 289.593C147.669 289.898 147.79 290.128 148.031 290.283C148.273 290.438 148.708 290.586 149.337 290.728C149.97 290.869 150.483 291.037 150.875 291.233C151.267 291.429 151.556 291.666 151.743 291.944C151.935 292.218 152.03 292.553 152.03 292.949C152.03 293.61 151.766 294.141 151.237 294.542C150.709 294.938 150.023 295.137 149.18 295.137C148.587 295.137 148.063 295.032 147.607 294.822C147.152 294.613 146.794 294.321 146.534 293.947C146.279 293.569 146.151 293.161 146.151 292.724H147.416C147.439 293.147 147.607 293.485 147.922 293.735C148.241 293.981 148.66 294.104 149.18 294.104C149.658 294.104 150.041 294.009 150.328 293.817C150.62 293.621 150.766 293.362 150.766 293.038ZM155.394 285.812V287.604H156.774V288.581H155.394V293.168C155.394 293.464 155.455 293.688 155.578 293.838C155.701 293.984 155.911 294.057 156.207 294.057C156.353 294.057 156.553 294.029 156.809 293.975V295C156.476 295.091 156.152 295.137 155.838 295.137C155.273 295.137 154.847 294.966 154.56 294.624C154.272 294.282 154.129 293.797 154.129 293.168V288.581H152.782V287.604H154.129V285.812H155.394ZM157.786 291.233C157.786 290.509 157.927 289.857 158.21 289.278C158.497 288.7 158.894 288.253 159.399 287.938C159.91 287.624 160.491 287.467 161.143 287.467C162.15 287.467 162.963 287.815 163.583 288.513C164.207 289.21 164.52 290.137 164.52 291.295V291.384C164.52 292.104 164.381 292.751 164.103 293.325C163.829 293.895 163.435 294.339 162.92 294.658C162.41 294.977 161.822 295.137 161.156 295.137C160.154 295.137 159.34 294.788 158.716 294.091C158.096 293.394 157.786 292.471 157.786 291.322V291.233ZM159.058 291.384C159.058 292.204 159.247 292.863 159.625 293.359C160.008 293.856 160.518 294.104 161.156 294.104C161.799 294.104 162.309 293.854 162.688 293.353C163.066 292.847 163.255 292.14 163.255 291.233C163.255 290.422 163.061 289.766 162.674 289.265C162.291 288.759 161.781 288.506 161.143 288.506C160.518 288.506 160.015 288.754 159.632 289.251C159.249 289.748 159.058 290.459 159.058 291.384ZM169.681 288.738C169.489 288.706 169.282 288.69 169.059 288.69C168.229 288.69 167.666 289.044 167.37 289.75V295H166.105V287.604H167.336L167.356 288.458C167.771 287.797 168.359 287.467 169.12 287.467C169.366 287.467 169.553 287.499 169.681 287.562V288.738ZM172.224 295H170.959V287.604H172.224V295ZM170.856 285.642C170.856 285.437 170.918 285.263 171.041 285.122C171.169 284.981 171.355 284.91 171.602 284.91C171.848 284.91 172.035 284.981 172.162 285.122C172.29 285.263 172.354 285.437 172.354 285.642C172.354 285.847 172.29 286.018 172.162 286.154C172.035 286.291 171.848 286.359 171.602 286.359C171.355 286.359 171.169 286.291 171.041 286.154C170.918 286.018 170.856 285.847 170.856 285.642ZM177.323 295.137C176.321 295.137 175.505 294.809 174.876 294.152C174.247 293.492 173.933 292.61 173.933 291.507V291.274C173.933 290.541 174.072 289.887 174.35 289.312C174.632 288.734 175.024 288.283 175.525 287.959C176.031 287.631 176.578 287.467 177.166 287.467C178.128 287.467 178.875 287.784 179.408 288.417C179.941 289.05 180.208 289.957 180.208 291.138V291.664H175.197C175.215 292.393 175.427 292.983 175.833 293.435C176.243 293.881 176.763 294.104 177.392 294.104C177.838 294.104 178.216 294.013 178.526 293.831C178.836 293.649 179.107 293.407 179.34 293.106L180.112 293.708C179.493 294.66 178.563 295.137 177.323 295.137ZM177.166 288.506C176.656 288.506 176.227 288.693 175.881 289.066C175.535 289.436 175.32 289.955 175.238 290.625H178.943V290.529C178.907 289.887 178.734 289.39 178.424 289.039C178.114 288.684 177.695 288.506 177.166 288.506ZM185.984 293.038C185.984 292.696 185.854 292.432 185.595 292.245C185.34 292.054 184.891 291.89 184.248 291.753C183.61 291.616 183.102 291.452 182.724 291.261C182.35 291.069 182.072 290.841 181.89 290.577C181.712 290.313 181.623 289.998 181.623 289.634C181.623 289.028 181.878 288.515 182.389 288.096C182.904 287.676 183.56 287.467 184.357 287.467C185.196 287.467 185.875 287.683 186.395 288.116C186.919 288.549 187.181 289.103 187.181 289.777H185.909C185.909 289.431 185.761 289.132 185.465 288.882C185.173 288.631 184.804 288.506 184.357 288.506C183.897 288.506 183.537 288.606 183.277 288.807C183.018 289.007 182.888 289.269 182.888 289.593C182.888 289.898 183.008 290.128 183.25 290.283C183.492 290.438 183.927 290.586 184.556 290.728C185.189 290.869 185.702 291.037 186.094 291.233C186.486 291.429 186.775 291.666 186.962 291.944C187.153 292.218 187.249 292.553 187.249 292.949C187.249 293.61 186.985 294.141 186.456 294.542C185.927 294.938 185.242 295.137 184.398 295.137C183.806 295.137 183.282 295.032 182.826 294.822C182.37 294.613 182.013 294.321 181.753 293.947C181.498 293.569 181.37 293.161 181.37 292.724H182.635C182.658 293.147 182.826 293.485 183.141 293.735C183.46 293.981 183.879 294.104 184.398 294.104C184.877 294.104 185.26 294.009 185.547 293.817C185.839 293.621 185.984 293.362 185.984 293.038ZM192.622 295.854H191.535L195.691 285.047H196.771L192.622 295.854ZM207.299 290.604H203.122V295H201.81V285.047H207.976V286.127H203.122V289.531H207.299V290.604ZM212.747 288.738C212.556 288.706 212.348 288.69 212.125 288.69C211.296 288.69 210.733 289.044 210.437 289.75V295H209.172V287.604H210.402L210.423 288.458C210.838 287.797 211.425 287.467 212.187 287.467C212.433 287.467 212.619 287.499 212.747 287.562V288.738ZM216.849 295.137C215.846 295.137 215.03 294.809 214.401 294.152C213.772 293.492 213.458 292.61 213.458 291.507V291.274C213.458 290.541 213.597 289.887 213.875 289.312C214.158 288.734 214.549 288.283 215.051 287.959C215.557 287.631 216.104 287.467 216.691 287.467C217.653 287.467 218.4 287.784 218.934 288.417C219.467 289.05 219.733 289.957 219.733 291.138V291.664H214.723C214.741 292.393 214.953 292.983 215.358 293.435C215.769 293.881 216.288 294.104 216.917 294.104C217.364 294.104 217.742 294.013 218.052 293.831C218.362 293.649 218.633 293.407 218.865 293.106L219.638 293.708C219.018 294.66 218.088 295.137 216.849 295.137ZM216.691 288.506C216.181 288.506 215.753 288.693 215.406 289.066C215.06 289.436 214.846 289.955 214.764 290.625H218.469V290.529C218.432 289.887 218.259 289.39 217.949 289.039C217.639 288.684 217.22 288.506 216.691 288.506ZM224.272 295.137C223.27 295.137 222.454 294.809 221.825 294.152C221.196 293.492 220.882 292.61 220.882 291.507V291.274C220.882 290.541 221.021 289.887 221.299 289.312C221.581 288.734 221.973 288.283 222.475 287.959C222.98 287.631 223.527 287.467 224.115 287.467C225.077 287.467 225.824 287.784 226.357 288.417C226.891 289.05 227.157 289.957 227.157 291.138V291.664H222.146C222.165 292.393 222.377 292.983 222.782 293.435C223.192 293.881 223.712 294.104 224.341 294.104C224.787 294.104 225.166 294.013 225.476 293.831C225.785 293.649 226.057 293.407 226.289 293.106L227.062 293.708C226.442 294.66 225.512 295.137 224.272 295.137ZM224.115 288.506C223.605 288.506 223.176 288.693 222.83 289.066C222.484 289.436 222.27 289.955 222.188 290.625H225.893V290.529C225.856 289.887 225.683 289.39 225.373 289.039C225.063 288.684 224.644 288.506 224.115 288.506ZM234.875 291.384C234.875 292.509 234.618 293.416 234.103 294.104C233.588 294.793 232.89 295.137 232.011 295.137C231.113 295.137 230.407 294.852 229.892 294.282V297.844H228.627V287.604H229.782L229.844 288.424C230.359 287.786 231.074 287.467 231.99 287.467C232.879 287.467 233.581 287.802 234.096 288.472C234.615 289.142 234.875 290.074 234.875 291.268V291.384ZM233.61 291.24C233.61 290.406 233.433 289.748 233.077 289.265C232.722 288.782 232.234 288.54 231.614 288.54C230.849 288.54 230.274 288.88 229.892 289.559V293.093C230.27 293.767 230.849 294.104 231.628 294.104C232.234 294.104 232.715 293.865 233.07 293.387C233.43 292.904 233.61 292.188 233.61 291.24ZM237.862 295H236.598V287.604H237.862V295ZM236.495 285.642C236.495 285.437 236.557 285.263 236.68 285.122C236.807 284.981 236.994 284.91 237.24 284.91C237.486 284.91 237.673 284.981 237.801 285.122C237.928 285.263 237.992 285.437 237.992 285.642C237.992 285.847 237.928 286.018 237.801 286.154C237.673 286.291 237.486 286.359 237.24 286.359C236.994 286.359 236.807 286.291 236.68 286.154C236.557 286.018 236.495 285.847 236.495 285.642ZM241.957 291.575L241.164 292.402V295H239.899V284.5H241.164V290.851L241.841 290.037L244.145 287.604H245.683L242.805 290.693L246.018 295H244.534L241.957 291.575Z" fill="#ACA9A9"/>
</g>
<defs>
<clipPath id="clip0">
<rect width="547.603" height="300" fill="white"/>
</clipPath>
</defs>
</svg>
