<svg width="858" height="620" viewBox="0 0 858 620" fill="none" xmlns="http://www.w3.org/2000/svg">
<rect width="266" height="563" rx="5" fill="#F5F5F5"/>
<rect width="52.6185" height="34.9999" rx="5" transform="matrix(-0.00766711 -0.999971 0.999999 -0.00118374 17.4023 521.742)" fill="#AD0000"/>
<path d="M29.8262 457.524C29.8262 452.497 31.874 449.983 35.9697 449.983C36.6143 449.983 37.1592 450.033 37.6045 450.133V451.855C37.1592 451.727 36.6436 451.662 36.0576 451.662C34.6807 451.662 33.6465 452.031 32.9551 452.77C32.2637 453.508 31.8887 454.691 31.8301 456.32H31.9355C32.2109 455.846 32.5977 455.479 33.0957 455.222C33.5938 454.958 34.1797 454.826 34.8535 454.826C36.0195 454.826 36.9277 455.184 37.5781 455.898C38.2285 456.613 38.5537 457.583 38.5537 458.808C38.5537 460.155 38.1758 461.222 37.4199 462.007C36.6699 462.786 35.6445 463.176 34.3438 463.176C33.4238 463.176 32.624 462.956 31.9443 462.517C31.2646 462.071 30.7402 461.427 30.3711 460.583C30.0078 459.733 29.8262 458.714 29.8262 457.524ZM34.3086 461.471C35.0176 461.471 35.5625 461.242 35.9434 460.785C36.3301 460.328 36.5234 459.675 36.5234 458.825C36.5234 458.087 36.3418 457.507 35.9785 457.085C35.6211 456.663 35.082 456.452 34.3613 456.452C33.916 456.452 33.5059 456.549 33.1309 456.742C32.7559 456.93 32.46 457.19 32.2432 457.524C32.0264 457.853 31.918 458.189 31.918 458.535C31.918 459.361 32.1406 460.059 32.5859 460.627C33.0371 461.189 33.6113 461.471 34.3086 461.471Z" fill="#111111"/>
<path d="M34.4883 538.902C34.4883 540.366 34.194 541.582 33.6055 542.551C33.0169 543.519 32.1862 544.176 31.1133 544.519L33.832 547.347H31.9023L29.6758 544.769L29.2461 544.785C27.5638 544.785 26.2643 544.272 25.3477 543.246C24.4362 542.215 23.9805 540.761 23.9805 538.886C23.9805 537.027 24.4388 535.587 25.3555 534.566C26.2721 533.54 27.5742 533.027 29.2617 533.027C30.9023 533.027 32.1836 533.548 33.1055 534.59C34.0273 535.631 34.4883 537.069 34.4883 538.902ZM25.3867 538.902C25.3867 540.449 25.7148 541.623 26.3711 542.426C27.0326 543.222 27.9909 543.621 29.2461 543.621C30.5117 543.621 31.4674 543.222 32.1133 542.426C32.7591 541.629 33.082 540.454 33.082 538.902C33.082 537.366 32.7591 536.202 32.1133 535.41C31.4727 534.613 30.5221 534.215 29.2617 534.215C27.9961 534.215 27.0326 534.616 26.3711 535.418C25.7148 536.215 25.3867 537.376 25.3867 538.902ZM41.0586 544.629H39.793V536.488C39.793 535.811 39.8138 535.17 39.8555 534.566C39.7461 534.676 39.6237 534.79 39.4883 534.91C39.3529 535.03 38.7331 535.538 37.6289 536.433L36.9414 535.543L39.9648 533.207H41.0586V544.629Z" fill="#111111"/>
<rect width="78.3288" height="34.9999" rx="5" transform="matrix(-0.00766711 -0.999971 0.999999 -0.00118374 83.0547 521.912)" fill="#AD0000"/>
<path d="M94.8984 434H92.833V425.703C92.833 424.713 92.8564 423.928 92.9033 423.348C92.7686 423.488 92.6016 423.644 92.4023 423.813C92.209 423.983 91.5527 424.522 90.4336 425.431L89.3965 424.121L93.1758 421.15H94.8984V434ZM107.827 434H99.1172V432.436L102.431 429.104C103.409 428.103 104.057 427.394 104.373 426.978C104.695 426.556 104.93 426.16 105.076 425.791C105.223 425.422 105.296 425.026 105.296 424.604C105.296 424.024 105.12 423.567 104.769 423.233C104.423 422.899 103.942 422.732 103.327 422.732C102.835 422.732 102.357 422.823 101.895 423.005C101.438 423.187 100.907 423.515 100.304 423.989L99.1875 422.627C99.9023 422.023 100.597 421.596 101.271 421.344C101.944 421.092 102.662 420.966 103.424 420.966C104.619 420.966 105.577 421.279 106.298 421.906C107.019 422.527 107.379 423.365 107.379 424.42C107.379 425 107.273 425.551 107.062 426.072C106.857 426.594 106.538 427.133 106.104 427.689C105.677 428.24 104.962 428.987 103.96 429.931L101.728 432.093V432.181H107.827V434Z" fill="#111111"/>
<path d="M99.5391 539.079C99.5391 540.542 99.2448 541.759 98.6562 542.727C98.0677 543.696 97.237 544.352 96.1641 544.696L98.8828 547.524H96.9531L94.7266 544.946L94.2969 544.962C92.6146 544.962 91.3151 544.449 90.3984 543.423C89.487 542.391 89.0312 540.938 89.0312 539.063C89.0312 537.204 89.4896 535.764 90.4062 534.743C91.3229 533.717 92.625 533.204 94.3125 533.204C95.9531 533.204 97.2344 533.725 98.1562 534.766C99.0781 535.808 99.5391 537.246 99.5391 539.079ZM90.4375 539.079C90.4375 540.626 90.7656 541.8 91.4219 542.602C92.0833 543.399 93.0417 543.798 94.2969 543.798C95.5625 543.798 96.5182 543.399 97.1641 542.602C97.8099 541.805 98.1328 540.631 98.1328 539.079C98.1328 537.542 97.8099 536.378 97.1641 535.587C96.5234 534.79 95.5729 534.391 94.3125 534.391C93.0469 534.391 92.0833 534.792 91.4219 535.594C90.7656 536.391 90.4375 537.553 90.4375 539.079ZM108.812 544.805H101.305V543.688L104.312 540.665C105.229 539.738 105.833 539.076 106.125 538.68C106.417 538.285 106.635 537.899 106.781 537.524C106.927 537.149 107 536.746 107 536.313C107 535.704 106.815 535.222 106.445 534.868C106.076 534.509 105.562 534.329 104.906 534.329C104.432 534.329 103.982 534.407 103.555 534.563C103.133 534.719 102.661 535.003 102.141 535.415L101.453 534.532C102.505 533.657 103.651 533.219 104.891 533.219C105.964 533.219 106.805 533.496 107.414 534.048C108.023 534.594 108.328 535.331 108.328 536.259C108.328 536.983 108.125 537.699 107.719 538.407C107.312 539.115 106.552 540.011 105.438 541.094L102.938 543.54V543.602H108.812V544.805Z" fill="#111111"/>
<rect width="103.111" height="34.9999" rx="5" transform="matrix(-0.00766711 -0.999971 0.999999 -0.00118374 148.793 521.912)" fill="#AD0000"/>
<path d="M160.855 411H158.79V402.703C158.79 401.713 158.813 400.928 158.86 400.348C158.726 400.488 158.559 400.644 158.359 400.813C158.166 400.983 157.51 401.522 156.391 402.431L155.354 401.121L159.133 398.15H160.855V411ZM165.109 405.524C165.109 400.497 167.157 397.983 171.253 397.983C171.897 397.983 172.442 398.033 172.888 398.133V399.855C172.442 399.727 171.927 399.662 171.341 399.662C169.964 399.662 168.93 400.031 168.238 400.77C167.547 401.508 167.172 402.691 167.113 404.32H167.219C167.494 403.846 167.881 403.479 168.379 403.222C168.877 402.958 169.463 402.826 170.137 402.826C171.303 402.826 172.211 403.184 172.861 403.898C173.512 404.613 173.837 405.583 173.837 406.808C173.837 408.155 173.459 409.222 172.703 410.007C171.953 410.786 170.928 411.176 169.627 411.176C168.707 411.176 167.907 410.956 167.228 410.517C166.548 410.071 166.023 409.427 165.654 408.583C165.291 407.733 165.109 406.714 165.109 405.524ZM169.592 409.471C170.301 409.471 170.846 409.242 171.227 408.785C171.613 408.328 171.807 407.675 171.807 406.825C171.807 406.087 171.625 405.507 171.262 405.085C170.904 404.663 170.365 404.452 169.645 404.452C169.199 404.452 168.789 404.549 168.414 404.742C168.039 404.93 167.743 405.19 167.526 405.524C167.31 405.853 167.201 406.189 167.201 406.535C167.201 407.361 167.424 408.059 167.869 408.627C168.32 409.189 168.895 409.471 169.592 409.471Z" fill="#111111"/>
<path d="M165.281 539.079C165.281 540.542 164.987 541.758 164.398 542.727C163.81 543.696 162.979 544.352 161.906 544.696L164.625 547.524H162.695L160.469 544.946L160.039 544.961C158.357 544.961 157.057 544.448 156.141 543.422C155.229 542.391 154.773 540.938 154.773 539.063C154.773 537.204 155.232 535.764 156.148 534.743C157.065 533.717 158.367 533.204 160.055 533.204C161.695 533.204 162.977 533.724 163.898 534.766C164.82 535.808 165.281 537.245 165.281 539.079ZM156.18 539.079C156.18 540.625 156.508 541.8 157.164 542.602C157.826 543.399 158.784 543.797 160.039 543.797C161.305 543.797 162.26 543.399 162.906 542.602C163.552 541.805 163.875 540.631 163.875 539.079C163.875 537.542 163.552 536.378 162.906 535.586C162.266 534.79 161.315 534.391 160.055 534.391C158.789 534.391 157.826 534.792 157.164 535.594C156.508 536.391 156.18 537.553 156.18 539.079ZM174.125 536.071C174.125 536.8 173.919 537.396 173.508 537.86C173.102 538.323 172.523 538.633 171.773 538.79V538.852C172.69 538.967 173.37 539.258 173.812 539.727C174.255 540.196 174.477 540.81 174.477 541.571C174.477 542.659 174.099 543.498 173.344 544.086C172.589 544.67 171.516 544.961 170.125 544.961C169.521 544.961 168.966 544.915 168.461 544.821C167.961 544.732 167.474 544.573 167 544.344V543.11C167.495 543.355 168.021 543.542 168.578 543.672C169.141 543.797 169.672 543.86 170.172 543.86C172.146 543.86 173.133 543.086 173.133 541.54C173.133 540.154 172.044 539.461 169.867 539.461H168.742V538.344H169.883C170.773 538.344 171.479 538.149 172 537.758C172.521 537.362 172.781 536.816 172.781 536.118C172.781 535.56 172.589 535.123 172.203 534.805C171.823 534.487 171.305 534.329 170.648 534.329C170.148 534.329 169.677 534.396 169.234 534.532C168.792 534.667 168.286 534.917 167.719 535.282L167.062 534.407C167.531 534.037 168.07 533.748 168.68 533.54C169.294 533.326 169.94 533.219 170.617 533.219C171.727 533.219 172.589 533.474 173.203 533.985C173.818 534.49 174.125 535.185 174.125 536.071Z" fill="#111111"/>
<rect width="127.384" height="34.9999" rx="5" transform="matrix(-0.00766711 -0.999971 0.999999 -0.00118374 214.582 521.911)" fill="#FF1E1E"/>
<path d="M229.501 389H220.791V387.436L224.104 384.104C225.083 383.103 225.73 382.394 226.047 381.978C226.369 381.556 226.604 381.16 226.75 380.791C226.896 380.422 226.97 380.026 226.97 379.604C226.97 379.024 226.794 378.567 226.442 378.233C226.097 377.899 225.616 377.732 225.001 377.732C224.509 377.732 224.031 377.823 223.568 378.005C223.111 378.187 222.581 378.515 221.978 378.989L220.861 377.627C221.576 377.023 222.271 376.596 222.944 376.344C223.618 376.092 224.336 375.966 225.098 375.966C226.293 375.966 227.251 376.279 227.972 376.906C228.692 377.527 229.053 378.365 229.053 379.42C229.053 380 228.947 380.551 228.736 381.072C228.531 381.594 228.212 382.133 227.778 382.689C227.351 383.24 226.636 383.987 225.634 384.931L223.401 387.093V387.181H229.501V389ZM239.784 382.575C239.784 384.808 239.424 386.466 238.703 387.55C237.988 388.634 236.893 389.176 235.416 389.176C233.986 389.176 232.902 388.616 232.164 387.497C231.426 386.378 231.057 384.737 231.057 382.575C231.057 380.308 231.414 378.638 232.129 377.565C232.85 376.487 233.945 375.948 235.416 375.948C236.852 375.948 237.938 376.511 238.677 377.636C239.415 378.761 239.784 380.407 239.784 382.575ZM233.148 382.575C233.148 384.327 233.327 385.578 233.685 386.328C234.048 387.078 234.625 387.453 235.416 387.453C236.207 387.453 236.784 387.072 237.147 386.311C237.517 385.549 237.701 384.304 237.701 382.575C237.701 380.853 237.517 379.607 237.147 378.84C236.784 378.066 236.207 377.68 235.416 377.68C234.625 377.68 234.048 378.058 233.685 378.813C233.327 379.569 233.148 380.823 233.148 382.575Z" fill="#111111"/>
<path d="M231.074 539.078C231.074 540.542 230.78 541.758 230.191 542.727C229.603 543.696 228.772 544.352 227.699 544.696L230.418 547.524H228.488L226.262 544.946L225.832 544.961C224.15 544.961 222.85 544.448 221.934 543.422C221.022 542.391 220.566 540.938 220.566 539.063C220.566 537.203 221.025 535.763 221.941 534.742C222.858 533.716 224.16 533.203 225.848 533.203C227.488 533.203 228.77 533.724 229.691 534.766C230.613 535.808 231.074 537.245 231.074 539.078ZM221.973 539.078C221.973 540.625 222.301 541.8 222.957 542.602C223.618 543.399 224.577 543.797 225.832 543.797C227.098 543.797 228.053 543.399 228.699 542.602C229.345 541.805 229.668 540.63 229.668 539.078C229.668 537.542 229.345 536.378 228.699 535.586C228.059 534.789 227.108 534.391 225.848 534.391C224.582 534.391 223.618 534.792 222.957 535.594C222.301 536.391 221.973 537.552 221.973 539.078ZM240.887 542.18H239.191V544.805H237.949V542.18H232.395V541.047L237.816 533.321H239.191V541H240.887V542.18ZM237.949 541V537.203C237.949 536.459 237.975 535.617 238.027 534.68H237.965C237.715 535.18 237.48 535.594 237.262 535.922L233.691 541H237.949Z" fill="#111111"/>
<path d="M120.557 614H110.879V612.262L114.561 608.561C115.648 607.447 116.367 606.66 116.719 606.197C117.077 605.729 117.337 605.289 117.5 604.879C117.663 604.469 117.744 604.029 117.744 603.561C117.744 602.916 117.549 602.408 117.158 602.037C116.774 601.666 116.24 601.48 115.557 601.48C115.01 601.48 114.479 601.581 113.965 601.783C113.457 601.985 112.868 602.35 112.197 602.877L110.957 601.363C111.751 600.693 112.523 600.217 113.271 599.938C114.02 599.658 114.818 599.518 115.664 599.518C116.992 599.518 118.057 599.866 118.857 600.562C119.658 601.253 120.059 602.184 120.059 603.355C120.059 604 119.941 604.612 119.707 605.191C119.479 605.771 119.124 606.37 118.643 606.988C118.167 607.6 117.373 608.43 116.26 609.479L113.779 611.881V611.979H120.557V614ZM131.982 606.861C131.982 609.342 131.582 611.184 130.781 612.389C129.987 613.593 128.77 614.195 127.129 614.195C125.54 614.195 124.336 613.574 123.516 612.33C122.695 611.087 122.285 609.264 122.285 606.861C122.285 604.342 122.682 602.486 123.477 601.295C124.277 600.097 125.495 599.498 127.129 599.498C128.724 599.498 129.932 600.123 130.752 601.373C131.572 602.623 131.982 604.452 131.982 606.861ZM124.609 606.861C124.609 608.808 124.808 610.198 125.205 611.031C125.609 611.865 126.25 612.281 127.129 612.281C128.008 612.281 128.649 611.858 129.053 611.012C129.463 610.165 129.668 608.782 129.668 606.861C129.668 604.947 129.463 603.564 129.053 602.711C128.649 601.852 128.008 601.422 127.129 601.422C126.25 601.422 125.609 601.842 125.205 602.682C124.808 603.521 124.609 604.915 124.609 606.861ZM143.408 614H133.73V612.262L137.412 608.561C138.499 607.447 139.219 606.66 139.57 606.197C139.928 605.729 140.189 605.289 140.352 604.879C140.514 604.469 140.596 604.029 140.596 603.561C140.596 602.916 140.4 602.408 140.01 602.037C139.626 601.666 139.092 601.48 138.408 601.48C137.861 601.48 137.331 601.581 136.816 601.783C136.309 601.985 135.719 602.35 135.049 602.877L133.809 601.363C134.603 600.693 135.374 600.217 136.123 599.938C136.872 599.658 137.669 599.518 138.516 599.518C139.844 599.518 140.908 599.866 141.709 600.562C142.51 601.253 142.91 602.184 142.91 603.355C142.91 604 142.793 604.612 142.559 605.191C142.331 605.771 141.976 606.37 141.494 606.988C141.019 607.6 140.225 608.43 139.111 609.479L136.631 611.881V611.979H143.408V614ZM151.895 614H149.6V604.781C149.6 603.681 149.626 602.809 149.678 602.164C149.528 602.32 149.342 602.493 149.121 602.682C148.906 602.87 148.177 603.469 146.934 604.479L145.781 603.023L149.98 599.723H151.895V614Z" fill="#111111"/>
<rect x="296" width="266" height="563" rx="5" fill="#F5F5F5"/>
<rect width="156.241" height="34.9999" rx="5" transform="matrix(-0.00637239 -0.99998 0.999999 -0.00142426 312.996 520.957)" fill="#FF1E1E"/>
<path d="M327.501 355H318.791V353.436L322.104 350.104C323.083 349.103 323.73 348.394 324.047 347.978C324.369 347.556 324.604 347.16 324.75 346.791C324.896 346.422 324.97 346.026 324.97 345.604C324.97 345.024 324.794 344.567 324.442 344.233C324.097 343.899 323.616 343.732 323.001 343.732C322.509 343.732 322.031 343.823 321.568 344.005C321.111 344.187 320.581 344.515 319.978 344.989L318.861 343.627C319.576 343.023 320.271 342.596 320.944 342.344C321.618 342.092 322.336 341.966 323.098 341.966C324.293 341.966 325.251 342.279 325.972 342.906C326.692 343.527 327.053 344.365 327.053 345.42C327.053 346 326.947 346.551 326.736 347.072C326.531 347.594 326.212 348.133 325.778 348.689C325.351 349.24 324.636 349.987 323.634 350.931L321.401 353.093V353.181H327.501V355ZM338.241 352.196H336.51V355H334.497V352.196H328.626V350.605L334.497 342.115H336.51V350.482H338.241V352.196ZM334.497 350.482V347.257C334.497 346.108 334.526 345.168 334.585 344.436H334.515C334.351 344.822 334.093 345.291 333.741 345.842L330.551 350.482H334.497Z" fill="#111111"/>
<path d="M329.484 539.273C329.484 540.737 329.19 541.953 328.602 542.922C328.013 543.891 327.182 544.547 326.109 544.891L328.828 547.719H326.898L324.672 545.141L324.242 545.156C322.56 545.156 321.26 544.643 320.344 543.617C319.432 542.586 318.977 541.133 318.977 539.258C318.977 537.398 319.435 535.958 320.352 534.938C321.268 533.911 322.57 533.398 324.258 533.398C325.898 533.398 327.18 533.919 328.102 534.961C329.023 536.003 329.484 537.44 329.484 539.273ZM320.383 539.273C320.383 540.82 320.711 541.995 321.367 542.797C322.029 543.594 322.987 543.992 324.242 543.992C325.508 543.992 326.464 543.594 327.109 542.797C327.755 542 328.078 540.826 328.078 539.273C328.078 537.737 327.755 536.573 327.109 535.781C326.469 534.984 325.518 534.586 324.258 534.586C322.992 534.586 322.029 534.987 321.367 535.789C320.711 536.586 320.383 537.747 320.383 539.273ZM336.055 545H334.789V536.859C334.789 536.182 334.81 535.542 334.852 534.938C334.742 535.047 334.62 535.161 334.484 535.281C334.349 535.401 333.729 535.909 332.625 536.805L331.938 535.914L334.961 533.578H336.055V545Z" fill="#111111"/>
<rect width="191.161" height="34.9999" rx="5" transform="matrix(-0.00637239 -0.99998 0.999999 -0.00142426 379.324 520.957)" fill="#FF1E1E"/>
<path d="M393.501 323H384.791V321.436L388.104 318.104C389.083 317.103 389.73 316.394 390.047 315.978C390.369 315.556 390.604 315.16 390.75 314.791C390.896 314.422 390.97 314.026 390.97 313.604C390.97 313.024 390.794 312.567 390.442 312.233C390.097 311.899 389.616 311.732 389.001 311.732C388.509 311.732 388.031 311.823 387.568 312.005C387.111 312.187 386.581 312.515 385.978 312.989L384.861 311.627C385.576 311.023 386.271 310.596 386.944 310.344C387.618 310.092 388.336 309.966 389.098 309.966C390.293 309.966 391.251 310.279 391.972 310.906C392.692 311.527 393.053 312.365 393.053 313.42C393.053 314 392.947 314.551 392.736 315.072C392.531 315.594 392.212 316.133 391.778 316.689C391.351 317.24 390.636 317.987 389.634 318.931L387.401 321.093V321.181H393.501V323ZM399.416 309.983C400.635 309.983 401.599 310.265 402.308 310.827C403.017 311.384 403.371 312.131 403.371 313.068C403.371 314.387 402.58 315.436 400.998 316.215C402.006 316.719 402.721 317.249 403.143 317.806C403.57 318.362 403.784 318.983 403.784 319.669C403.784 320.729 403.395 321.579 402.615 322.218C401.836 322.856 400.781 323.176 399.451 323.176C398.057 323.176 396.976 322.877 396.208 322.279C395.44 321.682 395.057 320.835 395.057 319.739C395.057 319.024 395.256 318.383 395.654 317.814C396.059 317.24 396.718 316.73 397.632 316.285C396.847 315.816 396.287 315.321 395.953 314.8C395.619 314.278 395.452 313.692 395.452 313.042C395.452 312.11 395.818 311.369 396.551 310.818C397.283 310.262 398.238 309.983 399.416 309.983ZM397.034 319.669C397.034 320.278 397.248 320.753 397.676 321.093C398.104 321.427 398.684 321.594 399.416 321.594C400.172 321.594 400.758 321.421 401.174 321.075C401.596 320.724 401.807 320.249 401.807 319.651C401.807 319.177 401.613 318.743 401.227 318.351C400.84 317.958 400.254 317.595 399.469 317.261L399.214 317.146C398.44 317.486 397.884 317.861 397.544 318.271C397.204 318.676 397.034 319.142 397.034 319.669ZM399.398 311.574C398.812 311.574 398.341 311.721 397.983 312.014C397.626 312.301 397.447 312.693 397.447 313.191C397.447 313.496 397.512 313.769 397.641 314.009C397.77 314.249 397.957 314.469 398.203 314.668C398.449 314.861 398.865 315.096 399.451 315.371C400.154 315.061 400.649 314.735 400.937 314.396C401.229 314.05 401.376 313.648 401.376 313.191C401.376 312.693 401.194 312.301 400.831 312.014C400.474 311.721 399.996 311.574 399.398 311.574Z" fill="#111111"/>
<path d="M395.484 539.273C395.484 540.737 395.19 541.953 394.602 542.922C394.013 543.891 393.182 544.547 392.109 544.891L394.828 547.719H392.898L390.672 545.141L390.242 545.156C388.56 545.156 387.26 544.643 386.344 543.617C385.432 542.586 384.977 541.133 384.977 539.258C384.977 537.398 385.435 535.958 386.352 534.938C387.268 533.911 388.57 533.398 390.258 533.398C391.898 533.398 393.18 533.919 394.102 534.961C395.023 536.003 395.484 537.44 395.484 539.273ZM386.383 539.273C386.383 540.82 386.711 541.995 387.367 542.797C388.029 543.594 388.987 543.992 390.242 543.992C391.508 543.992 392.464 543.594 393.109 542.797C393.755 542 394.078 540.826 394.078 539.273C394.078 537.737 393.755 536.573 393.109 535.781C392.469 534.984 391.518 534.586 390.258 534.586C388.992 534.586 388.029 534.987 387.367 535.789C386.711 536.586 386.383 537.747 386.383 539.273ZM404.758 545H397.25V543.883L400.258 540.859C401.174 539.932 401.779 539.271 402.07 538.875C402.362 538.479 402.581 538.094 402.727 537.719C402.872 537.344 402.945 536.94 402.945 536.508C402.945 535.898 402.76 535.417 402.391 535.062C402.021 534.703 401.508 534.523 400.852 534.523C400.378 534.523 399.927 534.602 399.5 534.758C399.078 534.914 398.607 535.198 398.086 535.609L397.398 534.727C398.451 533.852 399.596 533.414 400.836 533.414C401.909 533.414 402.75 533.69 403.359 534.242C403.969 534.789 404.273 535.526 404.273 536.453C404.273 537.177 404.07 537.893 403.664 538.602C403.258 539.31 402.497 540.206 401.383 541.289L398.883 543.734V543.797H404.758V545Z" fill="#111111"/>
<rect width="213.533" height="34.9999" rx="5" transform="matrix(-0.00637239 -0.99998 0.999999 -0.00142426 445.465 520.957)" fill="#FF1E1E"/>
<path d="M459.018 292.104C459.018 292.918 458.78 293.598 458.306 294.143C457.831 294.682 457.163 295.045 456.302 295.232V295.303C457.333 295.432 458.106 295.754 458.622 296.27C459.138 296.779 459.396 297.459 459.396 298.309C459.396 299.545 458.959 300.5 458.086 301.174C457.213 301.842 455.971 302.176 454.359 302.176C452.936 302.176 451.734 301.944 450.756 301.481V299.645C451.301 299.914 451.878 300.122 452.487 300.269C453.097 300.415 453.683 300.488 454.245 300.488C455.241 300.488 455.985 300.304 456.478 299.935C456.97 299.565 457.216 298.994 457.216 298.221C457.216 297.535 456.943 297.031 456.398 296.709C455.854 296.387 454.998 296.226 453.832 296.226H452.716V294.547H453.85C455.9 294.547 456.926 293.838 456.926 292.42C456.926 291.869 456.747 291.444 456.39 291.146C456.032 290.847 455.505 290.697 454.808 290.697C454.321 290.697 453.853 290.768 453.401 290.908C452.95 291.043 452.417 291.31 451.802 291.708L450.791 290.267C451.969 289.399 453.337 288.966 454.896 288.966C456.19 288.966 457.201 289.244 457.928 289.801C458.654 290.357 459.018 291.125 459.018 292.104ZM469.784 302H461.074V300.436L464.388 297.104C465.366 296.103 466.014 295.394 466.33 294.978C466.652 294.556 466.887 294.16 467.033 293.791C467.18 293.422 467.253 293.026 467.253 292.604C467.253 292.024 467.077 291.567 466.726 291.233C466.38 290.899 465.899 290.732 465.284 290.732C464.792 290.732 464.314 290.823 463.852 291.005C463.395 291.187 462.864 291.515 462.261 291.989L461.145 290.627C461.859 290.023 462.554 289.596 463.228 289.344C463.901 289.092 464.619 288.966 465.381 288.966C466.576 288.966 467.534 289.279 468.255 289.906C468.976 290.527 469.336 291.365 469.336 292.42C469.336 293 469.23 293.551 469.02 294.072C468.814 294.594 468.495 295.133 468.062 295.689C467.634 296.24 466.919 296.987 465.917 297.931L463.685 300.093V300.181H469.784V302Z" fill="#111111"/>
<path d="M461.484 539.273C461.484 540.737 461.19 541.953 460.602 542.922C460.013 543.891 459.182 544.547 458.109 544.891L460.828 547.719H458.898L456.672 545.141L456.242 545.156C454.56 545.156 453.26 544.643 452.344 543.617C451.432 542.586 450.977 541.133 450.977 539.258C450.977 537.398 451.435 535.958 452.352 534.938C453.268 533.911 454.57 533.398 456.258 533.398C457.898 533.398 459.18 533.919 460.102 534.961C461.023 536.003 461.484 537.44 461.484 539.273ZM452.383 539.273C452.383 540.82 452.711 541.995 453.367 542.797C454.029 543.594 454.987 543.992 456.242 543.992C457.508 543.992 458.464 543.594 459.109 542.797C459.755 542 460.078 540.826 460.078 539.273C460.078 537.737 459.755 536.573 459.109 535.781C458.469 534.984 457.518 534.586 456.258 534.586C454.992 534.586 454.029 534.987 453.367 535.789C452.711 536.586 452.383 537.747 452.383 539.273ZM470.328 536.266C470.328 536.995 470.122 537.591 469.711 538.055C469.305 538.518 468.727 538.828 467.977 538.984V539.047C468.893 539.161 469.573 539.453 470.016 539.922C470.458 540.391 470.68 541.005 470.68 541.766C470.68 542.854 470.302 543.693 469.547 544.281C468.792 544.865 467.719 545.156 466.328 545.156C465.724 545.156 465.169 545.109 464.664 545.016C464.164 544.927 463.677 544.768 463.203 544.539V543.305C463.698 543.549 464.224 543.737 464.781 543.867C465.344 543.992 465.875 544.055 466.375 544.055C468.349 544.055 469.336 543.281 469.336 541.734C469.336 540.349 468.247 539.656 466.07 539.656H464.945V538.539H466.086C466.977 538.539 467.682 538.344 468.203 537.953C468.724 537.557 468.984 537.01 468.984 536.312C468.984 535.755 468.792 535.318 468.406 535C468.026 534.682 467.508 534.523 466.852 534.523C466.352 534.523 465.88 534.591 465.438 534.727C464.995 534.862 464.49 535.112 463.922 535.477L463.266 534.602C463.734 534.232 464.273 533.943 464.883 533.734C465.497 533.521 466.143 533.414 466.82 533.414C467.93 533.414 468.792 533.669 469.406 534.18C470.021 534.685 470.328 535.38 470.328 536.266Z" fill="#111111"/>
<rect width="252.885" height="34.9999" rx="5" transform="matrix(-0.00637239 -0.99998 0.999999 -0.00142426 511.719 520.957)" fill="#FF1E1E"/>
<path d="M525.958 258.196H524.227V261H522.214V258.196H516.343V256.605L522.214 248.115H524.227V256.482H525.958V258.196ZM522.214 256.482V253.257C522.214 252.108 522.243 251.168 522.302 250.436H522.231C522.067 250.822 521.81 251.291 521.458 251.842L518.268 256.482H522.214ZM535.784 254.575C535.784 256.808 535.424 258.466 534.703 259.55C533.988 260.634 532.893 261.176 531.416 261.176C529.986 261.176 528.902 260.616 528.164 259.497C527.426 258.378 527.057 256.737 527.057 254.575C527.057 252.308 527.414 250.638 528.129 249.565C528.85 248.487 529.945 247.948 531.416 247.948C532.852 247.948 533.938 248.511 534.677 249.636C535.415 250.761 535.784 252.407 535.784 254.575ZM529.148 254.575C529.148 256.327 529.327 257.578 529.685 258.328C530.048 259.078 530.625 259.453 531.416 259.453C532.207 259.453 532.784 259.072 533.147 258.311C533.517 257.549 533.701 256.304 533.701 254.575C533.701 252.853 533.517 251.607 533.147 250.84C532.784 250.066 532.207 249.68 531.416 249.68C530.625 249.68 530.048 250.058 529.685 250.813C529.327 251.569 529.148 252.823 529.148 254.575Z" fill="#111111"/>
<path d="M528.207 539.322C528.207 540.785 527.913 542.001 527.324 542.97C526.736 543.939 525.905 544.595 524.832 544.939L527.551 547.767H525.621L523.395 545.189L522.965 545.205C521.283 545.205 519.983 544.692 519.066 543.666C518.155 542.634 517.699 541.181 517.699 539.306C517.699 537.447 518.158 536.007 519.074 534.986C519.991 533.96 521.293 533.447 522.98 533.447C524.621 533.447 525.902 533.968 526.824 535.009C527.746 536.051 528.207 537.488 528.207 539.322ZM519.105 539.322C519.105 540.869 519.434 542.043 520.09 542.845C520.751 543.642 521.71 544.041 522.965 544.041C524.23 544.041 525.186 543.642 525.832 542.845C526.478 542.048 526.801 540.874 526.801 539.322C526.801 537.785 526.478 536.621 525.832 535.83C525.191 535.033 524.241 534.634 522.98 534.634C521.715 534.634 520.751 535.035 520.09 535.837C519.434 536.634 519.105 537.796 519.105 539.322ZM538.02 542.423H536.324V545.048H535.082V542.423H529.527V541.291L534.949 533.564H536.324V541.244H538.02V542.423ZM535.082 541.244V537.447C535.082 536.702 535.108 535.861 535.16 534.923H535.098C534.848 535.423 534.613 535.837 534.395 536.166L530.824 541.244H535.082Z" fill="#111111"/>
<rect x="592" width="266" height="563" rx="5" fill="#F5F5F5"/>
<rect width="292.941" height="34.9999" rx="5" transform="matrix(-0.00642535 -0.999979 0.999999 -0.00141252 607.883 525.102)" fill="#ACA9A9"/>
<path d="M618.15 217.976C619.445 217.976 620.471 218.318 621.227 219.004C621.982 219.689 622.36 220.624 622.36 221.808C622.36 223.179 621.93 224.251 621.068 225.024C620.213 225.792 618.994 226.176 617.412 226.176C615.977 226.176 614.849 225.944 614.028 225.481V223.609C614.503 223.879 615.048 224.087 615.663 224.233C616.278 224.38 616.85 224.453 617.377 224.453C618.309 224.453 619.018 224.245 619.504 223.829C619.99 223.413 620.233 222.804 620.233 222.001C620.233 220.466 619.255 219.698 617.298 219.698C617.022 219.698 616.683 219.728 616.278 219.786C615.874 219.839 615.52 219.9 615.215 219.971L614.292 219.426L614.784 213.15H621.464V214.987H616.604L616.313 218.169C616.519 218.134 616.768 218.093 617.061 218.046C617.359 217.999 617.723 217.976 618.15 217.976ZM632.784 219.575C632.784 221.808 632.424 223.466 631.703 224.55C630.988 225.634 629.893 226.176 628.416 226.176C626.986 226.176 625.902 225.616 625.164 224.497C624.426 223.378 624.057 221.737 624.057 219.575C624.057 217.308 624.414 215.638 625.129 214.565C625.85 213.487 626.945 212.948 628.416 212.948C629.852 212.948 630.938 213.511 631.677 214.636C632.415 215.761 632.784 217.407 632.784 219.575ZM626.148 219.575C626.148 221.327 626.327 222.578 626.685 223.328C627.048 224.078 627.625 224.453 628.416 224.453C629.207 224.453 629.784 224.072 630.147 223.311C630.517 222.549 630.701 221.304 630.701 219.575C630.701 217.853 630.517 216.607 630.147 215.84C629.784 215.066 629.207 214.68 628.416 214.68C627.625 214.68 627.048 215.058 626.685 215.813C626.327 216.569 626.148 217.823 626.148 219.575Z" fill="#111111"/>
<path d="M624.371 543.408C624.371 544.871 624.077 546.087 623.488 547.056C622.9 548.025 622.069 548.681 620.996 549.025L623.715 551.853H621.785L619.559 549.275L619.129 549.291C617.447 549.291 616.147 548.778 615.23 547.751C614.319 546.72 613.863 545.267 613.863 543.392C613.863 541.533 614.322 540.093 615.238 539.072C616.155 538.046 617.457 537.533 619.145 537.533C620.785 537.533 622.066 538.054 622.988 539.095C623.91 540.137 624.371 541.574 624.371 543.408ZM615.27 543.408C615.27 544.955 615.598 546.129 616.254 546.931C616.915 547.728 617.874 548.126 619.129 548.126C620.395 548.126 621.35 547.728 621.996 546.931C622.642 546.134 622.965 544.96 622.965 543.408C622.965 541.871 622.642 540.707 621.996 539.916C621.355 539.119 620.405 538.72 619.145 538.72C617.879 538.72 616.915 539.121 616.254 539.923C615.598 540.72 615.27 541.882 615.27 543.408ZM630.941 549.134H629.676V540.994C629.676 540.317 629.697 539.676 629.738 539.072C629.629 539.181 629.507 539.296 629.371 539.416C629.236 539.535 628.616 540.043 627.512 540.939L626.824 540.048L629.848 537.712H630.941V549.134Z" fill="#111111"/>
<rect width="345.208" height="34.9999" rx="5" transform="matrix(-0.00642535 -0.999979 0.999999 -0.00141252 675.102 525.102)" fill="#ACA9A9"/>
<path d="M680.826 168.524C680.826 163.497 682.874 160.983 686.97 160.983C687.614 160.983 688.159 161.033 688.604 161.133V162.855C688.159 162.727 687.644 162.662 687.058 162.662C685.681 162.662 684.646 163.031 683.955 163.77C683.264 164.508 682.889 165.691 682.83 167.32H682.936C683.211 166.846 683.598 166.479 684.096 166.222C684.594 165.958 685.18 165.826 685.854 165.826C687.02 165.826 687.928 166.184 688.578 166.898C689.229 167.613 689.554 168.583 689.554 169.808C689.554 171.155 689.176 172.222 688.42 173.007C687.67 173.786 686.645 174.176 685.344 174.176C684.424 174.176 683.624 173.956 682.944 173.517C682.265 173.071 681.74 172.427 681.371 171.583C681.008 170.733 680.826 169.714 680.826 168.524ZM685.309 172.471C686.018 172.471 686.562 172.242 686.943 171.785C687.33 171.328 687.523 170.675 687.523 169.825C687.523 169.087 687.342 168.507 686.979 168.085C686.621 167.663 686.082 167.452 685.361 167.452C684.916 167.452 684.506 167.549 684.131 167.742C683.756 167.93 683.46 168.19 683.243 168.524C683.026 168.853 682.918 169.189 682.918 169.535C682.918 170.361 683.141 171.059 683.586 171.627C684.037 172.189 684.611 172.471 685.309 172.471ZM699.784 167.575C699.784 169.808 699.424 171.466 698.703 172.55C697.988 173.634 696.893 174.176 695.416 174.176C693.986 174.176 692.902 173.616 692.164 172.497C691.426 171.378 691.057 169.737 691.057 167.575C691.057 165.308 691.414 163.638 692.129 162.565C692.85 161.487 693.945 160.948 695.416 160.948C696.852 160.948 697.938 161.511 698.677 162.636C699.415 163.761 699.784 165.407 699.784 167.575ZM693.148 167.575C693.148 169.327 693.327 170.578 693.685 171.328C694.048 172.078 694.625 172.453 695.416 172.453C696.207 172.453 696.784 172.072 697.147 171.311C697.517 170.549 697.701 169.304 697.701 167.575C697.701 165.853 697.517 164.607 697.147 163.84C696.784 163.066 696.207 162.68 695.416 162.68C694.625 162.68 694.048 163.058 693.685 163.813C693.327 164.569 693.148 165.823 693.148 167.575Z" fill="#111111"/>
<path d="M691.59 543.408C691.59 544.871 691.296 546.087 690.707 547.056C690.118 548.025 689.288 548.681 688.215 549.025L690.934 551.853H689.004L686.777 549.275L686.348 549.291C684.665 549.291 683.366 548.778 682.449 547.751C681.538 546.72 681.082 545.267 681.082 543.392C681.082 541.533 681.54 540.093 682.457 539.072C683.374 538.046 684.676 537.533 686.363 537.533C688.004 537.533 689.285 538.054 690.207 539.095C691.129 540.137 691.59 541.574 691.59 543.408ZM682.488 543.408C682.488 544.955 682.816 546.129 683.473 546.931C684.134 547.728 685.092 548.126 686.348 548.126C687.613 548.126 688.569 547.728 689.215 546.931C689.861 546.134 690.184 544.96 690.184 543.408C690.184 541.871 689.861 540.707 689.215 539.916C688.574 539.119 687.624 538.72 686.363 538.72C685.098 538.72 684.134 539.121 683.473 539.923C682.816 540.72 682.488 541.882 682.488 543.408ZM700.863 549.134H693.355V548.017L696.363 544.994C697.28 544.067 697.884 543.405 698.176 543.009C698.467 542.613 698.686 542.228 698.832 541.853C698.978 541.478 699.051 541.074 699.051 540.642C699.051 540.033 698.866 539.551 698.496 539.197C698.126 538.837 697.613 538.658 696.957 538.658C696.483 538.658 696.033 538.736 695.605 538.892C695.184 539.048 694.712 539.332 694.191 539.744L693.504 538.861C694.556 537.986 695.702 537.548 696.941 537.548C698.014 537.548 698.855 537.824 699.465 538.376C700.074 538.923 700.379 539.66 700.379 540.587C700.379 541.311 700.176 542.028 699.77 542.736C699.363 543.444 698.603 544.34 697.488 545.423L694.988 547.869V547.931H700.863V549.134Z" fill="#111111"/>
<rect width="389.703" height="34.9999" rx="5" transform="matrix(-0.00642535 -0.999979 0.999999 -0.00141252 742.605 525.102)" fill="#ACA9A9"/>
<path d="M750.25 129L755.33 117.987H748.65V116.168H757.536V117.609L752.482 129H750.25ZM767.784 122.575C767.784 124.808 767.424 126.466 766.703 127.55C765.988 128.634 764.893 129.176 763.416 129.176C761.986 129.176 760.902 128.616 760.164 127.497C759.426 126.378 759.057 124.737 759.057 122.575C759.057 120.308 759.414 118.638 760.129 117.565C760.85 116.487 761.945 115.948 763.416 115.948C764.852 115.948 765.938 116.511 766.677 117.636C767.415 118.761 767.784 120.407 767.784 122.575ZM761.148 122.575C761.148 124.327 761.327 125.578 761.685 126.328C762.048 127.078 762.625 127.453 763.416 127.453C764.207 127.453 764.784 127.072 765.147 126.311C765.517 125.549 765.701 124.304 765.701 122.575C765.701 120.853 765.517 119.607 765.147 118.84C764.784 118.066 764.207 117.68 763.416 117.68C762.625 117.68 762.048 118.058 761.685 118.813C761.327 119.569 761.148 120.823 761.148 122.575Z" fill="#111111"/>
<path d="M759.094 543.408C759.094 544.871 758.799 546.087 758.211 547.056C757.622 548.025 756.792 548.681 755.719 549.025L758.438 551.853H756.508L754.281 549.275L753.852 549.291C752.169 549.291 750.87 548.778 749.953 547.751C749.042 546.72 748.586 545.267 748.586 543.392C748.586 541.533 749.044 540.093 749.961 539.072C750.878 538.046 752.18 537.533 753.867 537.533C755.508 537.533 756.789 538.054 757.711 539.095C758.633 540.137 759.094 541.574 759.094 543.408ZM749.992 543.408C749.992 544.955 750.32 546.129 750.977 546.931C751.638 547.728 752.596 548.126 753.852 548.126C755.117 548.126 756.073 547.728 756.719 546.931C757.365 546.134 757.688 544.96 757.688 543.408C757.688 541.871 757.365 540.707 756.719 539.916C756.078 539.119 755.128 538.72 753.867 538.72C752.602 538.72 751.638 539.121 750.977 539.923C750.32 540.72 749.992 541.882 749.992 543.408ZM767.938 540.4C767.938 541.129 767.732 541.725 767.32 542.189C766.914 542.653 766.336 542.962 765.586 543.119V543.181C766.503 543.296 767.182 543.587 767.625 544.056C768.068 544.525 768.289 545.139 768.289 545.9C768.289 546.988 767.911 547.827 767.156 548.416C766.401 548.999 765.328 549.291 763.938 549.291C763.333 549.291 762.779 549.244 762.273 549.15C761.773 549.061 761.286 548.903 760.812 548.673V547.439C761.307 547.684 761.833 547.871 762.391 548.001C762.953 548.126 763.484 548.189 763.984 548.189C765.958 548.189 766.945 547.416 766.945 545.869C766.945 544.483 765.857 543.791 763.68 543.791H762.555V542.673H763.695C764.586 542.673 765.292 542.478 765.812 542.087C766.333 541.692 766.594 541.145 766.594 540.447C766.594 539.889 766.401 539.452 766.016 539.134C765.635 538.817 765.117 538.658 764.461 538.658C763.961 538.658 763.49 538.725 763.047 538.861C762.604 538.996 762.099 539.246 761.531 539.611L760.875 538.736C761.344 538.366 761.883 538.077 762.492 537.869C763.107 537.655 763.753 537.548 764.43 537.548C765.539 537.548 766.401 537.804 767.016 538.314C767.63 538.819 767.938 539.514 767.938 540.4Z" fill="#111111"/>
<rect width="447.895" height="34.9999" rx="5" transform="matrix(-0.00642535 -0.999979 0.999999 -0.00141252 809.777 525.102)" fill="#ACA9A9"/>
<path d="M820.133 56.9834C821.352 56.9834 822.315 57.2646 823.024 57.8271C823.733 58.3838 824.088 59.1309 824.088 60.0684C824.088 61.3867 823.297 62.4355 821.715 63.2148C822.723 63.7188 823.438 64.249 823.859 64.8057C824.287 65.3623 824.501 65.9834 824.501 66.6689C824.501 67.7295 824.111 68.5791 823.332 69.2178C822.553 69.8564 821.498 70.1758 820.168 70.1758C818.773 70.1758 817.692 69.877 816.925 69.2793C816.157 68.6816 815.773 67.835 815.773 66.7393C815.773 66.0244 815.973 65.3828 816.371 64.8145C816.775 64.2402 817.435 63.7305 818.349 63.2852C817.563 62.8164 817.004 62.3213 816.67 61.7998C816.336 61.2783 816.169 60.6924 816.169 60.042C816.169 59.1104 816.535 58.3691 817.268 57.8184C818 57.2617 818.955 56.9834 820.133 56.9834ZM817.751 66.6689C817.751 67.2783 817.965 67.7529 818.393 68.0928C818.82 68.4268 819.4 68.5938 820.133 68.5938C820.889 68.5938 821.475 68.4209 821.891 68.0752C822.312 67.7236 822.523 67.249 822.523 66.6514C822.523 66.1768 822.33 65.7432 821.943 65.3506C821.557 64.958 820.971 64.5947 820.186 64.2607L819.931 64.1465C819.157 64.4863 818.601 64.8613 818.261 65.2715C817.921 65.6758 817.751 66.1416 817.751 66.6689ZM820.115 58.5742C819.529 58.5742 819.058 58.7207 818.7 59.0137C818.343 59.3008 818.164 59.6934 818.164 60.1914C818.164 60.4961 818.229 60.7686 818.357 61.0088C818.486 61.249 818.674 61.4688 818.92 61.668C819.166 61.8613 819.582 62.0957 820.168 62.3711C820.871 62.0605 821.366 61.7354 821.653 61.3955C821.946 61.0498 822.093 60.6484 822.093 60.1914C822.093 59.6934 821.911 59.3008 821.548 59.0137C821.19 58.7207 820.713 58.5742 820.115 58.5742ZM834.784 63.5752C834.784 65.8076 834.424 67.4658 833.703 68.5498C832.988 69.6338 831.893 70.1758 830.416 70.1758C828.986 70.1758 827.902 69.6162 827.164 68.4971C826.426 67.3779 826.057 65.7373 826.057 63.5752C826.057 61.3076 826.414 59.6377 827.129 58.5654C827.85 57.4873 828.945 56.9482 830.416 56.9482C831.852 56.9482 832.938 57.5107 833.677 58.6357C834.415 59.7607 834.784 61.4072 834.784 63.5752ZM828.148 63.5752C828.148 65.3271 828.327 66.5781 828.685 67.3281C829.048 68.0781 829.625 68.4531 830.416 68.4531C831.207 68.4531 831.784 68.0723 832.147 67.3105C832.517 66.5488 832.701 65.3037 832.701 63.5752C832.701 61.8525 832.517 60.6074 832.147 59.8398C831.784 59.0664 831.207 58.6797 830.416 58.6797C829.625 58.6797 829.048 59.0576 828.685 59.8135C828.327 60.5693 828.148 61.8232 828.148 63.5752Z" fill="#111111"/>
<path d="M826.262 543.408C826.262 544.871 825.967 546.087 825.379 547.056C824.79 548.025 823.96 548.681 822.887 549.025L825.605 551.853H823.676L821.449 549.275L821.02 549.291C819.337 549.291 818.038 548.778 817.121 547.751C816.21 546.72 815.754 545.267 815.754 543.392C815.754 541.533 816.212 540.093 817.129 539.072C818.046 538.046 819.348 537.533 821.035 537.533C822.676 537.533 823.957 538.054 824.879 539.095C825.801 540.137 826.262 541.574 826.262 543.408ZM817.16 543.408C817.16 544.955 817.488 546.129 818.145 546.931C818.806 547.728 819.764 548.126 821.02 548.126C822.285 548.126 823.241 547.728 823.887 546.931C824.533 546.134 824.855 544.96 824.855 543.408C824.855 541.871 824.533 540.707 823.887 539.916C823.246 539.119 822.296 538.72 821.035 538.72C819.77 538.72 818.806 539.121 818.145 539.923C817.488 540.72 817.16 541.882 817.16 543.408ZM835.105 540.4C835.105 541.129 834.9 541.725 834.488 542.189C834.082 542.653 833.504 542.962 832.754 543.119V543.181C833.671 543.296 834.35 543.587 834.793 544.056C835.236 544.525 835.457 545.139 835.457 545.9C835.457 546.988 835.079 547.827 834.324 548.416C833.569 548.999 832.496 549.291 831.105 549.291C830.501 549.291 829.947 549.244 829.441 549.15C828.941 549.061 828.454 548.903 827.98 548.673V547.439C828.475 547.684 829.001 547.871 829.559 548.001C830.121 548.126 830.652 548.189 831.152 548.189C833.126 548.189 834.113 547.416 834.113 545.869C834.113 544.483 833.025 543.791 830.848 543.791H829.723V542.673H830.863C831.754 542.673 832.46 542.478 832.98 542.087C833.501 541.692 833.762 541.145 833.762 540.447C833.762 539.889 833.569 539.452 833.184 539.134C832.803 538.817 832.285 538.658 831.629 538.658C831.129 538.658 830.658 538.725 830.215 538.861C829.772 538.996 829.267 539.246 828.699 539.611L828.043 538.736C828.512 538.366 829.051 538.077 829.66 537.869C830.275 537.655 830.921 537.548 831.598 537.548C832.707 537.548 833.569 537.804 834.184 538.314C834.798 538.819 835.105 539.514 835.105 540.4Z" fill="#111111"/>
<path d="M416.557 614H406.879V612.262L410.561 608.561C411.648 607.447 412.367 606.66 412.719 606.197C413.077 605.729 413.337 605.289 413.5 604.879C413.663 604.469 413.744 604.029 413.744 603.561C413.744 602.916 413.549 602.408 413.158 602.037C412.774 601.666 412.24 601.48 411.557 601.48C411.01 601.48 410.479 601.581 409.965 601.783C409.457 601.985 408.868 602.35 408.197 602.877L406.957 601.363C407.751 600.693 408.523 600.217 409.271 599.938C410.02 599.658 410.818 599.518 411.664 599.518C412.992 599.518 414.057 599.866 414.857 600.562C415.658 601.253 416.059 602.184 416.059 603.355C416.059 604 415.941 604.612 415.707 605.191C415.479 605.771 415.124 606.37 414.643 606.988C414.167 607.6 413.373 608.43 412.26 609.479L409.779 611.881V611.979H416.557V614ZM427.982 606.861C427.982 609.342 427.582 611.184 426.781 612.389C425.987 613.593 424.77 614.195 423.129 614.195C421.54 614.195 420.336 613.574 419.516 612.33C418.695 611.087 418.285 609.264 418.285 606.861C418.285 604.342 418.682 602.486 419.477 601.295C420.277 600.097 421.495 599.498 423.129 599.498C424.724 599.498 425.932 600.123 426.752 601.373C427.572 602.623 427.982 604.452 427.982 606.861ZM420.609 606.861C420.609 608.808 420.808 610.198 421.205 611.031C421.609 611.865 422.25 612.281 423.129 612.281C424.008 612.281 424.649 611.858 425.053 611.012C425.463 610.165 425.668 608.782 425.668 606.861C425.668 604.947 425.463 603.564 425.053 602.711C424.649 601.852 424.008 601.422 423.129 601.422C422.25 601.422 421.609 601.842 421.205 602.682C420.808 603.521 420.609 604.915 420.609 606.861ZM439.408 614H429.73V612.262L433.412 608.561C434.499 607.447 435.219 606.66 435.57 606.197C435.928 605.729 436.189 605.289 436.352 604.879C436.514 604.469 436.596 604.029 436.596 603.561C436.596 602.916 436.4 602.408 436.01 602.037C435.626 601.666 435.092 601.48 434.408 601.48C433.861 601.48 433.331 601.581 432.816 601.783C432.309 601.985 431.719 602.35 431.049 602.877L429.809 601.363C430.603 600.693 431.374 600.217 432.123 599.938C432.872 599.658 433.669 599.518 434.516 599.518C435.844 599.518 436.908 599.866 437.709 600.562C438.51 601.253 438.91 602.184 438.91 603.355C438.91 604 438.793 604.612 438.559 605.191C438.331 605.771 437.976 606.37 437.494 606.988C437.019 607.6 436.225 608.43 435.111 609.479L432.631 611.881V611.979H439.408V614ZM450.834 614H441.156V612.262L444.838 608.561C445.925 607.447 446.645 606.66 446.996 606.197C447.354 605.729 447.615 605.289 447.777 604.879C447.94 604.469 448.021 604.029 448.021 603.561C448.021 602.916 447.826 602.408 447.436 602.037C447.051 601.666 446.518 601.48 445.834 601.48C445.287 601.48 444.757 601.581 444.242 601.783C443.734 601.985 443.145 602.35 442.475 602.877L441.234 601.363C442.029 600.693 442.8 600.217 443.549 599.938C444.298 599.658 445.095 599.518 445.941 599.518C447.27 599.518 448.334 599.866 449.135 600.562C449.936 601.253 450.336 602.184 450.336 603.355C450.336 604 450.219 604.612 449.984 605.191C449.757 605.771 449.402 606.37 448.92 606.988C448.445 607.6 447.65 608.43 446.537 609.479L444.057 611.881V611.979H450.834V614Z" fill="#111111"/>
<path d="M712.557 614H702.879V612.262L706.561 608.561C707.648 607.447 708.367 606.66 708.719 606.197C709.077 605.729 709.337 605.289 709.5 604.879C709.663 604.469 709.744 604.029 709.744 603.561C709.744 602.916 709.549 602.408 709.158 602.037C708.774 601.666 708.24 601.48 707.557 601.48C707.01 601.48 706.479 601.581 705.965 601.783C705.457 601.985 704.868 602.35 704.197 602.877L702.957 601.363C703.751 600.693 704.523 600.217 705.271 599.938C706.02 599.658 706.818 599.518 707.664 599.518C708.992 599.518 710.057 599.866 710.857 600.562C711.658 601.253 712.059 602.184 712.059 603.355C712.059 604 711.941 604.612 711.707 605.191C711.479 605.771 711.124 606.37 710.643 606.988C710.167 607.6 709.373 608.43 708.26 609.479L705.779 611.881V611.979H712.557V614ZM723.982 606.861C723.982 609.342 723.582 611.184 722.781 612.389C721.987 613.593 720.77 614.195 719.129 614.195C717.54 614.195 716.336 613.574 715.516 612.33C714.695 611.087 714.285 609.264 714.285 606.861C714.285 604.342 714.682 602.486 715.477 601.295C716.277 600.097 717.495 599.498 719.129 599.498C720.724 599.498 721.932 600.123 722.752 601.373C723.572 602.623 723.982 604.452 723.982 606.861ZM716.609 606.861C716.609 608.808 716.808 610.198 717.205 611.031C717.609 611.865 718.25 612.281 719.129 612.281C720.008 612.281 720.649 611.858 721.053 611.012C721.463 610.165 721.668 608.782 721.668 606.861C721.668 604.947 721.463 603.564 721.053 602.711C720.649 601.852 720.008 601.422 719.129 601.422C718.25 601.422 717.609 601.842 717.205 602.682C716.808 603.521 716.609 604.915 716.609 606.861ZM735.408 614H725.73V612.262L729.412 608.561C730.499 607.447 731.219 606.66 731.57 606.197C731.928 605.729 732.189 605.289 732.352 604.879C732.514 604.469 732.596 604.029 732.596 603.561C732.596 602.916 732.4 602.408 732.01 602.037C731.626 601.666 731.092 601.48 730.408 601.48C729.861 601.48 729.331 601.581 728.816 601.783C728.309 601.985 727.719 602.35 727.049 602.877L725.809 601.363C726.603 600.693 727.374 600.217 728.123 599.938C728.872 599.658 729.669 599.518 730.516 599.518C731.844 599.518 732.908 599.866 733.709 600.562C734.51 601.253 734.91 602.184 734.91 603.355C734.91 604 734.793 604.612 734.559 605.191C734.331 605.771 733.976 606.37 733.494 606.988C733.019 607.6 732.225 608.43 731.111 609.479L728.631 611.881V611.979H735.408V614ZM746.297 603.004C746.297 603.909 746.033 604.664 745.506 605.27C744.979 605.868 744.236 606.272 743.279 606.48V606.559C744.425 606.702 745.285 607.06 745.857 607.633C746.43 608.199 746.717 608.954 746.717 609.898C746.717 611.272 746.232 612.333 745.262 613.082C744.292 613.824 742.911 614.195 741.121 614.195C739.539 614.195 738.204 613.938 737.117 613.424V611.383C737.723 611.682 738.364 611.913 739.041 612.076C739.718 612.239 740.369 612.32 740.994 612.32C742.101 612.32 742.928 612.115 743.475 611.705C744.021 611.295 744.295 610.66 744.295 609.801C744.295 609.039 743.992 608.479 743.387 608.121C742.781 607.763 741.831 607.584 740.535 607.584H739.295V605.719H740.555C742.833 605.719 743.973 604.931 743.973 603.355C743.973 602.743 743.774 602.271 743.377 601.939C742.98 601.607 742.394 601.441 741.619 601.441C741.079 601.441 740.558 601.52 740.057 601.676C739.555 601.826 738.963 602.122 738.279 602.564L737.156 600.963C738.465 599.999 739.985 599.518 741.717 599.518C743.156 599.518 744.279 599.827 745.086 600.445C745.893 601.064 746.297 601.917 746.297 603.004Z" fill="#111111"/>
</svg>
