<svg width="220" height="169" viewBox="0 0 220 169" fill="none" xmlns="http://www.w3.org/2000/svg">
<path d="M123.687 153.291C122.544 151.96 122.431 150.78 125.006 150.604C130.67 150.089 134.839 147.615 135.505 146.183C136.17 144.751 134.362 143.357 132.83 144.211C131.07 144.975 129.216 145.499 127.317 145.769C125.791 146.027 124.233 146.027 122.708 145.769C121.389 145.568 120.196 145.342 119.191 145.128C119.191 145.128 113.201 143.872 110.614 141.813L97.9297 155.363L103.882 162.082C104.774 163.336 105.971 164.34 107.36 165C108.75 165.659 110.285 165.952 111.819 165.85C116.918 165.347 123.788 161.693 123.788 161.693C124.717 160.261 132.93 165.335 135.58 167.231C138.23 169.127 140.177 168.65 140.076 166.829C140.013 165.573 132.051 159.57 129.389 157.75C127.33 156.464 125.418 154.956 123.687 153.254" fill="#FFBE9D"/>
<path d="M116.242 165.059C116.242 165.147 115.878 165.297 115.212 165.285C114.357 165.23 113.536 164.924 112.853 164.406C112.169 163.888 111.653 163.18 111.369 162.371C111.168 161.756 111.231 161.341 111.307 161.329C111.791 162.282 112.451 163.134 113.253 163.841C114.161 164.437 115.176 164.851 116.242 165.059Z" fill="#EB996E"/>
<path d="M121.264 163.087C121.264 163.162 120.9 163.301 120.272 163.263C119.456 163.183 118.679 162.872 118.032 162.367C117.385 161.863 116.894 161.185 116.618 160.412C116.429 159.822 116.467 159.433 116.542 159.42C116.618 159.407 117.07 160.814 118.439 161.856C119.311 162.411 120.264 162.827 121.264 163.087Z" fill="#EB996E"/>
<path d="M134.941 22.1047C135.468 33.2316 149.044 48.4776 159.141 50.9893C164.441 52.2452 170.544 51.6801 174.751 55.2467C181.973 61.3627 177.753 74.0844 182.613 82.2475C185.602 87.2709 191.542 89.7826 194.908 94.5422C200.496 102.504 196.741 114.535 189.118 120.463C181.495 126.391 171.323 127.521 161.766 127.27C140.73 126.73 119.193 120.049 103.997 105.142C96.851 98.134 68.9083 76.5208 78.6537 25.2695" fill="#263238"/>
<path d="M210.845 101.726L130.885 77.9906C127.158 76.3617 123.25 75.1853 119.243 74.4868L92.2422 74.6626C88.6768 74.6746 85.1513 75.4139 81.8815 76.8353L9.10492 101.01C3.71732 102.718 0 108.244 0 114.536C0 122.285 5.58854 128.576 12.4832 128.576H46.14L46.0018 129.066L162.896 129.506L207.517 129.594C214.411 129.594 220 123.252 220 115.415C219.95 109.035 216.232 103.447 210.845 101.726Z" fill="#FF725E"/>
<path d="M194.824 110.379C194.581 110.404 194.337 110.404 194.095 110.379L192.036 110.14C190.252 109.914 187.665 109.625 184.501 109.324C176.153 108.519 167.769 108.167 159.383 108.269C151.012 108.392 142.653 108.962 134.342 109.977C131.152 110.366 128.565 110.718 126.807 110.994L124.747 111.283C124.511 111.327 124.271 111.348 124.031 111.346C124.251 111.249 124.484 111.186 124.722 111.157L126.756 110.743C128.527 110.391 131.102 109.964 134.292 109.487C142.617 108.339 151.005 107.706 159.409 107.591C167.799 107.487 176.188 107.907 184.526 108.847C187.728 109.211 190.315 109.575 192.061 109.877L194.108 110.228C194.352 110.245 194.593 110.295 194.824 110.379Z" fill="#263238"/>
<g opacity="0.6">
<path opacity="0.6" d="M176.06 90.9508C175.999 91.0502 175.923 91.1392 175.834 91.2145L175.131 91.9555C174.503 92.596 173.574 93.5504 172.305 94.7058C170.775 96.1155 169.151 97.4203 167.445 98.6115C165.181 100.227 162.652 101.434 159.973 102.178C156.685 102.993 153.241 102.924 149.989 101.977C146.313 100.839 142.782 99.2798 139.465 97.3305C135.856 95.1746 132.04 93.3865 128.074 91.9932C123.809 90.5297 119.144 90.7681 115.051 92.6588C110.844 94.5551 107.265 97.4436 103.359 99.5283C102.392 100.068 101.362 100.483 100.37 100.935C99.3625 101.326 98.3356 101.666 97.2932 101.952C95.2857 102.525 93.2228 102.883 91.1395 103.02C83.8767 103.547 76.6535 101.56 70.6817 97.3933C68.4895 95.719 66.4242 93.8846 64.5029 91.9052C63.0468 90.4419 61.4434 89.1331 59.7181 87.9995C58.2279 87.0603 56.561 86.4363 54.8203 86.166C55.2803 86.1737 55.7385 86.2242 56.1892 86.3167C57.4845 86.5936 58.7241 87.086 59.8563 87.7735C61.6193 88.8885 63.2608 90.1849 64.7541 91.6415C66.6854 93.5803 68.7546 95.3767 70.9454 97.0166C76.852 101.062 83.9638 102.967 91.1018 102.417C93.1426 102.277 95.1631 101.924 97.1299 101.362C98.1476 101.076 99.1494 100.736 100.131 100.345C101.098 99.905 102.103 99.5032 103.045 98.9631C106.9 96.9161 110.467 94.0151 114.787 92.056C119.026 90.1115 123.85 89.8688 128.263 91.3778C132.266 92.7943 136.116 94.6119 139.754 96.8031C143.023 98.7418 146.503 100.301 150.127 101.45C153.29 102.4 156.648 102.496 159.86 101.726C162.498 101.017 164.996 99.8618 167.244 98.3101C168.954 97.163 170.586 95.9045 172.129 94.5425C173.385 93.4248 174.377 92.5081 175.043 91.9052L175.784 91.202C175.96 91.0136 176.048 90.9382 176.06 90.9508Z" fill="white"/>
</g>
<g opacity="0.2">
<path opacity="0.2" d="M51.8008 110.216L102.349 119.747L96.5091 129.254L94.9644 129.279L51.8008 110.216Z" fill="black"/>
</g>
<g opacity="0.6">
<path opacity="0.6" d="M204.801 100.231C204.829 100.486 204.829 100.743 204.801 100.997C204.773 101.738 204.698 102.476 204.575 103.208C203.77 107.801 201.333 111.949 197.712 114.889C194.092 117.829 189.532 119.362 184.871 119.207C182.313 119.047 179.784 118.584 177.336 117.826C174.824 117.11 172.375 116.319 169.977 115.842C167.686 115.331 165.326 115.208 162.994 115.477C159.668 115.876 156.472 117.009 153.638 118.795C150.804 120.58 148.401 122.973 146.605 125.8L145.952 126.893C145.793 127.211 145.655 127.487 145.538 127.722C145.435 127.962 145.304 128.19 145.148 128.4C145.217 128.151 145.306 127.907 145.412 127.672C145.525 127.42 145.638 127.132 145.776 126.805L146.392 125.675C147.753 123.291 149.571 121.2 151.742 119.521C154.976 116.977 158.846 115.37 162.931 114.875C165.328 114.589 167.756 114.704 170.115 115.214C172.564 115.691 175.013 116.469 177.537 117.198C179.948 117.945 182.44 118.404 184.959 118.567C188.122 118.671 191.261 117.99 194.097 116.586C196.932 115.181 199.376 113.096 201.21 110.517C202.747 108.315 203.824 105.824 204.374 103.195C204.739 101.299 204.726 100.219 204.801 100.231Z" fill="white"/>
</g>
<path d="M9.17188 126.956C9.17188 126.956 100.548 167.244 100.146 166.352C99.7439 165.461 114.651 139 114.651 139L40.6184 102.404L9.17188 126.956Z" fill="#FF725E"/>
<path d="M51.1602 107.629C51.8073 107.844 52.4371 108.109 53.0439 108.42L58.0673 110.793C62.3121 112.815 68.1142 115.654 74.5567 118.831C80.9992 122.008 86.7761 124.909 90.9581 127.044L95.8936 129.556C96.511 129.845 97.1033 130.185 97.6643 130.573C97.0142 130.371 96.3837 130.11 95.7806 129.794L90.7571 127.421C86.5249 125.399 80.7103 122.561 74.2678 119.383C67.8253 116.206 62.0484 113.305 57.8664 111.17L52.9309 108.658C52.3151 108.361 51.7231 108.017 51.1602 107.629Z" fill="#263238"/>
<g opacity="0.6">
<path opacity="0.6" d="M71.1852 119.861C71.0675 120.809 70.7782 121.728 70.3312 122.573C69.1184 124.907 67.2151 126.811 64.8808 128.024C63.3126 128.888 61.6171 129.499 59.8574 129.832C57.8099 130.147 55.7261 130.147 53.6786 129.832C49.0355 129.028 44.5423 127.521 40.354 125.361C36.1831 123.249 31.812 121.558 27.3057 120.313C25.352 119.821 23.3422 119.589 21.3279 119.622C19.5703 119.669 17.8284 119.965 16.1538 120.501C13.7034 121.227 11.4976 122.608 9.77407 124.495C9.1861 125.219 8.63694 125.973 8.12891 126.755C8.47297 125.87 8.96565 125.05 9.5857 124.331C11.2798 122.326 13.5102 120.845 16.0156 120.061C17.7219 119.483 19.5025 119.153 21.3028 119.082C23.3699 119.022 25.4356 119.242 27.4439 119.735C31.9758 120.973 36.3658 122.682 40.5424 124.834C44.6777 126.961 49.104 128.468 53.6786 129.305C55.6677 129.613 57.6925 129.613 59.6816 129.305C61.4088 129.006 63.0785 128.438 64.6296 127.622C66.912 126.482 68.8046 124.69 70.0675 122.473C70.4987 121.628 70.8722 120.756 71.1852 119.861Z" fill="white"/>
</g>
<g opacity="0.6">
<path opacity="0.6" d="M109.972 147.501C109.972 147.615 107.95 147.288 104.684 147.225C102.775 147.207 100.867 147.307 98.9703 147.527C96.6503 147.81 94.3543 148.263 92.1008 148.883C89.8597 149.536 87.6688 150.35 85.5453 151.319C83.8161 152.132 82.1385 153.051 80.5219 154.07C77.7716 155.828 76.2394 157.172 76.1641 157.071C76.4593 156.695 76.8011 156.357 77.1813 156.066C78.159 155.21 79.1909 154.417 80.2707 153.693C81.8688 152.596 83.5481 151.622 85.2941 150.779C89.5648 148.713 94.1632 147.409 98.8824 146.924C100.81 146.729 102.749 146.679 104.684 146.773C105.986 146.817 107.282 146.952 108.565 147.175C109.046 147.22 109.52 147.329 109.972 147.501Z" fill="white"/>
</g>
<g opacity="0.2">
<path opacity="0.2" d="M121.239 74.3108C119.732 78.5305 121.992 83.1018 124.202 86.9949C125.61 89.7902 127.393 92.3802 129.502 94.6933C130.559 95.8503 131.839 96.7807 133.266 97.4283C134.693 98.0759 136.237 98.4272 137.803 98.4608C141.91 98.3227 145.577 95.2961 149.684 95.5347C152.472 95.6979 154.908 97.3431 157.219 98.9004C161.138 101.745 165.389 104.102 169.878 105.921C174.407 107.733 179.399 108.045 184.119 106.812C186.459 106.164 188.594 104.927 190.32 103.219C192.046 101.51 193.305 99.3878 193.977 97.0543" fill="black"/>
</g>
<path d="M121.58 73.1556C121.794 68.2326 122.057 63.7869 122.057 63.7869C122.057 63.7869 133.059 62.3929 133.523 51.2284C133.988 40.0639 132.883 14.1682 132.883 14.1682L112.701 4.39771L90.9375 21.9796L94.3408 73.4695C94.5802 77.0399 96.2093 80.3743 98.8787 82.7573C101.548 85.1403 105.045 86.3821 108.62 86.2164C112.02 86.0472 115.234 84.6139 117.631 82.1976C120.029 79.7814 121.437 76.5565 121.58 73.1556Z" fill="#FFBE9D"/>
<path d="M130.983 34.4C130.981 34.674 130.897 34.9413 130.744 35.1683C130.59 35.3953 130.373 35.572 130.12 35.6763C129.866 35.7806 129.588 35.8079 129.319 35.7547C129.05 35.7015 128.803 35.5702 128.608 35.3772C128.413 35.1843 128.28 34.9382 128.224 34.6698C128.169 34.4014 128.193 34.1226 128.296 33.8682C128.398 33.6138 128.572 33.3952 128.798 33.2396C129.024 33.084 129.29 32.9984 129.564 32.9934C129.938 32.9934 130.297 33.1412 130.563 33.4046C130.829 33.668 130.98 34.0258 130.983 34.4Z" fill="#263238"/>
<path d="M132.343 31.411C132.167 31.5994 131.087 30.7077 129.618 30.6575C128.148 30.6073 126.993 31.3608 126.83 31.1598C126.666 30.9589 126.93 30.7203 127.42 30.3686C128.071 29.907 128.858 29.677 129.655 29.7156C130.45 29.7595 131.211 30.054 131.828 30.557C132.28 30.9589 132.431 31.3231 132.343 31.411Z" fill="#263238"/>
<path d="M114.313 34.4C114.313 34.6771 114.231 34.948 114.078 35.1788C113.924 35.4095 113.706 35.5898 113.45 35.6969C113.195 35.8041 112.913 35.8334 112.641 35.7811C112.369 35.7288 112.118 35.5973 111.921 35.4031C111.723 35.2089 111.587 34.9607 111.53 34.6895C111.473 34.4183 111.497 34.1363 111.6 33.8789C111.703 33.6215 111.879 33.4002 112.107 33.2426C112.335 33.0851 112.604 32.9984 112.881 32.9935C113.068 32.9918 113.253 33.0269 113.425 33.0967C113.598 33.1664 113.756 33.2696 113.889 33.4002C114.022 33.5308 114.127 33.6863 114.2 33.8579C114.273 34.0294 114.311 34.2136 114.313 34.4Z" fill="#263238"/>
<path d="M115.666 31.6997C115.49 31.8881 114.41 30.9964 112.928 30.9462C111.446 30.8959 110.304 31.6494 110.153 31.4485C110.002 31.2476 110.253 31.009 110.743 30.6573C111.39 30.1975 112.173 29.9676 112.966 30.0043C113.765 30.04 114.529 30.3405 115.139 30.8583C115.603 31.2476 115.754 31.6118 115.666 31.6997Z" fill="#263238"/>
<path d="M121.318 44.6479C122.135 44.4139 122.979 44.2873 123.829 44.2711C124.206 44.2711 124.583 44.1832 124.646 43.9069C124.692 43.4739 124.609 43.037 124.407 42.651C124.068 41.6338 123.704 40.5789 123.314 39.4612C122.304 36.753 121.494 33.9743 120.891 31.1475C122.107 33.7666 123.123 36.4745 123.93 39.2477C124.294 40.3654 124.646 41.4329 124.972 42.4501C125.209 42.9556 125.271 43.5256 125.148 44.0702C125.093 44.2095 125.007 44.3341 124.896 44.4344C124.785 44.5346 124.652 44.6077 124.507 44.6479C124.294 44.7005 124.074 44.7258 123.854 44.7232C123.009 44.8125 122.156 44.7872 121.318 44.6479Z" fill="#263238"/>
<path d="M116.367 46.1924C114.835 45.1877 120.624 48.7041 123.688 48.6413C123.165 49.4293 122.386 50.013 121.482 50.2944C120.579 50.5757 119.606 50.5374 118.728 50.186C115.488 48.8422 116.367 46.1924 116.367 46.1924Z" fill="white"/>
<path d="M122.055 63.7871C116.843 63.6434 111.785 61.9852 107.5 59.0149C107.5 59.0149 110.928 67.1905 121.867 66.55L122.055 63.7871Z" fill="#EB996E"/>
<path d="M79.0712 32.9933C79.0712 42.701 76.4967 68.3832 94.1415 71.9247L93.5512 36.6353C93.5512 36.6353 110.694 28.5476 113.645 11.7066L113.745 11.8071C114.838 14.3188 116.797 19.8069 115.604 24.2526L131.666 28.2085L133.512 29.8914C133.512 29.8914 139.227 17.3328 128.2 6.03019C117.174 -5.27248 107.742 2.90312 101.827 2.26263C97.8964 1.78541 84.2453 1.87332 78.707 25.3577L79.0712 32.9933Z" fill="#263238"/>
<path d="M93.991 36.9743C92.4965 36.045 90.4494 36.811 89.2689 38.1046C88.3218 39.1316 87.7342 40.4388 87.5947 41.829C87.4552 43.2191 87.7714 44.617 88.4957 45.8117C89.2199 47.0065 90.3129 47.9335 91.6099 48.4529C92.9069 48.9723 94.3376 49.056 95.6864 48.6914" fill="#FFBE9D"/>
<path d="M93.6484 45.3381C93.6484 45.4134 93.1461 45.5013 92.3926 45.3381C91.8625 45.2047 91.3723 44.9457 90.9636 44.5828C90.5548 44.2199 90.2394 43.7639 90.0441 43.2534C89.8371 42.6546 89.864 41.9996 90.1195 41.4198C90.327 40.9655 90.6577 40.5783 91.0739 40.3021C91.7772 39.85 92.3298 39.8877 92.3298 39.963C92.3298 40.0384 91.8903 40.2017 91.3628 40.6789C91.0247 40.958 90.779 41.333 90.658 41.7543C90.537 42.1757 90.5463 42.6239 90.6846 43.0399C90.8542 43.4624 91.109 43.8455 91.4331 44.1653C91.7572 44.4851 92.1436 44.7347 92.5684 44.8985C93.1838 45.1497 93.6484 45.2376 93.6484 45.3381Z" fill="#EB996E"/>
<path d="M92.1789 47.5483C91.8732 47.6091 91.6009 47.7815 91.4152 48.0319C91.2294 48.2823 91.1435 48.5928 91.174 48.9031C91.2046 49.2134 91.3494 49.5012 91.5804 49.7106C91.8114 49.92 92.1121 50.0359 92.4238 50.0359C92.7356 50.0359 93.0362 49.92 93.2672 49.7106C93.4982 49.5012 93.6431 49.2134 93.6736 48.9031C93.7042 48.5928 93.6182 48.2823 93.4325 48.0319C93.2468 47.7815 92.9745 47.6091 92.6687 47.5483" fill="#FF725E"/>
<path d="M124.705 129.568V111.12C124.705 111.12 97.3148 116.796 96.8125 129.342L124.705 129.568Z" fill="#FFBE9D"/>
<path d="M121.855 71.2089C122.316 76.8908 124.871 82.1989 129.025 86.1024C133.179 90.006 138.636 92.2264 144.335 92.3324C148.379 92.3952 152.636 91.4407 156.329 93.0859C159.544 94.5301 161.616 97.6321 164.14 100.081C167.152 102.922 170.87 104.902 174.908 105.817C178.946 106.731 183.155 106.546 187.097 105.28C190.425 104.162 195.687 101.776 196.302 98.3353C196.78 95.7106 193.565 93.0984 191.681 91.2272C189.691 89.4446 187.41 88.0173 184.937 87.0076C165.421 77.8398 144.486 71.1838 122.961 70.041" fill="#263238"/>
</svg>
