<svg width="428" height="435" viewBox="0 0 428 435" fill="none" xmlns="http://www.w3.org/2000/svg">
<path d="M427.89 282.2H264V187.36H427.89V282.2ZM265 281.2H426.89V188.36H265V281.2Z" fill="#E0E0E0"/>
<path d="M394.079 237.93H285.949V241.1H394.079V237.93Z" fill="#F0F0F0"/>
<path d="M401.529 249.75H285.949V253.21H401.529V249.75Z" fill="#F0F0F0"/>
<path d="M401.529 261.71H285.949V265.17H401.529V261.71Z" fill="#F0F0F0"/>
<path d="M323.739 220.76H285.949V228.99H323.739V220.76Z" fill="#F0F0F0"/>
<path d="M427.391 187.86H264.531V202.96H427.391V187.86Z" fill="#E0E0E0"/>
<path d="M414.858 200.7C414.648 200.5 416.748 197.97 419.538 195.05C422.328 192.13 424.778 189.92 424.978 190.11C425.178 190.3 423.088 192.84 420.298 195.77C417.508 198.7 415.058 200.9 414.858 200.7Z" fill="white"/>
<path d="M424.998 200.7C424.798 200.9 422.358 198.7 419.558 195.77C416.758 192.84 414.668 190.31 414.878 190.11C415.088 189.91 417.518 192.11 420.318 195.05C423.118 197.99 425.188 200.5 424.998 200.7Z" fill="white"/>
<path d="M226.219 0.0500488H63.3594V93.9001H226.219V0.0500488Z" fill="#E6E6E6"/>
<path d="M192.919 50.1301H84.7891V53.3001H192.919V50.1301Z" fill="#F0F0F0"/>
<path d="M200.369 61.95H84.7891V65.41H200.369V61.95Z" fill="#F0F0F0"/>
<path d="M200.369 73.9102H84.7891V77.3702H200.369V73.9102Z" fill="#F0F0F0"/>
<path d="M122.579 32.96H84.7891V41.19H122.579V32.96Z" fill="#F0F0F0"/>
<path d="M226.219 0.0500488H63.3594V15.1501H226.219V0.0500488Z" fill="#E0E0E0"/>
<path d="M213.139 12.8201C212.929 12.6301 215.029 10.0901 217.819 7.17011C220.609 4.25011 223.059 2.04011 223.259 2.24011C223.459 2.44011 221.369 4.97011 218.579 7.89011C215.789 10.8101 213.339 13.0001 213.139 12.8201Z" fill="white"/>
<path d="M223.26 12.8202C223.06 13.0202 220.62 10.8202 217.82 7.89016C215.02 4.96016 212.93 2.44016 213.14 2.24016C213.35 2.04016 215.78 4.24016 218.58 7.17016C221.38 10.1002 223.47 12.6302 223.26 12.8202Z" fill="white"/>
<path d="M164.54 174.39H0.679688V79.54H164.54V174.39ZM1.67969 173.39H163.54V80.54H1.67969V173.39Z" fill="#E0E0E0"/>
<path d="M130.739 130.12H22.6094V133.29H130.739V130.12Z" fill="#F0F0F0"/>
<path d="M138.189 141.94H22.6094V145.4H138.189V141.94Z" fill="#F0F0F0"/>
<path d="M138.189 153.9H22.6094V157.36H138.189V153.9Z" fill="#F0F0F0"/>
<path d="M60.3994 112.95H22.6094V121.18H60.3994V112.95Z" fill="#F0F0F0"/>
<path d="M164.04 80.04H1.17969V95.14H164.04V80.04Z" fill="#E0E0E0"/>
<path d="M353.652 196.12H161.352V368.28H353.652V196.12Z" fill="#E6E6E6"/>
<path d="M171.019 141.89H20.3789V298.4H171.019V141.89Z" fill="#F0F0F0"/>
<path d="M171.019 141.89H20.3789V158.94H171.019V141.89Z" fill="#E0E0E0"/>
<path d="M32.8208 150.24C32.7934 150.858 32.585 151.455 32.2215 151.956C31.8581 152.457 31.3555 152.84 30.7762 153.058C30.1969 153.276 29.5664 153.318 28.963 153.181C28.3595 153.044 27.8096 152.732 27.3816 152.285C26.9535 151.838 26.6662 151.276 26.5552 150.667C26.4441 150.058 26.5144 149.43 26.7571 148.861C26.9999 148.291 27.4044 147.806 27.9206 147.464C28.4368 147.123 29.0419 146.941 29.6608 146.94C30.5167 146.961 31.3294 147.32 31.9215 147.938C32.5136 148.556 32.8369 149.384 32.8208 150.24V150.24Z" fill="white"/>
<path d="M45.6498 150.24C45.6243 150.861 45.4167 151.461 45.0528 151.965C44.6889 152.469 44.1848 152.855 43.6032 153.075C43.0216 153.295 42.3882 153.339 41.7819 153.202C41.1755 153.064 40.6229 152.751 40.1929 152.302C39.7629 151.853 39.4745 151.288 39.3634 150.676C39.2524 150.064 39.3238 149.433 39.5686 148.862C39.8134 148.29 40.2208 147.803 40.7402 147.462C41.2597 147.12 41.8681 146.939 42.4898 146.94C43.3457 146.961 44.1584 147.32 44.7505 147.938C45.3426 148.556 45.6659 149.384 45.6498 150.24V150.24Z" fill="white"/>
<path d="M58.478 150.24C58.4525 150.861 58.2448 151.461 57.8809 151.965C57.517 152.469 57.0129 152.855 56.4313 153.075C55.8498 153.295 55.2164 153.339 54.61 153.202C54.0036 153.064 53.4511 152.751 53.0211 152.302C52.5911 151.853 52.3026 151.288 52.1916 150.676C52.0806 150.064 52.1519 149.433 52.3967 148.862C52.6415 148.29 53.0489 147.803 53.5684 147.462C54.0878 147.12 54.6962 146.939 55.318 146.94C56.1738 146.961 56.9866 147.32 57.5787 147.938C58.1708 148.556 58.4941 149.384 58.478 150.24V150.24Z" fill="white"/>
<path d="M406.378 34.28H214.078V225.94H406.378V34.28Z" fill="#F0F0F0"/>
<path d="M406.378 34.28H214.078V56.73H406.378V34.28Z" fill="#E0E0E0"/>
<path d="M230.461 45.2799C230.426 46.0961 230.152 46.8839 229.673 47.5456C229.193 48.2072 228.531 48.7136 227.766 49.0018C227.002 49.29 226.17 49.3473 225.373 49.1667C224.576 48.986 223.85 48.5753 223.285 47.9856C222.719 47.3959 222.34 46.6531 222.193 45.8495C222.046 45.0459 222.139 44.2169 222.459 43.4653C222.779 42.7138 223.313 42.0729 223.994 41.6221C224.676 41.1714 225.474 40.9307 226.291 40.9299C227.42 40.9562 228.493 41.4286 229.274 42.2439C230.056 43.0591 230.483 44.1508 230.461 45.2799V45.2799Z" fill="white"/>
<path d="M246.128 42.3403C246.683 42.9423 247.048 43.6942 247.178 44.5022C247.308 45.3102 247.197 46.1386 246.86 46.8842C246.522 47.6298 245.973 48.2597 245.28 48.6953C244.587 49.1309 243.782 49.353 242.963 49.3339C242.145 49.3148 241.351 49.0554 240.679 48.5879C240.007 48.1205 239.488 47.4657 239.185 46.7052C238.883 45.9446 238.811 45.1119 238.979 44.3109C239.147 43.5098 239.546 42.7758 240.128 42.2003C240.943 41.4247 242.032 41.004 243.157 41.0302C244.282 41.0565 245.35 41.5276 246.128 42.3403V42.3403Z" fill="white"/>
<path d="M264.238 45.2799C264.203 46.0961 263.929 46.8839 263.45 47.5456C262.971 48.2072 262.308 48.7136 261.543 49.0018C260.779 49.29 259.947 49.3473 259.15 49.1667C258.353 48.986 257.627 48.5753 257.062 47.9856C256.497 47.3959 256.117 46.6531 255.97 45.8495C255.823 45.0459 255.916 44.2169 256.236 43.4653C256.556 42.7138 257.09 42.0729 257.772 41.6221C258.453 41.1714 259.252 40.9307 260.068 40.9299C261.198 40.9562 262.27 41.4286 263.052 42.2439C263.833 43.0591 264.26 44.1508 264.238 45.2799V45.2799Z" fill="white"/>
<path d="M364.842 419.13C364.842 419.27 295.402 419.39 209.772 419.39C124.142 419.39 54.6719 419.27 54.6719 419.13C54.6719 418.99 124.102 418.87 209.772 418.87C295.442 418.87 364.842 419 364.842 419.13Z" fill="#263238"/>
<path d="M189.155 432V422.047H191.965C192.831 422.047 193.596 422.238 194.262 422.621C194.927 423.004 195.44 423.549 195.8 424.255C196.164 424.961 196.349 425.772 196.354 426.688V427.324C196.354 428.263 196.171 429.086 195.807 429.792C195.447 430.498 194.929 431.041 194.255 431.419C193.585 431.797 192.803 431.991 191.91 432H189.155ZM190.468 423.127V430.927H191.849C192.86 430.927 193.646 430.612 194.207 429.983C194.772 429.354 195.055 428.459 195.055 427.297V426.716C195.055 425.586 194.788 424.708 194.255 424.084C193.726 423.455 192.974 423.136 191.999 423.127H190.468ZM201.214 432.137C200.211 432.137 199.396 431.809 198.767 431.152C198.138 430.492 197.823 429.61 197.823 428.507V428.274C197.823 427.541 197.962 426.887 198.24 426.312C198.523 425.734 198.915 425.283 199.416 424.959C199.922 424.631 200.469 424.467 201.057 424.467C202.018 424.467 202.766 424.784 203.299 425.417C203.832 426.05 204.099 426.957 204.099 428.138V428.664H199.088C199.106 429.393 199.318 429.983 199.724 430.435C200.134 430.881 200.653 431.104 201.282 431.104C201.729 431.104 202.107 431.013 202.417 430.831C202.727 430.649 202.998 430.407 203.23 430.106L204.003 430.708C203.383 431.66 202.453 432.137 201.214 432.137ZM201.057 425.506C200.546 425.506 200.118 425.693 199.771 426.066C199.425 426.436 199.211 426.955 199.129 427.625H202.834V427.529C202.798 426.887 202.624 426.39 202.314 426.039C202.005 425.684 201.585 425.506 201.057 425.506ZM209.875 430.038C209.875 429.696 209.745 429.432 209.485 429.245C209.23 429.054 208.781 428.89 208.139 428.753C207.501 428.616 206.993 428.452 206.614 428.261C206.241 428.069 205.963 427.841 205.78 427.577C205.603 427.313 205.514 426.998 205.514 426.634C205.514 426.028 205.769 425.515 206.279 425.096C206.794 424.676 207.451 424.467 208.248 424.467C209.087 424.467 209.766 424.683 210.285 425.116C210.809 425.549 211.071 426.103 211.071 426.777H209.8C209.8 426.431 209.652 426.132 209.355 425.882C209.064 425.631 208.695 425.506 208.248 425.506C207.788 425.506 207.428 425.606 207.168 425.807C206.908 426.007 206.778 426.269 206.778 426.593C206.778 426.898 206.899 427.128 207.141 427.283C207.382 427.438 207.817 427.586 208.446 427.728C209.08 427.869 209.592 428.037 209.984 428.233C210.376 428.429 210.666 428.666 210.853 428.944C211.044 429.218 211.14 429.553 211.14 429.949C211.14 430.61 210.875 431.141 210.347 431.542C209.818 431.938 209.132 432.137 208.289 432.137C207.697 432.137 207.173 432.032 206.717 431.822C206.261 431.613 205.903 431.321 205.644 430.947C205.388 430.569 205.261 430.161 205.261 429.724H206.525C206.548 430.147 206.717 430.485 207.031 430.735C207.35 430.981 207.77 431.104 208.289 431.104C208.768 431.104 209.15 431.009 209.438 430.817C209.729 430.621 209.875 430.362 209.875 430.038ZM214.161 432H212.896V424.604H214.161V432ZM212.794 422.642C212.794 422.437 212.855 422.263 212.979 422.122C213.106 421.981 213.293 421.91 213.539 421.91C213.785 421.91 213.972 421.981 214.1 422.122C214.227 422.263 214.291 422.437 214.291 422.642C214.291 422.847 214.227 423.018 214.1 423.154C213.972 423.291 213.785 423.359 213.539 423.359C213.293 423.359 213.106 423.291 212.979 423.154C212.855 423.018 212.794 422.847 212.794 422.642ZM215.891 428.24C215.891 427.087 216.157 426.171 216.69 425.492C217.224 424.809 217.93 424.467 218.81 424.467C219.712 424.467 220.416 424.786 220.922 425.424L220.983 424.604H222.139V431.822C222.139 432.779 221.854 433.534 221.284 434.085C220.719 434.636 219.958 434.912 219.001 434.912C218.468 434.912 217.946 434.798 217.436 434.57C216.925 434.342 216.535 434.03 216.267 433.634L216.923 432.875C217.465 433.545 218.128 433.88 218.912 433.88C219.527 433.88 220.006 433.707 220.348 433.36C220.694 433.014 220.867 432.526 220.867 431.897V431.262C220.361 431.845 219.671 432.137 218.796 432.137C217.93 432.137 217.228 431.788 216.69 431.091C216.157 430.394 215.891 429.443 215.891 428.24ZM217.162 428.384C217.162 429.218 217.333 429.874 217.675 430.353C218.017 430.826 218.495 431.063 219.11 431.063C219.908 431.063 220.493 430.701 220.867 429.977V426.6C220.48 425.893 219.899 425.54 219.124 425.54C218.509 425.54 218.028 425.779 217.682 426.258C217.335 426.736 217.162 427.445 217.162 428.384ZM225.249 424.604L225.29 425.533C225.855 424.822 226.593 424.467 227.505 424.467C229.068 424.467 229.856 425.349 229.87 427.112V432H228.605V427.105C228.601 426.572 228.478 426.178 228.236 425.923C227.999 425.668 227.628 425.54 227.122 425.54C226.712 425.54 226.352 425.649 226.042 425.868C225.732 426.087 225.491 426.374 225.317 426.729V432H224.053V424.604H225.249ZM234.847 432.137C233.844 432.137 233.028 431.809 232.399 431.152C231.771 430.492 231.456 429.61 231.456 428.507V428.274C231.456 427.541 231.595 426.887 231.873 426.312C232.156 425.734 232.548 425.283 233.049 424.959C233.555 424.631 234.102 424.467 234.689 424.467C235.651 424.467 236.398 424.784 236.932 425.417C237.465 426.05 237.731 426.957 237.731 428.138V428.664H232.721C232.739 429.393 232.951 429.983 233.356 430.435C233.767 430.881 234.286 431.104 234.915 431.104C235.362 431.104 235.74 431.013 236.05 430.831C236.36 430.649 236.631 430.407 236.863 430.106L237.636 430.708C237.016 431.66 236.086 432.137 234.847 432.137ZM234.689 425.506C234.179 425.506 233.751 425.693 233.404 426.066C233.058 426.436 232.844 426.955 232.762 427.625H236.467V427.529C236.43 426.887 236.257 426.39 235.947 426.039C235.637 425.684 235.218 425.506 234.689 425.506ZM238.894 428.24C238.894 427.105 239.162 426.194 239.7 425.506C240.238 424.813 240.942 424.467 241.812 424.467C242.678 424.467 243.364 424.763 243.87 425.355V421.5H245.135V432H243.973L243.911 431.207C243.405 431.827 242.701 432.137 241.799 432.137C240.942 432.137 240.243 431.786 239.7 431.084C239.162 430.382 238.894 429.466 238.894 428.336V428.24ZM240.158 428.384C240.158 429.222 240.331 429.879 240.678 430.353C241.024 430.826 241.503 431.063 242.113 431.063C242.915 431.063 243.501 430.703 243.87 429.983V426.586C243.492 425.889 242.911 425.54 242.127 425.54C241.507 425.54 241.024 425.779 240.678 426.258C240.331 426.736 240.158 427.445 240.158 428.384ZM256.838 428.384C256.838 429.514 256.578 430.423 256.059 431.111C255.539 431.795 254.842 432.137 253.967 432.137C253.033 432.137 252.31 431.806 251.8 431.146L251.738 432H250.576V421.5H251.841V425.417C252.351 424.784 253.055 424.467 253.953 424.467C254.851 424.467 255.555 424.806 256.065 425.485C256.58 426.164 256.838 427.094 256.838 428.274V428.384ZM255.573 428.24C255.573 427.379 255.407 426.714 255.074 426.244C254.742 425.775 254.263 425.54 253.639 425.54C252.805 425.54 252.205 425.927 251.841 426.702V429.901C252.228 430.676 252.832 431.063 253.652 431.063C254.258 431.063 254.73 430.829 255.067 430.359C255.405 429.89 255.573 429.184 255.573 428.24ZM260.775 430.147L262.498 424.604H263.852L260.878 433.142C260.418 434.372 259.686 434.987 258.684 434.987L258.444 434.967L257.973 434.878V433.853L258.314 433.88C258.743 433.88 259.076 433.793 259.312 433.62C259.554 433.447 259.752 433.13 259.907 432.67L260.188 431.918L257.549 424.604H258.93L260.775 430.147ZM272.766 430.038C272.766 429.696 272.636 429.432 272.376 429.245C272.121 429.054 271.672 428.89 271.029 428.753C270.391 428.616 269.883 428.452 269.505 428.261C269.131 428.069 268.853 427.841 268.671 427.577C268.493 427.313 268.404 426.998 268.404 426.634C268.404 426.028 268.66 425.515 269.17 425.096C269.685 424.676 270.341 424.467 271.139 424.467C271.977 424.467 272.656 424.683 273.176 425.116C273.7 425.549 273.962 426.103 273.962 426.777H272.69C272.69 426.431 272.542 426.132 272.246 425.882C271.954 425.631 271.585 425.506 271.139 425.506C270.678 425.506 270.318 425.606 270.059 425.807C269.799 426.007 269.669 426.269 269.669 426.593C269.669 426.898 269.79 427.128 270.031 427.283C270.273 427.438 270.708 427.586 271.337 427.728C271.97 427.869 272.483 428.037 272.875 428.233C273.267 428.429 273.556 428.666 273.743 428.944C273.935 429.218 274.03 429.553 274.03 429.949C274.03 430.61 273.766 431.141 273.237 431.542C272.709 431.938 272.023 432.137 271.18 432.137C270.587 432.137 270.063 432.032 269.607 431.822C269.152 431.613 268.794 431.321 268.534 430.947C268.279 430.569 268.151 430.161 268.151 429.724H269.416C269.439 430.147 269.607 430.485 269.922 430.735C270.241 430.981 270.66 431.104 271.18 431.104C271.658 431.104 272.041 431.009 272.328 430.817C272.62 430.621 272.766 430.362 272.766 430.038ZM277.394 422.812V424.604H278.774V425.581H277.394V430.168C277.394 430.464 277.455 430.688 277.578 430.838C277.701 430.984 277.911 431.057 278.207 431.057C278.353 431.057 278.553 431.029 278.809 430.975V432C278.476 432.091 278.152 432.137 277.838 432.137C277.273 432.137 276.847 431.966 276.56 431.624C276.272 431.282 276.129 430.797 276.129 430.168V425.581H274.782V424.604H276.129V422.812H277.394ZM279.786 428.233C279.786 427.509 279.927 426.857 280.21 426.278C280.497 425.7 280.894 425.253 281.399 424.938C281.91 424.624 282.491 424.467 283.143 424.467C284.15 424.467 284.963 424.815 285.583 425.513C286.207 426.21 286.52 427.137 286.52 428.295V428.384C286.52 429.104 286.381 429.751 286.103 430.325C285.829 430.895 285.435 431.339 284.92 431.658C284.41 431.977 283.822 432.137 283.156 432.137C282.154 432.137 281.34 431.788 280.716 431.091C280.096 430.394 279.786 429.471 279.786 428.322V428.233ZM281.058 428.384C281.058 429.204 281.247 429.863 281.625 430.359C282.008 430.856 282.518 431.104 283.156 431.104C283.799 431.104 284.309 430.854 284.688 430.353C285.066 429.847 285.255 429.14 285.255 428.233C285.255 427.422 285.061 426.766 284.674 426.265C284.291 425.759 283.781 425.506 283.143 425.506C282.518 425.506 282.015 425.754 281.632 426.251C281.249 426.748 281.058 427.459 281.058 428.384ZM291.681 425.738C291.489 425.706 291.282 425.69 291.059 425.69C290.229 425.69 289.666 426.044 289.37 426.75V432H288.105V424.604H289.336L289.356 425.458C289.771 424.797 290.359 424.467 291.12 424.467C291.366 424.467 291.553 424.499 291.681 424.562V425.738ZM294.224 432H292.959V424.604H294.224V432ZM292.856 422.642C292.856 422.437 292.918 422.263 293.041 422.122C293.169 421.981 293.355 421.91 293.602 421.91C293.848 421.91 294.035 421.981 294.162 422.122C294.29 422.263 294.354 422.437 294.354 422.642C294.354 422.847 294.29 423.018 294.162 423.154C294.035 423.291 293.848 423.359 293.602 423.359C293.355 423.359 293.169 423.291 293.041 423.154C292.918 423.018 292.856 422.847 292.856 422.642ZM299.323 432.137C298.321 432.137 297.505 431.809 296.876 431.152C296.247 430.492 295.933 429.61 295.933 428.507V428.274C295.933 427.541 296.072 426.887 296.35 426.312C296.632 425.734 297.024 425.283 297.525 424.959C298.031 424.631 298.578 424.467 299.166 424.467C300.128 424.467 300.875 424.784 301.408 425.417C301.941 426.05 302.208 426.957 302.208 428.138V428.664H297.197C297.215 429.393 297.427 429.983 297.833 430.435C298.243 430.881 298.763 431.104 299.392 431.104C299.838 431.104 300.216 431.013 300.526 430.831C300.836 430.649 301.107 430.407 301.34 430.106L302.112 430.708C301.493 431.66 300.563 432.137 299.323 432.137ZM299.166 425.506C298.656 425.506 298.227 425.693 297.881 426.066C297.535 426.436 297.32 426.955 297.238 427.625H300.943V427.529C300.907 426.887 300.734 426.39 300.424 426.039C300.114 425.684 299.695 425.506 299.166 425.506ZM307.984 430.038C307.984 429.696 307.854 429.432 307.595 429.245C307.34 429.054 306.891 428.89 306.248 428.753C305.61 428.616 305.102 428.452 304.724 428.261C304.35 428.069 304.072 427.841 303.89 427.577C303.712 427.313 303.623 426.998 303.623 426.634C303.623 426.028 303.878 425.515 304.389 425.096C304.904 424.676 305.56 424.467 306.357 424.467C307.196 424.467 307.875 424.683 308.395 425.116C308.919 425.549 309.181 426.103 309.181 426.777H307.909C307.909 426.431 307.761 426.132 307.465 425.882C307.173 425.631 306.804 425.506 306.357 425.506C305.897 425.506 305.537 425.606 305.277 425.807C305.018 426.007 304.888 426.269 304.888 426.593C304.888 426.898 305.008 427.128 305.25 427.283C305.492 427.438 305.927 427.586 306.556 427.728C307.189 427.869 307.702 428.037 308.094 428.233C308.486 428.429 308.775 428.666 308.962 428.944C309.153 429.218 309.249 429.553 309.249 429.949C309.249 430.61 308.985 431.141 308.456 431.542C307.927 431.938 307.242 432.137 306.398 432.137C305.806 432.137 305.282 432.032 304.826 431.822C304.37 431.613 304.013 431.321 303.753 430.947C303.498 430.569 303.37 430.161 303.37 429.724H304.635C304.658 430.147 304.826 430.485 305.141 430.735C305.46 430.981 305.879 431.104 306.398 431.104C306.877 431.104 307.26 431.009 307.547 430.817C307.839 430.621 307.984 430.362 307.984 430.038ZM314.622 432.854H313.535L317.691 422.047H318.771L314.622 432.854ZM329.299 427.604H325.122V432H323.81V422.047H329.976V423.127H325.122V426.531H329.299V427.604ZM334.747 425.738C334.556 425.706 334.348 425.69 334.125 425.69C333.296 425.69 332.733 426.044 332.437 426.75V432H331.172V424.604H332.402L332.423 425.458C332.838 424.797 333.425 424.467 334.187 424.467C334.433 424.467 334.619 424.499 334.747 424.562V425.738ZM338.849 432.137C337.846 432.137 337.03 431.809 336.401 431.152C335.772 430.492 335.458 429.61 335.458 428.507V428.274C335.458 427.541 335.597 426.887 335.875 426.312C336.158 425.734 336.549 425.283 337.051 424.959C337.557 424.631 338.104 424.467 338.691 424.467C339.653 424.467 340.4 424.784 340.934 425.417C341.467 426.05 341.733 426.957 341.733 428.138V428.664H336.723C336.741 429.393 336.953 429.983 337.358 430.435C337.769 430.881 338.288 431.104 338.917 431.104C339.364 431.104 339.742 431.013 340.052 430.831C340.362 430.649 340.633 430.407 340.865 430.106L341.638 430.708C341.018 431.66 340.088 432.137 338.849 432.137ZM338.691 425.506C338.181 425.506 337.753 425.693 337.406 426.066C337.06 426.436 336.846 426.955 336.764 427.625H340.469V427.529C340.432 426.887 340.259 426.39 339.949 426.039C339.639 425.684 339.22 425.506 338.691 425.506ZM346.272 432.137C345.27 432.137 344.454 431.809 343.825 431.152C343.196 430.492 342.882 429.61 342.882 428.507V428.274C342.882 427.541 343.021 426.887 343.299 426.312C343.581 425.734 343.973 425.283 344.475 424.959C344.98 424.631 345.527 424.467 346.115 424.467C347.077 424.467 347.824 424.784 348.357 425.417C348.891 426.05 349.157 426.957 349.157 428.138V428.664H344.146C344.165 429.393 344.377 429.983 344.782 430.435C345.192 430.881 345.712 431.104 346.341 431.104C346.787 431.104 347.166 431.013 347.476 430.831C347.785 430.649 348.057 430.407 348.289 430.106L349.062 430.708C348.442 431.66 347.512 432.137 346.272 432.137ZM346.115 425.506C345.605 425.506 345.176 425.693 344.83 426.066C344.484 426.436 344.27 426.955 344.188 427.625H347.893V427.529C347.856 426.887 347.683 426.39 347.373 426.039C347.063 425.684 346.644 425.506 346.115 425.506ZM356.875 428.384C356.875 429.509 356.618 430.416 356.103 431.104C355.588 431.793 354.89 432.137 354.011 432.137C353.113 432.137 352.407 431.852 351.892 431.282V434.844H350.627V424.604H351.782L351.844 425.424C352.359 424.786 353.074 424.467 353.99 424.467C354.879 424.467 355.581 424.802 356.096 425.472C356.615 426.142 356.875 427.074 356.875 428.268V428.384ZM355.61 428.24C355.61 427.406 355.433 426.748 355.077 426.265C354.722 425.782 354.234 425.54 353.614 425.54C352.849 425.54 352.274 425.88 351.892 426.559V430.093C352.27 430.767 352.849 431.104 353.628 431.104C354.234 431.104 354.715 430.865 355.07 430.387C355.43 429.904 355.61 429.188 355.61 428.24ZM359.862 432H358.598V424.604H359.862V432ZM358.495 422.642C358.495 422.437 358.557 422.263 358.68 422.122C358.807 421.981 358.994 421.91 359.24 421.91C359.486 421.91 359.673 421.981 359.801 422.122C359.928 422.263 359.992 422.437 359.992 422.642C359.992 422.847 359.928 423.018 359.801 423.154C359.673 423.291 359.486 423.359 359.24 423.359C358.994 423.359 358.807 423.291 358.68 423.154C358.557 423.018 358.495 422.847 358.495 422.642ZM363.957 428.575L363.164 429.402V432H361.899V421.5H363.164V427.851L363.841 427.037L366.145 424.604H367.683L364.805 427.693L368.018 432H366.534L363.957 428.575Z" fill="#ACA9A9"/>
<path d="M297.178 296.71C281.728 285.92 278.228 265.89 278.838 247.88C278.938 244.88 278.608 241.7 280.038 239.07C281.468 236.44 284.808 234.63 287.498 235.89C289.728 236.94 290.698 239.54 291.948 241.69C293.616 244.554 296.06 246.887 298.998 248.42C300.908 249.42 303.278 250.02 305.168 248.98C307.768 247.55 308.068 243.98 308.048 240.98C308.048 235.4 308.015 229.827 307.948 224.26C307.769 221.271 308.073 218.272 308.848 215.38C309.778 212.54 311.848 209.91 314.678 209.11C317.508 208.31 321.038 209.96 321.678 212.88C321.789 214.117 321.819 215.359 321.768 216.6C321.848 217.85 322.428 219.22 323.598 219.6C324.768 219.98 325.988 219.11 326.888 218.23C329.968 215.23 332.068 211.32 334.018 207.46C335.968 203.6 337.878 199.63 340.678 196.34C343.478 193.05 347.348 190.44 351.678 190.19C356.008 189.94 360.518 192.6 361.598 196.8C362.678 201 360.228 205.29 357.598 208.7C353.63 213.762 348.952 218.224 343.708 221.95C342.685 222.509 341.868 223.382 341.378 224.44C340.728 226.44 342.618 228.44 344.588 229.07C346.818 229.81 349.238 229.58 351.588 229.86C353.938 230.14 356.438 231.16 357.328 233.36C358.548 236.42 355.988 239.62 353.478 241.72C348.438 245.92 342.715 249.225 336.558 251.49C334.358 252.29 332.048 253 330.268 254.54C328.488 256.08 327.428 258.77 328.498 260.88C329.568 262.99 332.318 263.66 334.628 263.23C336.938 262.8 338.988 261.56 341.188 260.73C345.298 259.18 350.598 259.46 353.188 263.01C353.991 264.233 354.499 265.625 354.672 267.077C354.846 268.53 354.68 270.003 354.188 271.38C353.188 274.121 351.647 276.634 349.658 278.77C343.109 286.595 334.599 292.541 324.998 296C315.468 299.3 306.638 300.2 297.168 296.73" fill="#FF725E"/>
<path d="M357.199 192.66C357.199 192.66 357.109 192.76 356.909 192.94L356.019 193.73C355.239 194.43 354.089 195.45 352.639 196.8C348.528 200.617 344.71 204.739 341.219 209.13C338.989 211.9 336.679 215.04 334.219 218.45C331.759 221.86 329.219 225.54 326.699 229.45C324.012 233.573 321.552 237.84 319.329 242.23C318.169 244.52 317.149 246.91 316.099 249.35L312.999 256.8C308.913 266.184 305.354 275.789 302.339 285.57C299.91 293.573 298.236 301.785 297.339 310.1C296.757 315.711 296.664 321.363 297.059 326.99C297.219 328.99 297.369 330.52 297.509 331.56C297.569 332.06 297.609 332.46 297.649 332.75V333.16C297.606 333.03 297.576 332.896 297.559 332.76C297.509 332.47 297.449 332.08 297.369 331.58C297.189 330.58 296.999 329 296.819 327C296.336 321.362 296.37 315.692 296.919 310.06C297.761 301.71 299.398 293.459 301.809 285.42C304.798 275.612 308.348 265.983 312.439 256.58L315.619 249.16C316.669 246.73 317.699 244.32 318.869 242.02C321.107 237.616 323.588 233.34 326.299 229.21C328.859 225.21 331.439 221.59 333.869 218.21C336.299 214.83 338.649 211.67 340.869 208.91C344.396 204.531 348.265 200.438 352.439 196.67C353.919 195.34 355.099 194.34 355.899 193.67L356.829 192.92C356.943 192.821 357.067 192.734 357.199 192.66V192.66Z" fill="#263238"/>
<path d="M318.997 242C318.856 241.588 318.758 241.162 318.707 240.73C318.547 239.9 318.367 238.73 318.157 237.21C317.727 234.21 317.287 230.1 316.817 225.55C316.347 221 315.817 216.88 315.377 213.91C315.147 212.43 314.947 211.24 314.807 210.41C314.697 209.985 314.64 209.549 314.637 209.11C314.809 209.511 314.933 209.93 315.007 210.36C315.227 211.18 315.477 212.36 315.757 213.85C316.327 216.85 316.887 220.93 317.357 225.49C317.827 230.05 318.227 234.05 318.537 237.16C318.687 238.56 318.817 239.75 318.917 240.7C318.994 241.129 319.021 241.565 318.997 242V242Z" fill="#263238"/>
<path d="M357.477 234.82C356.99 234.926 356.495 234.986 355.997 235C354.997 235.09 353.577 235.21 351.817 235.41C348.297 235.79 343.457 236.49 338.147 237.49C332.837 238.49 328.067 239.62 324.637 240.49C322.927 240.93 321.547 241.33 320.637 241.6C320.151 241.773 319.648 241.893 319.137 241.96C319.599 241.728 320.081 241.537 320.577 241.39C321.517 241.06 322.877 240.6 324.577 240.11C327.987 239.11 332.757 237.92 338.087 236.9C342.602 236.037 347.158 235.403 351.737 235C353.507 234.85 354.937 234.79 355.937 234.77C356.45 234.735 356.966 234.752 357.477 234.82Z" fill="#263238"/>
<path d="M302.299 284.72C302.193 284.575 302.105 284.417 302.039 284.25L301.379 282.86C300.809 281.65 300.039 279.86 299.119 277.67C297.259 273.27 294.889 267.11 292.369 260.27C289.849 253.43 287.529 247.27 285.769 242.82C284.909 240.66 284.199 238.89 283.669 237.57L283.109 236.14C283.032 235.975 282.978 235.8 282.949 235.62C283.056 235.765 283.143 235.923 283.209 236.09L283.869 237.48C284.429 238.69 285.209 240.48 286.129 242.67C287.989 247.07 290.359 253.23 292.879 260.07C295.399 266.91 297.719 273.07 299.479 277.52C300.339 279.68 301.049 281.45 301.569 282.77C301.799 283.34 301.989 283.77 302.139 284.2C302.217 284.365 302.271 284.54 302.299 284.72V284.72Z" fill="#263238"/>
<path d="M353.379 268.25C353.219 268.342 353.047 268.412 352.869 268.46L351.389 268.96L345.919 270.73C341.299 272.23 334.919 274.37 327.919 276.73C320.919 279.09 314.509 281.19 309.859 282.59C307.539 283.3 305.649 283.84 304.339 284.2L302.829 284.59C302.653 284.646 302.472 284.683 302.289 284.7C302.449 284.608 302.621 284.537 302.799 284.49L304.279 283.99L309.749 282.22C314.369 280.72 320.749 278.58 327.749 276.22C334.749 273.86 341.149 271.76 345.799 270.36C348.129 269.65 350.009 269.11 351.329 268.75L352.839 268.36C353.015 268.304 353.196 268.267 353.379 268.25V268.25Z" fill="#263238"/>
<path d="M332.539 25.68L327.389 27.52L325.179 20.79C321.119 8.38001 308.179 1.79001 296.289 5.98001C284.399 10.17 278.069 23.78 282.129 36.19L284.339 42.92L279.169 44.77C277.198 45.5347 275.597 47.0296 274.699 48.9441C273.802 50.8587 273.676 53.0455 274.349 55.05L288.679 98.84C288.977 99.8323 289.471 100.755 290.132 101.552C290.793 102.35 291.607 103.007 292.527 103.483C293.447 103.96 294.453 104.247 295.486 104.327C296.519 104.407 297.557 104.279 298.539 103.95L351.909 84.86C353.907 84.0967 355.53 82.5885 356.439 80.6526C357.347 78.7167 357.469 76.5041 356.779 74.48L342.439 30.69C342.134 29.7005 341.633 28.7825 340.965 27.991C340.297 27.1995 339.477 26.5505 338.553 26.083C337.629 25.6154 336.62 25.3387 335.587 25.2695C334.554 25.2003 333.517 25.3399 332.539 25.68V25.68ZM291.859 32.68C290.765 29.4532 290.961 25.928 292.408 22.8429C293.854 19.7577 296.439 17.3521 299.619 16.13C301.19 15.5926 302.853 15.3772 304.508 15.4964C306.164 15.6156 307.779 16.0672 309.256 16.8241C310.734 17.581 312.043 18.6277 313.107 19.9018C314.171 21.176 314.968 22.6514 315.449 24.24L317.649 30.97L294.059 39.41L291.859 32.68ZM321.859 71.54L325.519 82.72C325.587 82.9442 325.565 83.1856 325.459 83.3942C325.353 83.6028 325.17 83.7624 324.949 83.84L319.819 85.67C319.615 85.7266 319.397 85.702 319.211 85.6013C319.024 85.5007 318.884 85.3318 318.819 85.13L315.129 74C313.095 73.8891 311.142 73.1594 309.534 71.9083C307.926 70.6573 306.738 68.9448 306.129 67C305.26 64.4289 305.418 61.6211 306.572 59.1644C307.726 56.7076 309.785 54.7925 312.319 53.82C313.57 53.3925 314.895 53.2213 316.214 53.3166C317.532 53.4118 318.818 53.7716 319.995 54.3744C321.172 54.9772 322.215 55.8108 323.063 56.8254C323.911 57.84 324.545 59.0149 324.929 60.28C325.573 62.2556 325.626 64.3759 325.082 66.3812C324.539 68.3865 323.422 70.1898 321.869 71.57L321.859 71.54Z" fill="#FF725E"/>
<path d="M327.16 27.4C327.16 27.54 317.61 31.13 305.73 35.4C293.85 39.67 284.16 43.1 284.11 43C284.06 42.9 293.66 39.28 305.55 35C317.44 30.72 327.11 27.27 327.16 27.4Z" fill="#263238"/>
<path d="M338.499 29.24C338.543 29.3268 338.579 29.4171 338.609 29.51C338.689 29.71 338.779 29.97 338.899 30.29C339.159 31.02 339.519 32.03 339.969 33.29L343.809 44.47C345.409 49.21 347.319 54.83 349.439 61.07C350.439 64.2 351.619 67.46 352.719 70.89C353.307 72.6575 353.562 74.5193 353.469 76.38C353.384 77.3477 353.109 78.2891 352.659 79.15C352.178 80.008 351.536 80.7652 350.769 81.38C349.224 82.5078 347.509 83.3821 345.689 83.97L340.539 85.82L330.789 89.31L314.279 95.19L303.129 99.11L300.129 100.11L299.329 100.37C299.243 100.408 299.152 100.432 299.059 100.44C299.059 100.44 299.139 100.44 299.309 100.32L300.089 100.01L303.089 98.88L314.179 94.8L330.659 88.8L340.389 85.28L345.539 83.42C347.307 82.856 348.972 82.0082 350.469 80.91C351.183 80.3395 351.78 79.6367 352.229 78.84C352.652 78.0438 352.907 77.169 352.979 76.27C353.071 74.4772 352.826 72.683 352.259 70.98C351.179 67.58 350.039 64.29 349.009 61.16C346.929 54.91 345.009 49.27 343.489 44.53C341.969 39.79 340.689 35.98 339.809 33.3C339.389 31.99 339.069 30.97 338.809 30.23L338.569 29.43C338.538 29.3694 338.515 29.3057 338.499 29.24V29.24Z" fill="#263238"/>
<path d="M310.34 15.45C310.34 15.45 309.81 15.19 308.83 14.79C307.433 14.2533 305.955 13.9558 304.46 13.91C302.243 13.834 300.036 14.2506 298 15.13C295.523 16.225 293.405 17.9961 291.89 20.24C290.364 22.4775 289.545 25.1217 289.54 27.83C289.561 30.0497 289.897 32.2552 290.54 34.38C291.06 36.2 291.6 37.65 291.96 38.66C292.172 39.173 292.346 39.7011 292.48 40.24C292.196 39.7603 291.958 39.2547 291.77 38.73C291.36 37.73 290.77 36.31 290.19 34.48C289.478 32.3329 289.09 30.0915 289.04 27.83C289.013 25.0194 289.851 22.2686 291.44 19.95C293.008 17.6241 295.212 15.7982 297.79 14.69C299.89 13.8058 302.165 13.4158 304.44 13.55C305.968 13.6279 307.469 13.9837 308.87 14.6C309.244 14.7728 309.605 14.9733 309.95 15.2C310.092 15.2625 310.223 15.3468 310.34 15.45V15.45Z" fill="#263238"/>
<path d="M310.797 54.58C310.957 54.4833 311.124 54.3997 311.297 54.33C311.798 54.1042 312.316 53.9202 312.847 53.78C313.69 53.5313 314.56 53.3836 315.437 53.34C316.631 53.2759 317.826 53.4562 318.947 53.8701C321.507 54.7701 323.857 57.3801 325.017 60.8701C325.574 62.743 325.574 64.7371 325.017 66.61C324.401 68.6428 323.295 70.4935 321.797 72L321.857 71.7301C323.187 75.3801 324.637 79.34 326.137 83.47L326.227 83.72L325.977 83.81L323.687 84.57L318.687 86.24L318.437 86.32L318.357 86.07C316.987 81.93 315.487 78.07 314.357 74.28L314.577 74.45C312.622 74.2877 310.758 73.5539 309.217 72.34C307.823 71.2662 306.68 69.9011 305.867 68.34C305.134 66.9557 304.769 65.4061 304.807 63.84C304.854 62.2395 305.253 60.669 305.978 59.241C306.702 57.813 307.733 56.5628 308.997 55.58C309.518 55.1576 310.102 54.8201 310.727 54.58C310.163 54.9152 309.615 55.279 309.087 55.67C307.699 56.8449 306.635 58.3564 305.997 60.06C305.45 61.3447 305.194 62.7345 305.248 64.1298C305.302 65.5251 305.663 66.8912 306.307 68.13C307.106 69.6318 308.222 70.9421 309.577 71.97C311.047 73.1238 312.825 73.8194 314.687 73.97H314.857L314.907 74.1201C316.007 77.8401 317.517 81.73 318.907 85.89L318.577 85.7301L323.577 84.06L325.857 83.29L325.697 83.63C324.207 79.5 322.767 75.53 321.447 71.88V71.7301L321.567 71.61C323.021 70.1659 324.105 68.3924 324.727 66.4401C325.258 64.6485 325.258 62.7416 324.727 60.95C323.637 57.59 321.387 55.04 318.947 54.14C317.867 53.7236 316.714 53.5297 315.557 53.57C314.694 53.5898 313.835 53.7072 312.997 53.92C311.507 54.29 310.807 54.63 310.797 54.58Z" fill="#263238"/>
<path d="M279.892 343.32L180.002 342.86C174.233 342.828 168.713 340.508 164.654 336.41C160.594 332.311 158.328 326.769 158.352 321L159.412 70.59C159.424 67.732 159.998 64.9044 161.104 62.2688C162.209 59.6332 163.823 57.2412 165.853 55.2296C167.883 53.218 170.29 51.6263 172.935 50.5453C175.581 49.4644 178.414 48.9155 181.272 48.93L281.152 49.39C286.92 49.4191 292.441 51.7365 296.503 55.8333C300.564 59.9302 302.833 65.4714 302.812 71.24L301.752 321.64C301.74 324.499 301.165 327.327 300.06 329.964C298.955 332.601 297.342 334.994 295.312 337.007C293.282 339.021 290.875 340.614 288.23 341.697C285.584 342.78 282.751 343.332 279.892 343.32V343.32Z" fill="#455A64"/>
<path d="M281 57.9999H261.64C261.008 58.0116 260.385 58.1477 259.806 58.4003C259.227 58.6529 258.703 59.0171 258.265 59.4721C257.827 59.9272 257.482 60.4641 257.252 61.0522C257.021 61.6404 256.908 62.2682 256.92 62.8999V66.4099C256.932 67.0411 256.819 67.6685 256.588 68.2561C256.358 68.8436 256.013 69.3799 255.575 69.8341C255.136 70.2884 254.612 70.6516 254.033 70.9032C253.454 71.1547 252.831 71.2895 252.2 71.2999L214.46 71.1299C213.183 71.0959 211.972 70.5565 211.093 69.6303C210.214 68.7041 209.738 67.4667 209.77 66.1899V62.6799C209.802 61.4049 209.328 60.169 208.451 59.243C207.574 58.3171 206.365 57.7766 205.09 57.7399H198.28L181.33 57.6599C177.299 57.6359 173.422 59.2104 170.548 62.0387C167.675 64.8669 166.04 68.7185 166 72.7499L165 317.17C164.991 319.17 165.376 321.152 166.133 323.004C166.89 324.855 168.004 326.539 169.411 327.96C170.819 329.38 172.493 330.51 174.337 331.284C176.181 332.058 178.16 332.461 180.16 332.47L279.84 332.93C281.842 332.939 283.825 332.554 285.678 331.797C287.53 331.039 289.215 329.924 290.637 328.516C292.059 327.107 293.189 325.432 293.963 323.587C294.738 321.741 295.141 319.761 295.15 317.76L296.15 73.3399C296.174 69.2971 294.592 65.4102 291.751 62.5336C288.91 59.6571 285.043 58.0264 281 57.9999V57.9999Z" fill="white"/>
<path d="M267.59 300.43L193.47 300.11C192.7 300.11 192.08 299.27 192.09 298.25L192.17 278.86C192.17 277.86 192.8 277 193.57 277L267.69 277.34C268.117 277.414 268.498 277.649 268.755 277.998C269.013 278.346 269.125 278.781 269.07 279.21L269 298.58C269 299.61 268.36 300.44 267.59 300.43Z" fill="#FF725E"/>
<path d="M217.924 289.065C218.32 289.146 218.62 289.306 218.826 289.544C219.032 289.777 219.135 290.084 219.135 290.463C219.135 290.956 218.959 291.336 218.607 291.602C218.26 291.867 217.748 292 217.07 292H214.549V286.308H216.916C217.523 286.308 217.997 286.433 218.339 286.682C218.68 286.931 218.851 287.292 218.851 287.764C218.851 288.083 218.769 288.354 218.607 288.577C218.444 288.794 218.217 288.956 217.924 289.065ZM215.143 288.886H216.883C217.322 288.886 217.658 288.796 217.891 288.617C218.13 288.438 218.249 288.178 218.249 287.837C218.249 287.495 218.13 287.235 217.891 287.056C217.658 286.877 217.322 286.788 216.883 286.788H215.143V288.886ZM217.07 291.52C218.051 291.52 218.542 291.154 218.542 290.423C218.542 289.707 218.051 289.349 217.07 289.349H215.143V291.52H217.07ZM222.266 292.041C221.854 292.041 221.483 291.949 221.152 291.764C220.821 291.574 220.561 291.314 220.372 290.984C220.182 290.653 220.087 290.279 220.087 289.861C220.087 289.444 220.182 289.07 220.372 288.739C220.561 288.409 220.821 288.151 221.152 287.967C221.483 287.783 221.854 287.69 222.266 287.69C222.678 287.69 223.049 287.783 223.38 287.967C223.711 288.151 223.968 288.409 224.153 288.739C224.342 289.07 224.437 289.444 224.437 289.861C224.437 290.279 224.342 290.653 224.153 290.984C223.968 291.314 223.711 291.574 223.38 291.764C223.049 291.949 222.678 292.041 222.266 292.041ZM222.266 291.528C222.57 291.528 222.841 291.461 223.079 291.325C223.323 291.184 223.513 290.986 223.648 290.732C223.784 290.477 223.852 290.187 223.852 289.861C223.852 289.536 223.784 289.246 223.648 288.991C223.513 288.737 223.323 288.541 223.079 288.406C222.841 288.265 222.57 288.195 222.266 288.195C221.963 288.195 221.689 288.265 221.445 288.406C221.206 288.541 221.017 288.737 220.876 288.991C220.74 289.246 220.672 289.536 220.672 289.861C220.672 290.187 220.74 290.477 220.876 290.732C221.017 290.986 221.206 291.184 221.445 291.325C221.689 291.461 221.963 291.528 222.266 291.528ZM225.671 287.723H226.248V291.122L229.102 287.723H229.615V292H229.037V288.601L226.191 292H225.671V287.723ZM227.614 287.105C227.246 287.105 226.953 287.013 226.736 286.829C226.519 286.644 226.408 286.384 226.403 286.048H226.818C226.823 286.259 226.899 286.43 227.045 286.56C227.192 286.685 227.381 286.747 227.614 286.747C227.848 286.747 228.037 286.685 228.184 286.56C228.335 286.43 228.414 286.259 228.419 286.048H228.834C228.829 286.384 228.715 286.644 228.493 286.829C228.276 287.013 227.983 287.105 227.614 287.105ZM234.278 288.235H232.66V292H232.082V288.235H230.464V287.723H234.278V288.235ZM235.113 287.723H235.69V291.122L238.544 287.723H239.056V292H238.479V288.601L235.633 292H235.113V287.723Z" fill="#E8E8E3"/>
<path d="M208.255 129.85L182.535 129.733L182.514 134.453L208.233 134.57L208.255 129.85Z" fill="#FF725E"/>
<path opacity="0.1" d="M208.255 129.85L182.535 129.733L182.514 134.453L208.233 134.57L208.255 129.85Z" fill="black"/>
<path d="M283.652 158.83C283.854 158.81 284.052 158.763 284.242 158.69C284.519 158.582 284.759 158.398 284.936 158.159C285.113 157.92 285.219 157.636 285.242 157.34C285.242 155.75 285.242 153.43 285.242 150.45C285.242 148.96 285.242 147.29 285.242 145.45C285.242 145 285.242 144.53 285.242 144.06C285.307 143.604 285.208 143.14 284.962 142.75C284.824 142.563 284.645 142.411 284.439 142.305C284.232 142.199 284.004 142.143 283.772 142.14H282.212H267.762L184.122 141.83C183.908 141.826 183.696 141.875 183.504 141.97C183.313 142.066 183.147 142.207 183.022 142.38C182.78 142.771 182.688 143.236 182.762 143.69C182.762 144.69 182.762 145.69 182.762 146.69C182.762 148.69 182.762 150.69 182.762 152.69C182.762 153.69 182.762 154.69 182.762 155.69C182.72 156.156 182.72 156.624 182.762 157.09C182.814 157.29 182.912 157.475 183.047 157.631C183.182 157.787 183.352 157.91 183.542 157.99C183.739 158.069 183.95 158.106 184.162 158.1H189.252L211.462 158.22L249.062 158.45L274.412 158.65L281.302 158.73H283.092C283.502 158.73 283.702 158.73 283.702 158.73H283.092H281.302H274.412H249.062L211.462 158.61L189.252 158.52H184.162C183.882 158.531 183.602 158.484 183.342 158.38C183.078 158.268 182.844 158.097 182.657 157.88C182.47 157.663 182.335 157.407 182.262 157.13C182.204 156.868 182.184 156.598 182.202 156.33V155.59C182.202 154.59 182.202 153.59 182.202 152.59C182.202 150.59 182.202 148.59 182.202 146.59C182.202 145.59 182.202 144.59 182.202 143.59C182.183 143.324 182.183 143.056 182.202 142.79C182.239 142.496 182.353 142.217 182.532 141.98C182.704 141.739 182.933 141.543 183.197 141.409C183.462 141.274 183.755 141.206 184.052 141.21L267.692 141.67L282.142 141.77H283.702C283.977 141.77 284.247 141.837 284.491 141.964C284.735 142.091 284.944 142.275 285.102 142.5C285.384 142.935 285.498 143.457 285.422 143.97C285.422 144.44 285.422 144.91 285.422 145.36C285.422 147.18 285.422 148.85 285.422 150.36C285.422 153.36 285.352 155.66 285.332 157.26C285.307 157.568 285.196 157.862 285.01 158.108C284.824 158.354 284.571 158.542 284.282 158.65C284.093 158.767 283.874 158.83 283.652 158.83V158.83Z" fill="#E0E0E0"/>
<path d="M237.302 146.85H190.262V151.26H237.302V146.85Z" fill="#FF725E"/>
<path opacity="0.2" d="M237.302 146.85H190.262V151.26H237.302V146.85Z" fill="white"/>
<path d="M208.079 172.909L182.359 172.792L182.338 177.512L208.058 177.629L208.079 172.909Z" fill="#FF725E"/>
<path opacity="0.1" d="M208.079 172.909L182.359 172.792L182.338 177.512L208.058 177.629L208.079 172.909Z" fill="black"/>
<path d="M283.003 201.89C283.205 201.865 283.405 201.828 283.603 201.78C283.882 201.691 284.139 201.543 284.356 201.347C284.574 201.15 284.746 200.909 284.863 200.64C285.02 200.236 285.082 199.801 285.043 199.37C285.043 198.89 285.043 198.37 285.043 197.79C285.043 196.63 285.043 195.31 285.043 193.79V187.44C285.091 186.98 284.989 186.517 284.753 186.12C284.506 185.712 284.118 185.41 283.663 185.27C283.165 185.181 282.658 185.154 282.153 185.19H267.763L184.413 184.88C183.964 184.881 183.532 185.045 183.195 185.341C182.859 185.637 182.641 186.045 182.583 186.49C182.583 187.44 182.583 188.49 182.583 189.49C182.583 191.49 182.583 193.49 182.583 195.49C182.583 196.49 182.583 197.49 182.583 198.49C182.546 198.957 182.566 199.427 182.643 199.89C182.768 200.295 183.025 200.647 183.373 200.89C183.742 201.124 184.176 201.236 184.613 201.21H186.003H188.893L211.023 201.32L248.493 201.55L273.753 201.75L280.623 201.83H282.413H283.013H282.413H280.623H273.753H248.493L211.003 201.79L188.873 201.71H184.523C183.982 201.742 183.445 201.598 182.993 201.3C182.538 200.985 182.206 200.522 182.053 199.99C181.963 199.482 181.936 198.965 181.973 198.45C181.973 197.45 181.973 196.45 181.973 195.45C181.973 193.45 181.973 191.45 181.973 189.45C181.973 188.45 181.973 187.45 181.973 186.45C182.046 185.878 182.325 185.352 182.757 184.971C183.19 184.59 183.746 184.38 184.323 184.38L267.673 184.84L282.063 184.95C282.599 184.917 283.137 184.954 283.663 185.06C284.182 185.23 284.621 185.586 284.893 186.06C285.152 186.5 285.264 187.012 285.213 187.52C285.213 187.99 285.213 188.45 285.213 188.91C285.213 190.72 285.213 192.38 285.213 193.91C285.213 195.44 285.213 196.73 285.213 197.91C285.213 198.48 285.213 199.01 285.213 199.5C285.249 199.947 285.177 200.396 285.003 200.81C284.873 201.086 284.685 201.33 284.452 201.527C284.219 201.724 283.947 201.868 283.653 201.95C283.434 201.968 283.214 201.948 283.003 201.89V201.89Z" fill="#E0E0E0"/>
<path d="M207.888 217.838L182.168 217.721L182.147 222.441L207.866 222.558L207.888 217.838Z" fill="#FF725E"/>
<path opacity="0.1" d="M207.888 217.838L182.168 217.721L182.147 222.441L207.866 222.558L207.888 217.838Z" fill="black"/>
<path d="M282.803 246.8C283.006 246.776 283.206 246.739 283.403 246.69C283.681 246.602 283.938 246.455 284.155 246.26C284.372 246.065 284.545 245.827 284.663 245.56C284.82 245.156 284.882 244.721 284.843 244.29C284.843 243.8 284.843 243.29 284.843 242.7C284.843 241.55 284.843 240.22 284.843 238.7V232.35C284.891 231.89 284.789 231.427 284.553 231.03C284.301 230.63 283.915 230.332 283.463 230.19C282.966 230.097 282.459 230.067 281.953 230.1H267.563L184.213 229.79C183.765 229.791 183.332 229.955 182.996 230.251C182.659 230.547 182.442 230.955 182.383 231.4C182.383 232.4 182.383 233.4 182.383 234.4C182.383 236.4 182.383 238.4 182.383 240.4C182.383 241.4 182.383 242.4 182.383 243.4C182.346 243.864 182.366 244.331 182.443 244.79C182.563 245.198 182.821 245.552 183.173 245.79C183.541 246.03 183.976 246.142 184.413 246.11H188.763L210.893 246.23L248.363 246.46L273.623 246.66L280.493 246.74H282.283C282.683 246.74 282.883 246.74 282.883 246.74C282.883 246.74 282.683 246.74 282.283 246.74H280.493H273.623H248.363L210.893 246.63L188.763 246.54H184.413C183.872 246.576 183.334 246.432 182.883 246.13C182.428 245.815 182.096 245.352 181.943 244.82C181.854 244.312 181.827 243.795 181.863 243.28C181.863 242.28 181.863 241.28 181.863 240.28C181.863 238.28 181.863 236.28 181.863 234.28C181.863 233.28 181.863 232.28 181.863 231.23C181.934 230.659 182.211 230.133 182.642 229.752C183.073 229.371 183.628 229.16 184.203 229.16L267.553 229.62L281.943 229.73C282.479 229.697 283.017 229.734 283.543 229.84C284.063 230.01 284.501 230.366 284.773 230.84C285.032 231.28 285.144 231.792 285.093 232.3C285.093 232.77 285.093 233.24 285.093 233.69C285.093 235.5 285.093 237.16 285.093 238.69C285.093 240.22 285.093 241.51 285.093 242.69C285.093 243.26 285.093 243.79 285.093 244.28C285.132 244.727 285.06 245.177 284.883 245.59C284.754 245.866 284.566 246.111 284.333 246.307C284.1 246.504 283.827 246.648 283.533 246.73C283.299 246.81 283.049 246.834 282.803 246.8V246.8Z" fill="#E0E0E0"/>
<path d="M236.297 191.157L189.258 190.943L189.238 195.353L236.277 195.567L236.297 191.157Z" fill="#FF725E"/>
<path opacity="0.2" d="M236.297 191.157L189.258 190.943L189.238 195.353L236.277 195.567L236.297 191.157Z" fill="white"/>
<path d="M193.513 238.64C193.483 239.042 193.336 239.427 193.09 239.746C192.844 240.066 192.51 240.306 192.128 240.437C191.747 240.568 191.335 240.585 190.945 240.484C190.554 240.384 190.202 240.171 189.931 239.871C189.66 239.572 189.484 239.2 189.422 238.802C189.361 238.403 189.418 237.995 189.587 237.629C189.755 237.262 190.027 236.953 190.37 236.74C190.712 236.527 191.11 236.419 191.513 236.43C192.07 236.461 192.592 236.71 192.967 237.124C193.341 237.538 193.537 238.083 193.513 238.64V238.64Z" fill="#FF725E"/>
<path d="M199.881 238.67C199.9 238.952 199.862 239.235 199.767 239.501C199.673 239.768 199.525 240.012 199.332 240.218C199.139 240.425 198.906 240.59 198.647 240.703C198.388 240.815 198.108 240.873 197.826 240.873C197.543 240.873 197.263 240.815 197.004 240.703C196.745 240.59 196.512 240.425 196.319 240.218C196.126 240.012 195.978 239.768 195.884 239.501C195.789 239.235 195.751 238.952 195.771 238.67C195.751 238.388 195.789 238.105 195.884 237.839C195.978 237.572 196.126 237.328 196.319 237.122C196.512 236.915 196.745 236.75 197.004 236.637C197.263 236.525 197.543 236.467 197.826 236.467C198.108 236.467 198.388 236.525 198.647 236.637C198.906 236.75 199.139 236.915 199.332 237.122C199.525 237.328 199.673 237.572 199.767 237.839C199.862 238.105 199.9 238.388 199.881 238.67V238.67Z" fill="#FF725E"/>
<path d="M206.263 238.7C206.233 239.102 206.086 239.487 205.84 239.806C205.594 240.126 205.26 240.366 204.878 240.497C204.497 240.628 204.085 240.645 203.695 240.544C203.304 240.444 202.952 240.231 202.681 239.932C202.41 239.632 202.234 239.261 202.172 238.862C202.111 238.463 202.168 238.055 202.337 237.689C202.505 237.322 202.777 237.014 203.12 236.8C203.462 236.587 203.86 236.479 204.263 236.49C204.819 236.524 205.34 236.774 205.714 237.187C206.088 237.6 206.285 238.143 206.263 238.7Z" fill="#FF725E"/>
<path d="M212.63 238.73C212.601 239.132 212.454 239.517 212.208 239.837C211.961 240.156 211.627 240.396 211.245 240.527C210.864 240.659 210.452 240.675 210.062 240.574C209.671 240.474 209.319 240.261 209.048 239.962C208.778 239.663 208.601 239.291 208.539 238.892C208.478 238.493 208.535 238.085 208.704 237.719C208.872 237.352 209.145 237.044 209.487 236.83C209.829 236.617 210.227 236.509 210.63 236.52C211.186 236.554 211.707 236.804 212.081 237.217C212.455 237.63 212.652 238.173 212.63 238.73Z" fill="#FF725E"/>
<path d="M219.002 238.75C218.974 239.153 218.829 239.539 218.584 239.86C218.339 240.181 218.005 240.422 217.623 240.555C217.242 240.688 216.83 240.705 216.439 240.606C216.047 240.506 215.694 240.294 215.422 239.995C215.151 239.696 214.973 239.324 214.911 238.925C214.849 238.526 214.906 238.118 215.074 237.751C215.242 237.384 215.515 237.074 215.858 236.861C216.2 236.647 216.598 236.539 217.002 236.55C217.556 236.584 218.076 236.832 218.449 237.243C218.823 237.654 219.021 238.195 219.002 238.75Z" fill="#FF725E"/>
<path d="M225.381 238.78C225.354 239.181 225.21 239.565 224.967 239.885C224.724 240.205 224.393 240.447 224.015 240.581C223.636 240.716 223.227 240.737 222.836 240.641C222.446 240.546 222.092 240.338 221.819 240.044C221.545 239.751 221.363 239.383 221.295 238.987C221.227 238.591 221.277 238.184 221.438 237.816C221.598 237.448 221.863 237.135 222.2 236.915C222.536 236.696 222.929 236.579 223.331 236.58C223.894 236.601 224.426 236.844 224.81 237.257C225.195 237.669 225.4 238.217 225.381 238.78V238.78Z" fill="#FF725E"/>
<path d="M231.752 238.81C231.771 239.092 231.733 239.375 231.638 239.641C231.544 239.908 231.396 240.152 231.203 240.358C231.01 240.565 230.777 240.73 230.518 240.842C230.259 240.955 229.979 241.013 229.697 241.013C229.414 241.013 229.135 240.955 228.875 240.842C228.616 240.73 228.383 240.565 228.19 240.358C227.997 240.152 227.849 239.908 227.755 239.641C227.661 239.375 227.622 239.092 227.642 238.81C227.622 238.528 227.661 238.245 227.755 237.979C227.849 237.712 227.997 237.468 228.19 237.261C228.383 237.055 228.616 236.89 228.875 236.777C229.135 236.665 229.414 236.606 229.697 236.606C229.979 236.606 230.259 236.665 230.518 236.777C230.777 236.89 231.01 237.055 231.203 237.261C231.396 237.468 231.544 237.712 231.638 237.979C231.733 238.245 231.771 238.528 231.752 238.81Z" fill="#FF725E"/>
<path d="M238.123 238.84C238.096 239.241 237.952 239.625 237.709 239.945C237.466 240.265 237.135 240.507 236.757 240.641C236.378 240.776 235.969 240.796 235.579 240.701C235.188 240.606 234.835 240.398 234.561 240.104C234.287 239.81 234.105 239.443 234.037 239.047C233.97 238.651 234.019 238.244 234.18 237.876C234.341 237.508 234.605 237.194 234.942 236.975C235.278 236.755 235.671 236.639 236.073 236.64C236.636 236.661 237.168 236.904 237.553 237.316C237.937 237.729 238.142 238.277 238.123 238.84V238.84Z" fill="#FF725E"/>
<path d="M244.49 238.87C244.463 239.273 244.317 239.659 244.072 239.979C243.827 240.3 243.493 240.542 243.112 240.675C242.73 240.807 242.318 240.825 241.927 240.726C241.536 240.626 241.182 240.414 240.911 240.115C240.639 239.816 240.461 239.444 240.399 239.045C240.337 238.646 240.394 238.238 240.562 237.871C240.731 237.504 241.003 237.194 241.346 236.981C241.689 236.767 242.087 236.659 242.49 236.67C243.045 236.703 243.564 236.952 243.938 237.363C244.311 237.774 244.509 238.315 244.49 238.87V238.87Z" fill="#FF725E"/>
<g opacity="0.2">
<path opacity="0.2" d="M193.513 238.64C193.483 239.042 193.336 239.427 193.09 239.746C192.844 240.066 192.51 240.306 192.128 240.437C191.747 240.568 191.335 240.585 190.945 240.484C190.554 240.384 190.202 240.171 189.931 239.871C189.66 239.572 189.484 239.2 189.422 238.802C189.361 238.403 189.418 237.995 189.587 237.629C189.755 237.262 190.027 236.953 190.37 236.74C190.712 236.527 191.11 236.419 191.513 236.43C192.07 236.461 192.592 236.71 192.967 237.124C193.341 237.538 193.537 238.083 193.513 238.64V238.64Z" fill="white"/>
<path opacity="0.2" d="M199.885 238.67C199.904 238.952 199.866 239.235 199.771 239.501C199.677 239.768 199.529 240.012 199.336 240.218C199.143 240.425 198.91 240.59 198.651 240.703C198.392 240.815 198.112 240.873 197.83 240.873C197.547 240.873 197.267 240.815 197.008 240.703C196.749 240.59 196.516 240.425 196.323 240.218C196.13 240.012 195.982 239.768 195.888 239.501C195.793 239.235 195.755 238.952 195.775 238.67C195.755 238.388 195.793 238.105 195.888 237.839C195.982 237.572 196.13 237.328 196.323 237.122C196.516 236.915 196.749 236.75 197.008 236.637C197.267 236.525 197.547 236.467 197.83 236.467C198.112 236.467 198.392 236.525 198.651 236.637C198.91 236.75 199.143 236.915 199.336 237.122C199.529 237.328 199.677 237.572 199.771 237.839C199.866 238.105 199.904 238.388 199.885 238.67V238.67Z" fill="white"/>
<path opacity="0.2" d="M206.263 238.7C206.233 239.102 206.086 239.487 205.84 239.806C205.594 240.126 205.26 240.366 204.878 240.497C204.497 240.628 204.085 240.645 203.695 240.544C203.304 240.444 202.952 240.231 202.681 239.932C202.41 239.632 202.234 239.261 202.172 238.862C202.111 238.463 202.168 238.055 202.337 237.689C202.505 237.322 202.777 237.014 203.12 236.8C203.462 236.587 203.86 236.479 204.263 236.49C204.819 236.524 205.34 236.774 205.714 237.187C206.088 237.6 206.285 238.143 206.263 238.7Z" fill="white"/>
<path opacity="0.2" d="M212.634 238.73C212.605 239.132 212.458 239.517 212.211 239.837C211.965 240.156 211.631 240.396 211.249 240.527C210.868 240.659 210.456 240.675 210.066 240.574C209.675 240.474 209.323 240.261 209.052 239.962C208.782 239.663 208.605 239.291 208.543 238.892C208.482 238.493 208.539 238.085 208.708 237.719C208.876 237.352 209.149 237.044 209.491 236.83C209.833 236.617 210.231 236.509 210.634 236.52C211.19 236.554 211.711 236.804 212.085 237.217C212.459 237.63 212.656 238.173 212.634 238.73Z" fill="white"/>
<path opacity="0.2" d="M219.002 238.75C218.974 239.153 218.829 239.539 218.584 239.86C218.339 240.181 218.005 240.422 217.623 240.555C217.242 240.688 216.83 240.705 216.439 240.606C216.047 240.506 215.694 240.294 215.422 239.995C215.151 239.696 214.973 239.324 214.911 238.925C214.849 238.526 214.906 238.118 215.074 237.751C215.242 237.384 215.515 237.074 215.858 236.861C216.2 236.647 216.598 236.539 217.002 236.55C217.556 236.584 218.076 236.832 218.449 237.243C218.823 237.654 219.021 238.195 219.002 238.75Z" fill="white"/>
<path opacity="0.2" d="M225.385 238.78C225.357 239.181 225.214 239.565 224.971 239.885C224.728 240.205 224.397 240.447 224.019 240.581C223.64 240.716 223.23 240.736 222.84 240.641C222.45 240.545 222.096 240.338 221.822 240.044C221.549 239.75 221.367 239.383 221.299 238.987C221.231 238.591 221.281 238.184 221.442 237.816C221.602 237.448 221.867 237.134 222.204 236.915C222.54 236.695 222.933 236.579 223.335 236.58C223.898 236.601 224.43 236.844 224.814 237.256C225.199 237.669 225.404 238.217 225.385 238.78V238.78Z" fill="white"/>
<path opacity="0.2" d="M231.752 238.81C231.771 239.092 231.733 239.375 231.638 239.641C231.544 239.908 231.396 240.152 231.203 240.358C231.01 240.565 230.777 240.73 230.518 240.842C230.259 240.955 229.979 241.013 229.697 241.013C229.414 241.013 229.135 240.955 228.875 240.842C228.616 240.73 228.383 240.565 228.19 240.358C227.997 240.152 227.849 239.908 227.755 239.641C227.661 239.375 227.622 239.092 227.642 238.81C227.622 238.528 227.661 238.245 227.755 237.979C227.849 237.712 227.997 237.468 228.19 237.261C228.383 237.055 228.616 236.89 228.875 236.777C229.135 236.665 229.414 236.606 229.697 236.606C229.979 236.606 230.259 236.665 230.518 236.777C230.777 236.89 231.01 237.055 231.203 237.261C231.396 237.468 231.544 237.712 231.638 237.979C231.733 238.245 231.771 238.528 231.752 238.81Z" fill="white"/>
<path opacity="0.2" d="M238.123 238.84C238.096 239.241 237.952 239.625 237.709 239.945C237.466 240.265 237.135 240.507 236.757 240.641C236.378 240.776 235.969 240.796 235.579 240.701C235.188 240.606 234.835 240.398 234.561 240.104C234.287 239.81 234.105 239.443 234.037 239.047C233.97 238.651 234.019 238.244 234.18 237.876C234.341 237.508 234.605 237.194 234.942 236.975C235.278 236.755 235.671 236.639 236.073 236.64C236.636 236.661 237.168 236.904 237.553 237.316C237.937 237.729 238.142 238.277 238.123 238.84V238.84Z" fill="white"/>
<path opacity="0.2" d="M244.494 238.87C244.467 239.273 244.321 239.659 244.076 239.979C243.831 240.3 243.497 240.542 243.116 240.675C242.734 240.807 242.322 240.825 241.931 240.726C241.54 240.626 241.186 240.414 240.915 240.115C240.643 239.816 240.465 239.444 240.403 239.045C240.341 238.646 240.398 238.238 240.566 237.871C240.735 237.504 241.007 237.194 241.35 236.981C241.693 236.767 242.09 236.659 242.494 236.67C243.048 236.703 243.568 236.952 243.941 237.363C244.315 237.774 244.513 238.315 244.494 238.87V238.87Z" fill="white"/>
</g>
<path d="M235.441 94.5101C236.136 94.2042 236.725 93.7007 237.136 93.0624C237.546 92.4241 237.76 91.6791 237.751 90.9201C237.777 90.4267 237.702 89.9332 237.531 89.4696C237.36 89.0061 237.096 88.5822 236.756 88.2238C236.416 87.8654 236.007 87.58 235.553 87.385C235.099 87.1899 234.61 87.0894 234.116 87.0894C233.622 87.0894 233.133 87.1899 232.679 87.385C232.225 87.58 231.816 87.8654 231.475 88.2238C231.135 88.5822 230.872 89.0061 230.701 89.4696C230.53 89.9332 230.455 90.4267 230.481 90.9201C230.466 91.6867 230.678 92.4406 231.091 93.0866C231.504 93.7327 232.099 94.242 232.801 94.5501C227.201 95.3901 227.451 101.47 227.451 101.47L240.691 101.53C240.691 101.53 241.001 95.3401 235.441 94.5101Z" fill="#FF725E"/>
<path opacity="0.1" d="M235.441 94.5101C236.136 94.2042 236.725 93.7007 237.136 93.0624C237.546 92.4241 237.76 91.6791 237.751 90.9201C237.777 90.4267 237.702 89.9332 237.531 89.4696C237.36 89.0061 237.096 88.5822 236.756 88.2238C236.416 87.8654 236.007 87.58 235.553 87.385C235.099 87.1899 234.61 87.0894 234.116 87.0894C233.622 87.0894 233.133 87.1899 232.679 87.385C232.225 87.58 231.816 87.8654 231.475 88.2238C231.135 88.5822 230.872 89.0061 230.701 89.4696C230.53 89.9332 230.455 90.4267 230.481 90.9201C230.466 91.6867 230.678 92.4406 231.091 93.0866C231.504 93.7327 232.099 94.242 232.801 94.5501C227.201 95.3901 227.451 101.47 227.451 101.47L240.691 101.53C240.691 101.53 241.001 95.3401 235.441 94.5101Z" fill="black"/>
<path d="M256.955 105.451L209.766 105.237L209.74 110.877L256.93 111.091L256.955 105.451Z" fill="#FF725E"/>
<path opacity="0.2" d="M256.955 105.451L209.766 105.237L209.74 110.877L256.93 111.091L256.955 105.451Z" fill="white"/>
<path d="M83.4712 134.68H83.0012L81.6412 134.78C80.9052 134.824 80.1733 134.921 79.4512 135.07C78.9835 135.136 78.5195 135.226 78.0612 135.34L76.5112 135.77C73.873 136.579 71.3839 137.812 69.1412 139.42C66.1781 141.571 63.7038 144.324 61.8812 147.5C60.8099 149.331 59.9574 151.281 59.3412 153.31C58.6937 155.516 58.3209 157.793 58.2312 160.09C58.1716 161.297 58.1917 162.506 58.2912 163.71C58.2912 164.32 58.4612 164.93 58.5412 165.55C58.6085 166.175 58.7255 166.794 58.8912 167.4C59.7904 171.413 61.615 175.16 64.2193 178.342C66.8236 181.525 70.1357 184.055 73.8912 185.73C76.6093 186.903 79.5226 187.557 82.4812 187.66C85.5369 187.828 88.5957 187.39 91.4812 186.37L92.3612 186.04H92.4812L92.5812 186.1L105.191 192.5L104.821 192.82C103.471 188.64 102.171 184.59 100.911 180.7V180.55L101.021 180.44C104.08 177.359 106.351 173.586 107.641 169.44C108.81 165.65 109.151 161.653 108.641 157.72C108.188 154.225 107.064 150.849 105.331 147.78C103.837 145.143 101.911 142.777 99.6312 140.78C97.7507 139.199 95.6693 137.875 93.4412 136.84C91.7553 136.113 89.9995 135.56 88.2012 135.19L86.2012 134.86L84.7512 134.75L83.8712 134.69H83.5712C83.6709 134.679 83.7715 134.679 83.8712 134.69H84.7612L86.2112 134.75L88.2112 135.04C90.0319 135.383 91.8117 135.916 93.5212 136.63C95.7876 137.652 97.9065 138.974 99.8212 140.56C102.142 142.548 104.11 144.915 105.641 147.56C107.423 150.662 108.582 154.083 109.051 157.63C109.603 161.624 109.286 165.69 108.121 169.55C106.823 173.782 104.517 177.635 101.401 180.78L101.461 180.52C102.721 184.41 104.031 188.46 105.391 192.63L105.581 193.24L105.011 192.95L92.4012 186.56H92.6212L91.7212 186.89C88.7801 187.925 85.6648 188.373 82.5512 188.21C79.5289 188.095 76.5546 187.417 73.7812 186.21C68.4909 183.944 64.0894 180.007 61.2512 175C59.9451 172.688 58.9913 170.194 58.4212 167.6C58.2651 166.978 58.1482 166.347 58.0712 165.71C57.9912 165.08 57.8612 164.46 57.8312 163.84C57.5606 160.282 57.9366 156.704 58.9412 153.28C59.5728 151.223 60.449 149.248 61.5512 147.4C63.4173 144.196 65.9431 141.424 68.9612 139.27C71.2408 137.658 73.7718 136.435 76.4512 135.65L78.0212 135.25C78.4833 135.143 78.9506 135.059 79.4212 135C80.1508 134.865 80.8896 134.785 81.6312 134.76L83.0012 134.71C83.157 134.689 83.314 134.679 83.4712 134.68Z" fill="#FF725E"/>
<path d="M89.1731 158H87.3231L83.3231 152.38V148.69C83.3231 148.69 80.4631 148.51 80.8031 153.34C81.1431 158.17 80.8031 156.94 80.8031 156.94C80.8031 156.94 74.7331 156.94 74.2331 157.49C73.7331 158.04 73.7031 163.9 73.6331 167.17C73.5948 167.958 73.821 168.737 74.2757 169.382C74.7305 170.027 75.3877 170.501 76.1431 170.73C76.3548 170.789 76.5734 170.819 76.7931 170.82C78.3131 170.82 86.0431 169.59 86.0431 169.59H89.2331L89.1731 158Z" fill="#FF725E"/>
<path d="M94.4602 157.01L93.3202 169.65H90.1602V157.27L94.4602 157.01Z" fill="#FF725E"/>
<path d="M132.151 414.34V405.79L116.821 405.68L116.691 418.61L117.641 418.68C121.871 418.95 139.161 419.35 142.001 418.47C145.161 417.49 132.151 414.34 132.151 414.34Z" fill="#FF725E"/>
<path d="M142.362 417.67C142.362 417.81 136.622 417.93 129.552 417.93C122.482 417.93 116.742 417.81 116.742 417.67C116.742 417.53 122.482 417.41 129.552 417.41C136.622 417.41 142.362 417.53 142.362 417.67Z" fill="#263238"/>
<path d="M132.421 416.09C132.291 416.02 132.421 415.57 132.731 415.09C133.041 414.61 133.461 414.41 133.561 414.51C133.661 414.61 133.451 414.99 133.151 415.4C132.851 415.81 132.551 416.16 132.421 416.09Z" fill="#263238"/>
<path d="M133.401 416.65C133.261 416.65 133.331 416.09 133.631 415.56C133.931 415.03 134.331 414.71 134.441 414.79C134.551 414.87 134.371 415.32 134.091 415.79C133.811 416.26 133.531 416.7 133.401 416.65Z" fill="#263238"/>
<path d="M121.36 417.63C121.3 417.63 121.07 417.45 120.74 417.07C120.337 416.582 119.888 416.133 119.4 415.73C118.919 415.346 118.347 415.095 117.74 415C117.27 414.94 116.97 415 116.94 414.94C116.91 414.88 117.2 414.67 117.75 414.63C118.475 414.615 119.184 414.855 119.75 415.31C120.28 415.742 120.727 416.268 121.07 416.86C121.3 417.3 121.42 417.59 121.36 417.63Z" fill="#263238"/>
<path d="M132.469 414.48C132.539 414.6 132.279 414.9 131.839 415.06C131.399 415.22 131.009 415.16 130.989 415.06C130.969 414.96 131.279 414.75 131.659 414.61C132.039 414.47 132.389 414.36 132.469 414.48Z" fill="#263238"/>
<path d="M132.231 413.65C132.231 413.8 131.831 413.92 131.311 413.93C130.791 413.94 130.381 413.82 130.391 413.68C130.401 413.54 130.811 413.41 131.311 413.4C131.811 413.39 132.211 413.51 132.231 413.65Z" fill="#263238"/>
<path d="M169.901 414.34V405.79L154.571 405.68L154.441 418.48L155.391 418.55C159.621 418.82 176.921 419.35 179.751 418.47C182.911 417.49 169.901 414.34 169.901 414.34Z" fill="#FF725E"/>
<path d="M180.11 417.69C180.11 417.83 174.38 417.95 167.3 417.95C160.22 417.95 154.5 417.83 154.5 417.69C154.5 417.55 160.23 417.43 167.3 417.43C174.37 417.43 180.11 417.55 180.11 417.69Z" fill="#263238"/>
<path d="M170.171 416.09C170.051 416.02 170.171 415.57 170.481 415.09C170.791 414.61 171.211 414.41 171.311 414.51C171.411 414.61 171.201 414.99 170.901 415.4C170.601 415.81 170.301 416.16 170.171 416.09Z" fill="#263238"/>
<path d="M171.15 416.65C171.02 416.65 171.08 416.09 171.39 415.56C171.7 415.03 172.09 414.71 172.2 414.79C172.31 414.87 172.12 415.32 171.84 415.79C171.56 416.26 171.29 416.7 171.15 416.65Z" fill="#263238"/>
<path d="M159.11 417.63C159.05 417.63 158.83 417.45 158.49 417.07C158.087 416.582 157.638 416.133 157.15 415.73C156.669 415.346 156.097 415.095 155.49 415C155.03 414.94 154.72 415 154.69 414.94C154.66 414.88 154.95 414.67 155.5 414.63C156.225 414.615 156.934 414.855 157.5 415.31C158.033 415.74 158.48 416.265 158.82 416.86C159.05 417.3 159.17 417.59 159.11 417.63Z" fill="#263238"/>
<path d="M170.219 414.48C170.289 414.6 170.029 414.9 169.589 415.06C169.149 415.22 168.759 415.16 168.739 415.06C168.719 414.96 169.029 414.75 169.409 414.61C169.789 414.47 170.139 414.36 170.219 414.48Z" fill="#263238"/>
<path d="M170.002 413.65C170.002 413.8 169.602 413.92 169.082 413.93C168.562 413.94 168.162 413.82 168.172 413.68C168.182 413.54 168.582 413.41 169.082 413.4C169.582 413.39 170.002 413.51 170.002 413.65Z" fill="#263238"/>
<path d="M226.381 160.44C225.981 160.03 224.991 160.23 224.991 160.23C225.09 159.654 225.09 159.066 224.991 158.49C224.811 157.93 223.551 158.04 223.551 158.04C223.493 157.568 223.493 157.092 223.551 156.62C223.561 156.515 223.539 156.41 223.487 156.319C223.435 156.228 223.356 156.155 223.261 156.11C222.665 155.867 222.024 155.751 221.381 155.77C220.611 155.22 223.731 150.85 224.891 149.45C226.051 148.05 225.841 146.96 224.811 146.96C224.101 146.96 220.461 151.16 219.341 152.57C218.221 153.98 215.251 157.9 215.151 154.77C215.051 151.64 213.791 149.28 213.001 148.88C212.211 148.48 211.371 149.42 211.801 150.29C212.179 151.278 212.414 152.315 212.501 153.37C212.61 154.21 212.572 155.063 212.391 155.89C212.059 157.429 211.608 158.941 211.041 160.41H210.961C210.961 160.41 189.141 181.34 187.561 182.83C186.151 184.17 157.791 181.24 152.101 180.64C150.167 180.357 148.215 180.223 146.261 180.24C143.791 180.35 143.351 180.7 140.891 180.73C134.678 180.799 128.48 181.344 122.351 182.36C119.576 182.832 116.983 184.057 114.856 185.901C112.73 187.746 111.15 190.139 110.291 192.82C104.561 210.72 91.5809 253.09 89.2909 276.89C87.5605 280.028 85.9983 283.256 84.6109 286.56C83.0009 290.94 83.3909 291.09 83.9309 291.19C85.3909 291.46 87.0509 283.6 87.6709 285.5C88.2909 287.4 84.5209 294.87 86.0509 295.09C88.0509 295.37 89.6409 287.09 89.8309 286.43C90.0209 285.77 91.0109 285.98 90.8309 286.6C90.5409 287.48 87.7309 296.81 89.6909 297.11C90.7709 297.27 90.8909 295.3 90.8909 295.3C90.8909 295.3 92.8909 286.37 93.8009 286.55C94.7109 286.73 93.7409 292 93.2809 293.76C92.8209 295.52 93.4609 296.41 94.4009 295.98C95.0409 295.68 96.5709 290.33 96.9909 288.59C97.4109 286.85 98.4609 282.03 99.8709 284.82C101.281 287.61 103.421 289.23 104.301 289.27C104.499 289.247 104.686 289.165 104.838 289.035C104.989 288.905 105.098 288.733 105.151 288.541C105.204 288.348 105.197 288.144 105.133 287.955C105.069 287.766 104.95 287.601 104.791 287.48C104.034 286.741 103.384 285.899 102.861 284.98C102.394 284.264 102.056 283.472 101.861 282.64C101.458 280.981 101.223 279.286 101.161 277.58L101.001 276.58C103.241 265.49 109.691 232.94 119.001 212.15L122.821 220.01L124.481 225.83L114.301 250.96L157.721 250.39L151.241 225.45L159.111 199.45C167.621 199.64 189.471 199.96 193.111 198.31C197.691 196.31 221.381 166.39 221.381 166.39C222.925 165.19 224.404 163.908 225.811 162.55C225.811 162.55 227.251 161.34 226.381 160.44Z" fill="#FFBE9D"/>
<path d="M112.391 232.39C113.651 228.09 120.121 206.83 120.121 206.83C120.121 206.83 123.301 224.16 122.461 226.25C121.688 228.039 120.776 229.765 119.731 231.41C112.391 242.58 113.351 248.17 113.351 248.17L157.701 246.82C157.801 240.62 154.131 226.2 153.371 223.9C152.611 221.6 155.141 214.07 155.141 214.07C155.141 214.07 160.141 208.98 159.961 206.36C159.866 204.006 159.575 201.665 159.091 199.36L186.091 200.36L185.241 182.06L146.461 178.18C145.111 181.99 132.901 180.12 132.901 180.12C119.721 180.56 118.901 182.98 113.421 187.24C107.941 191.5 98.8711 228.06 98.8711 228.06L112.391 232.39Z" fill="#FF725E"/>
<path d="M138.611 228.06C137.842 228.197 137.059 228.238 136.281 228.18C134.831 228.18 132.841 228.08 130.651 227.86C128.461 227.64 126.481 227.33 125.071 227.05C124.293 226.95 123.531 226.755 122.801 226.47C123.583 226.47 124.363 226.544 125.131 226.69C126.551 226.87 128.521 227.12 130.701 227.34C132.881 227.56 134.861 227.71 136.291 227.81C137.07 227.82 137.847 227.904 138.611 228.06V228.06Z" fill="#263238"/>
<path d="M141.651 224.29C140.882 224.667 140.069 224.946 139.231 225.12C135.241 226.168 131.125 226.656 127.001 226.57C126.148 226.598 125.294 226.517 124.461 226.33C125.303 226.224 126.152 226.18 127.001 226.2C128.571 226.15 130.731 226.04 133.111 225.76C135.491 225.48 137.611 225.08 139.111 224.76C139.944 224.538 140.793 224.38 141.651 224.29V224.29Z" fill="#263238"/>
<path d="M156.571 207.47C156.551 208.232 156.447 208.99 156.261 209.73C156.001 211.12 155.601 213.02 155.091 215.1C154.581 217.18 154.091 219.1 153.651 220.4C153.474 221.144 153.212 221.865 152.871 222.55C152.927 221.79 153.068 221.039 153.291 220.31C153.671 218.75 154.101 216.95 154.581 214.98C155.061 213.01 155.521 211.21 155.901 209.65C156.036 208.899 156.261 208.167 156.571 207.47V207.47Z" fill="#263238"/>
<path d="M112.862 229.84C110.549 229.483 108.265 228.951 106.032 228.25C103.75 227.717 101.51 227.015 99.332 226.15C101.644 226.513 103.927 227.045 106.162 227.74C108.445 228.272 110.684 228.974 112.862 229.84V229.84Z" fill="#263238"/>
<path d="M159.57 199.14C159.193 199.205 158.808 199.205 158.43 199.14C157.386 199.033 156.36 198.787 155.38 198.41C153.745 197.795 152.255 196.845 151.009 195.621C149.762 194.396 148.785 192.924 148.14 191.3C147.428 189.513 147.124 187.589 147.25 185.67C147.295 184.087 147.769 182.545 148.62 181.21C149.22 180.31 150.115 179.649 151.15 179.34C151.427 179.264 151.713 179.227 152 179.23C152.2 179.23 152.3 179.23 152.3 179.23C152.3 179.23 151.88 179.23 151.21 179.5C150.26 179.851 149.454 180.509 148.92 181.37C147.56 183.51 147.18 187.42 148.63 191.07C149.305 192.791 150.362 194.336 151.72 195.59C152.834 196.616 154.116 197.441 155.51 198.03C156.819 198.547 158.181 198.919 159.57 199.14V199.14Z" fill="#263238"/>
<path d="M182.881 200C182.631 196.934 182.551 193.855 182.641 190.78C182.563 187.707 182.656 184.632 182.921 181.57C183.172 184.633 183.252 187.708 183.161 190.78C183.245 193.856 183.152 196.935 182.881 200V200Z" fill="#263238"/>
<path d="M146.199 179.3C146.309 177.07 146.539 174.55 146.539 174.55C146.539 174.55 152.059 173.94 152.389 168.24C152.719 162.54 152.389 149.39 152.389 149.39L142.389 144.27L131.289 153L132.999 181.5L143.179 182.15C143.957 182.172 144.712 181.884 145.278 181.349C145.844 180.815 146.176 180.078 146.199 179.3V179.3Z" fill="#FFBE9D"/>
<path d="M147.192 163.73C147.192 163.73 147.192 163.84 147.102 163.97C147.028 164.064 146.932 164.139 146.822 164.188C146.712 164.237 146.592 164.258 146.472 164.25C145.832 164.25 145.212 163.51 144.992 162.65C144.888 162.233 144.888 161.797 144.992 161.38C145.013 161.198 145.079 161.024 145.183 160.874C145.288 160.724 145.429 160.602 145.592 160.52C145.727 160.464 145.878 160.464 146.012 160.52C146.112 160.569 146.193 160.65 146.242 160.75C146.312 160.92 146.242 161.03 146.242 161.02C146.242 161.01 146.242 160.92 146.142 160.82C146.09 160.748 146.013 160.699 145.927 160.68C145.84 160.662 145.749 160.676 145.672 160.72C145.55 160.794 145.448 160.898 145.376 161.022C145.305 161.146 145.265 161.287 145.262 161.43C145.178 161.802 145.178 162.188 145.262 162.56C145.462 163.34 146.002 163.97 146.482 164.03C146.576 164.043 146.672 164.036 146.763 164.01C146.854 163.984 146.939 163.94 147.012 163.88C147.132 163.8 147.172 163.72 147.192 163.73Z" fill="#EB996E"/>
<path d="M155.822 146.31C155.052 143.69 152.262 142.39 149.722 141.67C145.852 140.57 141.672 140.09 137.892 141.48C134.112 142.87 129.572 145.31 129.572 149.48C127.342 149.3 126.062 151.25 125.182 153.67C124.619 155.144 124.282 156.695 124.182 158.27V158.27C123.902 163.73 122.372 171.27 118.832 175.27C116.832 177.5 114.062 179.04 112.922 181.82C111.922 184.23 112.442 187.09 111.512 189.53C110.682 191.68 108.852 193.21 107.512 195.08C106.146 197.201 105.343 199.635 105.177 202.152C105.011 204.669 105.487 207.188 106.562 209.47C107.644 211.694 109.167 213.674 111.04 215.29C112.912 216.906 115.093 218.124 117.452 218.87C122.123 220.291 127.104 220.34 131.802 219.01C135.327 218.167 138.616 216.536 141.422 214.24C144.292 211.896 146.263 208.632 147.002 205C147.712 200.92 146.572 196.77 145.722 192.71C143.062 179.88 143.822 179.21 147.182 167.3C147.262 167.09 147.302 166.87 147.362 166.66C147.422 166.45 147.452 166.35 147.492 166.19C147.587 165.719 147.637 165.24 147.642 164.76C147.151 164.943 146.618 164.981 146.106 164.871C145.594 164.761 145.124 164.508 144.752 164.14C144.378 163.748 144.118 163.262 143.998 162.734C143.878 162.206 143.904 161.655 144.072 161.14C144.308 160.577 144.659 160.07 145.104 159.651C145.548 159.232 146.075 158.912 146.652 158.71C147.762 158.25 148.952 158.01 150.042 157.5C152.352 156.4 153.952 154.12 155.042 151.73C155.938 150.074 156.214 148.152 155.822 146.31V146.31Z" fill="#263238"/>
<path d="M147.589 164C147.8 164.312 147.975 164.648 148.109 165C148.409 165.63 148.809 166.52 149.249 167.55L149.329 167.74H149.119L148.119 167.83C147.429 167.83 146.849 167.96 146.169 167.95C146.11 167.937 146.055 167.909 146.009 167.868C145.964 167.828 145.929 167.777 145.909 167.72C145.879 167.629 145.879 167.531 145.909 167.44C145.932 167.305 145.962 167.172 145.999 167.04L146.179 166.33C146.269 165.856 146.41 165.394 146.599 164.95C146.58 165.433 146.51 165.912 146.389 166.38L146.249 167.09C146.199 167.33 146.109 167.7 146.249 167.67C146.749 167.67 147.459 167.56 148.119 167.52L149.119 167.43L148.989 167.65C148.559 166.65 148.199 165.71 147.989 165.06C147.805 164.728 147.67 164.371 147.589 164V164Z" fill="#FF725E"/>
<path d="M113.351 248.17L157.701 246.82L177.001 322.16L173.451 408.58H150.001L152.871 324L135.721 271.55L138.361 411.93L114.661 412.28L112.171 280.33C112.061 276.66 110.861 268.39 111.311 264.75L113.351 248.17Z" fill="#263238"/>
<path d="M141.62 272.62C140.894 272.666 140.165 272.622 139.45 272.49C138.11 272.33 136.28 272.05 134.27 271.65C132.26 271.25 130.46 270.79 129.16 270.42C128.465 270.267 127.793 270.025 127.16 269.7C127.16 269.55 130.42 270.33 134.42 271.14C138.42 271.95 141.64 272.47 141.62 272.62Z" fill="#455A64"/>
<path d="M173.21 403.84C173.21 403.98 167.9 404.1 161.35 404.1C154.8 404.1 149.48 403.98 149.48 403.84C149.48 403.7 154.79 403.58 161.35 403.58C167.91 403.58 173.21 403.69 173.21 403.84Z" fill="#455A64"/>
<path d="M138.151 408.28C138.151 408.43 132.991 408.54 126.631 408.54C120.271 408.54 115.121 408.43 115.121 408.28C115.121 408.13 120.281 408.02 126.631 408.02C132.981 408.02 138.151 408.14 138.151 408.28Z" fill="#455A64"/>
<path d="M135.091 407.92C134.951 407.92 134.331 377.25 133.701 339.42C133.071 301.59 132.701 270.9 132.831 270.9C132.961 270.9 133.601 301.56 134.221 339.41C134.841 377.26 135.241 407.92 135.091 407.92Z" fill="#455A64"/>
<path d="M170.06 403.84C170.049 403.704 170.049 403.567 170.06 403.43V402.23C170.06 401.15 170.14 399.6 170.2 397.63C170.34 393.63 170.54 387.82 170.79 380.7C171.33 366.38 172.09 346.64 172.92 324.85C172.92 324.64 172.92 324.44 172.92 324.26V324.33C167.67 303.33 162.92 284.27 159.47 270.48L155.47 254.17C155.01 252.26 154.66 250.77 154.41 249.73C154.29 249.24 154.21 248.86 154.14 248.57C154.101 248.44 154.078 248.306 154.07 248.17C154.122 248.296 154.162 248.427 154.19 248.56C154.27 248.84 154.37 249.22 154.51 249.7C154.78 250.7 155.17 252.22 155.67 254.12C156.67 257.98 158.08 263.54 159.84 270.39C163.32 284.17 168.12 303.18 173.44 324.21V324.28C173.44 324.46 173.44 324.67 173.44 324.87C172.55 346.66 171.74 366.39 171.15 380.71C170.84 387.84 170.58 393.61 170.4 397.63C170.3 399.63 170.22 401.15 170.17 402.23C170.17 402.74 170.11 403.14 170.1 403.43C170.102 403.568 170.088 403.705 170.06 403.84V403.84Z" fill="#455A64"/>
<path d="M162.412 322.5C160.727 323.054 158.992 323.439 157.232 323.65C155.072 324.02 153.232 324.28 152.402 324.32V324.12C152.672 324.2 152.812 324.25 152.812 324.29C152.812 324.33 152.642 324.29 152.362 324.29H151.762L152.362 324.11C153.142 323.88 154.982 323.5 157.142 323.11C158.874 322.734 160.639 322.53 162.412 322.5Z" fill="#455A64"/>
<path d="M162 325.37C160.44 325.442 158.877 325.371 157.33 325.16C155.768 325.128 154.212 324.957 152.68 324.65C155.805 324.395 158.951 324.638 162 325.37V325.37Z" fill="#455A64"/>
<path opacity="0.2" d="M113.16 249.76C113.685 250.435 114.347 250.991 115.102 251.392C115.856 251.794 116.687 252.031 117.54 252.09C119.326 252.302 121.133 252.268 122.91 251.99C134.36 250.72 146.49 249.55 157.7 246.82C143.19 247.63 127.86 247.36 113.35 248.17L113.2 249.41" fill="black"/>
<g opacity="0.2">
<path opacity="0.2" d="M128.109 270.21L136.289 301.95L135.719 271.55L128.109 270.21Z" fill="black"/>
</g>
</svg>
