<svg width="251" height="450" viewBox="0 0 251 450" fill="none" xmlns="http://www.w3.org/2000/svg">
<path d="M250 426.26C250 426.4 194.034 426.52 125.008 426.52C55.9822 426.52 0 426.4 0 426.26C0 426.12 55.9545 426 125.008 426C194.061 426 250 426.12 250 426.26Z" fill="#263238"/>
<path d="M142.444 413.039L143.457 399.798H166.441L165.49 415.999L156.956 420.76L142.444 413.039Z" fill="#A5695F"/>
<path d="M166.092 413.002L166.031 414.519C166.031 414.519 191.115 426.07 191.164 430.968L140.403 428.308L141.972 411.336C145.638 413.341 149.69 414.527 153.852 414.814C158.014 415.102 162.189 414.484 166.092 413.002Z" fill="#FF725E"/>
<g opacity="0.6">
<path opacity="0.6" d="M146.835 417.043C146.339 417.165 145.905 417.467 145.618 417.892C145.33 418.317 145.209 418.834 145.279 419.343C145.381 419.846 145.671 420.291 146.089 420.585C146.508 420.879 147.022 421 147.527 420.922C148.06 420.789 148.524 420.46 148.827 420C149.131 419.54 149.253 418.982 149.169 418.436C149.007 417.92 148.652 417.489 148.18 417.232C147.708 416.974 147.155 416.911 146.638 417.056" fill="white"/>
</g>
<g opacity="0.6">
<path opacity="0.6" d="M140.4 428.308L140.783 424.229L189.284 428.27C189.284 428.27 191.495 429.377 191.161 430.968L140.4 428.308Z" fill="white"/>
</g>
<path d="M166.223 414.681C166.223 414.929 164.988 414.979 163.691 415.713C162.394 416.446 161.727 417.466 161.505 417.354C161.282 417.242 161.727 415.825 163.271 414.954C164.815 414.084 166.223 414.444 166.223 414.681Z" fill="#263238"/>
<path d="M171.41 417.167C171.41 417.416 170.36 417.789 169.459 418.796C168.557 419.803 168.224 420.91 168.014 420.885C167.804 420.86 167.68 419.443 168.817 418.212C169.953 416.981 171.41 416.931 171.41 417.167Z" fill="#263238"/>
<path d="M174.106 423.745C173.871 423.745 173.587 422.501 174.304 421.183C175.02 419.865 176.193 419.368 176.292 419.592C176.391 419.816 175.625 420.487 175.057 421.594C174.489 422.7 174.353 423.732 174.106 423.745Z" fill="#263238"/>
<path d="M112.128 383.498L111.029 423.173L129.246 422.539L134.668 384.045L112.128 383.498Z" fill="#A5695F"/>
<path d="M130.154 414.78C130.154 414.78 117.05 423.235 111.134 415.302L109.381 419.032L101.18 445.366C100.905 446.199 100.947 447.106 101.298 447.91C101.65 448.714 102.285 449.358 103.082 449.717C103.692 449.976 104.361 450.059 105.015 449.958C105.669 449.857 106.282 449.576 106.787 449.145C112.221 444.433 132.118 426.965 132.019 424.503L132.167 417.963C132.179 417.294 131.99 416.636 131.624 416.077C131.258 415.518 130.733 415.083 130.117 414.83L130.154 414.78Z" fill="#FF725E"/>
<g opacity="0.6">
<path opacity="0.6" d="M103.69 449.867L132.097 422.178V423.608C132.11 424.197 131.991 424.783 131.747 425.319C131.503 425.855 131.141 426.329 130.689 426.704C128.367 429.563 122.043 435.904 106.938 449.083C106.5 449.459 105.978 449.724 105.418 449.855C104.857 449.987 104.273 449.983 103.715 449.842L103.69 449.867Z" fill="white"/>
</g>
<g opacity="0.6">
<path opacity="0.6" d="M128.257 417.789C127.827 418.07 127.519 418.504 127.393 419.004C127.267 419.504 127.333 420.034 127.578 420.487C127.86 420.926 128.297 421.242 128.801 421.371C129.304 421.5 129.838 421.433 130.295 421.183C130.754 420.888 131.083 420.428 131.216 419.896C131.35 419.365 131.276 418.802 131.011 418.324C130.668 417.895 130.177 417.614 129.636 417.535C129.096 417.457 128.545 417.587 128.096 417.901" fill="white"/>
</g>
<path d="M112.121 435.469C111.923 435.556 111.219 433.753 109.219 432.734C107.976 432.191 106.644 431.883 105.291 431.826C105.291 431.751 105.711 431.503 106.526 431.428C107.587 431.351 108.648 431.575 109.589 432.075C110.521 432.566 111.293 433.317 111.812 434.238C112.17 434.947 112.207 435.444 112.121 435.469Z" fill="#263238"/>
<path d="M109.503 439.883C108.539 439.3 107.541 438.777 106.514 438.316C105.414 438.065 104.301 437.878 103.179 437.757C103.08 437.583 104.76 436.924 106.761 437.608C108.762 438.291 109.676 439.771 109.503 439.883Z" fill="#263238"/>
<path d="M116.9 429.824C116.727 429.974 115.109 428.208 112.454 427.089C109.798 425.97 107.415 425.958 107.415 425.734C107.415 425.51 109.885 425.187 112.763 426.418C115.64 427.649 117.073 429.824 116.9 429.824Z" fill="#263238"/>
<path d="M117.787 421.793C117.688 421.992 115.823 421.134 113.353 420.96C110.883 420.785 108.919 421.27 108.845 421.059C110.229 420.264 111.841 419.966 113.415 420.214C116.07 420.425 117.911 421.643 117.787 421.793Z" fill="#263238"/>
<path d="M111.96 420.835C111.937 420.408 112.017 419.981 112.195 419.592C112.569 418.471 113.166 417.439 113.949 416.558C114.464 415.853 115.199 415.341 116.036 415.104C116.32 415.045 116.614 415.074 116.881 415.187C117.148 415.3 117.374 415.492 117.53 415.738C117.792 416.229 117.858 416.803 117.716 417.341C117.375 418.445 116.664 419.395 115.704 420.028C114.744 420.661 113.595 420.937 112.454 420.81C111.329 420.683 110.266 420.225 109.399 419.493C108.531 418.761 107.897 417.788 107.576 416.695C107.502 416.424 107.488 416.14 107.535 415.863C107.582 415.586 107.689 415.322 107.848 415.091C108.038 414.868 108.292 414.71 108.575 414.639C108.858 414.567 109.156 414.586 109.428 414.693C110.207 415.053 110.88 415.61 111.38 416.31C112.127 417.219 112.708 418.255 113.097 419.368C113.274 419.757 113.359 420.183 113.344 420.611C112.75 419.18 111.951 417.843 110.972 416.645C110.512 416.053 109.914 415.583 109.231 415.278C109.085 415.217 108.924 415.205 108.77 415.243C108.617 415.281 108.48 415.367 108.379 415.489C108.286 415.649 108.229 415.827 108.21 416.012C108.191 416.196 108.21 416.382 108.267 416.558C108.57 417.493 109.132 418.321 109.887 418.945C110.642 419.568 111.559 419.961 112.528 420.077C113.493 420.176 114.462 419.946 115.28 419.422C116.098 418.899 116.717 418.113 117.036 417.192C117.148 416.822 117.117 416.422 116.95 416.073C116.869 415.934 116.747 415.824 116.601 415.757C116.455 415.69 116.292 415.67 116.135 415.7C115.424 415.918 114.798 416.352 114.344 416.944C113.322 418.085 112.515 419.404 111.96 420.835Z" fill="#263238"/>
<path d="M187.076 172.457L187.237 176.846L196.771 196.553C196.771 196.553 200.242 225.609 196.376 244.557C192.276 264.6 186.496 308.887 185.755 318.647C185.014 328.407 169.217 406.848 169.217 406.848L141.169 404.958C141.169 404.958 149.814 316.682 150.827 305.219C151.84 293.756 153.52 243.936 153.52 243.936L155.99 177.853L188.953 171.425" fill="#263238"/>
<path d="M136.776 402.646L153.696 239.236L161.922 177.729L125.957 165.992L124.24 173.539C124.24 173.539 109.098 205.865 109.012 215.638C108.777 242.916 108.258 311.498 108.258 311.498L109.407 402.024L136.776 402.646Z" fill="#263238"/>
<path d="M177.344 79.134C177.344 79.134 204.602 84.443 204.602 92.9721C204.602 101.501 194.721 137.856 191.708 144.47C188.694 151.085 189.361 164.363 189.571 170.157C189.781 175.951 184.285 176.884 179.419 178.376C174.552 179.868 152.927 184.145 140.86 180.303C128.793 176.461 122.532 174.521 121.297 171.463C118.617 164.811 121.358 165.159 121.791 159.614C122.223 154.069 122.754 104.498 122.754 104.498C122.754 104.498 126.039 80.4395 134.302 77.8782C142.564 75.317 177.344 79.134 177.344 79.134Z" fill="#FF725E"/>
<path d="M250.087 80.0041C250.087 80.0041 251.322 76.6099 245.443 79.4198C239.565 82.2297 231.141 89.0057 231.141 89.0057L226.609 87.7624C226.609 87.7624 220.68 91.9773 219.754 94.3147C218.828 96.6521 216.617 106.251 217.074 108.24C217.531 110.229 215.95 114.456 215.95 114.456L227.646 120.673L229.054 117.217C229.054 117.217 240.441 105.865 240.787 104.572C240.959 104.19 241.053 103.777 241.065 103.357C241.076 102.938 241.005 102.52 240.854 102.129C240.703 101.738 240.477 101.381 240.188 101.079C239.898 100.777 239.552 100.536 239.169 100.37C239.169 100.37 240.404 95.098 238.589 93.4568C238.589 93.4568 240.096 90.162 239.515 89.0057L250.087 80.0041Z" fill="#FFBE9D"/>
<path d="M227.439 105.989C227.439 105.989 227.563 105.728 227.674 105.219C227.809 104.484 227.879 103.74 227.884 102.993C227.895 100.404 227.231 97.8572 225.957 95.6077L225.871 96.018C226.835 95.2879 227.53 94.2556 227.847 93.0838V92.9346L227.415 93.1584C229.177 93.8553 231.14 93.833 232.886 93.0962C233.64 92.7804 234.33 92.3296 234.924 91.7659C235.101 91.6188 235.233 91.425 235.307 91.2064C235.339 91.0687 235.326 90.9243 235.271 90.7945C235.215 90.6646 235.12 90.5562 234.998 90.4853C234.684 90.3388 234.358 90.2222 234.022 90.1371C232.753 89.6866 231.453 89.3293 230.132 89.0679C231.324 89.6704 232.563 90.1736 233.837 90.5723C234.128 90.666 234.413 90.7781 234.689 90.908C234.788 90.9826 234.788 91.0074 234.776 91.0696C234.716 91.1895 234.632 91.2954 234.529 91.3804C233.961 91.8706 233.319 92.2653 232.627 92.5492C231.02 93.1896 229.231 93.1896 227.625 92.5492L227.279 92.4124L227.192 92.773V92.9097C226.911 93.9451 226.304 94.861 225.463 95.5207L225.241 95.6823L225.377 95.9186C226.618 98.0767 227.33 100.502 227.452 102.993C227.563 104.858 227.341 105.977 227.439 105.989Z" fill="#83534B"/>
<path d="M237.784 104.547C237.784 104.547 237.586 104.473 237.277 104.311C237.057 104.193 236.861 104.032 236.703 103.838C236.544 103.644 236.424 103.42 236.351 103.18L236.277 102.906L236.055 103.105C234.948 104.117 233.753 105.029 232.485 105.828C231.744 106.263 230.806 106.984 230.151 106.549C229.985 106.418 229.851 106.25 229.761 106.058C229.671 105.866 229.627 105.655 229.632 105.442C229.674 104.945 229.831 104.464 230.089 104.037C230.793 102.56 231.774 101.234 232.979 100.133C233.474 99.7208 234.059 99.4333 234.687 99.2949C235.314 99.1565 235.965 99.1712 236.586 99.3377C237.456 99.6073 238.287 99.9919 239.056 100.482C239.612 100.817 239.921 101.004 239.958 100.966C239.995 100.929 239.723 100.68 239.204 100.27C238.462 99.679 237.627 99.2168 236.734 98.9025C236.094 98.6901 235.413 98.6305 234.746 98.7285C233.981 98.8649 233.261 99.1848 232.646 99.661C231.35 100.796 230.295 102.183 229.546 103.739C229.233 104.254 229.054 104.84 229.027 105.442C229.018 105.762 229.088 106.08 229.23 106.366C229.372 106.653 229.583 106.899 229.842 107.084C230.107 107.232 230.404 107.309 230.707 107.309C231.01 107.309 231.307 107.232 231.572 107.084C231.995 106.856 232.407 106.607 232.807 106.338C234.08 105.489 235.256 104.5 236.314 103.391L236.018 103.316C236.114 103.606 236.275 103.869 236.489 104.085C236.704 104.301 236.965 104.463 237.253 104.56C237.574 104.609 237.784 104.572 237.784 104.547Z" fill="#83534B"/>
<path d="M229.805 103.677C229.805 103.615 229.521 103.677 229.151 103.49C228.889 103.354 228.671 103.146 228.52 102.892C228.37 102.637 228.293 102.345 228.298 102.048C228.361 101.126 228.668 100.237 229.188 99.4746C229.789 98.4811 230.52 97.5736 231.361 96.7766C232.202 95.9672 233.089 95.2075 234.017 94.5013C234.736 93.9044 235.581 93.4794 236.487 93.258C237.342 93.0913 238.227 93.2651 238.957 93.7429C238.957 93.7429 238.858 93.4693 238.451 93.1958C237.846 92.8432 237.141 92.7073 236.45 92.8104C235.454 92.9863 234.519 93.4142 233.733 94.0537C232.758 94.7546 231.834 95.5232 230.966 96.3538C230.089 97.1947 229.336 98.1577 228.731 99.2135C228.187 100.085 227.9 101.094 227.903 102.123C227.923 102.489 228.051 102.841 228.271 103.134C228.491 103.426 228.793 103.646 229.138 103.764C229.546 103.876 229.818 103.702 229.805 103.677Z" fill="#83534B"/>
<path d="M233.559 89.3291C233.633 89.3291 233.917 89.0805 234.448 88.7323C235.127 88.2949 235.914 88.058 236.72 88.0485C237.526 88.0794 238.306 88.3427 238.968 88.8069C239.487 89.1551 239.759 89.4783 239.845 89.4162C239.932 89.354 239.771 88.9437 239.252 88.4464C238.574 87.7822 237.669 87.4044 236.723 87.3905C235.777 87.3767 234.861 87.7277 234.164 88.3718C233.645 88.8567 233.484 89.2794 233.559 89.3291Z" fill="#83534B"/>
<path d="M195.56 31.1542C196.762 30.5213 197.775 29.5773 198.495 28.4192C199.214 27.2612 199.614 25.931 199.653 24.5656C199.692 23.2003 199.369 21.8491 198.717 20.6514C198.064 19.4536 197.107 18.4525 195.942 17.7512L186.914 15.2645C186.363 26.8688 185.72 38.4317 184.987 49.9531C187.382 49.8157 189.691 49.0107 191.657 47.6281C192.625 46.9209 193.35 45.9284 193.733 44.788C194.116 43.6475 194.137 42.4155 193.793 41.2623C194.74 40.8722 195.574 40.2467 196.215 39.4444C196.857 38.642 197.286 37.6889 197.463 36.6743C197.639 35.6596 197.557 34.6165 197.224 33.6424C196.891 32.6684 196.319 31.7951 195.56 31.1044V31.1542Z" fill="#263238"/>
<path d="M151.784 27.1383L151.871 23.0229L176.572 19.2929C184.155 18.7956 192.035 26.7528 192.208 34.3868C192.405 42.8911 192.319 53.2853 191.072 59.564C188.601 72.2086 178.82 73.4519 178.82 73.4519L178.721 86.0343C178.511 93.3823 172.311 94.7375 165.012 94.5635C161.579 94.4731 158.315 93.0423 155.911 90.5735C153.507 88.1048 152.151 84.7916 152.13 81.3345L151.784 27.1383Z" fill="#FFBE9D"/>
<path d="M186.625 42.6548C186.612 43.0814 186.435 43.4862 186.13 43.7833C185.826 44.0804 185.419 44.2465 184.995 44.2463C184.787 44.2546 184.58 44.221 184.386 44.1476C184.192 44.0742 184.014 43.9623 183.863 43.8187C183.712 43.675 183.592 43.5024 183.508 43.3111C183.425 43.1197 183.38 42.9135 183.377 42.7045C183.39 42.278 183.567 41.8732 183.871 41.5761C184.176 41.279 184.583 41.1129 185.007 41.1131C185.214 41.1065 185.42 41.1412 185.614 41.2152C185.808 41.2893 185.985 41.4012 186.135 41.5446C186.286 41.6879 186.406 41.8598 186.49 42.0504C186.574 42.2409 186.62 42.4464 186.625 42.6548Z" fill="#263238"/>
<path d="M189.321 39.6957C189.111 39.9071 187.913 38.9373 186.172 38.8751C184.43 38.813 183.109 39.646 182.936 39.4222C182.763 39.1984 183.06 38.9497 183.64 38.5519C184.413 38.0578 185.319 37.8148 186.234 37.8556C187.134 37.8956 187.999 38.222 188.704 38.7881C189.247 39.2233 189.42 39.6087 189.321 39.6957Z" fill="#263238"/>
<path d="M171.724 42.6548C171.514 42.8537 170.316 41.8964 168.574 41.8218C166.833 41.7472 165.511 42.5926 165.338 42.3688C165.165 42.145 165.462 41.8964 166.042 41.5109C166.819 41.0137 167.729 40.7705 168.648 40.8147C169.548 40.8502 170.413 41.1724 171.118 41.7348C171.649 42.1699 171.822 42.5553 171.724 42.6548Z" fill="#263238"/>
<path d="M177.986 52.6263C178.916 52.3697 179.874 52.2319 180.839 52.216C181.283 52.216 181.703 52.1165 181.79 51.8181C181.848 51.3556 181.762 50.8861 181.543 50.4753C181.172 49.3688 180.777 48.2249 180.369 47.0065C178.727 42.0332 177.553 38.0297 177.751 37.9551C177.949 37.8805 179.443 41.8467 181.086 46.7827C181.469 48.026 181.851 49.1574 182.21 50.264C182.47 50.8145 182.527 51.4405 182.37 52.0295C182.299 52.1847 182.194 52.322 182.064 52.4317C181.934 52.5413 181.781 52.6205 181.617 52.6636C181.365 52.7158 181.108 52.7408 180.851 52.7382C179.895 52.8234 178.932 52.7858 177.986 52.6263Z" fill="#263238"/>
<path d="M178.797 73.4891C172.701 73.344 166.761 71.5255 161.617 68.2299C161.617 68.2299 165.545 77.3185 178.661 76.672L178.797 73.4891Z" fill="#83534B"/>
<path d="M172.795 53.6334C173.08 53.6334 173.005 55.5357 174.574 56.9531C176.142 58.3705 178.168 58.1964 178.168 58.5073C178.168 58.8181 177.711 58.8554 176.859 58.8429C175.739 58.805 174.67 58.3638 173.845 57.5996C173.048 56.8841 172.557 55.8862 172.474 54.8146C172.4 54.081 172.672 53.621 172.795 53.6334Z" fill="#263238"/>
<path d="M172.745 34.449C172.548 34.909 170.819 34.6231 168.756 34.7847C166.694 34.9464 165.051 35.4437 164.767 35.0085C164.656 34.7971 164.965 34.362 165.644 33.9268C166.558 33.3965 167.58 33.0819 168.632 33.0065C169.685 32.9311 170.741 33.097 171.72 33.4917C172.4 33.7901 172.82 34.1879 172.745 34.449Z" fill="#263238"/>
<path d="M189.498 33.6782C189.177 34.0637 187.992 33.6036 186.547 33.529C185.102 33.4544 183.867 33.6906 183.607 33.2555C183.496 33.0566 183.694 32.6587 184.249 32.2981C184.986 31.8739 185.831 31.6793 186.678 31.7391C187.524 31.7988 188.334 32.1103 189.004 32.6338C189.499 33.069 189.696 33.4917 189.498 33.6782Z" fill="#263238"/>
<path d="M197.1 23.1845C198.386 22.3266 199.393 21.1061 199.995 19.6755C200.597 18.2449 200.767 16.6675 200.484 15.1402C200.155 13.6247 199.445 12.2195 198.422 11.0592C197.399 9.89892 196.098 9.02232 194.642 8.51333C194.05 8.3209 193.443 8.18356 192.826 8.10303C191.654 7.36611 190.316 6.93851 188.936 6.85971C188.808 6.04142 188.447 5.27802 187.897 4.66224C187.347 4.04645 186.631 3.60477 185.836 3.39085C184.237 2.99912 182.568 2.99912 180.97 3.39085C180.203 2.33979 179.202 1.48514 178.046 0.896054C176.891 0.306969 175.614 0 174.319 0C173.024 0 171.747 0.306969 170.591 0.896054C169.436 1.48514 168.435 2.33979 167.668 3.39085C166.789 2.81496 165.79 2.45288 164.748 2.33325C163.706 2.21363 162.651 2.33974 161.666 2.70162C160.681 3.0635 159.793 3.65121 159.073 4.41823C158.353 5.18524 157.82 6.11052 157.516 7.12081C156.594 7.11446 155.68 7.29753 154.831 7.65881C153.981 8.0201 153.214 8.55201 152.576 9.22202C151.598 10.5113 150.769 11.9087 150.106 13.3871C148.557 13.5016 147.081 14.0901 145.874 15.0738C144.668 16.0574 143.789 17.389 143.357 18.8898C142.924 20.3907 142.957 21.989 143.453 23.47C143.948 24.9511 144.882 26.2441 146.129 27.1755C145.324 27.909 144.701 28.822 144.31 29.8413C143.918 30.8607 143.769 31.9581 143.875 33.0458C143.981 34.1334 144.338 35.1811 144.918 36.1048C145.498 37.0286 146.285 37.8027 147.215 38.3654C146.806 39.5029 146.632 40.7123 146.702 41.92C146.772 43.1277 147.085 44.3084 147.623 45.3902C148.047 46.3538 148.807 47.1278 149.76 47.566C149.79 47.7381 149.853 47.9028 149.945 48.0509C150.649 49.2942 152.526 48.8342 153.65 47.9887C156.304 45.7812 158.141 42.7366 158.862 39.3476C159.751 36.028 160.097 32.5716 160.925 29.2519C160.925 29.1773 160.925 29.0903 160.925 29.0157C161.286 27.6371 161.958 26.3608 162.888 25.2857C163.822 26.0475 164.809 26.7414 165.84 27.362C167.748 28.3554 169.922 28.709 172.044 28.3713C174.165 28.0335 176.124 27.0221 177.635 25.4846C180.184 27.8106 183.461 29.1653 186.898 29.314C190.252 29.6412 193.613 28.7601 196.383 26.8274C197.085 26.293 197.628 25.5747 197.952 24.7511C198.003 24.4317 197.947 24.1043 197.793 23.8206C197.638 23.5369 197.394 23.3131 197.1 23.1845Z" fill="#263238"/>
<path d="M153.168 44.0475C153.007 43.948 146.486 41.163 145.893 48.1255C145.301 55.0881 152.365 54.2551 152.39 54.0562C152.415 53.8573 153.168 44.0475 153.168 44.0475Z" fill="#FFBE9D"/>
<path d="M150.51 51.2337C150.51 51.2337 150.386 51.3083 150.176 51.3829C149.879 51.4776 149.557 51.4554 149.275 51.3208C148.852 50.998 148.522 50.5673 148.32 50.0732C148.118 49.5792 148.051 49.0398 148.126 48.5109C148.155 47.9134 148.319 47.3305 148.608 46.8075C148.691 46.5943 148.824 46.4047 148.996 46.2552C149.168 46.1057 149.374 46.0008 149.596 45.9496C149.738 45.9237 149.884 45.9495 150.008 46.0225C150.133 46.0954 150.228 46.2106 150.275 46.3475C150.349 46.5464 150.275 46.6832 150.337 46.6956C150.399 46.7081 150.485 46.5962 150.46 46.2978C150.431 46.1238 150.349 45.9631 150.226 45.8377C150.044 45.6797 149.811 45.5955 149.571 45.6015C149.284 45.6358 149.01 45.7427 148.774 45.9123C148.539 46.0818 148.35 46.3085 148.225 46.5713C147.88 47.1534 147.677 47.8096 147.632 48.486C147.547 49.1032 147.645 49.7319 147.913 50.2936C148.181 50.8552 148.607 51.3249 149.139 51.644C149.322 51.7098 149.516 51.736 149.71 51.721C149.904 51.706 150.092 51.6501 150.263 51.557C150.485 51.3954 150.535 51.2462 150.51 51.2337Z" fill="#83534B"/>
<path d="M200.147 13.984C200.156 14.0376 200.156 14.0921 200.147 14.1456C200.191 14.3133 200.224 14.4835 200.246 14.6554C200.338 15.5073 200.226 16.3689 199.921 17.1688C199.616 17.9688 199.127 18.6841 198.493 19.2557C197.446 20.1662 196.096 20.6457 194.713 20.5985L194.837 20.499C194.352 22.7344 193.242 24.7835 191.638 26.4048C190.74 27.3335 189.659 28.0621 188.464 28.5433C187.183 29.0287 185.797 29.1575 184.45 28.9163C183.133 28.6901 181.855 28.2712 180.658 27.673C179.507 27.1569 178.457 26.4367 177.558 25.5469H177.768C176.075 27.0499 174.01 28.0638 171.79 28.4811C170.027 28.7108 168.235 28.4574 166.603 27.7475C165.536 27.2985 164.555 26.6676 163.701 25.8826C163.474 25.68 163.26 25.4641 163.059 25.236C162.984 25.1571 162.914 25.0741 162.849 24.9874C162.849 24.9874 163.157 25.2982 163.763 25.808C164.636 26.547 165.62 27.1428 166.677 27.5735C168.282 28.2416 170.033 28.469 171.753 28.2324C173.914 27.7968 175.921 26.793 177.571 25.3231L177.682 25.236L177.781 25.3355C178.66 26.1862 179.68 26.8762 180.794 27.3745C181.967 27.9375 183.215 28.327 184.499 28.5308C185.819 28.7945 187.185 28.6913 188.451 28.2324C189.607 27.7656 190.654 27.0629 191.527 26.1685C193.095 24.5899 194.19 22.5995 194.689 20.4244V20.3125H194.8C196.123 20.3752 197.42 19.931 198.431 19.0692C199.198 18.4183 199.757 17.553 200.036 16.5825C200.216 15.9614 200.287 15.3135 200.246 14.6678C200.185 14.2202 200.123 13.984 200.147 13.984Z" fill="#455A64"/>
<path d="M151.124 13.1261C150.806 13.886 150.554 14.6722 150.371 15.476C149.93 17.5919 150.182 19.7944 151.087 21.7547V21.8542L151 21.9288C150.095 22.6317 149.395 23.5683 148.975 24.6392C148.502 25.8237 148.403 27.126 148.691 28.3692C149.075 29.9658 150.046 31.3565 151.408 32.2608L151.532 32.3478L151.457 32.4721C150.705 33.7759 150.332 35.2669 150.383 36.774C150.408 37.9632 150.673 39.1348 151.161 40.218C151.622 41.1779 152.235 42.0556 152.977 42.8166L152.804 42.6798C152.637 42.5469 152.48 42.4014 152.334 42.2446C151.787 41.6713 151.337 41.012 151 40.2926C150.466 39.1948 150.167 37.9959 150.124 36.774C150.058 35.2141 150.43 33.6671 151.198 32.3105V32.5219C149.76 31.5836 148.738 30.1226 148.345 28.4438C148.036 27.1474 148.14 25.7859 148.642 24.5522C149.085 23.4331 149.824 22.4572 150.778 21.7299V21.9039C149.861 19.8878 149.639 17.621 150.148 15.4635C150.288 14.8634 150.491 14.2799 150.753 13.7229C150.84 13.524 150.926 13.3872 150.976 13.2877C151.014 13.2247 151.065 13.1698 151.124 13.1261Z" fill="#455A64"/>
<path d="M147.067 52.7009C147.067 52.6263 146.524 52.7879 145.733 53.335C144.613 54.1384 143.696 55.1943 143.053 56.4184C142.562 57.3532 142.266 58.379 142.183 59.4331C142.101 60.4872 142.233 61.5472 142.572 62.548C142.985 63.7658 143.74 64.8369 144.745 65.6314C145.848 66.4819 147.197 66.9449 148.586 66.9493C149.997 66.962 151.36 66.438 152.403 65.4822C153.321 64.6192 154.031 63.5559 154.478 62.3739C155.182 60.3535 155.133 58.1446 154.342 56.1573C153.774 54.8757 152.83 53.7997 151.637 53.0739C150.822 52.5641 150.315 52.4274 150.278 52.502C150.241 52.5766 150.649 52.8874 151.328 53.4966C152.283 54.2978 153.015 55.3345 153.452 56.5055C153.998 58.2534 153.95 60.1342 153.317 61.8517C152.551 63.7167 150.846 65.5817 148.586 65.5817C147.49 65.5728 146.426 65.2112 145.548 64.5497C144.724 63.9107 144.098 63.048 143.745 62.0631C143.111 60.3471 143.174 58.4493 143.918 56.779C144.439 55.6265 145.168 54.581 146.067 53.6955C146.709 53.0988 147.129 52.7879 147.067 52.7009Z" fill="#E0E0E0"/>
<path d="M197.556 85.5991C197.556 85.5991 207.017 88.5707 209.561 104.249C211.376 115.439 208.017 144.408 208.017 144.408C208.017 144.408 218.54 150.065 217.898 150.277C217.255 150.488 211.166 179.171 198.952 176.312C186.737 173.452 185.638 155.101 185.638 155.101L197.556 85.5991Z" fill="#FF725E"/>
<path d="M185.747 172.457C185.891 172.267 186.007 172.058 186.093 171.836C186.398 171.227 186.654 170.595 186.859 169.946C187.602 167.555 188.062 165.085 188.23 162.585C188.404 158.905 188.767 155.237 189.317 151.594C189.698 149.478 190.406 147.435 191.416 145.539C192.528 143.625 194.183 141.921 195.455 139.82C196.622 137.752 197.506 135.536 198.086 133.231C198.591 131.088 198.901 128.903 199.012 126.703C199.107 123 199.008 119.293 198.716 115.6C198.506 112.455 198.407 109.906 198.444 108.14C198.481 106.375 198.555 105.405 198.444 105.405C198.373 105.631 198.331 105.865 198.32 106.101C198.32 106.561 198.172 107.245 198.147 108.128C198.036 110.614 198.057 113.104 198.209 115.588C198.333 118.746 198.592 122.501 198.37 126.641C198.244 128.8 197.925 130.943 197.419 133.044C196.85 135.282 195.99 137.435 194.862 139.447C193.627 141.474 191.984 143.177 190.823 145.191C189.784 147.136 189.059 149.234 188.674 151.408C188.158 155.076 187.845 158.77 187.736 162.473C187.609 164.95 187.216 167.406 186.563 169.797C186.389 170.448 186.175 171.088 185.92 171.711C185.842 171.955 185.784 172.204 185.747 172.457Z" fill="#263238"/>
<path d="M237.46 152.465C237.855 152.564 240.412 151.769 240.708 153.957C241.005 156.145 239.535 156.145 236.867 156.543C234.2 156.941 223.035 160.621 223.035 160.621C223.035 160.621 227.283 162.312 226.888 164.587C226.493 166.862 225.653 166.676 223.726 166.676H220.861C220.861 166.676 220.861 171.649 218.687 171.836C218.687 172.316 218.582 172.79 218.378 173.224C218.174 173.657 217.877 174.04 217.509 174.345C217.14 174.649 216.709 174.868 216.246 174.984C215.784 175.101 215.301 175.112 214.834 175.019C210.98 174.72 199.025 171.289 199.025 171.289L198.235 156.369C198.235 156.369 209.004 152.639 210.981 152.987C212.23 153.276 213.366 153.934 214.241 154.877L237.46 152.465Z" fill="#FFBE9D"/>
<path d="M198.241 156.443L165.215 156.903L166.475 175.541L199.031 171.351L198.241 156.443Z" fill="#FFBE9D"/>
<path d="M193.567 153.982C194.11 153.291 194.594 152.554 195.012 151.781C195.877 150.413 197.124 148.548 198.532 146.497C200.305 144.097 201.954 141.607 203.473 139.037C202.802 139.613 202.212 140.278 201.719 141.014C200.718 142.257 199.36 144.11 198.014 146.161C196.667 148.213 195.408 150.14 194.63 151.582C194.146 152.317 193.787 153.128 193.567 153.982Z" fill="#263238"/>
<path d="M148.459 146.348C148.779 146.474 149.116 146.549 149.459 146.571C150.382 146.723 151.316 146.798 152.25 146.795C158.512 146.852 164.575 144.586 169.282 140.429C169.991 139.818 170.647 139.148 171.246 138.428C171.491 138.182 171.699 137.901 171.863 137.595C171.777 137.508 170.801 138.614 168.986 140.081C166.617 141.992 163.961 143.511 161.118 144.582C158.272 145.632 155.28 146.228 152.25 146.348C149.916 146.41 148.471 146.211 148.459 146.348Z" fill="#263238"/>
<path d="M217.928 150.314L227.648 120.673L215.952 114.457L202.861 140.342C202.861 140.342 208.505 154.292 217.928 150.314Z" fill="#FFBE9D"/>
<path d="M165.209 156.903C164.95 156.692 146.226 152.962 146.226 152.962L142.756 145.726C142.756 145.726 138.433 102.371 137.655 97.5349C136.753 92.0146 135.358 77.6418 135.358 77.6418C135.358 77.6418 121.685 79.7182 119.302 91.7784C117.671 99.9967 119.302 142.394 120.537 151.01C121.772 159.626 123.797 167.894 132.072 174.024C137.655 178.164 166.469 175.566 166.469 175.566L165.209 156.903Z" fill="#FF725E"/>
<path d="M120.062 146.746C120.051 146.853 120.051 146.961 120.062 147.069C120.062 147.33 120.136 147.641 120.173 148.051C120.284 148.897 120.444 150.165 120.691 151.781C120.938 153.397 121.272 155.399 121.766 157.687C122.254 160.323 123.033 162.896 124.088 165.358C125.395 168.381 127.428 171.03 130.004 173.067C133.133 175.228 136.798 176.472 140.588 176.66C142.564 176.859 144.602 176.909 146.677 176.958L153.038 177.083C157.542 177.207 162.049 176.953 166.512 176.324H166.809V176.038C166.611 173.054 166.413 169.921 166.203 166.738C165.993 163.555 165.759 160.136 165.549 156.941V156.692H165.302L146.035 152.415L146.245 152.577C145.005 149.625 144.234 146.495 143.96 143.302C143.626 140.231 143.33 137.309 143.034 134.598C142.453 129.09 141.947 124.242 141.527 120.213C141.107 116.185 140.749 113.077 140.502 110.851C140.378 109.807 140.279 108.974 140.205 108.364C140.205 108.103 140.144 107.892 140.119 107.718C140.094 107.544 140.119 107.506 140.119 107.506C140.119 107.506 140.119 107.581 140.119 107.73V108.364C140.119 108.974 140.242 109.807 140.329 110.851C140.526 113.077 140.811 116.247 141.181 120.226C141.552 124.204 142.033 129.115 142.552 134.623C142.824 137.392 143.116 140.318 143.429 143.401C143.697 146.655 144.468 149.848 145.714 152.863L145.775 153H145.924L165.191 157.326L164.944 157.028C165.158 160.236 165.372 163.501 165.586 166.825C165.796 170.008 166.006 173.154 166.191 176.125L166.463 175.79C162.033 176.418 157.559 176.676 153.087 176.56L146.739 176.461C144.664 176.461 142.638 176.374 140.687 176.2C136.992 176.034 133.414 174.842 130.35 172.756C127.83 170.787 125.828 168.225 124.52 165.296C123.459 162.874 122.66 160.343 122.136 157.749C121.63 155.461 121.26 153.484 120.975 151.868C120.691 150.252 120.494 149.046 120.346 148.138C120.271 147.74 120.222 147.429 120.173 147.181C120.167 147.029 120.129 146.881 120.062 146.746Z" fill="#263238"/>
<path d="M132.16 82.4784C133.533 84.4636 134.771 86.5406 135.865 88.695C136.767 90.9345 137.522 93.2313 138.125 95.5705C138.048 93.1011 137.482 90.6721 136.459 88.426C135.437 86.1799 133.979 84.1621 132.172 82.4908L132.16 82.4784Z" fill="#263238"/>
<path d="M134.119 154.79C135.91 153.615 137.924 152.826 140.033 152.475C142.142 152.125 144.3 152.218 146.371 152.751C145.844 152.357 145.229 152.101 144.58 152.005C143.056 151.627 141.472 151.568 139.924 151.831C138.374 152.093 136.892 152.664 135.564 153.509C134.527 154.168 134.033 154.74 134.119 154.79Z" fill="#263238"/>
<path d="M158.221 182.988C158.16 183.187 158.119 183.391 158.097 183.597C158.023 184.058 157.949 184.629 157.85 185.326C157.653 186.843 157.394 189.056 157.134 191.729C156.603 197.15 156.035 204.647 155.454 212.927C154.874 221.208 154.343 228.618 153.96 234.126C153.75 236.762 153.577 238.938 153.454 240.554C153.454 241.25 153.355 241.797 153.318 242.295C153.285 242.501 153.285 242.71 153.318 242.916C153.386 242.723 153.432 242.523 153.454 242.319C153.454 241.847 153.602 241.275 153.701 240.579C153.898 239.074 154.145 236.849 154.405 234.176C154.948 228.755 155.516 221.258 156.097 212.977C156.677 204.697 157.196 197.299 157.591 191.841C157.801 189.205 157.962 187.029 158.097 185.413C158.097 184.717 158.184 184.169 158.221 183.672C158.26 183.446 158.26 183.215 158.221 182.988Z" fill="#455A64"/>
<path d="M113.356 195.546C113.647 195.732 113.963 195.874 114.295 195.969C114.673 196.12 115.061 196.245 115.456 196.341C115.972 196.488 116.496 196.609 117.024 196.702C118.406 196.946 119.809 197.046 121.211 197C122.931 196.938 124.638 196.679 126.3 196.23C127.956 195.758 129.554 195.104 131.067 194.278C132.299 193.602 133.454 192.793 134.513 191.866C134.923 191.518 135.315 191.149 135.686 190.759C135.977 190.473 136.245 190.166 136.489 189.839C136.909 189.317 137.119 189.018 137.082 188.993C137.045 188.969 136.057 190.05 134.229 191.48C133.148 192.327 131.995 193.076 130.783 193.718C129.296 194.491 127.736 195.111 126.127 195.571C124.511 196.004 122.856 196.27 121.187 196.366C119.822 196.439 118.453 196.385 117.098 196.205C114.777 195.931 113.393 195.421 113.356 195.546Z" fill="#455A64"/>
<path d="M183.061 186.967C183.262 187.83 183.614 188.651 184.098 189.391C185.152 191.269 186.518 192.952 188.137 194.365C189.738 195.775 191.562 196.905 193.534 197.709C194.333 198.094 195.195 198.33 196.078 198.405C193.372 197.261 190.84 195.737 188.557 193.88C186.413 191.845 184.563 189.518 183.061 186.967Z" fill="#455A64"/>
<path d="M158.821 328.121C159.949 327.824 161.042 327.407 162.082 326.878C164.656 325.73 167.17 324.452 169.616 323.048C172.481 321.407 174.988 319.766 176.742 318.51C177.731 317.881 178.654 317.152 179.496 316.334C178.45 316.85 177.446 317.448 176.495 318.125C174.679 319.281 172.148 320.86 169.295 322.489C166.442 324.117 163.811 325.485 161.884 326.467C160.821 326.935 159.797 327.488 158.821 328.121Z" fill="#455A64"/>
</svg>
