<svg width="216" height="300" viewBox="0 0 216 300" fill="none" xmlns="http://www.w3.org/2000/svg">
<path d="M37.7795 9.60475C35.4869 8.02147 32.7855 7.13477 30.0006 7.05145C27.2156 6.96813 24.466 7.69175 22.0829 9.13515C19.6997 10.5785 17.7847 12.6802 16.5685 15.1869C15.3523 17.6936 14.8867 20.4984 15.2278 23.2636C15.5882 26.1349 16.7972 29.0178 16.0648 31.8193C14.6815 37.0504 7.29987 39.0963 6.32341 44.4203C5.9398 46.5244 6.68379 48.64 7.2534 50.6976C7.823 52.7551 8.17173 55.0801 7.10227 56.9284C6.32343 58.3001 4.89362 59.1603 3.77766 60.2762C0.174047 63.8682 0.290278 70.1688 3.25454 74.2257C6.21881 78.2827 11.601 80.2938 16.6809 80.131C21.7799 79.7583 26.6966 78.0767 30.9559 75.2487" fill="#263238"/>
<path d="M33.0339 11.3717C33.8692 8.95003 35.3146 6.78459 37.2307 5.08435C39.1468 3.38412 41.4688 2.20651 43.9726 1.66515C48.9363 0.502693 55.0973 -1.14799 59.6425 1.1653C62.4789 2.61837 65.199 4.72241 66.315 7.70992C67.6402 11.1973 65.6059 17.8465 64.583 21.4967C63.56 25.1468 62.8044 29.2851 64.8154 32.4935C66.8265 35.7019 70.744 36.8178 73.2084 39.5496C74.8456 41.5088 75.6546 44.029 75.4636 46.575C75.2726 49.121 74.0966 51.4923 72.1854 53.1852C76.5795 52.9295 80.3226 57.405 80.125 61.799C79.9274 66.1931 76.7655 70.0525 72.848 72.0403C68.9305 74.0281 64.397 74.4466 60.0029 74.4582C54.5339 74.4707 49.0788 73.9057 43.7285 72.7726C39.3344 71.8427 34.7543 70.3663 31.8946 66.9022C29.2675 63.7171 28.5352 59.3695 28.5352 55.2777C28.5352 40.6656 36.1725 26.2162 32.8479 11.9645" fill="#263238"/>
<path d="M59.2616 119.747L64.8996 137.394C65.971 140.992 68.0152 144.225 70.8069 146.735C73.5985 149.246 77.0291 150.937 80.7206 151.622L118.373 158.597L128.614 158.271L118.373 145.624L90.0784 135.975C88.7212 135.681 87.4707 135.02 86.4624 134.065C85.4542 133.11 84.7267 131.898 84.3591 130.558L73.0368 106.042L58.7734 114.795L59.2616 119.747Z" fill="#FFBE9D"/>
<path d="M3.74974 102.485C4.27284 105.217 12.2357 125.095 12.2357 125.095C12.2357 125.095 43.2268 114.633 42.8199 113.04C42.4828 111.796 36.531 91.895 29.3935 80.8749C28.051 78.7467 26.2289 76.9622 24.0731 75.6643C21.9173 74.3663 19.4876 73.591 16.9785 73.4004C15.5836 73.3074 12.5612 74.7604 11.7358 75.2254C5.21443 78.9104 -0.330486 81.3864 3.74974 102.485Z" fill="#455A64"/>
<path d="M47.4589 63.9729C61.4781 65.5422 63.7333 75.0627 70.2896 84.4437L79.7403 101.881L62.3034 112.54L62.9079 139.277L71.1846 164.851L5.79643 158.701L11.8296 136.801L3.12276 102.415C2.46016 97.7655 0.658381 89.0122 1.87896 84.4088C5.68019 70.006 20.6643 65.8095 30.9404 63.1126C33.0677 62.5663 43.3205 62.6011 45.0991 63.0313" fill="#FF725E"/>
<path d="M4.32422 102.206L4.46371 102.578C4.54508 102.845 4.67295 103.217 4.82407 103.682C5.13793 104.67 5.59128 106.089 6.16088 107.902C7.32334 111.575 8.93916 116.818 10.927 123.177L10.7061 123.072L39.7675 112.331L40.4882 112.029L40.372 112.273C38.6082 105.724 36.3265 99.3259 33.5484 93.1389C31.3982 88.0481 28.4815 83.3163 24.8997 79.108C23.4994 77.5245 21.8455 76.1849 20.0058 75.144C18.6245 74.3492 17.0752 73.8912 15.4838 73.8072C15.1779 73.7902 14.8713 73.7902 14.5655 73.8072L13.7517 73.8886L13.0659 73.97L12.5079 74.1211L11.7407 74.3187L11.4733 74.3768C11.5518 74.3296 11.6386 74.298 11.7291 74.2838L12.4847 74.0397L13.0426 73.877C13.2727 73.8273 13.5056 73.7924 13.7401 73.7723L14.5538 73.6677C14.8673 73.6445 15.182 73.6445 15.4954 73.6677C17.1269 73.7253 18.7211 74.1717 20.1452 74.9697C22.0174 76.003 23.7031 77.3429 25.1322 78.9336C28.7735 83.138 31.7383 87.8833 33.9204 92.9994C36.7263 99.2002 39.0239 105.619 40.7905 112.192V112.366L40.6277 112.436L39.8954 112.738C28.9915 116.818 18.8782 120.445 10.7526 123.409L10.5898 123.479V123.305C8.67179 116.923 7.10247 111.68 5.94002 107.983C5.39366 106.158 4.97519 104.729 4.68458 103.729C4.54508 103.264 4.44046 102.892 4.35909 102.566C4.33885 102.447 4.3272 102.327 4.32422 102.206Z" fill="#263238"/>
<path d="M39.3224 108.321C39.3224 108.425 32.6383 110.75 24.3151 113.505C15.9919 116.26 9.20312 118.411 9.20312 118.294C9.20312 118.178 15.8873 115.865 24.2221 113.11C32.5569 110.355 39.2526 108.204 39.3224 108.321Z" fill="#263238"/>
<g opacity="0.3">
<path opacity="0.3" d="M12.3398 122.7C13.6016 128.393 15.2364 133.996 17.2338 139.474C18.4846 142.958 20.2647 146.228 22.5113 149.169C25.8333 153.001 30.266 155.703 35.1938 156.9C40.094 158.084 45.1737 158.332 50.1662 157.632L25.278 143.566L18.652 120.561L12.3398 122.7Z" fill="black"/>
</g>
<path d="M15.2031 121.398L21.3409 141.485C22.4017 145.102 24.44 148.357 27.2314 150.89C30.0229 153.423 33.4592 155.136 37.162 155.842L74.8139 162.991L85.0552 162.665L74.8139 149.82L46.5081 140.056C45.1442 139.75 43.8905 139.076 42.8839 138.106C41.8773 137.136 41.1565 135.909 40.8004 134.557L35.5578 114.342L15.2031 121.398Z" fill="#FFBE9D"/>
<path d="M62.9684 138.579C62.868 137.952 62.8097 137.319 62.7941 136.684C62.7359 135.348 62.643 133.604 62.5383 131.488C62.3523 127.106 62.1431 121.026 61.9339 114.365C61.7246 107.704 61.5851 101.578 61.5037 97.2307C61.5037 95.115 61.5037 93.3714 61.4456 92.0345C61.4182 91.3985 61.4376 90.7613 61.5037 90.1281C61.6193 90.7531 61.6777 91.3873 61.6781 92.0229C61.7479 93.3597 61.8292 95.1034 61.9339 97.2191C62.1199 101.602 62.3407 107.681 62.5383 114.342C62.7359 121.003 62.8987 127.129 62.9684 131.477C62.9684 133.592 62.9684 135.348 63.0382 136.673C63.0746 137.309 63.0513 137.947 62.9684 138.579Z" fill="#263238"/>
<g opacity="0.3">
<path opacity="0.3" d="M58.8191 121.398C59.5049 121.84 57.738 125.781 54.0763 129.535C50.4145 133.29 46.5319 135.15 46.0785 134.464C45.6252 133.778 48.4965 130.977 51.8908 127.42C55.2852 123.863 58.0983 120.945 58.8191 121.398Z" fill="black"/>
</g>
<path d="M77.2224 97.2423C74.8845 98.9553 72.434 100.509 69.8873 101.892C67.4381 103.45 64.8821 104.833 62.2383 106.031C67.0209 102.75 72.0279 99.8097 77.2224 97.2307V97.2423Z" fill="#263238"/>
<path d="M35.5356 98.4281C35.5356 98.4862 35.0706 98.3583 34.2685 98.4281C33.1243 98.5343 32.0271 98.9348 31.0834 99.5905C29.6737 100.565 28.396 101.717 27.2822 103.02C25.8963 104.711 24.0517 105.966 21.9698 106.635C19.6448 107.158 17.4362 106.344 15.5879 105.821C14.0003 105.214 12.2886 105.002 10.6009 105.205C9.48057 105.401 8.46889 105.995 7.7529 106.879C7.52145 107.23 7.31929 107.599 7.14844 107.983C7.14844 107.983 7.14844 107.856 7.14844 107.635C7.23312 107.318 7.36644 107.016 7.54367 106.74C8.23788 105.736 9.2905 105.037 10.4847 104.787C12.2455 104.506 14.0486 104.674 15.7274 105.275C17.5873 105.786 19.6913 106.53 21.807 106.054C23.7779 105.402 25.5287 104.214 26.8637 102.625C28.0287 101.315 29.3661 100.169 30.8393 99.2186C31.8583 98.5723 33.0386 98.2258 34.2453 98.2188C34.5674 98.2172 34.8882 98.2603 35.1985 98.3467C35.431 98.37 35.5472 98.4048 35.5356 98.4281Z" fill="#FAFAFA"/>
<path d="M62.5696 94.1502C62.1903 94.0432 61.8006 93.977 61.4072 93.9526C60.3452 94.0308 59.3338 94.437 58.5127 95.1151C57.9547 95.4987 57.3502 95.9869 56.676 96.4403C55.9244 96.9383 55.0701 97.2602 54.1767 97.3818C52.1421 97.5526 50.1004 97.1499 48.283 96.2194C46.5475 95.2986 44.7579 94.4834 42.9241 93.7782C41.4499 93.2313 39.8371 93.1823 38.3324 93.6387C37.3109 93.9349 36.4134 94.5551 35.775 95.4057C35.3565 96.0102 35.2519 96.4402 35.1938 96.4286C35.1357 96.417 35.1938 96.3124 35.1938 96.1148C35.2668 95.8197 35.3844 95.5374 35.5425 95.2778C36.1468 94.3122 37.0734 93.5915 38.1581 93.2435C39.7462 92.6889 41.4755 92.6889 43.0636 93.2435C44.932 93.9242 46.75 94.736 48.5039 95.673C50.2166 96.5568 52.1372 96.9586 54.0605 96.8355C55.6072 96.512 57.0445 95.7954 58.2337 94.7547C59.136 94.0722 60.2411 93.712 61.3723 93.7317C61.681 93.748 61.9825 93.8313 62.2558 93.9759C62.4418 94.0572 62.5696 94.127 62.5696 94.1502Z" fill="#FAFAFA"/>
<path d="M61.0625 99.9625C61.7991 99.7748 62.5126 99.5058 63.1898 99.1604C64.7077 98.1039 66.013 96.7709 67.0375 95.2313C68.1263 93.6206 69.6558 92.3575 71.4432 91.5928C71.8116 91.4393 72.2067 91.3603 72.6057 91.3603C73.0047 91.3603 73.3998 91.4393 73.7681 91.5928C73.0119 91.617 72.2635 91.7542 71.5478 91.9997C69.9073 92.8453 68.5046 94.0881 67.4676 95.6149C66.4052 97.2175 64.9996 98.5635 63.3525 99.5556C62.6646 99.9666 61.8499 100.111 61.0625 99.9625Z" fill="#FAFAFA"/>
<path d="M164.729 293.767L164.543 281.934L142.375 282.143L142.468 299.463L143.84 299.533C149.966 299.812 174.982 300.544 179.062 299.266C183.607 297.836 164.729 293.767 164.729 293.767Z" fill="#FF725E"/>
<g opacity="0.4">
<path opacity="0.4" d="M173.96 296.092C173.96 296.092 180.574 297.929 179.772 299.022C178.97 300.114 153.652 300.335 142.48 299.463V298.963H172.007C172.007 298.963 172.669 296.15 173.96 296.092Z" fill="white"/>
</g>
<path d="M142.14 298.952H142.524L143.616 299.01L147.65 299.149C151.056 299.242 155.787 299.312 160.96 299.266C166.133 299.219 170.864 299.091 174.259 298.94L178.293 298.743L179.385 298.661C179.512 298.68 179.642 298.68 179.769 298.661H179.385H178.223L174.201 298.777C170.795 298.87 166.064 298.987 160.902 299.022C155.741 299.056 150.998 299.022 147.604 299.022H143.57H142.082L142.14 298.952Z" fill="#263238"/>
<path d="M172.014 299.254C172.186 298.586 172.432 297.939 172.746 297.324C173.138 296.758 173.594 296.239 174.107 295.778C173.423 296.034 172.859 296.535 172.526 297.185C172.107 297.789 171.925 298.525 172.014 299.254Z" fill="#263238"/>
<path d="M165.451 296.046C165.451 296.046 165.823 295.697 166.137 295.185C166.451 294.674 166.672 294.221 166.602 294.186C166.532 294.151 166.23 294.535 165.916 295.046C165.602 295.557 165.393 295.999 165.451 296.046Z" fill="#263238"/>
<path d="M163.704 295.104C163.704 295.162 164.099 294.93 164.483 294.581C164.866 294.232 165.122 293.907 165.076 293.849C165.029 293.791 164.68 294.035 164.297 294.383C163.913 294.732 163.599 295.058 163.704 295.104Z" fill="#263238"/>
<path d="M162.543 293.023C162.543 293.105 163.054 293.163 163.705 293.163C164.098 293.203 164.494 293.16 164.868 293.035C164.497 292.897 164.098 292.849 163.705 292.895C163.313 292.853 162.916 292.896 162.543 293.023Z" fill="#263238"/>
<path d="M162.09 291.559C162.492 291.766 162.933 291.889 163.385 291.919C163.837 291.949 164.291 291.886 164.717 291.733C163.841 291.683 162.965 291.624 162.09 291.559Z" fill="#263238"/>
<path d="M166.18 294.104C166.653 294.184 167.136 294.184 167.609 294.104C168.123 294.035 168.629 293.919 169.121 293.756C169.42 293.669 169.709 293.548 169.981 293.395C170.15 293.294 170.275 293.132 170.33 292.942C170.351 292.836 170.341 292.726 170.302 292.625C170.263 292.524 170.196 292.437 170.109 292.372C169.562 292.113 168.942 292.051 168.355 292.197C167.768 292.344 167.25 292.689 166.889 293.174C166.671 293.456 166.516 293.781 166.435 294.128C166.405 294.254 166.405 294.385 166.435 294.511C166.578 294.089 166.795 293.696 167.075 293.349C167.378 292.976 167.781 292.698 168.237 292.547C168.513 292.451 168.805 292.411 169.096 292.429C169.388 292.447 169.672 292.523 169.934 292.651C170.167 292.814 170.074 293.081 169.83 293.233C169.574 293.374 169.306 293.491 169.028 293.581C168.55 293.749 168.06 293.881 167.563 293.977C166.726 294.046 166.18 294.058 166.18 294.104Z" fill="#263238"/>
<path d="M166.552 294.174C166.726 293.872 166.78 293.515 166.703 293.174C166.659 292.802 166.523 292.447 166.308 292.14C166.188 291.934 166.019 291.76 165.816 291.634C165.614 291.508 165.383 291.435 165.145 291.419C165.001 291.453 164.875 291.54 164.793 291.663C164.711 291.786 164.679 291.936 164.703 292.082C164.743 292.31 164.831 292.528 164.959 292.721C165.148 293.034 165.375 293.323 165.633 293.581C165.858 293.835 166.141 294.031 166.459 294.151C166.459 294.151 166.168 293.895 165.773 293.442C165.542 293.181 165.339 292.897 165.168 292.593C164.971 292.291 164.831 291.756 165.168 291.687C165.505 291.617 165.889 292 166.11 292.291C166.311 292.564 166.45 292.877 166.517 293.209C166.559 293.529 166.571 293.852 166.552 294.174Z" fill="#263238"/>
<path d="M142.551 292.884C142.551 292.884 143.179 292.814 144.19 292.884C145.495 293.018 146.736 293.518 147.77 294.325C148.819 295.133 149.624 296.215 150.095 297.452C150.432 298.405 150.479 299.045 150.525 299.033C150.548 298.887 150.548 298.738 150.525 298.591C150.478 298.197 150.393 297.807 150.27 297.429C149.861 296.129 149.068 294.983 147.995 294.142C146.922 293.302 145.62 292.806 144.26 292.721C143.854 292.681 143.445 292.681 143.039 292.721C142.702 292.826 142.551 292.861 142.551 292.884Z" fill="#263238"/>
<path d="M144.769 283.642C144.619 285.152 144.564 286.671 144.606 288.188C144.564 289.707 144.603 291.229 144.723 292.744C144.873 291.23 144.927 289.708 144.885 288.188C144.927 286.671 144.889 285.154 144.769 283.642Z" fill="#263238"/>
<path d="M153.246 297.022C154.31 297.257 155.4 297.355 156.489 297.313C157.578 297.362 158.668 297.269 159.733 297.034C159.733 296.952 158.28 297.034 156.489 297.034C154.699 297.034 153.246 296.929 153.246 297.022Z" fill="#263238"/>
<path d="M148.93 297.057C148.93 297.115 149.046 297.359 149.197 297.696C149.348 298.034 149.43 298.313 149.511 298.313C149.592 298.313 149.616 297.964 149.441 297.58C149.267 297.197 148.976 296.999 148.93 297.057Z" fill="#263238"/>
<path d="M147.27 295.034C147.27 295.034 147.363 295.313 147.595 295.546C147.828 295.778 148.06 295.918 148.107 295.871C148.153 295.825 148.014 295.581 147.781 295.348C147.549 295.116 147.328 294.976 147.27 295.034Z" fill="#263238"/>
<path d="M144.923 294.116C144.923 294.197 145.237 294.186 145.562 294.302C145.888 294.418 146.12 294.581 146.178 294.535C146.237 294.488 146.051 294.174 145.644 294.046C145.237 293.918 144.9 294.058 144.923 294.116Z" fill="#263238"/>
<path d="M143.246 293.698C143.246 293.767 143.351 293.884 143.537 293.953C143.723 294.023 143.885 294.023 143.92 293.953C143.955 293.884 143.816 293.767 143.63 293.698C143.444 293.628 143.269 293.628 143.246 293.698Z" fill="#263238"/>
<g opacity="0.3">
<path opacity="0.3" d="M142.573 292.291L164.718 291.733L164.66 289.059L142.41 289.408L142.573 292.291Z" fill="black"/>
</g>
<path d="M74.8086 165.851L139.581 167.013C144.6 167.109 149.415 169.016 153.139 172.383C156.862 175.75 159.243 180.349 159.842 185.333L172.687 289.722H137.511L126.759 199.562H75.6804L74.8086 165.851Z" fill="#263238"/>
<path d="M172.248 283.073C172.248 283.235 164.541 283.421 155.044 283.48C145.547 283.538 137.828 283.48 137.828 283.294C137.828 283.108 145.524 282.933 155.032 282.875C164.541 282.817 172.248 282.91 172.248 283.073Z" fill="#455A64"/>
<path d="M14.0856 199.957C-11.7674 191.401 5.87869 156.783 5.87869 156.783L118.881 167.408C121.038 167.393 123.177 167.805 125.174 168.62C127.171 169.435 128.987 170.638 130.518 172.158C132.048 173.679 133.262 175.487 134.09 177.479C134.918 179.471 135.343 181.607 135.341 183.764C135.343 185.911 134.921 188.037 134.1 190.02C133.28 192.004 132.076 193.806 130.558 195.324C129.04 196.842 127.237 198.046 125.254 198.867C123.27 199.688 121.144 200.11 118.997 200.108L14.0856 199.957Z" fill="#263238"/>
<path d="M48.5508 163.27L48.8763 160.829L77.7982 159.69L91.9918 123.897L146.069 127.571L127.819 167.304L48.5508 163.27Z" fill="#455A64"/>
<path d="M113.277 147.112C112.978 147.587 112.545 147.963 112.032 148.192C111.52 148.421 110.951 148.492 110.397 148.398C109.844 148.303 109.331 148.046 108.924 147.66C108.516 147.274 108.233 146.775 108.109 146.228C107.985 145.68 108.027 145.108 108.228 144.584C108.429 144.06 108.782 143.608 109.241 143.284C109.699 142.961 110.244 142.78 110.805 142.767C111.366 142.753 111.919 142.905 112.393 143.206C113.027 143.608 113.476 144.244 113.642 144.976C113.808 145.708 113.676 146.476 113.277 147.112Z" fill="white"/>
<path d="M37.6016 162.561C37.713 162.541 37.8272 162.541 37.9387 162.561H38.9268L42.7048 162.712L56.6542 163.363L102.502 165.688C104.733 165.792 106.954 165.978 109.128 166.002C111.301 166.025 113.464 166.118 115.579 166.246C117.695 166.374 119.776 166.513 121.798 166.722C123.809 166.852 125.794 167.243 127.704 167.885C129.529 168.53 131.202 169.543 132.621 170.861C133.937 172.134 134.957 173.682 135.608 175.394C136.181 176.976 136.571 178.618 136.771 180.288C136.992 181.828 137.1 183.382 137.096 184.938C137.138 187.619 136.607 190.279 135.539 192.738C134.701 194.584 133.443 196.208 131.865 197.481C130.866 198.275 129.732 198.881 128.517 199.271C128.095 199.407 127.658 199.492 127.215 199.527C127.215 199.527 127.669 199.434 128.482 199.155C129.661 198.73 130.755 198.1 131.714 197.295C133.214 196.03 134.407 194.44 135.201 192.645C136.218 190.222 136.709 187.611 136.643 184.985C136.634 183.459 136.513 181.936 136.283 180.428C136.08 178.796 135.69 177.193 135.12 175.65C134.498 174.009 133.517 172.528 132.249 171.314C130.875 170.059 129.262 169.095 127.506 168.478C125.628 167.837 123.674 167.446 121.694 167.315C119.683 167.118 117.613 166.978 115.498 166.862C113.382 166.746 111.243 166.664 109.069 166.629C106.896 166.595 104.675 166.42 102.432 166.316L56.5845 163.758L42.635 162.91L38.857 162.654L37.8806 162.572L37.6016 162.561Z" fill="#455A64"/>
<path d="M23.7812 13.6152L23.851 17.1025L24.5485 69.0992C24.6298 75.144 37.0332 81.398 43.4965 81.2585C50.0179 81.119 47.693 74.1792 48.1463 68.4715C48.4833 64.101 48.5377 59.7133 48.3091 55.3357C48.3091 55.3357 56.5509 53.964 58.2597 43.1997C59.1083 37.8524 58.8409 29.0759 58.3876 21.9035C58.2925 20.3734 57.8888 18.8785 57.2005 17.5087C56.5123 16.1389 55.5538 14.9226 54.3829 13.9331C53.212 12.9436 51.8529 12.2014 50.3875 11.7512C48.9221 11.301 47.3808 11.1521 45.8563 11.3135L23.7812 13.6152Z" fill="#FFBE9D"/>
<path d="M55.5988 28.8318C55.6021 29.1927 55.4641 29.5407 55.2143 29.8013C54.9645 30.0619 54.6228 30.2146 54.262 30.2267C54.0866 30.2409 53.9102 30.2198 53.7431 30.1645C53.5761 30.1093 53.4219 30.021 53.2896 29.905C53.1573 29.789 53.0497 29.6476 52.9731 29.4892C52.8965 29.3308 52.8526 29.1586 52.8438 28.9829C52.8405 28.6238 52.9769 28.2776 53.2242 28.0173C53.4715 27.757 53.8103 27.603 54.169 27.5879C54.345 27.5737 54.522 27.5948 54.6897 27.6499C54.8574 27.705 55.0124 27.7931 55.1456 27.909C55.2788 28.0249 55.3875 28.1662 55.4654 28.3246C55.5432 28.4831 55.5886 28.6555 55.5988 28.8318Z" fill="#263238"/>
<path d="M56.5362 26.4371C56.3618 26.6115 55.3156 25.8442 53.8277 25.8442C52.3397 25.8442 51.2587 26.5882 51.0959 26.4138C50.9332 26.2395 51.1889 26.007 51.6655 25.6582C52.3068 25.2131 53.0703 24.9776 53.8509 24.984C54.6243 24.9781 55.3788 25.2228 56.0015 25.6815C56.4665 26.0767 56.6176 26.3557 56.5362 26.4371Z" fill="#263238"/>
<path d="M41.1262 28.8318C41.1325 29.1916 40.9971 29.5396 40.7492 29.8006C40.5013 30.0615 40.1607 30.2146 39.801 30.2267C39.6247 30.2426 39.447 30.2227 39.2786 30.1682C39.1102 30.1137 38.9546 30.0257 38.821 29.9095C38.6875 29.7933 38.5788 29.6513 38.5015 29.4921C38.4242 29.3329 38.3798 29.1597 38.3712 28.9829C38.3678 28.6238 38.5042 28.2776 38.7515 28.0173C38.9988 27.757 39.3376 27.603 39.6964 27.5879C39.8723 27.5737 40.0494 27.5948 40.2171 27.6499C40.3848 27.705 40.5398 27.7931 40.673 27.909C40.8062 28.0249 40.9149 28.1662 40.9927 28.3246C41.0705 28.4831 41.1159 28.6555 41.1262 28.8318Z" fill="#263238"/>
<path d="M41.9385 26.7161C41.7642 26.8905 40.718 26.1232 39.23 26.1232C37.7421 26.1232 36.661 26.8672 36.4983 26.6928C36.3355 26.5185 36.5912 26.286 37.0678 25.9372C37.7127 25.4905 38.4804 25.2549 39.2649 25.263C40.0378 25.2604 40.7912 25.5048 41.4154 25.9605C41.8688 26.3092 42.0199 26.6347 41.9385 26.7161Z" fill="#263238"/>
<path d="M47.33 37.7013C48.1107 37.4566 48.9192 37.3121 49.7363 37.2712C50.1199 37.2712 50.4802 37.155 50.5384 36.8992C50.5802 36.4943 50.4905 36.0867 50.2826 35.7368C49.9339 34.8184 49.5503 33.8536 49.1202 32.8423C48.0812 30.3981 47.2378 27.8754 46.5977 25.2979C47.8368 27.6543 48.8826 30.1074 49.7247 32.633L50.7941 35.5275C51.0326 35.9849 51.1026 36.5117 50.9917 37.0155C50.9359 37.1498 50.8505 37.2697 50.7418 37.3663C50.6331 37.463 50.5039 37.5338 50.364 37.5735C50.1563 37.6341 49.9411 37.6654 49.7247 37.6665C48.931 37.7777 48.1266 37.7894 47.33 37.7013Z" fill="#263238"/>
<path d="M48.352 55.3009C43.2836 55.377 38.2937 54.045 33.9375 51.4532C33.9375 51.4532 37.4249 58.8464 48.2009 57.8351L48.352 55.3009Z" fill="#AA6550"/>
<path d="M46.7049 41.3049C46.4218 40.9481 46.052 40.6699 45.6307 40.4969C45.2094 40.3239 44.7507 40.2619 44.2986 40.3168C43.9715 40.3432 43.6532 40.4362 43.3633 40.5901C43.0734 40.7441 42.8181 40.9557 42.613 41.2119C42.4125 41.4601 42.2936 41.7643 42.2728 42.0828C42.252 42.4012 42.3303 42.7183 42.4968 42.9905C42.7359 43.2547 43.0479 43.4421 43.3934 43.529C43.739 43.6159 44.1025 43.5984 44.4381 43.4787C45.1453 43.2234 45.7937 42.828 46.3445 42.3163C46.5072 42.1928 46.6485 42.0436 46.763 41.8745C46.82 41.7927 46.8506 41.6953 46.8506 41.5955C46.8506 41.4958 46.82 41.3984 46.763 41.3165" fill="#AA6550"/>
<path d="M42.9593 38.7475C43.1918 38.7475 43.2034 40.3517 44.5751 41.4909C45.9468 42.6301 47.6789 42.4674 47.6906 42.6534C47.7022 42.8393 47.3069 42.9672 46.5281 42.9905C45.5847 42.9998 44.6677 42.679 43.9358 42.0838C43.2286 41.5035 42.7777 40.6685 42.6804 39.7588C42.6687 39.1427 42.8082 38.7475 42.9593 38.7475Z" fill="#263238"/>
<path d="M32.5328 8.63983C32.5328 8.51196 32.7071 8.44221 32.8001 8.47709C32.8931 8.51196 32.9164 8.65145 32.8699 8.77932C32.8234 8.90719 32.6955 8.97694 32.6025 8.94206C32.5535 8.91096 32.5187 8.86181 32.5057 8.80525C32.4926 8.74869 32.5023 8.68927 32.5328 8.63983Z" fill="#263238"/>
<path d="M23.2214 64.5308C24.8001 63.9297 26.2309 62.9956 27.4164 61.792C28.6019 60.5885 29.5143 59.1437 30.0915 57.5561C31.2193 54.3592 31.3007 50.8865 30.324 47.6403C29.8939 46.1407 29.2894 44.5017 29.952 43.0951C30.5606 42.1442 31.3506 41.3225 32.2769 40.6772C34.1254 38.8924 35.2195 36.467 35.3342 33.9001C35.4263 31.3459 34.9581 28.8026 33.9625 26.4487C33.451 25.1468 32.8 23.7286 33.2999 22.4034C33.7308 21.4911 34.3723 20.6943 35.1714 20.0784C36.7052 18.647 37.9726 16.9546 38.9145 15.0799C39.3116 14.4515 39.5636 13.7425 39.6521 13.0045C39.7405 12.2665 39.6633 11.5181 39.426 10.8137C38.6472 9.19785 36.6129 8.68636 34.7762 8.55849C30.5216 8.233 25.8136 9.17461 23.1516 12.476C20.7221 15.4286 20.4431 19.5553 20.2687 23.3798C19.734 35.4345 19.1993 47.6054 21.2801 59.4974" fill="#263238"/>
<path d="M62.5714 12.4179C61.9797 12.7876 61.3664 13.1214 60.7347 13.4176C60.1817 13.8265 59.6609 14.2773 59.177 14.7661C58.9096 15.0334 58.6074 15.3357 58.34 15.6379C58.2587 15.7193 58.2238 15.8006 58.1424 15.882L57.8402 16.1843L57.0846 16.8934C56.3597 17.5594 55.5822 18.1658 54.7597 18.7068C53.5435 19.5282 52.1887 20.1229 50.7608 20.4621C48.0133 21.0571 45.1454 20.7047 42.6236 19.4624C40.8747 18.6211 39.3403 17.3927 38.1366 15.8704C36.3115 13.4292 36.0209 11.4531 36.8695 10.372C37.7181 9.29089 39.8337 9.45362 42.2052 10.0348C43.353 10.3353 44.5174 10.5682 45.6925 10.7323C46.6235 10.8687 47.571 10.8451 48.4941 10.6626C48.9429 10.5528 49.3792 10.397 49.796 10.1976C50.4005 9.93023 51.1561 9.52337 52.0163 9.11651C52.458 8.90727 52.9114 8.69803 53.4112 8.51203L54.1552 8.24467C54.4226 8.15168 54.7248 8.04704 55.0038 7.97729C56.0592 7.71258 57.1515 7.62616 58.2354 7.72157C59.0942 7.76004 59.9337 7.9885 60.6936 8.39053C61.4534 8.79256 62.1146 9.35813 62.6295 10.0465C63.2921 11.1392 63.0247 11.9878 62.5714 12.4179Z" fill="#263238"/>
<path d="M42.3244 20.8922C42.1732 21.2991 40.6969 21.1014 38.9532 21.3107C37.2096 21.5199 35.803 21.9965 35.5705 21.6362C35.4659 21.4618 35.71 21.0898 36.2796 20.6946C37.0331 20.2018 37.8945 19.8987 38.7905 19.8111C39.6825 19.7106 40.5857 19.818 41.4293 20.125C42.0686 20.3807 42.3825 20.7062 42.3244 20.8922Z" fill="#263238"/>
<path d="M55.9936 22.136C55.7262 22.4731 54.7033 22.136 53.471 22.136C52.2388 22.136 51.2043 22.3569 50.9601 22.0082C50.8555 21.8338 51.0182 21.4967 51.4832 21.1712C52.0954 20.7925 52.8057 20.6027 53.5252 20.6254C54.2447 20.6482 54.9415 20.8825 55.5286 21.2991C55.9587 21.6246 56.1098 21.9733 55.9936 22.136Z" fill="#263238"/>
<path d="M141.119 58.1003C140.83 58.1325 140.545 58.1962 140.269 58.2903C139.874 58.4359 139.522 58.6792 139.246 58.9973C138.969 59.3155 138.778 59.6984 138.689 60.1103C138.621 60.7311 138.604 61.3567 138.639 61.9803C138.639 62.6703 138.639 63.4303 138.639 64.2503C138.639 65.8903 138.639 67.7703 138.639 69.8903C138.639 74.1303 138.639 79.2803 138.689 85.2203C138.689 86.7103 138.689 88.2203 138.689 89.8303V91.0203C138.664 91.4071 138.701 91.7954 138.799 92.1703C138.91 92.5385 139.11 92.874 139.38 93.1476C139.65 93.4212 139.983 93.6247 140.349 93.7403C140.737 93.8446 141.139 93.8817 141.539 93.8503H151.049V94.0703C151.049 97.5303 151.049 101.21 151.049 105.07L150.659 104.91L161.659 93.9103L161.729 93.8403H210.439C210.939 93.8403 211.439 93.8403 211.919 93.8403C212.612 93.7807 213.266 93.4964 213.783 93.0307C214.299 92.5649 214.649 91.9433 214.779 91.2603C214.835 90.7858 214.855 90.3078 214.839 89.8303V79.6303C214.839 75.8003 214.839 72.0303 214.839 68.3503V61.5403C214.83 61.1232 214.738 60.712 214.569 60.3303C214.318 59.7639 213.909 59.2817 213.392 58.9413C212.874 58.6009 212.269 58.4165 211.649 58.4103H192.979H175.569L150.359 58.3203H143.509H141.729H141.119H141.729H143.509L150.359 58.2703L175.569 58.1903H192.979H202.679H211.679C212.393 58.1908 213.09 58.3992 213.687 58.7899C214.284 59.1806 214.754 59.7368 215.039 60.3903C215.237 60.8273 215.343 61.3006 215.349 61.7803V68.6003C215.349 72.2803 215.349 76.0503 215.349 79.8803V90.0803C215.373 90.5878 215.353 91.0963 215.289 91.6003C215.189 92.1268 214.977 92.6254 214.666 93.0621C214.355 93.4988 213.954 93.8631 213.489 94.1303C213.025 94.4028 212.506 94.5669 211.969 94.6103C211.419 94.6103 210.969 94.6103 210.439 94.6103H204.439H161.919L162.089 94.5403C158.289 98.3403 154.623 101.99 151.089 105.49L150.709 105.88V105.33C150.709 101.51 150.709 97.8303 150.709 94.3303L150.919 94.5403H141.619C141.179 94.5656 140.737 94.5217 140.309 94.4103C139.887 94.2703 139.504 94.0311 139.192 93.7127C138.881 93.3943 138.65 93.0061 138.519 92.5803C138.415 92.169 138.378 91.7435 138.409 91.3203V90.1303C138.409 88.5403 138.409 87.0103 138.409 85.5203C138.409 79.5803 138.409 74.4303 138.459 70.1903C138.459 68.0703 138.459 66.1903 138.459 64.5503C138.459 63.7303 138.459 62.9703 138.459 62.2803C138.438 61.6459 138.465 61.0107 138.539 60.3803C138.642 59.9531 138.85 59.5587 139.146 59.2335C139.441 58.9084 139.814 58.6631 140.229 58.5203C140.485 58.3061 140.792 58.1615 141.119 58.1003Z" fill="#263238"/>
<path d="M153.629 77.4203C155.462 77.4203 156.949 75.9339 156.949 74.1003C156.949 72.2667 155.462 70.7803 153.629 70.7803C151.795 70.7803 150.309 72.2667 150.309 74.1003C150.309 75.9339 151.795 77.4203 153.629 77.4203Z" fill="#455A64"/>
<path d="M206.68 70.7703C206.68 70.9203 197.1 71.0303 185.29 71.0303C173.48 71.0303 163.91 70.9203 163.91 70.7703C163.91 70.6203 173.48 70.5103 185.29 70.5103C197.1 70.5103 206.68 70.6303 206.68 70.7703Z" fill="#263238"/>
<path d="M206.68 75.5203C206.68 75.6703 197.1 75.7803 185.29 75.7803C173.48 75.7803 163.91 75.6703 163.91 75.5203C163.91 75.3703 173.48 75.2603 185.29 75.2603C197.1 75.2603 206.68 75.3803 206.68 75.5203Z" fill="#263238"/>
<path d="M189.33 80.9203C189.33 81.0603 183.64 81.1803 176.62 81.1803C169.6 81.1803 163.91 81.0603 163.91 80.9203C163.91 80.7803 169.6 80.6603 176.62 80.6603C183.64 80.6603 189.33 80.7803 189.33 80.9203Z" fill="#263238"/>
<path d="M120.6 3.00031H164.44C164.894 2.999 165.344 3.08727 165.763 3.26006C166.183 3.43285 166.565 3.68676 166.886 4.00726C167.207 4.32775 167.462 4.70853 167.636 5.12775C167.81 5.54698 167.9 5.99642 167.9 6.45032V35.4503C167.9 36.368 167.535 37.248 166.887 37.8969C166.238 38.5458 165.358 38.9103 164.44 38.9103H141.34L130.34 49.9103V38.9103H120.57C119.89 38.9103 119.238 38.6409 118.756 38.1611C118.275 37.6813 118.003 37.0302 118 36.3503V5.56033C118 5.22075 118.067 4.88456 118.199 4.57133C118.33 4.2581 118.522 3.97408 118.764 3.73583C119.006 3.49758 119.293 3.30986 119.608 3.18359C119.923 3.05731 120.26 2.99501 120.6 3.00031Z" fill="#FF725E"/>
<path d="M135.129 21.5803C135.129 22.091 134.977 22.5902 134.693 23.0147C134.409 23.4392 134.006 23.7699 133.534 23.9649C133.062 24.1599 132.542 24.2104 132.042 24.11C131.541 24.0096 131.081 23.7629 130.721 23.4011C130.36 23.0393 130.116 22.5786 130.017 22.0775C129.919 21.5764 129.971 21.0573 130.168 20.5861C130.365 20.1148 130.697 19.7126 131.123 19.4303C131.548 19.148 132.048 18.9983 132.559 19.0003C132.897 19.0003 133.232 19.0671 133.545 19.1969C133.857 19.3267 134.141 19.5169 134.38 19.7566C134.618 19.9963 134.807 20.2808 134.936 20.5938C135.065 20.9067 135.13 21.242 135.129 21.5803Z" fill="#FAFAFA"/>
<path d="M145.332 21.5803C145.332 22.0906 145.181 22.5894 144.897 23.0137C144.614 23.438 144.211 23.7687 143.739 23.9639C143.268 24.1592 142.749 24.2103 142.249 24.1108C141.748 24.0112 141.288 23.7655 140.928 23.4047C140.567 23.0438 140.321 22.5841 140.221 22.0837C140.122 21.5832 140.173 21.0644 140.368 20.593C140.564 20.1216 140.894 19.7186 141.318 19.4351C141.743 19.1516 142.242 19.0003 142.752 19.0003C143.091 18.999 143.427 19.0648 143.741 19.194C144.054 19.3232 144.339 19.5132 144.579 19.753C144.819 19.9929 145.009 20.2778 145.138 20.5915C145.267 20.9051 145.333 21.2411 145.332 21.5803Z" fill="#FAFAFA"/>
<path d="M155.531 21.5803C155.531 22.0906 155.38 22.5894 155.096 23.0137C154.813 23.438 154.41 23.7686 153.938 23.9639C153.467 24.1592 152.948 24.2103 152.448 24.1107C151.947 24.0112 151.488 23.7655 151.127 23.4046C150.766 23.0438 150.52 22.5841 150.421 22.0836C150.321 21.5832 150.372 21.0644 150.567 20.593C150.763 20.1216 151.093 19.7186 151.518 19.4351C151.942 19.1516 152.441 19.0003 152.951 19.0003C153.635 19.0003 154.292 19.2721 154.775 19.756C155.259 20.2398 155.531 20.896 155.531 21.5803Z" fill="#FAFAFA"/>
</svg>
