<svg width="250" height="401" viewBox="0 0 250 401" fill="none" xmlns="http://www.w3.org/2000/svg">
<path d="M100.854 113.415L102.404 125.679L121.097 109.722L131.355 112.184C131.355 112.184 120.812 134.319 112.491 143.095C104.171 151.871 99.6687 153.102 96.5343 153.239C92.2145 153.433 90.2312 148.167 90.2312 148.167L88.3164 117.723L100.854 113.415Z" fill="#FFBE9D"/>
<path d="M102.385 125.349C101.739 126.266 101.289 127.305 101.062 128.403C100.7 129.461 100.552 130.581 100.629 131.697C100.981 130.656 101.27 129.594 101.495 128.517C101.858 127.481 102.155 126.423 102.385 125.349Z" fill="#874232"/>
<path d="M122.958 78.6743H137.023C137.554 78.7006 138.073 78.8453 138.541 79.0978C139.008 79.3503 139.414 79.7041 139.728 80.1335C140.041 80.5629 140.255 81.0569 140.353 81.5794C140.451 82.102 140.431 82.6398 140.294 83.1537L126.138 110.714C125.871 111.239 125.463 111.68 124.96 111.988C124.457 112.296 123.878 112.459 123.289 112.458H106.192C105.791 112.411 105.407 112.266 105.075 112.036C104.743 111.806 104.473 111.497 104.288 111.138C104.103 110.779 104.01 110.379 104.016 109.975C104.022 109.572 104.127 109.175 104.323 108.822L118 81.8429C118.451 80.9065 119.153 80.1141 120.029 79.5544C120.905 78.9948 121.919 78.69 122.958 78.6743Z" fill="#455A64"/>
<path d="M123.903 80.3271H137.979C138.381 80.329 138.775 80.4333 139.125 80.6303C139.475 80.8274 139.77 81.1105 139.98 81.453C140.19 81.7954 140.309 82.1858 140.326 82.5872C140.342 82.9886 140.257 83.3876 140.076 83.7465L126.262 110.714C125.994 111.239 125.587 111.681 125.084 111.988C124.581 112.296 124.002 112.459 123.412 112.458H106.452C106.216 112.457 105.984 112.396 105.778 112.281C105.572 112.166 105.399 112 105.275 111.799C105.15 111.599 105.079 111.37 105.068 111.134C105.057 110.898 105.106 110.663 105.21 110.452L118.888 83.4616C119.349 82.5246 120.063 81.7349 120.949 81.1812C121.835 80.6275 122.858 80.3318 123.903 80.3271Z" fill="#263238"/>
<path d="M125.1 91.6223L133.66 95.0417L135.495 101.937L131.369 112.195L116.244 114.407L120.678 109.848L120.108 105.904C120.108 105.904 115.879 104.582 115.777 103.932C115.674 103.282 116.301 101.128 116.917 101.014C118.647 101.391 120.343 101.91 121.988 102.564C121.988 102.564 116.746 98.4154 116.894 97.743C117.042 97.0705 117.6 95.3722 118.649 95.1899C119.698 95.0075 128.155 98.9853 128.155 98.9853L129.523 102.12L130.719 97.1047C130.719 97.1047 123.242 95.0303 125.1 91.6223Z" fill="#FFBE9D"/>
<path d="M124.019 107.796C124.019 107.796 124.236 107.5 124.316 106.941C124.407 106.213 124.317 105.473 124.054 104.787C123.803 104.094 123.389 103.472 122.845 102.975C122.424 102.599 122.093 102.473 122.07 102.519C122.714 103.24 123.244 104.055 123.643 104.935C123.92 105.863 124.047 106.829 124.019 107.796Z" fill="#874232"/>
<path d="M128.086 106.303C127.932 105.55 127.822 104.789 127.755 104.023C127.715 103.18 127.569 102.346 127.322 101.539C127.158 101.046 126.89 100.595 126.536 100.216C126.141 99.8216 125.662 99.5215 125.134 99.3387C123.082 98.5865 121.247 97.9938 119.891 97.5493C119.174 97.2791 118.434 97.0769 117.68 96.9452C118.351 97.3143 119.057 97.616 119.788 97.8456C121.099 98.3585 122.957 98.9854 124.963 99.7377C125.428 99.9097 125.855 100.173 126.217 100.513C126.532 100.839 126.776 101.227 126.935 101.653C127.196 102.424 127.364 103.224 127.436 104.035C127.455 104.834 127.679 105.615 128.086 106.303Z" fill="#874232"/>
<path d="M130.059 104.753C130.197 104.199 130.197 103.62 130.059 103.066C129.911 102.154 129.694 101.425 129.569 101.447C129.444 101.47 129.478 102.222 129.626 103.134C129.774 104.046 129.934 104.776 130.059 104.753Z" fill="#874232"/>
<path d="M130.287 85.5359C130.251 85.9873 130.047 86.4086 129.714 86.7158C129.381 87.023 128.945 87.1936 128.492 87.1936C128.039 87.1936 127.603 87.023 127.271 86.7158C126.938 86.4086 126.733 85.9873 126.697 85.5359C126.677 85.2882 126.709 85.039 126.79 84.8041C126.872 84.5692 127.001 84.3536 127.169 84.171C127.338 83.9884 127.542 83.8427 127.77 83.743C127.998 83.6434 128.244 83.5919 128.492 83.5919C128.741 83.5919 128.987 83.6434 129.214 83.743C129.442 83.8427 129.647 83.9884 129.815 84.171C129.984 84.3536 130.113 84.5692 130.194 84.8041C130.275 85.039 130.307 85.2882 130.287 85.5359Z" fill="#FAFAFA"/>
<path d="M130.181 393.381L126.876 381.835L105.117 382.975L108.445 399.946H109.802C115.865 399.946 140.576 399.581 144.577 398.134C148.999 396.527 130.181 393.381 130.181 393.381Z" fill="#FF725E"/>
<g opacity="0.4">
<path opacity="0.4" d="M116.367 399.33C115.956 397.485 114.871 395.859 113.324 394.771C111.464 393.741 109.321 393.341 107.215 393.632L108.446 399.593L116.367 399.33Z" fill="black"/>
</g>
<g opacity="0.4">
<path opacity="0.4" d="M139.402 395.227C139.402 395.227 146.013 396.755 145.26 397.872C144.508 398.989 119.513 400.311 108.445 399.935V399.445L137.612 398.145C137.612 398.145 138.125 395.341 139.402 395.227Z" fill="black"/>
</g>
<path d="M108.105 399.444C108.23 399.461 108.357 399.461 108.482 399.444H109.564H113.554C116.973 399.387 121.532 399.251 126.707 398.977C131.881 398.704 136.475 398.373 139.826 398.077L143.804 397.701L144.875 397.575C145.002 397.573 145.129 397.554 145.251 397.518C145.126 397.501 145 397.501 144.875 397.518L143.735 397.587L139.757 397.872C136.406 398.122 131.779 398.441 126.638 398.704C121.498 398.966 116.859 399.148 113.497 399.251L109.507 399.376H108.425L108.105 399.444Z" fill="#263238"/>
<path d="M137.625 398.487C137.761 397.819 137.975 397.168 138.263 396.549C138.631 395.974 139.059 395.439 139.539 394.954C138.901 395.281 138.377 395.793 138.035 396.424C137.693 397.055 137.55 397.774 137.625 398.487Z" fill="#263238"/>
<path d="M130.992 395.547C131.061 395.547 131.346 395.193 131.642 394.68C131.938 394.167 132.121 393.7 132.052 393.666C131.984 393.632 131.699 394.031 131.414 394.543C131.2 394.842 131.056 395.185 130.992 395.547Z" fill="#263238"/>
<path d="M129.166 394.703C129.166 394.703 129.553 394.509 129.918 394.156C130.283 393.803 130.522 393.461 130.465 393.404C130.408 393.347 130.089 393.609 129.724 393.962C129.359 394.316 129.12 394.657 129.166 394.703Z" fill="#263238"/>
<path d="M127.938 392.697C128.305 392.814 128.695 392.845 129.077 392.788C129.716 392.788 130.217 392.686 130.217 392.606C129.848 392.494 129.458 392.467 129.077 392.526C128.69 392.501 128.301 392.56 127.938 392.697Z" fill="#263238"/>
<path d="M127.484 391.261C127.87 391.497 128.321 391.605 128.772 391.569C129.223 391.621 129.68 391.538 130.083 391.329C129.651 391.281 129.216 391.281 128.784 391.329C128.353 391.274 127.919 391.251 127.484 391.261Z" fill="#263238"/>
<path d="M131.629 393.597C132.101 393.656 132.58 393.629 133.042 393.518C133.549 393.43 134.045 393.293 134.524 393.107C134.816 393.008 135.095 392.874 135.356 392.708C135.519 392.603 135.637 392.441 135.687 392.253C135.703 392.147 135.688 392.039 135.643 391.941C135.599 391.844 135.527 391.762 135.436 391.705C135.081 391.558 134.698 391.491 134.314 391.509C133.93 391.527 133.555 391.629 133.215 391.809C132.875 391.989 132.58 392.241 132.349 392.548C132.118 392.855 131.958 393.21 131.88 393.586C131.88 393.837 131.88 393.974 131.88 393.974C131.996 393.533 132.189 393.117 132.45 392.743C132.742 392.36 133.137 392.067 133.589 391.899C133.856 391.786 134.143 391.728 134.433 391.728C134.723 391.728 135.009 391.786 135.276 391.899C135.504 392.047 135.436 392.321 135.196 392.48C134.952 392.633 134.692 392.759 134.421 392.857C133.957 393.051 133.476 393.203 132.985 393.313C132.165 393.529 131.629 393.563 131.629 393.597Z" fill="#263238"/>
<path d="M132.007 393.654C132.163 393.348 132.199 392.995 132.109 392.663C132.049 392.298 131.9 391.954 131.676 391.66C131.547 391.458 131.368 391.292 131.156 391.179C130.945 391.065 130.708 391.007 130.468 391.01C130.397 391.027 130.331 391.059 130.272 391.102C130.214 391.145 130.165 391.2 130.127 391.262C130.09 391.325 130.066 391.395 130.056 391.467C130.046 391.539 130.051 391.612 130.069 391.683C130.113 391.906 130.207 392.116 130.343 392.298C130.543 392.596 130.781 392.868 131.049 393.107C131.517 393.518 131.87 393.666 131.882 393.632C131.893 393.597 131.585 393.404 131.175 392.971C130.936 392.725 130.726 392.454 130.548 392.161C130.331 391.876 130.172 391.352 130.548 391.261C130.924 391.17 131.277 391.546 131.505 391.808C131.719 392.071 131.871 392.379 131.95 392.708C131.996 393.022 132.015 393.338 132.007 393.654Z" fill="#263238"/>
<path d="M108.239 393.438C108.239 393.438 108.854 393.347 109.857 393.438C111.155 393.508 112.406 393.946 113.464 394.701C114.522 395.455 115.342 396.496 115.83 397.701C116.206 398.624 116.274 399.251 116.331 399.251C116.351 399.103 116.351 398.954 116.331 398.806C116.261 398.418 116.158 398.037 116.024 397.667C115.564 396.4 114.73 395.304 113.633 394.522C112.536 393.74 111.227 393.311 109.88 393.29C109.498 393.28 109.116 393.311 108.74 393.381C108.376 393.381 108.227 393.381 108.239 393.438Z" fill="#263238"/>
<path d="M109.975 384.263C109.894 385.762 109.894 387.265 109.975 388.765C109.994 390.289 110.101 391.812 110.294 393.324C110.384 391.805 110.384 390.283 110.294 388.765C110.28 387.259 110.174 385.755 109.975 384.263Z" fill="#263238"/>
<path d="M119.016 397.051C120.076 397.24 121.157 397.289 122.23 397.199C123.304 397.2 124.373 397.058 125.41 396.777C125.41 396.698 123.974 396.869 122.218 396.937C120.463 397.005 119.016 396.983 119.016 397.051Z" fill="#263238"/>
<path d="M114.715 397.279C114.715 397.336 114.852 397.575 115.011 397.895C115.171 398.214 115.273 398.499 115.353 398.487C115.433 398.476 115.444 398.145 115.251 397.769C115.057 397.393 114.76 397.222 114.715 397.279Z" fill="#263238"/>
<path d="M112.996 395.353C112.996 395.353 113.099 395.626 113.338 395.843C113.577 396.059 113.817 396.196 113.862 396.139C113.908 396.082 113.76 395.866 113.52 395.649C113.281 395.432 113.053 395.296 112.996 395.353Z" fill="#263238"/>
<path d="M110.638 394.521C110.638 394.589 110.946 394.578 111.276 394.669C111.607 394.76 111.846 394.931 111.903 394.874C111.96 394.817 111.755 394.532 111.345 394.418C110.934 394.304 110.615 394.521 110.638 394.521Z" fill="#263238"/>
<path d="M108.961 394.202C108.961 394.281 109.075 394.384 109.257 394.441C109.44 394.498 109.611 394.498 109.633 394.441C109.656 394.384 109.531 394.259 109.348 394.202C109.166 394.145 108.984 394.133 108.961 394.202Z" fill="#263238"/>
<path d="M122.84 362.835L128.436 352.577L109.242 341.988L100.91 356.908L102.05 357.637C107.19 360.863 128.379 373.594 132.516 374.517C137.121 375.509 122.84 362.835 122.84 362.835Z" fill="#FF725E"/>
<g opacity="0.4">
<path opacity="0.4" d="M107.943 360.612C108.557 358.836 108.492 356.895 107.761 355.164C107.048 353.457 105.723 352.079 104.045 351.3L101.082 356.657L107.943 360.612Z" fill="black"/>
</g>
<g opacity="0.4">
<path opacity="0.4" d="M129.671 369.309C129.671 369.309 134.469 374.118 133.238 374.666C132.007 375.213 110.101 363.108 100.914 356.919L101.176 356.509L126.605 370.847C126.605 370.847 128.52 368.739 129.671 369.309Z" fill="black"/>
</g>
<path d="M100.852 356.326C100.945 356.411 101.048 356.484 101.159 356.543L102.083 357.124L105.502 359.21C108.397 360.943 112.409 363.279 116.9 365.775C121.391 368.271 125.517 370.426 128.514 371.953L132.082 373.731L133.062 374.198L133.404 374.346C133.404 374.346 133.301 374.267 133.085 374.153L132.127 373.64L128.594 371.782C125.619 370.209 121.516 368.021 117.025 365.536C112.534 363.051 108.5 360.737 105.627 359.039L102.208 357.044L101.262 356.497L100.852 356.326Z" fill="#263238"/>
<path d="M126.434 371.144C126.908 370.65 127.435 370.21 128.007 369.833C128.62 369.533 129.266 369.307 129.933 369.16C129.217 369.048 128.486 369.206 127.881 369.605C127.225 369.922 126.71 370.47 126.434 371.144Z" fill="#263238"/>
<path d="M122.365 365.137C122.365 365.205 122.856 365.023 123.38 364.738C123.904 364.453 124.292 364.168 124.257 364.1C123.894 364.162 123.548 364.302 123.243 364.51C122.719 364.795 122.331 365.08 122.365 365.137Z" fill="#263238"/>
<path d="M121.258 363.462C121.258 363.53 121.691 363.462 122.193 363.382C122.694 363.302 123.07 363.12 123.059 363.051C123.047 362.983 122.626 363.051 122.124 363.12C121.623 363.188 121.247 363.393 121.258 363.462Z" fill="#263238"/>
<path d="M121.281 361.102C121.281 361.171 121.657 361.478 122.216 361.786C122.531 362.014 122.893 362.17 123.276 362.242C123.276 362.174 122.888 361.866 122.341 361.558C122.023 361.335 121.662 361.18 121.281 361.102Z" fill="#263238"/>
<path d="M121.645 359.643C121.645 359.643 121.964 360.179 122.591 360.589C122.94 360.874 123.371 361.042 123.822 361.068C123.464 360.798 123.083 360.561 122.682 360.361C122.135 359.974 121.702 359.586 121.645 359.643Z" fill="#263238"/>
<path d="M123.934 363.826C124.307 364.119 124.727 364.347 125.176 364.499C125.65 364.692 126.143 364.837 126.646 364.932C126.949 365.002 127.259 365.04 127.57 365.046C127.761 365.037 127.942 364.96 128.082 364.829C128.151 364.749 128.196 364.651 128.212 364.546C128.228 364.441 128.215 364.334 128.174 364.237C127.952 363.92 127.662 363.657 127.326 363.467C126.99 363.277 126.615 363.164 126.23 363.137C125.844 363.109 125.458 363.168 125.098 363.309C124.738 363.45 124.414 363.67 124.15 363.952C124.055 364.036 123.981 364.141 123.934 364.259C124.272 363.954 124.657 363.704 125.073 363.518C125.533 363.348 126.031 363.313 126.51 363.416C127.08 363.529 127.585 363.855 127.923 364.328C128.037 364.59 127.832 364.772 127.547 364.784C127.259 364.787 126.972 364.757 126.692 364.692C126.197 364.61 125.709 364.488 125.233 364.328C124.424 364.043 123.956 363.746 123.934 363.826Z" fill="#263238"/>
<path d="M124.222 364.066C124.222 364.066 124.586 363.872 124.837 363.291C124.991 362.931 125.046 362.538 124.997 362.151C124.993 361.911 124.93 361.676 124.813 361.467C124.695 361.258 124.527 361.081 124.324 360.954C124.184 360.914 124.033 360.93 123.904 360.997C123.774 361.065 123.676 361.18 123.629 361.319C123.547 361.529 123.512 361.755 123.526 361.98C123.546 362.342 123.604 362.701 123.697 363.051C123.77 363.377 123.919 363.682 124.13 363.94C124.13 363.94 124.005 363.587 123.88 363.006C123.812 362.668 123.778 362.324 123.777 361.98C123.777 361.626 123.891 361.091 124.233 361.205C124.575 361.319 124.7 361.832 124.757 362.185C124.795 362.518 124.764 362.856 124.666 363.177C124.551 363.488 124.402 363.786 124.222 364.066Z" fill="#263238"/>
<path d="M104.172 351.3C104.172 351.3 104.753 351.551 105.562 352.132C106.617 352.891 107.444 353.924 107.956 355.118C108.434 356.323 108.579 357.634 108.378 358.914C108.207 359.894 107.933 360.464 107.979 360.487C108.024 360.509 108.081 360.361 108.195 360.099C108.351 359.731 108.473 359.349 108.56 358.959C108.838 357.64 108.71 356.268 108.193 355.023C107.676 353.778 106.795 352.719 105.665 351.984C105.331 351.759 104.971 351.575 104.594 351.437C104.332 351.323 104.183 351.277 104.172 351.3Z" fill="#263238"/>
<path d="M110.578 344.37C109.719 345.602 108.935 346.885 108.23 348.211C107.443 349.495 106.739 350.827 106.121 352.2C106.951 350.959 107.712 349.673 108.401 348.348C109.198 347.062 109.924 345.734 110.578 344.37Z" fill="#263238"/>
<path d="M111.395 360.076C112.193 360.796 113.082 361.409 114.039 361.9C114.953 362.467 115.938 362.912 116.968 363.222C116.968 363.154 115.703 362.538 114.176 361.672C112.648 360.806 111.44 360.008 111.395 360.076Z" fill="#263238"/>
<path d="M107.696 358.048C107.627 358.048 107.696 358.367 107.627 358.731C107.559 359.096 107.525 359.381 107.627 359.415C107.73 359.449 107.889 359.165 107.924 358.754C107.958 358.344 107.696 357.968 107.696 358.048Z" fill="#263238"/>
<path d="M107.204 355.449C107.124 355.449 107.136 355.734 107.204 356.041C107.272 356.349 107.421 356.589 107.489 356.566C107.557 356.543 107.489 356.281 107.489 355.973C107.489 355.665 107.272 355.426 107.204 355.449Z" fill="#263238"/>
<path d="M105.621 353.488C105.621 353.557 105.849 353.694 106.077 353.944C106.305 354.195 106.43 354.469 106.499 354.446C106.567 354.423 106.499 354.081 106.271 353.773C106.043 353.466 105.632 353.488 105.621 353.488Z" fill="#263238"/>
<path d="M104.379 352.349C104.379 352.349 104.379 352.554 104.504 352.702C104.63 352.85 104.778 352.941 104.835 352.896C104.892 352.85 104.835 352.69 104.709 352.542C104.584 352.394 104.436 352.349 104.379 352.349Z" fill="#263238"/>
<path d="M102.576 393.575L131.629 389.46L105.095 271.526L86.8582 156.636L38.5085 156.909L31.5216 190.499C29.5613 199.929 30.9097 209.746 35.3399 218.298L61.2586 268.449C61.1104 271.526 102.576 393.575 102.576 393.575Z" fill="#263238"/>
<path d="M89.6859 156.636L149.969 240.216C154.315 246.237 157.092 253.245 158.05 260.608C159.007 267.971 158.114 275.457 155.452 282.388L126.957 356.805L100.274 342.98L123.538 270.5L77.9461 229.366L71.1758 156.624L89.6859 156.636Z" fill="#263238"/>
<path d="M125.258 359.814C125.258 359.814 125.258 359.643 125.11 359.301C124.962 358.959 124.871 358.424 124.7 357.774C124.347 356.406 123.845 354.423 123.207 351.893C121.942 346.741 120.129 339.355 117.895 330.237C113.473 311.92 107.489 286.572 101.004 258.544L91.9652 218.994C90.6203 212.918 89.3323 207.14 88.1241 201.726C86.916 196.312 85.9699 191.24 85.0239 186.624C83.1546 177.403 81.6046 169.937 80.5787 164.74C80.0658 162.175 79.6783 160.181 79.439 158.79C79.325 158.129 79.2224 157.65 79.154 157.24C79.1172 157.063 79.0905 156.884 79.0742 156.704C79.0742 156.704 79.0742 156.875 79.211 157.229C79.3478 157.582 79.4161 158.106 79.5643 158.767C79.8607 160.146 80.2938 162.187 80.8523 164.694C81.9921 169.88 83.5308 177.334 85.4798 186.532L88.6484 201.623C89.868 207.026 91.1788 212.805 92.5465 218.88C95.339 231.03 98.405 244.377 101.665 258.396L125.258 359.814Z" fill="#455A64"/>
<path d="M131.231 263.912C131.333 264.049 129.441 265.44 127.355 267.4C125.27 269.361 123.742 271.139 123.605 271.025C125.476 268.023 128.106 265.57 131.231 263.912Z" fill="#455A64"/>
<path d="M133.615 269.52C129.986 270.347 126.28 270.783 122.559 270.82C126.189 270.008 129.894 269.572 133.615 269.52Z" fill="#455A64"/>
<path d="M59.286 163.828C59.3876 164.113 59.434 164.415 59.4227 164.717C59.4546 165.534 59.3701 166.351 59.172 167.145C58.8684 168.479 58.2928 169.736 57.4813 170.838C56.6699 171.94 55.6399 172.862 54.4557 173.548C53.2716 174.234 51.9587 174.668 50.5992 174.823C49.2397 174.978 47.8628 174.852 46.5545 174.451C45.7506 174.227 44.983 173.889 44.2749 173.448C43.7848 173.14 43.5569 172.923 43.5797 172.889C44.5604 173.344 45.5738 173.725 46.6115 174.029C49.1444 174.698 51.8391 174.338 54.1071 173.026C56.3751 171.715 58.0321 169.56 58.7161 167.031C58.9923 165.98 59.1829 164.909 59.286 163.828Z" fill="#455A64"/>
<path d="M85.6992 72.0637C85.6992 72.0637 95.9003 75.0158 99.6502 87.3255C103.4 99.6352 107.834 112.275 107.834 112.275L91.5463 116.629L85.6992 72.0637Z" fill="#FF725E"/>
<path d="M95.1572 99.9769C96.0759 102.912 96.6384 105.946 96.8326 109.015C96.6999 114.011 94.8436 118.807 91.5782 122.59L91.5099 122.681L89.709 156.636L38.5212 156.909L38.1679 142.468L34.7485 113.973L31.5001 123.092L8.05469 107.853L12.8646 96.3866C14.825 91.4627 17.6517 85.6384 20.8431 81.8201C25.3642 76.4769 31.5361 72.7914 38.3844 71.3455C43.2741 70.2627 48.0156 69.6586 48.0156 69.6586L69.3752 69.8979C74.2535 69.8979 85.8109 72.0293 85.8109 72.0293L95.1572 99.9769Z" fill="#FF725E"/>
<path d="M89.3453 126.534C89.7125 126.254 90.0386 125.924 90.3141 125.554C91.1257 124.608 91.854 123.593 92.4911 122.522C94.6518 118.978 95.9625 114.983 96.3205 110.848C96.6784 106.713 96.0738 102.551 94.5541 98.689C94.0842 97.5262 93.524 96.402 92.8786 95.3267C92.6737 94.9103 92.4087 94.5263 92.0922 94.1869C91.9782 94.1869 93.0154 95.8966 94.0526 98.8372C95.4145 102.658 95.9391 106.727 95.591 110.768C95.243 114.809 94.0303 118.728 92.0352 122.26C90.5991 124.995 89.2427 126.454 89.3453 126.534Z" fill="#263238"/>
<path d="M48.5508 128.392C48.8594 128.533 49.192 128.614 49.531 128.631C50.445 128.753 51.3677 128.799 52.2893 128.768C55.3618 128.659 58.3615 127.803 61.0287 126.273C63.6959 124.744 65.9502 122.588 67.5966 119.992C68.0913 119.213 68.5184 118.393 68.8732 117.541C69.0258 117.237 69.126 116.91 69.1696 116.572C69.0556 116.572 68.5084 117.849 67.1977 119.718C65.4976 122.161 63.2764 124.196 60.6943 125.676C58.1122 127.157 55.2337 128.045 52.2665 128.278C49.9869 128.472 48.5622 128.266 48.5508 128.392Z" fill="#263238"/>
<path d="M32.1055 73.6252C32.1055 73.705 32.7551 73.6935 33.8835 73.9671C35.4674 74.3898 36.9334 75.1696 38.1691 76.2467C40.0063 77.8149 41.3914 79.8453 42.1812 82.128C43.0768 84.9569 43.2685 87.9617 42.7397 90.8815C42.2143 93.8205 41.3301 96.6837 40.1068 99.4071C38.967 101.937 37.8956 104.171 37.0065 106.075C36.1175 107.978 35.4565 109.494 35.0575 110.634C34.8138 111.197 34.6341 111.786 34.5218 112.389C34.8211 111.857 35.0838 111.305 35.3083 110.737C35.787 109.665 36.4481 108.138 37.4511 106.269C38.4541 104.399 39.5483 102.177 40.6767 99.6351C41.9615 96.875 42.881 93.9591 43.4121 90.9613C43.9629 87.9359 43.7474 84.8208 42.7853 81.9C41.935 79.5237 40.4439 77.429 38.4769 75.8478C37.1555 74.7734 35.5896 74.0413 33.9178 73.7163C33.4669 73.632 33.0086 73.5939 32.55 73.6024C32.2651 73.591 32.1055 73.6024 32.1055 73.6252Z" fill="#263238"/>
<path d="M56.198 108.628C54.7293 107.398 53.3924 106.019 52.2088 104.513C50.8826 103.136 49.6953 101.632 48.6641 100.023C50.1345 101.246 51.4716 102.622 52.6533 104.126C53.9855 105.502 55.1733 107.01 56.198 108.628Z" fill="#FAFAFA"/>
<path d="M72.3595 94.0844C71.7518 95.0534 70.9805 95.9095 70.0799 96.6147C69.2988 97.4569 68.3818 98.162 67.3672 98.7005C67.9792 97.7347 68.7499 96.8793 69.6468 96.1702C70.4222 95.3217 71.3403 94.6158 72.3595 94.0844Z" fill="#FAFAFA"/>
<path d="M82.219 108.058C81.2304 107.144 80.3782 106.092 79.6886 104.935C78.8436 103.902 78.1561 102.75 77.6484 101.516C78.637 102.43 79.4892 103.482 80.1787 104.639C81.0237 105.672 81.7113 106.824 82.219 108.058Z" fill="#FAFAFA"/>
<path d="M90.3599 86.0146C90.4397 86.1628 89.2999 86.9151 88.0804 88.0207C86.8608 89.1263 85.9376 90.1521 85.8008 90.0495C86.1814 89.0608 86.8382 88.2023 87.6929 87.5762C88.4096 86.8055 89.337 86.2625 90.3599 86.0146Z" fill="#FAFAFA"/>
<path d="M88.5648 114.646C88.1711 112.384 88.1711 110.07 88.5648 107.807C88.9585 110.07 88.9585 112.384 88.5648 114.646Z" fill="#FAFAFA"/>
<path d="M82.7447 142.275C82.6619 141.225 82.7779 140.169 83.0866 139.163C83.2078 138.123 83.5208 137.114 84.0098 136.188C84.0928 137.234 83.9768 138.286 83.6679 139.288C83.543 140.331 83.2302 141.343 82.7447 142.275Z" fill="#FAFAFA"/>
<path d="M63.2426 152.065C60.8322 152.585 58.3548 152.719 55.9023 152.464C57.0865 152.099 58.3224 151.93 59.5611 151.963C60.7862 151.806 62.0281 151.841 63.2426 152.065Z" fill="#FAFAFA"/>
<path d="M52.1976 116.059C50.3115 118.571 47.8693 120.611 45.0625 122.021C46.1622 120.93 47.3393 119.921 48.5845 119C49.7138 117.931 50.9215 116.948 52.1976 116.059Z" fill="#FAFAFA"/>
<path d="M75.6546 145.375C74.5327 143.525 73.76 141.485 73.375 139.357C74.0294 140.23 74.5198 141.215 74.8225 142.263C75.2796 143.244 75.5612 144.297 75.6546 145.375Z" fill="#FAFAFA"/>
<path d="M72.2439 116.88C72.0858 115.586 72.1242 114.276 72.3578 112.993C72.39 111.692 72.6245 110.404 73.0531 109.175C73.1806 111.768 72.9154 114.366 72.2666 116.88H72.2439Z" fill="#FAFAFA"/>
<path d="M86.7148 149.341C86.0352 150.401 85.1929 151.347 84.2186 152.145C83.3747 153.088 82.3905 153.895 81.3008 154.538C81.9728 153.487 82.8032 152.545 83.7627 151.746C84.6104 150.79 85.6074 149.978 86.7148 149.341Z" fill="#FAFAFA"/>
<path d="M56.3001 92.3404C55.0773 91.6437 53.9573 90.7806 52.9719 89.7759C51.8503 88.9216 50.8596 87.9078 50.0312 86.7668C51.254 87.4635 52.3741 88.3266 53.3595 89.3314C54.4778 90.1894 55.468 91.2026 56.3001 92.3404Z" fill="#FAFAFA"/>
<path d="M79.6252 79.0049C79.2664 80.116 78.7189 81.1571 78.0067 82.0823C77.4593 83.1105 76.7426 84.0391 75.8867 84.8292C76.7865 82.686 78.0514 80.7153 79.6252 79.0049Z" fill="#FAFAFA"/>
<path d="M96.9919 89.9811C96.1937 88.8387 95.5641 87.5873 95.1226 86.2654C94.4936 85.0207 94.0446 83.6928 93.7891 82.3218C94.5825 83.4687 95.2153 84.7189 95.6697 86.0375C96.2951 87.2828 96.7402 88.6106 96.9919 89.9811Z" fill="#FAFAFA"/>
<path d="M99.4065 105.425C99.3054 103.447 99.5919 101.469 100.25 99.6008C100.368 101.579 100.081 103.561 99.4065 105.425Z" fill="#FAFAFA"/>
<path d="M28.909 108.184C28.1608 109.227 27.1164 110.021 25.9113 110.463C24.7821 111.088 23.4934 111.366 22.207 111.261C22.207 111.079 23.8255 110.782 25.6264 109.916C27.4273 109.05 28.795 108.058 28.909 108.184Z" fill="#FAFAFA"/>
<path d="M26.3513 98.3586C25.6508 96.9686 25.1336 95.4935 24.8126 93.9704C24.296 92.4984 23.9704 90.9662 23.8438 89.4113C24.5396 90.8072 25.0567 92.2854 25.3825 93.8108C25.8995 95.2788 26.2251 96.8073 26.3513 98.3586Z" fill="#FAFAFA"/>
<path d="M38.4997 89.6733C37.1895 89.4368 35.9525 88.8982 34.8866 88.1004C33.7161 87.4706 32.7151 86.5673 31.9688 85.4675C33.094 86.1111 34.1788 86.8228 35.2171 87.5989C36.3544 88.2197 37.4509 88.9126 38.4997 89.6733Z" fill="#FAFAFA"/>
<path d="M45.7113 78.3894C44.8127 77.7226 44.0407 76.9004 43.4317 75.9617C42.6906 75.1515 42.1035 74.2129 41.6992 73.192C43.3213 74.6708 44.6614 76.4319 45.6543 78.3894H45.7113Z" fill="#FAFAFA"/>
<path d="M76.9742 4.77063C79.5843 2.02375 84.2004 1.81858 87.4374 3.77902C89.0127 4.8359 90.3332 6.23002 91.3031 7.86033C92.273 9.49065 92.8681 11.3163 93.0452 13.205C93.3415 15.5644 93.1706 18.0719 94.3332 20.135C95.4958 22.198 98.1172 23.5543 99.8383 25.4008C101.103 26.8302 101.897 28.6141 102.113 30.5103C102.329 32.4066 101.957 34.3234 101.046 36.0008C100.021 37.8016 98.311 39.5911 98.7669 41.5971C99.2228 43.6032 101.879 44.5036 103.417 46.0765C105.697 48.4131 105.321 52.1857 104.66 55.3772C104.352 56.8133 103.896 58.409 102.608 59.1043C101.513 59.5104 100.319 59.57 99.1886 59.2752C91.8826 58.2608 84.4854 59.7995 77.1223 60.1984C69.7593 60.5974 61.7239 59.5944 56.3555 54.4995" fill="#263238"/>
<path d="M75.9852 72.2119V59.0132C75.9852 59.0132 85.4454 57.4517 87.383 45.1078C88.3519 38.9643 88.0441 28.9 87.5312 20.6821C87.0639 13.2735 82.2084 3.97286 72.3492 4.00705C72.3492 4.00705 50.8301 2.43415 49.8043 18.8927L49.3484 72.1549C49.3302 73.9258 49.6646 75.6827 50.3322 77.3231C50.9999 78.9635 51.9872 80.4546 53.2369 81.7096C54.4865 82.9646 55.9735 83.9583 57.611 84.6328C59.2486 85.3074 61.0041 85.6493 62.7751 85.6386C66.306 85.6055 69.6796 84.1733 72.156 81.6563C74.6324 79.1393 76.0095 75.7428 75.9852 72.2119Z" fill="#FFBE9D"/>
<path d="M85.333 29.789C85.3393 30.2015 85.1844 30.6003 84.9013 30.9004C84.6183 31.2005 84.2293 31.3784 83.8171 31.3961C83.6146 31.4116 83.4111 31.3865 83.2184 31.3224C83.0257 31.2583 82.8477 31.1564 82.6949 31.0227C82.5421 30.8889 82.4175 30.7261 82.3283 30.5436C82.2392 30.3611 82.1873 30.1627 82.1758 29.96C82.1754 29.5483 82.3341 29.1525 82.6187 28.8552C82.9033 28.5578 83.2919 28.3819 83.7031 28.3643C83.9044 28.3472 84.1071 28.3708 84.2991 28.4338C84.4911 28.4967 84.6684 28.5977 84.8205 28.7307C84.9726 28.8636 85.0964 29.0259 85.1844 29.2077C85.2725 29.3895 85.323 29.5872 85.333 29.789Z" fill="#263238"/>
<path d="M85.6713 27.5095C85.4775 27.7261 84.2808 26.8371 82.5711 26.8371C80.8614 26.8371 79.6191 27.6919 79.4367 27.4867C79.2543 27.2816 79.5507 27.0194 80.0864 26.6205C80.8268 26.1115 81.7068 25.8447 82.6053 25.8568C83.489 25.8486 84.352 26.1243 85.0673 26.6433C85.5916 26.9966 85.7625 27.3614 85.6713 27.5095Z" fill="#263238"/>
<path d="M68.8604 29.789C68.8667 30.2015 68.7119 30.6003 68.4288 30.9004C68.1457 31.2005 67.7566 31.3784 67.3444 31.3961C67.1419 31.4116 66.9384 31.3865 66.7457 31.3224C66.553 31.2583 66.3751 31.1564 66.2222 31.0227C66.0694 30.8889 65.9448 30.7261 65.8557 30.5436C65.7666 30.3611 65.7147 30.1627 65.7031 29.96C65.7027 29.5483 65.8615 29.1525 66.1461 28.8552C66.4307 28.5578 66.8192 28.3819 67.2305 28.3643C67.4318 28.3472 67.6345 28.3708 67.8265 28.4338C68.0184 28.4967 68.1957 28.5977 68.3479 28.7307C68.5 28.8636 68.6237 29.0259 68.7118 29.2077C68.7998 29.3895 68.8504 29.5872 68.8604 29.789Z" fill="#263238"/>
<path d="M68.942 27.5094C68.7482 27.726 67.5401 26.837 65.8418 26.837C64.1435 26.837 62.8897 27.6918 62.7074 27.4866C62.525 27.2815 62.8099 27.0193 63.357 26.6204C64.0939 26.113 64.9699 25.8462 65.8645 25.8567C66.7517 25.8484 67.6183 26.124 68.3378 26.6432C68.8507 26.9965 69.0217 27.3613 68.942 27.5094Z" fill="#263238"/>
<path d="M74.753 40.2636C75.65 39.9748 76.5814 39.8061 77.5227 39.7621C77.9558 39.7621 78.3662 39.6368 78.4345 39.3404C78.4686 38.8924 78.3694 38.4443 78.1496 38.0525L76.9186 34.7357C75.1291 30.017 73.8411 26.1417 74.0349 26.0733C74.2287 26.0049 75.8244 29.7662 77.6139 34.4849C78.0356 35.6247 78.4459 36.7645 78.8448 37.8131C79.1158 38.3398 79.1925 38.9451 79.0614 39.5228C78.9966 39.6738 78.8999 39.8091 78.7779 39.9193C78.6559 40.0294 78.5116 40.1119 78.3547 40.1611C78.1127 40.2242 77.864 40.2586 77.6139 40.2636C76.664 40.3838 75.7028 40.3838 74.753 40.2636Z" fill="#263238"/>
<path d="M75.9293 59.013C70.1182 59.101 64.3967 57.574 59.4023 54.6021C59.4023 54.6021 63.4144 63.0821 75.7583 61.9309L75.9293 59.013Z" fill="#874232"/>
<path d="M74.0249 46.1107C74.1949 45.8546 74.2824 45.5525 74.2756 45.2451C74.2687 44.9377 74.1679 44.6398 73.9866 44.3915C73.8053 44.1431 73.5523 43.9563 73.2616 43.8561C72.971 43.7559 72.6565 43.7472 72.3607 43.8312C72.3835 43.537 72.3072 43.2437 72.144 42.998C71.9809 42.7522 71.7402 42.568 71.4603 42.4748C71.1774 42.389 70.8782 42.3712 70.5871 42.4227C70.296 42.4742 70.0211 42.5935 69.7848 42.7712C69.3271 43.1136 68.9945 43.5968 68.838 44.1466C68.6815 44.6963 68.7098 45.2823 68.9186 45.8144C69.1494 46.3384 69.5328 46.7807 70.0187 47.0836C70.5046 47.3866 71.0705 47.5361 71.6427 47.5127C72.2132 47.4715 72.7621 47.2772 73.2315 46.9503C73.7009 46.6233 74.0735 46.1757 74.3098 45.6548" fill="#874232"/>
<path d="M69.7407 41.4377C70.0142 41.4377 70.0256 43.2728 71.6099 44.5835C73.1942 45.8943 75.1547 45.7233 75.166 45.9512C75.1774 46.1792 74.7329 46.316 73.9008 46.3388C72.8187 46.3497 71.7667 45.9829 70.926 45.3016C70.12 44.6403 69.6012 43.6926 69.4785 42.6573C69.4101 41.8936 69.6153 41.4263 69.7407 41.4377Z" fill="#263238"/>
<path d="M70.4126 24.4775C70.253 24.9334 68.5434 24.7168 66.5487 24.9562C64.5541 25.1956 62.9356 25.7427 62.6734 25.3323C62.548 25.1272 62.833 24.6941 63.4827 24.1925C64.3546 23.6473 65.3383 23.3057 66.3605 23.1933C67.3827 23.0808 68.4172 23.2003 69.3868 23.5429C70.0821 23.8962 70.4923 24.2609 70.4126 24.4775Z" fill="#263238"/>
<path d="M85.4327 24.1697C85.1363 24.5572 83.9624 24.1697 82.5491 24.1697C81.1357 24.1697 79.9503 24.4318 79.6654 24.0215C79.5514 23.8277 79.7338 23.4402 80.2581 23.0755C80.9567 22.6269 81.7764 22.404 82.606 22.4372C83.4287 22.4586 84.2247 22.7333 84.8856 23.2236C85.3985 23.5884 85.5695 23.9759 85.4327 24.1697Z" fill="#263238"/>
<path d="M58.5898 41.4376C58.6809 43.0674 58.6923 44.4922 58.6581 45.7346C58.6181 47.669 58.0706 49.5589 57.0704 51.2152C56.0702 52.8715 54.6525 54.2359 52.9592 55.172C50.3575 56.7021 47.4424 57.6219 44.4336 57.8619C41.1529 57.859 37.903 57.2284 34.8594 56.004C29.5404 54.1804 24.3506 52.1136 19.2899 49.8036C18.4982 49.5428 17.8189 49.0202 17.3637 48.3219C17.0754 47.4516 17.1201 46.5054 17.489 45.6662C18.2071 43.3182 18.9138 40.9702 19.6319 38.6109C19.9861 37.2456 20.5148 35.9316 21.2048 34.7014C21.5505 34.0672 22.0187 33.5079 22.5822 33.056C23.1457 32.604 23.7932 32.2684 24.4874 32.0685C25.635 31.9771 26.7766 31.8211 27.9067 31.6012C28.4787 31.3553 28.9943 30.9948 29.4216 30.5419C29.8489 30.0891 30.179 29.5536 30.3914 28.9683C30.8068 27.7932 31.1195 26.5843 31.3261 25.3552C31.9074 22.7451 33.1383 19.9982 35.5775 18.8926C36.9566 18.2543 38.5523 18.2429 39.9657 17.673C41.9041 16.6999 43.4493 15.0904 44.3424 13.1139C45.2215 11.1617 46.2071 9.25919 47.2945 7.41493C48.1739 6.0524 49.4343 4.97831 50.919 4.32611C51.6867 3.61619 52.536 3.00017 53.4493 2.49105C57.5297 0.211476 62.465 0.382437 67.1267 0.587599C71.7885 0.79276 81.944 -3.50423 82.6279 8.45213C82.2361 8.01267 81.7472 7.67068 81.2 7.45336C80.6529 7.23605 80.0625 7.1494 79.476 7.2003C78.8895 7.25121 78.323 7.43827 77.8214 7.7466C77.3199 8.05494 76.8972 8.47604 76.587 8.97643C75.5868 10.4859 75.2261 12.3304 75.584 14.1055C75.9259 16.1115 76.1767 18.3341 75.0939 20.0552C74.4718 20.9003 73.6364 21.5651 72.6732 21.9816C71.71 22.3982 70.6534 22.5515 69.6115 22.4259C67.5321 22.1475 65.5202 21.4949 63.6732 20.4997C63.6732 20.4997 62.1573 28.33 56.9599 30.2221L58.5898 41.4376Z" fill="#263238"/>
<path d="M24.2375 51.6842C23.9553 51.577 23.6932 51.4229 23.4623 51.2283C23.1723 50.9193 22.9649 50.5422 22.8593 50.1318C22.7537 49.7214 22.7533 49.2909 22.8583 48.8803C23.0686 48.2443 23.4444 47.6757 23.9472 47.233C24.45 46.7903 25.0616 46.4895 25.7192 46.3614C27.2237 45.8371 29.1385 45.9055 31.0989 44.9367C32.0932 44.39 32.8906 43.5448 33.3785 42.5203C33.8755 41.4388 34.1949 40.2842 34.3245 39.101C34.6437 36.696 34.4272 34.0175 35.7037 31.7266C36.3806 30.589 37.4324 29.7226 38.6785 29.276C40.0168 28.7999 41.4116 28.501 42.8274 28.387C44.3459 28.2749 45.8499 28.0153 47.3181 27.6119C48.9137 27.2056 50.3168 26.254 51.2846 24.922C52.0501 23.4925 52.4051 21.8791 52.3103 20.2603C52.2219 18.8175 52.4555 17.3731 52.9943 16.0317C53.3249 15.4496 53.8015 14.9638 54.3771 14.622C54.9527 14.2802 55.6075 14.0943 56.2769 14.0827C57.6302 14.0318 58.9834 14.1895 60.2889 14.55C61.5913 14.9176 62.9363 15.113 64.2895 15.1313C64.954 15.1517 65.6159 15.0393 66.2364 14.8005C66.8568 14.5617 67.4234 14.2014 67.9027 13.7407C68.706 12.806 69.1928 11.6409 69.2932 10.4125C69.4414 9.27276 69.4642 8.20136 69.5896 7.19835C69.6718 6.25929 69.9474 5.34737 70.3988 4.51986C70.8371 3.80748 71.4539 3.22203 72.1882 2.82157C72.7832 2.49983 73.4359 2.29895 74.1088 2.23048C74.7817 2.16202 75.4615 2.22733 76.1091 2.42264C76.9469 2.6741 77.7233 3.0972 78.3887 3.66502C78.8332 4.05254 79.0384 4.3033 79.0612 4.2805C79.084 4.25771 79.0612 4.20072 78.9472 4.07534C78.8088 3.88923 78.6564 3.71395 78.4913 3.55104C77.8466 2.9208 77.0671 2.44531 76.2117 2.1605C75.5306 1.92248 74.8078 1.82698 74.0882 1.87992C73.3687 1.93285 72.6677 2.1331 72.0287 2.46824C71.213 2.8812 70.5209 3.50248 70.0227 4.2691C69.5196 5.14828 69.2052 6.12259 69.0995 7.12997C68.9513 8.16717 68.9171 9.23857 68.7575 10.3328C68.6612 11.4367 68.2184 12.4819 67.4923 13.319C67.0628 13.7116 66.5594 14.0146 66.0114 14.2103C65.4635 14.406 64.8819 14.4905 64.3009 14.4588C63.0044 14.4239 61.7176 14.2247 60.4713 13.8661C59.0977 13.4725 57.6704 13.2994 56.2426 13.3532C55.4587 13.3698 54.6922 13.5883 54.0174 13.9876C53.3425 14.3869 52.782 14.9536 52.3901 15.6328C50.9426 18.5506 52.3218 21.9244 50.6919 24.4661C49.8197 25.6571 48.5571 26.5042 47.1243 26.8597C45.7013 27.253 44.2429 27.5049 42.7703 27.6119C41.2954 27.7451 39.8437 28.0669 38.4506 28.5693C37.0602 29.074 35.8906 30.05 35.1452 31.3276C33.766 33.9036 34.0054 36.6504 33.7432 38.9756C33.4811 41.3008 32.6035 43.5347 30.8596 44.458C29.1157 45.3812 27.1667 45.3584 25.6052 45.9397C24.8919 46.1029 24.2355 46.4544 23.7042 46.9576C23.173 47.4608 22.7864 48.0972 22.5848 48.8006C22.4896 49.2518 22.513 49.7201 22.6529 50.1596C22.7927 50.5991 23.0442 50.9948 23.3826 51.3081C23.6071 51.5409 23.9142 51.676 24.2375 51.6842Z" fill="#455A64"/>
<path d="M97.8721 59.8565C98.0926 59.7677 98.2997 59.6488 98.4876 59.5031C99.0335 59.0767 99.507 58.5648 99.8896 57.9872C100.492 57.0666 100.882 56.023 101.029 54.9326C101.255 53.4712 101.028 51.9758 100.38 50.647C99.6502 49.1197 98.1001 48.0711 96.8235 46.8401C96.1298 46.2512 95.5933 45.4992 95.262 44.6517C94.9732 43.7468 95.0176 42.7684 95.3874 41.8934C96.1169 40.0242 97.667 38.4741 98.8068 36.3997C99.4037 35.3244 99.7578 34.1315 99.8445 32.9048C99.9311 31.6781 99.7481 30.4472 99.3083 29.2988C98.7799 28.148 97.9131 27.1857 96.8235 26.5405C95.843 26.0005 94.9574 25.3036 94.202 24.4775C92.9508 22.7566 92.2263 20.7095 92.1162 18.5848C91.8883 16.5446 91.9452 14.5385 91.7058 12.6807C91.5514 10.9224 91.0354 9.21504 90.19 7.66563C89.4563 6.37764 88.3069 5.37698 86.9302 4.82756C85.8827 4.39504 84.7065 4.39504 83.6589 4.82756C83.0155 5.10871 82.4687 5.57235 82.0861 6.16111C81.9469 6.36258 81.8534 6.59213 81.8125 6.83359C82.2441 6.04263 82.9371 5.42619 83.773 5.08972C84.7508 4.73432 85.8275 4.76695 86.782 5.1809C88.0477 5.73037 89.0916 6.68993 89.7454 7.90499C90.5229 9.40228 90.9845 11.0433 91.1018 12.7263C91.3183 14.5385 91.2386 16.5218 91.4551 18.6304C91.5542 20.8929 92.3151 23.0765 93.6435 24.9106C94.4471 25.7908 95.3859 26.5372 96.4246 27.1218C97.3912 27.6978 98.1618 28.5518 98.6358 29.5723C99.03 30.6207 99.1933 31.7418 99.1147 32.8591C99.036 33.9764 98.7171 35.0635 98.1799 36.0463C97.1427 37.9726 95.5128 39.5683 94.7605 41.6313C94.3399 42.6513 94.3034 43.7892 94.6579 44.8341C95.032 45.7767 95.6353 46.6111 96.4132 47.2618C97.8037 48.5156 99.2399 49.5414 99.9237 50.8636C100.551 52.0932 100.797 53.4824 100.63 54.8528C100.519 55.8993 100.185 56.9097 99.6502 57.8162C99.1715 58.5878 98.571 59.2768 97.8721 59.8565Z" fill="#455A64"/>
<path d="M82.0717 124.801L74.7998 117.758C73.8839 117.111 72.8492 116.651 71.7552 116.405C70.6612 116.16 69.5294 116.132 68.4248 116.325C67.3203 116.518 66.2646 116.927 65.3185 117.529C64.3725 118.13 63.5546 118.913 62.9119 119.832L54.8079 131.344L23.4866 136.746C23.4866 136.746 29.7098 122.59 29.8124 122.032L30.4621 122.453L29.8124 122.032L10.4361 109.414L1.92187 130.261C1.92187 130.261 -5.99965 151.541 10.3221 157.741C26.6438 163.942 64.177 143.562 64.177 143.562V143.494L68.9185 139.995L71.1981 138.012C72.8138 136.629 73.8377 134.679 74.0589 132.563L74.9024 124.505C74.9024 124.505 79.2108 126.785 81.2966 127.822C82.4364 128.346 82.7783 127.822 82.9151 127.104C82.9868 126.68 82.9467 126.244 82.7988 125.841C82.6509 125.437 82.4003 125.079 82.0717 124.801Z" fill="#FFBE9D"/>
<path d="M74.8573 125.052C74.8573 125.052 74.7661 124.653 74.4013 124.129C73.9251 123.416 73.2406 122.867 72.4409 122.556C72.0219 122.412 71.5723 122.379 71.1366 122.461C70.701 122.543 70.2942 122.737 69.9562 123.024C69.4547 123.514 69.4661 123.992 69.5231 123.981C69.5801 123.97 69.6941 123.616 70.1728 123.286C70.4807 123.079 70.8315 122.945 71.1987 122.894C71.5659 122.842 71.94 122.875 72.2928 122.989C73.006 123.285 73.6389 123.746 74.1392 124.334C74.5609 124.79 74.8003 125.087 74.8573 125.052Z" fill="#874232"/>
<path d="M69.3396 128.084C69.3396 128.084 69.6245 127.913 70.0576 127.685C70.5908 127.363 71.2017 127.193 71.8244 127.193C72.447 127.193 73.0579 127.363 73.591 127.685C74.0127 127.925 74.2521 128.141 74.2977 128.096C74.3433 128.05 74.1951 127.754 73.7848 127.412C73.2225 126.978 72.5346 126.738 71.8244 126.728C71.1148 126.731 70.426 126.967 69.8639 127.4C69.4536 127.742 69.294 128.05 69.3396 128.084Z" fill="#874232"/>
<path d="M250 400.26C250 400.4 194.034 400.52 125.008 400.52C55.9822 400.52 0 400.4 0 400.26C0 400.12 55.9545 400 125.008 400C194.061 400 250 400.12 250 400.26Z" fill="#263238"/>
</svg>
