<svg width="350" height="350" viewBox="0 0 350 350" fill="none" xmlns="http://www.w3.org/2000/svg">
<path d="M141.96 252.581H129.438V329.357H141.96V252.581Z" fill="#EBEBEB"/>
<path d="M300.55 252.763H288.027V329.546H300.55V252.763Z" fill="#EBEBEB"/>
<path d="M327.304 299.397H314.781V329.539H327.304V299.397Z" fill="#EBEBEB"/>
<path d="M37.3511 257.432H24.8281V329.357H37.3511V257.432Z" fill="#EBEBEB"/>
<path d="M63.5035 202.405H50.9805V329.357H63.5035V202.405Z" fill="#EBEBEB"/>
<path d="M89.6558 284.466H77.1328V329.364H89.6558V284.466Z" fill="#EBEBEB"/>
<path d="M115.808 196.56H103.285V329.364H115.808V196.56Z" fill="#EBEBEB"/>
<path d="M168.105 208.04H155.582V329.357H168.105V208.04Z" fill="#EBEBEB"/>
<path d="M194.257 239.568H181.734V329.364H194.257V239.568Z" fill="#EBEBEB"/>
<path d="M220.406 195.65H207.883V329.357H220.406V195.65Z" fill="#EBEBEB"/>
<path d="M246.558 172.746H234.035V329.357H246.558V172.746Z" fill="#EBEBEB"/>
<path d="M272.707 218.414H260.184V329.364H272.707V218.414Z" fill="#EBEBEB"/>
<path d="M326.404 329.511C326.404 329.609 257.048 329.693 171.508 329.693C85.9677 329.693 16.5977 329.609 16.5977 329.511C16.5977 329.413 85.9397 329.329 171.508 329.329C257.076 329.329 326.404 329.406 326.404 329.511Z" fill="#263238"/>
<path d="M273.953 288.533C263.453 284.088 251.364 275.345 245.953 264.628C257.576 269.44 267.378 277.808 273.953 288.533Z" fill="#263238"/>
<path d="M271.727 271.894C261.227 267.456 249.138 258.713 243.727 247.989C255.347 252.806 265.147 261.173 271.727 271.894Z" fill="#263238"/>
<path d="M268.695 255.717C258.195 251.272 246.106 242.529 240.695 231.812C251.986 236.348 261.94 244.853 268.695 255.717Z" fill="#263238"/>
<path d="M264.9 238.777C255.023 232.918 244.012 222.572 239.91 211.211C250.884 217.602 259.613 227.23 264.9 238.777Z" fill="#263238"/>
<path d="M260.838 225.82C253.642 216.405 246.936 202.398 247.02 190.26C255.02 200.498 259.827 212.866 260.838 225.82Z" fill="#263238"/>
<path d="M262.848 231.98C264.304 219.254 269.253 203.28 277.66 193.704C276.24 207.559 271.124 220.779 262.848 231.98Z" fill="#263238"/>
<path d="M266.238 245.903C268.8 232.778 275.275 216.552 284.816 207.347C282.203 221.636 275.785 234.955 266.238 245.903Z" fill="#263238"/>
<path d="M270.121 262.878C272.683 249.76 279.158 233.527 288.706 224.322C286.095 238.613 279.674 251.933 270.121 262.878Z" fill="#263238"/>
<path d="M273.242 283.724C275.804 270.599 282.279 254.373 291.82 245.168C289.208 259.457 282.79 272.777 273.242 283.724Z" fill="#263238"/>
<path d="M260.351 223.3C260.351 223.3 260.386 223.363 260.435 223.496C260.484 223.629 260.554 223.839 260.631 224.077L261.331 226.352C261.961 228.326 262.808 231.196 263.809 234.752C264.81 238.308 265.909 242.585 267.05 247.352C268.191 252.119 269.304 257.376 270.354 262.927C271.404 268.478 272.244 273.798 272.93 278.642C273.616 283.486 274.12 287.875 274.484 291.557C274.848 295.239 275.1 298.221 275.233 300.293C275.293 301.301 275.342 302.092 275.38 302.666C275.38 302.918 275.38 303.121 275.38 303.289C275.392 303.358 275.392 303.43 275.38 303.499C275.362 303.43 275.35 303.36 275.345 303.289C275.345 303.128 275.303 302.925 275.275 302.673C275.219 302.099 275.149 301.308 275.051 300.3C274.869 298.242 274.575 295.26 274.176 291.585C273.777 287.91 273.224 283.542 272.538 278.698C271.852 273.854 270.97 268.548 269.934 263.004C268.898 257.46 267.757 252.203 266.665 247.436C265.573 242.669 264.474 238.406 263.508 234.836C262.542 231.266 261.737 228.382 261.156 226.394C260.883 225.428 260.666 224.658 260.505 224.105C260.442 223.86 260.386 223.664 260.344 223.503C260.337 223.435 260.339 223.367 260.351 223.3Z" fill="#263238"/>
<path d="M279.048 295.463C274.61 286.167 271.383 273.063 273.56 262.892C278.527 272.981 280.435 284.303 279.048 295.463Z" fill="#455A64"/>
<path d="M286.431 283.423C281.993 274.127 278.766 261.058 280.943 250.852C285.91 260.941 287.817 272.263 286.431 283.423Z" fill="#455A64"/>
<path d="M293.052 271.18C288.614 261.884 285.387 248.815 287.564 238.609C292.531 248.699 294.438 260.02 293.052 271.18Z" fill="#455A64"/>
<path d="M299.598 257.978C296.294 248.143 294.635 234.724 298.009 224.91C301.731 235.546 302.283 247.034 299.598 257.978Z" fill="#455A64"/>
<path d="M303.801 247.17C304.13 236.67 307.21 223.587 313.706 215.859C313.565 227.045 310.119 237.939 303.801 247.17Z" fill="#455A64"/>
<path d="M301.867 252.364C309.567 245.091 321.278 237.881 331.799 236.964C323.563 244.943 313.147 250.302 301.867 252.364Z" fill="#455A64"/>
<path d="M296.672 263.375C305.303 256.536 318.12 250.117 329.208 250.075C319.921 257.636 308.596 262.265 296.672 263.375Z" fill="#455A64"/>
<path d="M290.184 276.654C298.815 269.815 311.632 263.396 322.72 263.354C313.434 270.918 302.108 275.548 290.184 276.654Z" fill="#455A64"/>
<path d="M281.141 291.942C289.772 285.103 302.596 278.684 313.677 278.642C304.392 286.207 293.066 290.837 281.141 291.942Z" fill="#455A64"/>
<path d="M304.836 245.273C304.836 245.273 304.836 245.329 304.787 245.441L304.612 245.938C304.43 246.4 304.192 247.023 303.912 247.821C303.282 249.452 302.323 251.797 301.112 254.674C298.648 260.428 295.001 268.282 290.465 276.696C288.197 280.896 285.922 284.844 283.787 288.393C281.652 291.942 279.643 295.085 277.907 297.689C276.171 300.293 274.736 302.386 273.707 303.8C273.21 304.5 272.818 305.039 272.524 305.438L272.209 305.858C272.139 305.949 272.097 305.998 272.09 305.991L272.181 305.83L272.461 305.389L273.581 303.716C274.568 302.267 275.968 300.16 277.669 297.535C279.37 294.91 281.337 291.753 283.472 288.211C285.607 284.669 287.805 280.7 290.073 276.5C294.602 268.1 298.284 260.274 300.811 254.548C302.078 251.692 303.079 249.361 303.744 247.744C304.08 246.967 304.346 246.344 304.535 245.896C304.626 245.7 304.696 245.546 304.752 245.413C304.808 245.28 304.829 245.266 304.836 245.273Z" fill="#263238"/>
<path d="M300.193 296.583H256.086V305.088H260.615L264.437 329.329H291.702L295.622 305.088H300.193V296.583Z" fill="#FF725E"/>
<path d="M300.194 304.906C300.194 304.794 290.394 304.703 278.298 304.703C266.202 304.703 256.402 304.794 256.402 304.906C256.402 305.018 266.202 305.109 278.298 305.109C290.394 305.109 300.194 305.018 300.194 304.906Z" fill="#263238"/>
<path d="M293.161 32.4309H87.4795C83.0143 32.4309 79.3945 36.0507 79.3945 40.5159V178.934C79.3945 183.399 83.0143 187.019 87.4795 187.019H293.161C297.626 187.019 301.246 183.399 301.246 178.934V40.5159C301.246 36.0507 297.626 32.4309 293.161 32.4309Z" fill="#E0E0E0"/>
<path d="M301.246 40.5159C301.246 40.5159 301.246 40.3549 301.211 40.0399C301.183 39.5675 301.111 39.0987 300.994 38.6399C300.551 36.8155 299.481 35.2048 297.97 34.0899C297.452 33.6982 296.888 33.3714 296.29 33.1169C295.618 32.8416 294.911 32.6557 294.19 32.5639C293.402 32.488 292.609 32.4622 291.817 32.4869H289.241H276.816L197.632 32.5499H142.948H88.4253C87.7498 32.5284 87.0737 32.5565 86.4023 32.6339C85.7365 32.7231 85.0849 32.8972 84.4633 33.1519C83.2114 33.6727 82.1129 34.5038 81.2713 35.5669C80.423 36.6349 79.8702 37.9071 79.6683 39.2559C79.5766 39.9355 79.5415 40.6215 79.5633 41.3069V43.4069C79.5633 46.2069 79.5633 49.0209 79.5633 51.8489V69.0549C79.5633 80.6283 79.5633 92.4303 79.5633 104.461V178.92C79.5734 179.699 79.6864 180.473 79.8993 181.223C80.3512 182.722 81.2363 184.053 82.4434 185.049C83.6504 186.046 85.1253 186.663 86.6823 186.823C87.4523 186.879 88.2503 186.858 89.0413 186.858H218.611L281.401 186.9H292.314C292.907 186.915 293.501 186.899 294.092 186.851C294.671 186.779 295.241 186.648 295.793 186.459C296.886 186.078 297.882 185.464 298.712 184.658C299.543 183.853 300.188 182.877 300.602 181.797C300.997 180.722 301.175 179.581 301.127 178.437C301.127 177.289 301.127 176.141 301.127 175C301.127 165.881 301.127 157.136 301.127 148.764C301.127 115.332 301.176 88.2769 301.19 69.5799C301.19 60.2349 301.19 52.9759 301.19 48.0549C301.19 45.5909 301.19 43.7149 301.19 42.4549C301.19 41.1949 301.19 40.5439 301.19 40.5439C301.19 40.5439 301.19 41.1949 301.19 42.4549C301.19 43.7149 301.19 45.5909 301.19 48.0549C301.19 52.9549 301.19 60.2349 301.225 69.5799C301.225 88.2769 301.26 115.332 301.281 148.764C301.281 157.122 301.281 165.867 301.281 175V178.437C301.327 179.614 301.142 180.789 300.735 181.895C300.309 183.017 299.642 184.032 298.781 184.867C297.92 185.703 296.886 186.34 295.751 186.732C295.181 186.934 294.589 187.07 293.987 187.138C293.387 187.19 292.784 187.211 292.181 187.201H281.401H218.639H149.269H89.0693C88.2713 187.201 87.4943 187.201 86.6753 187.166C85.8707 187.073 85.082 186.873 84.3303 186.571C83.5754 186.256 82.8684 185.837 82.2303 185.325C81.6067 184.803 81.0579 184.198 80.5993 183.526C80.1537 182.845 79.805 182.105 79.5633 181.328C79.3362 180.545 79.2161 179.735 79.2063 178.92C79.2063 153.419 79.2063 128.52 79.2063 104.461V69.0549C79.2063 63.2729 79.2063 57.5516 79.2063 51.8909V41.3909C79.1828 40.6892 79.2179 39.9868 79.3113 39.2909C79.5242 37.8846 80.1036 36.5592 80.9913 35.4479C81.8686 34.3246 83.0211 33.4469 84.3373 32.8999C84.9854 32.6332 85.6654 32.452 86.3603 32.3609C87.0455 32.2809 87.7359 32.2528 88.4253 32.2769H112.484H142.948H197.632L276.816 32.3329H289.241H291.838C292.635 32.3108 293.432 32.3389 294.225 32.4169C294.947 32.5118 295.654 32.7025 296.325 32.9839C296.926 33.2474 297.494 33.5786 298.019 33.9709C298.891 34.6254 299.622 35.4492 300.168 36.3929C300.558 37.0903 300.839 37.8434 301.001 38.6259C301.114 39.085 301.182 39.5539 301.204 40.0259C301.239 40.3549 301.246 40.5159 301.246 40.5159Z" fill="#263238"/>
<path d="M95.2227 37.884L95.2227 182.721H280.492V37.884H95.2227Z" fill="white"/>
<path d="M290.097 115.031C293.371 115.031 296.026 112.376 296.026 109.102C296.026 105.827 293.371 103.173 290.097 103.173C286.822 103.173 284.168 105.827 284.168 109.102C284.168 112.376 286.822 115.031 290.097 115.031Z" fill="#263238"/>
<path d="M85.7812 87.3041V132.153C85.7812 132.625 86.1636 133.007 86.6353 133.007H87.3773C87.8489 133.007 88.2313 132.625 88.2313 132.153V87.3041C88.2313 86.8324 87.8489 86.4501 87.3773 86.4501H86.6353C86.1636 86.4501 85.7812 86.8324 85.7812 87.3041Z" fill="#263238"/>
<path d="M112.576 37.3799H95.2227V182.721H112.576V37.3799Z" fill="#FF725E"/>
<path d="M96.8831 100.618H113.333V115.066H96.8831C96.6629 115.069 96.4444 115.028 96.2402 114.945C96.036 114.863 95.8503 114.74 95.694 114.585C95.5376 114.43 95.4136 114.245 95.3294 114.042C95.2451 113.839 95.2022 113.62 95.2031 113.4V102.277C95.2031 102.057 95.2467 101.84 95.3314 101.637C95.4161 101.435 95.5402 101.251 95.6964 101.096C95.8527 100.942 96.0381 100.82 96.2418 100.738C96.4455 100.656 96.6635 100.615 96.8831 100.618Z" fill="white"/>
<path d="M103.902 58.2888C103.486 58.2888 103.074 58.2068 102.69 58.0473C102.306 57.8879 101.956 57.6542 101.663 57.3596C101.369 57.0651 101.136 56.7155 100.977 56.3308C100.819 55.9461 100.737 55.5339 100.738 55.1178C100.737 54.7014 100.818 54.2889 100.977 53.9038C101.135 53.5187 101.368 53.1686 101.662 52.8735C101.956 52.5784 102.305 52.3441 102.689 52.1839C103.074 52.0237 103.486 51.9407 103.902 51.9398C104.322 51.9361 104.738 52.0156 105.126 52.1738C105.514 52.3319 105.868 52.5655 106.165 52.8611C106.463 53.1567 106.699 53.5083 106.859 53.8957C107.02 54.283 107.102 54.6984 107.101 55.1178C107.101 55.5366 107.018 55.9513 106.857 56.3378C106.696 56.7244 106.46 57.0752 106.163 57.37C105.865 57.6648 105.512 57.8978 105.124 58.0555C104.736 58.2132 104.321 58.2925 103.902 58.2888Z" fill="white"/>
<path d="M106.532 69.685C105.592 69.8641 104.632 69.9253 103.676 69.867C102.72 69.9253 101.761 69.8641 100.82 69.685C101.761 69.5059 102.72 69.4448 103.676 69.503C104.632 69.4448 105.592 69.5059 106.532 69.685Z" fill="white"/>
<path d="M107.037 85.7709C106.099 85.9503 105.142 86.0115 104.188 85.9529C103.232 86.0117 102.273 85.9505 101.332 85.7709C102.272 85.5871 103.232 85.526 104.188 85.5889C105.142 85.5262 106.099 85.5873 107.037 85.7709Z" fill="white"/>
<path d="M107.037 126.7C106.099 126.879 105.142 126.941 104.188 126.882C103.232 126.941 102.273 126.88 101.332 126.7C102.273 126.52 103.232 126.459 104.188 126.518C105.142 126.459 106.099 126.521 107.037 126.7Z" fill="white"/>
<path d="M107.037 147.777C106.099 147.956 105.142 148.017 104.188 147.959C103.232 148.018 102.273 147.956 101.332 147.777C102.273 147.597 103.232 147.536 104.188 147.595C105.142 147.536 106.099 147.597 107.037 147.777Z" fill="white"/>
<path d="M107.037 108.059C106.099 108.238 105.142 108.3 104.188 108.241C103.232 108.3 102.273 108.239 101.332 108.059C102.272 107.875 103.232 107.814 104.188 107.877C105.142 107.814 106.099 107.875 107.037 108.059Z" fill="#263238"/>
<path d="M280.49 182.7C280.49 181.447 280.434 125.034 280.343 37.359L280.49 37.513H95.2351L95.4171 37.331C95.4171 89.754 95.4171 139.314 95.4171 182.672L95.2561 182.511L280.49 182.7L95.2001 182.882H95.0391V182.7C95.0391 139.342 95.0391 89.782 95.0391 37.359V37.177H95.2351H280.49H280.644V37.324C280.553 125.055 280.49 181.468 280.49 182.7Z" fill="#263238"/>
<path d="M224.104 157.017H221.605V165.375H224.104V157.017Z" fill="#FF725E"/>
<path d="M203.261 155.806H200.762V165.375H203.261V155.806Z" fill="#FF725E"/>
<path d="M208.468 153.811H205.969V165.375H208.468V153.811Z" fill="#FF725E"/>
<path d="M213.683 154.448H211.184V165.382H213.683V154.448Z" fill="#FF725E"/>
<path d="M218.894 150.745H216.395V165.375H218.894V150.745Z" fill="#FF725E"/>
<path d="M229.315 150.815H226.816V165.375H229.315V150.815Z" fill="#FF725E"/>
<path d="M234.53 155.596H232.031V165.375H234.53V155.596Z" fill="#FF725E"/>
<path d="M239.737 151.459H237.238V165.375H239.737V151.459Z" fill="#FF725E"/>
<path d="M244.952 148.323H242.453V165.375H244.952V148.323Z" fill="#FF725E"/>
<path d="M250.159 151.389H247.66V165.375H250.159V151.389Z" fill="#FF725E"/>
<path d="M255.376 175.742H193.986C192.642 175.74 191.354 175.206 190.404 174.256C189.454 173.306 188.92 172.018 188.918 170.674V133.973C188.92 132.629 189.454 131.341 190.404 130.391C191.354 129.441 192.642 128.907 193.986 128.905H255.376C256.72 128.907 258.007 129.441 258.958 130.391C259.908 131.341 260.442 132.629 260.444 133.973V170.674C260.442 172.018 259.908 173.306 258.958 174.256C258.007 175.206 256.72 175.74 255.376 175.742ZM193.986 129.402C192.775 129.404 191.614 129.886 190.758 130.743C189.903 131.6 189.422 132.762 189.422 133.973V170.674C189.422 171.885 189.903 173.047 190.758 173.904C191.614 174.761 192.775 175.243 193.986 175.245H255.376C256.588 175.243 257.749 174.761 258.606 173.904C259.463 173.047 259.945 171.886 259.947 170.674V133.973C259.945 132.761 259.463 131.6 258.606 130.743C257.749 129.886 256.588 129.404 255.376 129.402H193.986Z" fill="#E0E0E0"/>
<path d="M228.935 141.106C228.935 141.176 221.83 141.239 213.073 141.239C204.316 141.239 197.211 141.176 197.211 141.106C197.211 141.036 204.309 140.98 213.073 140.98C221.837 140.98 228.935 141.036 228.935 141.106Z" fill="#E0E0E0"/>
<path d="M126.629 129.318V174.65H132.117H139.67H174.866V129.318H126.629Z" fill="#F5F5F5"/>
<path d="M150.538 134.456C147.595 134.456 144.718 135.329 142.27 136.964C139.823 138.599 137.915 140.924 136.789 143.643C135.663 146.362 135.368 149.355 135.942 152.241C136.516 155.128 137.934 157.78 140.015 159.861C142.096 161.943 144.748 163.36 147.635 163.934C150.522 164.508 153.514 164.214 156.233 163.087C158.953 161.961 161.277 160.053 162.912 157.606C164.547 155.159 165.42 152.281 165.42 149.338C165.42 145.391 163.852 141.606 161.061 138.815C158.271 136.024 154.485 134.456 150.538 134.456ZM150.762 158.256C148.955 158.256 147.188 157.72 145.685 156.716C144.182 155.712 143.01 154.285 142.318 152.616C141.625 150.946 141.443 149.109 141.795 147.336C142.147 145.563 143.016 143.934 144.293 142.655C145.57 141.376 147.198 140.504 148.97 140.149C150.743 139.795 152.58 139.974 154.251 140.664C155.922 141.354 157.351 142.523 158.357 144.025C159.363 145.526 159.901 147.293 159.904 149.1C159.906 150.302 159.671 151.492 159.212 152.603C158.754 153.714 158.081 154.723 157.232 155.573C156.382 156.424 155.374 157.099 154.264 157.559C153.154 158.019 151.964 158.256 150.762 158.256Z" fill="#263238"/>
<path d="M150.77 134.463V140C152.205 140.003 153.62 140.343 154.899 140.994C156.179 141.645 157.287 142.588 158.135 143.746C158.983 144.905 159.546 146.246 159.779 147.663C160.013 149.079 159.909 150.531 159.478 151.9L164.875 153.363C165.488 151.169 165.591 148.864 165.174 146.624C164.757 144.385 163.831 142.271 162.469 140.445C161.106 138.619 159.343 137.131 157.315 136.093C155.287 135.056 153.047 134.499 150.77 134.463Z" fill="#FF725E"/>
<path d="M141.619 149.1C141.619 147.333 142.131 145.604 143.092 144.122C144.054 142.64 145.424 141.468 147.037 140.749L144.748 135.611C142.051 136.748 139.749 138.656 138.13 141.095C136.512 143.534 135.648 146.396 135.648 149.324C135.648 149.534 135.648 149.744 135.648 149.947H141.64C141.619 149.665 141.612 149.382 141.619 149.1Z" fill="#455A64"/>
<path d="M150.76 158.256C150.111 158.258 149.463 158.187 148.828 158.046C148.597 159.376 148.128 161.945 147.82 163.968C148.716 164.133 149.625 164.218 150.536 164.22C153.785 164.22 156.944 163.157 159.532 161.195C162.12 159.232 163.996 156.477 164.872 153.349L159.475 151.9C158.884 153.747 157.722 155.358 156.155 156.5C154.589 157.643 152.699 158.258 150.76 158.256Z" fill="#FF725E"/>
<g opacity="0.3">
<path opacity="0.3" d="M150.76 158.256C150.111 158.258 149.463 158.187 148.828 158.046C148.597 159.376 148.128 161.945 147.82 163.968C148.716 164.133 149.625 164.218 150.536 164.22C153.785 164.22 156.944 163.157 159.532 161.195C162.12 159.232 163.996 156.477 164.872 153.349L159.475 151.9C158.884 153.747 157.722 155.358 156.155 156.5C154.589 157.643 152.699 158.258 150.76 158.256Z" fill="#111111"/>
</g>
<path d="M148.788 149.856H148.235V150.556H147.472V149.856H145.652V149.324L147.248 147.182H148.067L146.59 149.212H147.5V148.582H148.2V149.212H148.753L148.788 149.856Z" fill="#263238"/>
<path d="M149.02 148.869C149.02 147.756 149.636 147.126 150.469 147.126C151.302 147.126 151.918 147.756 151.918 148.869C151.918 149.982 151.309 150.619 150.469 150.619C149.629 150.619 149.02 149.989 149.02 148.869ZM151.12 148.869C151.12 148.106 150.847 147.784 150.42 147.784C149.993 147.784 149.762 148.106 149.762 148.869C149.762 149.632 150.035 149.961 150.42 149.961C150.805 149.961 151.134 149.639 151.134 148.869H151.12Z" fill="#263238"/>
<path d="M152.239 148.078C152.226 147.959 152.239 147.839 152.276 147.726C152.312 147.612 152.373 147.508 152.453 147.419C152.533 147.331 152.63 147.26 152.74 147.212C152.849 147.164 152.967 147.139 153.086 147.14C153.275 147.122 153.464 147.161 153.63 147.252C153.796 147.343 153.93 147.482 154.015 147.651C154.1 147.82 154.132 148.011 154.107 148.199C154.082 148.386 154 148.562 153.873 148.702C153.747 148.843 153.58 148.941 153.396 148.986C153.212 149.03 153.019 149.017 152.843 148.95C152.666 148.882 152.514 148.763 152.406 148.607C152.298 148.452 152.24 148.267 152.239 148.078ZM153.436 148.078C153.436 147.714 153.296 147.539 153.086 147.539C152.876 147.539 152.729 147.721 152.729 148.078C152.729 148.435 152.876 148.61 153.086 148.61C153.296 148.61 153.436 148.435 153.436 148.078ZM155.095 147.182H155.676L153.366 150.563H152.785L155.095 147.182ZM154.542 149.667C154.56 149.504 154.625 149.349 154.728 149.222C154.832 149.095 154.97 149.001 155.127 148.951C155.283 148.901 155.45 148.898 155.608 148.941C155.767 148.985 155.909 149.073 156.018 149.196C156.127 149.318 156.198 149.47 156.222 149.632C156.246 149.794 156.223 149.96 156.155 150.109C156.087 150.259 155.977 150.385 155.839 150.473C155.7 150.561 155.539 150.607 155.375 150.605C155.257 150.605 155.14 150.58 155.032 150.531C154.924 150.482 154.827 150.411 154.748 150.323C154.67 150.234 154.611 150.13 154.575 150.017C154.54 149.904 154.528 149.785 154.542 149.667ZM155.732 149.667C155.732 149.31 155.592 149.135 155.375 149.135C155.158 149.135 155.025 149.31 155.025 149.667C155.025 150.024 155.172 150.206 155.375 150.206C155.578 150.206 155.732 150.024 155.732 149.667Z" fill="#263238"/>
<path d="M162.856 168C162.856 168.077 157.34 168.14 150.536 168.14C143.732 168.14 138.223 168.077 138.223 168C138.223 167.923 143.732 167.853 150.536 167.853C157.34 167.853 162.856 167.895 162.856 168Z" fill="#263238"/>
<path d="M157.367 170.24C157.367 170.317 154.308 170.38 150.535 170.38C146.762 170.38 143.703 170.317 143.703 170.24C143.703 170.163 146.762 170.093 150.535 170.093C154.308 170.093 157.367 170.163 157.367 170.24Z" fill="#263238"/>
<path d="M270.25 62.8739H269.55H267.45H259.267L228.789 62.9999L125.385 63.0629L125.637 62.8809C125.637 71.0079 125.637 79.4359 125.637 88.0809C125.637 96.9709 125.637 105.644 125.637 114.023L125.385 113.841L228.068 113.904L258.273 113.96L266.386 113.995H268.486H269.186C269.186 113.995 268.948 113.995 268.486 113.995H266.386H258.273L228.068 114.051L125.385 114.114H125.133V113.932C125.133 105.532 125.133 96.8799 125.133 87.9899C125.133 79.3659 125.133 70.9379 125.133 62.7899V62.6079H125.385L228.789 62.6709L259.225 62.7269H267.408H269.508L270.25 62.8739Z" fill="#E0E0E0"/>
<path d="M270.252 71.4839C270.252 71.5819 237.821 71.6659 197.823 71.6659C157.825 71.6659 125.387 71.5819 125.387 71.4839C125.387 71.3859 157.811 71.2949 197.823 71.2949C237.835 71.2949 270.252 71.3999 270.252 71.4839Z" fill="#E0E0E0"/>
<path d="M270.252 78.5259C270.252 78.6239 237.821 78.7079 197.823 78.7079C157.825 78.7079 125.387 78.6239 125.387 78.5259C125.387 78.4279 157.811 78.3369 197.823 78.3369C237.835 78.3369 270.252 78.3999 270.252 78.5259Z" fill="#E0E0E0"/>
<path d="M270.252 85.5679C270.252 85.6659 237.821 85.7499 197.823 85.7499C157.825 85.7499 125.387 85.6659 125.387 85.5679C125.387 85.4699 157.811 85.3999 197.823 85.3999C237.835 85.3999 270.252 85.4629 270.252 85.5679Z" fill="#E0E0E0"/>
<path d="M270.252 92.6099C270.252 92.7079 237.821 92.7919 197.823 92.7919C157.825 92.7919 125.387 92.7079 125.387 92.6099C125.387 92.5119 157.811 92.3999 197.823 92.3999C237.835 92.3999 270.252 92.5049 270.252 92.6099Z" fill="#E0E0E0"/>
<path d="M270.252 99.6519C270.252 99.7499 237.821 99.8339 197.823 99.8339C157.825 99.8339 125.387 99.7499 125.387 99.6519C125.387 99.5539 157.811 99.4629 197.823 99.4629C237.835 99.4629 270.252 99.5469 270.252 99.6519Z" fill="#E0E0E0"/>
<path d="M125.387 106.687C125.387 106.589 157.818 106.505 197.816 106.505C237.814 106.505 270.252 106.589 270.252 106.687C270.252 106.785 237.828 106.876 197.816 106.876C157.804 106.876 125.387 106.792 125.387 106.687Z" fill="#E0E0E0"/>
<path d="M145.916 114.8C145.811 114.8 145.734 103.187 145.734 88.8579C145.734 74.5289 145.811 62.9019 145.916 62.9019C146.021 62.9019 146.105 74.5219 146.105 88.8579C146.105 103.194 146.021 114.8 145.916 114.8Z" fill="#E0E0E0"/>
<path d="M166.783 114.8C166.678 114.8 166.594 103.187 166.594 88.8579C166.594 74.5289 166.678 62.9019 166.783 62.9019C166.888 62.9019 166.965 74.5219 166.965 88.8579C166.965 103.194 166.881 114.8 166.783 114.8Z" fill="#E0E0E0"/>
<path d="M187.643 114.8C187.545 114.8 187.461 103.187 187.461 88.8579C187.461 74.5289 187.545 62.9019 187.643 62.9019C187.741 62.9019 187.832 74.5219 187.832 88.8579C187.832 103.194 187.748 114.8 187.643 114.8Z" fill="#E0E0E0"/>
<path d="M208.509 114.8C208.404 114.8 208.32 103.187 208.32 88.8579C208.32 74.5289 208.404 62.9019 208.509 62.9019C208.614 62.9019 208.691 74.5219 208.691 88.8579C208.691 103.194 208.6 114.8 208.509 114.8Z" fill="#E0E0E0"/>
<path d="M229.37 114.8C229.272 114.8 229.188 103.187 229.188 88.8579C229.188 74.5289 229.272 62.9019 229.37 62.9019C229.468 62.9019 229.559 74.5219 229.559 88.8579C229.559 103.194 229.475 114.8 229.37 114.8Z" fill="#E0E0E0"/>
<path d="M249.572 114.8C249.467 114.8 249.383 103.187 249.383 88.8579C249.383 74.5289 249.467 62.9019 249.572 62.9019C249.677 62.9019 249.754 74.5219 249.754 88.8579C249.754 103.194 249.67 114.8 249.572 114.8Z" fill="#E0E0E0"/>
<path d="M270.432 114.8C270.334 114.8 270.25 103.187 270.25 88.8579C270.25 74.5289 270.334 62.9019 270.432 62.9019C270.53 62.9019 270.621 74.5219 270.621 88.8579C270.621 103.194 270.537 114.8 270.432 114.8Z" fill="#E0E0E0"/>
<path d="M147.193 106.687C147.194 106.939 147.12 107.186 146.981 107.397C146.842 107.607 146.644 107.771 146.411 107.869C146.178 107.966 145.922 107.993 145.674 107.944C145.427 107.896 145.199 107.775 145.02 107.597C144.841 107.419 144.719 107.192 144.67 106.945C144.62 106.698 144.645 106.441 144.741 106.208C144.837 105.975 145 105.775 145.21 105.635C145.42 105.495 145.666 105.42 145.919 105.42C146.255 105.42 146.578 105.553 146.817 105.791C147.056 106.028 147.191 106.35 147.193 106.687Z" fill="#FF725E"/>
<path d="M168.052 92.61C168.052 92.8622 167.977 93.1088 167.837 93.3185C167.696 93.5281 167.497 93.6914 167.264 93.7876C167.031 93.8838 166.774 93.9087 166.527 93.8589C166.279 93.8092 166.052 93.6872 165.875 93.5083C165.697 93.3294 165.576 93.1018 165.528 92.8542C165.479 92.6066 165.505 92.3502 165.603 92.1175C165.7 91.8849 165.865 91.6864 166.075 91.5473C166.286 91.4081 166.533 91.3346 166.785 91.336C166.952 91.336 167.117 91.369 167.271 91.4331C167.426 91.4972 167.566 91.5911 167.683 91.7095C167.801 91.8279 167.894 91.9684 167.957 92.123C168.021 92.2775 168.053 92.443 168.052 92.61Z" fill="#FF725E"/>
<path d="M188.915 99.526C188.917 99.7783 188.843 100.025 188.704 100.236C188.565 100.446 188.366 100.611 188.134 100.708C187.901 100.806 187.645 100.832 187.397 100.783C187.149 100.735 186.922 100.614 186.743 100.436C186.564 100.258 186.442 100.031 186.392 99.7842C186.342 99.5368 186.367 99.2803 186.463 99.0471C186.56 98.8139 186.723 98.6145 186.933 98.4742C187.142 98.3339 187.389 98.259 187.641 98.259C187.977 98.2608 188.299 98.3947 188.538 98.6317C188.776 98.8687 188.912 99.1899 188.915 99.526Z" fill="#FF725E"/>
<path d="M209.65 84.6998C209.897 84.9468 210.036 85.2816 210.036 85.6308C210.036 85.98 209.897 86.3149 209.65 86.5618C209.403 86.8088 209.068 86.9475 208.719 86.9475C208.37 86.9475 208.035 86.8088 207.788 86.5618C207.541 86.3149 207.402 85.98 207.402 85.6308C207.402 85.2816 207.541 84.9468 207.788 84.6998C208.035 84.4529 208.37 84.3142 208.719 84.3142C209.068 84.3142 209.403 84.4529 209.65 84.6998Z" fill="#FF725E"/>
<path d="M230.755 84.6998C230.878 84.8221 230.975 84.9672 231.041 85.127C231.107 85.2867 231.141 85.4579 231.141 85.6308C231.141 85.8037 231.107 85.9749 231.041 86.1347C230.975 86.2944 230.878 86.4396 230.755 86.5618C230.633 86.6841 230.488 86.7811 230.328 86.8472C230.169 86.9134 229.997 86.9475 229.824 86.9475C229.652 86.9475 229.48 86.9134 229.321 86.8472C229.161 86.7811 229.016 86.6841 228.893 86.5618C228.647 86.3149 228.508 85.98 228.508 85.6308C228.508 85.2816 228.647 84.9468 228.893 84.6998C229.14 84.4529 229.475 84.3142 229.824 84.3142C230.174 84.3142 230.509 84.4529 230.755 84.6998Z" fill="#FF725E"/>
<path d="M250.498 98.518C250.745 98.7649 250.883 99.0998 250.883 99.449C250.883 99.7982 250.745 100.133 250.498 100.38C250.251 100.627 249.916 100.766 249.567 100.766C249.217 100.766 248.883 100.627 248.636 100.38C248.389 100.133 248.25 99.7982 248.25 99.449C248.25 99.0998 248.389 98.7649 248.636 98.518C248.883 98.271 249.217 98.1323 249.567 98.1323C249.916 98.1323 250.251 98.271 250.498 98.518Z" fill="#FF725E"/>
<path d="M168.052 78.526C168.052 78.7782 167.977 79.0248 167.837 79.2345C167.696 79.4441 167.497 79.6074 167.264 79.7036C167.031 79.7999 166.774 79.8247 166.527 79.775C166.279 79.7252 166.052 79.6032 165.875 79.4243C165.697 79.2454 165.576 79.0178 165.528 78.7702C165.479 78.5226 165.505 78.2662 165.603 78.0336C165.7 77.8009 165.865 77.6024 166.075 77.4633C166.286 77.3241 166.533 77.2506 166.785 77.252C166.952 77.252 167.117 77.285 167.271 77.3491C167.426 77.4132 167.566 77.5071 167.683 77.6255C167.801 77.7439 167.894 77.8844 167.957 78.039C168.021 78.1935 168.053 78.359 168.052 78.526Z" fill="#455A64"/>
<path d="M147.193 99.6519C147.193 99.9039 147.118 100.15 146.978 100.36C146.838 100.569 146.639 100.733 146.406 100.829C146.173 100.925 145.917 100.951 145.67 100.901C145.423 100.852 145.196 100.731 145.018 100.553C144.84 100.375 144.718 100.148 144.669 99.9005C144.62 99.6533 144.645 99.3972 144.742 99.1644C144.838 98.9316 145.001 98.7326 145.211 98.5926C145.42 98.4527 145.667 98.3779 145.919 98.3779C146.256 98.3779 146.58 98.5122 146.819 98.7511C147.058 98.99 147.193 99.3141 147.193 99.6519Z" fill="#455A64"/>
<path d="M250.503 105.763C250.727 106.014 250.848 106.342 250.838 106.679C250.828 107.015 250.69 107.336 250.451 107.574C250.213 107.811 249.892 107.949 249.555 107.957C249.218 107.965 248.891 107.844 248.641 107.618C248.416 107.367 248.296 107.039 248.305 106.703C248.315 106.366 248.453 106.045 248.692 105.808C248.931 105.57 249.251 105.433 249.588 105.424C249.925 105.416 250.252 105.537 250.503 105.763Z" fill="#455A64"/>
<path d="M230.646 92.61C230.646 92.8619 230.571 93.1083 230.431 93.3178C230.291 93.5273 230.092 93.6906 229.859 93.787C229.626 93.8834 229.37 93.9086 229.123 93.8595C228.876 93.8103 228.649 93.689 228.471 93.5108C228.293 93.3326 228.171 93.1056 228.122 92.8585C228.073 92.6114 228.098 92.3552 228.195 92.1224C228.291 91.8896 228.454 91.6907 228.664 91.5507C228.873 91.4107 229.12 91.336 229.372 91.336C229.539 91.335 229.705 91.3674 229.86 91.4311C230.015 91.4947 230.156 91.5886 230.275 91.707C230.393 91.8255 230.487 91.9663 230.551 92.1213C230.614 92.2763 230.647 92.4424 230.646 92.61Z" fill="#455A64"/>
<path d="M210.001 92.3998C210.002 92.6521 209.929 92.8991 209.79 93.1095C209.651 93.3199 209.452 93.4843 209.22 93.5818C208.987 93.6793 208.73 93.7055 208.483 93.6572C208.235 93.6088 208.008 93.488 207.829 93.3101C207.65 93.1322 207.528 92.9053 207.478 92.6579C207.428 92.4106 207.453 92.1541 207.549 91.9209C207.646 91.6877 207.809 91.4883 208.019 91.348C208.228 91.2077 208.475 91.1328 208.727 91.1328C209.063 91.1346 209.385 91.2685 209.623 91.5055C209.862 91.7425 209.997 92.0637 210.001 92.3998Z" fill="#455A64"/>
<path d="M137.202 119.826C135.873 120.068 134.512 120.068 133.184 119.826C134.511 119.574 135.874 119.574 137.202 119.826Z" fill="#E0E0E0"/>
<path d="M158.53 119.826C157.201 120.068 155.84 120.068 154.512 119.826C155.839 119.574 157.202 119.574 158.53 119.826Z" fill="#E0E0E0"/>
<path d="M179.851 119.826C178.525 120.068 177.166 120.068 175.84 119.826C177.165 119.574 178.526 119.574 179.851 119.826Z" fill="#E0E0E0"/>
<path d="M201.182 119.826C199.854 120.068 198.492 120.068 197.164 119.826C198.492 119.574 199.855 119.574 201.182 119.826Z" fill="#E0E0E0"/>
<path d="M222.502 119.826C221.174 120.068 219.813 120.068 218.484 119.826C219.812 119.574 221.175 119.574 222.502 119.826Z" fill="#E0E0E0"/>
<path d="M241.577 119.826C240.248 120.068 238.887 120.068 237.559 119.826C238.886 119.574 240.249 119.574 241.577 119.826Z" fill="#E0E0E0"/>
<path d="M260.647 119.826C259.319 120.068 257.957 120.068 256.629 119.826C257.956 119.574 259.319 119.574 260.647 119.826Z" fill="#E0E0E0"/>
<path d="M122.37 113.715C121.85 113.892 121.299 113.954 120.753 113.897C120.205 113.954 119.651 113.892 119.129 113.715C119.649 113.53 120.204 113.465 120.753 113.526C121.299 113.465 121.852 113.53 122.37 113.715Z" fill="#E0E0E0"/>
<path d="M122.37 105.525C121.85 105.702 121.299 105.764 120.753 105.707C120.205 105.764 119.651 105.702 119.129 105.525C119.649 105.34 120.204 105.275 120.753 105.336C121.299 105.275 121.852 105.339 122.37 105.525Z" fill="#E0E0E0"/>
<path d="M122.37 97.3349C121.85 97.512 121.299 97.5741 120.753 97.5169C120.205 97.5738 119.651 97.5117 119.129 97.3349C119.649 97.1498 120.204 97.0852 120.753 97.1459C121.299 97.0848 121.852 97.1494 122.37 97.3349Z" fill="#E0E0E0"/>
<path d="M122.37 89.1449C121.85 89.3221 121.299 89.3842 120.753 89.3269C120.205 89.3838 119.651 89.3218 119.129 89.1449C119.649 88.9598 120.204 88.8952 120.753 88.9559C121.299 88.8948 121.852 88.9595 122.37 89.1449Z" fill="#E0E0E0"/>
<path d="M122.37 80.955C121.85 81.1321 121.299 81.1942 120.753 81.137C120.205 81.1939 119.651 81.1318 119.129 80.955C119.649 80.7699 120.204 80.7053 120.753 80.766C121.299 80.7049 121.852 80.7695 122.37 80.955Z" fill="#E0E0E0"/>
<path d="M122.37 72.8C121.85 72.9771 121.299 73.0392 120.753 72.982C120.205 73.0389 119.651 72.9768 119.129 72.8C119.649 72.6149 120.204 72.5503 120.753 72.611C121.299 72.5499 121.852 72.6145 122.37 72.8Z" fill="#E0E0E0"/>
<path d="M122.37 64.5751C121.85 64.7522 121.299 64.8143 120.753 64.7571C120.205 64.814 119.651 64.7519 119.129 64.5751C119.65 64.3947 120.205 64.3349 120.753 64.4001C121.298 64.3345 121.851 64.3943 122.37 64.5751Z" fill="#E0E0E0"/>
<path d="M125.247 114.324L125.016 113.666L145.757 106.379L166.729 92.218L187.596 99.141L208.617 85.274L229.673 85.218L229.764 85.281L249.763 99.407L269.146 86.604L269.531 87.192L249.749 100.261L249.553 100.121L229.449 85.918L208.827 85.974L187.701 99.911L166.834 92.995L146.037 107.023L125.247 114.324Z" fill="#FF725E"/>
<path d="M249.875 106.841L229.456 92.9599H208.407L187.344 79.0579L166.925 78.8759L146.065 99.9949H125.387V99.2949H145.771L166.638 78.1689L187.561 78.3579L208.617 92.2599H229.666L249.644 105.833L269.587 70.7839L270.196 71.1269L249.875 106.841Z" fill="#455A64"/>
<path d="M270.035 52.6329C270.035 52.7379 262.167 52.8149 252.465 52.8149C242.763 52.8149 234.895 52.7379 234.895 52.6329C234.895 52.5279 242.763 52.4509 252.465 52.4509C262.167 52.4509 270.035 52.5349 270.035 52.6329Z" fill="#263238"/>
<path d="M126.422 51.884H125.148V51.135H128.648V51.884H127.374V55.118H126.422V51.884Z" fill="#263238"/>
<path d="M131.649 55.118L130.9 54.005H130.046V55.118H129.129V51.135H130.851C131.915 51.135 132.58 51.688 132.58 52.577C132.591 52.8461 132.519 53.1121 132.372 53.338C132.225 53.5638 132.012 53.7382 131.761 53.837L132.657 55.118H131.649ZM130.788 51.884H130.032V53.284H130.788C131.348 53.284 131.635 53.025 131.635 52.584C131.635 52.143 131.348 51.884 130.788 51.884Z" fill="#263238"/>
<path d="M136.384 54.376V55.118H133.297V51.135H136.307V51.835H134.207V52.703H136.055V53.403H134.207V54.327L136.384 54.376Z" fill="#263238"/>
<path d="M140.773 51.135V55.118H140.003L138.015 52.696V55.118H137.105V51.135H137.903L139.891 53.55V51.135H140.773Z" fill="#263238"/>
<path d="M141.708 51.135H143.5C143.779 51.1064 144.061 51.1365 144.327 51.2235C144.593 51.3106 144.839 51.4525 145.047 51.6402C145.255 51.828 145.421 52.0572 145.535 52.3133C145.648 52.5693 145.707 52.8463 145.707 53.1265C145.707 53.4067 145.648 53.6837 145.535 53.9398C145.421 54.1958 145.255 54.4251 145.047 54.6128C144.839 54.8005 144.593 54.9425 144.327 55.0295C144.061 55.1165 143.779 55.1467 143.5 55.118H141.688L141.708 51.135ZM143.5 54.362C143.671 54.3748 143.841 54.3524 144.002 54.2961C144.163 54.2398 144.311 54.1509 144.436 54.0349C144.561 53.9189 144.661 53.7784 144.729 53.6221C144.797 53.4658 144.833 53.2971 144.833 53.1265C144.833 52.956 144.797 52.7872 144.729 52.6309C144.661 52.4746 144.561 52.3341 144.436 52.2181C144.311 52.1021 144.163 52.0132 144.002 51.9569C143.841 51.9006 143.671 51.8782 143.5 51.891H142.66V54.362H143.5Z" fill="#263238"/>
<path d="M91.8627 145.908L89.4057 148.981V143.689H81.6497C81.6497 143.689 80.7887 155.813 80.9497 158.389C81.1107 160.965 84.0297 168.357 84.0297 168.357C87.0291 166.576 89.6768 164.26 91.8417 161.525C95.2857 157.101 101.012 146.307 101.012 146.307L95.0407 142.702L91.8627 145.908Z" fill="#FFBE9D"/>
<path d="M92.353 145.341C92.0641 145.824 91.7263 146.277 91.345 146.692C90.687 147.504 89.784 148.617 88.748 149.828C87.712 151.039 86.732 152.096 85.948 152.817C85.5651 153.24 85.1188 153.601 84.625 153.888C84.9753 153.448 85.3542 153.032 85.759 152.642C86.459 151.879 87.404 150.794 88.44 149.59C90.519 147.168 92.269 145.257 92.353 145.341Z" fill="#EB996E"/>
<path d="M92.1232 126.091C92.1232 126.091 89.9182 107.996 81.1822 106.148L76.6602 123.536L80.4192 136.08L92.8862 134.4L92.1232 126.091Z" fill="#FF725E"/>
<path d="M34.4336 138.11L34.8466 139.405L43.4006 166.292C43.4006 166.292 64.5756 174.3 72.1776 171.15C79.7796 168 83.2936 163.45 83.2936 163.45L81.5996 106.218L69.5386 104.391L48.7416 102.865L34.8116 107.338L34.4336 138.11Z" fill="#FF725E"/>
<g opacity="0.3">
<path opacity="0.3" d="M60.6836 148.589C52.7411 145.175 45.3333 140.632 38.6896 135.1L34.4336 137.368C37.6326 143.829 40.2996 149.723 44.7096 155.428C46.2354 157.471 48.2566 159.093 50.5826 160.139C52.2549 160.73 54.0562 160.855 55.7944 160.503C57.5326 160.15 59.1426 159.332 60.4526 158.137C62.9866 155.778 64.8906 148.848 64.0576 143.199C62.6366 143.283 61.9996 149.135 60.6836 148.589Z" fill="#111111"/>
</g>
<path d="M82.7915 132.055C82.5319 130.108 82.0625 128.195 81.3915 126.35C80.5969 124.552 79.6063 122.848 78.4375 121.268C78.8968 121.631 79.3002 122.061 79.6345 122.542C80.4926 123.667 81.1987 124.9 81.7345 126.21C82.269 127.521 82.6222 128.898 82.7845 130.305C82.8725 130.885 82.8748 131.474 82.7915 132.055Z" fill="#263238"/>
<path d="M82.7549 89.334C82.1967 89.4032 81.6301 89.3192 81.1159 89.0911C80.6017 88.863 80.1593 88.4993 79.836 88.039C80.5779 88.2273 81.3598 88.1834 82.0759 87.913C82.7759 87.57 83.1399 86.569 82.6079 86.023C82.1949 85.596 81.5089 85.673 80.9209 85.631C80.2299 85.5685 79.5709 85.311 79.0207 84.8884C78.4704 84.4657 78.0516 83.8955 77.813 83.244C77.309 81.802 77.7639 80.234 77.9459 78.722C78.1841 76.5108 77.826 74.2762 76.909 72.2501C75.992 70.2241 74.5494 68.4803 72.731 67.2L63.246 61.74C59.809 66.136 58.738 72.072 59.452 77.609C60.166 83.146 62.5109 88.361 65.3389 93.177C66.1135 94.6123 67.0764 95.9377 68.202 97.118C69.3354 98.3028 70.8344 99.0721 72.458 99.302C72.6668 98.6326 72.7122 97.9229 72.5905 97.2324C72.4687 96.5418 72.1832 95.8905 71.758 95.333C73.0436 95.4079 74.3311 95.2227 75.5434 94.7885C76.7558 94.3543 77.8682 93.68 78.8139 92.806L76.777 91.252C77.853 91.3892 78.9461 91.2885 79.979 90.9571C81.0119 90.6257 81.9595 90.0716 82.7549 89.334Z" fill="#263238"/>
<path d="M46.2381 73.8709C46.2688 71.9642 46.9122 70.118 48.0732 68.6052C49.2342 67.0925 50.8512 65.9935 52.6851 65.4709L64.5851 62.0759C69.7441 61.3759 73.3841 67.6339 73.8671 72.8209C74.4131 78.5819 74.8191 84.6649 74.2661 88.9909C73.1601 97.6919 66.5661 99.0009 66.5661 99.0009C66.5661 99.0009 66.6851 103.117 66.7551 105.651L64.8161 116.984L49.1151 103.6L46.2031 73.9759C46.2031 73.8289 46.2031 74.0669 46.2381 73.8709Z" fill="#FFBE9D"/>
<path d="M72.3538 79.4638C72.3654 79.7533 72.2637 80.0359 72.0703 80.2516C71.8768 80.4673 71.6069 80.599 71.3178 80.6188C71.1767 80.6353 71.0338 80.6231 70.8975 80.583C70.7612 80.543 70.6343 80.4759 70.5246 80.3857C70.4148 80.2955 70.3243 80.1841 70.2586 80.0582C70.1928 79.9323 70.1531 79.7944 70.1418 79.6528C70.1283 79.364 70.2285 79.0814 70.4208 78.8655C70.6132 78.6496 70.8824 78.5176 71.1708 78.4978C71.3121 78.4823 71.4551 78.4952 71.5914 78.5355C71.7278 78.5759 71.8547 78.643 71.9648 78.7329C72.0749 78.8228 72.166 78.9337 72.2328 79.0592C72.2996 79.1847 72.3407 79.3223 72.3538 79.4638Z" fill="#263238"/>
<path d="M72.655 76.2998C72.515 76.4468 71.661 75.8518 70.464 75.8938C69.267 75.9358 68.413 76.5938 68.28 76.4118C68.147 76.2298 68.343 76.0828 68.714 75.7958C69.2226 75.423 69.8335 75.2153 70.464 75.2008C71.0842 75.1759 71.6958 75.3527 72.207 75.7048C72.585 75.9568 72.718 76.2088 72.655 76.2998Z" fill="#263238"/>
<path d="M61.889 79.4777C61.9006 79.7672 61.7989 80.0498 61.6054 80.2655C61.4119 80.4812 61.142 80.6129 60.853 80.6327C60.7119 80.6492 60.5689 80.637 60.4326 80.5969C60.2963 80.5569 60.1695 80.4898 60.0597 80.3996C59.9499 80.3094 59.8595 80.1981 59.7937 80.0721C59.7279 79.9462 59.6882 79.8083 59.677 79.6667C59.6635 79.3768 59.7646 79.0932 59.9585 78.8771C60.1523 78.661 60.4233 78.5298 60.713 78.5117C60.8537 78.4972 60.996 78.5108 61.1315 78.5516C61.267 78.5924 61.393 78.6597 61.5024 78.7495C61.6117 78.8393 61.7022 78.9499 61.7686 79.0749C61.8349 79.1999 61.8758 79.3368 61.889 79.4777Z" fill="#263238"/>
<path d="M61.2994 76.601C61.1664 76.755 60.3054 76.153 59.1084 76.195C57.9114 76.237 57.0574 76.895 56.9244 76.72C56.7914 76.545 56.9874 76.391 57.3654 76.097C57.8715 75.7243 58.4801 75.5166 59.1084 75.502C59.7304 75.4805 60.3432 75.657 60.8584 76.006C61.2294 76.3 61.3694 76.538 61.2994 76.601Z" fill="#263238"/>
<path d="M65.3034 85.8828C65.928 85.6663 66.5769 85.5276 67.2354 85.4698C67.5364 85.4698 67.8234 85.3648 67.8724 85.1548C67.8857 84.8376 67.8054 84.5236 67.6414 84.2518C67.3264 83.5518 67.0044 82.7608 66.6684 81.9558C65.3104 78.6868 64.3164 75.9988 64.4494 75.9428C64.5824 75.8868 65.7864 78.4978 67.1444 81.7668L68.0824 84.0768C68.285 84.4383 68.3543 84.8594 68.2784 85.2668C68.2375 85.3761 68.1721 85.4747 68.0872 85.5548C68.0022 85.6349 67.9 85.6944 67.7884 85.7288C67.6207 85.7827 67.4464 85.8133 67.2704 85.8198C66.6204 85.9271 65.959 85.9483 65.3034 85.8828Z" fill="#263238"/>
<path d="M54.9648 96.2708C54.9648 96.2708 57.9538 102.144 66.5918 101.066L66.5359 99.0288C62.4977 99.2007 58.4913 98.2457 54.9648 96.2708Z" fill="#EB996E"/>
<path d="M60.8047 72.296C60.6997 72.625 59.4957 72.506 58.1027 72.716C56.7096 72.926 55.5826 73.346 55.3866 73.059C55.3026 72.926 55.4916 72.611 55.9326 72.282C56.5317 71.8757 57.2171 71.6145 57.9347 71.519C58.6393 71.4152 59.3584 71.4775 60.0347 71.701C60.5807 71.89 60.8537 72.142 60.8047 72.296Z" fill="#263238"/>
<path d="M72.1566 72.6318C71.9536 72.9118 71.1206 72.6318 70.1336 72.6738C69.1466 72.7158 68.3066 72.9118 68.1106 72.6318C68.0196 72.4988 68.1106 72.2258 68.5026 71.9318C68.9849 71.608 69.5527 71.4351 70.1336 71.4351C70.7145 71.4351 71.2823 71.608 71.7646 71.9318C72.1006 72.2258 72.2476 72.4988 72.1566 72.6318Z" fill="#263238"/>
<path d="M60.826 88.1999C60.903 87.8433 61.103 87.5252 61.391 87.3012C61.6789 87.0773 62.0365 86.9617 62.401 86.9749C62.6736 86.9982 62.9359 87.09 63.1635 87.2417C63.3911 87.3935 63.5767 87.6003 63.703 87.8429C63.8246 88.0813 63.8972 88.3416 63.9164 88.6085C63.9356 88.8755 63.9012 89.1435 63.815 89.3969V89.5089C63.575 89.786 63.2545 89.9814 62.8982 90.068C62.5419 90.1546 62.1675 90.128 61.827 89.9919C61.4825 89.8498 61.1962 89.5955 61.0144 89.2702C60.8327 88.9449 60.7663 88.5677 60.826 88.1999Z" fill="#EB996E"/>
<path d="M64.639 89.5088C64.639 89.3338 63.428 89.4248 62.4901 88.4588C61.5521 87.4928 61.5871 86.1978 61.4191 86.1978C61.2511 86.1978 61.2021 86.5058 61.2301 87.0518C61.2802 87.7593 61.5747 88.4274 62.0631 88.9418C62.5345 89.4307 63.1764 89.719 63.8551 89.7468C64.4011 89.7538 64.653 89.5998 64.639 89.5088Z" fill="#263238"/>
<path d="M50.2344 60.0739C51.9058 57.6962 54.3788 56.0011 57.1994 55.2999C59.9994 54.8099 61.7214 55.2999 63.5764 56.9869C64.3686 57.7478 65.3273 58.3134 66.3764 58.6389C67.7274 58.9049 68.8614 58.6809 70.4714 59.5069C72.6764 60.6339 73.6424 63.5739 74.6714 65.8069C75.9384 68.6069 77.7444 71.1899 78.5704 74.1509C79.3964 77.1119 78.9624 80.7519 76.4704 82.5509C76.9464 80.0239 77.3384 77.2099 75.9524 75.0469C74.8954 73.3949 73.0054 72.4779 71.6474 71.0639C70.0094 69.3559 69.7994 67.0669 68.0774 65.4639C64.1574 61.7469 57.2624 68.2639 50.2554 60.0809" fill="#263238"/>
<path d="M75.124 71.9179C74.2177 69.3948 72.9157 67.0319 71.267 64.9179C69.0744 62.367 66.0147 60.7186 62.6783 60.2908C59.342 59.8629 55.9653 60.6859 53.2 62.6009L52.5 62.6569C53.5714 63.9953 54.9294 65.0763 56.4741 65.8201C58.0187 66.564 59.7106 66.9518 61.425 66.9549C63.462 66.9549 65.667 66.4229 67.417 67.4729C69.167 68.5229 69.727 70.5949 71.113 71.9809C72.051 72.9189 73.311 73.4999 74.228 74.4729C75.1218 75.572 75.7773 76.8449 76.153 78.2109C76.755 76.1249 75.957 73.9199 75.124 71.9179Z" fill="#263238"/>
<path d="M56.9125 64.2948L51.3615 59.3948C47.0355 59.1708 44.2565 63.2588 42.7725 66.3948C41.6665 68.7398 41.3235 71.3648 40.4905 73.8218C39.6575 76.2788 38.2715 78.6798 37.4945 81.2208C36.7175 83.7618 36.6125 86.7298 38.1455 88.9208L39.1115 87.1428C39.2733 89.6301 40.2954 91.9836 42.0025 93.7998C42.1285 93.1838 42.2545 92.5678 42.3735 91.9448C43.2923 93.8311 44.7552 95.3988 46.5735 96.4458L49.1775 103.397C53.0135 91.6998 43.1295 90.8178 56.9125 64.2948Z" fill="#263238"/>
<path d="M56.1118 65.31C55.8269 66.8973 55.3909 68.4537 54.8098 69.958C54.2226 71.4677 53.2352 72.789 51.9538 73.78C50.0568 75.18 47.6068 75.439 45.3248 75.992C43.0428 76.545 40.6138 77.588 39.6758 79.737C40.047 76.5821 40.6983 73.4665 41.6218 70.427C42.6368 67.074 44.0998 63.7 46.8998 61.551C48.1847 60.587 49.6897 59.9585 51.2786 59.7227C52.8676 59.4868 54.4902 59.6508 55.9998 60.2" fill="#263238"/>
<path d="M50.2129 80.6049C50.0939 80.3179 44.7109 78.5469 44.8019 84.2169C44.8859 89.7259 50.4019 88.4799 50.4019 88.3189C50.4019 88.1579 50.2129 80.6049 50.2129 80.6049Z" fill="#FFBE9D"/>
<path d="M48.6814 86.2678C48.6814 86.2678 48.5904 86.3378 48.4294 86.4148C48.2046 86.5037 47.9543 86.5037 47.7294 86.4148C47.1414 86.2118 46.6374 85.3018 46.5884 84.3148C46.5653 83.8358 46.649 83.3576 46.8334 82.9148C46.8805 82.7425 46.9688 82.5842 47.0908 82.4537C47.2127 82.3232 47.3647 82.2244 47.5334 82.1658C47.6435 82.1327 47.7617 82.1399 47.8669 82.1861C47.9721 82.2323 48.0574 82.3144 48.1074 82.4178C48.1844 82.5648 48.1494 82.6768 48.1774 82.6908C48.2054 82.7048 48.2964 82.5928 48.2474 82.3688C48.2136 82.2325 48.1346 82.1117 48.0234 82.0258C47.8696 81.9152 47.6792 81.8676 47.4914 81.8928C47.2677 81.9464 47.0606 82.0542 46.8884 82.2068C46.7163 82.3594 46.5844 82.5521 46.5044 82.7678C46.2797 83.2489 46.1764 83.7776 46.2034 84.3078C46.2594 85.4208 46.8474 86.4498 47.6454 86.6598C47.7939 86.7017 47.95 86.709 48.1017 86.6811C48.2534 86.6532 48.3966 86.5908 48.5204 86.4988C48.6744 86.4008 48.7024 86.2748 48.6814 86.2678Z" fill="#EB996E"/>
<path d="M48.0859 87.262C47.8161 87.2244 47.5421 87.291 47.3197 87.4483C47.0973 87.6056 46.9432 87.8418 46.8888 88.1087C46.8344 88.3756 46.8837 88.6533 47.0267 88.8851C47.1698 89.1169 47.3958 89.2855 47.6588 89.3566C47.9217 89.4277 48.2019 89.3959 48.4423 89.2677C48.6826 89.1395 48.8651 88.9245 48.9525 88.6665C49.04 88.4085 49.0258 88.1268 48.9129 87.8789C48.8 87.631 48.5969 87.4354 48.3449 87.3319" fill="white"/>
<path d="M48.3429 87.332C48.5779 87.5105 48.7555 87.7538 48.8539 88.032C48.8992 88.1808 48.9056 88.3387 48.8725 88.4906C48.8394 88.6426 48.7679 88.7835 48.6649 88.9C48.5455 89.0468 48.3855 89.1554 48.2049 89.2121C48.0243 89.2688 47.831 89.2712 47.6491 89.219C47.4671 89.1668 47.3045 89.0623 47.1815 88.9185C47.0584 88.7746 46.9803 88.5978 46.9569 88.41C46.9334 88.256 46.9486 88.0985 47.0011 87.9519C47.0537 87.8052 47.1419 87.674 47.2579 87.57C47.4916 87.3748 47.7803 87.2573 48.0839 87.234C48.0839 87.234 47.9929 87.178 47.8249 87.178C47.5693 87.1845 47.3231 87.2756 47.1249 87.437C46.9749 87.5551 46.8581 87.71 46.7857 87.8866C46.7133 88.0632 46.6879 88.2556 46.7119 88.445C46.7406 88.6759 46.8364 88.8933 46.9874 89.0703C47.1383 89.2473 47.3379 89.3762 47.5614 89.441C47.7848 89.5058 48.0224 89.5037 48.2446 89.4349C48.4669 89.3661 48.6641 89.2337 48.8119 89.054C48.9081 88.9297 48.978 88.7871 49.0172 88.6348C49.0564 88.4826 49.0641 88.324 49.0399 88.1687C49.0156 88.0134 48.9599 87.8646 48.8762 87.7316C48.7925 87.5986 48.6824 87.484 48.5529 87.395C48.4409 87.332 48.3429 87.318 48.3429 87.332Z" fill="#263238"/>
<path d="M44.5575 87.0098C44.5575 87.0098 44.4874 87.0098 44.3824 86.8838C44.2319 86.7548 44.0915 86.6144 43.9624 86.4638C43.4779 85.9068 43.0899 85.2728 42.8144 84.5878C42.3946 83.5625 42.2451 82.4465 42.3804 81.3468C42.5697 79.9782 43.2638 78.7298 44.3264 77.8468C45.3684 77.0063 46.529 76.3246 47.7704 75.8238C48.8904 75.3408 49.8704 74.9208 50.6964 74.4798C51.5574 74.0188 52.3589 73.4546 53.0835 72.7998C52.9501 73.0353 52.7799 73.248 52.5794 73.4298C52.0522 73.9435 51.4618 74.388 50.8224 74.7528C49.8762 75.2686 48.9043 75.7359 47.9105 76.1528C46.7081 76.6523 45.5836 77.3218 44.5714 78.1408C43.5717 78.961 42.9068 80.1189 42.7024 81.3958C42.5634 82.4425 42.6836 83.5074 43.0524 84.4968C43.4217 85.407 43.9293 86.2547 44.5575 87.0098Z" fill="#455A64"/>
<path d="M44.1017 83.7409C43.9864 83.5785 43.9033 83.3955 43.8567 83.2019C43.6938 82.684 43.6273 82.1407 43.6607 81.5989C43.7052 80.786 43.9453 79.9959 44.3607 79.2959C44.8623 78.4273 45.6135 77.7298 46.5167 77.2939C47.3937 76.8847 48.2909 76.5202 49.2047 76.2019C49.9305 75.9379 50.6107 75.5624 51.2207 75.0889C51.7688 74.6346 52.2007 74.0563 52.4807 73.4019C52.4858 73.6014 52.4401 73.7989 52.3477 73.9759C52.1321 74.4796 51.8041 74.9274 51.3887 75.2849C50.7761 75.8055 50.0805 76.2196 49.3307 76.5099C48.5117 76.8599 47.5737 77.1539 46.6847 77.6159C45.8432 78.0248 45.1364 78.666 44.6477 79.4639C44.2585 80.1222 44.0195 80.8584 43.9477 81.6199C43.9007 82.3306 43.9526 83.0444 44.1017 83.7409Z" fill="#455A64"/>
<path d="M56.4706 65.674C55.9143 64.399 55.1917 63.2033 54.3216 62.118C53.3682 61.1073 52.2855 60.227 51.1016 59.5C51.5166 59.5721 51.9123 59.7295 52.2636 59.962C53.1463 60.4637 53.937 61.1123 54.6016 61.88C55.2713 62.6413 55.8042 63.5129 56.1766 64.456C56.356 64.8379 56.4561 65.2523 56.4706 65.674Z" fill="#455A64"/>
<path d="M81.7828 85.9178C81.5463 85.9215 81.3105 85.8909 81.0828 85.8268C80.4473 85.6993 79.8206 85.531 79.2068 85.3228C78.7797 85.1719 78.3653 84.987 77.9678 84.7698C77.4869 84.5266 77.0715 84.1713 76.7568 83.7338C76.5904 83.4846 76.4783 83.2032 76.4278 82.9078L76.3648 82.4808C76.3373 82.3282 76.321 82.1738 76.3158 82.0188C76.3298 81.3935 76.4432 80.7744 76.6518 80.1848C76.8522 79.6294 76.9816 79.0508 77.0368 78.4628C77.0461 77.9268 76.895 77.4003 76.6028 76.9508C76.055 76.1767 75.4157 75.4716 74.6988 74.8508C74.2397 74.4057 73.7534 73.9896 73.2428 73.6048C73.0452 73.4767 72.8559 73.3365 72.6758 73.1848C73.5174 73.5206 74.2766 74.0339 74.9018 74.6898C75.6665 75.2945 76.3448 76.0011 76.9178 76.7898C77.2519 77.2911 77.4275 77.8814 77.4218 78.4838C77.3722 79.1052 77.2404 79.7172 77.0298 80.3038C76.8304 80.857 76.7194 81.4381 76.7008 82.0258C76.7075 82.1618 76.7215 82.2973 76.7428 82.4318L76.7988 82.8588C76.8395 83.1077 76.93 83.3457 77.0648 83.5588C77.3464 83.9564 77.7151 84.2844 78.1428 84.5178C78.5235 84.734 78.9188 84.9234 79.3258 85.0848C80.8028 85.6518 81.8038 85.8548 81.7828 85.9178Z" fill="#455A64"/>
<path d="M62.1602 319.963L62.4612 312.242L75.9292 311.731L75.7192 321.188L70.8262 324.142L62.1602 319.963Z" fill="#FFBE9D"/>
<path d="M76.0148 319.431V320.313C76.0148 320.313 90.9668 326.487 91.0998 329.336L61.3008 328.895L61.8538 318.983C64.0436 320.07 66.4419 320.673 68.8855 320.75C71.3291 320.827 73.7606 320.377 76.0148 319.431Z" fill="#FF725E"/>
<g opacity="0.3">
<path opacity="0.3" d="M76.0148 319.431V320.313C76.0148 320.313 90.9668 326.487 91.0998 329.336L61.3008 328.895L61.8538 318.983C64.0436 320.07 66.4419 320.673 68.8855 320.75C71.3291 320.827 73.7606 320.377 76.0148 319.431Z" fill="#111111"/>
</g>
<g opacity="0.6">
<path opacity="0.6" d="M64.8163 322.203C64.5239 322.287 64.2734 322.477 64.1141 322.736C63.9548 322.995 63.8981 323.304 63.9553 323.603C64.0271 323.894 64.2081 324.147 64.4608 324.308C64.7136 324.47 65.0188 324.528 65.3133 324.471C65.6176 324.381 65.878 324.182 66.0447 323.912C66.2113 323.642 66.2724 323.32 66.2163 323.008C66.1099 322.712 65.8926 322.469 65.6104 322.331C65.3283 322.193 65.0034 322.169 64.7043 322.266" fill="white"/>
</g>
<g opacity="0.6">
<path opacity="0.6" d="M61.293 328.895L61.426 326.515L89.937 327.803C89.937 327.803 91.253 328.398 91.092 329.336L61.293 328.895Z" fill="white"/>
</g>
<path d="M76.1119 320.397C76.1119 320.544 75.4119 320.6 74.6559 321.055C73.8999 321.51 73.5429 322.119 73.4099 322.063C73.2769 322.007 73.5079 321.16 74.3899 320.663C75.2719 320.166 76.1469 320.264 76.1119 320.397Z" fill="#263238"/>
<path d="M79.2196 321.734C79.2196 321.881 78.6176 322.119 78.1136 322.728C77.6096 323.337 77.4556 323.981 77.3156 323.974C77.1756 323.967 77.0846 323.141 77.7286 322.399C78.3726 321.657 79.2196 321.601 79.2196 321.734Z" fill="#263238"/>
<path d="M80.9431 325.5C80.8101 325.5 80.6141 324.8 80.9991 324.002C81.3841 323.204 82.0701 322.903 82.1331 323.029C82.1961 323.155 81.7621 323.568 81.4331 324.226C81.1041 324.884 81.0831 325.5 80.9431 325.5Z" fill="#263238"/>
<path d="M50.0508 320.138L50.3588 312.417L63.8198 311.906L63.6168 321.363L58.7238 324.317L50.0508 320.138Z" fill="#FFBE9D"/>
<path d="M63.9093 319.606V320.488C63.9093 320.488 78.8613 326.662 78.9943 329.511L49.1953 329.07L49.7483 319.158C51.9381 320.245 54.3364 320.848 56.78 320.925C59.2236 321.002 61.6552 320.552 63.9093 319.606Z" fill="#FF725E"/>
<g opacity="0.6">
<path opacity="0.6" d="M52.712 322.378C52.4187 322.46 52.1672 322.65 52.0076 322.909C51.848 323.169 51.7921 323.479 51.851 323.778C51.9286 324.062 52.111 324.307 52.3615 324.463C52.6121 324.619 52.9123 324.674 53.202 324.618C53.5062 324.528 53.7666 324.329 53.9333 324.059C54.0999 323.789 54.1611 323.467 54.105 323.155C53.9985 322.859 53.7812 322.616 53.4991 322.478C53.2169 322.339 52.892 322.316 52.593 322.413" fill="white"/>
</g>
<g opacity="0.6">
<path opacity="0.6" d="M49.1914 329.07L49.3244 326.69L77.8354 327.978C77.8354 327.978 79.1514 328.58 78.9904 329.511L49.1914 329.07Z" fill="white"/>
</g>
<path d="M64.0108 320.6C64.0108 320.747 63.3108 320.803 62.5548 321.258C61.7988 321.713 61.4418 322.322 61.3088 322.266C61.1758 322.21 61.3998 321.37 62.2888 320.866C63.1778 320.362 64.0458 320.439 64.0108 320.6Z" fill="#263238"/>
<path d="M67.118 321.909C67.118 322.056 66.516 322.294 66.012 322.903C65.508 323.512 65.354 324.156 65.207 324.149C65.06 324.142 64.983 323.316 65.627 322.574C66.271 321.832 67.118 321.776 67.118 321.909Z" fill="#263238"/>
<path d="M68.8335 325.682C68.7005 325.682 68.5115 324.982 68.8965 324.184C69.2815 323.386 69.9675 323.085 70.0305 323.211C70.0935 323.337 69.6595 323.75 69.3305 324.408C69.0015 325.066 68.9805 325.668 68.8335 325.682Z" fill="#263238"/>
<path d="M29.8281 129.731C29.8281 129.731 41.0281 147.091 46.9081 154.091C52.7881 161.091 62.4551 154.931 63.5751 145.411C64.6951 135.891 64.4011 118.244 64.4011 118.244L56.5751 113.589L51.5141 137.676L45.2141 125.951L29.8281 129.731Z" fill="#FFBE9D"/>
<path d="M64.4002 118.244L67.7602 109.844C68.4528 109.52 69.1157 109.136 69.7412 108.696C70.2382 108.234 70.1402 105.196 70.0002 104.664C69.8602 104.132 70.5462 102.564 70.0632 102.284C69.5802 102.004 68.2292 102.284 68.1802 101.724C68.1802 101.605 68.8802 100.177 67.8932 99.4699C67.399 99.2827 66.8747 99.1878 66.3462 99.1899L65.8002 96.3899C65.8002 96.3899 63.5602 93.4569 62.3002 94.9899C62.3002 94.9899 57.5332 100.73 57.1132 101.57C56.6932 102.41 56.5742 112.14 56.5742 113.96" fill="#FFBE9D"/>
<path d="M56.5888 113.974C56.5694 113.806 56.5694 113.637 56.5888 113.47C56.5888 113.099 56.5888 112.616 56.5888 112.014C56.5888 110.747 56.5888 108.92 56.6588 106.652C56.6588 105.518 56.7288 104.279 56.8268 102.942C56.8268 102.606 56.8828 102.242 56.9458 101.913C57.0223 101.548 57.191 101.208 57.4358 100.926C57.8558 100.338 58.3038 99.7639 58.7728 99.1689C59.7038 97.9859 60.6978 96.7609 61.7338 95.4869C61.9879 95.1323 62.292 94.8163 62.6368 94.5489C62.8479 94.4403 63.0818 94.3835 63.3193 94.3835C63.5567 94.3835 63.7907 94.4403 64.0018 94.5489C64.791 94.9696 65.4772 95.5601 66.0108 96.2779V96.3269C66.0668 96.5929 66.1228 96.8869 66.1788 97.1809C66.3048 97.8319 66.4378 98.4829 66.5638 99.1129L66.3888 98.9659C66.7551 98.9759 67.1201 99.0133 67.4808 99.0779C67.6816 99.1105 67.8742 99.1818 68.0478 99.2879C68.209 99.4074 68.3427 99.5602 68.4398 99.7359C68.6155 100.084 68.6721 100.48 68.6008 100.863C68.5793 101.042 68.5395 101.218 68.4818 101.388L68.4048 101.633V101.689C68.401 101.697 68.3991 101.705 68.3991 101.713C68.3991 101.722 68.401 101.73 68.4048 101.738C68.4963 101.818 68.6122 101.865 68.7338 101.871C68.8935 101.898 69.0548 101.914 69.2168 101.92C69.3848 101.92 69.5528 101.92 69.7278 101.969C69.9337 101.987 70.1292 102.067 70.2878 102.2C70.4108 102.37 70.4635 102.58 70.4348 102.788C70.4348 102.965 70.4138 103.133 70.3718 103.292C70.3088 103.614 70.2318 103.922 70.1968 104.223C70.1722 104.357 70.1722 104.495 70.1968 104.629C70.1968 104.804 70.2388 104.951 70.2598 105.112C70.2598 105.429 70.2738 105.737 70.3018 106.036C70.3141 106.632 70.2837 107.229 70.2108 107.821C70.1829 108.126 70.0923 108.421 69.9448 108.689C69.7426 108.9 69.5059 109.075 69.2448 109.207C68.7758 109.487 68.3068 109.718 67.8448 109.907L67.9148 109.837L65.4018 115.948C65.1078 116.648 64.8698 117.201 64.7018 117.614C64.6277 117.809 64.5388 117.999 64.4358 118.181C64.4847 117.978 64.5503 117.779 64.6318 117.586C64.7858 117.166 65.0028 116.599 65.2688 115.892C65.8498 114.401 66.6688 112.301 67.6628 109.732V109.683H67.7118C68.1598 109.466 68.6218 109.221 69.1118 108.948C69.336 108.833 69.5413 108.684 69.7208 108.507C69.8354 108.275 69.9043 108.023 69.9238 107.765C69.9899 107.191 70.0132 106.613 69.9938 106.036C69.9938 105.733 69.9798 105.432 69.9518 105.133C69.9426 104.987 69.9215 104.842 69.8888 104.699C69.8574 104.525 69.8574 104.348 69.8888 104.174C69.9308 103.845 70.0078 103.53 70.0638 103.222C70.0923 103.072 70.1111 102.92 70.1198 102.767C70.1373 102.649 70.1152 102.528 70.0568 102.424C69.9506 102.358 69.8309 102.318 69.7068 102.305C69.5528 102.305 69.3918 102.305 69.2238 102.263C69.0558 102.221 68.8878 102.263 68.7058 102.214C68.4896 102.198 68.2885 102.097 68.1458 101.934C68.1015 101.88 68.0747 101.814 68.0688 101.745C68.0543 101.699 68.0543 101.65 68.0688 101.605V101.535L68.1458 101.297C68.1907 101.141 68.2258 100.982 68.2508 100.821C68.3107 100.514 68.2663 100.196 68.1248 99.9179C68.0523 99.7879 67.9519 99.6755 67.8308 99.5889C67.7014 99.5136 67.5588 99.4638 67.4108 99.4419C67.0623 99.4021 66.7113 99.388 66.3608 99.3999H66.2138V99.2529C66.0878 98.6229 65.9548 97.9719 65.8288 97.3209C65.7728 97.0269 65.7168 96.7399 65.6608 96.4669V96.5439C65.1621 95.8761 64.5244 95.3244 63.7918 94.9269C63.6313 94.8411 63.4522 94.7963 63.2703 94.7963C63.0883 94.7963 62.9092 94.8411 62.7488 94.9269C62.4417 95.1703 62.1728 95.4581 61.9508 95.7809C60.9008 97.0409 59.9068 98.2659 58.9688 99.4419C58.4998 100.023 58.0448 100.604 57.6318 101.171C57.4089 101.413 57.2544 101.71 57.1838 102.032C57.1278 102.361 57.0928 102.732 57.0578 103.026C56.9458 104.349 56.8968 105.595 56.8478 106.722C56.7708 108.955 56.7078 110.775 56.6658 112.077C56.6658 112.679 56.6658 113.162 56.6168 113.533C56.6188 113.68 56.6095 113.828 56.5888 113.974Z" fill="#EB996E"/>
<path d="M66.3622 99.1899C65.8803 99.3646 65.3896 99.5141 64.8922 99.6379C64.375 99.8309 63.8741 100.065 63.3942 100.338C62.7422 100.597 62.056 100.76 61.3572 100.821C60.7592 100.87 60.1804 101.055 59.6648 101.362C59.1492 101.669 58.7105 102.09 58.3822 102.592C58.1378 103.026 57.9719 103.5 57.8922 103.992C57.8281 103.731 57.8187 103.459 57.8644 103.194C57.9102 102.929 58.0102 102.676 58.1582 102.452C58.4431 101.94 58.8404 101.5 59.3202 101.164C59.9123 100.77 60.593 100.529 61.3012 100.464C61.9692 100.4 62.6273 100.257 63.2612 100.037C63.7555 99.7541 64.2759 99.5197 64.8152 99.3369C65.3172 99.1921 65.8419 99.1422 66.3622 99.1899Z" fill="#EB996E"/>
<path d="M64.2892 99.5049C64.2122 99.5679 63.9042 99.2809 63.8202 98.8049C63.7362 98.3289 63.9462 97.9509 64.0372 97.9859C64.1282 98.0209 64.1142 98.3569 64.1842 98.7489C64.2542 99.1409 64.4012 99.4419 64.2892 99.5049Z" fill="#EB996E"/>
<path d="M68.3982 101.787C66.9721 102.257 65.4754 102.477 63.9742 102.438C63.4207 102.382 62.8615 102.437 62.3292 102.599C61.9324 102.783 61.6199 103.111 61.4542 103.516C61.3203 103.919 61.2128 104.331 61.1322 104.748C61.0052 104.308 61.0349 103.838 61.2162 103.418C61.3807 102.927 61.7332 102.522 62.1962 102.291C62.7645 102.093 63.3677 102.017 63.9672 102.067C66.4102 102.046 68.3772 101.682 68.3982 101.787Z" fill="#EB996E"/>
<path d="M69.758 104.237C69.4257 104.396 69.0624 104.48 68.694 104.482C67.994 104.559 67.091 104.531 66.083 104.566C65.6112 104.564 65.141 104.621 64.683 104.734C64.3326 104.821 64.0204 105.02 63.794 105.301C63.6004 105.582 63.5023 105.919 63.514 106.26C63.514 106.26 63.423 106.176 63.388 105.98C63.353 105.693 63.4199 105.403 63.577 105.161C63.8148 104.804 64.1682 104.539 64.578 104.412C65.0531 104.273 65.5458 104.202 66.041 104.202C67.077 104.167 67.987 104.202 68.652 104.202C69.0207 104.171 69.3919 104.183 69.758 104.237Z" fill="#EB996E"/>
<path d="M68.5117 106.708C68.5817 106.708 68.2107 107.359 67.3147 107.562L67.4547 107.366L67.5037 107.842C67.6231 108.478 67.6231 109.131 67.5037 109.767C67.2657 109.167 67.1422 108.529 67.1397 107.884L67.0977 107.408V107.24H67.2517C68.0077 107.1 68.4487 106.638 68.5117 106.708Z" fill="#EB996E"/>
<path d="M83.2999 162.4C83.2999 162.4 93.2609 184.387 93.2609 198.142C93.2609 211.897 83.4609 256.879 83.4609 256.879C83.4609 256.879 82.1519 269.318 80.8359 285.915C79.9743 296.297 78.2961 306.596 75.8169 316.715H66.0169L50.0779 317.149C50.0779 317.149 43.3089 289.422 43.7429 278.943C44.1769 268.464 45.9269 256.452 45.9269 256.452C45.9269 256.452 37.4149 221.739 35.8819 215.404C35.2869 212.926 35.0139 208.201 34.9649 203.168C34.8618 192.816 36.7635 182.543 40.5649 172.914L43.3649 165.851L83.2999 162.4Z" fill="#263238"/>
<path d="M68.6029 206.395C68.4979 206.395 67.3149 231.007 65.9639 261.38C64.6129 291.753 63.5698 316.4 63.7028 316.4C63.8358 316.4 64.9908 291.788 66.3418 261.408C67.6929 231.028 68.6869 206.395 68.6029 206.395Z" fill="#455A64"/>
<path d="M70.6999 196.56C70.807 196.161 70.8796 195.753 70.9169 195.342C71.0359 194.558 71.1689 193.41 71.2879 191.996C71.5819 188.299 71.603 184.586 71.3509 180.887C71.1017 177.188 70.58 173.512 69.7899 169.89C69.4819 168.49 69.1949 167.384 68.9709 166.628C68.8773 166.225 68.7485 165.832 68.5859 165.452C68.6327 165.861 68.7123 166.266 68.8239 166.663C68.9989 167.433 69.2439 168.56 69.5239 169.946C70.2444 173.568 70.7354 177.231 70.9939 180.915C71.242 184.597 71.256 188.291 71.0359 191.975C70.9519 193.375 70.8679 194.537 70.7979 195.328C70.7306 195.735 70.6979 196.147 70.6999 196.56Z" fill="#455A64"/>
<path d="M37.2422 183.61C37.4433 183.796 37.682 183.937 37.9422 184.023C38.6226 184.302 39.3567 184.427 40.0912 184.387C41.9602 184.338 44.4242 183.379 46.6712 181.706C48.5905 180.259 50.1461 178.385 51.2142 176.232C51.534 175.582 51.8031 174.908 52.0192 174.216C52.1099 173.966 52.1664 173.704 52.1872 173.439C52.1102 173.439 51.8302 174.517 50.9692 176.099C49.8584 178.171 48.3107 179.976 46.4332 181.391C44.5955 182.856 42.3933 183.793 40.0632 184.1C39.0969 184.17 38.1283 184.002 37.2422 183.61Z" fill="#455A64"/>
<path d="M78.4023 170.513C78.4224 170.753 78.4766 170.988 78.5633 171.213C78.7539 171.84 78.9878 172.452 79.2633 173.047C80.1537 175.02 81.3621 176.834 82.8403 178.416C84.3222 179.997 86.0561 181.322 87.9713 182.336C88.546 182.647 89.1426 182.916 89.7563 183.141C89.9791 183.242 90.2146 183.313 90.4563 183.351C90.4563 183.281 89.5323 182.91 88.1183 182.098C84.4124 179.96 81.4234 176.771 79.5293 172.935C78.7733 171.5 78.4653 170.492 78.4023 170.513Z" fill="#455A64"/>
<path d="M64.3383 170.016C64.3383 170.016 64.3802 169.862 64.4642 169.617C64.5814 169.274 64.8045 168.977 65.1012 168.77C65.331 168.603 65.6025 168.503 65.8856 168.481C66.1687 168.458 66.4525 168.515 66.7055 168.644C66.9585 168.773 67.171 168.969 67.3194 169.211C67.4677 169.453 67.5463 169.732 67.5463 170.016C67.5463 170.3 67.4677 170.578 67.3194 170.82C67.171 171.063 66.9585 171.259 66.7055 171.388C66.4525 171.517 66.1687 171.573 65.8856 171.551C65.6025 171.529 65.331 171.429 65.1012 171.262C64.8045 171.054 64.5814 170.758 64.4642 170.415C64.3802 170.17 64.3733 170.016 64.3383 170.016C64.3033 170.016 64.2753 170.17 64.3383 170.45C64.409 170.859 64.6283 171.228 64.9542 171.486C65.1967 171.682 65.4853 171.814 65.7928 171.868C66.1002 171.922 66.4164 171.896 66.7112 171.794C67.0802 171.665 67.4 171.425 67.6264 171.106C67.8527 170.788 67.9742 170.407 67.9742 170.016C67.9742 169.625 67.8527 169.244 67.6264 168.925C67.4 168.607 67.0802 168.366 66.7112 168.238C66.4164 168.135 66.1002 168.11 65.7928 168.164C65.4853 168.218 65.1967 168.349 64.9542 168.546C64.6283 168.803 64.409 169.172 64.3383 169.582C64.2753 169.862 64.3173 170.016 64.3383 170.016Z" fill="#455A64"/>
<path d="M50.75 255.822C52.4302 256.992 54.1838 258.054 56 259C57.7647 260.046 59.5929 260.981 61.474 261.8C59.783 260.633 58.0176 259.579 56.189 258.643C54.4349 257.593 52.6185 256.651 50.75 255.822Z" fill="#455A64"/>
<path d="M92.7146 117.656C89.6766 122.276 77.3636 141.001 73.7166 146.538C73.6276 146.675 73.5795 146.835 73.5782 146.999C73.5768 147.162 73.6221 147.323 73.7088 147.462C73.7955 147.601 73.92 147.712 74.0676 147.783C74.2153 147.853 74.3801 147.88 74.5426 147.861L96.4246 145.103C96.54 145.089 96.6513 145.052 96.7514 144.993C96.8514 144.934 96.938 144.854 97.0056 144.76L117.901 116.2C117.997 116.068 118.054 115.912 118.065 115.749C118.076 115.586 118.039 115.424 117.961 115.281C117.882 115.138 117.764 115.021 117.62 114.943C117.477 114.865 117.314 114.83 117.152 114.842L94.6396 116.508C94.2518 116.537 93.876 116.656 93.542 116.855C93.208 117.055 92.9247 117.329 92.7146 117.656Z" fill="#E0E0E0"/>
<path d="M92.7162 117.656C92.7673 117.563 92.8258 117.474 92.8912 117.39C93.0856 117.15 93.323 116.948 93.5912 116.795C94.0425 116.559 94.5451 116.439 95.0542 116.445L97.0842 116.277L110.062 115.255L114.367 114.926L116.649 114.751C116.852 114.751 117.027 114.716 117.258 114.716C117.434 114.724 117.605 114.779 117.753 114.874C117.902 114.97 118.022 115.103 118.102 115.26C118.182 115.417 118.22 115.592 118.211 115.769C118.201 115.945 118.146 116.115 118.049 116.263L112.001 124.6L98.0012 143.682C97.6862 144.116 97.3992 144.515 97.0562 144.963C96.95 145.083 96.8151 145.175 96.6642 145.229C96.5272 145.27 96.3865 145.298 96.2442 145.313L95.4742 145.404L92.4082 145.789L86.4232 146.538L75.1112 147.938C74.8802 147.938 74.6842 148.001 74.4112 148.015C74.2804 148.013 74.1513 147.986 74.0312 147.934C73.9111 147.882 73.8023 147.808 73.7112 147.714C73.5267 147.526 73.4193 147.277 73.4102 147.014C73.4254 146.759 73.5182 146.515 73.6762 146.314C74.1662 145.614 74.6422 144.851 75.1182 144.13C76.0515 142.697 76.9708 141.297 77.8762 139.93L82.8392 132.433L90.0352 121.59L92.0092 118.65C92.2332 118.328 92.4012 118.076 92.5342 117.894C92.6672 117.712 92.7162 117.635 92.7162 117.642C92.6734 117.737 92.6218 117.829 92.5622 117.915L92.0722 118.692L90.1542 121.667L83.0492 132.573L78.1492 140.098L75.4052 144.298L74.0052 146.489C73.8796 146.633 73.8079 146.816 73.8022 147.007C73.8022 147.192 73.8759 147.371 74.0072 147.502C74.1385 147.633 74.3165 147.707 74.5022 147.707C74.6842 147.707 74.9362 147.651 75.1532 147.63L86.4652 146.23L92.4502 145.474L95.5092 145.089L96.2792 144.991C96.3953 144.981 96.5102 144.96 96.6222 144.928C96.7166 144.889 96.8023 144.832 96.8742 144.76C97.1752 144.34 97.4832 143.927 97.7912 143.514L111.791 124.446L117.888 116.137C117.98 115.998 118.019 115.83 117.999 115.665C117.978 115.499 117.899 115.346 117.776 115.234C117.655 115.123 117.499 115.059 117.335 115.052C117.174 115.052 116.95 115.052 116.761 115.052L114.479 115.213L110.174 115.521L97.1892 116.424L95.1522 116.557C94.6563 116.546 94.1647 116.651 93.7172 116.865C93.3318 117.056 92.9908 117.325 92.7162 117.656Z" fill="#263238"/>
<path d="M117.902 116.2C117.753 116.239 117.6 116.263 117.447 116.27L116.117 116.403L111.175 116.844L94.3745 118.244L94.5075 118.167C93.4575 119.728 92.3725 121.352 91.2805 123.032C86.8425 129.85 82.9715 136.115 80.0385 140.581C78.5825 142.814 77.3785 144.599 76.5385 145.831L75.5515 147.231C75.4475 147.402 75.3255 147.562 75.1875 147.707C75.2797 147.528 75.3825 147.355 75.4955 147.189C75.7195 146.832 76.0345 146.349 76.4195 145.747L79.8285 140.434C82.6985 135.94 86.5415 129.647 90.9795 122.822C92.0715 121.142 93.1635 119.518 94.2205 117.922L94.2695 117.852H94.3535L111.154 116.606L116.11 116.27L117.44 116.2C117.593 116.189 117.748 116.189 117.902 116.2Z" fill="#263238"/>
<path d="M104.884 120.631C104.871 120.573 104.846 120.519 104.812 120.471C104.778 120.424 104.734 120.383 104.684 120.353C104.634 120.322 104.578 120.302 104.52 120.293C104.461 120.284 104.402 120.287 104.345 120.302C104.122 120.353 103.918 120.467 103.757 120.631C103.654 120.723 103.587 120.849 103.568 120.986C103.549 121.123 103.579 121.263 103.652 121.38C103.869 121.653 104.352 121.555 104.583 121.324C104.689 121.244 104.772 121.138 104.824 121.017C104.877 120.895 104.898 120.762 104.884 120.631Z" fill="white"/>
<path d="M94.6634 136.822C94.6634 136.822 93.8025 134.722 95.9935 134.498C98.64 134.359 101.292 134.359 103.938 134.498C103.938 134.498 107.081 134.827 106.416 137.081C106.416 137.081 108.278 138.747 107.277 140.539C106.276 142.331 105.877 141.799 105.877 141.799C105.877 141.799 106.143 143.99 104.477 144.319C104.477 144.319 102.678 146.419 101.019 146.314C99.3604 146.209 92.3254 142.814 91.8634 142.114C91.4014 141.414 90.7294 141.078 91.1284 140.336C91.1284 140.336 90.2675 138.39 92.1295 138.096C92.1435 138.11 92.2764 136.5 94.6634 136.822Z" fill="#FFBE9D"/>
<path d="M104.643 137.564C104.156 137.657 103.66 137.692 103.166 137.669C102.249 137.669 100.989 137.669 99.5956 137.669C98.3969 137.699 97.1978 137.626 96.0116 137.452C95.0666 137.235 94.6956 136.682 94.7376 136.668C95.1401 136.929 95.5894 137.11 96.0606 137.2C96.9286 137.347 98.2096 137.256 99.6026 137.305C100.996 137.354 102.256 137.361 103.166 137.41C103.662 137.401 104.158 137.453 104.643 137.564Z" fill="#EB996E"/>
<path d="M103.077 140.882C103.077 140.882 102.916 140.98 102.601 141.043C102.141 141.138 101.67 141.169 101.201 141.134C100.526 141.08 99.8574 140.958 99.2064 140.77C98.5064 140.567 97.6944 140.28 96.8684 140.028C96.1027 139.779 95.3114 139.617 94.5094 139.545C93.8148 139.603 93.1179 139.462 92.5004 139.139C92.2579 138.975 92.0875 138.725 92.0244 138.439C91.9794 138.228 92.009 138.007 92.1084 137.816C92.2764 137.501 92.5144 137.487 92.5074 137.501C92.5004 137.515 92.3394 137.599 92.2344 137.879C92.1696 138.071 92.1755 138.281 92.2512 138.469C92.3269 138.658 92.4674 138.813 92.6474 138.908C93.2378 139.171 93.8884 139.27 94.5304 139.195C95.3611 139.249 96.1818 139.406 96.9734 139.664L99.3044 140.434C99.9321 140.633 100.576 140.776 101.229 140.861C101.844 140.915 102.462 140.922 103.077 140.882Z" fill="#EB996E"/>
<path d="M100.724 143.689C100.221 143.66 99.7238 143.564 99.2466 143.402C98.3436 143.178 97.1116 142.821 95.7466 142.387C94.3816 141.953 93.1987 141.498 92.3377 141.148C91.8572 140.992 91.3986 140.775 90.9727 140.504C91.0147 140.406 93.1777 141.162 95.8727 142.037C98.5676 142.912 100.752 143.591 100.724 143.689Z" fill="#EB996E"/>
<path d="M101.29 146.3C100.875 146.337 100.456 146.289 100.059 146.16C99.0938 145.928 98.1556 145.597 97.2585 145.173C96.2015 144.69 95.2845 144.2 94.6125 143.85C94.234 143.688 93.8805 143.474 93.5625 143.213C94.8899 143.64 96.1761 144.186 97.4055 144.844C98.6752 145.394 99.9719 145.88 101.29 146.3Z" fill="#EB996E"/>
<path d="M34.8125 107.331C34.8125 107.331 25.8105 111.076 28.0435 122.99C30.2765 134.904 31.4385 138.88 31.4385 138.88L49.1835 129.542L34.8125 107.331Z" fill="#FF725E"/>
<path d="M48.8139 129.738C48.6119 129.9 48.3938 130.04 48.1629 130.158C47.7359 130.41 47.1059 130.76 46.3289 131.187C44.7749 132.048 42.6119 133.203 40.2109 134.47C37.8099 135.737 35.6329 136.857 34.0439 137.655C33.2529 138.054 32.6089 138.355 32.1609 138.579C31.9388 138.703 31.7041 138.804 31.4609 138.88C31.6593 138.711 31.878 138.567 32.1119 138.453C32.5389 138.201 33.1689 137.851 33.9459 137.424C35.4999 136.57 37.6629 135.408 40.0639 134.148C42.4649 132.888 44.6419 131.761 46.2239 130.963L48.1139 130.032C48.3352 129.907 48.5701 129.809 48.8139 129.738Z" fill="#263238"/>
<path d="M48.813 129.738C48.444 129.22 48.1185 128.672 47.84 128.1L45.586 124.082C44.732 122.57 43.955 121.205 43.318 120.071C42.9751 119.531 42.6867 118.959 42.457 118.363C42.8688 118.85 43.23 119.378 43.535 119.938C44.165 120.939 45.012 122.339 45.901 123.907C46.79 125.475 47.56 126.917 48.071 127.981C48.3779 128.539 48.6265 129.128 48.813 129.738Z" fill="#263238"/>
<path d="M81.1553 345.727V335.774H83.9648C84.8307 335.774 85.5964 335.966 86.2617 336.348C86.9271 336.731 87.4398 337.276 87.7998 337.982C88.1644 338.689 88.349 339.5 88.3535 340.416V341.052C88.3535 341.99 88.1712 342.813 87.8066 343.519C87.4466 344.226 86.9294 344.768 86.2549 345.146C85.585 345.524 84.8034 345.718 83.9102 345.727H81.1553ZM82.4678 336.854V344.654H83.8486C84.8604 344.654 85.6465 344.34 86.207 343.711C86.7721 343.082 87.0547 342.186 87.0547 341.024V340.443C87.0547 339.313 86.7881 338.436 86.2549 337.811C85.7262 337.182 84.9743 336.863 83.999 336.854H82.4678ZM93.2139 345.864C92.2113 345.864 91.3955 345.536 90.7666 344.88C90.1377 344.219 89.8232 343.337 89.8232 342.234V342.002C89.8232 341.268 89.9622 340.614 90.2402 340.04C90.5228 339.461 90.9147 339.01 91.416 338.686C91.9219 338.358 92.4688 338.194 93.0566 338.194C94.0182 338.194 94.7656 338.511 95.2988 339.144C95.832 339.778 96.0986 340.685 96.0986 341.865V342.391H91.0879C91.1061 343.121 91.318 343.711 91.7236 344.162C92.1338 344.608 92.6533 344.832 93.2822 344.832C93.7288 344.832 94.1071 344.741 94.417 344.558C94.7269 344.376 94.998 344.135 95.2305 343.834L96.0029 344.435C95.3831 345.388 94.4535 345.864 93.2139 345.864ZM93.0566 339.233C92.5462 339.233 92.1178 339.42 91.7715 339.794C91.4251 340.163 91.2109 340.682 91.1289 341.352H94.834V341.257C94.7975 340.614 94.6243 340.117 94.3145 339.766C94.0046 339.411 93.5853 339.233 93.0566 339.233ZM101.875 343.765C101.875 343.424 101.745 343.159 101.485 342.972C101.23 342.781 100.781 342.617 100.139 342.48C99.5007 342.344 98.9925 342.179 98.6143 341.988C98.2406 341.797 97.9626 341.569 97.7803 341.304C97.6025 341.04 97.5137 340.726 97.5137 340.361C97.5137 339.755 97.7689 339.242 98.2793 338.823C98.7943 338.404 99.4505 338.194 100.248 338.194C101.087 338.194 101.766 338.411 102.285 338.844C102.809 339.276 103.071 339.83 103.071 340.505H101.8C101.8 340.158 101.652 339.86 101.355 339.609C101.064 339.358 100.695 339.233 100.248 339.233C99.7878 339.233 99.4277 339.333 99.168 339.534C98.9082 339.734 98.7783 339.997 98.7783 340.32C98.7783 340.625 98.8991 340.856 99.1406 341.01C99.3822 341.165 99.8174 341.314 100.446 341.455C101.08 341.596 101.592 341.765 101.984 341.961C102.376 342.157 102.666 342.394 102.853 342.672C103.044 342.945 103.14 343.28 103.14 343.677C103.14 344.337 102.875 344.868 102.347 345.269C101.818 345.666 101.132 345.864 100.289 345.864C99.6966 345.864 99.1725 345.759 98.7168 345.55C98.2611 345.34 97.9033 345.048 97.6436 344.675C97.3883 344.296 97.2607 343.888 97.2607 343.451H98.5254C98.5482 343.875 98.7168 344.212 99.0312 344.463C99.3503 344.709 99.7695 344.832 100.289 344.832C100.768 344.832 101.15 344.736 101.438 344.545C101.729 344.349 101.875 344.089 101.875 343.765ZM106.161 345.727H104.896V338.331H106.161V345.727ZM104.794 336.369C104.794 336.164 104.855 335.991 104.979 335.849C105.106 335.708 105.293 335.637 105.539 335.637C105.785 335.637 105.972 335.708 106.1 335.849C106.227 335.991 106.291 336.164 106.291 336.369C106.291 336.574 106.227 336.745 106.1 336.882C105.972 337.018 105.785 337.087 105.539 337.087C105.293 337.087 105.106 337.018 104.979 336.882C104.855 336.745 104.794 336.574 104.794 336.369ZM107.891 341.968C107.891 340.815 108.157 339.899 108.69 339.219C109.224 338.536 109.93 338.194 110.81 338.194C111.712 338.194 112.416 338.513 112.922 339.151L112.983 338.331H114.139V345.55C114.139 346.507 113.854 347.261 113.284 347.812C112.719 348.364 111.958 348.639 111.001 348.639C110.468 348.639 109.946 348.525 109.436 348.298C108.925 348.07 108.535 347.758 108.267 347.361L108.923 346.602C109.465 347.272 110.128 347.607 110.912 347.607C111.527 347.607 112.006 347.434 112.348 347.088C112.694 346.741 112.867 346.254 112.867 345.625V344.989C112.361 345.572 111.671 345.864 110.796 345.864C109.93 345.864 109.228 345.515 108.69 344.818C108.157 344.121 107.891 343.171 107.891 341.968ZM109.162 342.111C109.162 342.945 109.333 343.601 109.675 344.08C110.017 344.554 110.495 344.791 111.11 344.791C111.908 344.791 112.493 344.428 112.867 343.704V340.327C112.48 339.621 111.899 339.267 111.124 339.267C110.509 339.267 110.028 339.507 109.682 339.985C109.335 340.464 109.162 341.172 109.162 342.111ZM117.249 338.331L117.29 339.26C117.855 338.55 118.593 338.194 119.505 338.194C121.068 338.194 121.856 339.076 121.87 340.84V345.727H120.605V340.833C120.601 340.3 120.478 339.905 120.236 339.65C119.999 339.395 119.628 339.267 119.122 339.267C118.712 339.267 118.352 339.377 118.042 339.595C117.732 339.814 117.491 340.101 117.317 340.457V345.727H116.053V338.331H117.249ZM126.847 345.864C125.844 345.864 125.028 345.536 124.399 344.88C123.771 344.219 123.456 343.337 123.456 342.234V342.002C123.456 341.268 123.595 340.614 123.873 340.04C124.156 339.461 124.548 339.01 125.049 338.686C125.555 338.358 126.102 338.194 126.689 338.194C127.651 338.194 128.398 338.511 128.932 339.144C129.465 339.778 129.731 340.685 129.731 341.865V342.391H124.721C124.739 343.121 124.951 343.711 125.356 344.162C125.767 344.608 126.286 344.832 126.915 344.832C127.362 344.832 127.74 344.741 128.05 344.558C128.36 344.376 128.631 344.135 128.863 343.834L129.636 344.435C129.016 345.388 128.086 345.864 126.847 345.864ZM126.689 339.233C126.179 339.233 125.751 339.42 125.404 339.794C125.058 340.163 124.844 340.682 124.762 341.352H128.467V341.257C128.43 340.614 128.257 340.117 127.947 339.766C127.637 339.411 127.218 339.233 126.689 339.233ZM130.894 341.968C130.894 340.833 131.162 339.921 131.7 339.233C132.238 338.54 132.942 338.194 133.812 338.194C134.678 338.194 135.364 338.49 135.87 339.083V335.227H137.135V345.727H135.973L135.911 344.934C135.405 345.554 134.701 345.864 133.799 345.864C132.942 345.864 132.243 345.513 131.7 344.811C131.162 344.109 130.894 343.193 130.894 342.063V341.968ZM132.158 342.111C132.158 342.95 132.331 343.606 132.678 344.08C133.024 344.554 133.503 344.791 134.113 344.791C134.915 344.791 135.501 344.431 135.87 343.711V340.313C135.492 339.616 134.911 339.267 134.127 339.267C133.507 339.267 133.024 339.507 132.678 339.985C132.331 340.464 132.158 341.172 132.158 342.111ZM148.838 342.111C148.838 343.241 148.578 344.15 148.059 344.839C147.539 345.522 146.842 345.864 145.967 345.864C145.033 345.864 144.31 345.534 143.8 344.873L143.738 345.727H142.576V335.227H143.841V339.144C144.351 338.511 145.055 338.194 145.953 338.194C146.851 338.194 147.555 338.534 148.065 339.213C148.58 339.892 148.838 340.821 148.838 342.002V342.111ZM147.573 341.968C147.573 341.106 147.407 340.441 147.074 339.971C146.742 339.502 146.263 339.267 145.639 339.267C144.805 339.267 144.205 339.655 143.841 340.429V343.629C144.228 344.403 144.832 344.791 145.652 344.791C146.258 344.791 146.73 344.556 147.067 344.087C147.405 343.617 147.573 342.911 147.573 341.968ZM152.775 343.875L154.498 338.331H155.852L152.878 346.869C152.418 348.099 151.686 348.715 150.684 348.715L150.444 348.694L149.973 348.605V347.58L150.314 347.607C150.743 347.607 151.076 347.521 151.312 347.347C151.554 347.174 151.752 346.858 151.907 346.397L152.188 345.645L149.549 338.331H150.93L152.775 343.875ZM164.766 343.765C164.766 343.424 164.636 343.159 164.376 342.972C164.121 342.781 163.672 342.617 163.029 342.48C162.391 342.344 161.883 342.179 161.505 341.988C161.131 341.797 160.853 341.569 160.671 341.304C160.493 341.04 160.404 340.726 160.404 340.361C160.404 339.755 160.66 339.242 161.17 338.823C161.685 338.404 162.341 338.194 163.139 338.194C163.977 338.194 164.656 338.411 165.176 338.844C165.7 339.276 165.962 339.83 165.962 340.505H164.69C164.69 340.158 164.542 339.86 164.246 339.609C163.954 339.358 163.585 339.233 163.139 339.233C162.678 339.233 162.318 339.333 162.059 339.534C161.799 339.734 161.669 339.997 161.669 340.32C161.669 340.625 161.79 340.856 162.031 341.01C162.273 341.165 162.708 341.314 163.337 341.455C163.97 341.596 164.483 341.765 164.875 341.961C165.267 342.157 165.556 342.394 165.743 342.672C165.935 342.945 166.03 343.28 166.03 343.677C166.03 344.337 165.766 344.868 165.237 345.269C164.709 345.666 164.023 345.864 163.18 345.864C162.587 345.864 162.063 345.759 161.607 345.55C161.152 345.34 160.794 345.048 160.534 344.675C160.279 344.296 160.151 343.888 160.151 343.451H161.416C161.439 343.875 161.607 344.212 161.922 344.463C162.241 344.709 162.66 344.832 163.18 344.832C163.658 344.832 164.041 344.736 164.328 344.545C164.62 344.349 164.766 344.089 164.766 343.765ZM169.394 336.54V338.331H170.774V339.308H169.394V343.895C169.394 344.191 169.455 344.415 169.578 344.565C169.701 344.711 169.911 344.784 170.207 344.784C170.353 344.784 170.553 344.757 170.809 344.702V345.727C170.476 345.818 170.152 345.864 169.838 345.864C169.273 345.864 168.847 345.693 168.56 345.351C168.272 345.01 168.129 344.524 168.129 343.895V339.308H166.782V338.331H168.129V336.54H169.394ZM171.786 341.961C171.786 341.236 171.927 340.584 172.21 340.006C172.497 339.427 172.894 338.98 173.399 338.666C173.91 338.351 174.491 338.194 175.143 338.194C176.15 338.194 176.963 338.543 177.583 339.24C178.207 339.937 178.52 340.865 178.52 342.022V342.111C178.52 342.831 178.381 343.478 178.103 344.052C177.829 344.622 177.435 345.066 176.92 345.385C176.41 345.705 175.822 345.864 175.156 345.864C174.154 345.864 173.34 345.515 172.716 344.818C172.096 344.121 171.786 343.198 171.786 342.05V341.961ZM173.058 342.111C173.058 342.931 173.247 343.59 173.625 344.087C174.008 344.583 174.518 344.832 175.156 344.832C175.799 344.832 176.309 344.581 176.688 344.08C177.066 343.574 177.255 342.868 177.255 341.961C177.255 341.149 177.061 340.493 176.674 339.992C176.291 339.486 175.781 339.233 175.143 339.233C174.518 339.233 174.015 339.482 173.632 339.978C173.249 340.475 173.058 341.186 173.058 342.111ZM183.681 339.466C183.489 339.434 183.282 339.418 183.059 339.418C182.229 339.418 181.666 339.771 181.37 340.477V345.727H180.105V338.331H181.336L181.356 339.185C181.771 338.524 182.359 338.194 183.12 338.194C183.366 338.194 183.553 338.226 183.681 338.29V339.466ZM186.224 345.727H184.959V338.331H186.224V345.727ZM184.856 336.369C184.856 336.164 184.918 335.991 185.041 335.849C185.169 335.708 185.355 335.637 185.602 335.637C185.848 335.637 186.035 335.708 186.162 335.849C186.29 335.991 186.354 336.164 186.354 336.369C186.354 336.574 186.29 336.745 186.162 336.882C186.035 337.018 185.848 337.087 185.602 337.087C185.355 337.087 185.169 337.018 185.041 336.882C184.918 336.745 184.856 336.574 184.856 336.369ZM191.323 345.864C190.321 345.864 189.505 345.536 188.876 344.88C188.247 344.219 187.933 343.337 187.933 342.234V342.002C187.933 341.268 188.072 340.614 188.35 340.04C188.632 339.461 189.024 339.01 189.525 338.686C190.031 338.358 190.578 338.194 191.166 338.194C192.128 338.194 192.875 338.511 193.408 339.144C193.941 339.778 194.208 340.685 194.208 341.865V342.391H189.197C189.215 343.121 189.427 343.711 189.833 344.162C190.243 344.608 190.763 344.832 191.392 344.832C191.838 344.832 192.216 344.741 192.526 344.558C192.836 344.376 193.107 344.135 193.34 343.834L194.112 344.435C193.493 345.388 192.563 345.864 191.323 345.864ZM191.166 339.233C190.656 339.233 190.227 339.42 189.881 339.794C189.535 340.163 189.32 340.682 189.238 341.352H192.943V341.257C192.907 340.614 192.734 340.117 192.424 339.766C192.114 339.411 191.695 339.233 191.166 339.233ZM199.984 343.765C199.984 343.424 199.854 343.159 199.595 342.972C199.34 342.781 198.891 342.617 198.248 342.48C197.61 342.344 197.102 342.179 196.724 341.988C196.35 341.797 196.072 341.569 195.89 341.304C195.712 341.04 195.623 340.726 195.623 340.361C195.623 339.755 195.878 339.242 196.389 338.823C196.904 338.404 197.56 338.194 198.357 338.194C199.196 338.194 199.875 338.411 200.395 338.844C200.919 339.276 201.181 339.83 201.181 340.505H199.909C199.909 340.158 199.761 339.86 199.465 339.609C199.173 339.358 198.804 339.233 198.357 339.233C197.897 339.233 197.537 339.333 197.277 339.534C197.018 339.734 196.888 339.997 196.888 340.32C196.888 340.625 197.008 340.856 197.25 341.01C197.492 341.165 197.927 341.314 198.556 341.455C199.189 341.596 199.702 341.765 200.094 341.961C200.486 342.157 200.775 342.394 200.962 342.672C201.153 342.945 201.249 343.28 201.249 343.677C201.249 344.337 200.985 344.868 200.456 345.269C199.927 345.666 199.242 345.864 198.398 345.864C197.806 345.864 197.282 345.759 196.826 345.55C196.37 345.34 196.013 345.048 195.753 344.675C195.498 344.296 195.37 343.888 195.37 343.451H196.635C196.658 343.875 196.826 344.212 197.141 344.463C197.46 344.709 197.879 344.832 198.398 344.832C198.877 344.832 199.26 344.736 199.547 344.545C199.839 344.349 199.984 344.089 199.984 343.765ZM206.622 346.582H205.535L209.691 335.774H210.771L206.622 346.582ZM221.299 341.332H217.122V345.727H215.81V335.774H221.976V336.854H217.122V340.259H221.299V341.332ZM226.747 339.466C226.556 339.434 226.348 339.418 226.125 339.418C225.296 339.418 224.733 339.771 224.437 340.477V345.727H223.172V338.331H224.402L224.423 339.185C224.838 338.524 225.425 338.194 226.187 338.194C226.433 338.194 226.619 338.226 226.747 338.29V339.466ZM230.849 345.864C229.846 345.864 229.03 345.536 228.401 344.88C227.772 344.219 227.458 343.337 227.458 342.234V342.002C227.458 341.268 227.597 340.614 227.875 340.04C228.158 339.461 228.549 339.01 229.051 338.686C229.557 338.358 230.104 338.194 230.691 338.194C231.653 338.194 232.4 338.511 232.934 339.144C233.467 339.778 233.733 340.685 233.733 341.865V342.391H228.723C228.741 343.121 228.953 343.711 229.358 344.162C229.769 344.608 230.288 344.832 230.917 344.832C231.364 344.832 231.742 344.741 232.052 344.558C232.362 344.376 232.633 344.135 232.865 343.834L233.638 344.435C233.018 345.388 232.088 345.864 230.849 345.864ZM230.691 339.233C230.181 339.233 229.753 339.42 229.406 339.794C229.06 340.163 228.846 340.682 228.764 341.352H232.469V341.257C232.432 340.614 232.259 340.117 231.949 339.766C231.639 339.411 231.22 339.233 230.691 339.233ZM238.272 345.864C237.27 345.864 236.454 345.536 235.825 344.88C235.196 344.219 234.882 343.337 234.882 342.234V342.002C234.882 341.268 235.021 340.614 235.299 340.04C235.581 339.461 235.973 339.01 236.475 338.686C236.98 338.358 237.527 338.194 238.115 338.194C239.077 338.194 239.824 338.511 240.357 339.144C240.891 339.778 241.157 340.685 241.157 341.865V342.391H236.146C236.165 343.121 236.377 343.711 236.782 344.162C237.192 344.608 237.712 344.832 238.341 344.832C238.787 344.832 239.166 344.741 239.476 344.558C239.785 344.376 240.057 344.135 240.289 343.834L241.062 344.435C240.442 345.388 239.512 345.864 238.272 345.864ZM238.115 339.233C237.605 339.233 237.176 339.42 236.83 339.794C236.484 340.163 236.27 340.682 236.188 341.352H239.893V341.257C239.856 340.614 239.683 340.117 239.373 339.766C239.063 339.411 238.644 339.233 238.115 339.233ZM248.875 342.111C248.875 343.237 248.618 344.144 248.103 344.832C247.588 345.52 246.89 345.864 246.011 345.864C245.113 345.864 244.407 345.579 243.892 345.01V348.571H242.627V338.331H243.782L243.844 339.151C244.359 338.513 245.074 338.194 245.99 338.194C246.879 338.194 247.581 338.529 248.096 339.199C248.615 339.869 248.875 340.801 248.875 341.995V342.111ZM247.61 341.968C247.61 341.134 247.433 340.475 247.077 339.992C246.722 339.509 246.234 339.267 245.614 339.267C244.849 339.267 244.274 339.607 243.892 340.286V343.82C244.27 344.495 244.849 344.832 245.628 344.832C246.234 344.832 246.715 344.593 247.07 344.114C247.43 343.631 247.61 342.915 247.61 341.968ZM251.862 345.727H250.598V338.331H251.862V345.727ZM250.495 336.369C250.495 336.164 250.557 335.991 250.68 335.849C250.807 335.708 250.994 335.637 251.24 335.637C251.486 335.637 251.673 335.708 251.801 335.849C251.928 335.991 251.992 336.164 251.992 336.369C251.992 336.574 251.928 336.745 251.801 336.882C251.673 337.018 251.486 337.087 251.24 337.087C250.994 337.087 250.807 337.018 250.68 336.882C250.557 336.745 250.495 336.574 250.495 336.369ZM255.957 342.302L255.164 343.13V345.727H253.899V335.227H255.164V341.578L255.841 340.764L258.145 338.331H259.683L256.805 341.421L260.018 345.727H258.534L255.957 342.302Z" fill="#ACA9A9"/>
</svg>
