<svg width="94" height="335" viewBox="0 0 94 335" fill="none" xmlns="http://www.w3.org/2000/svg">
<path d="M22.9766 24.6382C22.0208 24.1266 21.2184 23.3698 20.6516 22.4457C20.0848 21.5215 19.7741 20.4631 19.7513 19.3792C19.7286 18.2953 19.9947 17.2249 20.5222 16.2778C21.0497 15.3307 21.8198 14.5409 22.7533 13.9897L29.9804 12.1136C30.3556 21.3091 30.7963 30.4955 31.3025 39.6731C29.3902 39.5501 27.5497 38.8974 25.9872 37.7881C24.5042 36.5911 23.6109 34.4828 24.3256 32.714C23.5756 32.3987 22.9176 31.8988 22.4127 31.2608C21.9078 30.6229 21.5725 29.8676 21.4379 29.0653C21.3033 28.263 21.3738 27.4396 21.6428 26.6718C21.9118 25.9041 22.3707 25.2168 22.9766 24.674V24.6382Z" fill="#263238"/>
<path d="M58.0064 21.7349V18.4653L38.2994 15.3565C32.2336 14.9009 25.891 21.1631 25.7034 27.2378C25.489 33.9915 25.4979 42.2369 26.4538 47.2396C28.3744 57.2986 36.1554 58.3349 36.1554 58.3349V68.3402C36.2715 74.1737 41.2296 75.2993 47.063 75.1921C49.8064 75.1391 52.4218 74.0221 54.357 72.0768C56.2922 70.1316 57.3958 67.5105 57.4347 64.7669L58.0064 21.7349Z" fill="#FFBE9D"/>
<path d="M30.75 35.3582C30.7593 35.6964 30.8995 36.0177 31.1412 36.2544C31.3829 36.4911 31.7071 36.6246 32.0453 36.6268C32.2102 36.6352 32.375 36.6104 32.5301 36.5539C32.6852 36.4974 32.8274 36.4103 32.9482 36.2978C33.069 36.1854 33.166 36.0498 33.2334 35.8991C33.3008 35.7485 33.3373 35.5858 33.3407 35.4208C33.336 35.0827 33.1984 34.7601 32.9576 34.5227C32.7169 34.2853 32.3924 34.1522 32.0543 34.1522C31.889 34.1438 31.7237 34.1686 31.5681 34.225C31.4125 34.2814 31.2698 34.3683 31.1483 34.4807C31.0267 34.593 30.9289 34.7285 30.8605 34.8792C30.7921 35.0299 30.7545 35.1928 30.75 35.3582Z" fill="#263238"/>
<path d="M27.9362 31.4633C28.106 31.6331 29.0618 30.8737 30.4554 30.8291C31.849 30.7844 32.8942 31.4544 33.0372 31.2847C33.1801 31.1149 32.9389 30.9005 32.4833 30.5968C31.8675 30.198 31.1439 29.9984 30.4108 30.0251C29.6854 30.0479 28.9854 30.2979 28.4097 30.7397C27.9898 31.0792 27.8558 31.3919 27.9362 31.4633Z" fill="#263238"/>
<path d="M42.9062 35.26C42.9133 35.5989 43.0528 35.9215 43.295 36.1587C43.5372 36.3958 43.8626 36.5286 44.2016 36.5286C44.3664 36.537 44.5313 36.5122 44.6864 36.4557C44.8415 36.3992 44.9836 36.3121 45.1044 36.1996C45.2252 36.0872 45.3222 35.9516 45.3897 35.8009C45.4571 35.6503 45.4936 35.4876 45.4969 35.3226C45.49 34.9852 45.3516 34.6639 45.1114 34.427C44.8711 34.1901 44.5479 34.0563 44.2105 34.054C44.0452 34.0456 43.8799 34.0704 43.7244 34.1268C43.5688 34.1832 43.426 34.2701 43.3045 34.3824C43.183 34.4948 43.0852 34.6303 43.0168 34.781C42.9484 34.9317 42.9108 35.0946 42.9062 35.26Z" fill="#263238"/>
<path d="M41.6569 31.3293C41.8177 31.499 42.7825 30.7397 44.1761 30.695C45.5697 30.6504 46.6149 31.3204 46.7578 31.1506C46.9007 30.9809 46.6595 30.7665 46.2039 30.4628C45.5871 30.0589 44.859 29.8589 44.1225 29.891C43.3995 29.9121 42.7019 30.1624 42.1303 30.6057C41.7373 30.9094 41.5765 31.2221 41.6569 31.3293Z" fill="#263238"/>
<path d="M36.9127 41.7993C36.1712 41.5883 35.4055 41.4742 34.6347 41.4598C34.2773 41.4598 33.9379 41.3794 33.8753 41.1382C33.8303 40.7682 33.9022 40.3933 34.0808 40.0662C34.3845 39.1728 34.7061 38.2795 35.0456 37.3236C36.3856 33.4198 37.3504 30.1769 37.1896 30.1769C37.0288 30.1769 35.8139 33.25 34.5096 37.1539C34.188 38.1187 33.8753 39.0388 33.6163 39.9143C33.4047 40.3503 33.3541 40.8471 33.4733 41.3168C33.5288 41.4401 33.6114 41.5491 33.7151 41.6358C33.8188 41.7224 33.9408 41.7844 34.0719 41.8171C34.271 41.864 34.4748 41.888 34.6793 41.8886C35.4246 41.9499 36.1746 41.9198 36.9127 41.7993Z" fill="#263238"/>
<path d="M36.1261 58.3617C40.9991 58.2837 45.7586 56.8784 49.8924 54.297C49.8924 54.297 46.605 61.6402 36.1172 61.0417L36.1261 58.3617Z" fill="#EB996E"/>
<path d="M37.6091 45.1403C37.8637 44.7975 38.2018 44.5257 38.5911 44.3505C38.9805 44.1754 39.4082 44.1028 39.8335 44.1397C40.1416 44.1555 40.4433 44.2342 40.7198 44.3709C40.9963 44.5077 41.242 44.6996 41.4415 44.9348C41.6346 45.1621 41.7542 45.4426 41.7845 45.7393C41.8148 46.0359 41.7544 46.3348 41.6113 46.5964C41.3977 46.8492 41.1141 47.0333 40.7962 47.1255C40.4784 47.2176 40.1403 47.2139 39.8246 47.1146C39.169 46.8975 38.5621 46.5546 38.0379 46.1051C37.8781 46.0003 37.7388 45.8671 37.627 45.712C37.5748 45.6341 37.5469 45.5423 37.5469 45.4485C37.5469 45.3546 37.5748 45.2629 37.627 45.1849" fill="#EB996E"/>
<path d="M41.0464 42.6389C40.8231 42.6389 40.8677 44.1397 39.5992 45.2564C38.3307 46.3731 36.7227 46.2569 36.7227 46.4713C36.7227 46.6857 37.0889 46.7483 37.7679 46.7483C38.652 46.744 39.5062 46.4276 40.1799 45.8549C40.8202 45.2965 41.2203 44.5125 41.2965 43.6662C41.3323 42.9962 41.1536 42.621 41.0464 42.6389Z" fill="#263238"/>
<path d="M41.2132 27.2646C41.3562 27.6487 42.7498 27.4701 44.3846 27.6666C46.0194 27.8631 47.3415 28.3098 47.5649 27.9703C47.6542 27.8006 47.4309 27.4522 46.8949 27.077C46.1822 26.628 45.3766 26.3472 44.5392 26.2558C43.7018 26.1645 42.8546 26.2651 42.0619 26.5499C41.4544 26.7911 41.1596 27.0859 41.2132 27.2646Z" fill="#263238"/>
<path d="M26.809 28.3724C27.1038 28.6672 28.1401 28.2563 29.4176 28.1401C30.6951 28.024 31.7939 28.1401 32.0172 27.8185C32.1155 27.6488 31.9189 27.3451 31.4276 27.086C30.7532 26.7612 29.9997 26.6372 29.2568 26.7287C28.5172 26.7946 27.8127 27.0739 27.2289 27.5327C26.8001 27.89 26.675 28.2295 26.809 28.3724Z" fill="#263238"/>
<path d="M21.8343 18.3045C20.8047 17.6211 20.0007 16.648 19.5237 15.508C19.0467 14.368 18.9182 13.1122 19.1543 11.8992C19.4226 10.6951 19.998 9.58097 20.8246 8.66517C21.6512 7.74938 22.7007 7.06314 23.8711 6.67322C24.3443 6.51665 24.8322 6.40889 25.3273 6.35162C26.2626 5.76262 27.3325 5.42137 28.4361 5.36002C28.5423 4.71058 28.8354 4.10616 29.2796 3.62067C29.7239 3.13519 30.2999 2.78968 30.9374 2.62641C32.2164 2.30935 33.5534 2.30935 34.8324 2.62641C35.4552 1.79945 36.2641 1.1308 37.1934 0.674602C38.1228 0.218402 39.1465 -0.0125249 40.1817 0.000523775C41.2169 0.0135724 42.2344 0.27023 43.152 0.74971C44.0695 1.22919 44.8613 1.91801 45.4631 2.76041C46.1695 2.29997 46.9746 2.01269 47.8129 1.92191C48.6512 1.83113 49.4991 1.93942 50.2877 2.23797C51.0763 2.53652 51.7833 3.01692 52.3513 3.64012C52.9194 4.26332 53.3323 5.01173 53.5567 5.82455C54.5688 5.81878 55.5614 6.10359 56.4165 6.64515C57.2716 7.18671 57.9533 7.96228 58.3807 8.87977C58.8597 9.4526 59.2073 10.1235 59.3991 10.8451C60.6394 10.9411 61.8203 11.4155 62.7822 12.2042C63.7442 12.993 64.4408 14.0581 64.7779 15.2555C65.115 16.4529 65.0763 17.7249 64.6672 18.8997C64.258 20.0745 63.4981 21.0953 62.4901 21.8242C63.1279 22.4075 63.6206 23.1318 63.9288 23.9392C64.2371 24.7467 64.3525 25.615 64.2657 26.4749C64.1789 27.3349 63.8924 28.1627 63.429 28.8922C62.9657 29.6218 62.3382 30.2331 61.5967 30.6772C61.9153 31.5833 62.0464 32.5446 61.9819 33.5029C61.9174 34.4612 61.6587 35.3964 61.2215 36.2516C60.8756 37.0147 60.2623 37.6248 59.4974 37.9668C59.4712 38.1018 59.4229 38.2316 59.3545 38.3509C58.7827 39.3157 57.2819 38.9495 56.3796 38.2795C54.191 36.6447 52.9582 34.0183 52.2703 31.374C51.5824 28.7297 51.377 26.014 50.6802 23.334C50.6802 23.2714 50.6802 23.2089 50.6355 23.1463C50.3525 22.0477 49.8241 21.0276 49.09 20.1626C48.3397 20.7659 47.5454 21.3124 46.7138 21.7974C45.1847 22.5886 43.4419 22.8681 41.7421 22.5947C40.0423 22.3214 38.4751 21.5095 37.2712 20.2787C35.2167 22.1016 32.5923 23.1533 29.8476 23.2535C27.1675 23.3429 24.425 22.9141 22.281 21.2435C21.7238 20.8127 21.2946 20.2383 21.0393 19.5819C20.9967 19.3091 21.0536 19.03 21.1995 18.7955C21.3455 18.5611 21.5707 18.3868 21.8343 18.3045Z" fill="#263238"/>
<path d="M56.7969 35.1439C56.9309 35.0724 62.1569 32.8927 62.5857 38.4313C63.0145 43.97 57.3775 43.2554 57.3507 43.0946C57.3239 42.9338 56.7969 35.1439 56.7969 35.1439Z" fill="#FFBE9D"/>
<path d="M58.8788 40.8702C58.8788 40.8702 58.986 40.9238 59.1557 40.9863C59.3849 41.0787 59.6411 41.0787 59.8704 40.9863C60.2023 40.7274 60.4598 40.3852 60.6168 39.9945C60.7737 39.6038 60.8244 39.1785 60.7637 38.7619C60.7392 38.2845 60.6112 37.8181 60.3885 37.3951C60.3229 37.2263 60.217 37.0761 60.0799 36.9578C59.9429 36.8394 59.7789 36.7565 59.6024 36.7162C59.4903 36.6941 59.374 36.7125 59.2742 36.7681C59.1744 36.8237 59.0976 36.9129 59.0574 37.0199C58.9949 37.1807 59.0574 37.2879 59.0127 37.3058C58.9681 37.3236 58.8877 37.2164 58.9145 36.9931C58.9285 36.8517 58.9956 36.7209 59.1021 36.6268C59.2457 36.5024 59.4303 36.4355 59.6202 36.4392C59.8518 36.4692 60.0722 36.5569 60.2611 36.6943C60.45 36.8316 60.6013 37.0143 60.7012 37.2254C60.9701 37.685 61.1234 38.2031 61.1478 38.7351C61.2132 39.2253 61.1328 39.7238 60.9167 40.1686C60.7007 40.6134 60.3585 40.9848 59.9329 41.2364C59.788 41.2935 59.6318 41.3159 59.4767 41.302C59.3216 41.288 59.1719 41.238 59.0395 41.156C58.9055 41.0042 58.8609 40.8791 58.8788 40.8702Z" fill="#EB996E"/>
<path d="M19.4051 10.9702C19.4051 10.9702 19.4051 11.0149 19.3604 11.1042C19.3248 11.2363 19.2979 11.3706 19.28 11.5062C19.217 12.0324 19.2534 12.5657 19.3872 13.0785C19.5876 13.8881 20.0301 14.6173 20.6557 15.1689C21.4819 15.9056 22.56 16.2959 23.6663 16.2588L23.568 16.1784C23.9391 17.9593 24.8134 19.5964 26.0872 20.8952C26.7967 21.638 27.6552 22.2225 28.6064 22.6104C29.6263 23.007 30.7342 23.1212 31.8135 22.9409C32.864 22.7923 33.8872 22.4914 34.8509 22.0476C35.7734 21.6455 36.6173 21.083 37.3433 20.386H37.1735C38.5201 21.5854 40.1649 22.4001 41.935 22.7444C43.3435 22.941 44.7789 22.7527 46.089 22.1995C46.9436 21.8466 47.732 21.3512 48.4206 20.7344C48.6019 20.5735 48.7748 20.4036 48.9388 20.2252C49.0015 20.1677 49.0556 20.1015 49.0996 20.0286C49.0996 20.0286 48.8494 20.2699 48.367 20.6808C47.6685 21.2613 46.8813 21.7258 46.0354 22.0565C44.7484 22.579 43.3452 22.7486 41.9707 22.5479C40.244 22.1905 38.6436 21.3795 37.3343 20.1984L37.245 20.1269L37.1646 20.2073C36.4639 20.8818 35.6467 21.4236 34.7526 21.8064C33.8115 22.2521 32.8087 22.5532 31.7778 22.6997C30.7425 22.8782 29.6784 22.7764 28.6958 22.4049C27.7782 22.0229 26.9483 21.4575 26.257 20.7433C25.0083 19.483 24.1439 17.8936 23.7645 16.1605V16.0801H23.6752C22.6185 16.1152 21.5865 15.7553 20.7808 15.0706C20.17 14.5395 19.7289 13.8405 19.5123 13.0606C19.3724 12.5643 19.321 12.0472 19.3604 11.533C19.4051 11.1578 19.4497 10.9791 19.4051 10.9702Z" fill="#455A64"/>
<path d="M58.6315 10.6039C58.877 11.2128 59.0741 11.84 59.2211 12.4799C59.5629 14.1614 59.3465 15.9085 58.6047 17.4558V17.5451L58.6762 17.5987C59.3955 18.1645 59.9481 18.9147 60.2752 19.7695C60.645 20.7049 60.7137 21.7323 60.4718 22.7086C60.1601 23.9742 59.3773 25.0733 58.2831 25.7817L58.1759 25.8442L58.2384 25.9514C58.8324 26.9878 59.1233 28.1702 59.0782 29.3639C59.0535 30.3106 58.8314 31.2417 58.426 32.0976C58.0541 32.8584 57.5591 33.5527 56.9609 34.1522L57.1039 34.045C57.1843 33.9646 57.3272 33.8664 57.4791 33.7056C57.9146 33.2473 58.279 32.7264 58.56 32.1601C58.998 31.2935 59.2448 30.343 59.2836 29.3729C59.3542 28.1257 59.0625 26.8847 58.4439 25.7995V25.9603C59.5975 25.2232 60.4254 24.0725 60.7576 22.7443C60.9851 21.7323 60.8946 20.6746 60.4986 19.7159C60.1548 18.8213 59.5705 18.0391 58.8102 17.4558V17.5898C59.5564 15.998 59.7482 14.2023 59.3551 12.4888C59.2449 12.0094 59.0863 11.5425 58.8816 11.0952C58.8102 10.9433 58.7476 10.8361 58.703 10.7557C58.6583 10.6753 58.6404 10.6039 58.6315 10.6039Z" fill="#455A64"/>
<path d="M60.2906 42.7283C60.3827 43.0487 60.4396 43.3782 60.4603 43.7109C60.4619 44.0636 60.3384 44.4054 60.1119 44.6757C59.9728 44.8281 59.7977 44.9431 59.6026 45.0102C59.4075 45.0773 59.1987 45.0944 58.9953 45.0599C58.7941 45.0066 58.6146 44.8919 58.4817 44.7317C58.3488 44.5716 58.2691 44.374 58.2538 44.1665C58.1999 43.8162 58.2432 43.4578 58.3788 43.1303C58.6111 42.5585 58.8344 42.2369 58.7987 42.1923C58.5421 42.444 58.3439 42.7489 58.218 43.0856C58.0368 43.4376 57.9682 43.8368 58.0215 44.2291C58.0524 44.4688 58.1447 44.6966 58.2895 44.8901C58.448 45.1053 58.6801 45.2547 58.9416 45.31C59.189 45.3554 59.4441 45.3347 59.6809 45.25C59.9178 45.1653 60.1281 45.0196 60.2906 44.8276C60.5368 44.5092 60.6604 44.1129 60.639 43.7109C60.6402 43.3529 60.517 43.0056 60.2906 42.7283Z" fill="#263238"/>
<path d="M57.364 294.864V315.732L52.6114 332.232C52.5301 332.513 52.5074 332.808 52.5449 333.098C52.5823 333.388 52.679 333.668 52.8289 333.919C52.9789 334.17 53.1789 334.388 53.4166 334.559C53.6542 334.73 53.9245 334.85 54.2105 334.912C54.5439 334.985 54.89 334.977 55.2197 334.889C55.5493 334.8 55.8528 334.633 56.1044 334.403C59.3561 331.419 71.2911 320.395 71.175 318.868C71.0767 317.081 72.6311 296.865 72.6311 296.865L57.364 294.864Z" fill="#FF725E"/>
<path d="M54.2422 334.93L71.2156 317.483V318.376C71.2011 319.138 70.9161 319.869 70.4116 320.44C69.0537 321.967 65.2034 326.104 56.1986 334.429C55.9404 334.67 55.6263 334.843 55.2848 334.931C54.9432 335.02 54.5849 335.023 54.2422 334.939V334.93Z" fill="#263238"/>
<g opacity="0.6">
<path opacity="0.6" d="M67.0823 310.658C66.8219 310.841 66.6385 311.114 66.5675 311.424C66.4966 311.734 66.5431 312.059 66.6981 312.337C66.8709 312.604 67.1396 312.795 67.4487 312.87C67.7579 312.945 68.084 312.898 68.3598 312.739C68.6376 312.545 68.8329 312.254 68.9073 311.924C68.9817 311.593 68.9298 311.247 68.7617 310.953C68.5523 310.69 68.2488 310.518 67.9154 310.475C67.582 310.432 67.2448 310.52 66.9751 310.72" fill="white"/>
</g>
<path d="M59.1914 325.925C58.7078 325.262 58.1013 324.698 57.4047 324.263C56.6482 323.946 55.8396 323.77 55.0195 323.745C55.0195 323.7 55.2697 323.54 55.761 323.486C56.4029 323.424 57.0489 323.551 57.6191 323.852C58.192 324.152 58.6689 324.607 58.9949 325.166C59.2182 325.603 59.245 325.907 59.1914 325.925Z" fill="#263238"/>
<path d="M57.6483 328.685C57.5411 328.775 56.8889 328.078 55.8169 327.747C55.1471 327.607 54.4702 327.502 53.7891 327.435C54.1146 327.242 54.4816 327.13 54.8593 327.108C55.2369 327.086 55.6144 327.155 55.9599 327.31C57.1748 327.694 57.7555 328.632 57.6483 328.685Z" fill="#263238"/>
<path d="M62.0433 322.405C61.1889 321.799 60.2934 321.253 59.3633 320.77C58.3556 320.434 57.3258 320.169 56.2812 319.975C57.3799 319.789 58.5087 319.919 59.5366 320.349C60.5645 320.779 61.4492 321.492 62.0879 322.405H62.0433Z" fill="#263238"/>
<path d="M62.5671 316.063C62.5046 316.188 61.3611 315.678 59.8871 315.598C58.4131 315.518 57.2071 315.839 57.1445 315.714C57.9707 315.201 58.9512 314.995 59.9139 315.133C60.8786 315.13 61.8154 315.458 62.5671 316.063Z" fill="#263238"/>
<path d="M62.7201 309.943C61.8193 309.624 60.8779 309.435 59.9239 309.38C58.9715 309.466 58.0345 309.676 57.1367 310.006C57.1367 309.961 57.3422 309.711 57.8246 309.443C58.4709 309.107 59.1867 308.926 59.915 308.916C60.6427 308.903 61.3628 309.065 62.0143 309.389C62.5057 309.648 62.7469 309.898 62.7201 309.943Z" fill="#263238"/>
<path d="M59.9894 308.21C59.9275 307.952 59.9275 307.682 59.9894 307.424C60.0709 306.701 60.2988 306.001 60.6594 305.369C60.8805 304.882 61.2578 304.483 61.7314 304.235C61.8931 304.166 62.0723 304.15 62.2438 304.188C62.4153 304.226 62.5704 304.318 62.6872 304.449C62.9062 304.714 63.0178 305.052 62.9999 305.396C62.938 306.091 62.6371 306.743 62.1485 307.242C61.6599 307.74 61.0137 308.054 60.3199 308.13C59.6267 308.186 58.9325 308.034 58.3261 307.694C57.7197 307.353 57.2288 306.839 56.9163 306.218C56.8428 306.06 56.8047 305.887 56.8047 305.713C56.8047 305.539 56.8428 305.366 56.9163 305.208C57.0063 305.057 57.1391 304.935 57.2981 304.859C57.457 304.782 57.635 304.755 57.8096 304.78C58.3208 304.905 58.7895 305.164 59.1675 305.53C59.7259 305.992 60.1951 306.552 60.5522 307.183C60.7058 307.398 60.8095 307.646 60.8559 307.906C60.3349 307.106 59.6965 306.39 58.962 305.78C58.6199 305.477 58.209 305.263 57.765 305.155C57.6692 305.14 57.5711 305.154 57.4835 305.195C57.3958 305.237 57.3227 305.303 57.2736 305.387C57.2063 305.61 57.2288 305.85 57.3362 306.057C57.6261 306.582 58.0603 307.014 58.5874 307.3C59.1145 307.587 59.7125 307.716 60.311 307.674C60.9013 307.614 61.4536 307.354 61.8772 306.939C62.3009 306.523 62.5707 305.976 62.6426 305.387C62.663 305.148 62.5964 304.91 62.455 304.717C62.3906 304.642 62.3039 304.589 62.2075 304.567C62.1111 304.544 62.01 304.553 61.919 304.592C61.5324 304.81 61.2209 305.14 61.0256 305.539C60.5231 306.36 60.1721 307.265 59.9894 308.21Z" fill="#263238"/>
<path d="M37.727 295.185L38.0307 312.427C38.0307 312.427 20.6106 318.528 20.3516 321.717L53.7981 322.334L54.4324 295.444L37.727 295.185Z" fill="#FF725E"/>
<path d="M48.3989 311.167C48.7156 311.275 48.9815 311.496 49.1462 311.788C49.3108 312.079 49.3628 312.421 49.2922 312.748C49.1964 313.068 48.982 313.338 48.6929 313.504C48.4038 313.67 48.062 313.72 47.7378 313.642C47.3991 313.529 47.1136 313.295 46.9357 312.985C46.7578 312.676 46.6999 312.312 46.773 311.962C46.9048 311.635 47.1577 311.372 47.479 311.227C47.8002 311.082 48.165 311.067 48.4972 311.185" fill="#E0E0E0"/>
<path d="M53.7966 322.334V319.654L21.7347 320.082C21.7347 320.082 20.2339 320.708 20.3858 321.753L53.7966 322.334Z" fill="#263238"/>
<path d="M37.4849 312.248C37.4849 312.409 38.3068 312.498 39.1019 313.043C39.8969 313.588 40.3079 314.276 40.4597 314.213C40.6116 314.151 40.3883 313.204 39.4145 312.57C38.4408 311.935 37.4581 312.096 37.4849 312.248Z" fill="#263238"/>
<path d="M33.9551 313.624C33.9105 313.784 34.6162 314.079 35.1611 314.776C35.7061 315.473 35.849 316.214 36.0545 316.205C36.26 316.196 36.3404 315.312 35.6435 314.419C34.9467 313.525 33.9551 313.481 33.9551 313.624Z" fill="#263238"/>
<path d="M31.912 317.796C32.0639 317.84 32.3051 317.027 31.912 316.125C31.519 315.223 30.7507 314.847 30.6792 314.981C30.6078 315.115 31.0723 315.607 31.385 316.348C31.6976 317.09 31.7244 317.778 31.912 317.796Z" fill="#263238"/>
<path d="M37.8484 308.308C37.9198 308.46 38.6702 308.255 39.5904 308.308C40.5105 308.362 41.2341 308.692 41.3145 308.558C41.3949 308.424 40.7249 307.826 39.635 307.746C38.5452 307.665 37.7769 308.183 37.8484 308.308Z" fill="#263238"/>
<path d="M84.0787 145.864C84.0787 145.864 89.537 161.944 88.2864 179.811C87.7771 187.011 80.0141 239.611 80.0141 239.611L73.6267 308.496L52.3564 307.808C52.3564 307.808 50.2213 236.779 50.5697 235.886C50.9181 234.992 50.5697 214.597 50.5697 214.597L52.2581 176.184V155.735L84.0787 145.864Z" fill="#455A64"/>
<path d="M22.082 138.28C22.082 138.28 13.1487 153.466 14.176 177.077C14.5602 186.1 28.9875 261.247 28.9875 261.247L37.8494 310.577L54.5727 311.935L52.2143 177.372V155.735L22.082 138.28Z" fill="#455A64"/>
<path d="M50.1401 181.597C48.8393 180.941 47.6536 180.078 46.6293 179.042C45.4995 178.118 44.5306 177.014 43.7617 175.773C43.86 175.684 45.1821 177.104 46.9331 178.703C48.684 180.302 50.2205 181.49 50.1401 181.597Z" fill="#263238"/>
<path d="M73.7347 308.478H72.3857L68.4819 308.389L53.9026 307.987H53.7597V307.844C53.7597 293.667 52.9289 272.548 52.0534 249.018C51.2673 227.292 50.7045 207.611 51.0886 193.372C51.1601 191.585 51.2226 189.897 51.2851 188.289C51.2851 187.887 51.2851 187.494 51.3298 187.1C51.3611 186.712 51.4208 186.327 51.5085 185.948C51.6724 185.229 51.8752 184.519 52.1159 183.822C53.0093 181.142 53.9651 178.891 54.7334 177.05C55.5017 175.21 56.1538 173.808 56.5915 172.852L57.1007 171.78C57.2169 171.539 57.2883 171.413 57.2883 171.413C57.2883 171.413 57.2883 171.547 57.1454 171.798L56.6809 172.896C56.261 173.879 55.6625 175.299 54.8942 177.122C54.1259 178.944 53.2147 181.222 52.3482 183.902C51.8298 185.313 51.5666 186.804 51.571 188.306C51.5174 189.908 51.4638 191.597 51.4102 193.372C51.1154 207.611 51.7229 227.318 52.509 249C53.4023 272.53 54.117 293.667 54.0545 307.844L53.9115 307.692L68.5354 308.264L72.4304 308.433L73.4399 308.487L73.7347 308.478Z" fill="#263238"/>
<path d="M24.5198 65.7406L35.8294 62.873C42.3954 66.9645 53.1244 68.1794 57.4482 60.9434L72.7332 63.284L75.0022 87.9311L75.0737 118.108C80.357 130.525 84.3214 143.463 86.9015 156.709C52.2132 165.357 26.6995 166.277 16.7656 150.867C16.7656 150.867 20.6784 138.449 24.5198 128.971C27.5303 121.547 25.5114 115.571 25.1273 113.454C24.9933 112.677 25.2166 112.953 25.1273 112.167L22.1971 97.4362L24.5198 65.7406Z" fill="#FF725E"/>
<g opacity="0.3">
<path opacity="0.3" d="M22.0813 126.023C27.2357 123.205 31.8875 119.552 35.8476 115.214C37.4257 113.32 39.1235 111.53 40.9307 109.854C42.7618 108.174 45.1005 107.152 47.5771 106.95C51.4363 106.816 54.7774 109.452 57.7344 111.935L67.5611 120.198C68.3347 120.973 69.2945 121.536 70.3483 121.833C71.4203 122.03 72.9747 122.226 73.207 121.163C70.5125 119.157 67.9604 116.966 65.5689 114.606C62.2725 111.319 58.6456 108.835 55.3492 105.548C53.8216 104.02 52.1957 102.287 52.0974 100.134C52.1817 99.3804 52.0836 98.6176 51.8116 97.9097C51.2934 97.061 50.141 96.9359 49.1315 96.9002C47.1841 96.8287 45.1562 96.7752 43.3963 97.606C40.9664 98.7673 39.6175 101.349 38.3132 103.699C33.85 111.73 28.1183 118.989 21.3398 125.192" fill="black"/>
</g>
<path d="M25.4142 65.7317C25.4142 65.7317 14.6316 66.491 10.6026 81.7046C6.57368 96.9181 -1.95769 116.42 0.722324 123.289C1.47273 125.228 4.34927 129.168 6.18955 130.123C11.5496 132.902 18.0441 129.034 22.4125 124.888L35.1158 110.327L37.8941 106.37L27.4956 97.5702L22.5555 101.572L25.5481 89.8786L25.4142 65.7317Z" fill="#FF725E"/>
<path d="M72.7349 63.418C72.7349 63.418 81.3824 63.0517 87.4124 75.7639C93.8266 89.2622 95.0147 113.195 92.826 120.359C90.7982 127.015 78.1842 128.078 75.4149 125.826C72.7885 123.7 48.8828 100.116 48.8828 100.116L59.6922 90.9774L75.0129 101.644L71.922 84.0362L72.7349 63.418Z" fill="#FF725E"/>
<path d="M71.9216 84.0361C71.9592 84.1311 71.9862 84.23 72.002 84.3309C72.0467 84.5543 72.1003 84.8491 72.1717 85.2243C72.3236 86.0372 72.5469 87.1985 72.8239 88.6904L75.1644 101.653L75.2269 102.01L74.9321 101.805L59.6025 91.1292H59.8437L49.0522 100.286V99.9643L67.5353 118.063L73.1812 123.486L74.5837 124.799C75.0194 125.235 75.5017 125.621 76.022 125.951C77.1536 126.427 78.3681 126.672 79.5954 126.675C82.027 126.739 84.4496 126.354 86.7421 125.541C88.9486 124.863 90.8461 123.43 92.1021 121.494C92.5902 120.498 92.9131 119.43 93.0579 118.331C93.2634 117.241 93.3617 116.143 93.4599 115.071C93.5939 112.918 93.6475 110.809 93.585 108.817C93.4904 105.043 93.1922 101.277 92.6917 97.5344C92.2629 94.104 91.6465 91.0309 91.0926 88.3331C90.5387 85.6352 89.8777 83.3661 89.3059 81.508C89.0201 80.6146 88.761 79.7749 88.5287 79.0602C88.2965 78.3456 88.0642 77.7649 87.8944 77.2736L87.5103 76.1837C87.421 75.9336 87.3853 75.7996 87.3853 75.7996C87.4514 75.917 87.5081 76.0395 87.555 76.1658C87.6562 76.4219 87.7992 76.7793 87.9838 77.2378C88.1625 77.7202 88.4126 78.3009 88.6627 79.0245C88.9129 79.7481 89.1719 80.5521 89.4846 81.4633C90.0653 83.3125 90.6995 85.6084 91.3338 88.2884C91.9681 90.9684 92.5577 94.0594 93.0133 97.4987C93.5291 101.252 93.8452 105.03 93.9602 108.817C94.0227 110.854 93.9602 112.971 93.8441 115.142C93.7693 116.25 93.6382 117.353 93.451 118.447C93.3619 119.007 93.2426 119.562 93.0937 120.109C92.9608 120.681 92.7472 121.232 92.4594 121.744C91.1512 123.782 89.1638 125.292 86.8492 126.005C84.5123 126.841 82.0409 127.238 79.5596 127.175C78.2645 127.172 76.983 126.91 75.7897 126.407C75.4904 126.252 75.2139 126.057 74.9679 125.826C74.7267 125.612 74.4855 125.407 74.2532 125.183L72.8417 123.87L67.1869 118.439C60.6388 112.078 54.4033 105.932 48.7127 100.322L48.543 100.152L48.7306 100L59.6025 90.8165L59.7186 90.7183L59.8437 90.8076L75.1287 101.528L74.8964 101.68L72.6899 88.6904C72.4487 87.1896 72.2521 86.0104 72.1181 85.2153C72.0645 84.8312 72.0199 84.5364 71.9841 84.322C71.9484 84.1076 71.9216 84.0361 71.9216 84.0361Z" fill="#263238"/>
<path d="M26.326 86.4929C26.4779 86.4929 25.8168 89.8607 24.7448 93.9076C24.2267 95.8372 23.7532 97.5881 23.3601 99.071C23.2053 99.7964 22.9902 100.508 22.7169 101.197C22.5651 101.197 23.2261 97.8293 24.2981 93.7914C24.8163 91.8529 25.2897 90.1019 25.6828 88.619C25.8394 87.8941 26.0545 87.183 26.326 86.4929Z" fill="#263238"/>
<path d="M13.8825 108.63C13.9501 108.551 14.0248 108.48 14.1058 108.415L14.7937 107.835L17.4737 105.628L27.4433 97.4898L27.5416 97.4094L27.6398 97.4809L38.4313 105.923L38.5832 106.039L38.4671 106.191L35.3315 110.452L22.1994 125.398C20.2506 127.263 18.0158 128.804 15.5798 129.963C13.5757 130.984 11.3267 131.426 9.08523 131.24C8.53434 131.173 7.99224 131.048 7.46829 130.865C6.94928 130.663 6.45957 130.393 6.01216 130.061C5.15145 129.419 4.36093 128.689 3.65375 127.881C2.23417 126.345 1.11326 124.557 0.348401 122.61C0.261092 122.363 0.192416 122.109 0.142937 121.851C0.142937 121.601 0.0893353 121.342 0.0714686 121.092L0 120.332C0 120.082 0 119.832 0 119.582C0.0355367 118.6 0.131003 117.622 0.285867 116.652C0.928341 113.054 1.7966 109.501 2.88548 106.012C3.86815 102.725 4.85975 99.6964 5.75309 96.927C7.53976 91.3883 9.0227 86.9127 9.96964 83.795C10.452 82.2406 10.8094 81.0256 11.0416 80.2216C11.1578 79.8286 11.256 79.5159 11.3275 79.3283C11.3535 79.221 11.3894 79.1163 11.4347 79.0156C11.4222 79.1272 11.4013 79.2377 11.3722 79.3462C11.3096 79.5784 11.2292 79.8911 11.131 80.2931C10.9255 81.1239 10.595 82.3478 10.1394 83.9111C9.24603 87.0378 7.83456 91.5402 6.06576 97.0878C5.17242 99.8572 4.21655 102.895 3.25174 106.182C2.18541 109.658 1.33512 113.196 0.705737 116.777C0.554689 117.729 0.462206 118.69 0.428805 119.653C0.428805 119.895 0.428805 120.145 0.428805 120.386L0.491338 121.11C0.491338 121.351 0.491339 121.601 0.562806 121.842C0.612794 122.078 0.675418 122.31 0.750406 122.539C1.50734 124.421 2.60009 126.149 3.97535 127.64C5.36896 129.141 6.96803 130.713 9.1299 130.847C11.288 131.018 13.4516 130.592 15.3833 129.614C17.7712 128.479 19.9634 126.971 21.8778 125.148L34.9831 110.238L38.1455 105.985V106.253L27.4254 97.7578H27.622L17.5898 105.798L14.9098 107.942L14.1951 108.487C13.9718 108.576 13.8914 108.639 13.8825 108.63Z" fill="#263238"/>
<path d="M86.3487 110.381C84.7707 108.552 83.0403 106.861 81.1763 105.324C79.218 103.913 77.1441 102.67 74.9766 101.608C75.6853 101.737 76.3715 101.969 77.0134 102.296C80.1899 103.699 82.9836 105.844 85.1606 108.549C85.6449 109.098 86.0453 109.715 86.3487 110.381Z" fill="#263238"/>
<path d="M28.4454 98.5261L28.2667 92.0315L24.2109 86.2516L25.8279 78.2116C25.8279 78.2116 27.6146 77.8543 27.427 79.4623C27.2394 81.0703 27.2751 85.0546 27.2751 85.0546L28.5079 86.4928L29.294 78.5511L33.4302 74.5132C33.7943 74.9535 34.0173 75.4933 34.0699 76.0623C34.1225 76.6312 34.0023 77.2028 33.725 77.7024C33.296 78.654 32.7101 79.5267 31.9919 80.2841L31.706 85.269L32.9299 85.4298L33.5195 80.8291L39.5942 74.7187C39.5942 74.7187 40.1123 75.2457 39.2726 77.2468C38.6849 78.5821 37.9731 79.8592 37.1465 81.0613L37.9415 89.691L39.5317 90.7094L40.6305 89.4498L43.9805 84.2684C44.2115 84.2342 44.4474 84.2635 44.6631 84.3532C44.8787 84.4429 45.0658 84.5897 45.2044 84.7776C45.5885 85.4119 43.2926 89.6731 43.0693 90.4592C42.8459 91.2454 44.8559 96.7662 43.4266 99.2675L37.3251 105.405L28.4454 98.5261Z" fill="#FFBE9D"/>
<path d="M36.9745 67.5541L33.5352 94.4792L48.847 96.4446L52.2416 69.9393L36.9745 67.5541Z" fill="#263238"/>
<path d="M51.5612 75.2725C51.5612 75.2725 54.0178 75.5852 54.0178 77.4523C54.0178 79.3193 53.9106 80.1323 55.2774 82.1691C56.6442 84.2059 58.1718 86.0462 58.02 89.9947L58.1272 92.0136L50.2748 98.4635C50.2748 98.4635 38.8847 96.7751 37.5268 96.1319C36.5637 95.6197 35.689 94.9561 34.9362 94.1666L33.9446 89.1371C33.9446 89.1371 34.6771 88.1187 35.5258 89.6552C36.2311 90.8438 37.0318 91.9731 37.9199 93.0321L41.2967 93.8093L43.003 93.2107L37.0355 89.6374C37.0355 89.6374 32.7654 86.5196 32.8368 85.9479C32.9523 85.3151 33.1014 84.6888 33.2835 84.0719C33.0963 83.7215 33.0052 83.3279 33.0193 82.931C33.0334 82.534 33.1523 82.1479 33.3639 81.8117C34.1054 80.6147 36.2404 82.178 36.2404 82.178C36.2404 82.178 42.9137 85.7514 43.9321 85.9658C44.7652 86.1383 45.6104 86.2458 46.4602 86.2874L36.9998 78.9977C36.9998 78.9977 37.1427 77.8543 39.1527 78.5779C41.1627 79.3015 47.0587 82.5086 48.1754 82.8838C48.995 83.0775 49.8563 82.9828 50.6142 82.6157L51.5612 75.2725Z" fill="#FFBE9D"/>
<path d="M51.561 75.2725C51.561 75.2725 51.561 75.4512 51.5164 75.7728C51.4717 76.0944 51.4181 76.5947 51.3556 77.2111C51.2037 78.4707 50.9893 80.302 50.7213 82.6336V82.6961H50.6677C50.2127 82.9042 49.727 83.037 49.2294 83.0892C48.6801 83.1448 48.1267 83.036 47.6393 82.7765C46.6298 82.3209 45.5757 81.7849 44.4501 81.2311C43.3245 80.6772 42.1274 80.0697 40.8767 79.4444C40.2382 79.1323 39.582 78.8579 38.9114 78.6225C38.5787 78.5067 38.2271 78.4551 37.8751 78.4707C37.7224 78.4719 37.5741 78.5219 37.4519 78.6136C37.3297 78.7052 37.2401 78.8336 37.1962 78.9799L37.1247 78.8191L46.612 86.0819L47.148 86.4928L46.478 86.4482C45.5749 86.4123 44.6775 86.2896 43.7979 86.0819C42.9324 85.7465 42.0855 85.3648 41.2609 84.9384C39.5903 84.1165 37.893 83.2322 36.1599 82.3209C35.8119 82.0716 35.4337 81.8675 35.0343 81.7135C34.673 81.5344 34.2555 81.5055 33.873 81.6331C33.5599 81.8927 33.361 82.2648 33.3191 82.6693C33.2548 83.0946 33.3267 83.5292 33.5246 83.9111L33.5782 84.0094V84.0897C33.4174 84.6704 33.2566 85.26 33.1494 85.8764C33.0779 85.9568 33.3638 86.2516 33.5514 86.4482C33.739 86.6447 33.998 86.868 34.2392 87.0735C35.1862 87.8954 36.2135 88.6726 37.2498 89.4408L41.7165 92.1208L43.2173 93.0142L43.6371 93.2643L43.1815 93.4341L41.4663 94.0326H41.4038H41.3413L37.9734 93.2554H37.893V93.1929C37.2158 92.3877 36.5864 91.5436 36.008 90.6647C35.7132 90.2448 35.472 89.7714 35.1951 89.3783C35.0833 89.2154 34.9143 89.1006 34.7216 89.0567C34.6344 89.0533 34.5477 89.072 34.4696 89.111C34.3915 89.15 34.3246 89.2082 34.275 89.28V89.1103C34.6085 90.8136 34.936 92.4901 35.2576 94.1398L35.204 94.0326C35.6953 94.5438 36.2336 95.0074 36.8121 95.4173C37.0972 95.6135 37.3957 95.7896 37.7054 95.9443C38.0227 96.065 38.3481 96.1635 38.6791 96.2391C40.037 96.5607 41.3591 96.8019 42.7349 97.0431C45.4149 97.5077 47.9698 97.9365 50.4176 98.2938L50.2657 98.3385L58.136 91.9064L58.0824 92.0405C58.0824 91.3079 58.0109 90.6558 57.9752 90.0215C58.0491 88.7755 57.9008 87.5262 57.5375 86.332C57.181 85.277 56.6756 84.2783 56.0366 83.3661C55.4637 82.5713 54.9501 81.7352 54.5001 80.8648C54.1686 80.0991 54.0129 79.2688 54.0445 78.4349C54.145 77.8031 54.0645 77.1558 53.8123 76.5679C53.5595 76.1736 53.1959 75.8628 52.767 75.6745C52.4177 75.5121 52.0525 75.3864 51.6772 75.2993C52.0706 75.325 52.4556 75.425 52.8117 75.5941C53.2657 75.7722 53.655 76.0836 53.9284 76.4875C54.0952 76.7563 54.1877 77.0645 54.1964 77.3808C54.1964 77.7113 54.1964 78.0508 54.1964 78.4171C54.1723 79.2242 54.3375 80.0258 54.6788 80.7576C55.1291 81.6155 55.6459 82.4369 56.2243 83.2143C56.8875 84.1373 57.4141 85.1513 57.7876 86.2248C58.1705 87.4521 58.3338 88.7374 58.27 90.0215C58.27 90.6647 58.3415 91.3169 58.3861 92.0405V92.0762L58.3236 92.1298L50.498 98.6065L50.4265 98.6601H50.3461C47.8894 98.2938 45.3166 97.8918 42.6455 97.4362C41.3055 97.195 39.9655 96.9538 38.563 96.6411C38.2036 96.5583 37.8512 96.4478 37.5089 96.3106C37.1747 96.1541 36.8549 95.9688 36.553 95.7567C35.9505 95.3295 35.3884 94.848 34.8735 94.3184V94.2559C34.5519 92.6033 34.2214 90.9327 33.8819 89.2264V89.1192L33.9355 89.0478C34.0332 88.9048 34.1679 88.791 34.3253 88.7186C34.4826 88.6462 34.6567 88.618 34.8288 88.6368C34.9838 88.6619 35.1323 88.7174 35.2657 88.8002C35.3991 88.883 35.5148 88.9915 35.606 89.1192C35.9544 89.5838 36.151 90.0126 36.4458 90.4503C37.0204 91.3078 37.6407 92.1339 38.3039 92.9248L38.1789 92.8534L41.5557 93.6306H41.4217L43.1369 93.0321L43.0922 93.443L41.5914 92.5496L37.1247 89.8696C36.0706 89.0924 35.0522 88.3063 34.0784 87.4755C33.8372 87.2611 33.605 87.0556 33.3727 86.8234C33.1404 86.5911 33.1494 86.5822 33.0422 86.4571C32.9864 86.3801 32.9357 86.2995 32.8903 86.2159C32.8629 86.1441 32.8449 86.069 32.8367 85.9926C32.8305 85.9481 32.8305 85.903 32.8367 85.8586C32.9485 85.2552 33.0947 84.6586 33.2744 84.0719V84.2506C33.0241 83.7766 32.9303 83.2356 33.0064 82.7051C33 82.4322 33.0677 82.1627 33.2022 81.9252C33.3368 81.6877 33.5332 81.4912 33.7705 81.3565C34.0079 81.2217 34.2774 81.1539 34.5503 81.1601C34.8231 81.1663 35.0892 81.2464 35.3202 81.3919C35.7565 81.5649 36.1704 81.7899 36.553 82.0619C38.2771 82.9552 39.9745 83.8485 41.6361 84.6883C42.4669 85.0903 43.2977 85.5191 44.1017 85.8139C44.9488 86.0143 45.8135 86.131 46.6834 86.1623L46.5494 86.5286L37.1069 79.2211L37.0175 79.1585V79.0603C37.0735 78.8369 37.2004 78.6378 37.3792 78.4928C37.558 78.3479 37.7791 78.2648 38.0091 78.2563C38.4064 78.2385 38.8035 78.2961 39.1794 78.426C39.8633 78.6845 40.5314 78.9828 41.1805 79.3193C42.4579 79.9268 43.6461 80.5343 44.7538 81.106C45.8616 81.6777 46.9246 82.2227 47.9162 82.6783C48.3606 82.8922 48.8488 82.9996 49.3419 82.9919C49.8351 82.9841 50.3196 82.8614 50.757 82.6336L50.6945 82.714L51.4628 77.2379C51.5432 76.6393 51.6146 76.1748 51.6682 75.8353C51.6111 75.6524 51.5752 75.4636 51.561 75.2725Z" fill="#EB996E"/>
<path d="M44.7506 90.2895C44.1138 90.1843 43.4946 89.9919 42.9103 89.7178C41.4735 89.1385 40.0716 88.4764 38.7116 87.7346C37.3505 87.0018 36.0349 86.1874 34.772 85.2958C34.221 84.9619 33.7214 84.5496 33.2891 84.0719C33.8741 84.3329 34.4309 84.6532 34.9507 85.0278C35.9512 85.6442 37.3537 86.475 38.9349 87.3326C40.5162 88.1902 41.9723 88.9138 43.0354 89.4141C43.6327 89.6528 44.2068 89.9459 44.7506 90.2895Z" fill="#EB996E"/>
<path d="M45.8031 93.2732C45.8567 93.3894 45.4726 93.6395 44.9634 93.5412C44.4542 93.443 44.1773 93.0767 44.2666 92.9874C44.3559 92.898 44.6597 92.9874 45.0438 93.0946C45.4279 93.2018 45.7585 93.1482 45.8031 93.2732Z" fill="#EB996E"/>
<path d="M47.9913 90.4414C48.0985 90.5039 47.7947 91.0131 47.0979 91.1025C46.4011 91.1918 46.0081 90.7987 46.0885 90.7005C46.1689 90.6022 46.553 90.7005 47.0265 90.6469C47.4999 90.5933 47.8841 90.3521 47.9913 90.4414Z" fill="#EB996E"/>
<path d="M50.6732 86.5196C50.7714 86.6 50.5034 86.9931 49.9764 87.0556C49.4493 87.1182 49.083 86.8144 49.1634 86.7162C49.2438 86.6179 49.5476 86.6626 49.9228 86.6C50.298 86.5375 50.5481 86.4214 50.6732 86.5196Z" fill="#EB996E"/>
<path d="M53.0225 82.4371C53.0225 82.5621 52.4061 82.6693 51.6467 82.7587C50.8874 82.848 50.262 82.8837 50.2352 82.7587C50.2084 82.6336 50.807 82.3924 51.5931 82.3031C52.3793 82.2137 53.0225 82.312 53.0225 82.4371Z" fill="#EB996E"/>
</svg>
