<svg width="400" height="406" viewBox="0 0 400 406" fill="none" xmlns="http://www.w3.org/2000/svg">
<path d="M29.3756 311.072C25.9071 308.905 21.9882 307.561 17.9196 307.144C16.0476 306.952 13.9996 307 12.5036 308.136C12.33 308.236 12.1865 308.381 12.088 308.555C11.9895 308.73 11.9397 308.928 11.9436 309.128C12.0291 309.41 12.2175 309.65 12.4716 309.8C17.1356 313.36 24.1836 313.8 29.3756 311.088" fill="#E0E0E0"/>
<path d="M29.0806 310.744C26.4281 308.794 23.9519 306.615 21.6806 304.232C19.4045 301.833 17.8037 298.874 17.0406 295.656C16.8917 295.179 16.8475 294.675 16.911 294.18C16.9745 293.684 17.1442 293.208 17.4086 292.784C23.3046 297.392 27.9366 303.352 29.0806 310.744Z" fill="#E0E0E0"/>
<path d="M29.3114 311.024C28.7681 307.805 28.8141 304.514 29.4474 301.312C30.1122 298.092 31.9588 295.238 34.6234 293.312C35.6394 295.712 35.2074 298.44 34.4874 300.928C33.3745 304.782 31.6426 308.43 29.3594 311.728" fill="#E0E0E0"/>
<path d="M35.0962 321.384C31.5842 321.808 28.5283 323.656 25.9043 326.032C23.2709 328.431 21.4388 331.581 20.6562 335.056C24.0963 334.84 27.0562 332.416 29.1362 329.688C31.2162 326.96 32.7203 323.984 35.0483 321.44" fill="#E0E0E0"/>
<path d="M36.3507 323.04C34.9669 319.532 34.4814 315.735 34.9382 311.992C35.3951 308.249 36.7798 304.68 38.9667 301.608C40.9987 308.744 40.1987 316.744 36.3507 323.04Z" fill="#E0E0E0"/>
<path d="M43.9918 332.136C40.7832 331.936 37.5868 332.685 34.8003 334.288C32.0138 335.891 29.7601 338.278 28.3198 341.152C28.1954 341.33 28.1203 341.538 28.102 341.754C28.0838 341.97 28.123 342.188 28.2158 342.384C28.3513 342.515 28.5168 342.612 28.6981 342.665C28.8793 342.718 29.0708 342.726 29.2558 342.688C32.3438 342.488 35.0798 340.632 37.3358 338.512C39.5918 336.392 41.5598 333.96 44.0558 332.112" fill="#E0E0E0"/>
<path d="M43.7432 331.64C42.1011 326.346 42.0012 320.693 43.4552 315.344C44.0312 313.248 44.9912 311.032 46.9352 310.056C47.0114 310.004 47.0979 309.968 47.1889 309.952C47.2799 309.935 47.3734 309.938 47.4632 309.96C47.6224 310.041 47.7431 310.182 47.7992 310.352C48.4438 311.82 48.7185 313.425 48.5992 315.024C48.4816 316.62 48.2355 318.204 47.8632 319.76C47.2552 322.648 46.9272 325.76 45.3432 328.256C44.9683 328.855 44.6316 329.478 44.3352 330.12C44.0312 330.752 44.0312 330.976 43.7512 331.48" fill="#E0E0E0"/>
<path d="M63.9676 334.656C62.4716 328.952 64.0556 322.048 67.6476 317.376C67.9116 317.032 68.2636 316.664 68.6956 316.704C69.3596 316.76 69.4956 317.648 69.4956 318.304C69.2259 324.163 67.31 329.828 63.9676 334.648" fill="#E0E0E0"/>
<path d="M65.7996 335.896C69.3358 336.732 73.0113 336.789 76.5721 336.066C80.1329 335.342 83.4941 333.854 86.4236 331.704C82.9619 329.963 79.0026 329.479 75.2236 330.336C71.4956 331.184 68.0876 332.856 65.7676 335.896" fill="#E0E0E0"/>
<path d="M67.3281 332.104C71.2081 325.784 78.6401 321.656 86.0481 321.28C85.1921 324.296 82.7121 326.632 79.9201 328.048C77.1281 329.464 74.0081 330.08 70.9361 330.68C69.7441 330.912 68.1041 331.168 67.3281 332.104Z" fill="#E0E0E0"/>
<path d="M64.3524 313.696C65.5272 310.132 66.3314 306.457 66.7524 302.728C67.0404 298.992 66.5124 295.096 64.5684 291.888C60.9524 298.896 60.5684 307.088 64.2484 314.072" fill="#E0E0E0"/>
<path d="M76.5449 307.528C80.7849 299.832 89.4249 293.68 98.1449 292.824C94.7689 301.224 85.5689 307.712 76.5449 307.528Z" fill="#E0E0E0"/>
<path d="M73.8809 309.04C80.2009 310 85.5769 314.032 91.4809 316.48C92.723 317.084 94.1037 317.346 95.4809 317.24C96.1173 317.232 96.736 317.029 97.2536 316.659C97.7712 316.289 98.1627 315.768 98.3755 315.168C98.5882 314.569 98.6119 313.918 98.4434 313.304C98.2748 312.69 97.9221 312.143 97.4329 311.736C96.5939 310.963 95.6095 310.365 94.5369 309.976C88.1369 307.304 81.2169 307.24 74.4409 308.856" fill="#E0E0E0"/>
<path d="M70.2232 313.472C71.6552 313.88 72.1432 314.616 73.2792 315.584C77.1327 318.864 81.6909 321.21 86.5992 322.44C87.1112 322.568 87.7752 322.616 88.0312 322.16C88.2872 321.704 87.9752 321.264 87.6872 320.912C85.5399 318.396 82.7542 316.506 79.6232 315.44C76.5432 314.288 73.8792 312.912 70.1992 313.208" fill="#E0E0E0"/>
<path d="M66.1035 286.712C68.6926 289.099 71.7526 290.918 75.0869 292.052C78.4211 293.186 81.9558 293.61 85.4635 293.296C85.7878 293.305 86.1039 293.194 86.3515 292.984C86.8395 292.456 86.2475 291.632 85.6795 291.192C79.9915 286.752 73.0955 284.912 66.1035 286.712Z" fill="#E0E0E0"/>
<path d="M70.9922 284.92C74.42 282.395 78.3962 280.717 82.5964 280.021C86.7966 279.326 91.1017 279.634 95.1602 280.92C91.9953 283.849 87.9383 285.629 83.6402 285.976C79.3939 286.361 75.1131 285.998 70.9922 284.904" fill="#E0E0E0"/>
<path d="M69.0477 272.624C68.4877 266.944 68.8477 262.456 68.4557 256.744C68.4557 256.288 68.3277 255.744 67.9037 255.576C67.3037 255.344 66.8077 256.08 66.6157 256.688C65.7835 259.331 65.5672 262.13 65.9832 264.87C66.3992 267.61 67.4365 270.219 69.0157 272.496" fill="#E0E0E0"/>
<path d="M68.6406 273.256C72.3521 270.856 75.5522 267.746 78.0566 264.104C79.9126 261.56 81.4806 258.504 81.0566 255.392C79.7478 255.426 78.4621 255.745 77.2891 256.327C76.1161 256.908 75.0839 257.739 74.2646 258.76C72.6427 260.818 71.4658 263.191 70.8086 265.728C70.0086 268.224 69.5206 270.792 68.6406 273.256Z" fill="#E0E0E0"/>
<path d="M77.8888 270.68C86.375 267.549 94.2323 262.924 101.089 257.024C98.3208 255.904 95.1528 256.576 92.3848 257.688C86.104 260.07 80.9149 264.672 77.8008 270.624" fill="#E0E0E0"/>
<path d="M71.2408 276.36C75.5208 276.832 79.8648 277.16 84.1048 276.424C88.3448 275.688 92.2168 274.072 96.1048 272.424C96.4399 272.327 96.7258 272.107 96.9048 271.808C96.9659 271.627 96.9711 271.432 96.9198 271.248C96.8684 271.064 96.7628 270.899 96.6168 270.776C96.3154 270.542 95.9655 270.378 95.5928 270.296C91.3528 269.112 86.7928 269.672 82.6088 271.096C78.6388 272.457 74.821 274.226 71.2168 276.376" fill="#E0E0E0"/>
<path d="M46.8168 286.904C43.9048 281.016 44.0888 274.144 46.6088 268.072C48.3848 270.776 48.6008 274.216 48.2808 277.432C47.9608 280.648 46.9768 283.968 46.9128 287.2" fill="#E0E0E0"/>
<path d="M35.1606 281.024C31.5075 280.979 27.885 281.695 24.5242 283.128C21.1633 284.56 18.1378 286.677 15.6406 289.344C19.3221 289.784 23.0502 289.092 26.3286 287.36C29.5819 285.633 32.6511 283.58 35.4886 281.232" fill="#E0E0E0"/>
<path d="M27.328 278.408C23.76 278.12 20.328 277.672 16.928 278.728C15.2014 279.216 13.5999 280.069 12.232 281.229C10.8641 282.39 9.76185 283.832 9 285.456C12.362 285.729 15.7357 285.093 18.768 283.616C21.7839 282.139 24.6619 280.396 27.368 278.408" fill="#E0E0E0"/>
<path d="M38.9272 278.528C35.7272 276.424 32.4312 274.288 28.6952 273.416C24.9592 272.544 20.6392 273.184 18.0312 276C21.0552 277.776 24.7192 277.984 28.2232 277.984C31.7272 277.984 36.0232 277.936 39.3272 279.104" fill="#E0E0E0"/>
<path d="M38.9436 278.696C33.4636 273.312 31.3916 263.64 33.5916 256.296C37.9203 262.916 39.8124 270.835 38.9436 278.696Z" fill="#E0E0E0"/>
<path d="M54.0156 263.448C55.0556 261.048 55.7836 258.52 56.7036 256.072C57.5474 253.588 58.85 251.284 60.5436 249.28C62.2541 247.26 64.6914 245.996 67.3276 245.76C66.4868 249.468 64.8805 252.96 62.6115 256.012C60.3425 259.063 57.461 261.607 54.1516 263.48" fill="#E0E0E0"/>
<path d="M51.2873 266.624C49.5833 264.224 47.6073 261.072 45.2873 259.312C42.9673 257.552 39.9433 256.496 37.1113 257.168C38.5779 259.737 40.6224 261.928 43.083 263.57C45.5435 265.211 48.3525 266.257 51.2873 266.624Z" fill="#E0E0E0"/>
<path d="M51.8407 263.64C50.6096 260.832 49.7024 257.893 49.1367 254.88C48.5679 251.843 49.0504 248.702 50.5047 245.976C53.5127 251.664 54.5047 257.768 51.9927 263.704" fill="#E0E0E0"/>
<path d="M54.0471 245.976C55.7511 240.376 60.9111 236.192 66.4871 234.288C67.1784 234.006 67.9273 233.893 68.6711 233.96C69.0384 234.004 69.3851 234.154 69.6691 234.391C69.9531 234.628 70.1622 234.942 70.2711 235.296C70.4711 236.256 69.6791 237.12 68.9351 237.752C64.5772 241.473 59.5096 244.271 54.0391 245.976" fill="#E0E0E0"/>
<path d="M54.1122 241.368C54.3282 237.736 54.5522 234.048 55.7122 230.6C56.8722 227.152 59.1682 223.928 62.4882 222.416C63.0482 226.088 61.4322 229.744 59.4802 232.904C57.5282 236.064 55.1682 239.04 53.9922 242.568" fill="#E0E0E0"/>
<path d="M54.0152 243.872C52.6072 239.76 52.4632 234.544 50.0152 230.96C48.2952 228.464 45.5352 226.752 44.0552 224.104C43.1627 226.646 43.2859 229.435 44.3992 231.888C45.521 234.312 47.062 236.519 48.9512 238.408C50.7752 240.352 52.3352 241.816 54.0232 243.872" fill="#E0E0E0"/>
<path d="M54.0485 364.88C53.9365 364.88 53.8405 337.464 53.8325 303.664C53.8245 269.864 53.9125 242.44 54.0165 242.44C54.1205 242.44 54.2245 269.848 54.2325 303.664C54.2405 337.48 54.1605 364.88 54.0485 364.88Z" fill="#E0E0E0"/>
<path d="M78.0005 282.768C77.6785 282.922 77.344 283.047 77.0005 283.144L74.1685 284.104C71.7685 284.904 68.4885 286.096 64.9205 287.56C61.3525 289.024 58.0325 290.344 56.1365 291.944C55.3825 292.578 54.781 293.374 54.3765 294.272C54.1045 294.92 54.0565 295.312 54.0165 295.304C54.0023 295.209 54.0023 295.112 54.0165 295.016C54.0599 294.744 54.1268 294.476 54.2165 294.216C54.578 293.261 55.1687 292.409 55.9365 291.736C57.083 290.771 58.3629 289.976 59.7365 289.376C61.2565 288.672 62.9365 287.928 64.7285 287.192C68.3045 285.728 71.6165 284.584 74.0325 283.84C75.2405 283.464 76.2245 283.184 76.9125 283C77.2678 282.891 77.6318 282.814 78.0005 282.768Z" fill="#E0E0E0"/>
<path d="M85.8565 263.48C85.7738 263.596 85.6771 263.7 85.5685 263.792C85.3285 264.008 85.0405 264.28 84.6885 264.592L81.4005 267.576L70.4725 277.328C66.2085 281.128 62.5205 284.76 59.9605 287.488C58.6805 288.856 57.6805 289.984 56.9925 290.776C56.6645 291.136 56.4085 291.44 56.1925 291.68C55.9765 291.92 55.9125 291.992 55.8965 291.984C55.9633 291.858 56.0438 291.74 56.1365 291.632C56.2965 291.408 56.5445 291.08 56.8725 290.672C57.5205 289.872 58.4725 288.696 59.7605 287.296C63.0607 283.694 66.5482 280.268 70.2085 277.032C74.4885 273.248 78.3845 269.832 81.2165 267.392L84.5845 264.504L85.5125 263.704C85.6183 263.617 85.7337 263.541 85.8565 263.48Z" fill="#E0E0E0"/>
<path d="M65.8648 281.192C65.7528 281.144 66.6648 279.088 67.5368 276.48C68.4088 273.872 68.8488 271.68 68.9688 271.68C68.8745 273.36 68.5182 275.014 67.9128 276.584C67.5369 277.727 67.0989 278.849 66.6008 279.944C66.4166 280.393 66.1687 280.813 65.8648 281.192Z" fill="#E0E0E0"/>
<path d="M54.0716 297.784C53.8265 297.555 53.6066 297.3 53.4156 297.024L51.7276 294.864C50.3116 293.032 48.3596 290.512 46.1676 287.744C43.9756 284.976 41.9596 282.504 40.4956 280.744L38.7756 278.616C38.5555 278.367 38.3574 278.099 38.1836 277.816C38.4436 278.029 38.6821 278.268 38.8956 278.528C39.3356 279.008 39.9596 279.704 40.7116 280.584C42.2316 282.328 44.2796 284.784 46.4796 287.544C48.6796 290.304 50.5916 292.872 51.9516 294.744C52.6316 295.68 53.1756 296.44 53.5516 296.976C53.7523 297.227 53.9266 297.497 54.0716 297.784Z" fill="#E0E0E0"/>
<path d="M48.8155 291.04C47.7503 289.869 46.9893 288.454 46.5995 286.92C46.1911 285.576 46.0232 284.17 46.1035 282.768H46.2795C46.1995 283.088 46.1435 283.248 46.1115 283.248C46.1115 283.248 46.1115 283.064 46.1115 282.736H46.2875C46.3747 284.104 46.6108 285.459 46.9915 286.776C47.4921 288.241 48.1018 289.666 48.8155 291.04Z" fill="#E0E0E0"/>
<path d="M42.0398 282.512C41.5648 282.154 41.0492 281.853 40.5038 281.616C39.1211 281.21 37.669 281.095 36.2398 281.28C34.7909 281.392 33.3538 281.624 31.9438 281.976C31.3641 282.155 30.7736 282.297 30.1758 282.4C30.7004 282.085 31.2694 281.85 31.8638 281.704C33.2768 281.274 34.7341 281.005 36.2078 280.904C37.6911 280.705 39.2005 280.867 40.6078 281.376C41.2006 281.58 41.7058 281.981 42.0398 282.512Z" fill="#E0E0E0"/>
<path d="M40.432 280.448C40.432 280.504 39.5359 280.088 38.0799 279.584C36.1779 278.932 34.2032 278.516 32.2 278.344C30.1977 278.198 28.1851 278.3 26.208 278.648C24.688 278.92 23.808 279.208 23.752 279.144C23.9442 279.021 24.1548 278.929 24.376 278.872C24.9576 278.672 25.5507 278.506 26.152 278.376C30.1557 277.501 34.3283 277.821 38.1519 279.296C38.7282 279.512 39.2894 279.766 39.832 280.056C40.051 280.155 40.2535 280.287 40.432 280.448Z" fill="#E0E0E0"/>
<path d="M54.0168 271.704C53.3216 269.755 52.7498 267.765 52.3048 265.744C51.7346 263.752 51.2884 261.727 50.9688 259.68C51.6733 261.626 52.2479 263.617 52.6888 265.64C53.2634 267.63 53.707 269.656 54.0168 271.704Z" fill="#E0E0E0"/>
<path d="M54.1284 271.704C53.5714 270.47 52.9271 269.278 52.2004 268.136C51.3938 267.056 50.4529 266.083 49.4004 265.24C49.7983 265.342 50.1676 265.534 50.4804 265.8C51.289 266.39 51.9899 267.116 52.5524 267.944C53.3955 269.039 53.9387 270.335 54.1284 271.704Z" fill="#E0E0E0"/>
<path d="M54.0475 350.264C54.0475 350.264 53.9195 349.608 53.6155 348.44C53.161 346.803 52.5474 345.214 51.7835 343.696C49.8875 339.824 46.4395 334.896 42.0635 330.008C39.8955 327.528 37.7915 325.208 35.9995 322.952C34.4001 320.978 32.9508 318.887 31.6635 316.696C30.8043 315.215 30.0737 313.662 29.4795 312.056C29.2795 311.488 29.1275 311.04 29.0475 310.728C28.9944 310.575 28.9568 310.417 28.9355 310.256C28.9355 310.256 29.1755 310.888 29.6235 312C30.267 313.574 31.032 315.096 31.9115 316.552C33.2184 318.712 34.6809 320.773 36.2875 322.72C38.0795 324.936 40.1915 327.264 42.3595 329.744C46.7515 334.672 50.1915 339.64 52.0315 343.576C52.7803 345.109 53.3623 346.718 53.7675 348.376C53.8875 348.968 53.9755 349.432 54.0075 349.752C54.0432 349.92 54.0566 350.092 54.0475 350.264Z" fill="#E0E0E0"/>
<path d="M75.6949 325.816C75.3294 326.052 74.95 326.266 74.5589 326.456C73.5331 327.034 72.5493 327.684 71.6149 328.4C70.2363 329.479 68.9444 330.664 67.7509 331.944C66.3909 333.376 64.9989 335.04 63.5669 336.816C60.7189 340.4 58.0549 343.56 56.4549 346.088C55.6549 347.344 55.0549 348.4 54.6709 349.144C54.4857 349.535 54.2773 349.914 54.0469 350.28C54.0469 350.28 54.0469 350.168 54.1509 349.96C54.2549 349.752 54.3509 349.448 54.5349 349.072C55.022 347.987 55.5778 346.934 56.1989 345.92C57.7429 343.336 60.3909 340.128 63.2389 336.552C64.6629 334.768 66.0789 333.104 67.4629 331.672C68.6946 330.395 70.0328 329.226 71.4629 328.176C72.4195 327.469 73.4368 326.848 74.5029 326.32C74.8789 326.128 75.1829 326.016 75.3909 325.928C75.4862 325.876 75.5886 325.838 75.6949 325.816Z" fill="#E0E0E0"/>
<path d="M76.12 333.752C75.3292 333.924 74.5272 334.039 73.72 334.096C71.7939 334.296 69.89 334.671 68.032 335.216C66.1988 335.817 64.4791 336.72 62.944 337.888C61.768 338.8 61.216 339.544 61.16 339.488C61.104 339.432 61.256 339.272 61.512 338.936C61.8863 338.47 62.3042 338.042 62.76 337.656C64.2805 336.391 66.0294 335.43 67.912 334.824C69.7921 334.264 71.73 333.921 73.688 333.8C74.4954 333.707 75.3096 333.691 76.12 333.752Z" fill="#E0E0E0"/>
<path d="M61.8549 338.632C61.7349 338.56 62.8149 336.912 63.6469 334.688C64.4789 332.464 64.6229 330.488 64.7589 330.504C64.8392 330.93 64.8392 331.366 64.7589 331.792C64.6455 332.826 64.4119 333.844 64.0629 334.824C63.6777 335.803 63.1868 336.736 62.5989 337.608C62.4098 337.988 62.1583 338.335 61.8549 338.632Z" fill="#E0E0E0"/>
<path d="M82.7046 304.52C82.5868 304.607 82.4576 304.677 82.3206 304.728L81.1926 305.24C80.6966 305.448 80.0966 305.72 79.4246 306.04C78.7526 306.36 77.9606 306.752 77.1366 307.248L75.8246 307.992C75.3766 308.256 74.9206 308.56 74.4486 308.864C73.4806 309.448 72.5126 310.168 71.4886 310.904C69.2947 312.558 67.2276 314.374 65.3046 316.336C63.4086 318.338 61.6626 320.477 60.0806 322.736C59.3766 323.792 58.6886 324.784 58.1446 325.768C57.8566 326.256 57.5606 326.712 57.3446 327.176L56.6406 328.504C56.1766 329.344 55.8406 330.152 55.5206 330.84C55.2006 331.528 54.9366 332.136 54.7206 332.632C54.5046 333.128 54.3686 333.472 54.2486 333.776C54.2024 333.915 54.1378 334.046 54.0566 334.168C54.0727 334.024 54.1104 333.884 54.1686 333.752C54.2806 333.44 54.4086 333.056 54.5766 332.576C54.7446 332.096 54.9766 331.448 55.2886 330.752C55.6006 330.056 55.9206 329.232 56.3686 328.352L57.0486 327C57.2886 326.528 57.5766 326.064 57.8486 325.568C58.3926 324.568 59.0726 323.568 59.7686 322.496C61.3461 320.23 63.0981 318.09 65.0086 316.096C66.9486 314.12 69.0374 312.296 71.2566 310.64C72.3046 309.904 73.2806 309.192 74.2646 308.616C74.7446 308.32 75.2006 308.016 75.6646 307.76L76.9926 307.032C77.7926 306.552 78.5926 306.232 79.3206 305.872C80.0486 305.512 80.6166 305.288 81.1206 305.072L82.2806 304.632C82.4174 304.579 82.5596 304.542 82.7046 304.52Z" fill="#E0E0E0"/>
<path d="M65.5684 316C65.7329 315.448 66.0623 314.959 66.5124 314.6C67.5693 313.684 68.9142 313.169 70.3124 313.144C71.6857 313.141 73.0458 313.413 74.3124 313.944C74.8493 314.115 75.3587 314.363 75.8244 314.68C75.2775 314.573 74.7419 314.415 74.2244 314.208C72.9724 313.781 71.659 313.562 70.3364 313.56C69.0244 313.591 67.7558 314.036 66.7124 314.832C66.3044 315.194 65.9221 315.584 65.5684 316Z" fill="#E0E0E0"/>
<path d="M63.0078 318.64C63.5236 317.529 63.8869 316.353 64.0878 315.144C64.1669 313.92 64.0863 312.691 63.8478 311.488C64.0745 311.787 64.228 312.135 64.2958 312.504C64.5229 313.381 64.5853 314.292 64.4798 315.192C64.3805 316.091 64.1089 316.963 63.6798 317.76C63.3438 318.344 63.0478 318.672 63.0078 318.64Z" fill="#E0E0E0"/>
<path d="M35.1113 354.192C35.7033 364.672 38.8633 375.32 43.7193 386.096H64.8313C69.4633 375.432 72.3993 364.792 72.9193 354.192H35.1113Z" fill="#E0E0E0"/>
<path d="M69.5033 371.144C69.5033 371.256 62.5513 371.344 53.9753 371.344C45.3993 371.344 38.4473 371.256 38.4473 371.144C38.4473 371.032 45.3993 370.944 53.9753 370.944C62.5513 370.944 69.5033 371.032 69.5033 371.144Z" fill="#FAFAFA"/>
<path d="M69.0007 374.944C69.0007 375.048 62.4807 375.136 54.4407 375.136C46.4007 375.136 39.8887 375.048 39.8887 374.944C39.8887 374.84 46.4007 374.744 54.4407 374.744C62.4807 374.744 69.0007 374.832 69.0007 374.944Z" fill="#FAFAFA"/>
<path d="M44.0553 361.072C44.3219 364.309 44.3219 367.563 44.0553 370.8C43.7993 367.562 43.7993 364.31 44.0553 361.072Z" fill="#FAFAFA"/>
<path d="M55.401 361.072C55.6676 364.424 55.6676 367.792 55.401 371.144C55.145 367.792 55.145 364.424 55.401 361.072Z" fill="#FAFAFA"/>
<path d="M65.991 360.984C66.2577 364.405 66.2577 367.843 65.991 371.264C65.7244 367.843 65.7244 364.405 65.991 360.984Z" fill="#FAFAFA"/>
<path d="M72.256 361.072C72.256 361.184 64.096 361.272 54.04 361.272C43.984 361.272 35.832 361.184 35.832 361.072C35.832 360.96 43.984 360.872 54.04 360.872C64.096 360.872 72.256 360.96 72.256 361.072Z" fill="#FAFAFA"/>
<path d="M100.104 100.72H41.1836V162.136H100.104V100.72Z" fill="#E0E0E0"/>
<path d="M96.1114 100.72H37.1914V162.136H96.1114V100.72Z" fill="#FAFAFA"/>
<path d="M96.1278 162.16H37.1758V100.744H96.1278V162.16ZM37.2078 162.12H96.0958V100.744H37.2078V162.12Z" fill="#E0E0E0"/>
<path d="M88.1913 108.976H45.1113V153.88H88.1913V108.976Z" fill="#FAFAFA"/>
<path d="M45.1119 154.184C44.8038 154.633 44.4469 155.046 44.0479 155.416C43.3599 156.144 42.3919 157.128 41.3119 158.192C40.2319 159.256 39.2319 160.208 38.4959 160.888C38.1233 161.278 37.7073 161.625 37.2559 161.92C37.5576 161.471 37.9122 161.06 38.3119 160.696C38.9999 159.968 39.9679 158.984 41.0559 157.912C42.1439 156.84 43.1359 155.888 43.8719 155.216C44.2387 154.82 44.6556 154.473 45.1119 154.184Z" fill="#E0E0E0"/>
<path d="M88.1992 154.072C88.654 154.375 89.0704 154.733 89.4392 155.136C90.1592 155.824 91.1432 156.784 92.2152 157.872C93.2872 158.96 94.2312 159.952 94.9032 160.688C95.2971 161.059 95.6462 161.475 95.9432 161.928C95.4908 161.628 95.077 161.273 94.7112 160.872C93.9832 160.184 92.9992 159.216 91.9272 158.128C90.8552 157.04 89.9032 156.04 89.2312 155.312C88.8409 154.94 88.4947 154.523 88.1992 154.072Z" fill="#E0E0E0"/>
<path d="M88.0723 109.096C88.3787 108.644 88.7357 108.228 89.1363 107.856C89.8243 107.136 90.7923 106.152 91.8723 105.08C92.9523 104.008 93.9523 103.064 94.6883 102.392C95.059 101.994 95.4783 101.645 95.9363 101.352C95.6361 101.804 95.2815 102.218 94.8803 102.584C94.1923 103.312 93.2243 104.296 92.1363 105.368C91.0483 106.44 90.0483 107.392 89.3123 108.064C88.9418 108.456 88.5255 108.803 88.0723 109.096Z" fill="#E0E0E0"/>
<path d="M44.9997 109.208C44.551 108.9 44.1378 108.543 43.7677 108.144C43.0397 107.456 42.0557 106.488 40.9917 105.4C39.9277 104.312 38.9757 103.328 38.2957 102.592C37.9017 102.22 37.5551 101.801 37.2637 101.344C37.7124 101.646 38.1234 102 38.4877 102.4C39.2157 103.088 40.1997 104.056 41.2717 105.144C42.3437 106.232 43.2957 107.232 43.9677 107.968C44.3631 108.336 44.7099 108.752 44.9997 109.208Z" fill="#E0E0E0"/>
<path d="M88.0712 153.88C88.0712 153.88 88.0712 153.808 88.0712 153.664C88.0712 153.52 88.0712 153.304 88.0712 153.04C88.0712 152.472 88.0712 151.664 88.0712 150.64C88.0712 148.512 88.0712 145.416 88.0232 141.488C88.0232 133.616 87.9752 122.416 87.9432 109L88.1032 109.168H45.1512L45.3432 108.976C45.3432 125.456 45.3432 140.88 45.3432 153.88L45.1753 153.72L76.2792 153.8L85.0232 153.848H87.3352H88.1352C88.1352 153.848 88.0793 153.848 87.9512 153.848H87.3672H85.0872L76.3912 153.888L45.1913 153.976H45.0312V153.808C45.0312 140.808 45.0312 125.384 45.0312 108.904V108.712H45.2312H88.1833H88.3512V108.88C88.3512 122.336 88.2872 133.576 88.2712 141.472C88.2712 145.384 88.2712 148.464 88.2232 150.584C88.2232 151.624 88.2232 152.424 88.2232 152.984C88.2232 153.248 88.2232 153.448 88.2232 153.592C88.1961 153.699 88.144 153.797 88.0712 153.88Z" fill="#E0E0E0"/>
<path d="M73.8408 124.24H59.4648V138.616H73.8408V124.24Z" fill="#EBEBEB"/>
<path d="M154.08 42H104.984V93.184H154.08V42Z" fill="#E0E0E0"/>
<path d="M150.76 42H101.664V93.184H150.76V42Z" fill="#FAFAFA"/>
<path d="M150.776 93.2H101.648V42H150.776V93.2ZM101.672 93.2H150.744V42.016H101.672V93.2Z" fill="#E0E0E0"/>
<path d="M144.16 48.88H108.264V86.304H144.16V48.88Z" fill="#FAFAFA"/>
<path d="M108.263 86.552C108.003 86.9251 107.705 87.2708 107.375 87.584C106.799 88.184 105.991 89.008 105.095 89.896C104.199 90.784 103.359 91.576 102.743 92.136C102.437 92.4667 102.09 92.7571 101.711 93C101.962 92.6127 102.261 92.2581 102.599 91.944C103.175 91.344 103.975 90.52 104.887 89.624C105.799 88.728 106.623 87.944 107.231 87.376C107.541 87.0616 107.888 86.785 108.263 86.552Z" fill="#E0E0E0"/>
<path d="M144.199 86.456C144.575 86.7133 144.921 87.0111 145.231 87.344C145.831 87.92 146.655 88.72 147.543 89.624C148.431 90.528 149.223 91.36 149.783 91.968C150.113 92.2775 150.403 92.6268 150.647 93.008C150.272 92.757 149.928 92.4615 149.623 92.128C149.023 91.552 148.199 90.744 147.303 89.84C146.407 88.936 145.623 88.104 145.055 87.488C144.728 87.1809 144.441 86.8342 144.199 86.456Z" fill="#E0E0E0"/>
<path d="M144.064 48.984C144.312 48.6035 144.608 48.2566 144.944 47.952C145.52 47.344 146.328 46.528 147.232 45.64C148.136 44.752 149 43.944 149.576 43.392C149.885 43.0669 150.228 42.7771 150.6 42.528C150.352 42.9055 150.056 43.2496 149.72 43.552C149.152 44.16 148.344 44.976 147.432 45.872C146.52 46.768 145.696 47.56 145.088 48.12C144.778 48.4431 144.435 48.7326 144.064 48.984Z" fill="#E0E0E0"/>
<path d="M108.2 49.072C107.824 48.8186 107.48 48.5204 107.176 48.184C106.568 47.616 105.752 46.808 104.856 45.904C103.96 45 103.176 44.168 102.616 43.56C102.286 43.2505 101.996 42.9012 101.752 42.52C102.125 42.7742 102.469 43.0693 102.776 43.4C103.384 43.976 104.2 44.784 105.096 45.688C105.992 46.592 106.776 47.424 107.344 48.04C107.669 48.3492 107.956 48.6956 108.2 49.072Z" fill="#E0E0E0"/>
<path d="M144.064 86.344C144.056 86.283 144.056 86.2211 144.064 86.16C144.064 86.032 144.064 85.864 144.064 85.64C144.064 85.168 144.064 84.496 144.064 83.616C144.064 81.848 144.064 79.264 144.064 75.992C144.064 69.44 144.024 60.104 143.992 48.92L144.136 49.056H108.336L108.488 48.896C108.488 62.632 108.488 75.48 108.488 86.32L108.352 86.184L134.272 86.248H141.552H143.48H141.584H134.336L108.328 86.32H108.184V86.344C108.184 75.504 108.184 62.656 108.184 48.92V48.744H108.344H144.144H144.2V48.88C144.2 60.08 144.144 69.464 144.128 76.08C144.128 79.344 144.128 81.912 144.128 83.672C144.128 84.536 144.128 85.208 144.128 85.672C144.128 85.888 144.128 86.048 144.128 86.176C144.128 86.304 144.064 86.344 144.064 86.344Z" fill="#E0E0E0"/>
<path d="M132.201 61.6H120.225V73.576H132.201V61.6Z" fill="#EBEBEB"/>
<path d="M145.975 142.672L143.199 149.36C143.844 150.882 144.329 152.466 144.647 154.088C144.783 155.632 143.527 162.2 143.527 162.2C143.141 162.221 142.76 162.107 142.449 161.878C142.138 161.649 141.917 161.319 141.823 160.944C141.815 159.657 141.901 158.371 142.079 157.096C141.908 156.874 141.683 156.7 141.426 156.589C141.169 156.478 140.887 156.435 140.609 156.463C140.33 156.491 140.063 156.589 139.833 156.749C139.603 156.909 139.418 157.125 139.295 157.376C138.495 158.976 137.583 160.864 137.423 161.08C137.263 161.296 137.535 163.736 137.791 165.528C137.831 165.769 137.791 166.017 137.675 166.233C137.56 166.449 137.376 166.62 137.152 166.72C136.929 166.82 136.678 166.843 136.441 166.785C136.203 166.727 135.991 166.591 135.839 166.4C135.771 166.321 135.729 166.223 135.719 166.12C135.719 166.12 134.671 167.656 133.639 164.832C133.639 164.832 131.559 163.776 131.511 162.048C131.511 162.048 129.615 159.92 129.359 158.648C129.103 157.376 133.447 149.688 133.447 149.688L138.791 138.648L145.975 142.672Z" fill="#FFBE9D"/>
<path d="M136.67 156.424C136.293 156.773 135.974 157.181 135.726 157.632C135.005 158.661 134.537 159.845 134.358 161.088C134.285 162.346 134.536 163.602 135.086 164.736C135.256 165.22 135.502 165.673 135.814 166.08C135.703 165.583 135.545 165.099 135.342 164.632C134.893 163.521 134.691 162.325 134.75 161.128C134.935 159.943 135.348 158.804 135.966 157.776C136.248 157.351 136.484 156.898 136.67 156.424Z" fill="#EB996E"/>
<path d="M134.551 155.952C134.511 155.952 134.095 156.28 133.631 157.016C133.36 157.446 133.119 157.895 132.911 158.36C132.635 158.939 132.477 159.567 132.447 160.208C132.478 160.833 132.58 161.453 132.751 162.056C132.887 162.56 133.015 163.048 133.135 163.512C133.229 163.961 133.386 164.394 133.599 164.8C133.599 164.333 133.537 163.867 133.415 163.416C133.343 163 133.239 162.496 133.119 161.944C132.973 161.362 132.882 160.767 132.847 160.168C132.882 159.58 133.021 159.004 133.255 158.464C133.463 157.952 133.687 157.496 133.879 157.12C134.263 156.408 134.591 156 134.551 155.952Z" fill="#EB996E"/>
<path d="M132.063 155.616C131.919 155.544 131.263 156.96 130.607 158.72C130.513 158.976 130.488 159.252 130.535 159.52C130.535 159.752 130.599 159.968 130.639 160.176C130.717 160.539 130.827 160.895 130.967 161.24C131.207 161.824 131.471 162.136 131.511 162.104C131.448 161.776 131.354 161.454 131.231 161.144C131.134 160.802 131.057 160.455 130.999 160.104C130.999 159.912 130.935 159.704 130.919 159.488C130.891 159.289 130.911 159.086 130.975 158.896C131.319 158.008 131.591 157.208 131.775 156.616C131.911 156.295 132.007 155.96 132.063 155.616Z" fill="#EB996E"/>
<path d="M258.27 126.312L261.062 123.464C261.249 123.227 261.506 123.056 261.798 122.976C262.326 122.888 262.782 123.424 262.806 123.952C262.782 124.486 262.589 124.999 262.254 125.416C261.925 125.831 261.687 126.311 261.558 126.824" fill="#FFBE9D"/>
<path d="M285.382 102.504L270.638 128.104L243.062 128.304C243.03 127.668 243.246 127.045 243.663 126.565C244.081 126.085 244.668 125.785 245.302 125.728L269.43 125.24L281.966 103.744C282.846 102.232 283.742 101.912 285.382 102.52V102.504Z" fill="#263238"/>
<path d="M260.646 128.152C260.782 128.152 251.934 128.152 252.43 128.288C252.478 128.384 252.518 128.48 252.558 128.576L253.71 133.632C255.702 133.632 261.438 132.12 261.438 132.12C262.455 131.525 263.388 130.799 264.214 129.96V128.136L260.646 128.152Z" fill="#FFBE9D"/>
<path d="M252.847 128.176L231.871 127.304L222.175 104.44L211.871 119.2L220.167 134.12C221.128 135.845 222.55 137.268 224.273 138.23C225.997 139.192 227.955 139.656 229.927 139.568L254.375 136.768L252.847 128.176Z" fill="#FF725E"/>
<path d="M256.065 234.96L257.665 249.72C257.665 249.72 273.057 252 273.601 254.672L245.265 259.896L241.801 237L256.065 234.96Z" fill="#FF725E"/>
<g opacity="0.6">
<path opacity="0.6" d="M248.685 249.776C248.424 249.898 248.216 250.113 248.103 250.378C247.989 250.644 247.977 250.942 248.069 251.216C248.183 251.483 248.395 251.697 248.661 251.813C248.927 251.929 249.228 251.939 249.501 251.84C249.778 251.707 249.996 251.478 250.115 251.194C250.233 250.911 250.242 250.594 250.141 250.304C249.994 250.038 249.749 249.839 249.458 249.749C249.167 249.66 248.853 249.687 248.581 249.824" fill="white"/>
</g>
<g opacity="0.6">
<path opacity="0.6" d="M245.286 259.896L244.934 257.592L272.47 253.496C272.787 253.593 273.075 253.767 273.308 254.003C273.542 254.239 273.713 254.529 273.806 254.848L245.286 259.896Z" fill="white"/>
</g>
<path d="M258.127 249.512C258.127 249.648 257.455 249.816 256.831 250.36C256.207 250.904 255.935 251.544 255.799 251.512C255.663 251.48 255.751 250.64 256.511 249.992C257.271 249.344 258.135 249.376 258.127 249.512Z" fill="#263238"/>
<path d="M261.296 250.312C261.344 250.44 260.776 250.768 260.392 251.424C260.008 252.08 259.96 252.72 259.816 252.736C259.672 252.752 259.48 251.976 259.976 251.136C260.472 250.296 261.272 250.176 261.296 250.312Z" fill="#263238"/>
<path d="M263.518 253.64C263.39 253.688 263.094 253.024 263.342 252.208C263.59 251.392 264.198 250.992 264.27 251.104C264.342 251.216 264.006 251.672 263.814 252.344C263.622 253.016 263.654 253.6 263.518 253.64Z" fill="#263238"/>
<path d="M257.385 246.184C257.345 246.32 256.681 246.184 255.897 246.392C255.113 246.6 254.545 246.896 254.449 246.792C254.353 246.688 254.881 246.096 255.801 245.912C256.721 245.728 257.433 246.064 257.385 246.184Z" fill="#263238"/>
<g opacity="0.3">
<path opacity="0.3" d="M256.383 237.888L256.671 240.512L242.647 242.432L242.215 239.672L256.383 237.888Z" fill="#111111"/>
</g>
<path d="M256.997 243.2C256.549 243.394 256.057 243.463 255.573 243.4C255.032 243.384 254.495 243.304 253.973 243.16C253.672 243.077 253.378 242.97 253.093 242.84C252.92 242.775 252.758 242.683 252.613 242.568C252.507 242.484 252.432 242.366 252.4 242.234C252.368 242.102 252.381 241.964 252.437 241.84C252.495 241.733 252.576 241.641 252.674 241.571C252.773 241.5 252.886 241.453 253.005 241.432C253.186 241.404 253.369 241.404 253.549 241.432C253.866 241.464 254.179 241.523 254.485 241.608C254.997 241.756 255.483 241.983 255.925 242.28C256.677 242.8 256.981 243.288 256.933 243.32C256.885 243.352 256.493 242.984 255.749 242.576C255.313 242.341 254.847 242.164 254.365 242.048C254.084 241.98 253.798 241.935 253.509 241.912C253.197 241.912 252.941 241.912 252.885 242.056C252.829 242.2 252.885 242.136 252.941 242.216C253.047 242.301 253.166 242.368 253.293 242.416C253.553 242.539 253.82 242.646 254.093 242.736C254.567 242.891 255.055 243.001 255.549 243.064C256.035 243.068 256.519 243.114 256.997 243.2Z" fill="#263238"/>
<path d="M256.847 243.44C256.799 243.44 256.455 243.008 256.271 242.112C256.18 241.582 256.18 241.041 256.271 240.512C256.316 240.198 256.394 239.89 256.503 239.592C256.553 239.394 256.652 239.212 256.793 239.063C256.933 238.915 257.109 238.805 257.303 238.744C257.431 238.728 257.561 238.748 257.677 238.804C257.793 238.859 257.891 238.947 257.959 239.056C258.057 239.21 258.133 239.377 258.183 239.552C258.278 239.866 258.324 240.192 258.319 240.52C258.318 241.064 258.184 241.6 257.927 242.08C257.479 242.88 256.919 243.152 256.903 243.104C257.165 242.727 257.403 242.335 257.615 241.928C257.804 241.483 257.891 241.002 257.871 240.52C257.86 240.248 257.812 239.979 257.727 239.72C257.639 239.424 257.487 239.192 257.375 239.24C257.263 239.288 257.031 239.52 256.943 239.784C256.843 240.044 256.762 240.311 256.703 240.584C256.613 241.066 256.591 241.559 256.639 242.048C256.695 242.912 256.919 243.408 256.847 243.44Z" fill="#263238"/>
<path d="M138.135 243.2L124.343 248.712C124.343 248.712 126.303 264.128 123.855 265.392L111.199 239.496L132.327 230.024L138.135 243.2Z" fill="#FF725E"/>
<g opacity="0.6">
<path opacity="0.6" d="M121.887 240.056C121.695 239.827 121.423 239.679 121.126 239.641C120.829 239.604 120.529 239.681 120.287 239.856C120.06 240.037 119.912 240.299 119.873 240.586C119.835 240.874 119.908 241.165 120.079 241.4C120.279 241.632 120.558 241.782 120.863 241.821C121.167 241.859 121.475 241.783 121.727 241.608C121.927 241.39 122.038 241.104 122.038 240.808C122.038 240.512 121.927 240.226 121.727 240.008" fill="white"/>
</g>
<g opacity="0.6">
<path opacity="0.6" d="M111.199 239.496L113.327 238.544L124.679 264C124.662 264.324 124.567 264.639 124.401 264.918C124.235 265.196 124.004 265.43 123.727 265.6L111.199 239.496Z" fill="white"/>
</g>
<path d="M124.671 249.08C124.535 249.136 124.199 248.512 123.503 248.064C122.807 247.616 122.119 247.52 122.119 247.376C122.119 247.232 122.919 247.096 123.775 247.656C124.631 248.216 124.799 249.056 124.671 249.08Z" fill="#263238"/>
<path d="M124.752 252.352C124.64 252.432 124.168 251.976 123.432 251.776C122.696 251.576 122.064 251.712 122.016 251.576C121.968 251.44 122.656 251.048 123.568 251.304C124.48 251.56 124.872 252.296 124.752 252.352Z" fill="#263238"/>
<path d="M122.135 255.384C122.055 255.28 122.615 254.816 123.471 254.832C124.327 254.848 124.863 255.328 124.783 255.432C124.703 255.536 124.159 255.328 123.463 255.32C122.767 255.312 122.199 255.504 122.135 255.384Z" fill="#263238"/>
<path d="M127.672 247.472C127.528 247.472 127.448 246.808 127.08 246.096C126.712 245.384 126.224 244.928 126.28 244.816C126.336 244.704 127.08 245.04 127.488 245.872C127.896 246.704 127.8 247.496 127.672 247.472Z" fill="#263238"/>
<g opacity="0.3">
<path opacity="0.3" d="M135.4 244.288L132.944 245.272L127.336 232.272L129.512 231.288L135.4 244.288Z" fill="#111111"/>
</g>
<path d="M130.399 246.312C130.095 245.93 129.897 245.475 129.823 244.992C129.699 244.468 129.637 243.931 129.639 243.392C129.641 243.079 129.662 242.766 129.703 242.456C129.719 242.271 129.764 242.09 129.839 241.92C129.891 241.794 129.984 241.689 130.103 241.622C130.222 241.556 130.36 241.531 130.495 241.552C130.613 241.579 130.723 241.633 130.817 241.709C130.912 241.786 130.987 241.882 131.039 241.992C131.119 242.155 131.17 242.331 131.191 242.512C131.244 242.824 131.271 243.14 131.271 243.456C131.269 243.999 131.183 244.539 131.015 245.056C130.902 245.535 130.648 245.97 130.287 246.304C130.215 246.264 130.487 245.792 130.679 244.96C130.789 244.477 130.837 243.983 130.823 243.488C130.815 243.2 130.78 242.913 130.719 242.632C130.671 242.32 130.567 242.08 130.415 242.064C130.263 242.048 130.335 242.064 130.279 242.152C130.228 242.28 130.196 242.415 130.183 242.552C130.132 242.84 130.1 243.132 130.087 243.424C130.066 243.921 130.092 244.42 130.167 244.912C130.278 245.372 130.356 245.84 130.399 246.312Z" fill="#263238"/>
<path d="M130.175 246.224C130.135 246.224 130.479 245.728 131.295 245.312C131.775 245.076 132.292 244.922 132.823 244.856C133.137 244.82 133.453 244.82 133.767 244.856C133.972 244.85 134.176 244.897 134.358 244.992C134.54 245.087 134.695 245.228 134.807 245.4C134.856 245.518 134.871 245.647 134.849 245.773C134.828 245.899 134.772 246.017 134.687 246.112C134.562 246.248 134.42 246.367 134.263 246.464C133.989 246.639 133.689 246.771 133.375 246.856C132.853 247.001 132.303 247.015 131.775 246.896C130.863 246.68 130.471 246.216 130.511 246.184C130.944 246.33 131.385 246.452 131.831 246.552C132.312 246.617 132.801 246.573 133.263 246.424C133.529 246.34 133.783 246.219 134.015 246.064C134.271 245.896 134.455 245.696 134.375 245.6C134.297 245.51 134.199 245.44 134.09 245.393C133.98 245.345 133.862 245.323 133.743 245.328C133.456 245.3 133.166 245.3 132.879 245.328C132.391 245.37 131.912 245.481 131.455 245.656C130.647 245.936 130.223 246.288 130.175 246.224Z" fill="#263238"/>
<path d="M232.408 55.328C230.248 53.992 227.24 55.456 224.952 54.344C223.56 53.672 222.768 52.208 221.648 51.144C220.775 50.3163 219.721 49.7033 218.57 49.3534C217.419 49.0035 216.202 48.9263 215.016 49.128C212.8 49.6 211.2 50.4 210.344 52.504C208.8 50.984 205.176 52.504 203.568 54.4C201.96 56.296 201.6 58.68 201.6 61.192C201.547 65.5303 202.34 69.8375 203.936 73.872C204.08 74.232 204.344 74.672 204.736 74.584C205.128 74.496 205.152 74.264 205.256 74.024C206.056 71.9082 206.593 69.7025 206.856 67.456C207.118 65.2014 207.837 63.0238 208.968 61.056C210.2 59.16 212.32 57.696 214.568 57.856C216.241 58.0597 217.79 58.8439 218.944 60.072C220.144 61.232 221.104 62.616 222.208 63.864C223.252 65.1764 224.635 66.1779 226.208 66.76C226.999 67.0381 227.852 67.0834 228.668 66.8905C229.483 66.6976 230.226 66.2747 230.808 65.672C231.88 64.392 231.656 62.112 230.16 61.36C230.909 61.4842 231.679 61.3445 232.336 60.9648C232.994 60.5852 233.5 59.989 233.767 59.278C234.034 58.5671 234.046 57.7855 233.801 57.0666C233.557 56.3477 233.07 55.736 232.424 55.336L232.408 55.328Z" fill="#263238"/>
<path d="M215.2 91.248L216.2 86.52C216.2 86.52 222.664 86.96 224.144 80.736C224.864 77.728 225.84 71.416 226.656 65.696C227.077 62.7281 226.366 59.7104 224.665 57.2425C222.963 54.7746 220.395 53.0373 217.472 52.376L216.872 52.24C210.288 51.152 205.672 56.136 204.784 62.744L199.712 88.064C199.303 90.1107 199.72 92.236 200.873 93.9761C202.026 95.7162 203.82 96.9297 205.864 97.352L205.688 99.752C209.968 100.624 214.312 95.512 215.2 91.248Z" fill="#FFBE9D"/>
<path d="M216.221 86.52C213.326 85.924 210.675 84.4784 208.605 82.368C208.605 82.368 209.509 87.296 215.869 88.136L216.221 86.52Z" fill="#EB996E"/>
<path d="M224.367 70.1359C224.315 70.3681 224.175 70.5711 223.977 70.7023C223.778 70.8336 223.537 70.8829 223.303 70.8399C223.187 70.8225 223.077 70.7822 222.977 70.7214C222.877 70.6607 222.791 70.5807 222.722 70.4861C222.654 70.3916 222.605 70.2843 222.578 70.1706C222.551 70.0569 222.548 69.9391 222.567 69.8239C222.619 69.5918 222.759 69.3888 222.957 69.2575C223.155 69.1263 223.397 69.077 223.631 69.1199C223.746 69.1374 223.857 69.1777 223.957 69.2385C224.057 69.2992 224.143 69.3792 224.212 69.4738C224.28 69.5683 224.329 69.6756 224.356 69.7892C224.382 69.9029 224.386 70.0208 224.367 70.1359Z" fill="#263238"/>
<path d="M224.639 68.44C224.503 68.536 223.935 67.88 222.975 67.64C222.015 67.4 221.207 67.744 221.127 67.64C221.047 67.536 221.247 67.392 221.607 67.24C222.087 67.0461 222.614 67.0043 223.119 67.12C223.623 67.2404 224.075 67.5211 224.407 67.92C224.655 68.168 224.703 68.4 224.639 68.44Z" fill="#263238"/>
<path d="M215.104 68.208C215.055 68.4405 214.918 68.6447 214.72 68.7765C214.522 68.9082 214.281 68.9569 214.048 68.912C213.932 68.8954 213.821 68.8561 213.721 68.7962C213.621 68.7364 213.534 68.6573 213.465 68.5636C213.396 68.4698 213.346 68.3632 213.318 68.25C213.29 68.1367 213.286 68.0191 213.304 67.904C213.329 67.7857 213.378 67.6737 213.447 67.5743C213.516 67.4749 213.604 67.39 213.706 67.3246C213.807 67.2592 213.921 67.2146 214.04 67.1932C214.159 67.1718 214.282 67.1741 214.4 67.2C214.625 67.2429 214.825 67.3723 214.957 67.5607C215.089 67.749 215.141 67.9813 215.104 68.208Z" fill="#263238"/>
<path d="M215.197 66.496C215.061 66.584 214.494 65.936 213.534 65.696C212.574 65.456 211.765 65.8 211.685 65.696C211.605 65.592 211.805 65.4479 212.165 65.2879C212.646 65.0978 213.174 65.0587 213.677 65.1759C214.182 65.2964 214.634 65.5771 214.965 65.9759C215.197 66.2239 215.197 66.456 215.197 66.496Z" fill="#263238"/>
<path d="M217.039 74.4C217.573 74.3576 218.111 74.3818 218.639 74.472C218.895 74.472 219.135 74.472 219.215 74.352C219.299 74.092 219.299 73.812 219.215 73.552C219.119 72.912 219.015 72.232 218.911 71.528C218.597 69.7952 218.421 68.0405 218.383 66.28C218.842 67.9816 219.161 69.7181 219.335 71.472C219.423 72.176 219.519 72.856 219.599 73.504C219.688 73.8346 219.657 74.1861 219.511 74.496C219.456 74.5732 219.384 74.637 219.301 74.6827C219.218 74.7284 219.126 74.7548 219.031 74.76C218.888 74.7777 218.743 74.7777 218.599 74.76C218.066 74.7067 217.542 74.5857 217.039 74.4Z" fill="#263238"/>
<path d="M214.071 74.4C214.231 74.4 213.991 75.464 214.719 76.408C215.447 77.352 216.575 77.48 216.551 77.632C216.527 77.784 216.263 77.776 215.791 77.68C215.179 77.5529 214.632 77.2127 214.247 76.72C213.875 76.2464 213.703 75.6465 213.767 75.048C213.823 74.632 213.999 74.4 214.071 74.4Z" fill="#263238"/>
<path d="M216.377 61.5999C216.217 61.8399 215.289 61.496 214.137 61.3839C212.985 61.2719 212.001 61.3839 211.905 61.0959C211.857 60.9679 212.073 60.7599 212.497 60.5919C213.057 60.3935 213.655 60.3249 214.245 60.3915C214.836 60.458 215.403 60.6579 215.905 60.9759C216.281 61.2319 216.441 61.4879 216.377 61.5999Z" fill="#263238"/>
<path d="M224.909 65.6C224.693 65.784 224.109 65.408 223.309 65.216C222.509 65.024 221.805 65.032 221.709 64.768C221.669 64.64 221.821 64.448 222.165 64.312C222.615 64.1538 223.102 64.1332 223.564 64.2529C224.025 64.3726 224.441 64.6271 224.757 64.984C224.965 65.256 225.005 65.496 224.909 65.6Z" fill="#263238"/>
<path d="M204.271 67.48C204.167 67.416 200.271 65.248 199.471 69.544C198.671 73.84 203.127 73.792 203.159 73.664C203.191 73.536 204.271 67.48 204.271 67.48Z" fill="#FFBE9D"/>
<path d="M202.127 71.7839C202.127 71.7839 202.039 71.7839 201.903 71.8559C201.711 71.8984 201.51 71.8639 201.343 71.7599C201.1 71.531 200.922 71.2413 200.828 70.9207C200.734 70.6001 200.727 70.2602 200.807 69.9359C200.865 69.5645 201.007 69.2113 201.223 68.9039C201.288 68.7761 201.383 68.6662 201.5 68.5839C201.618 68.5016 201.753 68.4494 201.895 68.4319C201.987 68.4241 202.078 68.4498 202.151 68.5043C202.225 68.5588 202.276 68.6383 202.295 68.7279C202.295 68.8559 202.295 68.9359 202.295 68.9519C202.295 68.9679 202.399 68.8959 202.399 68.7119C202.396 68.5997 202.354 68.4921 202.279 68.4079C202.23 68.3513 202.17 68.3052 202.103 68.2722C202.035 68.2392 201.962 68.2201 201.887 68.2159C201.704 68.2179 201.523 68.2667 201.364 68.3577C201.204 68.4487 201.071 68.5789 200.975 68.7359C200.723 69.0723 200.555 69.4648 200.487 69.8799C200.394 70.2595 200.414 70.6579 200.545 71.0262C200.676 71.3944 200.912 71.7162 201.223 71.9519C201.333 72.0056 201.453 72.0335 201.575 72.0335C201.697 72.0335 201.818 72.0056 201.927 71.9519C202.103 71.8879 202.143 71.7919 202.127 71.7839Z" fill="#EB996E"/>
<path d="M228.286 64.68C226.823 64.723 225.371 64.4184 224.048 63.7912C222.726 63.164 221.571 62.2321 220.679 61.072C219.455 59.472 218.702 57.328 216.926 56.272C216.316 55.9507 215.648 55.7547 214.961 55.6957C214.274 55.6366 213.582 55.7156 212.927 55.928C211.615 56.3573 210.406 57.0517 209.374 57.968C209.862 61.408 208.254 64.768 206.686 67.88C206.549 68.2419 206.296 68.5484 205.966 68.752C205.374 69.024 204.687 68.552 204.367 67.992C203.898 67.0489 203.714 65.9897 203.839 64.944C203.905 62.5563 204.449 60.2062 205.438 58.032C206.445 55.8746 208.057 54.0567 210.079 52.8C212.689 51.2983 215.78 50.8653 218.703 51.592C221.608 52.341 224.203 53.9871 226.118 56.296C227.052 57.3234 227.717 58.5655 228.055 59.912" fill="#263238"/>
<path d="M233.864 57.24C233.847 57.3663 233.806 57.4884 233.744 57.6C233.562 57.9259 233.282 58.1862 232.944 58.344C232.407 58.5847 231.807 58.6464 231.232 58.52C230.873 58.4563 230.522 58.3544 230.184 58.216C229.801 58.0553 229.467 57.7958 229.216 57.464C229.074 57.2772 228.977 57.0606 228.931 56.8305C228.885 56.6004 228.893 56.3629 228.952 56.136C229.041 55.8951 229.196 55.6844 229.4 55.5285C229.604 55.3727 229.849 55.2782 230.104 55.256C230.373 55.2153 230.647 55.24 230.904 55.328C231.167 55.4252 231.395 55.5977 231.56 55.824C231.72 56.0546 231.829 56.3165 231.88 56.5923C231.931 56.8681 231.923 57.1515 231.856 57.424C231.788 57.7161 231.662 57.9917 231.486 58.2348C231.311 58.4779 231.088 58.6836 230.832 58.84C230.308 59.1678 229.706 59.35 229.088 59.368C227.799 59.3738 226.545 58.9455 225.528 58.152C224.523 57.3864 223.607 56.5087 222.8 55.536C222.056 54.644 221.237 53.817 220.352 53.064C219.555 52.4028 218.612 51.942 217.6 51.72C216.704 51.5481 215.781 51.5754 214.896 51.8C213.611 52.1435 212.435 52.8099 211.48 53.736C211.217 53.9883 210.969 54.2554 210.736 54.536C210.576 54.72 210.488 54.824 210.488 54.816C210.488 54.808 210.488 54.816 210.536 54.736C210.586 54.6542 210.642 54.5766 210.704 54.504C210.928 54.2232 211.169 53.9561 211.424 53.704C212.37 52.7392 213.554 52.041 214.856 51.68C215.763 51.4425 216.711 51.407 217.632 51.576C218.685 51.8041 219.667 52.2815 220.496 52.968C221.39 53.7281 222.219 54.5602 222.976 55.456C223.775 56.4163 224.679 57.2832 225.672 58.04C226.649 58.7864 227.843 59.1937 229.072 59.2C229.653 59.1825 230.219 59.0114 230.712 58.704C230.946 58.5633 231.15 58.3778 231.312 58.1582C231.474 57.9385 231.591 57.689 231.656 57.424C231.723 57.1734 231.734 56.9115 231.69 56.656C231.646 56.4006 231.547 56.1577 231.4 55.944C231.253 55.7531 231.058 55.6055 230.834 55.5168C230.61 55.4281 230.366 55.4015 230.128 55.44C229.904 55.4572 229.69 55.5378 229.51 55.6724C229.33 55.807 229.192 55.99 229.112 56.2C229.06 56.4016 229.052 56.6124 229.091 56.8172C229.13 57.0219 229.214 57.2155 229.336 57.384C229.567 57.699 229.88 57.9451 230.24 58.096C230.566 58.2377 230.907 58.3423 231.256 58.408C231.808 58.5353 232.386 58.4907 232.912 58.28C233.243 58.134 233.522 57.8914 233.712 57.584C233.832 57.368 233.848 57.232 233.864 57.24Z" fill="#455A64"/>
<path d="M201.977 57.904C202.368 58.1541 202.78 58.3683 203.209 58.544C203.681 58.6958 204.179 58.7529 204.673 58.712C205.281 58.6614 205.88 58.524 206.449 58.304C207.48 57.8868 208.348 57.1455 208.921 56.192C209.142 55.7859 209.337 55.3664 209.505 54.936C209.504 55.0639 209.482 55.1908 209.441 55.312C209.352 55.6463 209.223 55.9687 209.057 56.272C208.498 57.2894 207.601 58.0791 206.521 58.504C205.934 58.7379 205.312 58.8757 204.681 58.912C204.162 58.9407 203.642 58.8645 203.153 58.688C202.831 58.5592 202.529 58.384 202.257 58.168C202.065 58.016 201.969 57.92 201.977 57.904Z" fill="#455A64"/>
<path d="M201.473 61.04C201.473 61.04 201.961 61.224 202.777 61.36C203.836 61.5475 204.927 61.4458 205.933 61.0657C206.94 60.6855 207.825 60.041 208.497 59.2C209.017 58.56 209.225 58.08 209.257 58.096C209.289 58.112 209.257 58.224 209.137 58.44C208.988 58.7397 208.814 59.0261 208.617 59.296C207.955 60.192 207.05 60.8783 206.008 61.2727C204.967 61.6672 203.834 61.753 202.745 61.52C202.418 61.4542 202.099 61.355 201.793 61.224C201.676 61.181 201.568 61.1188 201.473 61.04Z" fill="#455A64"/>
<path d="M211.054 69.856C211.022 69.856 210.991 69.8433 210.969 69.8208C210.946 69.7983 210.934 69.7678 210.934 69.736C210.934 69.7041 210.946 69.6736 210.969 69.6511C210.991 69.6286 211.022 69.616 211.054 69.616C211.069 69.6158 211.084 69.6189 211.097 69.6251C211.111 69.6313 211.124 69.6404 211.133 69.6519C211.143 69.6633 211.151 69.6767 211.155 69.6912C211.159 69.7058 211.16 69.721 211.158 69.736C211.158 69.7652 211.147 69.7935 211.128 69.8156C211.109 69.8377 211.083 69.8521 211.054 69.856Z" fill="#EB996E"/>
<path d="M212.983 69.848C212.927 69.848 212.879 69.784 212.879 69.712C212.878 69.6797 212.889 69.6483 212.91 69.6234C212.93 69.5985 212.959 69.5817 212.991 69.576C213.023 69.5819 213.053 69.6002 213.072 69.627C213.091 69.6539 213.1 69.6872 213.095 69.72C213.095 69.792 213.047 69.856 212.983 69.848Z" fill="#EB996E"/>
<path d="M214.222 70.096C214.166 70.096 214.126 70.008 214.134 69.912C214.142 69.816 214.198 69.744 214.262 69.744C214.326 69.744 214.358 69.832 214.35 69.936C214.342 70.04 214.286 70.104 214.222 70.096Z" fill="#EB996E"/>
<path d="M211.702 71.2C211.638 71.2 211.598 71.144 211.606 71.104C211.614 71.064 211.67 71.048 211.726 71.104C211.783 71.16 211.831 71.16 211.823 71.192C211.815 71.224 211.759 71.2 211.702 71.2Z" fill="#EB996E"/>
<path d="M213.472 71.2C213.442 71.1941 213.415 71.1767 213.397 71.1513C213.379 71.126 213.372 71.0947 213.376 71.064C213.376 70.992 213.44 70.944 213.504 70.952C213.533 70.9596 213.558 70.9777 213.575 71.0029C213.591 71.0281 213.597 71.0584 213.592 71.088C213.592 71.1034 213.589 71.1186 213.583 71.1328C213.577 71.1469 213.568 71.1596 213.557 71.1702C213.546 71.1807 213.532 71.1887 213.518 71.1939C213.503 71.199 213.488 71.2011 213.472 71.2Z" fill="#EB996E"/>
<path d="M222.457 72.128C222.441 72.1271 222.426 72.1229 222.412 72.1158C222.399 72.1088 222.386 72.0989 222.377 72.0868C222.367 72.0748 222.36 72.0609 222.356 72.0459C222.351 72.031 222.35 72.0153 222.353 72C222.353 71.9695 222.364 71.9401 222.385 71.9179C222.406 71.8956 222.434 71.882 222.465 71.88C222.495 71.884 222.523 71.8995 222.542 71.9233C222.562 71.9471 222.571 71.9774 222.569 72.008C222.569 72.0385 222.557 72.0679 222.536 72.0902C222.516 72.1124 222.487 72.126 222.457 72.128Z" fill="#EB996E"/>
<path d="M223.728 72.296C223.697 72.2866 223.67 72.2657 223.654 72.2374C223.638 72.2092 223.633 72.1757 223.64 72.144C223.64 72.072 223.704 72.016 223.76 72.024C223.793 72.0316 223.821 72.0518 223.839 72.0803C223.857 72.1087 223.863 72.1431 223.856 72.176C223.854 72.2085 223.84 72.239 223.816 72.2613C223.792 72.2836 223.761 72.296 223.728 72.296Z" fill="#EB996E"/>
<path d="M221.342 71.912C221.315 71.9101 221.29 71.8986 221.271 71.8795C221.252 71.8604 221.24 71.835 221.238 71.808C221.242 71.7818 221.256 71.7582 221.277 71.7418C221.298 71.7255 221.324 71.7177 221.35 71.72C221.364 71.7189 221.377 71.7206 221.39 71.7249C221.402 71.7292 221.414 71.7361 221.423 71.7451C221.433 71.7542 221.441 71.7651 221.446 71.7773C221.452 71.7895 221.454 71.8027 221.454 71.816C221.453 71.8297 221.45 71.843 221.443 71.8553C221.437 71.8675 221.429 71.8784 221.418 71.8873C221.408 71.8962 221.396 71.903 221.383 71.9072C221.37 71.9115 221.356 71.9131 221.342 71.912Z" fill="#EB996E"/>
<path d="M221.989 73.368C221.974 73.3702 221.958 73.3693 221.942 73.3653C221.927 73.3612 221.912 73.3542 221.9 73.3445C221.887 73.3348 221.876 73.3227 221.868 73.3089C221.86 73.2951 221.855 73.2798 221.853 73.264C221.848 73.2334 221.854 73.2019 221.87 73.1754C221.887 73.1489 221.912 73.1292 221.941 73.12C221.972 73.1177 222.002 73.1272 222.026 73.1465C222.05 73.1658 222.065 73.1936 222.069 73.224C222.077 73.2537 222.073 73.2851 222.058 73.3119C222.043 73.3386 222.019 73.3587 221.989 73.368Z" fill="#EB996E"/>
<path d="M223.103 73.392C223.09 73.3876 223.079 73.3807 223.07 73.3718C223.06 73.3628 223.052 73.3521 223.047 73.3401C223.042 73.3281 223.039 73.3152 223.039 73.3021C223.039 73.289 223.042 73.276 223.047 73.264C223.063 73.2449 223.086 73.2321 223.111 73.2277C223.136 73.2232 223.162 73.2274 223.184 73.2395C223.206 73.2516 223.224 73.2708 223.234 73.2942C223.244 73.3175 223.246 73.3436 223.239 73.368C223.232 73.3787 223.222 73.3878 223.211 73.3948C223.201 73.4018 223.189 73.4066 223.176 73.4088C223.163 73.4111 223.15 73.4107 223.138 73.4079C223.125 73.405 223.113 73.3996 223.103 73.392Z" fill="#EB996E"/>
<path d="M176.584 173.016L164.64 212.32L129.264 230.024L136.896 247.792L186.768 229.128L202.336 181.28L176.584 173.016Z" fill="#263238"/>
<path d="M181.215 87.576L148.847 108.12C147.269 109.122 146.092 110.645 145.519 112.424L135.367 143.744L146.527 147.688L158.303 118.4L187.447 106.328L181.215 87.576Z" fill="#FF725E"/>
<path d="M215.998 97.192L216.926 95.912L215.238 91.04L210.662 97.976L209.438 94.192L200.254 83.256L196.254 86.176L181.19 87.576L181.278 87.992L178.398 110.224L176.646 134.104L173.134 145.8L171.654 147.4C171.214 147.872 170.898 148.445 170.733 149.069C170.568 149.693 170.561 150.348 170.71 150.976L170.814 151.392L207.79 163.392L210.654 158.92L222.15 104.464L215.998 97.192Z" fill="#FF725E"/>
<path d="M252.494 188.872C252.119 185.319 250.712 181.954 248.448 179.19C246.183 176.427 243.16 174.386 239.75 173.32L207.998 163.32L170.838 151.384C168.736 156.124 167.787 161.295 168.07 166.472C168.518 173.84 176.566 180.872 184.614 182.944L230.774 194.584L239.478 240.184L257.806 238.72L252.494 188.872Z" fill="#263238"/>
<path d="M230.99 194.856C230.787 194.846 230.586 194.814 230.39 194.76L228.702 194.384C227.238 194.048 225.126 193.528 222.534 192.856C217.334 191.52 210.206 189.488 202.23 187.616C195.425 185.971 188.726 183.909 182.174 181.44C179.662 180.488 177.662 179.64 176.286 179.04C175.598 178.744 175.07 178.488 174.686 178.32C174.501 178.244 174.322 178.153 174.15 178.048C174.346 178.097 174.536 178.164 174.718 178.248L176.318 178.896C177.71 179.456 179.726 180.256 182.246 181.176C188.825 183.547 195.529 185.558 202.326 187.2C210.326 189.064 217.43 191.144 222.606 192.552L228.742 194.208L230.414 194.656C230.611 194.708 230.804 194.775 230.99 194.856Z" fill="#455A64"/>
<path d="M235.494 189.384C235.114 190.548 234.461 191.604 233.59 192.464C232.824 193.418 231.839 194.173 230.718 194.664C230.646 194.56 231.974 193.648 233.286 192.184C234.598 190.72 235.382 189.328 235.494 189.384Z" fill="#455A64"/>
<path d="M238.238 193.6C237.116 194.24 235.869 194.63 234.582 194.744C233.315 194.996 232.008 194.974 230.75 194.68C230.75 194.552 232.462 194.632 234.518 194.336C236.574 194.04 238.198 193.44 238.238 193.6Z" fill="#455A64"/>
<path d="M186.734 156.616C186.734 156.512 197.934 159.92 211.598 164.24C225.262 168.56 236.398 172.144 236.334 172.24C236.27 172.336 225.134 168.936 211.47 164.616C197.806 160.296 186.702 156.728 186.734 156.616Z" fill="#455A64"/>
<path d="M187.438 104.056C187.998 103.253 188.443 102.375 188.758 101.448C189.08 100.438 189.284 99.3933 189.366 98.3359C189.485 97.0463 189.406 95.7461 189.134 94.4799C188.825 93.2272 188.252 92.0546 187.454 91.04C186.796 90.2151 185.997 89.5136 185.094 88.9679C184.227 88.499 183.326 88.0952 182.398 87.7599C182.67 87.7673 182.94 87.8131 183.198 87.896C183.906 88.0777 184.589 88.3464 185.23 88.696C186.197 89.2226 187.053 89.9316 187.75 90.784C188.6 91.8329 189.206 93.0569 189.526 94.3679C189.819 95.6802 189.892 97.0318 189.742 98.3679C189.643 99.4614 189.401 100.537 189.022 101.568C188.784 102.264 188.435 102.918 187.99 103.504C187.686 103.896 187.454 104.072 187.438 104.056Z" fill="#263238"/>
<g opacity="0.3">
<path opacity="0.3" d="M178.399 110.224C180.519 109.672 184.895 107.304 184.895 107.304C182.263 114.224 179.431 122.504 176.959 129.48C177.679 123.032 177.679 116.68 178.399 110.224Z" fill="#111111"/>
</g>
<path d="M154.087 114.496C155.043 114.894 155.893 115.511 156.567 116.296C157.338 116.989 157.933 117.856 158.303 118.824C158.199 118.888 157.431 117.776 156.271 116.592C155.111 115.408 154.015 114.6 154.087 114.496Z" fill="#263238"/>
<path d="M156.695 110.16C157.552 111.359 158.161 112.716 158.488 114.153C158.815 115.589 158.853 117.077 158.599 118.528C158.506 117.093 158.336 115.664 158.087 114.248C157.698 112.861 157.234 111.496 156.695 110.16Z" fill="#263238"/>
<path d="M172.879 129.24C172.879 129.36 172.879 129.456 172.799 129.456C172.719 129.456 172.727 129.36 172.727 129.24C172.727 129.12 172.727 129.032 172.799 129.032C172.871 129.032 172.879 129.128 172.879 129.24Z" fill="#263238"/>
<path d="M210.678 158.896C210.679 158.734 210.701 158.573 210.742 158.416L211.014 157.056C211.278 155.824 211.63 154.136 212.07 152.072L215.526 135.632C216.878 129.232 218.094 123.44 218.99 119.184C219.438 117.128 219.79 115.44 220.07 114.208L220.382 112.856C220.417 112.698 220.462 112.543 220.518 112.392C220.523 112.553 220.507 112.715 220.47 112.872C220.406 113.232 220.326 113.672 220.23 114.24C219.998 115.48 219.67 117.176 219.278 119.248C218.478 123.464 217.286 129.296 215.934 135.72C214.582 142.144 213.318 147.944 212.358 152.136C211.87 154.232 211.47 155.928 211.174 157.096C211.03 157.64 210.918 158.088 210.83 158.432C210.797 158.592 210.746 158.748 210.678 158.896Z" fill="#263238"/>
<path d="M228.903 133.4C228.857 132.208 229.148 131.026 229.743 129.992C230.218 128.894 230.987 127.95 231.967 127.264C232.063 127.36 230.959 128.472 230.119 130.176C229.279 131.88 229.031 133.424 228.903 133.4Z" fill="#263238"/>
<path d="M230.776 135.344C230.425 133.974 230.353 132.547 230.563 131.148C230.773 129.749 231.262 128.407 232 127.2C232.12 127.256 231.304 128.952 230.984 131.2C230.843 132.577 230.773 133.96 230.776 135.344Z" fill="#263238"/>
<path d="M269.432 128.088L263.328 128.144L264.088 130.08L269.384 128.832L269.432 128.088Z" fill="#FFBE9D"/>
<g opacity="0.3">
<path opacity="0.3" d="M217.207 128.728C217.207 128.728 221.271 135.832 221.207 135.648C221.479 128.864 221.455 122.392 219.887 115.784" fill="#111111"/>
</g>
<path d="M209.454 94.3999C209.454 94.4399 208.902 94.9359 207.974 95.8399C207.046 96.7439 205.774 98.0719 204.11 99.4479L203.926 99.5999L203.814 99.3919L201.974 95.9839C200.478 93.2719 199.062 90.8559 198.03 89.1119L196.798 87.0079C196.631 86.7595 196.497 86.4906 196.398 86.2079C196.608 86.4166 196.79 86.6504 196.942 86.9039C197.262 87.3679 197.742 88.0479 198.27 88.9039C199.374 90.6159 200.83 93.0159 202.326 95.7359C202.99 96.9359 203.606 98.1359 204.15 99.1599L203.854 99.0959C205.51 97.7679 206.814 96.4559 207.806 95.6159C208.308 95.1492 208.861 94.7412 209.454 94.3999Z" fill="#263238"/>
<path d="M216.726 96.288C216.604 96.5831 216.431 96.8541 216.214 97.0879C215.862 97.5919 215.294 98.272 214.71 99.096L214.486 99.3999L214.374 99.0479C214.142 98.3279 213.902 97.5519 213.638 96.7359L213.166 95.1359L213.518 95.208C212.658 96.3485 211.708 97.4186 210.678 98.408C211.423 97.1873 212.266 96.0289 213.198 94.944L213.43 94.6479L213.55 95.0159L214.038 96.5599C214.278 97.3706 214.51 98.1386 214.734 98.8639L214.398 98.8159C215.038 98.0159 215.63 97.3519 216.038 96.888C216.446 96.424 216.686 96.264 216.726 96.288Z" fill="#263238"/>
<path d="M210.681 98.328C210.239 97.736 209.963 97.0376 209.881 96.304C209.662 95.6186 209.525 94.9096 209.473 94.192C209.911 94.7823 210.187 95.4775 210.273 96.208C210.488 96.8971 210.624 97.6082 210.681 98.328Z" fill="#263238"/>
<path d="M204.447 155C204.447 155 204.895 155.256 205.247 155.984C205.47 156.459 205.581 156.979 205.573 157.504C205.564 158.029 205.437 158.545 205.199 159.013C204.962 159.481 204.621 159.888 204.202 160.205C203.784 160.522 203.298 160.739 202.783 160.84C202.371 160.972 201.926 160.952 201.527 160.784C201.527 160.72 202.007 160.784 202.711 160.56C203.166 160.435 203.589 160.216 203.953 159.918C204.318 159.62 204.617 159.249 204.83 158.828C205.043 158.408 205.166 157.948 205.191 157.478C205.216 157.007 205.143 156.536 204.975 156.096C204.719 155.4 204.391 155.048 204.447 155Z" fill="#263238"/>
<path d="M211.713 99.4C211.732 99.5888 211.732 99.7791 211.713 99.968C211.713 100.384 211.713 100.928 211.657 101.568C211.609 102.984 211.489 105.032 211.297 107.56C210.929 112.616 210.217 119.56 209.033 127.248C207.849 134.936 206.409 141.76 205.225 146.688C204.641 149.16 204.129 151.144 203.753 152.512L203.313 154.112C203.271 154.299 203.21 154.482 203.129 154.656C203.15 154.467 203.185 154.28 203.233 154.096C203.321 153.688 203.449 153.16 203.593 152.496C203.929 151.12 204.393 149.12 204.945 146.648C206.049 141.704 207.433 134.84 208.625 127.208C209.817 119.576 210.561 112.608 211.025 107.56C211.249 105.04 211.409 102.992 211.513 101.584C211.569 100.912 211.609 100.368 211.649 99.984C211.648 99.7875 211.67 99.5916 211.713 99.4Z" fill="#263238"/>
<path d="M207.912 154.632C207.283 154.867 206.622 155.007 205.952 155.048C204.358 155.244 202.746 155.244 201.152 155.048C199.549 154.854 197.975 154.467 196.464 153.896C195.827 153.691 195.223 153.395 194.672 153.016C196.796 153.741 198.981 154.277 201.2 154.616C203.432 154.822 205.679 154.828 207.912 154.632Z" fill="#263238"/>
<path d="M181.911 150.096C178.719 149.321 175.722 147.89 173.111 145.896C173.175 145.792 175.047 146.928 177.479 148.08C179.911 149.232 181.951 149.984 181.911 150.096Z" fill="#263238"/>
<path d="M166.543 139.824C166.543 139.944 166.503 140.032 166.447 140.032C166.391 140.032 166.359 139.944 166.359 139.824C166.359 139.704 166.399 139.616 166.447 139.616C166.495 139.616 166.543 139.712 166.543 139.824Z" fill="#263238"/>
<path d="M165.016 106.248C164.969 105.233 165.058 104.216 165.28 103.224C165.373 102.211 165.602 101.216 165.96 100.264C166.016 101.279 165.927 102.298 165.696 103.288C165.603 104.301 165.374 105.296 165.016 106.248Z" fill="white"/>
<path d="M178.848 103.92C178.228 103.563 177.651 103.136 177.128 102.648C176.208 101.936 175.4 101.424 175.456 101.312C176.177 101.471 176.842 101.819 177.384 102.32C178.344 103.056 178.928 103.848 178.848 103.92Z" fill="white"/>
<path d="M153.694 110.872C153.088 110.751 152.515 110.5 152.014 110.136C151.142 109.624 150.486 109.136 150.542 109.032C151.15 109.154 151.724 109.408 152.222 109.776C153.094 110.28 153.75 110.768 153.694 110.872Z" fill="white"/>
<path d="M151.91 121C151.04 121.492 150.106 121.861 149.134 122.096C148.206 122.46 147.231 122.691 146.238 122.784C147.112 122.3 148.045 121.935 149.014 121.696C149.943 121.332 150.918 121.098 151.91 121Z" fill="white"/>
<path d="M145.231 138.216C144.494 136.506 144.218 134.633 144.431 132.784C144.669 133.669 144.822 134.574 144.887 135.488C145.089 136.384 145.204 137.298 145.231 138.216Z" fill="white"/>
<path d="M173.079 110.608C172.147 111.014 171.184 111.343 170.199 111.592C169.258 111.976 168.287 112.281 167.295 112.504C169.037 111.404 171.024 110.753 173.079 110.608Z" fill="white"/>
<path d="M184.038 93.688C182.809 93.6691 181.585 93.5108 180.39 93.216C179.169 93.0536 177.97 92.7558 176.814 92.328C178.047 92.3476 179.274 92.5086 180.47 92.808C181.689 92.9681 182.885 93.2632 184.038 93.688Z" fill="white"/>
<path d="M192.582 94.088C192.66 93.19 192.878 92.3098 193.23 91.48C193.444 90.6038 193.795 89.7668 194.27 89C194.188 89.8972 193.969 90.7767 193.622 91.608C193.404 92.4828 193.053 93.3192 192.582 94.088Z" fill="white"/>
<path d="M200.119 103.472C198.617 102.299 197.416 100.785 196.615 99.056C197.291 99.7138 197.899 100.437 198.431 101.216C199.071 101.907 199.636 102.663 200.119 103.472Z" fill="white"/>
<path d="M191.999 111.616C191.722 110.744 191.577 109.835 191.567 108.92C191.433 108.013 191.433 107.091 191.567 106.184C191.851 107.057 191.997 107.97 191.999 108.888C192.142 109.792 192.142 110.712 191.999 111.616Z" fill="white"/>
<path d="M183.255 116.144C183.183 116.232 182.455 115.72 181.703 115C180.951 114.28 180.351 113.624 180.431 113.544C180.511 113.464 181.231 113.976 181.983 114.688C182.735 115.4 183.335 116.064 183.255 116.144Z" fill="white"/>
<path d="M187.663 122.12C186.392 122.952 184.893 123.368 183.375 123.312C184.056 123.006 184.77 122.78 185.503 122.64C186.198 122.376 186.924 122.201 187.663 122.12Z" fill="white"/>
<path d="M203.061 117.392C202.375 115.747 202.14 113.95 202.381 112.184C202.605 113.032 202.742 113.9 202.789 114.776C202.969 115.636 203.06 116.513 203.061 117.392Z" fill="white"/>
<path d="M199.759 128.8C199.2 128.158 198.751 127.428 198.431 126.64C197.986 125.913 197.662 125.119 197.471 124.288C198.03 124.93 198.478 125.66 198.799 126.448C199.243 127.175 199.567 127.969 199.759 128.8Z" fill="white"/>
<path d="M187.768 136.512C187.903 135.479 188.172 134.468 188.568 133.504C188.846 132.495 189.26 131.529 189.8 130.632C189.664 131.665 189.395 132.676 189 133.64C188.722 134.649 188.307 135.615 187.768 136.512Z" fill="white"/>
<path d="M182.742 142.992C182.343 142.45 182.052 141.836 181.886 141.184C181.597 140.576 181.438 139.913 181.422 139.24C181.825 139.779 182.116 140.394 182.278 141.048C182.567 141.656 182.725 142.319 182.742 142.992Z" fill="white"/>
<path d="M200.335 141.816C199.574 142.441 198.729 142.956 197.823 143.344C196.977 143.853 196.065 144.24 195.111 144.496C195.878 143.874 196.726 143.36 197.631 142.968C198.475 142.46 199.385 142.072 200.335 141.816Z" fill="white"/>
<path d="M189.111 151.568C188.857 151.048 188.731 150.475 188.743 149.896C188.655 148.952 188.671 148.184 188.791 148.176C189.046 148.699 189.172 149.275 189.159 149.856C189.247 150.792 189.231 151.56 189.111 151.568Z" fill="white"/>
<path d="M176.135 151.792C176.047 151.856 175.511 151.168 175.279 150.144C175.071 149.54 175.085 148.882 175.319 148.288C175.494 148.862 175.617 149.451 175.687 150.048C175.887 150.615 176.037 151.199 176.135 151.792Z" fill="white"/>
<path d="M198.399 156.536C197.782 156.954 197.093 157.252 196.367 157.416C195.684 157.706 194.956 157.871 194.215 157.904C194.828 157.485 195.515 157.187 196.239 157.024C196.924 156.733 197.655 156.568 198.399 156.536Z" fill="white"/>
<path d="M208.038 159.832C207.926 159.832 207.71 159.208 207.558 158.4C207.406 157.592 207.366 156.912 207.478 156.888C207.59 156.864 207.806 157.504 207.966 158.32C208.126 159.136 208.158 159.808 208.038 159.832Z" fill="white"/>
<path d="M209.28 148.632C208.831 148.133 208.488 147.548 208.272 146.912C207.938 146.334 207.726 145.695 207.648 145.032C208.096 145.529 208.439 146.111 208.656 146.744C208.991 147.324 209.204 147.967 209.28 148.632Z" fill="white"/>
<path d="M213.024 136.408C213.088 136.504 212.344 137.064 211.376 137.656C210.822 138.078 210.188 138.383 209.512 138.552C209.976 138.034 210.535 137.61 211.16 137.304C211.715 136.883 212.348 136.578 213.024 136.408Z" fill="white"/>
<path d="M213.24 129.392C212.798 128.865 212.505 128.23 212.392 127.552C212.152 126.908 212.094 126.211 212.224 125.536C212.496 126.146 212.687 126.789 212.792 127.448C213.031 128.072 213.182 128.726 213.24 129.392Z" fill="white"/>
<path d="M217.071 113.28C216.504 113.941 215.84 114.513 215.103 114.976C214.439 115.544 213.692 116.006 212.887 116.344C213.45 115.677 214.114 115.102 214.855 114.64C215.513 114.067 216.262 113.608 217.071 113.28Z" fill="white"/>
<path d="M217.768 108.232C217.704 108.32 216.968 107.872 216.304 107.016C215.847 106.545 215.565 105.933 215.504 105.28C215.616 105.232 216.008 105.968 216.616 106.76C217.224 107.552 217.84 108.136 217.768 108.232Z" fill="white"/>
<path d="M223.632 119.312C223.58 118.461 223.664 117.608 223.88 116.784C223.966 115.936 224.184 115.107 224.528 114.328C224.586 115.178 224.505 116.032 224.288 116.856C224.203 117.705 223.981 118.534 223.632 119.312Z" fill="white"/>
<path d="M227.27 126.8C226.517 126.737 225.782 126.536 225.102 126.208C224.374 126.009 223.69 125.675 223.086 125.224C223.838 125.292 224.572 125.492 225.254 125.816C225.98 126.02 226.662 126.354 227.27 126.8Z" fill="white"/>
<path d="M226.334 137.784C225.864 137.241 225.5 136.614 225.262 135.936C224.9 135.313 224.664 134.626 224.566 133.912C225.402 135.075 226.002 136.391 226.334 137.784Z" fill="white"/>
<path d="M238.399 131.656C237.831 132.432 237.197 133.157 236.503 133.824C235.91 134.586 235.251 135.296 234.535 135.944C234.925 135.044 235.488 134.228 236.191 133.544C236.795 132.775 237.545 132.133 238.399 131.656Z" fill="white"/>
<path d="M245.832 133.36C245.166 132.928 244.577 132.387 244.088 131.76C243.504 131.215 243.017 130.574 242.648 129.864C243.909 130.839 244.991 132.024 245.848 133.368L245.832 133.36Z" fill="white"/>
<path d="M261.345 112.84V108.32H258.969L262.617 103.208L266.265 108.32H263.977V112.84H261.345Z" fill="#FF725E"/>
<path d="M256.48 116.696V113.536H254.816L257.376 109.96L259.928 113.536H258.328V116.696H256.48Z" fill="#FF725E"/>
<path d="M225.943 239.104C225.814 239.133 225.683 239.154 225.551 239.168L224.375 239.32C223.855 239.368 223.215 239.456 222.463 239.592C221.711 239.728 220.863 239.848 219.871 240.072C210.473 242.042 201.751 246.429 194.567 252.8C191.189 255.824 188.213 259.268 185.711 263.048C179.885 271.86 176.724 282.165 176.607 292.728V293.432L176.231 292.84C174.158 289.669 171.548 286.883 168.519 284.608C158.439 277.048 145.775 274.272 135.063 276.096L133.079 276.512C132.75 276.569 132.426 276.655 132.111 276.768L131.159 277.072C130.535 277.288 129.887 277.44 129.295 277.704L127.503 278.504C126.912 278.754 126.335 279.037 125.775 279.352L124.103 280.24L122.503 281.232C121.977 281.547 121.47 281.892 120.983 282.264C117.341 284.915 114.127 288.109 111.455 291.736C109.256 294.73 107.379 297.948 105.855 301.336L104.919 303.52C104.639 304.224 104.399 304.92 104.159 305.584C103.647 306.896 103.359 308.144 102.975 309.24C102.367 311.472 101.951 313.24 101.743 314.424C101.631 315.008 101.543 315.464 101.479 315.784C101.415 316.104 101.375 316.248 101.375 316.248C101.387 316.089 101.409 315.932 101.439 315.776C101.487 315.456 101.567 314.976 101.663 314.408C101.962 312.654 102.35 310.915 102.823 309.2C103.159 308.088 103.463 306.8 103.967 305.512C104.207 304.856 104.439 304.152 104.719 303.44L105.647 301.24C107.164 297.823 109.042 294.578 111.247 291.56C113.93 287.881 117.169 284.643 120.847 281.96C121.337 281.585 121.847 281.238 122.375 280.92L123.975 279.904L125.663 279.008C126.226 278.686 126.808 278.4 127.407 278.152L129.215 277.352C129.815 277.08 130.471 276.928 131.103 276.704L132.063 276.4C132.383 276.284 132.712 276.196 133.047 276.136L135.055 275.712C145.887 273.848 158.639 276.632 168.823 284.272C171.892 286.577 174.535 289.4 176.631 292.616L176.255 292.72C176.373 282.079 179.571 271.701 185.463 262.84C187.986 259.04 190.989 255.582 194.399 252.552C197.35 249.948 200.568 247.664 203.999 245.736C208.947 242.973 214.297 241.002 219.855 239.896C220.831 239.68 221.703 239.56 222.463 239.448C223.223 239.336 223.863 239.248 224.383 239.208L225.559 239.096C225.807 239.104 225.943 239.104 225.943 239.104Z" fill="#263238"/>
<path d="M353.569 246.08H298.969V384.216H353.569V246.08Z" fill="#FF725E"/>
<g opacity="0.3">
<path opacity="0.3" d="M353.569 246.08H298.969V384.216H353.569V246.08Z" fill="#111111"/>
</g>
<path d="M340.225 246.08H285.625V384.216H340.225V246.08Z" fill="#FF725E"/>
<path d="M353.598 252.416C353.481 252.7 353.331 252.968 353.15 253.216L351.798 255.344C350.646 257.136 349.03 259.584 347.214 262.28C345.398 264.976 343.734 267.4 342.51 269.136C341.891 270.107 341.193 271.025 340.422 271.88C340.452 271.807 340.489 271.737 340.534 271.672L340.894 271.088C341.27 270.512 341.694 269.808 342.262 268.968C343.43 267.192 345.054 264.736 346.87 262.048C348.686 259.36 350.342 256.928 351.558 255.184L353.014 253.128C353.179 252.868 353.375 252.629 353.598 252.416Z" fill="#FF725E"/>
<path d="M353.598 277.296C353.481 277.58 353.331 277.848 353.15 278.096L351.798 280.224C350.646 282.016 349.03 284.464 347.214 287.16C345.398 289.856 343.734 292.272 342.51 294.016C341.891 294.987 341.193 295.905 340.422 296.76C340.452 296.685 340.49 296.612 340.534 296.544C340.646 296.368 340.766 296.184 340.894 295.96C341.27 295.392 341.694 294.68 342.262 293.848C343.43 292.064 345.054 289.616 346.87 286.928C348.686 284.24 350.342 281.808 351.558 280.064L353.014 278.008C353.179 277.748 353.375 277.509 353.598 277.296Z" fill="#FF725E"/>
<path d="M353.598 302.168C353.48 302.451 353.329 302.719 353.15 302.968L351.798 305.096C350.646 306.88 349.03 309.336 347.214 312.032C345.398 314.728 343.734 317.144 342.51 318.88C341.893 319.854 341.194 320.775 340.422 321.632C340.452 321.557 340.49 321.484 340.534 321.416L340.894 320.832L342.262 318.72C343.43 316.936 345.054 314.488 346.87 311.792C348.686 309.096 350.342 306.68 351.558 304.928L353.014 302.88C353.181 302.622 353.377 302.383 353.598 302.168Z" fill="#FF725E"/>
<path d="M353.598 327.048C353.48 327.331 353.329 327.599 353.15 327.848L351.798 329.976C350.646 331.76 349.03 334.216 347.214 336.904C345.398 339.592 343.734 342.024 342.51 343.76C341.894 344.733 341.196 345.651 340.422 346.504C340.456 346.433 340.493 346.363 340.534 346.296C340.646 346.12 340.766 345.928 340.894 345.712L342.262 343.6C343.43 341.816 345.054 339.368 346.87 336.672C348.686 333.976 350.342 331.552 351.558 329.808L353.014 327.752C353.18 327.495 353.376 327.259 353.598 327.048Z" fill="#FF725E"/>
<path d="M353.598 351.928C353.481 352.212 353.331 352.48 353.15 352.728L351.798 354.864C350.646 356.648 349.03 359.104 347.214 361.792C345.398 364.48 343.734 366.912 342.51 368.648C341.891 369.619 341.193 370.537 340.422 371.392C340.456 371.321 340.493 371.251 340.534 371.184L340.894 370.6C341.27 370.024 341.694 369.32 342.262 368.48C343.43 366.704 345.054 364.256 346.87 361.56C348.686 358.864 350.342 356.44 351.558 354.696L353.014 352.64C353.179 352.38 353.375 352.141 353.598 351.928Z" fill="#FF725E"/>
<path d="M353.601 376.8C352.892 378.23 352.06 379.595 351.113 380.88C350.279 382.242 349.329 383.529 348.273 384.728C348.985 383.298 349.82 381.933 350.769 380.648C351.597 379.284 352.545 377.996 353.601 376.8Z" fill="#FF725E"/>
<path d="M277.432 271.888H222.832V384.216H277.432V271.888Z" fill="#FF725E"/>
<g opacity="0.3">
<path opacity="0.3" d="M277.432 271.888H222.832V384.216H277.432V271.888Z" fill="#111111"/>
</g>
<path d="M264.088 271.888H209.488V384.216H264.088V271.888Z" fill="#FF725E"/>
<path d="M277.43 276.384C277.312 276.667 277.161 276.935 276.982 277.184L275.63 279.328C274.478 281.128 272.862 283.608 271.046 286.32C269.23 289.032 267.566 291.48 266.342 293.232C265.722 294.213 265.024 295.141 264.254 296.008C264.28 295.931 264.318 295.858 264.366 295.792C264.478 295.616 264.59 295.424 264.726 295.2L266.094 293.072C267.262 291.272 268.886 288.808 270.702 286.088C272.518 283.368 274.166 280.928 275.39 279.168L276.846 277.096C277.011 276.836 277.207 276.597 277.43 276.384Z" fill="#FF725E"/>
<path d="M277.43 301.472C277.312 301.755 277.161 302.023 276.982 302.272L275.63 304.416C274.478 306.224 272.862 308.696 271.046 311.408C269.23 314.12 267.566 316.568 266.342 318.32C265.725 319.302 265.027 320.231 264.254 321.096C264.28 321.019 264.318 320.946 264.366 320.88L264.726 320.296C265.094 319.712 265.526 319 266.094 318.16C267.262 316.36 268.886 313.896 270.702 311.176C272.518 308.456 274.166 306.016 275.39 304.256L276.846 302.184C277.011 301.924 277.207 301.685 277.43 301.472Z" fill="#FF725E"/>
<path d="M277.43 326.56C277.312 326.843 277.161 327.111 276.982 327.36L275.63 329.512C274.478 331.312 272.862 333.784 271.046 336.496C269.23 339.208 267.566 341.656 266.342 343.416C265.724 344.395 265.026 345.321 264.254 346.184C264.28 346.107 264.318 346.034 264.366 345.968L264.726 345.384C265.094 344.8 265.526 344.088 266.094 343.248C267.262 341.456 268.886 338.984 270.702 336.264C272.518 333.544 274.166 331.104 275.39 329.344L276.846 327.272C277.013 327.014 277.209 326.775 277.43 326.56Z" fill="#FF725E"/>
<path d="M277.43 351.648C277.312 351.931 277.161 352.199 276.982 352.448L275.63 354.6C274.478 356.4 272.862 358.872 271.046 361.592C269.23 364.312 267.566 366.752 266.342 368.504C265.724 369.483 265.026 370.409 264.254 371.272C264.28 371.195 264.318 371.122 264.366 371.056L264.726 370.472C265.094 369.896 265.526 369.184 266.094 368.336C267.262 366.544 268.886 364.072 270.702 361.36C272.518 358.648 274.166 356.192 275.39 354.432L276.846 352.36C277.013 352.102 277.209 351.863 277.43 351.648Z" fill="#FF725E"/>
<path d="M277.433 376.736C276.725 378.176 275.893 379.552 274.945 380.848C274.112 382.223 273.162 383.524 272.105 384.736C272.814 383.296 273.646 381.92 274.593 380.624C275.427 379.249 276.377 377.948 277.433 376.736Z" fill="#FF725E"/>
<path d="M200.897 301.472H146.297V384.216H200.897V301.472Z" fill="#FF725E"/>
<g opacity="0.3">
<path opacity="0.3" d="M200.897 301.472H146.297V384.216H200.897V301.472Z" fill="#111111"/>
</g>
<path d="M187.553 301.472H132.953V384.216H187.553V301.472Z" fill="#FF725E"/>
<path d="M200.889 301.472C200.771 301.755 200.62 302.023 200.441 302.272C200.081 302.856 199.641 303.568 199.097 304.416C197.937 306.224 196.321 308.696 194.505 311.408C192.689 314.12 191.025 316.568 189.801 318.32C189.188 319.303 188.492 320.232 187.721 321.096C187.721 321.096 187.721 321.016 187.833 320.88L188.193 320.296C188.561 319.715 189.017 319.003 189.561 318.16C190.721 316.36 192.345 313.896 194.161 311.176C195.977 308.456 197.633 306.016 198.849 304.256L200.313 302.184C200.477 301.925 200.67 301.686 200.889 301.472Z" fill="#FF725E"/>
<path d="M200.889 326.56C200.771 326.843 200.62 327.111 200.441 327.36L199.097 329.512C197.937 331.312 196.321 333.784 194.505 336.496C192.689 339.208 191.025 341.656 189.801 343.416C189.187 344.396 188.491 345.322 187.721 346.184C187.721 346.184 187.721 346.104 187.833 345.968L188.193 345.384C188.561 344.797 189.017 344.085 189.561 343.248C190.721 341.456 192.345 338.984 194.161 336.264C195.977 333.544 197.633 331.104 198.849 329.344L200.313 327.272C200.479 327.015 200.672 326.777 200.889 326.56Z" fill="#FF725E"/>
<path d="M200.889 351.648C200.771 351.931 200.62 352.199 200.441 352.448L199.097 354.6C197.937 356.4 196.321 358.872 194.505 361.592C192.689 364.312 191.025 366.752 189.801 368.504C189.187 369.484 188.491 370.41 187.721 371.272C187.721 371.272 187.721 371.192 187.833 371.056L188.193 370.472L189.561 368.336C190.721 366.544 192.345 364.072 194.161 361.36C195.977 358.648 197.633 356.192 198.849 354.432L200.313 352.36C200.479 352.103 200.672 351.865 200.889 351.648Z" fill="#FF725E"/>
<path d="M200.888 376.736C200.18 378.176 199.348 379.552 198.4 380.848C197.568 382.222 196.62 383.522 195.568 384.736C196.277 383.296 197.109 381.92 198.056 380.624C198.889 379.25 199.836 377.95 200.888 376.736Z" fill="#FF725E"/>
<path d="M124.352 326.56H69.752V384.216H124.352V326.56Z" fill="#FF725E"/>
<g opacity="0.3">
<path opacity="0.3" d="M124.352 326.56H69.752V384.216H124.352V326.56Z" fill="#111111"/>
</g>
<path d="M111.008 326.56H56.4082V384.216H111.008V326.56Z" fill="#FF725E"/>
<path d="M124.352 326.56C124.234 326.843 124.083 327.111 123.904 327.36L122.552 329.512C121.4 331.312 119.776 333.784 117.968 336.496C116.16 339.208 114.488 341.656 113.264 343.416C112.646 344.395 111.948 345.321 111.176 346.184C111.202 346.107 111.24 346.034 111.288 345.968L111.648 345.384C112.016 344.8 112.448 344.088 113.016 343.248C114.184 341.456 115.808 338.984 117.616 336.264C119.424 333.544 121.088 331.104 122.312 329.344L123.768 327.272C123.935 327.014 124.131 326.775 124.352 326.56Z" fill="#FF725E"/>
<path d="M124.352 351.648C124.234 351.931 124.083 352.199 123.904 352.448L122.552 354.6C121.4 356.4 119.776 358.872 117.968 361.592C116.16 364.312 114.488 366.752 113.264 368.504C112.646 369.483 111.948 370.409 111.176 371.272C111.202 371.195 111.24 371.122 111.288 371.056L111.648 370.472C112.016 369.896 112.448 369.184 113.016 368.336C114.184 366.544 115.808 364.072 117.616 361.36C119.424 358.648 121.088 356.192 122.312 354.432L123.768 352.36C123.935 352.102 124.131 351.863 124.352 351.648Z" fill="#FF725E"/>
<path d="M124.351 376.736C123.639 378.174 122.807 379.55 121.863 380.848C121.03 382.223 120.08 383.524 119.023 384.736C119.732 383.296 120.564 381.92 121.511 380.624C122.345 379.249 123.295 377.948 124.351 376.736Z" fill="#FF725E"/>
<path d="M379.295 384.224C379.295 384.336 299.015 384.432 200.007 384.432C100.999 384.432 20.7031 384.336 20.7031 384.224C20.7031 384.112 100.967 384 199.999 384C299.031 384 379.295 384.104 379.295 384.224Z" fill="#263238"/>
<path d="M124.155 400V390.047H126.965C127.831 390.047 128.596 390.238 129.262 390.621C129.927 391.004 130.44 391.549 130.8 392.255C131.164 392.961 131.349 393.772 131.354 394.688V395.324C131.354 396.263 131.171 397.086 130.807 397.792C130.447 398.498 129.929 399.041 129.255 399.419C128.585 399.797 127.803 399.991 126.91 400H124.155ZM125.468 391.127V398.927H126.849C127.86 398.927 128.646 398.612 129.207 397.983C129.772 397.354 130.055 396.459 130.055 395.297V394.716C130.055 393.586 129.788 392.708 129.255 392.084C128.726 391.455 127.974 391.136 126.999 391.127H125.468ZM136.214 400.137C135.211 400.137 134.396 399.809 133.767 399.152C133.138 398.492 132.823 397.61 132.823 396.507V396.274C132.823 395.541 132.962 394.887 133.24 394.312C133.523 393.734 133.915 393.283 134.416 392.959C134.922 392.631 135.469 392.467 136.057 392.467C137.018 392.467 137.766 392.784 138.299 393.417C138.832 394.05 139.099 394.957 139.099 396.138V396.664H134.088C134.106 397.393 134.318 397.983 134.724 398.435C135.134 398.881 135.653 399.104 136.282 399.104C136.729 399.104 137.107 399.013 137.417 398.831C137.727 398.649 137.998 398.407 138.23 398.106L139.003 398.708C138.383 399.66 137.453 400.137 136.214 400.137ZM136.057 393.506C135.546 393.506 135.118 393.693 134.771 394.066C134.425 394.436 134.211 394.955 134.129 395.625H137.834V395.529C137.798 394.887 137.624 394.39 137.314 394.039C137.005 393.684 136.585 393.506 136.057 393.506ZM144.875 398.038C144.875 397.696 144.745 397.432 144.485 397.245C144.23 397.054 143.781 396.89 143.139 396.753C142.501 396.616 141.993 396.452 141.614 396.261C141.241 396.069 140.963 395.841 140.78 395.577C140.603 395.313 140.514 394.998 140.514 394.634C140.514 394.028 140.769 393.515 141.279 393.096C141.794 392.676 142.451 392.467 143.248 392.467C144.087 392.467 144.766 392.683 145.285 393.116C145.809 393.549 146.071 394.103 146.071 394.777H144.8C144.8 394.431 144.652 394.132 144.355 393.882C144.064 393.631 143.695 393.506 143.248 393.506C142.788 393.506 142.428 393.606 142.168 393.807C141.908 394.007 141.778 394.269 141.778 394.593C141.778 394.898 141.899 395.128 142.141 395.283C142.382 395.438 142.817 395.586 143.446 395.728C144.08 395.869 144.592 396.037 144.984 396.233C145.376 396.429 145.666 396.666 145.853 396.944C146.044 397.218 146.14 397.553 146.14 397.949C146.14 398.61 145.875 399.141 145.347 399.542C144.818 399.938 144.132 400.137 143.289 400.137C142.697 400.137 142.173 400.032 141.717 399.822C141.261 399.613 140.903 399.321 140.644 398.947C140.388 398.569 140.261 398.161 140.261 397.724H141.525C141.548 398.147 141.717 398.485 142.031 398.735C142.35 398.981 142.77 399.104 143.289 399.104C143.768 399.104 144.15 399.009 144.438 398.817C144.729 398.621 144.875 398.362 144.875 398.038ZM149.161 400H147.896V392.604H149.161V400ZM147.794 390.642C147.794 390.437 147.855 390.263 147.979 390.122C148.106 389.981 148.293 389.91 148.539 389.91C148.785 389.91 148.972 389.981 149.1 390.122C149.227 390.263 149.291 390.437 149.291 390.642C149.291 390.847 149.227 391.018 149.1 391.154C148.972 391.291 148.785 391.359 148.539 391.359C148.293 391.359 148.106 391.291 147.979 391.154C147.855 391.018 147.794 390.847 147.794 390.642ZM150.891 396.24C150.891 395.087 151.157 394.171 151.69 393.492C152.224 392.809 152.93 392.467 153.81 392.467C154.712 392.467 155.416 392.786 155.922 393.424L155.983 392.604H157.139V399.822C157.139 400.779 156.854 401.534 156.284 402.085C155.719 402.636 154.958 402.912 154.001 402.912C153.468 402.912 152.946 402.798 152.436 402.57C151.925 402.342 151.535 402.03 151.267 401.634L151.923 400.875C152.465 401.545 153.128 401.88 153.912 401.88C154.527 401.88 155.006 401.707 155.348 401.36C155.694 401.014 155.867 400.526 155.867 399.897V399.262C155.361 399.845 154.671 400.137 153.796 400.137C152.93 400.137 152.228 399.788 151.69 399.091C151.157 398.394 150.891 397.443 150.891 396.24ZM152.162 396.384C152.162 397.218 152.333 397.874 152.675 398.353C153.017 398.826 153.495 399.063 154.11 399.063C154.908 399.063 155.493 398.701 155.867 397.977V394.6C155.48 393.893 154.899 393.54 154.124 393.54C153.509 393.54 153.028 393.779 152.682 394.258C152.335 394.736 152.162 395.445 152.162 396.384ZM160.249 392.604L160.29 393.533C160.855 392.822 161.593 392.467 162.505 392.467C164.068 392.467 164.856 393.349 164.87 395.112V400H163.605V395.105C163.601 394.572 163.478 394.178 163.236 393.923C162.999 393.668 162.628 393.54 162.122 393.54C161.712 393.54 161.352 393.649 161.042 393.868C160.732 394.087 160.491 394.374 160.317 394.729V400H159.053V392.604H160.249ZM169.847 400.137C168.844 400.137 168.028 399.809 167.399 399.152C166.771 398.492 166.456 397.61 166.456 396.507V396.274C166.456 395.541 166.595 394.887 166.873 394.312C167.156 393.734 167.548 393.283 168.049 392.959C168.555 392.631 169.102 392.467 169.689 392.467C170.651 392.467 171.398 392.784 171.932 393.417C172.465 394.05 172.731 394.957 172.731 396.138V396.664H167.721C167.739 397.393 167.951 397.983 168.356 398.435C168.767 398.881 169.286 399.104 169.915 399.104C170.362 399.104 170.74 399.013 171.05 398.831C171.36 398.649 171.631 398.407 171.863 398.106L172.636 398.708C172.016 399.66 171.086 400.137 169.847 400.137ZM169.689 393.506C169.179 393.506 168.751 393.693 168.404 394.066C168.058 394.436 167.844 394.955 167.762 395.625H171.467V395.529C171.43 394.887 171.257 394.39 170.947 394.039C170.637 393.684 170.218 393.506 169.689 393.506ZM173.894 396.24C173.894 395.105 174.162 394.194 174.7 393.506C175.238 392.813 175.942 392.467 176.812 392.467C177.678 392.467 178.364 392.763 178.87 393.355V389.5H180.135V400H178.973L178.911 399.207C178.405 399.827 177.701 400.137 176.799 400.137C175.942 400.137 175.243 399.786 174.7 399.084C174.162 398.382 173.894 397.466 173.894 396.336V396.24ZM175.158 396.384C175.158 397.222 175.331 397.879 175.678 398.353C176.024 398.826 176.503 399.063 177.113 399.063C177.915 399.063 178.501 398.703 178.87 397.983V394.586C178.492 393.889 177.911 393.54 177.127 393.54C176.507 393.54 176.024 393.779 175.678 394.258C175.331 394.736 175.158 395.445 175.158 396.384ZM191.838 396.384C191.838 397.514 191.578 398.423 191.059 399.111C190.539 399.795 189.842 400.137 188.967 400.137C188.033 400.137 187.31 399.806 186.8 399.146L186.738 400H185.576V389.5H186.841V393.417C187.351 392.784 188.055 392.467 188.953 392.467C189.851 392.467 190.555 392.806 191.065 393.485C191.58 394.164 191.838 395.094 191.838 396.274V396.384ZM190.573 396.24C190.573 395.379 190.407 394.714 190.074 394.244C189.742 393.775 189.263 393.54 188.639 393.54C187.805 393.54 187.205 393.927 186.841 394.702V397.901C187.228 398.676 187.832 399.063 188.652 399.063C189.258 399.063 189.73 398.829 190.067 398.359C190.405 397.89 190.573 397.184 190.573 396.24ZM195.775 398.147L197.498 392.604H198.852L195.878 401.142C195.418 402.372 194.686 402.987 193.684 402.987L193.444 402.967L192.973 402.878V401.853L193.314 401.88C193.743 401.88 194.076 401.793 194.312 401.62C194.554 401.447 194.752 401.13 194.907 400.67L195.188 399.918L192.549 392.604H193.93L195.775 398.147ZM207.766 398.038C207.766 397.696 207.636 397.432 207.376 397.245C207.121 397.054 206.672 396.89 206.029 396.753C205.391 396.616 204.883 396.452 204.505 396.261C204.131 396.069 203.853 395.841 203.671 395.577C203.493 395.313 203.404 394.998 203.404 394.634C203.404 394.028 203.66 393.515 204.17 393.096C204.685 392.676 205.341 392.467 206.139 392.467C206.977 392.467 207.656 392.683 208.176 393.116C208.7 393.549 208.962 394.103 208.962 394.777H207.69C207.69 394.431 207.542 394.132 207.246 393.882C206.954 393.631 206.585 393.506 206.139 393.506C205.678 393.506 205.318 393.606 205.059 393.807C204.799 394.007 204.669 394.269 204.669 394.593C204.669 394.898 204.79 395.128 205.031 395.283C205.273 395.438 205.708 395.586 206.337 395.728C206.97 395.869 207.483 396.037 207.875 396.233C208.267 396.429 208.556 396.666 208.743 396.944C208.935 397.218 209.03 397.553 209.03 397.949C209.03 398.61 208.766 399.141 208.237 399.542C207.709 399.938 207.023 400.137 206.18 400.137C205.587 400.137 205.063 400.032 204.607 399.822C204.152 399.613 203.794 399.321 203.534 398.947C203.279 398.569 203.151 398.161 203.151 397.724H204.416C204.439 398.147 204.607 398.485 204.922 398.735C205.241 398.981 205.66 399.104 206.18 399.104C206.658 399.104 207.041 399.009 207.328 398.817C207.62 398.621 207.766 398.362 207.766 398.038ZM212.394 390.812V392.604H213.774V393.581H212.394V398.168C212.394 398.464 212.455 398.688 212.578 398.838C212.701 398.984 212.911 399.057 213.207 399.057C213.353 399.057 213.553 399.029 213.809 398.975V400C213.476 400.091 213.152 400.137 212.838 400.137C212.273 400.137 211.847 399.966 211.56 399.624C211.272 399.282 211.129 398.797 211.129 398.168V393.581H209.782V392.604H211.129V390.812H212.394ZM214.786 396.233C214.786 395.509 214.927 394.857 215.21 394.278C215.497 393.7 215.894 393.253 216.399 392.938C216.91 392.624 217.491 392.467 218.143 392.467C219.15 392.467 219.963 392.815 220.583 393.513C221.207 394.21 221.52 395.137 221.52 396.295V396.384C221.52 397.104 221.381 397.751 221.103 398.325C220.829 398.895 220.435 399.339 219.92 399.658C219.41 399.977 218.822 400.137 218.156 400.137C217.154 400.137 216.34 399.788 215.716 399.091C215.096 398.394 214.786 397.471 214.786 396.322V396.233ZM216.058 396.384C216.058 397.204 216.247 397.863 216.625 398.359C217.008 398.856 217.518 399.104 218.156 399.104C218.799 399.104 219.309 398.854 219.688 398.353C220.066 397.847 220.255 397.14 220.255 396.233C220.255 395.422 220.061 394.766 219.674 394.265C219.291 393.759 218.781 393.506 218.143 393.506C217.518 393.506 217.015 393.754 216.632 394.251C216.249 394.748 216.058 395.459 216.058 396.384ZM226.681 393.738C226.489 393.706 226.282 393.69 226.059 393.69C225.229 393.69 224.666 394.044 224.37 394.75V400H223.105V392.604H224.336L224.356 393.458C224.771 392.797 225.359 392.467 226.12 392.467C226.366 392.467 226.553 392.499 226.681 392.562V393.738ZM229.224 400H227.959V392.604H229.224V400ZM227.856 390.642C227.856 390.437 227.918 390.263 228.041 390.122C228.169 389.981 228.355 389.91 228.602 389.91C228.848 389.91 229.035 389.981 229.162 390.122C229.29 390.263 229.354 390.437 229.354 390.642C229.354 390.847 229.29 391.018 229.162 391.154C229.035 391.291 228.848 391.359 228.602 391.359C228.355 391.359 228.169 391.291 228.041 391.154C227.918 391.018 227.856 390.847 227.856 390.642ZM234.323 400.137C233.321 400.137 232.505 399.809 231.876 399.152C231.247 398.492 230.933 397.61 230.933 396.507V396.274C230.933 395.541 231.072 394.887 231.35 394.312C231.632 393.734 232.024 393.283 232.525 392.959C233.031 392.631 233.578 392.467 234.166 392.467C235.128 392.467 235.875 392.784 236.408 393.417C236.941 394.05 237.208 394.957 237.208 396.138V396.664H232.197C232.215 397.393 232.427 397.983 232.833 398.435C233.243 398.881 233.763 399.104 234.392 399.104C234.838 399.104 235.216 399.013 235.526 398.831C235.836 398.649 236.107 398.407 236.34 398.106L237.112 398.708C236.493 399.66 235.563 400.137 234.323 400.137ZM234.166 393.506C233.656 393.506 233.227 393.693 232.881 394.066C232.535 394.436 232.32 394.955 232.238 395.625H235.943V395.529C235.907 394.887 235.734 394.39 235.424 394.039C235.114 393.684 234.695 393.506 234.166 393.506ZM242.984 398.038C242.984 397.696 242.854 397.432 242.595 397.245C242.34 397.054 241.891 396.89 241.248 396.753C240.61 396.616 240.102 396.452 239.724 396.261C239.35 396.069 239.072 395.841 238.89 395.577C238.712 395.313 238.623 394.998 238.623 394.634C238.623 394.028 238.878 393.515 239.389 393.096C239.904 392.676 240.56 392.467 241.357 392.467C242.196 392.467 242.875 392.683 243.395 393.116C243.919 393.549 244.181 394.103 244.181 394.777H242.909C242.909 394.431 242.761 394.132 242.465 393.882C242.173 393.631 241.804 393.506 241.357 393.506C240.897 393.506 240.537 393.606 240.277 393.807C240.018 394.007 239.888 394.269 239.888 394.593C239.888 394.898 240.008 395.128 240.25 395.283C240.492 395.438 240.927 395.586 241.556 395.728C242.189 395.869 242.702 396.037 243.094 396.233C243.486 396.429 243.775 396.666 243.962 396.944C244.153 397.218 244.249 397.553 244.249 397.949C244.249 398.61 243.985 399.141 243.456 399.542C242.927 399.938 242.242 400.137 241.398 400.137C240.806 400.137 240.282 400.032 239.826 399.822C239.37 399.613 239.013 399.321 238.753 398.947C238.498 398.569 238.37 398.161 238.37 397.724H239.635C239.658 398.147 239.826 398.485 240.141 398.735C240.46 398.981 240.879 399.104 241.398 399.104C241.877 399.104 242.26 399.009 242.547 398.817C242.839 398.621 242.984 398.362 242.984 398.038ZM249.622 400.854H248.535L252.691 390.047H253.771L249.622 400.854ZM264.299 395.604H260.122V400H258.81V390.047H264.976V391.127H260.122V394.531H264.299V395.604ZM269.747 393.738C269.556 393.706 269.348 393.69 269.125 393.69C268.296 393.69 267.733 394.044 267.437 394.75V400H266.172V392.604H267.402L267.423 393.458C267.838 392.797 268.425 392.467 269.187 392.467C269.433 392.467 269.619 392.499 269.747 392.562V393.738ZM273.849 400.137C272.846 400.137 272.03 399.809 271.401 399.152C270.772 398.492 270.458 397.61 270.458 396.507V396.274C270.458 395.541 270.597 394.887 270.875 394.312C271.158 393.734 271.549 393.283 272.051 392.959C272.557 392.631 273.104 392.467 273.691 392.467C274.653 392.467 275.4 392.784 275.934 393.417C276.467 394.05 276.733 394.957 276.733 396.138V396.664H271.723C271.741 397.393 271.953 397.983 272.358 398.435C272.769 398.881 273.288 399.104 273.917 399.104C274.364 399.104 274.742 399.013 275.052 398.831C275.362 398.649 275.633 398.407 275.865 398.106L276.638 398.708C276.018 399.66 275.088 400.137 273.849 400.137ZM273.691 393.506C273.181 393.506 272.753 393.693 272.406 394.066C272.06 394.436 271.846 394.955 271.764 395.625H275.469V395.529C275.432 394.887 275.259 394.39 274.949 394.039C274.639 393.684 274.22 393.506 273.691 393.506ZM281.272 400.137C280.27 400.137 279.454 399.809 278.825 399.152C278.196 398.492 277.882 397.61 277.882 396.507V396.274C277.882 395.541 278.021 394.887 278.299 394.312C278.581 393.734 278.973 393.283 279.475 392.959C279.98 392.631 280.527 392.467 281.115 392.467C282.077 392.467 282.824 392.784 283.357 393.417C283.891 394.05 284.157 394.957 284.157 396.138V396.664H279.146C279.165 397.393 279.377 397.983 279.782 398.435C280.192 398.881 280.712 399.104 281.341 399.104C281.787 399.104 282.166 399.013 282.476 398.831C282.785 398.649 283.057 398.407 283.289 398.106L284.062 398.708C283.442 399.66 282.512 400.137 281.272 400.137ZM281.115 393.506C280.605 393.506 280.176 393.693 279.83 394.066C279.484 394.436 279.27 394.955 279.188 395.625H282.893V395.529C282.856 394.887 282.683 394.39 282.373 394.039C282.063 393.684 281.644 393.506 281.115 393.506ZM291.875 396.384C291.875 397.509 291.618 398.416 291.103 399.104C290.588 399.793 289.89 400.137 289.011 400.137C288.113 400.137 287.407 399.852 286.892 399.282V402.844H285.627V392.604H286.782L286.844 393.424C287.359 392.786 288.074 392.467 288.99 392.467C289.879 392.467 290.581 392.802 291.096 393.472C291.615 394.142 291.875 395.074 291.875 396.268V396.384ZM290.61 396.24C290.61 395.406 290.433 394.748 290.077 394.265C289.722 393.782 289.234 393.54 288.614 393.54C287.849 393.54 287.274 393.88 286.892 394.559V398.093C287.27 398.767 287.849 399.104 288.628 399.104C289.234 399.104 289.715 398.865 290.07 398.387C290.43 397.904 290.61 397.188 290.61 396.24ZM294.862 400H293.598V392.604H294.862V400ZM293.495 390.642C293.495 390.437 293.557 390.263 293.68 390.122C293.807 389.981 293.994 389.91 294.24 389.91C294.486 389.91 294.673 389.981 294.801 390.122C294.928 390.263 294.992 390.437 294.992 390.642C294.992 390.847 294.928 391.018 294.801 391.154C294.673 391.291 294.486 391.359 294.24 391.359C293.994 391.359 293.807 391.291 293.68 391.154C293.557 391.018 293.495 390.847 293.495 390.642ZM298.957 396.575L298.164 397.402V400H296.899V389.5H298.164V395.851L298.841 395.037L301.145 392.604H302.683L299.805 395.693L303.018 400H301.534L298.957 396.575Z" fill="#ACA9A9"/>
</svg>
