<svg width="450" height="393" viewBox="0 0 450 393" fill="none" xmlns="http://www.w3.org/2000/svg">
<path d="M131.398 328.38C145.708 317.805 148.417 298.968 147.292 282.156C147.103 279.348 147.292 276.369 145.888 273.957C144.484 271.545 141.235 269.952 138.688 271.257C136.609 272.31 135.763 274.767 134.647 276.81C133.147 279.549 130.904 281.807 128.176 283.326C126.376 284.316 124.162 284.964 122.344 284.046C119.842 282.786 119.446 279.447 119.374 276.657L118.969 261.024C118.888 258.225 118.807 255.372 117.844 252.753C116.881 250.134 114.847 247.731 112.129 247.074C109.411 246.417 106.135 248.064 105.649 250.818C105.568 251.978 105.568 253.141 105.649 254.301C105.649 255.462 105.1 256.767 103.993 257.127C102.886 257.487 101.716 256.731 100.843 255.948C97.8275 253.248 95.7305 249.648 93.7595 246.093C91.7885 242.538 89.8625 238.893 87.1175 235.914C84.3725 232.935 80.6105 230.604 76.5515 230.514C72.4925 230.424 68.2535 233.034 67.3535 236.994C66.4535 240.954 68.9105 244.887 71.5475 247.992C75.4695 252.608 80.0377 256.634 85.1105 259.944C86.0918 260.434 86.89 261.226 87.3875 262.203C88.1975 264.012 86.3975 265.92 84.5975 266.595C82.5095 267.36 80.2145 267.216 78.0185 267.549C75.8225 267.882 73.4555 268.917 72.6815 271.005C71.6195 273.903 74.1395 276.81 76.5785 278.691C81.491 282.467 87.0124 285.377 92.9045 287.295C95.0105 287.979 97.2245 288.564 98.9525 289.95C100.681 291.336 101.77 293.82 100.825 295.827C99.8795 297.834 97.2875 298.527 95.0915 298.212C92.8955 297.897 90.9065 296.781 88.7915 296.079C84.8585 294.756 79.7915 295.179 77.4515 298.59C76.7301 299.754 76.2908 301.071 76.1689 302.435C76.0471 303.799 76.2459 305.173 76.7495 306.447C77.7837 308.978 79.3137 311.276 81.2495 313.206C87.6823 320.332 95.8859 325.629 105.028 328.56C114.154 331.35 122.542 331.917 131.407 328.38" fill="#EBEBEB"/>
<path d="M71.4141 232.989L71.6931 233.241L72.5931 233.952C73.3581 234.573 74.4831 235.491 75.8961 236.706C79.9094 240.136 83.6552 243.867 87.1011 247.866C89.2971 250.377 91.6011 253.266 93.9861 256.353C96.3711 259.44 98.9091 262.824 101.438 266.442C104.113 270.202 106.577 274.108 108.818 278.142C109.979 280.239 111.032 282.444 112.094 284.694L115.325 291.525C119.48 300.166 123.14 309.036 126.287 318.093C128.823 325.496 130.652 333.124 131.75 340.872C132.462 346.102 132.715 351.384 132.506 356.658C132.416 358.521 132.317 359.97 132.209 360.951C132.209 361.428 132.137 361.797 132.11 362.067C132.083 362.337 132.11 362.445 132.11 362.445C132.11 362.445 132.461 360.402 132.686 356.667C132.963 351.382 132.752 346.083 132.056 340.836C131.001 333.056 129.193 325.397 126.656 317.967C123.523 308.89 119.869 300.001 115.712 291.345C114.614 289.041 113.543 286.764 112.472 284.514C111.401 282.264 110.357 280.014 109.187 277.944C106.91 273.9 104.41 269.985 101.699 266.217C99.1521 262.617 96.6051 259.251 94.1931 256.137C91.7811 253.023 89.4771 250.179 87.2631 247.668C83.8014 243.678 80.0275 239.971 75.9771 236.58C74.5461 235.383 73.4031 234.483 72.6201 233.88L71.7201 233.196L71.4141 232.989Z" fill="#E0E0E0"/>
<path d="M109.049 277.926C109.152 277.53 109.224 277.127 109.265 276.72C109.382 275.937 109.517 274.812 109.67 273.408C109.967 270.618 110.255 266.739 110.57 262.464C110.885 258.189 111.227 254.364 111.596 251.547C111.767 250.152 111.929 249.027 112.046 248.253C112.129 247.853 112.174 247.446 112.181 247.038C112.045 247.424 111.946 247.822 111.884 248.226C111.713 248.991 111.515 250.116 111.299 251.502C110.858 254.283 110.453 258.153 110.147 262.437C109.841 266.721 109.571 270.537 109.373 273.381C109.265 274.722 109.175 275.838 109.103 276.702C109.043 277.107 109.025 277.517 109.049 277.926Z" fill="#E0E0E0"/>
<path d="M72.4219 272.4C72.5438 272.44 72.6717 272.458 72.7999 272.454L73.8799 272.508C74.7799 272.553 76.1749 272.616 77.8489 272.742C81.1969 272.985 85.8139 273.471 90.8719 274.245C95.9299 275.019 100.484 275.928 103.76 276.675C105.398 277.044 106.712 277.368 107.621 277.575L108.674 277.836C108.797 277.872 108.924 277.893 109.052 277.899C108.943 277.833 108.825 277.785 108.701 277.755L107.666 277.422C106.766 277.143 105.461 276.774 103.823 276.369C100.565 275.541 96.0109 274.569 90.9349 273.804C85.8589 273.039 81.2329 272.589 77.8669 272.427C76.1929 272.337 74.8249 272.319 73.8889 272.328H72.7999C72.6715 272.337 72.5446 272.361 72.4219 272.4Z" fill="#E0E0E0"/>
<path d="M126.207 317.328C126.294 317.184 126.369 317.034 126.432 316.878C126.576 316.527 126.774 316.095 127.008 315.555C127.494 314.403 128.169 312.72 128.979 310.632C130.59 306.456 132.642 300.615 134.829 294.144C137.016 287.673 139.014 281.832 140.553 277.629C141.318 275.568 141.948 273.885 142.398 272.661C142.605 272.112 142.767 271.662 142.893 271.311C142.962 271.155 143.013 270.992 143.046 270.825C142.955 270.967 142.88 271.118 142.821 271.275L142.245 272.598C141.75 273.75 141.084 275.433 140.274 277.521C138.663 281.697 136.611 287.538 134.424 294.009C132.237 300.48 130.239 306.321 128.7 310.524C127.935 312.585 127.305 314.268 126.855 315.492C126.648 316.041 126.486 316.491 126.351 316.842C126.282 316.997 126.234 317.161 126.207 317.328Z" fill="#E0E0E0"/>
<path d="M77.3242 303.54C77.481 303.611 77.6436 303.668 77.8102 303.711L79.2322 304.116L84.4792 305.592C88.8982 306.834 94.9822 308.634 101.705 310.632C108.428 312.63 114.53 314.394 118.976 315.564C121.199 316.149 122.999 316.608 124.25 316.905L125.69 317.238C125.858 317.283 126.03 317.313 126.203 317.328C126.046 317.251 125.88 317.194 125.708 317.157L124.286 316.743L119.048 315.276C114.629 314.025 108.545 312.234 101.822 310.227C95.0992 308.22 88.9972 306.474 84.5962 305.304C82.3732 304.71 80.5732 304.251 79.3222 303.963L77.8822 303.63C77.701 303.575 77.5134 303.545 77.3242 303.54Z" fill="#E0E0E0"/>
<path d="M172.69 78.5581H29.6172V174.381H172.69V78.5581Z" fill="#EBEBEB"/>
<path d="M172.69 78.5581H29.6172V88.1341H172.69V78.5581Z" fill="#E0E0E0"/>
<path d="M35.8185 83.3461C35.8366 83.5787 35.7842 83.8114 35.6681 84.0138C35.552 84.2161 35.3776 84.3789 35.1677 84.4807C34.9578 84.5825 34.7221 84.6187 34.4913 84.5846C34.2605 84.5505 34.0453 84.4477 33.8738 84.2895C33.7023 84.1313 33.5825 83.9251 33.5299 83.6978C33.4773 83.4705 33.4944 83.2326 33.579 83.0151C33.6636 82.7977 33.8117 82.6108 34.0041 82.4788C34.1965 82.3468 34.4242 82.2758 34.6575 82.2751C34.8041 82.2691 34.9504 82.292 35.0881 82.3426C35.2259 82.3932 35.3522 82.4704 35.4601 82.5699C35.5679 82.6694 35.6551 82.7891 35.7166 82.9223C35.7781 83.0555 35.8127 83.1995 35.8185 83.3461Z" fill="#FAFAFA"/>
<path d="M39.5998 83.3461C39.6178 83.5787 39.5654 83.8114 39.4493 84.0138C39.3332 84.2161 39.1589 84.3789 38.949 84.4807C38.739 84.5825 38.5033 84.6187 38.2725 84.5846C38.0417 84.5505 37.8265 84.4477 37.655 84.2895C37.4836 84.1313 37.3637 83.9251 37.3111 83.6978C37.2585 83.4705 37.2757 83.2326 37.3603 83.0151C37.4449 82.7977 37.593 82.6108 37.7854 82.4788C37.9778 82.3468 38.2054 82.2758 38.4388 82.2751C38.5853 82.2691 38.7317 82.292 38.8694 82.3426C39.0071 82.3932 39.1335 82.4704 39.2413 82.5699C39.3492 82.6694 39.4363 82.7891 39.4978 82.9223C39.5593 83.0555 39.594 83.1995 39.5998 83.3461Z" fill="#FAFAFA"/>
<path d="M43.2794 83.3461C43.2976 83.5791 43.2449 83.8121 43.1285 84.0147C43.012 84.2173 42.8371 84.3801 42.6266 84.4817C42.4162 84.5833 42.1799 84.619 41.9489 84.5841C41.7178 84.5493 41.5026 84.4455 41.3314 84.2864C41.1603 84.1273 41.0411 83.9202 40.9896 83.6923C40.938 83.4643 40.9564 83.2261 41.0424 83.0088C41.1284 82.7915 41.278 82.6053 41.4716 82.4743C41.6652 82.3434 41.8938 82.274 42.1274 82.2751C42.2736 82.2691 42.4195 82.2921 42.5566 82.3428C42.6938 82.3935 42.8196 82.4708 42.9267 82.5704C43.0339 82.67 43.1202 82.7898 43.1807 82.923C43.2413 83.0561 43.2748 83.1999 43.2794 83.3461Z" fill="#FAFAFA"/>
<path d="M424.94 75.7051H281.867V171.528H424.94V75.7051Z" fill="#EBEBEB"/>
<path d="M424.94 75.7051H281.867V85.2811H424.94V75.7051Z" fill="#E0E0E0"/>
<path d="M288.063 80.493C288.037 80.7821 287.905 81.0511 287.69 81.2471C287.476 81.4431 287.197 81.5518 286.906 81.5518C286.616 81.5518 286.337 81.4431 286.122 81.2471C285.908 81.0511 285.776 80.7821 285.75 80.493C285.776 80.2038 285.908 79.9348 286.122 79.7388C286.337 79.5428 286.616 79.4341 286.906 79.4341C287.197 79.4341 287.476 79.5428 287.69 79.7388C287.905 79.9348 288.037 80.2038 288.063 80.493Z" fill="#FAFAFA"/>
<path d="M291.796 80.493C291.812 80.7254 291.758 80.9573 291.641 81.1586C291.523 81.3599 291.348 81.5212 291.138 81.6216C290.928 81.7221 290.692 81.7569 290.462 81.7217C290.232 81.6865 290.017 81.5828 289.847 81.4241C289.676 81.2654 289.557 81.0591 289.506 80.832C289.454 80.6049 289.472 80.3674 289.557 80.1505C289.642 79.9336 289.79 79.7473 289.982 79.6158C290.174 79.4842 290.402 79.4136 290.635 79.413C290.782 79.407 290.929 79.4302 291.067 79.4814C291.206 79.5325 291.332 79.6106 291.44 79.711C291.548 79.8114 291.635 79.9322 291.696 80.0665C291.757 80.2007 291.791 80.3457 291.796 80.493Z" fill="#FAFAFA"/>
<path d="M295.53 80.493C295.546 80.7254 295.492 80.9573 295.375 81.1586C295.258 81.3599 295.083 81.5212 294.872 81.6216C294.662 81.7221 294.427 81.7569 294.196 81.7217C293.966 81.6865 293.752 81.5828 293.581 81.4241C293.411 81.2654 293.292 81.0591 293.24 80.832C293.188 80.6049 293.206 80.3674 293.291 80.1505C293.376 79.9336 293.524 79.7473 293.716 79.6158C293.909 79.4842 294.136 79.4136 294.369 79.413C294.516 79.407 294.663 79.4302 294.802 79.4814C294.94 79.5325 295.067 79.6106 295.175 79.711C295.283 79.8114 295.37 79.9322 295.431 80.0665C295.492 80.2007 295.525 80.3457 295.53 80.493Z" fill="#FAFAFA"/>
<path d="M241.193 56.1118H58.6367V178.377H241.193V56.1118Z" fill="white"/>
<path d="M241.372 55.2388H58.8164V67.4518H241.372V55.2388Z" fill="#EBEBEB"/>
<path d="M68.4721 60.4769C68.492 60.7722 68.4226 61.0667 68.2729 61.3221C68.1233 61.5774 67.9003 61.7819 67.6329 61.909C67.3656 62.036 67.0662 62.0798 66.7737 62.0345C66.4812 61.9892 66.209 61.857 65.9926 61.6551C65.7761 61.4532 65.6254 61.1909 65.56 60.9022C65.4945 60.6135 65.5174 60.3118 65.6256 60.0363C65.7338 59.7608 65.9223 59.5242 66.1667 59.3572C66.4111 59.1902 66.7001 59.1005 66.9961 59.0999C67.3742 59.0877 67.7417 59.2257 68.0183 59.4838C68.2949 59.7418 68.458 60.0989 68.4721 60.4769Z" fill="#FAFAFA"/>
<path d="M73.2338 60.4769C73.2537 60.7722 73.1843 61.0667 73.0346 61.3221C72.885 61.5774 72.662 61.7819 72.3947 61.909C72.1273 62.036 71.8279 62.0798 71.5354 62.0345C71.2429 61.9892 70.9707 61.857 70.7543 61.6551C70.5378 61.4532 70.3871 61.1909 70.3217 60.9022C70.2562 60.6135 70.2791 60.3118 70.3873 60.0363C70.4955 59.7608 70.6841 59.5242 70.9285 59.3572C71.1729 59.1902 71.4618 59.1005 71.7578 59.0999C72.1359 59.0877 72.5034 59.2257 72.78 59.4838C73.0566 59.7418 73.2198 60.0989 73.2338 60.4769Z" fill="#FAFAFA"/>
<path d="M77.9956 60.477C78.0153 60.7716 77.9463 61.0653 77.7974 61.3202C77.6485 61.5752 77.4266 61.7796 77.1603 61.9071C76.8941 62.0346 76.5957 62.0793 76.3037 62.0355C76.0117 61.9916 75.7396 61.8613 75.5226 61.6612C75.3055 61.4611 75.1534 61.2005 75.0859 60.9131C75.0185 60.6257 75.0388 60.3246 75.1442 60.0488C75.2496 59.7731 75.4353 59.5352 75.6773 59.3661C75.9192 59.197 76.2064 59.1043 76.5016 59.1C76.6905 59.0903 76.8796 59.1185 77.0575 59.1828C77.2355 59.2471 77.3988 59.3463 77.5379 59.4745C77.6771 59.6028 77.7892 59.7575 77.8678 59.9296C77.9464 60.1018 77.9898 60.2879 77.9956 60.477Z" fill="#FAFAFA"/>
<path d="M241.371 177.513C241.371 177.513 241.371 176.748 241.371 175.29C241.371 173.832 241.371 171.69 241.371 168.846C241.371 163.194 241.371 154.887 241.317 144.258C241.317 123.018 241.254 92.4809 241.209 55.2389L241.416 55.4459L58.8327 55.4999L59.0937 55.2389C59.0937 98.7989 59.0937 140.226 59.0937 177.513L58.8597 177.27L190.395 177.387L227.961 177.45H237.951H240.534H241.434H240.579H238.023H228.123L190.611 177.513L58.9137 177.63H58.6797V177.396C58.6797 140.109 58.6797 98.6819 58.6797 55.1219V54.8699H58.9587H241.497H241.704V55.0769C241.659 92.3729 241.614 122.955 241.587 144.231C241.587 154.833 241.587 163.131 241.542 168.765C241.542 171.573 241.542 173.715 241.542 175.173C241.542 176.631 241.371 177.513 241.371 177.513Z" fill="#263238"/>
<path d="M112.215 123.477H70.707V126.258H112.215V123.477Z" fill="#FF725E"/>
<path d="M165.828 84.9299H124.32V87.7109H165.828V84.9299Z" fill="#FF725E"/>
<path d="M227.559 95.271C227.559 95.415 204.447 95.532 175.944 95.532C147.441 95.532 124.32 95.415 124.32 95.271C124.32 95.127 147.423 95.01 175.944 95.01C204.465 95.01 227.559 95.1 227.559 95.271Z" fill="#263238"/>
<path d="M227.559 101.337C227.559 101.472 204.447 101.589 175.944 101.589C147.441 101.589 124.32 101.472 124.32 101.337C124.32 101.202 147.423 101.076 175.944 101.076C204.465 101.076 227.559 101.193 227.559 101.337Z" fill="#263238"/>
<path d="M227.559 107.394C227.559 107.538 204.447 107.655 175.944 107.655C147.441 107.655 124.32 107.538 124.32 107.394C124.32 107.25 147.423 107.133 175.944 107.133C204.465 107.133 227.559 107.25 227.559 107.394Z" fill="#263238"/>
<path d="M227.559 113.46C227.559 113.604 204.447 113.721 175.944 113.721C147.441 113.721 124.32 113.604 124.32 113.46C124.32 113.316 147.423 113.199 175.944 113.199C204.465 113.199 227.559 113.316 227.559 113.46Z" fill="#263238"/>
<path d="M227.559 119.526C227.559 119.67 204.447 119.778 175.944 119.778C147.441 119.778 124.32 119.67 124.32 119.526C124.32 119.382 147.423 119.265 175.944 119.265C204.465 119.265 227.559 119.4 227.559 119.526Z" fill="#263238"/>
<path d="M164.622 125.583C164.622 125.727 155.622 125.844 144.471 125.844C133.32 125.844 124.32 125.727 124.32 125.583C124.32 125.439 133.32 125.331 144.471 125.331C155.622 125.331 164.622 125.439 164.622 125.583Z" fill="#263238"/>
<path d="M226.801 137.4C226.801 137.544 211.609 137.661 192.871 137.661C174.133 137.661 158.941 137.544 158.941 137.4C158.941 137.256 174.133 137.139 192.871 137.139C211.609 137.139 226.801 137.211 226.801 137.4Z" fill="#263238"/>
<path d="M226.801 143.79C226.801 143.934 211.609 144.051 192.871 144.051C174.133 144.051 158.941 143.934 158.941 143.79C158.941 143.646 174.133 143.529 192.871 143.529C211.609 143.529 226.801 143.646 226.801 143.79Z" fill="#263238"/>
<path d="M226.801 150.225C226.801 150.369 211.609 150.486 192.871 150.486C174.133 150.486 158.941 150.369 158.941 150.225C158.941 150.081 174.133 149.964 192.871 149.964C211.609 149.964 226.801 150.081 226.801 150.225Z" fill="#263238"/>
<path d="M226.801 156.66C226.801 156.804 211.609 156.921 192.871 156.921C174.133 156.921 158.941 156.804 158.941 156.66C158.941 156.516 174.133 156.399 192.871 156.399C211.609 156.399 226.801 156.516 226.801 156.66Z" fill="#263238"/>
<path d="M112.313 136.734C112.313 136.878 103.259 136.995 92.0902 136.995C80.9212 136.995 71.8672 136.878 71.8672 136.734C71.8672 136.59 80.9212 136.482 92.0902 136.482C103.259 136.482 112.313 136.59 112.313 136.734Z" fill="#263238"/>
<path d="M112.313 141.792C112.313 141.936 103.259 142.053 92.0902 142.053C80.9212 142.053 71.8672 141.936 71.8672 141.792C71.8672 141.648 80.9212 141.531 92.0902 141.531C103.259 141.531 112.313 141.648 112.313 141.792Z" fill="#263238"/>
<path d="M112.313 146.85C112.313 146.985 103.259 147.102 92.0902 147.102C80.9212 147.102 71.8672 146.985 71.8672 146.85C71.8672 146.715 80.9212 146.589 92.0902 146.589C103.259 146.589 112.313 146.706 112.313 146.85Z" fill="#263238"/>
<path d="M112.313 151.899C112.313 152.043 103.259 152.16 92.0902 152.16C80.9212 152.16 71.8672 152.043 71.8672 151.899C71.8672 151.755 80.9212 151.638 92.0902 151.638C103.259 151.638 112.313 151.8 112.313 151.899Z" fill="#263238"/>
<path d="M112.313 156.957C112.313 157.101 103.259 157.218 92.0902 157.218C80.9212 157.218 71.8672 157.101 71.8672 156.957C71.8672 156.813 80.9212 156.696 92.0902 156.696C103.259 156.696 112.313 156.813 112.313 156.957Z" fill="#263238"/>
<path d="M153.741 134.286H124.293V162.78H153.741V134.286Z" fill="#FF725E"/>
<g opacity="0.3">
<path opacity="0.3" d="M126.578 160.332L134.723 145.671L141.383 155.049L145.433 150.072L151.454 160.332H126.578Z" fill="#111111"/>
</g>
<g opacity="0.3">
<path opacity="0.3" d="M144.228 142.8C144.228 143.22 144.104 143.631 143.871 143.98C143.637 144.329 143.305 144.601 142.917 144.762C142.529 144.923 142.102 144.965 141.69 144.883C141.278 144.801 140.9 144.599 140.603 144.302C140.306 144.005 140.103 143.626 140.021 143.214C139.939 142.802 139.981 142.375 140.142 141.987C140.303 141.599 140.575 141.267 140.924 141.034C141.274 140.8 141.684 140.676 142.104 140.676C142.668 140.676 143.208 140.9 143.606 141.298C144.005 141.696 144.228 142.236 144.228 142.8Z" fill="#111111"/>
</g>
<path opacity="0.3" d="M151.452 160.413V160.296C151.452 160.215 151.452 160.107 151.452 159.963C151.452 159.666 151.452 159.234 151.452 158.685C151.452 157.551 151.452 155.922 151.452 153.843C151.452 149.685 151.452 143.754 151.389 136.644L151.506 136.761H126.63L126.765 136.626V149.145C126.765 153.132 126.765 156.912 126.765 160.377L126.648 160.26L144.648 160.323H149.715H151.065H149.769H144.72L126.657 160.386H126.531V160.26C126.531 156.795 126.531 153.06 126.531 149.028C126.531 147.03 126.531 144.984 126.531 142.89V136.509L126.675 136.365H151.551H151.677V136.491C151.677 143.637 151.677 149.586 151.614 153.771C151.614 155.832 151.614 157.461 151.614 158.577C151.614 159.126 151.614 159.54 151.614 159.837V160.161C151.461 160.386 151.461 160.413 151.452 160.413Z" fill="#111111"/>
<path d="M110.628 76.9829H69.0117V117.24H110.628V76.9829Z" fill="#FF725E"/>
<g opacity="0.3">
<path opacity="0.3" d="M72.2344 113.802L83.7454 93.084L93.1684 106.323L98.8834 99.294L107.397 113.802H72.2344Z" fill="#111111"/>
</g>
<g opacity="0.3">
<path opacity="0.3" d="M94.1767 92.0489C95.8319 92.0489 97.1737 90.7071 97.1737 89.0519C97.1737 87.3967 95.8319 86.0549 94.1767 86.0549C92.5215 86.0549 91.1797 87.3967 91.1797 89.0519C91.1797 90.7071 92.5215 92.0489 94.1767 92.0489Z" fill="#111111"/>
</g>
<path opacity="0.3" d="M107.4 113.91C107.396 113.856 107.396 113.802 107.4 113.748C107.4 113.622 107.4 113.469 107.4 113.28C107.4 112.848 107.4 112.245 107.4 111.48C107.4 109.887 107.4 107.574 107.355 104.64C107.355 98.763 107.301 90.393 107.265 80.34L107.436 80.502H72.2817C72.3405 80.4321 72.4036 80.366 72.4707 80.304V98.007C72.4707 103.65 72.4707 108.978 72.4707 113.883L72.2997 113.712L97.7247 113.802L104.925 113.847H106.824H104.961L97.8237 113.892L72.2907 113.982H72.1197V113.811C72.1197 108.906 72.1197 103.578 72.1197 97.935C72.1197 95.118 72.1197 92.22 72.1197 89.259V80.259C71.9487 80.439 72.3627 80.016 72.3267 80.061H107.481H107.652V80.232C107.652 90.33 107.589 98.736 107.562 104.649C107.562 107.556 107.562 109.86 107.562 111.444C107.562 112.209 107.562 112.803 107.562 113.244V113.694C107.52 113.774 107.465 113.847 107.4 113.91Z" fill="#111111"/>
<path d="M396.579 61.9529H219.801V180.348H396.579V61.9529Z" fill="white"/>
<path d="M396.747 61.116H219.969V72.942H396.747V61.116Z" fill="#EBEBEB"/>
<path d="M229.323 66.192C229.343 66.4784 229.277 66.7641 229.132 67.0121C228.987 67.2601 228.771 67.4588 228.512 67.5825C228.253 67.7061 227.963 67.7489 227.679 67.7054C227.395 67.6619 227.131 67.534 226.921 67.3384C226.711 67.1428 226.564 66.8885 226.501 66.6086C226.437 66.3286 226.459 66.036 226.564 65.7687C226.668 65.5014 226.851 65.2718 227.088 65.1098C227.325 64.9477 227.605 64.8607 227.892 64.86C228.074 64.8528 228.255 64.8816 228.426 64.9447C228.596 65.0079 228.752 65.1041 228.885 65.228C229.018 65.3518 229.126 65.5007 229.201 65.6662C229.276 65.8316 229.318 66.0103 229.323 66.192Z" fill="#FAFAFA"/>
<path d="M233.937 66.1919C233.957 66.4783 233.89 66.7641 233.745 67.012C233.6 67.26 233.385 67.4587 233.125 67.5824C232.866 67.706 232.576 67.7489 232.292 67.7054C232.008 67.6618 231.744 67.534 231.534 67.3384C231.324 67.1427 231.178 66.8884 231.114 66.6085C231.05 66.3286 231.072 66.0359 231.177 65.7686C231.282 65.5013 231.464 65.2717 231.701 65.1097C231.938 64.9476 232.219 64.8606 232.506 64.8599C232.872 64.8477 233.228 64.981 233.496 65.2306C233.764 65.4802 233.923 65.8258 233.937 66.1919Z" fill="#FAFAFA"/>
<path d="M238.546 66.192C238.566 66.4784 238.499 66.7641 238.355 67.0121C238.21 67.2601 237.994 67.4588 237.735 67.5825C237.476 67.7061 237.185 67.7489 236.902 67.7054C236.618 67.6619 236.354 67.534 236.144 67.3384C235.933 67.1428 235.787 66.8885 235.723 66.6086C235.659 66.3286 235.681 66.036 235.786 65.7687C235.891 65.5014 236.074 65.2718 236.311 65.1098C236.548 64.9477 236.828 64.8607 237.115 64.86C237.297 64.8528 237.478 64.8816 237.648 64.9447C237.819 65.0079 237.975 65.1041 238.108 65.228C238.241 65.3518 238.348 65.5007 238.423 65.6662C238.499 65.8316 238.54 66.0103 238.546 66.192Z" fill="#FAFAFA"/>
<path d="M396.747 179.52C396.747 179.52 396.747 178.782 396.747 177.369C396.747 175.956 396.747 173.859 396.747 171.123C396.747 165.651 396.747 157.623 396.693 147.318C396.693 126.744 396.63 97.1699 396.585 61.1159L396.792 61.3229L220.032 61.3769L220.293 61.1159C220.293 103.299 220.293 143.412 220.293 179.52L220.05 179.277L347.427 179.394L383.805 179.457H393.48H395.973H396.828H396H393.534H383.913L347.58 179.52L220.05 179.637H219.816V179.403C219.816 143.295 219.816 103.182 219.816 60.9989V60.8999H220.086L396.846 60.9539H397.053V61.1609C397.008 97.2689 396.972 126.861 396.945 147.489C396.945 157.767 396.945 165.786 396.891 171.249C396.891 173.949 396.891 176.046 396.891 177.459C396.891 178.872 396.747 179.52 396.747 179.52Z" fill="#263238"/>
<path d="M271.674 127.194H231.48V129.885H271.674V127.194Z" fill="#FF725E"/>
<path d="M323.596 89.8618H283.402V92.5528H323.596V89.8618Z" fill="#FF725E"/>
<path d="M383.402 99.8789C383.402 100.023 361.019 100.14 333.416 100.14C305.813 100.14 283.43 100.023 283.43 99.8789C283.43 99.7349 305.804 99.6179 333.416 99.6179C361.028 99.6179 383.402 99.7349 383.402 99.8789Z" fill="#263238"/>
<path d="M383.402 105.747C383.402 105.891 361.019 106.008 333.416 106.008C305.813 106.008 283.43 105.891 283.43 105.747C283.43 105.603 305.804 105.495 333.416 105.495C361.028 105.495 383.402 105.603 383.402 105.747Z" fill="#263238"/>
<path d="M383.402 111.624C383.402 111.768 361.019 111.876 333.416 111.876C305.813 111.876 283.43 111.768 283.43 111.624C283.43 111.48 305.804 111.363 333.416 111.363C361.028 111.363 383.402 111.48 383.402 111.624Z" fill="#263238"/>
<path d="M383.402 117.492C383.402 117.636 361.019 117.753 333.416 117.753C305.813 117.753 283.43 117.636 283.43 117.492C283.43 117.348 305.804 117.231 333.416 117.231C361.028 117.231 383.402 117.348 383.402 117.492Z" fill="#263238"/>
<path d="M383.402 123.36C383.402 123.504 361.019 123.621 333.416 123.621C305.813 123.621 283.43 123.504 283.43 123.36C283.43 123.216 305.804 123.108 333.416 123.108C361.028 123.108 383.402 123.225 383.402 123.36Z" fill="#263238"/>
<path d="M322.426 129.237C322.426 129.381 313.687 129.498 302.914 129.498C292.141 129.498 283.402 129.381 283.402 129.237C283.402 129.093 292.132 128.976 302.914 128.976C313.696 128.976 322.426 129.093 322.426 129.237Z" fill="#263238"/>
<path d="M382.647 140.631C382.647 140.775 367.941 140.892 349.797 140.892C331.653 140.892 316.938 140.775 316.938 140.631C316.938 140.487 331.644 140.37 349.797 140.37C367.95 140.37 382.647 140.487 382.647 140.631Z" fill="#263238"/>
<path d="M382.647 146.859C382.647 147.003 367.941 147.12 349.797 147.12C331.653 147.12 316.938 147.003 316.938 146.859C316.938 146.715 331.644 146.607 349.797 146.607C367.95 146.607 382.647 146.724 382.647 146.859Z" fill="#263238"/>
<path d="M382.647 153.096C382.647 153.24 367.941 153.357 349.797 153.357C331.653 153.357 316.938 153.24 316.938 153.096C316.938 152.952 331.644 152.835 349.797 152.835C367.95 152.835 382.647 152.952 382.647 153.096Z" fill="#263238"/>
<path d="M382.647 159.324C382.647 159.468 367.941 159.585 349.797 159.585C331.653 159.585 316.938 159.468 316.938 159.324C316.938 159.18 331.644 159.072 349.797 159.072C367.95 159.072 382.647 159.18 382.647 159.324Z" fill="#263238"/>
<path d="M271.802 140.037C271.802 140.181 263.027 140.289 252.218 140.289C241.409 140.289 232.625 140.181 232.625 140.037C232.625 139.893 241.391 139.776 252.218 139.776C263.045 139.776 271.802 139.893 271.802 140.037Z" fill="#263238"/>
<path d="M271.802 144.924C271.802 145.068 263.027 145.185 252.218 145.185C241.409 145.185 232.625 145.068 232.625 144.924C232.625 144.78 241.391 144.672 252.218 144.672C263.045 144.672 271.802 144.789 271.802 144.924Z" fill="#263238"/>
<path d="M271.802 149.82C271.802 149.964 263.027 150.081 252.218 150.081C241.409 150.081 232.625 149.964 232.625 149.82C232.625 149.676 241.391 149.568 252.218 149.568C263.045 149.568 271.802 149.676 271.802 149.82Z" fill="#263238"/>
<path d="M271.802 154.716C271.802 154.86 263.027 154.977 252.218 154.977C241.409 154.977 232.625 154.86 232.625 154.716C232.625 154.572 241.391 154.455 252.218 154.455C263.045 154.455 271.802 154.572 271.802 154.716Z" fill="#263238"/>
<path d="M271.802 159.612C271.802 159.756 263.027 159.873 252.218 159.873C241.409 159.873 232.625 159.756 232.625 159.612C232.625 159.468 241.391 159.351 252.218 159.351C263.045 159.351 271.802 159.468 271.802 159.612Z" fill="#263238"/>
<path d="M311.896 137.652H283.375V165.246H311.896V137.652Z" fill="#FF725E"/>
<g opacity="0.3">
<path opacity="0.3" d="M285.59 162.888L293.474 148.686L299.927 157.767L303.851 152.943L309.683 162.888H285.59Z" fill="#111111"/>
</g>
<g opacity="0.3">
<path opacity="0.3" d="M302.682 145.923C302.682 146.329 302.562 146.725 302.336 147.063C302.111 147.4 301.79 147.663 301.415 147.819C301.04 147.974 300.628 148.015 300.23 147.935C299.832 147.856 299.466 147.661 299.179 147.374C298.892 147.087 298.697 146.721 298.618 146.323C298.538 145.925 298.579 145.513 298.734 145.138C298.89 144.763 299.153 144.442 299.49 144.217C299.828 143.991 300.224 143.871 300.63 143.871C301.174 143.871 301.696 144.087 302.081 144.472C302.466 144.857 302.682 145.379 302.682 145.923Z" fill="#111111"/>
</g>
<path opacity="0.3" d="M309.682 162.96C309.684 162.924 309.684 162.888 309.682 162.852V162.528C309.682 162.231 309.682 161.817 309.682 161.286C309.682 160.188 309.682 158.586 309.682 156.597C309.682 152.574 309.682 146.832 309.619 139.938L309.736 140.055H285.643C285.643 140.055 285.895 139.803 285.778 139.929V146.121C285.778 148.146 285.778 150.135 285.778 152.07C285.778 155.931 285.778 159.585 285.778 162.942L285.661 162.825L303.085 162.888H307.999H309.295H308.044H303.157L285.661 162.942H285.544V162.825C285.544 159.468 285.544 155.814 285.544 151.953V139.947C285.418 140.064 285.706 139.776 285.679 139.803H309.772H309.889V139.92C309.889 146.841 309.844 152.61 309.826 156.66C309.826 158.658 309.826 160.26 309.826 161.313C309.826 161.844 309.826 162.213 309.826 162.537C309.826 162.663 309.826 162.762 309.826 162.843C309.792 162.897 309.741 162.938 309.682 162.96Z" fill="#111111"/>
<path d="M353.404 36.0598H120.934V191.76H353.404V36.0598Z" fill="white"/>
<path d="M353.63 34.9529H121.16V50.5049H353.63V34.9529Z" fill="#E0E0E0"/>
<path d="M133.452 41.622C133.48 41.999 133.393 42.3754 133.203 42.7022C133.013 43.0289 132.729 43.2909 132.388 43.454C132.047 43.617 131.665 43.6736 131.291 43.6162C130.917 43.5589 130.57 43.3903 130.293 43.1325C130.017 42.8748 129.825 42.5397 129.741 42.171C129.658 41.8023 129.688 41.4171 129.827 41.0656C129.966 40.7141 130.208 40.4126 130.52 40.2004C130.833 39.9882 131.203 39.8751 131.58 39.876C131.818 39.8664 132.056 39.904 132.279 39.9868C132.502 40.0696 132.707 40.1958 132.881 40.3582C133.055 40.5206 133.195 40.7159 133.293 40.9328C133.391 41.1498 133.446 41.384 133.452 41.622Z" fill="#FAFAFA"/>
<path d="M139.503 41.6219C139.53 41.9985 139.443 42.3745 139.254 42.7011C139.064 43.0277 138.781 43.2896 138.441 43.4529C138.1 43.6162 137.718 43.6732 137.345 43.6166C136.972 43.56 136.624 43.3924 136.347 43.1355C136.071 42.8786 135.878 42.5444 135.793 42.1764C135.709 41.8083 135.738 41.4234 135.875 41.0718C136.013 40.7201 136.253 40.418 136.565 40.2047C136.876 39.9914 137.245 39.8769 137.622 39.8759C137.861 39.865 138.099 39.9018 138.324 39.984C138.548 40.0662 138.754 40.1923 138.929 40.3548C139.104 40.5173 139.245 40.713 139.343 40.9306C139.442 41.1481 139.496 41.3831 139.503 41.6219Z" fill="#FAFAFA"/>
<path d="M145.587 41.6219C145.616 42.0009 145.53 42.3798 145.34 42.7092C145.151 43.0385 144.866 43.3031 144.524 43.4682C144.181 43.6333 143.797 43.6914 143.421 43.6348C143.045 43.5783 142.695 43.4097 142.417 43.1511C142.138 42.8925 141.944 42.5559 141.86 42.1853C141.775 41.8147 141.805 41.4273 141.944 41.0736C142.083 40.7199 142.326 40.4164 142.64 40.2028C142.954 39.9891 143.326 39.8752 143.706 39.8759C143.945 39.865 144.183 39.9018 144.407 39.984C144.632 40.0662 144.837 40.1923 145.012 40.3548C145.187 40.5173 145.328 40.713 145.427 40.9306C145.526 41.1481 145.58 41.3831 145.587 41.6219Z" fill="#FAFAFA"/>
<path d="M353.629 190.653C353.629 188.961 353.548 129.795 353.422 34.9529L353.629 35.1599L121.177 35.2139L121.438 34.9529C121.438 90.4199 121.438 143.169 121.438 190.653L121.195 190.419L353.665 190.653L121.195 190.887H120.961V190.653C120.961 143.169 120.961 90.4199 120.961 34.9529V34.6919H121.231L353.683 34.7459H353.89V34.9529C353.701 129.795 353.638 188.961 353.629 190.653Z" fill="#263238"/>
<path d="M189.154 121.848H136.297V125.385H189.154V121.848Z" fill="#FF725E"/>
<path d="M257.427 72.7529H204.57V76.2899H257.427V72.7529Z" fill="#FF725E"/>
<path d="M336.043 85.929C336.043 86.064 306.613 86.181 270.343 86.181C234.073 86.181 204.598 86.064 204.598 85.929C204.598 85.794 234.028 85.668 270.343 85.668C306.658 85.668 336.043 85.785 336.043 85.929Z" fill="#263238"/>
<path d="M336.043 93.6419C336.043 93.7859 306.613 93.9029 270.343 93.9029C234.073 93.9029 204.598 93.7859 204.598 93.6419C204.598 93.4979 234.028 93.3899 270.343 93.3899C306.658 93.3899 336.043 93.5069 336.043 93.6419Z" fill="#263238"/>
<path d="M336.043 101.4C336.043 101.544 306.613 101.661 270.343 101.661C234.073 101.661 204.598 101.544 204.598 101.4C204.598 101.256 234.028 101.148 270.343 101.148C306.658 101.148 336.043 101.22 336.043 101.4Z" fill="#263238"/>
<path d="M336.043 109.086C336.043 109.23 306.613 109.347 270.343 109.347C234.073 109.347 204.598 109.23 204.598 109.086C204.598 108.942 234.028 108.834 270.343 108.834C306.658 108.834 336.043 108.942 336.043 109.086Z" fill="#263238"/>
<path d="M336.043 116.808C336.043 116.952 306.613 117.069 270.343 117.069C234.073 117.069 204.598 116.952 204.598 116.808C204.598 116.664 234.028 116.547 270.343 116.547C306.658 116.547 336.043 116.7 336.043 116.808Z" fill="#263238"/>
<path d="M255.888 124.53C255.888 124.674 244.404 124.791 230.229 124.791C216.054 124.791 204.57 124.674 204.57 124.53C204.57 124.386 216.054 124.269 230.229 124.269C244.404 124.269 255.888 124.386 255.888 124.53Z" fill="#263238"/>
<path d="M335.08 139.515C335.08 139.659 315.739 139.776 291.88 139.776C268.021 139.776 248.68 139.659 248.68 139.515C248.68 139.371 268.021 139.254 291.88 139.254C315.739 139.254 335.08 139.371 335.08 139.515Z" fill="#263238"/>
<path d="M335.08 147.714C335.08 147.858 315.739 147.975 291.88 147.975C268.021 147.975 248.68 147.858 248.68 147.714C248.68 147.57 268.021 147.453 291.88 147.453C315.739 147.453 335.08 147.57 335.08 147.714Z" fill="#263238"/>
<path d="M335.08 155.904C335.08 156.048 315.739 156.165 291.88 156.165C268.021 156.165 248.68 156.048 248.68 155.904C248.68 155.76 268.021 155.652 291.88 155.652C315.739 155.652 335.08 155.769 335.08 155.904Z" fill="#263238"/>
<path d="M335.08 164.103C335.08 164.247 315.739 164.364 291.88 164.364C268.021 164.364 248.68 164.247 248.68 164.103C248.68 163.959 268.021 163.842 291.88 163.842C315.739 163.842 335.08 163.959 335.08 164.103Z" fill="#263238"/>
<path d="M189.289 138.732C189.289 138.876 177.76 138.993 163.531 138.993C149.302 138.993 137.773 138.876 137.773 138.732C137.773 138.588 149.311 138.471 163.531 138.471C177.751 138.471 189.289 138.588 189.289 138.732Z" fill="#263238"/>
<path d="M189.289 145.167C189.289 145.311 177.76 145.428 163.531 145.428C149.302 145.428 137.773 145.311 137.773 145.167C137.773 145.023 149.311 144.906 163.531 144.906C177.751 144.906 189.289 145.023 189.289 145.167Z" fill="#263238"/>
<path d="M189.289 151.602C189.289 151.746 177.76 151.863 163.531 151.863C149.302 151.863 137.773 151.746 137.773 151.602C137.773 151.458 149.311 151.35 163.531 151.35C177.751 151.35 189.289 151.458 189.289 151.602Z" fill="#263238"/>
<path d="M189.289 158.037C189.289 158.181 177.76 158.298 163.531 158.298C149.302 158.298 137.773 158.181 137.773 158.037C137.773 157.893 149.311 157.785 163.531 157.785C177.751 157.785 189.289 157.902 189.289 158.037Z" fill="#263238"/>
<path d="M189.289 164.481C189.289 164.625 177.76 164.733 163.531 164.733C149.302 164.733 137.773 164.625 137.773 164.481C137.773 164.337 149.311 164.22 163.531 164.22C177.751 164.22 189.289 164.337 189.289 164.481Z" fill="#263238"/>
<path d="M242.038 135.609H204.535V171.888H242.038V135.609Z" fill="#FF725E"/>
<g opacity="0.3">
<path opacity="0.3" d="M207.453 168.783L217.821 150.108L226.308 162.042L231.465 155.706L239.133 168.783H207.453Z" fill="#111111"/>
</g>
<g opacity="0.3">
<path opacity="0.3" d="M229.923 146.481C229.923 147.015 229.765 147.537 229.468 147.981C229.172 148.425 228.75 148.771 228.257 148.975C227.763 149.18 227.22 149.233 226.697 149.129C226.173 149.025 225.692 148.768 225.314 148.39C224.937 148.013 224.679 147.532 224.575 147.008C224.471 146.484 224.525 145.941 224.729 145.448C224.933 144.954 225.279 144.533 225.723 144.236C226.167 143.939 226.689 143.781 227.223 143.781C227.94 143.781 228.626 144.065 229.133 144.572C229.639 145.078 229.923 145.765 229.923 146.481Z" fill="#111111"/>
</g>
<path opacity="0.3" d="M239.132 168.9C239.132 168.9 239.132 168.846 239.132 168.756C239.132 168.666 239.132 168.504 239.132 168.333C239.132 167.946 239.132 167.433 239.132 166.695C239.132 165.255 239.132 163.176 239.132 160.539C239.132 155.238 239.087 147.687 239.051 138.624L239.204 138.777H207.524L207.695 138.606V154.563C207.695 159.639 207.695 164.463 207.695 168.864L207.542 168.711L230.447 168.792H236.909H238.628H239.222C239.222 168.792 239.222 168.792 239.087 168.792H238.655H236.972H230.546L207.542 168.873H207.38V168.9C207.38 164.481 207.38 159.675 207.38 154.599V138.624C207.218 138.777 207.596 138.399 207.56 138.444H239.24H239.393V138.597C239.393 147.705 239.339 155.283 239.321 160.602C239.321 163.23 239.321 165.3 239.276 166.731C239.276 167.424 239.276 167.955 239.276 168.333C239.276 168.504 239.276 168.639 239.276 168.747C239.276 168.855 239.141 168.9 239.132 168.9Z" fill="#111111"/>
<path d="M187.14 62.637H134.148V113.91H187.14V62.637Z" fill="#FF725E"/>
<g opacity="0.3">
<path opacity="0.3" d="M138.25 109.518L152.911 83.1389L164.899 99.9959L172.189 91.0409L183.025 109.518H138.25Z" fill="#111111"/>
</g>
<g opacity="0.3">
<path opacity="0.3" d="M170.011 77.9998C170.011 78.7546 169.787 79.4924 169.368 80.1199C168.948 80.7474 168.353 81.2365 167.655 81.5254C166.958 81.8142 166.191 81.8898 165.45 81.7425C164.71 81.5953 164.03 81.2318 163.497 80.6982C162.963 80.1645 162.599 79.4845 162.452 78.7443C162.305 78.0041 162.381 77.2368 162.669 76.5395C162.958 75.8423 163.447 75.2463 164.075 74.827C164.702 74.4077 165.44 74.1838 166.195 74.1838C166.696 74.1827 167.193 74.2806 167.657 74.4719C168.12 74.6633 168.541 74.9443 168.896 75.2989C169.25 75.6535 169.532 76.0746 169.723 76.5381C169.914 77.0016 170.012 77.4984 170.011 77.9998Z" fill="#111111"/>
</g>
<path opacity="0.3" d="M183.026 109.662C183.022 109.593 183.022 109.524 183.026 109.455C183.026 109.302 183.026 109.104 183.026 108.852C183.026 108.312 183.026 107.538 183.026 106.548C183.026 104.514 183.026 101.571 182.972 97.8358C182.972 90.3478 182.9 79.6918 182.855 66.8848L183.071 67.1008H138.305L138.548 66.8578V78.3598C138.548 82.1218 138.548 85.8118 138.548 89.4028C138.548 96.6028 138.548 103.371 138.548 109.617L138.323 109.401L170.723 109.509L179.858 109.563H182.279H182.909H182.297H179.921L170.84 109.617L138.323 109.725H138.107V109.5C138.107 103.254 138.107 96.4678 138.107 89.2858V78.4048C138.107 76.5148 138.107 74.6158 138.107 72.6898V66.9028C137.882 67.1188 138.413 66.5878 138.368 66.6418H183.134H183.35V66.8578C183.35 79.7188 183.269 90.4288 183.242 97.9528C183.242 101.661 183.242 104.586 183.188 106.611C183.188 107.583 183.188 108.339 183.188 108.879C183.188 109.113 183.188 109.302 183.188 109.446C183.147 109.527 183.092 109.6 183.026 109.662Z" fill="#111111"/>
<path d="M425.205 362.787C425.205 362.94 337.752 363.057 229.905 363.057C122.058 363.057 34.6055 362.94 34.6055 362.787C34.6055 362.634 122.031 362.508 229.905 362.508C337.779 362.508 425.205 362.634 425.205 362.787Z" fill="#263238"/>
<path d="M233.162 354.948L230.867 362.589L247.211 362.4L247.94 354.219L233.162 354.948Z" fill="#FF725E"/>
<path d="M247.501 360.852C246.718 361 245.921 361.063 245.125 361.041C243.649 361.041 241.615 361.041 239.374 361.041L233.641 360.861C232.854 360.851 232.07 360.764 231.301 360.6C232.084 360.453 232.881 360.393 233.677 360.42C235.153 360.42 237.187 360.42 239.428 360.42L245.161 360.6C245.947 360.605 246.731 360.689 247.501 360.852Z" fill="#263238"/>
<path d="M240.526 353.913C240.713 355.053 240.734 356.214 240.589 357.36C240.613 358.516 240.461 359.67 240.139 360.78C239.946 359.641 239.925 358.479 240.076 357.333C240.05 356.177 240.202 355.023 240.526 353.913Z" fill="#263238"/>
<path opacity="0.6" d="M230.867 362.589L247.211 362.4L247.355 360.852L231.137 360.645L230.867 362.409" fill="white"/>
<path d="M296.416 357.117L268.201 210.93L268.039 210.3C263.71 193.11 260.29 188.889 260.29 188.889L218.044 190.041C214.723 195.999 214.309 210.3 214.309 210.3C213.85 212.01 233.101 355.326 233.101 355.326L247.582 354.138L242.65 219.3L280.45 357.468L296.416 357.117Z" fill="#263238"/>
<path d="M253.8 214.737C253.8 214.881 249.129 216.213 243.297 217.725C237.465 219.237 232.704 220.344 232.668 220.209C232.632 220.074 237.33 218.733 243.171 217.221C249.012 215.709 253.8 214.602 253.8 214.737Z" fill="#455A64"/>
<path d="M215.587 139.668L183.187 141.639L155.287 116.646L154.999 115.746C154.828 115.278 154.657 114.756 154.486 114.153C154.283 113.461 154.201 112.74 154.243 112.02C154.247 111.106 154.377 110.198 154.63 109.32C154.945 108.555 154.189 107.808 153.559 108.195C152.929 108.582 152.038 110.67 152.137 113.334C152.236 115.998 149.545 112.848 148.537 111.723C147.529 110.598 144.271 107.268 143.695 107.313C142.84 107.376 142.741 108.321 143.776 109.419C144.811 110.517 147.655 114.045 147.052 114.558C146.449 115.071 141.418 109.266 141.418 109.266C141.418 109.266 140.518 107.844 139.825 108.42C138.529 109.455 144.325 115.215 144.883 115.746C145.27 116.124 144.631 116.709 144.235 116.286C143.839 115.863 139.348 110.373 138.016 111.417C136.999 112.209 142.741 116.196 143.047 117.861C143.353 119.526 138.997 114.387 138.052 115.161C137.701 115.458 137.476 115.728 140.401 118.311C142.359 120.185 144.417 121.951 146.566 123.603L175.744 155.805L216.505 159.405L215.587 139.668Z" fill="#FFBE9D"/>
<path d="M316.296 87.585C315.162 87.081 312.399 93.237 312.237 91.545C312.075 89.853 316.485 84.435 315.279 83.958C313.713 83.328 310.932 89.826 310.653 90.357C310.374 90.888 309.618 90.492 309.888 90.024C310.284 89.349 314.244 82.212 312.714 81.582C311.868 81.231 311.418 82.833 311.418 82.833C311.418 82.833 308.187 89.808 307.476 89.484C306.765 89.16 308.511 84.984 309.195 83.634C309.879 82.284 309.528 81.411 308.691 81.582C308.124 81.708 305.91 85.812 305.262 87.171C304.614 88.53 302.886 92.292 302.247 89.709C301.608 87.126 300.168 85.371 299.457 85.209C298.746 85.047 298.224 85.938 298.737 86.586C299.215 87.3467 299.59 88.1667 299.853 89.025C300.091 89.7076 300.21 90.4261 300.204 91.149C300.204 91.77 300.204 92.319 300.159 92.814L300.114 93.714L280.215 125.484L248.562 132.558L254.197 152.961L291.357 137.112L310.5 98.061C312.104 95.879 313.591 93.6139 314.955 91.275C316.998 87.981 316.71 87.774 316.296 87.585Z" fill="#FFBE9D"/>
<path d="M256.502 157.848L257.015 155.976C258.311 155.166 273.566 145.653 274.115 145.563C274.664 145.473 267.302 128.049 267.302 128.049L249.941 130.533C248.981 130.255 248 130.059 247.007 129.948L226.604 129.777C226.604 129.777 221.204 130.677 218.855 132.378L200.387 139.344L204.599 160.8L219.116 159.549C219.314 161.16 220.205 167.271 220.592 168.855C221.879 174.111 222.644 181.14 219.908 185.784C219.908 185.784 214.31 196.944 214.301 206.268L265.799 200.247C265.799 200.247 263.585 191.202 254.234 179.169L254.684 166.47L256.502 157.848Z" fill="#455A64"/>
<path d="M227.702 89.826C223.418 91.77 221.699 96.504 221.276 100.842C220.853 105.18 221.276 109.716 219.629 113.784C218.216 117.213 215.309 120.345 215.633 124.017C215.876 126.717 217.919 129.165 218.288 131.892C219.008 137.175 213.401 141.9 214.427 147.192C214.886 149.595 216.731 151.692 218.927 153.069C221.215 154.416 223.664 155.468 226.217 156.201C229.619 157.344 233.417 158.46 236.747 157.272C239.717 156.219 241.742 153.51 244.847 152.727C247.952 151.944 250.931 153.204 254.009 153.267C255.401 153.324 256.79 153.099 258.093 152.604C259.395 152.108 260.584 151.354 261.587 150.387C262.508 149.462 263.144 148.292 263.422 147.016C263.699 145.74 263.606 144.411 263.153 143.187C261.785 139.803 257.564 137.625 256.907 134.079C256.322 130.875 258.932 127.689 258.113 124.521C257.213 120.993 252.47 119.121 251.327 115.656C249.959 111.489 254.333 107.043 252.632 102.966C251.624 100.572 248.744 99.06 247.961 96.603C247.43 94.911 248.006 93.093 247.619 91.374C246.962 88.404 243.614 86.487 240.356 85.812C236.368 84.9301 232.196 85.5114 228.602 87.45C226.93 88.3681 225.5 89.6716 224.433 91.2525C223.365 92.8334 222.69 94.646 222.464 96.54" fill="#263238"/>
<path d="M234.082 86.8109C236.042 86.0588 238.144 85.7445 240.238 85.8901C242.333 86.0357 244.371 86.6377 246.208 87.6538C248.046 88.6699 249.639 90.0755 250.876 91.7722C252.113 93.4689 252.964 95.4156 253.369 97.4759C254.026 100.788 253.54 104.361 254.98 107.376C256.537 110.697 260.209 112.974 260.758 116.592C261.307 120.21 258.688 123.27 258.148 126.771C257.581 130.371 259.291 134.088 258.877 137.751C258.672 139.579 257.942 141.309 256.777 142.732C255.611 144.155 254.059 145.21 252.307 145.772C250.555 146.333 248.678 146.375 246.902 145.894C245.127 145.414 243.528 144.429 242.299 143.061" fill="#263238"/>
<path d="M216.82 144.087C216.82 144.087 216.82 144.042 216.766 143.943C216.726 143.798 216.696 143.651 216.676 143.502C216.63 142.918 216.713 142.331 216.919 141.783C217.255 140.931 217.69 140.122 218.215 139.371C218.908 138.412 219.451 137.353 219.826 136.23C220.152 134.844 220.039 133.391 219.502 132.072C218.897 130.537 218.098 129.085 217.126 127.752C216.015 126.248 215.124 124.593 214.48 122.838C213.883 120.875 213.927 118.772 214.606 116.835C214.944 115.861 215.439 114.948 216.073 114.135C216.697 113.374 217.361 112.647 218.062 111.957C218.72 111.305 219.305 110.584 219.808 109.806C220.261 109.068 220.529 108.231 220.591 107.367C220.544 105.717 220.327 104.076 219.943 102.471C219.696 101.004 219.779 99.5008 220.186 98.0701C220.769 96.0008 221.968 94.158 223.624 92.7871C224.073 92.4245 224.555 92.1051 225.064 91.8331C225.238 91.7274 225.426 91.6457 225.622 91.5901C224.974 92.0016 224.352 92.4524 223.759 92.9401C222.186 94.3243 221.054 96.1391 220.501 98.1601C220.138 99.541 220.08 100.984 220.33 102.39C220.744 104.028 220.979 105.706 221.032 107.394C220.981 108.35 220.693 109.277 220.195 110.094C219.674 110.902 219.071 111.653 218.395 112.335C217.707 113.014 217.055 113.729 216.442 114.477C215.844 115.252 215.376 116.118 215.056 117.042C214.418 118.875 214.374 120.862 214.93 122.721C215.549 124.434 216.41 126.049 217.486 127.518C218.471 128.89 219.273 130.385 219.871 131.964C220.416 133.367 220.51 134.906 220.141 136.365C219.736 137.515 219.156 138.596 218.422 139.569C217.893 140.294 217.44 141.072 217.072 141.891C216.807 142.591 216.72 143.346 216.82 144.087Z" fill="#263238"/>
<path d="M255.251 152.502C255.251 152.502 255.458 152.286 255.818 151.845C256.317 151.194 256.659 150.436 256.817 149.631C257.071 148.358 256.936 147.037 256.43 145.842C256.126 145.102 255.659 144.44 255.062 143.907C254.381 143.323 253.569 142.912 252.695 142.71C251.693 142.483 250.716 142.157 249.779 141.738C249.247 141.477 248.805 141.064 248.508 140.551C248.212 140.038 248.074 139.449 248.114 138.858C248.301 137.639 248.864 136.51 249.725 135.627C250.553 134.727 251.525 133.935 252.308 132.927C252.742 132.487 253.058 131.944 253.224 131.349C253.391 130.754 253.404 130.126 253.262 129.525C252.902 128.319 251.732 127.518 250.562 126.825C249.268 126.203 248.059 125.42 246.962 124.494C246.394 123.965 245.991 123.284 245.801 122.532C245.629 121.777 245.629 120.992 245.801 120.237C246.134 118.752 246.8 117.429 247.169 116.079C247.4 115.45 247.473 114.774 247.382 114.11C247.291 113.447 247.038 112.815 246.647 112.272C244.91 110.238 241.805 109.914 240.095 107.772C239.303 106.754 238.771 105.559 238.547 104.289C238.324 103.103 238.239 101.895 238.295 100.689C238.385 98.394 238.691 96.306 238.565 94.389C238.566 92.6706 237.992 91.0011 236.936 89.646C236.087 88.6655 234.939 87.9918 233.669 87.729C232.867 87.5604 232.031 87.6617 231.293 88.017C230.789 88.269 230.582 88.503 230.555 88.476C230.6 88.4136 230.654 88.3589 230.717 88.314C230.872 88.1621 231.048 88.0319 231.239 87.927C231.986 87.5116 232.856 87.3714 233.696 87.531C235.031 87.7629 236.248 88.4383 237.152 89.448C238.279 90.8417 238.912 92.5699 238.952 94.362C238.989 96.4641 238.92 98.5668 238.745 100.662C238.702 101.824 238.793 102.986 239.015 104.127C239.225 105.321 239.729 106.444 240.482 107.394C241.351 108.333 242.413 109.073 243.596 109.563C244.899 110.094 246.078 110.887 247.061 111.894C247.533 112.483 247.826 113.195 247.907 113.946C247.971 114.691 247.898 115.441 247.691 116.16C247.295 117.573 246.638 118.86 246.332 120.291C246.135 120.952 246.124 121.655 246.3 122.321C246.476 122.988 246.833 123.594 247.331 124.071C248.397 124.97 249.574 125.729 250.832 126.33C251.452 126.67 252.037 127.071 252.578 127.527C253.13 128.006 253.538 128.629 253.757 129.327C253.982 130.011 253.982 130.749 253.757 131.433C253.519 132.068 253.175 132.659 252.74 133.179C251.93 134.205 250.94 134.979 250.13 135.879C249.324 136.681 248.791 137.717 248.609 138.84C248.57 139.351 248.685 139.862 248.941 140.307C249.196 140.751 249.579 141.109 250.04 141.333C250.946 141.752 251.893 142.077 252.866 142.305C253.785 142.537 254.637 142.984 255.35 143.61C255.973 144.183 256.456 144.891 256.763 145.68C257.268 146.931 257.378 148.307 257.078 149.622C256.896 150.449 256.512 151.219 255.962 151.863C255.751 152.104 255.513 152.319 255.251 152.502Z" fill="#455A64"/>
<path d="M226.667 155.4C226.54 155.182 226.435 154.953 226.352 154.716C226.154 154.257 225.884 153.582 225.569 152.7C225.2 151.625 224.899 150.528 224.669 149.415C224.321 147.942 224.203 146.424 224.318 144.915C224.485 143.044 225.227 141.271 226.442 139.839C227.114 139.091 227.733 138.297 228.296 137.463C228.839 136.576 229.117 135.551 229.097 134.511C229.034 132.351 227.981 130.227 226.811 128.157C225.641 126.087 224.363 123.774 224.219 121.119C224.125 119.785 224.522 118.463 225.335 117.402C226.196 116.507 227.156 115.713 228.197 115.035C229.11 114.359 229.734 113.362 229.943 112.245C230.123 111.155 230.077 110.04 229.808 108.969C229.358 106.827 228.53 104.874 228.152 102.903C227.322 98.4155 228.243 93.781 230.726 89.9519C231.117 89.347 231.553 88.7724 232.031 88.2329C232.191 88.0375 232.369 87.8568 232.562 87.6929C232.562 87.6929 231.878 88.4759 230.897 90.0599C229.527 92.3075 228.661 94.8253 228.359 97.4399C228.155 99.2404 228.228 101.061 228.575 102.84C228.953 104.748 229.79 106.692 230.276 108.888C230.562 110.02 230.614 111.199 230.429 112.353C230.197 113.585 229.517 114.688 228.521 115.449C227.516 116.111 226.583 116.877 225.74 117.735C225.002 118.699 224.643 119.899 224.732 121.11C224.867 123.612 226.055 125.862 227.252 127.923C228.449 129.984 229.52 132.198 229.574 134.52C229.582 135.649 229.27 136.756 228.674 137.715C228.09 138.562 227.45 139.367 226.757 140.127C225.575 141.485 224.845 143.177 224.669 144.969C224.524 146.452 224.612 147.949 224.93 149.406C225.171 150.516 225.471 151.613 225.83 152.691C226.118 153.537 226.343 154.221 226.514 154.734C226.583 154.951 226.634 155.174 226.667 155.4Z" fill="#455A64"/>
<path d="M297.326 358.566L297.263 356.901L280.379 357.387L280.532 362.877H281.576C286.22 362.994 305.192 363.156 308.27 362.202C311.699 361.167 297.326 358.566 297.326 358.566Z" fill="#FF725E"/>
<g opacity="0.6">
<path opacity="0.6" d="M286.616 362.598C286.31 361.26 285.505 360.088 284.366 359.322C283.21 358.521 281.807 358.154 280.406 358.287L280.541 362.661L286.616 362.598Z" fill="white"/>
</g>
<g opacity="0.6">
<path opacity="0.6" d="M304.354 360.069C304.354 360.069 309.403 361.275 308.8 362.058C308.197 362.841 289 363.345 280.531 362.877V362.535L302.923 362.121C302.923 362.121 303.373 360.132 304.354 360.069Z" fill="white"/>
</g>
<path d="M280.277 362.526H280.565H281.402L284.453 362.571C287.036 362.571 290.609 362.571 294.542 362.472C298.475 362.373 302.048 362.202 304.631 362.058L307.682 361.86L308.51 361.788H308.798H308.501H307.673L304.622 361.932C302.039 362.049 298.475 362.193 294.542 362.292C290.609 362.391 287.036 362.427 284.453 362.445H281.402H280.565L280.277 362.526Z" fill="#263238"/>
<path d="M302.931 362.4C303.122 361.411 303.67 360.527 304.47 359.916C303.962 360.097 303.539 360.459 303.282 360.933C303.13 361.142 303.02 361.38 302.96 361.631C302.9 361.883 302.89 362.144 302.931 362.4Z" fill="#263238"/>
<path d="M297.902 360.15C297.947 360.15 298.181 359.907 298.415 359.538C298.649 359.169 298.802 358.854 298.748 358.827C298.694 358.8 298.478 359.079 298.244 359.448C298.01 359.817 297.902 360.123 297.902 360.15Z" fill="#263238"/>
<path d="M296.522 359.52C296.522 359.52 296.819 359.385 297.098 359.142C297.377 358.899 297.575 358.656 297.539 358.62C297.503 358.584 297.242 358.755 296.963 358.998C296.684 359.241 296.477 359.484 296.522 359.52Z" fill="#263238"/>
<path d="M295.613 358.071C295.904 358.164 296.211 358.192 296.513 358.152C296.818 358.182 297.125 358.146 297.413 358.044C297.123 357.951 296.816 357.923 296.513 357.963C296.209 357.934 295.902 357.971 295.613 358.071Z" fill="#263238"/>
<path d="M295.289 357C295.598 357.145 295.933 357.227 296.275 357.243C296.616 357.258 296.957 357.206 297.278 357.09C296.946 357.057 296.611 357.057 296.279 357.09C295.953 357.029 295.621 356.999 295.289 357Z" fill="#263238"/>
<path d="M298.434 358.8C298.791 358.866 299.157 358.866 299.514 358.8C299.901 358.746 300.284 358.659 300.657 358.539C300.882 358.473 301.099 358.382 301.305 358.269C301.43 358.202 301.523 358.089 301.566 357.954C301.578 357.876 301.568 357.797 301.536 357.725C301.504 357.653 301.452 357.592 301.386 357.549C300.97 357.37 300.508 357.333 300.069 357.442C299.63 357.55 299.239 357.8 298.956 358.152C298.794 358.351 298.68 358.586 298.623 358.836C298.623 359.007 298.623 359.106 298.623 359.106C298.72 358.779 298.879 358.474 299.091 358.206C299.328 357.928 299.64 357.725 299.991 357.621C300.405 357.462 300.863 357.462 301.278 357.621C301.458 357.738 301.395 357.927 301.206 358.035C301.017 358.142 300.818 358.229 300.612 358.296C300.249 358.418 299.88 358.518 299.505 358.593C298.803 358.737 298.434 358.746 298.434 358.8Z" fill="#263238"/>
<path d="M298.709 358.8C298.774 358.696 298.817 358.581 298.836 358.46C298.854 358.339 298.848 358.216 298.817 358.098C298.77 357.835 298.659 357.588 298.493 357.378C298.396 357.228 298.262 357.104 298.105 357.018C297.948 356.931 297.773 356.885 297.593 356.883C297.541 356.893 297.49 356.913 297.445 356.942C297.4 356.971 297.362 357.009 297.332 357.054C297.302 357.098 297.281 357.148 297.27 357.201C297.259 357.253 297.259 357.307 297.269 357.36C297.302 357.52 297.37 357.67 297.467 357.801C297.617 358.022 297.795 358.222 297.998 358.395C298.177 358.571 298.392 358.706 298.628 358.791C298.628 358.791 298.403 358.611 298.097 358.305C297.922 358.123 297.765 357.924 297.629 357.711C297.476 357.504 297.359 357.126 297.629 357.072C297.773 357.085 297.911 357.127 298.037 357.197C298.163 357.267 298.272 357.362 298.358 357.477C298.512 357.667 298.623 357.888 298.682 358.125C298.712 358.349 298.721 358.575 298.709 358.8Z" fill="#263238"/>
<path d="M280.496 358.242C280.496 358.242 280.973 358.188 281.738 358.242C282.707 358.328 283.637 358.663 284.438 359.214C285.231 359.756 285.855 360.511 286.238 361.392C286.375 361.754 286.492 362.124 286.589 362.499C286.608 362.395 286.608 362.288 286.589 362.184C286.552 361.898 286.482 361.617 286.382 361.347C286.033 360.417 285.404 359.619 284.582 359.061C283.741 358.479 282.751 358.148 281.729 358.107C281.428 358.1 281.128 358.115 280.829 358.152C280.714 358.162 280.601 358.193 280.496 358.242Z" fill="#263238"/>
<path d="M288.684 361.014C289.493 361.171 290.318 361.225 291.141 361.176C291.966 361.193 292.791 361.111 293.598 360.933C293.598 360.879 292.491 360.933 291.141 360.987C289.791 361.041 288.693 360.96 288.684 361.014Z" fill="#263238"/>
<path d="M285.391 361.095C285.391 361.14 285.49 361.311 285.607 361.545C285.724 361.779 285.796 361.977 285.85 361.977C285.904 361.977 285.931 361.725 285.787 361.455C285.643 361.185 285.427 361.059 285.391 361.095Z" fill="#263238"/>
<path d="M284.105 359.7C284.105 359.745 284.186 359.898 284.357 360.06C284.528 360.222 284.717 360.321 284.753 360.276C284.789 360.231 284.681 360.078 284.501 359.925C284.321 359.772 284.15 359.7 284.105 359.7Z" fill="#263238"/>
<path d="M282.313 359.088C282.313 359.133 282.547 359.133 282.799 359.205C283.051 359.277 283.231 359.394 283.267 359.358C283.303 359.322 283.168 359.106 282.853 359.025C282.538 358.944 282.295 359.034 282.313 359.088Z" fill="#263238"/>
<path d="M281.035 358.8C281.035 358.845 281.116 358.926 281.26 358.971C281.404 359.016 281.53 359.016 281.548 358.971C281.566 358.926 281.467 358.845 281.323 358.791C281.179 358.737 281.053 358.8 281.035 358.8Z" fill="#263238"/>
<path d="M370.655 340.89C373.226 339.685 376.116 339.338 378.9 339.9C380.418 340.031 381.849 340.664 382.967 341.7C383.984 342.825 384.183 344.796 383.013 345.759C382.26 346.27 381.353 346.503 380.448 346.416C378.27 346.416 375.858 346.002 374.147 347.316C373.157 348.063 372.501 349.305 371.313 349.674C370.718 349.812 370.095 349.752 369.538 349.504C368.98 349.255 368.52 348.831 368.226 348.297C367.661 347.206 367.535 345.94 367.874 344.76C368.011 343.945 368.333 343.172 368.815 342.501C369.297 341.83 369.927 341.279 370.655 340.89Z" fill="#FF725E"/>
<path opacity="0.2" d="M370.655 340.89C373.226 339.685 376.116 339.338 378.9 339.9C380.418 340.031 381.849 340.664 382.967 341.7C383.984 342.825 384.183 344.796 383.013 345.759C382.26 346.27 381.353 346.503 380.448 346.416C378.27 346.416 375.858 346.002 374.147 347.316C373.157 348.063 372.501 349.305 371.313 349.674C370.718 349.812 370.095 349.752 369.538 349.504C368.98 349.255 368.52 348.831 368.226 348.297C367.661 347.206 367.535 345.94 367.874 344.76C368.011 343.945 368.333 343.172 368.815 342.501C369.297 341.83 369.927 341.279 370.655 340.89Z" fill="white"/>
<path d="M364.913 329.802C366.452 331.998 369.413 331.269 370.808 329.937C372.203 328.605 372.77 326.661 373.301 324.816C374.516 320.604 375.74 316.176 374.84 311.883C374.622 310.58 374.049 309.363 373.184 308.364C372.748 307.872 372.19 307.503 371.566 307.294C370.942 307.086 370.274 307.045 369.629 307.176C368.126 307.572 367.19 309.048 366.515 310.443C364.526 314.58 363.487 319.109 363.473 323.7C363.33 325.838 363.831 327.97 364.913 329.82" fill="#FF725E"/>
<path opacity="0.3" d="M364.913 329.802C366.452 331.998 369.413 331.269 370.808 329.937C372.203 328.605 372.77 326.661 373.301 324.816C374.516 320.604 375.74 316.176 374.84 311.883C374.622 310.58 374.049 309.363 373.184 308.364C372.748 307.872 372.19 307.503 371.566 307.294C370.942 307.086 370.274 307.045 369.629 307.176C368.126 307.572 367.19 309.048 366.515 310.443C364.526 314.58 363.487 319.109 363.473 323.7C363.33 325.838 363.831 327.97 364.913 329.82" fill="#111111"/>
<path d="M360.712 332.943C361.499 331.915 362.023 330.71 362.239 329.434C362.456 328.157 362.358 326.847 361.954 325.617C361.113 323.157 359.608 320.976 357.607 319.317C355.34 317.298 352.702 315.739 349.84 314.727C348.73 314.285 347.541 314.083 346.348 314.133C345.749 314.17 345.168 314.353 344.656 314.667C344.144 314.981 343.718 315.416 343.414 315.933C342.595 317.49 343.414 319.38 344.224 320.928C345.719 323.647 347.425 326.244 349.327 328.695C350.857 330.666 352.612 332.61 354.943 333.501C357.274 334.392 359.695 334.293 360.937 332.673" fill="#FF725E"/>
<path d="M364.817 362.814C364.894 362.486 364.939 362.151 364.952 361.815L365.222 359.115C365.355 357.779 365.556 356.452 365.825 355.137C366.183 353.535 366.668 351.964 367.274 350.439C367.867 348.912 368.676 347.479 369.677 346.182C370.489 345.128 371.525 344.267 372.71 343.662C373.512 343.266 374.372 342.999 375.257 342.87C375.591 342.858 375.923 342.81 376.247 342.726C375.912 342.689 375.574 342.689 375.239 342.726C374.305 342.794 373.39 343.028 372.539 343.419C371.293 344.012 370.2 344.883 369.344 345.966C368.305 347.28 367.467 348.742 366.86 350.304C366.243 351.849 365.761 353.445 365.42 355.074C365.164 356.406 364.986 357.753 364.889 359.106C364.808 360.258 364.772 361.185 364.754 361.806C364.741 362.143 364.762 362.481 364.817 362.814Z" fill="#263238"/>
<path d="M365.005 360.726C365.017 360.57 365.017 360.414 365.005 360.258C365.005 359.916 365.005 359.475 365.005 358.944C365.005 357.801 365.005 356.145 365.068 354.093C365.167 350.007 365.518 345.597 366.202 339.387C366.841 333.555 367.705 326.787 368.623 322.341C368.821 321.342 369.01 320.433 369.199 319.641C369.388 318.849 369.532 318.165 369.676 317.607C369.82 317.049 369.901 316.662 369.982 316.329C370.022 316.179 370.049 316.025 370.063 315.87C369.991 316.006 369.936 316.152 369.901 316.302L369.523 317.571C369.352 318.12 369.172 318.795 368.974 319.587C368.776 320.379 368.551 321.279 368.335 322.287C367.216 327.51 366.371 332.788 365.806 338.1C365.131 344.319 364.816 349.989 364.789 354.093C364.789 356.145 364.789 357.801 364.861 358.944C364.861 359.484 364.924 359.916 364.942 360.267C364.943 360.422 364.964 360.576 365.005 360.726Z" fill="#263238"/>
<path d="M365.033 349.8C365.064 349.341 365.064 348.881 365.033 348.423C364.979 347.523 364.853 346.254 364.61 344.688C364.303 342.852 363.897 341.035 363.395 339.243C362.799 337.043 362.038 334.892 361.118 332.808C359.539 328.965 357.276 325.44 354.44 322.404C353.946 321.886 353.42 321.399 352.865 320.946C352.622 320.739 352.415 320.541 352.199 320.379L351.587 319.956C351.219 319.68 350.831 319.434 350.426 319.218C351.762 320.268 353.031 321.401 354.224 322.611C356.971 325.667 359.175 329.17 360.74 332.97C361.644 335.043 362.408 337.175 363.026 339.351C363.552 341.127 363.985 342.929 364.322 344.751C364.61 346.308 364.772 347.577 364.871 348.45C364.89 348.903 364.944 349.355 365.033 349.8Z" fill="#263238"/>
<path d="M162.155 384V374.047H164.965C165.831 374.047 166.596 374.238 167.262 374.621C167.927 375.004 168.44 375.549 168.8 376.255C169.164 376.961 169.349 377.772 169.354 378.688V379.324C169.354 380.263 169.171 381.086 168.807 381.792C168.447 382.498 167.929 383.041 167.255 383.419C166.585 383.797 165.803 383.991 164.91 384H162.155ZM163.468 375.127V382.927H164.849C165.86 382.927 166.646 382.612 167.207 381.983C167.772 381.354 168.055 380.459 168.055 379.297V378.716C168.055 377.586 167.788 376.708 167.255 376.084C166.726 375.455 165.974 375.136 164.999 375.127H163.468ZM174.214 384.137C173.211 384.137 172.396 383.809 171.767 383.152C171.138 382.492 170.823 381.61 170.823 380.507V380.274C170.823 379.541 170.962 378.887 171.24 378.312C171.523 377.734 171.915 377.283 172.416 376.959C172.922 376.631 173.469 376.467 174.057 376.467C175.018 376.467 175.766 376.784 176.299 377.417C176.832 378.05 177.099 378.957 177.099 380.138V380.664H172.088C172.106 381.393 172.318 381.983 172.724 382.435C173.134 382.881 173.653 383.104 174.282 383.104C174.729 383.104 175.107 383.013 175.417 382.831C175.727 382.649 175.998 382.407 176.23 382.106L177.003 382.708C176.383 383.66 175.453 384.137 174.214 384.137ZM174.057 377.506C173.546 377.506 173.118 377.693 172.771 378.066C172.425 378.436 172.211 378.955 172.129 379.625H175.834V379.529C175.798 378.887 175.624 378.39 175.314 378.039C175.005 377.684 174.585 377.506 174.057 377.506ZM182.875 382.038C182.875 381.696 182.745 381.432 182.485 381.245C182.23 381.054 181.781 380.89 181.139 380.753C180.501 380.616 179.993 380.452 179.614 380.261C179.241 380.069 178.963 379.841 178.78 379.577C178.603 379.313 178.514 378.998 178.514 378.634C178.514 378.028 178.769 377.515 179.279 377.096C179.794 376.676 180.451 376.467 181.248 376.467C182.087 376.467 182.766 376.683 183.285 377.116C183.809 377.549 184.071 378.103 184.071 378.777H182.8C182.8 378.431 182.652 378.132 182.355 377.882C182.064 377.631 181.695 377.506 181.248 377.506C180.788 377.506 180.428 377.606 180.168 377.807C179.908 378.007 179.778 378.269 179.778 378.593C179.778 378.898 179.899 379.128 180.141 379.283C180.382 379.438 180.817 379.586 181.446 379.728C182.08 379.869 182.592 380.037 182.984 380.233C183.376 380.429 183.666 380.666 183.853 380.944C184.044 381.218 184.14 381.553 184.14 381.949C184.14 382.61 183.875 383.141 183.347 383.542C182.818 383.938 182.132 384.137 181.289 384.137C180.697 384.137 180.173 384.032 179.717 383.822C179.261 383.613 178.903 383.321 178.644 382.947C178.388 382.569 178.261 382.161 178.261 381.724H179.525C179.548 382.147 179.717 382.485 180.031 382.735C180.35 382.981 180.77 383.104 181.289 383.104C181.768 383.104 182.15 383.009 182.438 382.817C182.729 382.621 182.875 382.362 182.875 382.038ZM187.161 384H185.896V376.604H187.161V384ZM185.794 374.642C185.794 374.437 185.855 374.263 185.979 374.122C186.106 373.981 186.293 373.91 186.539 373.91C186.785 373.91 186.972 373.981 187.1 374.122C187.227 374.263 187.291 374.437 187.291 374.642C187.291 374.847 187.227 375.018 187.1 375.154C186.972 375.291 186.785 375.359 186.539 375.359C186.293 375.359 186.106 375.291 185.979 375.154C185.855 375.018 185.794 374.847 185.794 374.642ZM188.891 380.24C188.891 379.087 189.157 378.171 189.69 377.492C190.224 376.809 190.93 376.467 191.81 376.467C192.712 376.467 193.416 376.786 193.922 377.424L193.983 376.604H195.139V383.822C195.139 384.779 194.854 385.534 194.284 386.085C193.719 386.636 192.958 386.912 192.001 386.912C191.468 386.912 190.946 386.798 190.436 386.57C189.925 386.342 189.535 386.03 189.267 385.634L189.923 384.875C190.465 385.545 191.128 385.88 191.912 385.88C192.527 385.88 193.006 385.707 193.348 385.36C193.694 385.014 193.867 384.526 193.867 383.897V383.262C193.361 383.845 192.671 384.137 191.796 384.137C190.93 384.137 190.228 383.788 189.69 383.091C189.157 382.394 188.891 381.443 188.891 380.24ZM190.162 380.384C190.162 381.218 190.333 381.874 190.675 382.353C191.017 382.826 191.495 383.063 192.11 383.063C192.908 383.063 193.493 382.701 193.867 381.977V378.6C193.48 377.893 192.899 377.54 192.124 377.54C191.509 377.54 191.028 377.779 190.682 378.258C190.335 378.736 190.162 379.445 190.162 380.384ZM198.249 376.604L198.29 377.533C198.855 376.822 199.593 376.467 200.505 376.467C202.068 376.467 202.856 377.349 202.87 379.112V384H201.605V379.105C201.601 378.572 201.478 378.178 201.236 377.923C200.999 377.668 200.628 377.54 200.122 377.54C199.712 377.54 199.352 377.649 199.042 377.868C198.732 378.087 198.491 378.374 198.317 378.729V384H197.053V376.604H198.249ZM207.847 384.137C206.844 384.137 206.028 383.809 205.399 383.152C204.771 382.492 204.456 381.61 204.456 380.507V380.274C204.456 379.541 204.595 378.887 204.873 378.312C205.156 377.734 205.548 377.283 206.049 376.959C206.555 376.631 207.102 376.467 207.689 376.467C208.651 376.467 209.398 376.784 209.932 377.417C210.465 378.05 210.731 378.957 210.731 380.138V380.664H205.721C205.739 381.393 205.951 381.983 206.356 382.435C206.767 382.881 207.286 383.104 207.915 383.104C208.362 383.104 208.74 383.013 209.05 382.831C209.36 382.649 209.631 382.407 209.863 382.106L210.636 382.708C210.016 383.66 209.086 384.137 207.847 384.137ZM207.689 377.506C207.179 377.506 206.751 377.693 206.404 378.066C206.058 378.436 205.844 378.955 205.762 379.625H209.467V379.529C209.43 378.887 209.257 378.39 208.947 378.039C208.637 377.684 208.218 377.506 207.689 377.506ZM211.894 380.24C211.894 379.105 212.162 378.194 212.7 377.506C213.238 376.813 213.942 376.467 214.812 376.467C215.678 376.467 216.364 376.763 216.87 377.355V373.5H218.135V384H216.973L216.911 383.207C216.405 383.827 215.701 384.137 214.799 384.137C213.942 384.137 213.243 383.786 212.7 383.084C212.162 382.382 211.894 381.466 211.894 380.336V380.24ZM213.158 380.384C213.158 381.222 213.331 381.879 213.678 382.353C214.024 382.826 214.503 383.063 215.113 383.063C215.915 383.063 216.501 382.703 216.87 381.983V378.586C216.492 377.889 215.911 377.54 215.127 377.54C214.507 377.54 214.024 377.779 213.678 378.258C213.331 378.736 213.158 379.445 213.158 380.384ZM229.838 380.384C229.838 381.514 229.578 382.423 229.059 383.111C228.539 383.795 227.842 384.137 226.967 384.137C226.033 384.137 225.31 383.806 224.8 383.146L224.738 384H223.576V373.5H224.841V377.417C225.351 376.784 226.055 376.467 226.953 376.467C227.851 376.467 228.555 376.806 229.065 377.485C229.58 378.164 229.838 379.094 229.838 380.274V380.384ZM228.573 380.24C228.573 379.379 228.407 378.714 228.074 378.244C227.742 377.775 227.263 377.54 226.639 377.54C225.805 377.54 225.205 377.927 224.841 378.702V381.901C225.228 382.676 225.832 383.063 226.652 383.063C227.258 383.063 227.73 382.829 228.067 382.359C228.405 381.89 228.573 381.184 228.573 380.24ZM233.775 382.147L235.498 376.604H236.852L233.878 385.142C233.418 386.372 232.686 386.987 231.684 386.987L231.444 386.967L230.973 386.878V385.853L231.314 385.88C231.743 385.88 232.076 385.793 232.312 385.62C232.554 385.447 232.752 385.13 232.907 384.67L233.188 383.918L230.549 376.604H231.93L233.775 382.147ZM245.766 382.038C245.766 381.696 245.636 381.432 245.376 381.245C245.121 381.054 244.672 380.89 244.029 380.753C243.391 380.616 242.883 380.452 242.505 380.261C242.131 380.069 241.853 379.841 241.671 379.577C241.493 379.313 241.404 378.998 241.404 378.634C241.404 378.028 241.66 377.515 242.17 377.096C242.685 376.676 243.341 376.467 244.139 376.467C244.977 376.467 245.656 376.683 246.176 377.116C246.7 377.549 246.962 378.103 246.962 378.777H245.69C245.69 378.431 245.542 378.132 245.246 377.882C244.954 377.631 244.585 377.506 244.139 377.506C243.678 377.506 243.318 377.606 243.059 377.807C242.799 378.007 242.669 378.269 242.669 378.593C242.669 378.898 242.79 379.128 243.031 379.283C243.273 379.438 243.708 379.586 244.337 379.728C244.97 379.869 245.483 380.037 245.875 380.233C246.267 380.429 246.556 380.666 246.743 380.944C246.935 381.218 247.03 381.553 247.03 381.949C247.03 382.61 246.766 383.141 246.237 383.542C245.709 383.938 245.023 384.137 244.18 384.137C243.587 384.137 243.063 384.032 242.607 383.822C242.152 383.613 241.794 383.321 241.534 382.947C241.279 382.569 241.151 382.161 241.151 381.724H242.416C242.439 382.147 242.607 382.485 242.922 382.735C243.241 382.981 243.66 383.104 244.18 383.104C244.658 383.104 245.041 383.009 245.328 382.817C245.62 382.621 245.766 382.362 245.766 382.038ZM250.394 374.812V376.604H251.774V377.581H250.394V382.168C250.394 382.464 250.455 382.688 250.578 382.838C250.701 382.984 250.911 383.057 251.207 383.057C251.353 383.057 251.553 383.029 251.809 382.975V384C251.476 384.091 251.152 384.137 250.838 384.137C250.273 384.137 249.847 383.966 249.56 383.624C249.272 383.282 249.129 382.797 249.129 382.168V377.581H247.782V376.604H249.129V374.812H250.394ZM252.786 380.233C252.786 379.509 252.927 378.857 253.21 378.278C253.497 377.7 253.894 377.253 254.399 376.938C254.91 376.624 255.491 376.467 256.143 376.467C257.15 376.467 257.963 376.815 258.583 377.513C259.207 378.21 259.52 379.137 259.52 380.295V380.384C259.52 381.104 259.381 381.751 259.103 382.325C258.829 382.895 258.435 383.339 257.92 383.658C257.41 383.977 256.822 384.137 256.156 384.137C255.154 384.137 254.34 383.788 253.716 383.091C253.096 382.394 252.786 381.471 252.786 380.322V380.233ZM254.058 380.384C254.058 381.204 254.247 381.863 254.625 382.359C255.008 382.856 255.518 383.104 256.156 383.104C256.799 383.104 257.309 382.854 257.688 382.353C258.066 381.847 258.255 381.14 258.255 380.233C258.255 379.422 258.061 378.766 257.674 378.265C257.291 377.759 256.781 377.506 256.143 377.506C255.518 377.506 255.015 377.754 254.632 378.251C254.249 378.748 254.058 379.459 254.058 380.384ZM264.681 377.738C264.489 377.706 264.282 377.69 264.059 377.69C263.229 377.69 262.666 378.044 262.37 378.75V384H261.105V376.604H262.336L262.356 377.458C262.771 376.797 263.359 376.467 264.12 376.467C264.366 376.467 264.553 376.499 264.681 376.562V377.738ZM267.224 384H265.959V376.604H267.224V384ZM265.856 374.642C265.856 374.437 265.918 374.263 266.041 374.122C266.169 373.981 266.355 373.91 266.602 373.91C266.848 373.91 267.035 373.981 267.162 374.122C267.29 374.263 267.354 374.437 267.354 374.642C267.354 374.847 267.29 375.018 267.162 375.154C267.035 375.291 266.848 375.359 266.602 375.359C266.355 375.359 266.169 375.291 266.041 375.154C265.918 375.018 265.856 374.847 265.856 374.642ZM272.323 384.137C271.321 384.137 270.505 383.809 269.876 383.152C269.247 382.492 268.933 381.61 268.933 380.507V380.274C268.933 379.541 269.072 378.887 269.35 378.312C269.632 377.734 270.024 377.283 270.525 376.959C271.031 376.631 271.578 376.467 272.166 376.467C273.128 376.467 273.875 376.784 274.408 377.417C274.941 378.05 275.208 378.957 275.208 380.138V380.664H270.197C270.215 381.393 270.427 381.983 270.833 382.435C271.243 382.881 271.763 383.104 272.392 383.104C272.838 383.104 273.216 383.013 273.526 382.831C273.836 382.649 274.107 382.407 274.34 382.106L275.112 382.708C274.493 383.66 273.563 384.137 272.323 384.137ZM272.166 377.506C271.656 377.506 271.227 377.693 270.881 378.066C270.535 378.436 270.32 378.955 270.238 379.625H273.943V379.529C273.907 378.887 273.734 378.39 273.424 378.039C273.114 377.684 272.695 377.506 272.166 377.506ZM280.984 382.038C280.984 381.696 280.854 381.432 280.595 381.245C280.34 381.054 279.891 380.89 279.248 380.753C278.61 380.616 278.102 380.452 277.724 380.261C277.35 380.069 277.072 379.841 276.89 379.577C276.712 379.313 276.623 378.998 276.623 378.634C276.623 378.028 276.878 377.515 277.389 377.096C277.904 376.676 278.56 376.467 279.357 376.467C280.196 376.467 280.875 376.683 281.395 377.116C281.919 377.549 282.181 378.103 282.181 378.777H280.909C280.909 378.431 280.761 378.132 280.465 377.882C280.173 377.631 279.804 377.506 279.357 377.506C278.897 377.506 278.537 377.606 278.277 377.807C278.018 378.007 277.888 378.269 277.888 378.593C277.888 378.898 278.008 379.128 278.25 379.283C278.492 379.438 278.927 379.586 279.556 379.728C280.189 379.869 280.702 380.037 281.094 380.233C281.486 380.429 281.775 380.666 281.962 380.944C282.153 381.218 282.249 381.553 282.249 381.949C282.249 382.61 281.985 383.141 281.456 383.542C280.927 383.938 280.242 384.137 279.398 384.137C278.806 384.137 278.282 384.032 277.826 383.822C277.37 383.613 277.013 383.321 276.753 382.947C276.498 382.569 276.37 382.161 276.37 381.724H277.635C277.658 382.147 277.826 382.485 278.141 382.735C278.46 382.981 278.879 383.104 279.398 383.104C279.877 383.104 280.26 383.009 280.547 382.817C280.839 382.621 280.984 382.362 280.984 382.038ZM287.622 384.854H286.535L290.691 374.047H291.771L287.622 384.854ZM302.299 379.604H298.122V384H296.81V374.047H302.976V375.127H298.122V378.531H302.299V379.604ZM307.747 377.738C307.556 377.706 307.348 377.69 307.125 377.69C306.296 377.69 305.733 378.044 305.437 378.75V384H304.172V376.604H305.402L305.423 377.458C305.838 376.797 306.425 376.467 307.187 376.467C307.433 376.467 307.619 376.499 307.747 376.562V377.738ZM311.849 384.137C310.846 384.137 310.03 383.809 309.401 383.152C308.772 382.492 308.458 381.61 308.458 380.507V380.274C308.458 379.541 308.597 378.887 308.875 378.312C309.158 377.734 309.549 377.283 310.051 376.959C310.557 376.631 311.104 376.467 311.691 376.467C312.653 376.467 313.4 376.784 313.934 377.417C314.467 378.05 314.733 378.957 314.733 380.138V380.664H309.723C309.741 381.393 309.953 381.983 310.358 382.435C310.769 382.881 311.288 383.104 311.917 383.104C312.364 383.104 312.742 383.013 313.052 382.831C313.362 382.649 313.633 382.407 313.865 382.106L314.638 382.708C314.018 383.66 313.088 384.137 311.849 384.137ZM311.691 377.506C311.181 377.506 310.753 377.693 310.406 378.066C310.06 378.436 309.846 378.955 309.764 379.625H313.469V379.529C313.432 378.887 313.259 378.39 312.949 378.039C312.639 377.684 312.22 377.506 311.691 377.506ZM319.272 384.137C318.27 384.137 317.454 383.809 316.825 383.152C316.196 382.492 315.882 381.61 315.882 380.507V380.274C315.882 379.541 316.021 378.887 316.299 378.312C316.581 377.734 316.973 377.283 317.475 376.959C317.98 376.631 318.527 376.467 319.115 376.467C320.077 376.467 320.824 376.784 321.357 377.417C321.891 378.05 322.157 378.957 322.157 380.138V380.664H317.146C317.165 381.393 317.377 381.983 317.782 382.435C318.192 382.881 318.712 383.104 319.341 383.104C319.787 383.104 320.166 383.013 320.476 382.831C320.785 382.649 321.057 382.407 321.289 382.106L322.062 382.708C321.442 383.66 320.512 384.137 319.272 384.137ZM319.115 377.506C318.605 377.506 318.176 377.693 317.83 378.066C317.484 378.436 317.27 378.955 317.188 379.625H320.893V379.529C320.856 378.887 320.683 378.39 320.373 378.039C320.063 377.684 319.644 377.506 319.115 377.506ZM329.875 380.384C329.875 381.509 329.618 382.416 329.103 383.104C328.588 383.793 327.89 384.137 327.011 384.137C326.113 384.137 325.407 383.852 324.892 383.282V386.844H323.627V376.604H324.782L324.844 377.424C325.359 376.786 326.074 376.467 326.99 376.467C327.879 376.467 328.581 376.802 329.096 377.472C329.615 378.142 329.875 379.074 329.875 380.268V380.384ZM328.61 380.24C328.61 379.406 328.433 378.748 328.077 378.265C327.722 377.782 327.234 377.54 326.614 377.54C325.849 377.54 325.274 377.88 324.892 378.559V382.093C325.27 382.767 325.849 383.104 326.628 383.104C327.234 383.104 327.715 382.865 328.07 382.387C328.43 381.904 328.61 381.188 328.61 380.24ZM332.862 384H331.598V376.604H332.862V384ZM331.495 374.642C331.495 374.437 331.557 374.263 331.68 374.122C331.807 373.981 331.994 373.91 332.24 373.91C332.486 373.91 332.673 373.981 332.801 374.122C332.928 374.263 332.992 374.437 332.992 374.642C332.992 374.847 332.928 375.018 332.801 375.154C332.673 375.291 332.486 375.359 332.24 375.359C331.994 375.359 331.807 375.291 331.68 375.154C331.557 375.018 331.495 374.847 331.495 374.642ZM336.957 380.575L336.164 381.402V384H334.899V373.5H336.164V379.851L336.841 379.037L339.145 376.604H340.683L337.805 379.693L341.018 384H339.534L336.957 380.575Z" fill="#ACA9A9"/>
</svg>
