<svg width="450" height="450" viewBox="0 0 450 450" fill="none" xmlns="http://www.w3.org/2000/svg">
<path d="M82.0514 61.6141C82.0725 56.5474 80.9229 51.5443 78.6922 46.995C76.4616 42.4458 73.2102 38.4733 69.1916 35.3873C65.173 32.3014 60.4959 30.1855 55.525 29.2046C50.5541 28.2237 45.4239 28.4044 40.5343 29.7324C35.6447 31.0605 31.128 33.5002 27.3364 36.8611C23.5448 40.222 20.5809 44.4134 18.6757 49.1083C16.7706 53.8032 15.9757 58.8748 16.3531 63.9275C16.7305 68.9801 18.27 73.8773 20.8514 78.2371L20.9504 78.3541C22.2104 80.4871 23.7854 81.9541 25.3874 84.2401L44.4854 109.53C45.0381 110.264 45.7539 110.86 46.5762 111.27C47.3985 111.681 48.305 111.894 49.2239 111.894C50.1429 111.894 51.0493 111.681 51.8717 111.27C52.694 110.86 53.4098 110.264 53.9624 109.53L72.6824 84.6541C74.3871 82.6434 75.9795 80.5402 77.4524 78.3541L77.5244 78.2641C80.4978 73.2199 82.0613 67.4694 82.0514 61.6141ZM49.1564 75.9421C46.2924 75.9421 43.4926 75.0928 41.1112 73.5016C38.7298 71.9104 36.8738 69.6488 35.7777 67.0027C34.6817 64.3567 34.3949 61.445 34.9537 58.636C35.5124 55.827 36.8916 53.2467 38.9168 51.2215C40.942 49.1963 43.5223 47.8171 46.3313 47.2584C49.1404 46.6996 52.052 46.9864 54.6981 48.0824C57.3441 49.1784 59.6058 51.0345 61.197 53.4159C62.7881 55.7973 63.6374 58.597 63.6374 61.4611C63.6386 63.3631 63.2649 65.2467 62.5376 67.0041C61.8102 68.7616 60.7436 70.3584 59.3987 71.7034C58.0538 73.0483 56.4569 74.1149 54.6995 74.8422C52.942 75.5695 51.0584 75.9433 49.1564 75.9421Z" fill="#F5F5F5"/>
<path d="M436.822 261.108C436.825 258.879 436.314 256.679 435.328 254.679C434.342 252.679 432.909 250.934 431.139 249.578C429.369 248.223 427.31 247.294 425.123 246.863C422.935 246.433 420.678 246.512 418.526 247.096C416.375 247.68 414.387 248.752 412.717 250.229C411.047 251.706 409.74 253.549 408.898 255.613C408.056 257.677 407.701 259.908 407.862 262.132C408.022 264.355 408.693 266.512 409.822 268.434V268.488C410.38 269.388 411.082 270.099 411.784 271.08L420.199 282.231C420.443 282.555 420.759 282.818 421.122 283C421.486 283.181 421.886 283.275 422.292 283.275C422.698 283.275 423.098 283.181 423.461 283C423.824 282.818 424.14 282.555 424.384 282.231L432.655 271.269C433.409 270.379 434.112 269.448 434.761 268.479V268.434C436.095 266.222 436.807 263.691 436.822 261.108ZM422.323 267.408C421.061 267.408 419.827 267.034 418.778 266.333C417.729 265.632 416.911 264.635 416.428 263.469C415.945 262.303 415.819 261.02 416.065 259.782C416.311 258.544 416.919 257.407 417.811 256.515C418.704 255.623 419.841 255.015 421.078 254.769C422.316 254.523 423.599 254.649 424.765 255.132C425.931 255.615 426.928 256.433 427.629 257.482C428.33 258.531 428.704 259.765 428.704 261.027C428.705 261.866 428.541 262.697 428.221 263.473C427.901 264.249 427.432 264.954 426.839 265.548C426.246 266.142 425.543 266.614 424.768 266.936C423.993 267.258 423.162 267.425 422.323 267.426V267.408Z" fill="#F5F5F5"/>
<path d="M386.829 375.472C401.008 361.294 401.008 338.306 386.829 324.128C372.651 309.949 349.663 309.949 335.485 324.128C321.306 338.306 321.306 361.294 335.485 375.472C349.663 389.65 372.651 389.65 386.829 375.472Z" fill="#F5F5F5"/>
<path d="M361.161 380.025C355.183 380.027 349.339 378.256 344.368 374.936C339.397 371.616 335.522 366.897 333.233 361.375C330.944 355.853 330.344 349.776 331.509 343.913C332.674 338.049 335.552 332.664 339.778 328.436C344.005 324.209 349.39 321.329 355.252 320.162C361.115 318.996 367.192 319.594 372.715 321.881C378.238 324.168 382.958 328.042 386.28 333.012C389.601 337.982 391.374 343.825 391.374 349.803C391.367 357.815 388.181 365.496 382.517 371.162C376.853 376.828 369.172 380.016 361.161 380.025ZM361.161 324.756C356.207 324.756 351.364 326.225 347.245 328.977C343.126 331.729 339.916 335.641 338.02 340.218C336.125 344.795 335.629 349.831 336.595 354.69C337.561 359.548 339.947 364.011 343.45 367.514C346.953 371.017 351.416 373.402 356.274 374.369C361.133 375.335 366.169 374.839 370.746 372.943C375.322 371.048 379.234 367.837 381.986 363.718C384.739 359.599 386.208 354.757 386.208 349.803C386.201 343.162 383.559 336.796 378.864 332.1C374.168 327.404 367.801 324.763 361.161 324.756Z" fill="white"/>
<path d="M360.953 360.135C358.751 360.135 356.598 359.482 354.767 358.258C352.936 357.035 351.509 355.295 350.667 353.26C349.825 351.226 349.605 348.987 350.035 346.827C350.465 344.667 351.526 342.683 353.084 341.127C354.642 339.57 356.627 338.511 358.787 338.082C360.947 337.653 363.186 337.875 365.22 338.719C367.254 339.563 368.992 340.992 370.214 342.824C371.437 344.656 372.088 346.809 372.086 349.011C372.084 351.962 370.91 354.792 368.822 356.878C366.735 358.963 363.904 360.135 360.953 360.135ZM360.953 343.035C359.775 343.035 358.623 343.385 357.643 344.039C356.663 344.694 355.9 345.624 355.449 346.713C354.998 347.802 354.88 349 355.11 350.156C355.34 351.311 355.907 352.373 356.74 353.206C357.574 354.039 358.635 354.607 359.791 354.837C360.947 355.067 362.145 354.949 363.233 354.498C364.322 354.047 365.253 353.283 365.907 352.303C366.562 351.323 366.911 350.172 366.911 348.993C366.904 347.417 366.274 345.907 365.157 344.794C364.041 343.682 362.53 343.056 360.953 343.053V343.035Z" fill="white"/>
<path d="M360.951 349.011H346.884L349.341 353.349L316.23 368.523L317.346 370.386L350.565 355.383L352.842 359.694L360.951 349.011Z" fill="#E0E0E0"/>
<path d="M316.231 368.523L315.88 368.181C315.027 367.349 313.968 366.758 312.812 366.471C311.656 366.183 310.444 366.208 309.301 366.543L296.098 370.386L303.451 373.617L300.499 381.474L312.892 377.1C314.251 376.613 315.418 375.702 316.221 374.501C317.023 373.3 317.418 371.873 317.347 370.431L316.231 368.523Z" fill="#E0E0E0"/>
<path d="M156.015 376.137L156.285 376.047L157.068 375.822L160.074 374.922L171.333 371.763L171.225 371.952C170.649 370.017 170.001 367.857 169.317 365.535V365.436L169.407 365.355C172.525 362.742 175.178 359.62 177.255 356.121C178.411 354.15 179.295 352.03 179.883 349.821C180.499 347.473 180.643 345.025 180.306 342.621C179.489 337.396 176.872 332.621 172.908 329.121C168.622 325.378 163.271 323.071 157.608 322.524C153.356 322.163 149.089 323.018 145.305 324.99C141.658 326.764 138.507 329.414 136.134 332.703C133.947 335.802 132.59 339.408 132.192 343.179C132.138 344.079 132.003 344.979 132.021 345.879C132.039 346.779 132.066 347.679 132.093 348.507C132.236 350.197 132.537 351.869 132.993 353.502C133.44 355.036 134.043 356.519 134.793 357.93C135.527 359.244 136.395 360.477 137.385 361.611C139.19 363.635 141.319 365.344 143.685 366.669C147.137 368.627 150.92 369.933 154.845 370.521H154.908V370.575L155.808 374.661C155.898 375.111 155.97 375.462 156.015 375.714C156.06 375.966 156.087 376.074 156.087 376.083C156.044 375.979 156.014 375.87 155.997 375.759L155.745 374.733L154.773 370.611L154.854 370.683C150.886 370.145 147.054 368.866 143.559 366.912C141.16 365.585 139 363.867 137.169 361.827C136.141 360.68 135.236 359.428 134.469 358.092C133.685 356.661 133.052 355.153 132.579 353.592C132.127 351.934 131.826 350.238 131.679 348.525L131.598 345.825C131.598 344.925 131.715 344.025 131.769 343.125C132.161 339.277 133.538 335.595 135.765 332.433C138.177 329.075 141.383 326.366 145.098 324.549C148.973 322.529 153.344 321.657 157.698 322.038C163.474 322.585 168.931 324.938 173.295 328.761C175.351 330.571 177.062 332.739 178.344 335.16C178.685 335.738 178.986 336.34 179.244 336.96C179.522 337.542 179.756 338.144 179.946 338.76C180.135 339.39 180.342 340.002 180.513 340.623C180.684 341.244 180.738 341.892 180.855 342.522C181.189 344.985 181.033 347.49 180.396 349.893C179.791 352.136 178.882 354.286 177.696 356.283C175.579 359.811 172.879 362.954 169.713 365.58L169.776 365.4L171.639 371.817L171.684 371.961L171.54 372.006L160.155 375.03L157.158 375.813L156.402 376.002L156.015 376.137Z" fill="#E0E0E0"/>
<path d="M172.8 376.146C170.244 377.105 167.633 377.907 164.979 378.549C162.369 379.348 159.712 379.988 157.023 380.466C159.582 379.518 162.193 378.719 164.844 378.072C167.456 377.273 170.113 376.63 172.8 376.146Z" fill="#E0E0E0"/>
<path d="M169.279 383.508C168.475 384.076 167.551 384.452 166.579 384.606C165.641 384.909 164.647 384.995 163.672 384.858C164.574 384.516 165.509 384.269 166.462 384.12C167.378 383.823 168.322 383.618 169.279 383.508Z" fill="#E0E0E0"/>
<path d="M159.227 375.3C159.186 375.221 159.155 375.136 159.137 375.048C159.083 374.85 159.02 374.598 158.93 374.283C158.75 373.569 158.498 372.588 158.174 371.34C157.526 368.739 156.608 365.04 155.474 360.477C154.907 358.182 154.295 355.671 153.674 352.98C153.542 352.315 153.275 351.685 152.891 351.126C152.729 350.851 152.473 350.644 152.17 350.544C151.868 350.443 151.539 350.455 151.244 350.577C150.965 350.764 150.74 351.022 150.591 351.323C150.443 351.625 150.376 351.96 150.398 352.296C150.42 353.017 150.705 353.706 151.199 354.231C151.731 354.78 152.388 355.192 153.114 355.432C153.839 355.671 154.612 355.732 155.366 355.608C156.157 355.488 156.906 355.172 157.544 354.69C158.182 354.207 158.689 353.573 159.02 352.845C159.755 351.329 159.94 349.604 159.542 347.967C159.389 347.139 158.998 346.372 158.417 345.762C158.14 345.485 157.78 345.306 157.392 345.253C157.003 345.199 156.608 345.274 156.266 345.465C155.972 345.729 155.772 346.083 155.699 346.472C155.626 346.861 155.683 347.263 155.861 347.616C156.256 348.349 156.832 348.969 157.535 349.416C158.862 350.47 160.459 351.128 162.143 351.315C162.946 351.387 163.754 351.267 164.501 350.964C165.206 350.637 165.823 350.146 166.301 349.533C166.783 348.937 167.072 348.209 167.129 347.445C167.159 347.079 167.114 346.71 166.996 346.362C166.879 346.014 166.691 345.693 166.445 345.42C166.234 345.157 165.954 344.958 165.636 344.847C165.317 344.736 164.974 344.716 164.645 344.79C164.324 344.907 164.033 345.096 163.796 345.342C163.559 345.589 163.382 345.886 163.277 346.212C162.836 347.535 163.223 349.011 163.385 350.37C163.817 353.07 164.285 355.644 164.762 357.957C165.662 362.565 166.445 366.3 166.976 368.919C167.228 370.188 167.435 371.187 167.579 371.898C167.633 372.222 167.687 372.474 167.723 372.681C167.732 372.771 167.732 372.861 167.723 372.951C167.686 372.867 167.659 372.78 167.642 372.69C167.588 372.492 167.525 372.24 167.444 371.925C167.273 371.214 167.048 370.224 166.751 368.964C166.166 366.39 165.329 362.664 164.384 358.029C163.916 355.716 163.403 353.178 162.944 350.433C162.845 349.74 162.728 349.047 162.656 348.318C162.551 347.564 162.613 346.796 162.836 346.068C162.963 345.678 163.178 345.322 163.463 345.027C163.749 344.733 164.098 344.507 164.483 344.367C164.9 344.26 165.338 344.274 165.748 344.406C166.157 344.538 166.521 344.784 166.796 345.114C167.08 345.432 167.297 345.804 167.434 346.208C167.572 346.611 167.627 347.038 167.597 347.463C167.546 348.323 167.232 349.146 166.697 349.821C166.162 350.506 165.466 351.05 164.672 351.405C163.854 351.738 162.969 351.873 162.089 351.801C160.315 351.604 158.632 350.915 157.229 349.812C156.458 349.304 155.836 348.598 155.429 347.769C155.17 347.324 155.087 346.799 155.194 346.295C155.302 345.792 155.593 345.347 156.011 345.046C156.43 344.746 156.945 344.613 157.456 344.672C157.967 344.731 158.439 344.978 158.777 345.366C159.423 346.045 159.86 346.894 160.037 347.814C160.46 349.564 160.26 351.407 159.47 353.025C159.1 353.819 158.541 354.509 157.841 355.035C157.14 355.561 156.322 355.906 155.456 356.04C154.626 356.174 153.775 356.103 152.978 355.833C152.182 355.563 151.463 355.103 150.884 354.492C150.317 353.883 149.996 353.084 149.984 352.251C149.96 351.835 150.05 351.42 150.243 351.051C150.437 350.681 150.727 350.372 151.082 350.154C151.275 350.062 151.484 350.009 151.697 349.998C151.91 349.987 152.123 350.019 152.324 350.091C152.689 350.245 153.002 350.501 153.224 350.829C153.635 351.441 153.925 352.125 154.079 352.845C154.718 355.545 155.312 358.065 155.879 360.369L158.399 371.25C158.678 372.51 158.903 373.5 159.065 374.22C159.128 374.535 159.182 374.787 159.227 374.994C159.246 375.095 159.246 375.199 159.227 375.3Z" fill="#E0E0E0"/>
<path d="M172.176 379.512C170.129 380.334 168.023 380.999 165.876 381.501C163.761 382.16 161.602 382.665 159.414 383.013C161.461 382.192 163.567 381.527 165.714 381.024C167.829 380.367 169.989 379.861 172.176 379.512Z" fill="#E0E0E0"/>
<path d="M416.828 421.074C416.828 421.2 330.941 421.308 225.011 421.308C119.081 421.308 33.1758 421.2 33.1758 421.074C33.1758 420.948 119.045 420.84 225.011 420.84C330.977 420.84 416.828 420.939 416.828 421.074Z" fill="#263238"/>
<path d="M400.98 59.04H49.2148V81.576H400.98V59.04Z" fill="#E0E0E0"/>
<path d="M400.925 102.276H49.1602V299.556H400.925V102.276Z" fill="white"/>
<path d="M49.2148 81.4049H97.5178L102.297 67.4729H180.597L185.376 81.4049H400.98V102.753H49.2148V81.4049Z" fill="#EBEBEB"/>
<path d="M60.8233 68.031C60.8233 68.5544 60.6681 69.0659 60.3773 69.5011C60.0866 69.9362 59.6733 70.2753 59.1898 70.4756C58.7063 70.6759 58.1743 70.7283 57.661 70.6262C57.1478 70.5241 56.6763 70.2721 56.3062 69.902C55.9362 69.532 55.6842 69.0605 55.5821 68.5472C55.48 68.034 55.5324 67.5019 55.7327 67.0184C55.9329 66.535 56.2721 66.1217 56.7072 65.831C57.1423 65.5402 57.6539 65.385 58.1773 65.385C58.5251 65.3838 58.8697 65.4515 59.1912 65.584C59.5128 65.7166 59.805 65.9114 60.0509 66.1574C60.2968 66.4033 60.4917 66.6955 60.6243 67.017C60.7568 67.3386 60.8244 67.6832 60.8233 68.031Z" fill="#263238"/>
<path d="M69.0029 68.031C69.0029 68.5544 68.8478 69.0659 68.557 69.5011C68.2663 69.9362 67.853 70.2753 67.3695 70.4756C66.886 70.6759 66.354 70.7283 65.8407 70.6262C65.3275 70.5241 64.856 70.2721 64.4859 69.902C64.1159 69.532 63.8639 69.0605 63.7618 68.5472C63.6597 68.034 63.7121 67.5019 63.9124 67.0184C64.1126 66.535 64.4518 66.1217 64.8869 65.831C65.322 65.5402 65.8336 65.385 66.3569 65.385C66.7048 65.3838 67.0494 65.4515 67.3709 65.584C67.6925 65.7166 67.9847 65.9114 68.2306 66.1574C68.4765 66.4033 68.6714 66.6955 68.804 67.017C68.9365 67.3386 69.0041 67.6832 69.0029 68.031Z" fill="#263238"/>
<path d="M77.1865 68.031C77.1865 68.5544 77.0313 69.0659 76.7406 69.5011C76.4499 69.9362 76.0366 70.2753 75.5531 70.4756C75.0696 70.6759 74.5376 70.7283 74.0243 70.6262C73.511 70.5241 73.0396 70.2721 72.6695 69.902C72.2995 69.532 72.0475 69.0605 71.9454 68.5472C71.8433 68.034 71.8957 67.5019 72.0959 67.0184C72.2962 66.535 72.6354 66.1217 73.0705 65.831C73.5056 65.5402 74.0172 65.385 74.5405 65.385C74.8883 65.3838 75.2329 65.4515 75.5545 65.584C75.8761 65.7166 76.1682 65.9114 76.4142 66.1574C76.6601 66.4033 76.855 66.6955 76.9875 67.017C77.1201 67.3386 77.1877 67.6832 77.1865 68.031Z" fill="#263238"/>
<path d="M362.097 98.505H120.762C118.987 98.505 117.283 97.7996 116.028 96.5438C114.772 95.2881 114.066 93.5849 114.066 91.809C114.066 90.0331 114.772 88.33 116.028 87.0742C117.283 85.8185 118.987 85.113 120.762 85.113H362.097C363.873 85.113 365.576 85.8185 366.832 87.0742C368.088 88.33 368.793 90.0331 368.793 91.809C368.793 93.5849 368.088 95.2881 366.832 96.5438C365.576 97.7996 363.873 98.505 362.097 98.505Z" fill="#FAFAFA"/>
<path d="M126.541 92.6999V94.9679H125.398V92.8799C125.398 92.2409 125.101 91.9799 124.597 91.9799C124.093 91.9799 123.643 92.3219 123.643 93.0419V95.0039H122.5V89.5139H123.643V91.4219C123.987 91.1091 124.438 90.9414 124.903 90.9539C125.131 90.9387 125.361 90.9743 125.574 91.0582C125.787 91.1422 125.978 91.2723 126.135 91.4393C126.292 91.6064 126.409 91.8061 126.48 92.024C126.55 92.242 126.571 92.4729 126.541 92.6999Z" fill="#E0E0E0"/>
<path d="M130.125 94.77C129.856 94.9415 129.543 95.0293 129.225 95.022C129.029 95.0488 128.83 95.0309 128.643 94.9698C128.455 94.9086 128.284 94.8057 128.142 94.6689C128 94.532 127.891 94.3647 127.823 94.1796C127.754 93.9944 127.729 93.7962 127.749 93.5999V91.9799H127.137V91.0799H127.749V90.1169H128.892V91.0799H129.873V91.9799H128.892V93.5999C128.882 93.6684 128.888 93.7382 128.909 93.8042C128.93 93.8701 128.965 93.9304 129.013 93.9806C129.061 94.0308 129.119 94.0696 129.184 94.0941C129.248 94.1185 129.318 94.1281 129.387 94.122C129.553 94.124 129.714 94.0701 129.846 93.969L130.125 94.77Z" fill="#E0E0E0"/>
<path d="M133.203 94.77C132.934 94.9396 132.621 95.0271 132.303 95.022C132.107 95.0488 131.908 95.0309 131.721 94.9698C131.533 94.9086 131.362 94.8057 131.22 94.6689C131.078 94.532 130.969 94.3647 130.901 94.1796C130.833 93.9944 130.807 93.7962 130.827 93.5999V91.9799H130.215V91.0799H130.827V90.1169H131.97V91.0799H132.96V91.9799H131.97V93.5999C131.962 93.6681 131.969 93.7372 131.99 93.8024C132.012 93.8675 132.048 93.9271 132.095 93.977C132.142 94.0268 132.2 94.0656 132.264 94.0906C132.328 94.1157 132.396 94.1264 132.465 94.122C132.633 94.1239 132.798 94.0701 132.933 93.969L133.203 94.77Z" fill="#E0E0E0"/>
<path d="M138.189 92.988C138.205 93.254 138.166 93.5205 138.073 93.7705C137.981 94.0205 137.837 94.2485 137.652 94.4399C137.467 94.6313 137.243 94.7819 136.996 94.8821C136.749 94.9824 136.484 95.03 136.218 95.022C135.997 95.0324 135.777 94.9952 135.572 94.9129C135.367 94.8306 135.182 94.7051 135.03 94.545V96.345H133.887V90.945H135.003V91.404C135.158 91.2312 135.351 91.0954 135.566 91.0066C135.78 90.9178 136.013 90.8783 136.245 90.891C136.515 90.886 136.783 90.938 137.031 91.0437C137.279 91.1495 137.503 91.3064 137.686 91.5044C137.87 91.7024 138.009 91.9368 138.096 92.1925C138.182 92.4482 138.214 92.7192 138.189 92.988ZM137.028 92.988C137.01 92.7934 136.937 92.6081 136.816 92.4546C136.695 92.3011 136.532 92.186 136.347 92.1233C136.162 92.0606 135.963 92.053 135.774 92.1015C135.584 92.15 135.413 92.2524 135.281 92.3963C135.149 92.5402 135.062 92.7194 135.029 92.9121C134.997 93.1048 135.022 93.3027 135.1 93.4817C135.178 93.6607 135.307 93.8131 135.47 93.9204C135.633 94.0277 135.824 94.0852 136.02 94.086C136.16 94.088 136.3 94.0602 136.429 94.0044C136.558 93.9487 136.674 93.8663 136.77 93.7627C136.865 93.659 136.937 93.5364 136.981 93.4029C137.026 93.2694 137.042 93.128 137.028 92.988Z" fill="#E0E0E0"/>
<path d="M138.672 91.665C138.692 91.4891 138.776 91.3266 138.908 91.2086C139.04 91.0906 139.211 91.0254 139.388 91.0254C139.565 91.0254 139.736 91.0906 139.868 91.2086C140 91.3266 140.084 91.4891 140.103 91.665C140.115 91.7657 140.105 91.8677 140.074 91.9642C140.043 92.0607 139.992 92.1497 139.925 92.2252C139.857 92.3008 139.774 92.3612 139.682 92.4026C139.589 92.444 139.489 92.4654 139.388 92.4654C139.287 92.4654 139.186 92.444 139.094 92.4026C139.001 92.3612 138.919 92.3008 138.851 92.2252C138.784 92.1497 138.733 92.0607 138.702 91.9642C138.671 91.8677 138.661 91.7657 138.672 91.665ZM138.672 94.302C138.692 94.1261 138.776 93.9636 138.908 93.8456C139.04 93.7276 139.211 93.6624 139.388 93.6624C139.565 93.6624 139.736 93.7276 139.868 93.8456C140 93.9636 140.084 94.1261 140.103 94.302C140.115 94.4027 140.105 94.5047 140.074 94.6012C140.043 94.6977 139.992 94.7867 139.925 94.8622C139.857 94.9378 139.774 94.9982 139.682 95.0396C139.589 95.081 139.489 95.1024 139.388 95.1024C139.287 95.1024 139.186 95.081 139.094 95.0396C139.001 94.9982 138.919 94.9378 138.851 94.8622C138.784 94.7867 138.733 94.6977 138.702 94.6012C138.671 94.5047 138.661 94.4027 138.672 94.302Z" fill="#E0E0E0"/>
<path d="M142.921 88.7759H143.947L141.517 95.6969H140.5L142.921 88.7759Z" fill="#E0E0E0"/>
<path d="M145.27 88.7759H146.287L143.866 95.6969H142.84L145.27 88.7759Z" fill="#E0E0E0"/>
<path d="M361.884 137.754H151.617C148.469 137.754 145.449 136.503 143.223 134.277C140.997 132.051 139.746 129.031 139.746 125.883C139.748 122.735 141 119.717 143.226 117.492C145.451 115.266 148.469 114.014 151.617 114.012H361.884C365.032 114.014 368.05 115.266 370.275 117.492C372.501 119.717 373.753 122.735 373.755 125.883C373.755 129.031 372.504 132.051 370.278 134.277C368.052 136.503 365.032 137.754 361.884 137.754Z" fill="#FAFAFA"/>
<path d="M361.884 137.754C363.561 137.718 365.214 137.344 366.744 136.656C368.249 135.963 369.594 134.965 370.694 133.726C371.794 132.487 372.625 131.033 373.134 129.456C373.56 128.049 373.725 126.576 373.62 125.109C373.508 123.467 373.054 121.867 372.288 120.411C371.43 118.816 370.221 117.437 368.751 116.379C367.145 115.222 365.271 114.491 363.306 114.255C362.261 114.165 361.213 114.135 360.165 114.165H356.889H326.658L151.635 114.228C149.533 114.234 147.472 114.806 145.668 115.884C143.895 116.942 142.436 118.453 141.44 120.262C140.444 122.07 139.947 124.111 140 126.175C140.053 128.239 140.654 130.252 141.742 132.007C142.83 133.761 144.365 135.195 146.19 136.161C147.992 137.095 150.001 137.559 152.031 137.511H210.693L289.38 137.565L342.48 137.637H356.88H360.633C361.479 137.637 361.911 137.637 361.911 137.637H360.633H356.88H342.48L289.38 137.718L210.693 137.763H164.217H152.031C149.925 137.817 147.841 137.334 145.974 136.359C143.584 135.095 141.686 133.068 140.582 130.6C139.478 128.132 139.233 125.366 139.884 122.742C140.535 120.118 142.046 117.788 144.176 116.122C146.305 114.457 148.931 113.552 151.635 113.553L326.703 113.85H356.934H360.21C361.27 113.824 362.33 113.857 363.387 113.949C365.387 114.198 367.292 114.95 368.922 116.136C370.351 117.16 371.535 118.489 372.388 120.027C373.241 121.565 373.742 123.273 373.854 125.028C373.949 126.517 373.772 128.012 373.332 129.438C372.924 130.683 372.316 131.853 371.532 132.903C370.311 134.558 368.683 135.869 366.807 136.71C365.663 137.213 364.449 137.538 363.207 137.673C362.316 137.754 361.884 137.754 361.884 137.754Z" fill="#263238"/>
<path d="M115.266 158.4C115.266 158.535 106.824 158.634 96.4202 158.634C86.0162 158.634 77.5742 158.535 77.5742 158.4C77.5742 158.265 86.0072 158.166 96.4202 158.166C106.833 158.166 115.266 158.292 115.266 158.4Z" fill="black"/>
<path d="M116.742 169.191H77.5742V208.359H116.742V169.191Z" fill="#FF725E"/>
<path d="M354.735 178.425C354.735 178.551 306.135 178.659 246.159 178.659C186.183 178.659 137.574 178.551 137.574 178.425C137.574 178.299 186.174 178.191 246.159 178.191C306.144 178.191 354.735 178.29 354.735 178.425Z" fill="black"/>
<path d="M196.977 193.167C196.977 193.302 184.161 193.401 168.366 193.401C152.571 193.401 139.746 193.302 139.746 193.167C139.746 193.032 152.553 192.933 168.366 192.933C184.179 192.933 196.977 193.041 196.977 193.167Z" fill="black"/>
<path d="M320.034 206.847C320.034 206.973 279.669 207.081 229.89 207.081C180.111 207.081 139.746 206.973 139.746 206.847C139.746 206.721 180.102 206.604 229.89 206.604C279.678 206.604 320.034 206.712 320.034 206.847Z" fill="#E0E0E0"/>
<path d="M115.266 228.6C115.266 228.726 106.824 228.834 96.4202 228.834C86.0162 228.834 77.5742 228.726 77.5742 228.6C77.5742 228.474 86.0072 228.366 96.4202 228.366C106.833 228.366 115.266 228.447 115.266 228.6Z" fill="black"/>
<path d="M116.742 239.346H77.5742V278.514H116.742V239.346Z" fill="#FF725E"/>
<path d="M367.641 248.571C367.641 248.706 316.134 248.805 252.612 248.805C189.09 248.805 137.574 248.706 137.574 248.571C137.574 248.436 189.072 248.337 252.612 248.337C316.152 248.337 367.641 248.445 367.641 248.571Z" fill="black"/>
<path d="M196.977 263.322C196.977 263.448 184.161 263.556 168.366 263.556C152.571 263.556 139.746 263.448 139.746 263.322C139.746 263.196 152.553 263.088 168.366 263.088C184.179 263.088 196.977 263.196 196.977 263.322Z" fill="black"/>
<path d="M351.426 276.993C351.426 277.128 304.041 277.227 245.595 277.227C187.149 277.227 139.746 277.128 139.746 276.993C139.746 276.858 187.131 276.759 245.595 276.759C304.059 276.759 351.426 276.867 351.426 276.993Z" fill="#E0E0E0"/>
<path d="M400.979 300.033C400.979 298.485 400.907 205.713 400.79 59.04L400.979 59.229H49.241L49.475 58.995C49.475 145.017 49.475 226.746 49.475 299.988L49.259 299.772L401.024 299.988L49.259 300.195H49.043V299.988C49.043 226.746 49.043 145.017 49.043 58.995V58.761H49.304H401.042H401.231V58.95C401.06 205.713 400.979 298.485 400.979 300.033Z" fill="#263238"/>
<path d="M171.093 76.4999C171.093 76.6349 158.673 76.7339 143.355 76.7339C128.037 76.7339 115.617 76.6349 115.617 76.4999C115.617 76.3649 128.037 76.2659 143.355 76.2659C158.673 76.2659 171.093 76.3739 171.093 76.4999Z" fill="black"/>
<path d="M121.051 120.798H71.7852V135.639H121.051V120.798Z" fill="#455A64"/>
<path d="M208.291 159.669C208.291 159.804 192.991 159.903 174.091 159.903C155.191 159.903 139.891 159.804 139.891 159.669C139.891 159.534 155.191 159.435 174.091 159.435C192.991 159.435 208.291 159.543 208.291 159.669Z" fill="#FF725E"/>
<path d="M208.291 228.6C208.291 228.726 192.991 228.834 174.091 228.834C155.191 228.834 139.891 228.726 139.891 228.6C139.891 228.474 155.191 228.366 174.091 228.366C192.991 228.366 208.291 228.447 208.291 228.6Z" fill="#FF725E"/>
<path d="M357.358 129.834C356.225 129.836 355.117 129.501 354.175 128.873C353.232 128.245 352.497 127.351 352.062 126.305C351.628 125.258 351.514 124.107 351.735 122.995C351.955 121.884 352.5 120.864 353.302 120.063C354.103 119.261 355.123 118.716 356.235 118.496C357.346 118.275 358.497 118.389 359.544 118.823C360.59 119.258 361.484 119.993 362.112 120.936C362.74 121.878 363.075 122.986 363.073 124.119C363.071 125.634 362.468 127.086 361.397 128.157C360.325 129.229 358.873 129.832 357.358 129.834ZM357.358 119.295C356.404 119.293 355.47 119.575 354.675 120.104C353.881 120.633 353.261 121.385 352.895 122.267C352.528 123.148 352.431 124.118 352.617 125.055C352.802 125.991 353.26 126.851 353.935 127.527C354.609 128.202 355.469 128.663 356.405 128.85C357.341 129.036 358.311 128.941 359.193 128.577C360.075 128.212 360.829 127.593 361.359 126.8C361.89 126.006 362.173 125.073 362.173 124.119C362.173 122.841 361.666 121.615 360.763 120.711C359.861 119.807 358.636 119.297 357.358 119.295Z" fill="#FF725E"/>
<path d="M364.385 132.372C364.264 132.372 364.147 132.323 364.061 132.237L360.335 128.538C360.293 128.496 360.26 128.446 360.238 128.391C360.215 128.337 360.203 128.278 360.203 128.218C360.203 128.159 360.215 128.1 360.238 128.046C360.26 127.991 360.293 127.941 360.335 127.899C360.377 127.857 360.427 127.824 360.482 127.801C360.537 127.778 360.596 127.767 360.655 127.767C360.714 127.767 360.773 127.778 360.828 127.801C360.883 127.824 360.932 127.857 360.974 127.899L364.7 131.598C364.761 131.662 364.802 131.742 364.818 131.829C364.834 131.915 364.825 132.005 364.792 132.086C364.759 132.168 364.703 132.238 364.631 132.289C364.559 132.34 364.474 132.368 364.385 132.372Z" fill="#FF725E"/>
<path d="M269.894 192.159C269.894 192.285 255.161 192.393 236.981 192.393C218.801 192.393 204.059 192.285 204.059 192.159C204.059 192.033 218.801 191.925 236.981 191.925C255.161 191.925 269.894 192.024 269.894 192.159Z" fill="black"/>
<path d="M312.435 191.142C312.435 191.277 304.722 191.376 295.218 191.376C285.714 191.376 277.992 191.277 277.992 191.142C277.992 191.007 285.705 190.908 295.218 190.908C304.731 190.908 312.435 191.016 312.435 191.142Z" fill="black"/>
<path d="M269.58 263.322C269.58 263.448 254.847 263.556 236.667 263.556C218.487 263.556 203.754 263.448 203.754 263.322C203.754 263.196 218.487 263.088 236.667 263.088C254.847 263.088 269.58 263.196 269.58 263.322Z" fill="black"/>
<path d="M92.8993 281.844C85.5913 285.624 79.9933 292.14 75.9703 299.313C71.9473 306.486 69.3462 314.343 66.7812 322.2L64.5312 362.493C73.0272 348.039 79.8313 331.047 81.6853 314.379L76.0333 313.875C79.8223 313.299 83.0083 310.554 85.0333 307.296C87.0583 304.038 88.0933 300.285 89.1103 296.586L82.2163 297.612C87.6723 293.925 91.4983 288.278 92.8993 281.844Z" fill="#455A64"/>
<g opacity="0.3">
<path opacity="0.3" d="M92.8993 281.844C85.5913 285.624 79.9933 292.14 75.9703 299.313C71.9473 306.486 69.3462 314.343 66.7812 322.2L64.5312 362.493C73.0272 348.039 79.8313 331.047 81.6853 314.379L76.0333 313.875C79.8223 313.299 83.0083 310.554 85.0333 307.296C87.0583 304.038 88.0933 300.285 89.1103 296.586L82.2163 297.612C87.6723 293.925 91.4983 288.278 92.8993 281.844Z" fill="black"/>
</g>
<path d="M63.2709 371.88C63.2709 371.88 44.8299 349.812 45.0459 328.743H52.4889C52.4889 328.743 44.3889 323.415 45.0369 320.436C45.6849 317.457 45.9369 306.18 45.9369 306.18L52.7499 307.881C52.7499 307.881 47.6379 305.325 46.9989 301.284C46.3599 297.243 48.4929 278.505 48.4929 278.505C48.4929 278.505 56.7909 287.235 59.3469 296.172C61.9029 305.109 68.5629 315.54 66.6009 342.783C64.6389 370.026 63.2709 371.88 63.2709 371.88Z" fill="#455A64"/>
<path d="M72.6205 373.968C72.6205 373.968 92.6005 360.657 97.0375 343.674L91.0435 342C91.0435 342 98.7205 339.498 98.8555 336.96C98.9905 334.422 101.286 325.305 101.286 325.305L95.4355 325.188C95.4355 325.188 100.106 324.288 101.501 321.138C102.896 317.988 105.29 302.508 105.29 302.508C105.29 302.508 96.7045 307.701 92.6905 314.334C88.6765 320.967 80.9905 327.879 76.6255 350.217C72.2605 372.555 72.6205 373.968 72.6205 373.968Z" fill="#455A64"/>
<path d="M53.4883 297.756C53.52 297.828 53.5442 297.904 53.5603 297.981L53.7223 298.656C53.8663 299.295 54.0643 300.168 54.3253 301.275C54.8383 303.552 55.5223 306.855 56.2963 310.95C57.8713 319.131 59.7343 330.507 61.2013 343.143C62.6683 355.779 63.4423 367.281 63.7753 375.615C63.9463 379.782 64.0363 383.148 64.0543 385.515C64.0543 386.658 64.0543 387.549 64.0543 388.215C64.0543 388.503 64.0543 388.728 64.0543 388.917C64.0677 388.994 64.0677 389.073 64.0543 389.151C64.0418 389.073 64.0418 388.994 64.0543 388.917C64.0543 388.737 64.0543 388.503 64.0543 388.224C64.0543 387.567 64.0003 386.676 63.9553 385.524C63.8833 383.193 63.7393 379.827 63.5233 375.669C63.1093 367.344 62.2723 355.869 60.8233 343.269C59.3743 330.669 57.5563 319.275 56.0623 311.076C55.3243 306.981 54.6943 303.669 54.2623 301.383C54.0463 300.267 53.8753 299.385 53.7493 298.755C53.7043 298.467 53.6593 298.242 53.6323 298.062C53.5623 297.972 53.5131 297.867 53.4883 297.756Z" fill="#263238"/>
<path d="M60.7137 385.398C60.7137 385.398 43.8387 366.3 38.5917 354.672L42.5517 352.989C39.6807 353.457 36.7467 352.224 34.5237 350.352C32.3882 348.375 30.551 346.098 29.0697 343.593L34.2807 342.693C29.4955 341.332 25.4164 338.184 22.8867 333.9C29.0427 334.908 34.5867 338.283 39.1857 342.504C42.8354 346.003 46.1498 349.836 49.0857 353.952C50.5542 355.93 51.8376 358.039 52.9197 360.252C55.7367 366.12 60.7227 378.369 60.7137 385.398Z" fill="#455A64"/>
<path d="M97.298 313.686C97.2842 313.755 97.26 313.822 97.226 313.884L96.974 314.442L95.957 316.575C95.057 318.375 93.788 321.075 92.24 324.414C89.144 331.047 85.04 340.317 81.026 350.739C77.012 361.161 73.826 370.764 71.612 377.739C70.523 381.24 69.668 384.039 69.092 386.046L68.399 388.323L68.21 388.908C68.21 389.034 68.138 389.106 68.129 389.097C68.12 389.088 68.129 389.025 68.129 388.89L68.273 388.296L68.867 386.01C69.389 384.03 70.199 381.177 71.252 377.667C73.349 370.638 76.508 361.008 80.54 350.568C84.572 340.128 88.721 330.876 91.898 324.27C93.482 320.967 94.805 318.312 95.75 316.494L96.848 314.397L97.145 313.866C97.1888 313.8 97.2402 313.74 97.298 313.686Z" fill="#263238"/>
<path d="M62.1461 393.606C62.0151 393.159 61.9248 392.701 61.8761 392.238C61.7411 391.338 61.5161 390.087 61.2011 388.521C60.3735 384.45 59.227 380.451 57.7721 376.56C56.2943 372.674 54.5096 368.912 52.4351 365.31C51.6341 363.933 50.9681 362.826 50.4821 362.079C50.2169 361.697 49.9851 361.294 49.7891 360.873C50.1035 361.213 50.3866 361.58 50.6351 361.971C51.1661 362.7 51.8861 363.771 52.7231 365.148C54.8929 368.719 56.7306 372.482 58.2131 376.389C59.6841 380.302 60.7928 384.342 61.5251 388.458C61.7951 390.042 61.9751 391.32 62.0561 392.22C62.1246 392.678 62.1547 393.142 62.1461 393.606Z" fill="#263238"/>
<path d="M84.4126 389.097H47.4766V396.63H84.4126V389.097Z" fill="#FF725E"/>
<path d="M50.9922 396.639L54.9882 421.974H77.3082L81.0342 396.639H50.9922Z" fill="#FF725E"/>
<path d="M82.1444 396.639C82.1444 396.765 75.1604 396.873 66.5384 396.873C57.9164 396.873 50.9414 396.765 50.9414 396.639C50.9414 396.513 57.9254 396.405 66.5384 396.405C75.1514 396.405 82.1444 396.504 82.1444 396.639Z" fill="#263238"/>
<path d="M243 403.281V421.965L280.692 421.785C280.422 417.996 259.731 410.436 259.731 410.436L260.145 403.236L243 403.281Z" fill="#455A64"/>
<g opacity="0.6">
<path opacity="0.6" d="M249.109 408.744C248.742 408.879 248.436 409.141 248.248 409.484C248.059 409.826 248.001 410.225 248.083 410.607C248.169 410.983 248.4 411.31 248.725 411.517C249.05 411.724 249.443 411.795 249.82 411.714C250.21 411.568 250.533 411.286 250.731 410.921C250.93 410.556 250.99 410.131 250.9 409.725C250.834 409.539 250.731 409.367 250.598 409.221C250.465 409.075 250.305 408.956 250.125 408.873C249.946 408.789 249.752 408.742 249.555 408.733C249.357 408.725 249.16 408.756 248.974 408.825" fill="white"/>
</g>
<path d="M243 421.965V418.986L279 419.409C279 419.409 280.872 420.534 280.701 421.785L243 421.965Z" fill="#263238"/>
<path d="M259.749 410.796C259.749 410.994 258.849 411.093 257.949 411.696C257.049 412.299 256.59 413.154 256.419 413.082C256.248 413.01 256.509 411.876 257.598 411.129C258.687 410.382 259.785 410.616 259.749 410.796Z" fill="#263238"/>
<path d="M264.69 412.524C264.69 412.713 263.943 413.055 263.331 413.883C262.719 414.711 262.557 415.584 262.377 415.575C262.197 415.566 262.062 414.477 262.836 413.46C263.61 412.443 264.681 412.344 264.69 412.524Z" fill="#263238"/>
<path d="M266.912 417.285C266.741 417.33 266.471 416.385 266.912 415.296C267.353 414.207 268.217 413.793 268.298 413.955C268.379 414.117 267.857 414.693 267.497 415.575C267.137 416.457 267.092 417.267 266.912 417.285Z" fill="#263238"/>
<path d="M259.38 405.477C259.308 405.657 258.48 405.405 257.427 405.477C256.374 405.549 255.627 405.927 255.501 405.756C255.375 405.585 256.167 404.856 257.382 404.802C258.597 404.748 259.47 405.324 259.38 405.477Z" fill="#263238"/>
<path d="M259.594 411.633C259.695 411.261 259.723 410.873 259.675 410.49C259.593 409.441 259.249 408.429 258.676 407.547C258.284 406.942 257.783 406.414 257.2 405.99C257.027 405.843 256.819 405.744 256.596 405.705C256.373 405.665 256.143 405.686 255.931 405.765C255.71 405.888 255.525 406.067 255.394 406.283C255.263 406.499 255.191 406.745 255.184 406.998C255.242 407.973 255.587 408.909 256.177 409.687C256.766 410.466 257.573 411.052 258.496 411.372C259.399 411.659 260.367 411.668 261.275 411.398C262.183 411.129 262.989 410.593 263.59 409.86C263.884 409.522 264.113 409.131 264.265 408.708C264.341 408.465 264.341 408.204 264.265 407.961C264.223 407.84 264.155 407.729 264.067 407.636C263.978 407.542 263.871 407.469 263.752 407.421C263.361 407.306 262.941 407.348 262.582 407.538C262.27 407.68 261.969 407.846 261.682 408.033C260.835 408.6 260.105 409.324 259.531 410.166C259.296 410.464 259.119 410.803 259.009 411.165C259.789 410.069 260.762 409.124 261.88 408.375C262.384 408.087 263.05 407.673 263.581 407.862C263.815 407.952 263.905 408.231 263.797 408.555C263.66 408.907 263.458 409.231 263.203 409.509C262.658 410.156 261.934 410.627 261.122 410.863C260.31 411.098 259.446 411.088 258.64 410.832C257.834 410.547 257.125 410.039 256.598 409.366C256.07 408.694 255.745 407.885 255.661 407.034C255.654 406.872 255.692 406.711 255.769 406.568C255.847 406.426 255.962 406.307 256.102 406.224C256.245 406.178 256.397 406.169 256.545 406.197C256.693 406.226 256.831 406.291 256.948 406.386C257.492 406.764 257.965 407.236 258.343 407.781C258.91 408.587 259.288 409.509 259.45 410.481C259.567 411.228 259.549 411.633 259.594 411.633Z" fill="#263238"/>
<path d="M229.238 405.981L229.877 410.796L229.454 421.641L215.324 421.983L214.82 410.796L216.422 404.145L229.238 405.981Z" fill="#455A64"/>
<path d="M222.47 420.822C222.38 420.822 222.587 417.51 222.92 413.415C223.253 409.32 223.604 405.99 223.685 405.981C223.766 405.972 223.568 409.302 223.235 413.397C222.902 417.492 222.551 420.822 222.47 420.822Z" fill="#263238"/>
<path d="M229.508 419.832L215.234 420.003V421.983L229.517 421.974L229.508 419.832Z" fill="#263238"/>
<path d="M215.27 413.595C215.27 413.595 215.369 413.37 215.63 413.028C216.004 412.537 216.426 412.085 216.89 411.678C217.571 411.061 218.338 410.546 219.167 410.148C220.616 409.439 222.254 409.215 223.841 409.508C225.427 409.801 226.878 410.597 227.978 411.777C228.393 412.239 228.742 412.757 229.013 413.316C229.127 413.513 229.204 413.73 229.238 413.955C228.798 413.26 228.305 412.601 227.762 411.984C226.348 410.591 224.445 409.809 222.461 409.806C220.472 409.865 218.564 410.609 217.061 411.912C215.9 412.875 215.324 413.649 215.27 413.595Z" fill="#263238"/>
<path d="M222.409 103.266L222.301 152.1L243.262 153.099L243.874 141.219C243.874 141.219 251.317 142.695 253.234 135.819C254.467 131.4 254.134 97.2632 254.134 97.2632L222.409 103.266Z" fill="#B78876"/>
<path d="M256.868 100.692C253.565 101.637 252.845 106.992 252.845 106.992L247.67 118.431C245.033 116.37 241.487 116.487 240.821 121.131C240.335 124.479 244.502 125.154 244.502 125.154C242.072 129.285 240.434 132.624 236.897 136.548C233.099 140.823 230.939 141.246 226.799 141.3H222.227C222.227 141.3 219.986 134.037 215.846 115.884C211.256 95.742 235.07 98.334 239.489 93.195C246.68 84.834 267.299 97.713 256.868 100.692Z" fill="#263238"/>
<path d="M262.681 96.3001C262.499 95.2259 261.939 94.2521 261.102 93.5541C260.266 92.8562 259.207 92.4799 258.118 92.4931C258.459 91.9191 258.586 91.2433 258.477 90.5848C258.368 89.9263 258.031 89.3272 257.524 88.8931C256.998 88.4797 256.388 88.1852 255.737 88.0299C255.086 87.8745 254.409 87.862 253.753 87.9931C252.44 88.2587 251.173 88.7134 249.991 89.3431C249.549 88.0378 248.697 86.9106 247.561 86.1301C246.339 85.4138 244.935 85.0669 243.52 85.1311C237.085 85.1311 233.701 89.5321 230.245 94.0231C229.741 94.8598 229.019 95.5441 228.157 96.0031C227.53 96.1876 226.875 96.2607 226.222 96.2191C223.763 96.297 221.369 97.0219 219.28 98.3208C217.191 99.6197 215.481 101.447 214.324 103.617C212.074 107.964 210.391 118.017 216.223 124.317L219.733 132.156L253.33 105.534C253.573 105.66 255.679 106.686 257.299 105.84C261.322 103.716 259.63 100.188 259.63 100.188C259.954 99.9631 263.023 98.4601 262.681 96.3001Z" fill="#263238"/>
<path d="M231.587 122.499C231.867 123.725 231.827 125.002 231.47 126.207C231.28 127.451 230.768 128.624 229.985 129.609C229.841 129.537 230.516 128.043 230.948 126.09C231.38 124.137 231.434 122.499 231.587 122.499Z" fill="#455A64"/>
<path d="M234.125 120.096C234.301 121.297 234.234 122.522 233.927 123.696C233.793 124.894 233.417 126.051 232.82 127.098C232.909 125.916 233.104 124.744 233.405 123.597C233.534 122.41 233.775 121.238 234.125 120.096Z" fill="#455A64"/>
<path d="M241.379 112.032C241.433 112.104 240.839 112.536 240.083 113.418C239.12 114.586 238.356 115.906 237.824 117.324C237.308 118.758 236.89 120.225 236.573 121.716C236.484 122.337 236.309 122.943 236.051 123.516C236.013 122.873 236.065 122.228 236.204 121.599C236.417 120.063 236.795 118.554 237.329 117.099C237.877 115.623 238.722 114.275 239.813 113.139C240.24 112.651 240.777 112.272 241.379 112.032Z" fill="#455A64"/>
<path d="M244.313 106.551C244.376 106.551 244.592 107.019 244.727 107.865C244.879 108.98 244.815 110.113 244.538 111.204C244.275 112.297 243.794 113.325 243.125 114.228C242.612 114.921 242.225 115.254 242.144 115.209C242.063 115.164 243.431 113.526 244.025 111.078C244.619 108.63 244.151 106.569 244.313 106.551Z" fill="#455A64"/>
<path d="M219.304 118.746C219.232 118.881 218.593 118.656 217.873 118.251C217.153 117.846 216.622 117.423 216.694 117.288C216.766 117.153 217.405 117.387 218.125 117.792C218.845 118.197 219.376 118.62 219.304 118.746Z" fill="#455A64"/>
<path d="M229.428 113.535C229.51 114.293 229.297 115.053 228.834 115.659C228.186 116.73 227.313 117.288 227.223 117.18C227.133 117.072 227.79 116.37 228.375 115.38C228.96 114.39 229.275 113.499 229.428 113.535Z" fill="#455A64"/>
<path d="M232.541 111.861C232.53 112.783 232.213 113.676 231.641 114.399C230.804 115.677 229.751 116.361 229.67 116.199C229.589 116.037 230.417 115.299 231.2 114.066C231.603 113.306 232.051 112.569 232.541 111.861Z" fill="#455A64"/>
<path d="M248.022 91.395C248.022 91.395 247.626 91.098 246.87 90.666C245.787 90.0922 244.584 89.7837 243.36 89.766C241.544 89.7178 239.753 90.1961 238.203 91.143C236.341 92.366 234.83 94.0536 233.82 96.039C233.046 97.4919 232.442 99.029 232.02 100.62L231.93 100.926L231.651 100.773C230.207 100.018 228.608 99.608 226.98 99.576C225.687 99.5465 224.399 99.7414 223.173 100.152C222.081 100.557 221.037 101.079 220.059 101.709C220.26 101.468 220.497 101.259 220.761 101.088C221.468 100.573 222.243 100.158 223.065 99.855C224.315 99.379 225.642 99.1379 226.98 99.144C228.688 99.1397 230.373 99.544 231.894 100.323L231.525 100.485C231.94 98.8545 232.545 97.2779 233.325 95.787C234.378 93.7203 235.966 91.9737 237.924 90.729C239.552 89.7589 241.431 89.2923 243.324 89.388C244.599 89.4426 245.838 89.8238 246.924 90.495C247.213 90.6782 247.482 90.8925 247.725 91.134C247.95 91.296 248.031 91.386 248.022 91.395Z" fill="#455A64"/>
<path d="M259.048 94.0591C259.003 94.0591 259.624 93.8971 260.245 94.5991C260.424 94.8087 260.559 95.052 260.643 95.3148C260.726 95.5777 260.756 95.8545 260.731 96.1291C260.676 96.4951 260.537 96.8435 260.325 97.1465C260.112 97.4496 259.832 97.699 259.507 97.8751C258.734 98.3135 257.823 98.4391 256.96 98.2261C256.011 97.9764 255.121 97.5421 254.341 96.9481C253.522 96.2945 252.662 95.6933 251.767 95.1481C250.799 94.6244 249.754 94.2569 248.671 94.0591C246.567 93.6803 244.403 93.8288 242.371 94.4911C240.702 95.041 239.127 95.8422 237.7 96.8671C235.252 98.6221 234.046 100.098 233.965 100.017C234.207 99.6438 234.487 99.2969 234.802 98.9821C235.626 98.0942 236.53 97.2838 237.502 96.5611C238.937 95.4665 240.538 94.6096 242.245 94.0231C244.358 93.3066 246.619 93.1394 248.815 93.5371C249.952 93.7463 251.049 94.1352 252.064 94.6891C252.969 95.2321 253.838 95.8334 254.665 96.4891C255.389 97.0585 256.218 97.4805 257.104 97.7311C257.863 97.9399 258.674 97.853 259.372 97.4881C259.654 97.3441 259.9 97.1381 260.092 96.8857C260.284 96.6332 260.416 96.3408 260.479 96.0301C260.544 95.5487 260.418 95.061 260.128 94.6711C259.852 94.3455 259.469 94.1286 259.048 94.0591Z" fill="#455A64"/>
<path d="M356.695 131.544C355.903 130.842 345.229 135.315 345.229 135.315C345.229 135.315 337.264 141.615 333.988 145.26L331.963 146.943L301.669 170.496L264.409 154.998L256.309 175.779C256.309 175.779 298.141 192.438 304.513 189.585C311.434 186.489 337.219 159.498 337.282 159.408L341.008 155.808C341.008 155.808 342.979 155.808 344.473 155.682C345.967 155.556 350.341 152.685 350.341 152.685C350.756 151.886 351.041 151.026 351.187 150.138C351.278 149.784 351.248 149.41 351.101 149.075C350.954 148.741 350.699 148.465 350.377 148.293C350.529 147.601 350.553 146.888 350.449 146.187C350.278 144.999 348.649 143.622 348.649 143.622C349.156 143.105 349.503 142.451 349.648 141.741C350.008 140.364 348.235 139.041 348.235 139.041C348.235 139.041 354.436 134.829 355.939 134.082C357.442 133.335 357.487 132.246 356.695 131.544Z" fill="#B78876"/>
<path d="M269.893 344.421C270.019 343.053 270.082 342 270.082 341.343L274.294 274.176C274.294 274.176 270.757 254.556 269.083 249.354L254.044 243.531L234.001 251.334C233.875 249.723 233.794 248.724 233.794 248.724L204.301 258.93C204.301 258.93 203.536 279.063 204.301 285.192C204.553 287.163 205.318 292.248 206.254 298.242C206.254 298.242 207.208 311.265 207.406 311.994C208.117 314.649 208.306 321.156 208.306 327.672C208.306 335.952 208.756 345.807 209.278 350.487C209.8 355.167 210.043 406.683 210.043 406.683H231.823L234.622 324.639C235.09 315.846 235.792 302.4 236.242 292.671L241.354 322.965C241.354 324.072 244.468 341.397 244.468 341.397C243.749 346.849 243.304 352.334 243.136 357.831C242.776 373.131 240.985 406.683 240.985 406.683H262.297C262.297 406.683 268.705 358.191 269.947 344.421H269.893Z" fill="#263238"/>
<path d="M273.6 270.153C272.9 269.889 272.238 269.535 271.629 269.1C270.117 268.13 268.706 267.012 267.417 265.761C266.128 264.513 264.964 263.141 263.943 261.666C263.483 261.078 263.11 260.426 262.836 259.731C263.33 260.28 263.787 260.86 264.204 261.468C265.289 262.872 266.471 264.198 267.741 265.437C269.011 266.663 270.368 267.797 271.8 268.83C272.431 269.228 273.032 269.67 273.6 270.153Z" fill="#455A64"/>
<path d="M235.546 282.357C235.375 282.157 235.235 281.933 235.132 281.691C234.797 281.06 234.497 280.411 234.232 279.747C233.32 277.562 232.653 275.283 232.243 272.952C231.842 270.62 231.697 268.251 231.811 265.887C231.865 264.987 231.937 264.258 232.018 263.754C232.034 263.489 232.091 263.227 232.189 262.98C232.261 262.98 232.189 264.105 232.144 265.896C232.117 268.233 232.304 270.568 232.702 272.871C233.099 275.173 233.702 277.435 234.502 279.63C235.141 281.313 235.609 282.321 235.546 282.357Z" fill="#455A64"/>
<path d="M238.717 307.647C238.584 307.268 238.49 306.876 238.438 306.477C238.282 305.625 238.084 304.554 237.844 303.264C237.376 300.447 236.746 296.739 236.044 292.635C234.838 285.102 234.019 279.972 233.641 277.587C234.13 278.997 234.474 280.454 234.667 281.934C235.189 284.634 235.837 288.405 236.521 292.554C237.205 296.703 237.772 300.483 238.168 303.21C238.339 304.506 238.492 305.586 238.609 306.45C238.689 306.844 238.725 307.245 238.717 307.647Z" fill="#455A64"/>
<path d="M187.315 195.615C187.315 195.615 184.444 215.856 183.904 222.948C183.58 227.223 187.918 232.848 191.23 233.307C194.542 233.766 205.702 234.387 205.702 234.387L206.602 221.688L206.314 219.159L202.849 218.511L203.893 198.369L187.315 195.615Z" fill="#B78876"/>
<path d="M203.463 199.053C203.552 199.412 203.597 199.781 203.598 200.151C203.652 200.862 203.688 201.888 203.715 203.166C203.778 205.704 203.715 209.223 203.499 213.066C203.283 216.909 202.968 220.446 202.725 222.966C202.59 224.226 202.482 225.252 202.392 225.954C202.371 226.323 202.308 226.689 202.203 227.043C202.162 226.675 202.162 226.304 202.203 225.936C202.248 225.126 202.311 224.136 202.383 222.93C202.554 220.293 202.77 216.846 203.013 213.03C203.256 209.214 203.346 205.668 203.373 203.13C203.373 201.942 203.373 200.934 203.373 200.124C203.365 199.765 203.395 199.406 203.463 199.053Z" fill="#AA6550"/>
<g opacity="0.3">
<path opacity="0.3" d="M204.562 259.299C210.232 261.405 216.442 261.576 222.463 261.054C228.484 260.532 234.442 259.317 240.463 258.75C249.588 257.897 258.79 258.505 267.724 260.55C268.347 260.739 269.002 260.801 269.65 260.73C269.971 260.689 270.273 260.552 270.515 260.337C270.758 260.122 270.93 259.839 271.009 259.524C271.171 258.516 270.064 257.814 269.128 257.427C258.827 253.167 247.752 251.095 236.608 251.343C225.463 251.591 214.492 254.153 204.391 258.867" fill="black"/>
</g>
<path d="M291.374 164.196L259.406 148.284C254.365 147.693 249.288 147.47 244.214 147.618H223.055C223.055 147.618 197.423 155.178 193.184 162.153L182.195 195.093L203.921 198.369L206.621 222.039C206.621 222.039 203.921 249.444 203.921 253.422C203.862 255.264 203.974 257.108 204.254 258.93C204.254 258.93 247.724 252.324 258.425 255.807C269.126 259.29 272.015 258.93 272.015 258.93C272.015 258.93 271.115 247.554 270.332 240.93L267.866 207.9L266.066 182.7L286.181 188.856L291.374 164.196Z" fill="#FF725E"/>
<path d="M203.724 198.63C203.643 198.63 203.427 197.271 202.95 195.075C202.315 192.219 201.473 189.412 200.43 186.678C199.366 183.923 198.121 181.241 196.704 178.65L195.39 176.292C195.204 176.013 195.056 175.71 194.949 175.392C195.184 175.634 195.39 175.903 195.561 176.193C195.93 176.724 196.461 177.507 197.01 178.497C198.53 181.056 199.83 183.738 200.898 186.516C201.951 189.27 202.752 192.114 203.292 195.012C203.49 196.119 203.616 197.019 203.679 197.649C203.735 197.973 203.75 198.302 203.724 198.63Z" fill="#263238"/>
<path d="M244.719 207.981C244.703 208.133 244.663 208.282 244.602 208.422L244.197 209.637C244.017 210.168 243.792 210.807 243.495 211.545C243.198 212.283 242.883 213.129 242.469 214.029C241.686 215.829 240.669 218.007 239.391 220.329C238.113 222.651 236.601 225.117 234.891 227.619C233.181 230.121 231.291 232.38 229.59 234.378C227.889 236.376 226.188 238.059 224.73 239.427C224.019 240.129 223.326 240.714 222.741 241.227C222.156 241.74 221.625 242.199 221.193 242.55L220.185 243.342C220.072 243.442 219.948 243.529 219.816 243.603C219.816 243.603 219.915 243.477 220.131 243.27L221.076 242.37C221.49 242.01 221.976 241.551 222.57 241.002C223.164 240.453 223.812 239.859 224.505 239.148C225.927 237.762 227.547 236.034 229.266 234.054C230.985 232.074 232.767 229.788 234.513 227.313C236.259 224.838 237.753 222.363 239.013 220.113C240.273 217.863 241.344 215.703 242.163 213.894C242.595 212.994 242.928 212.157 243.243 211.437C243.558 210.717 243.819 210.087 244.026 209.565C244.233 209.043 244.377 208.665 244.512 208.377C244.565 208.237 244.634 208.104 244.719 207.981Z" fill="#263238"/>
<path d="M259.488 150.462C258.647 151.665 258.073 153.033 257.805 154.476C257.535 156.04 257.535 157.638 257.805 159.201C258.154 161.126 258.605 163.03 259.155 164.907C260.262 168.939 261.423 172.53 262.314 175.122C262.737 176.346 263.088 177.372 263.376 178.191C263.525 178.561 263.64 178.943 263.718 179.334C263.508 178.993 263.333 178.631 263.196 178.254C262.899 177.552 262.476 176.526 261.99 175.239C261.018 172.674 259.794 169.074 258.687 165.033C258.149 163.148 257.719 161.234 257.4 159.3C257.136 157.692 257.16 156.049 257.472 154.449C257.693 153.369 258.114 152.341 258.714 151.416C258.912 151.054 259.174 150.73 259.488 150.462Z" fill="#263238"/>
<path d="M199.168 185.139C198.694 185.651 198.109 186.048 197.458 186.3C195.929 187.002 194.227 187.24 192.564 186.986C190.901 186.732 189.348 185.996 188.098 184.869C187.554 184.438 187.116 183.887 186.82 183.258C186.883 183.204 187.351 183.843 188.314 184.617C189.567 185.63 191.067 186.291 192.659 186.533C194.252 186.775 195.88 186.589 197.377 185.994C198.484 185.544 199.123 185.076 199.168 185.139Z" fill="white"/>
<path d="M260.431 170.28C260.368 170.519 260.281 170.752 260.17 170.973C259.972 171.423 259.666 172.071 259.225 172.881C257.958 175.178 256.357 177.274 254.473 179.1C251.657 181.833 248.146 183.741 244.321 184.617C242.066 185.134 239.736 185.234 237.445 184.914C234.994 184.524 232.635 183.685 230.488 182.439C226.069 179.973 222.334 176.85 218.248 175.356C214.634 174.02 210.701 173.804 206.962 174.735C204.439 175.341 202.057 176.432 199.951 177.948C198.475 179.037 197.782 179.802 197.746 179.748C198.376 179.027 199.079 178.372 199.843 177.795C202.456 175.815 205.521 174.517 208.761 174.019C212.001 173.521 215.314 173.838 218.401 174.942C222.586 176.454 226.348 179.586 230.713 182.016C232.808 183.25 235.111 184.092 237.508 184.5C239.747 184.815 242.025 184.724 244.231 184.23C247.988 183.388 251.447 181.544 254.239 178.893C256.129 177.113 257.754 175.07 259.063 172.827C259.522 172.035 259.864 171.396 260.08 170.964C260.179 170.727 260.296 170.498 260.431 170.28Z" fill="white"/>
<path d="M280.45 158.733C280.628 159.064 280.767 159.414 280.864 159.777C281.161 160.751 281.336 161.757 281.386 162.774C281.561 166.183 280.482 169.538 278.353 172.206C277.117 173.575 275.774 174.845 274.339 176.004C273.213 176.949 272.294 178.117 271.639 179.433C271.197 180.32 270.989 181.305 271.036 182.295C271.09 182.997 271.243 183.375 271.198 183.384C271.153 183.393 271.135 183.303 271.063 183.123C270.961 182.863 270.892 182.591 270.856 182.313C270.733 181.283 270.898 180.24 271.333 179.298C271.966 177.919 272.887 176.692 274.033 175.698C275.43 174.534 276.744 173.274 277.966 171.927C280.021 169.336 281.107 166.108 281.035 162.801C280.966 161.43 280.77 160.068 280.45 158.733Z" fill="white"/>
<path d="M228.457 234.612C228.174 234.764 227.871 234.876 227.557 234.945C226.689 235.193 225.805 235.38 224.911 235.503C223.564 235.727 222.183 235.647 220.87 235.269C220.091 235.022 219.372 234.617 218.755 234.081C218.135 233.493 217.558 232.861 217.027 232.191C216.507 231.553 215.901 230.99 215.227 230.517C214.586 230.099 213.893 229.766 213.166 229.527C211.92 229.129 210.604 229.003 209.305 229.158C208.425 229.255 207.567 229.498 206.767 229.878C206.479 230.04 206.178 230.178 205.867 230.292C206.103 230.056 206.377 229.861 206.677 229.716C207.474 229.256 208.35 228.95 209.26 228.816C210.608 228.6 211.987 228.695 213.292 229.095C214.066 229.333 214.802 229.678 215.479 230.121C216.198 230.605 216.841 231.194 217.387 231.867C217.904 232.518 218.463 233.135 219.061 233.712C219.632 234.214 220.296 234.599 221.014 234.846C222.269 235.217 223.586 235.324 224.884 235.161C227.071 234.9 228.439 234.531 228.457 234.612Z" fill="white"/>
<path d="M269.846 232.695C269.76 232.788 269.663 232.869 269.558 232.938C269.27 233.154 268.969 233.352 268.658 233.532C267.54 234.215 266.326 234.727 265.058 235.053C263.151 235.543 261.168 235.659 259.217 235.395C256.811 235.069 254.526 234.141 252.575 232.695C250.721 231.198 248.948 229.603 247.265 227.916C245.887 226.577 244.293 225.482 242.549 224.676C241.378 224.134 240.104 223.851 238.814 223.848C237.914 223.848 237.392 224.001 237.383 223.947C237.498 223.893 237.618 223.854 237.743 223.83C238.09 223.736 238.446 223.679 238.805 223.659C240.135 223.599 241.461 223.842 242.684 224.37C244.484 225.152 246.133 226.246 247.553 227.601C249.2 229.059 250.838 230.832 252.854 232.317C254.743 233.706 256.948 234.603 259.271 234.927C261.17 235.202 263.105 235.126 264.977 234.702C266.23 234.404 267.439 233.947 268.577 233.343C268.986 233.101 269.41 232.885 269.846 232.695Z" fill="white"/>
<path d="M346.346 104.454C339.809 101.327 334.104 96.7005 329.693 90.9509C325.283 85.2013 322.294 78.4913 320.968 71.3675C319.642 64.2436 320.018 56.9074 322.064 49.9562C324.111 43.0051 327.77 36.6356 332.745 31.3665C337.719 26.0975 343.867 22.0779 350.689 19.6351C357.511 17.1923 364.814 16.3954 372.002 17.3093C379.19 18.2232 386.061 20.8221 392.055 24.8943C398.049 28.9665 402.996 34.3968 406.493 40.7429C411.203 49.2773 413.081 59.0874 411.854 68.7578C410.628 78.4283 406.361 87.4591 399.669 94.5473C392.977 101.636 384.207 106.415 374.623 108.195C365.039 109.976 355.137 108.666 346.346 104.454ZM384.704 24.2279C375.472 19.8209 364.969 18.8572 355.088 21.5106C345.208 24.164 336.601 30.2599 330.819 38.6992C325.036 47.1386 322.459 57.3662 323.552 67.5379C324.645 77.7097 329.335 87.1564 336.779 94.1749C344.222 101.193 353.927 105.322 364.146 105.816C374.364 106.31 384.423 103.137 392.508 96.8697C400.594 90.6021 406.174 81.6521 408.243 71.6332C410.313 61.6143 408.734 51.1858 403.793 42.2279C399.466 34.3818 392.791 28.0873 384.704 24.2279Z" fill="#263238"/>
<path d="M424 154.8C422.708 155.594 421.154 155.844 419.678 155.495C418.202 155.146 416.924 154.226 416.125 152.937L386.038 104.166C385.901 103.945 385.857 103.679 385.916 103.426C385.975 103.173 386.132 102.953 386.353 102.816L392.77 98.856C392.989 98.7224 393.25 98.6787 393.5 98.7341C393.751 98.7895 393.969 98.9396 394.111 99.153L425.755 146.7C426.19 147.341 426.491 148.064 426.638 148.825C426.785 149.586 426.777 150.369 426.613 151.126C426.449 151.883 426.132 152.599 425.683 153.231C425.234 153.863 424.662 154.396 424 154.8Z" fill="#263238"/>
<path d="M347.452 102.132C340.911 99.0069 335.201 94.3807 330.787 88.6303C326.373 82.88 323.38 76.1683 322.052 69.0419C320.724 61.9156 321.099 54.5763 323.145 47.6221C325.191 40.6678 328.851 34.2953 333.827 29.0238C338.803 23.7523 344.954 19.7309 351.778 17.2873C358.603 14.8437 365.909 14.047 373.1 14.9622C380.291 15.8773 387.164 18.4784 393.159 22.5534C399.154 26.6285 404.102 32.0623 407.599 38.412C412.306 46.9469 414.181 56.7562 412.954 66.4254C411.726 76.0947 407.459 85.1243 400.769 92.2122C394.078 99.3002 385.31 104.08 375.727 105.863C366.145 107.646 356.244 106.339 347.452 102.132ZM385.81 21.906C376.577 17.499 366.074 16.5353 356.194 19.1887C346.314 21.8421 337.707 27.938 331.924 36.3773C326.142 44.8167 323.565 55.0443 324.658 65.216C325.75 75.3878 330.441 84.8345 337.884 91.853C345.327 98.8715 355.033 103 365.251 103.494C375.47 103.988 385.529 100.815 393.614 94.5478C401.7 88.2802 407.28 79.3302 409.349 69.3113C411.418 59.2924 409.84 48.8639 404.899 39.906C400.572 32.0599 393.896 25.7654 385.81 21.906Z" fill="#455A64"/>
<path d="M386.628 100.948L394.693 95.9721L426.688 147.836C427.315 148.852 427.512 150.075 427.237 151.237C426.962 152.398 426.236 153.402 425.221 154.029L424.753 154.317C423.738 154.944 422.515 155.141 421.353 154.866C420.192 154.591 419.188 153.866 418.561 152.85L386.566 100.986L386.628 100.948Z" fill="#455A64"/>
<path d="M332.945 49.6981C332.988 49.2177 333.072 48.7419 333.197 48.2761C333.304 47.7218 333.445 47.1747 333.62 46.6381C333.824 45.9153 334.064 45.2034 334.34 44.5051L334.799 43.2901C334.97 42.8671 335.195 42.4531 335.402 42.0031C335.807 41.1031 336.356 40.2031 336.905 39.2581C338.182 37.2312 339.66 35.3377 341.315 33.6061C343.002 31.9086 344.853 30.3831 346.841 29.0521C347.714 28.4822 348.616 27.9566 349.541 27.4771C349.973 27.2521 350.387 27.0181 350.801 26.8291L352.007 26.3161C352.695 26.0205 353.398 25.7622 354.113 25.5421C354.645 25.3505 355.19 25.1941 355.742 25.0741C356.206 24.9426 356.678 24.8433 357.155 24.7771C356.712 24.9645 356.254 25.1179 355.787 25.2361C355.246 25.3852 354.714 25.5655 354.194 25.7761C353.493 26.0155 352.805 26.2919 352.133 26.6041L350.954 27.1351C350.54 27.3241 350.135 27.5671 349.712 27.7921C348.812 28.2331 347.984 28.8091 347.057 29.3851C345.117 30.7078 343.308 32.2148 341.657 33.8851C340.023 35.5926 338.555 37.452 337.274 39.4381C336.725 40.3381 336.167 41.2381 335.753 42.1381C335.546 42.5701 335.312 42.9751 335.132 43.3891L334.628 44.5861C334.286 45.3331 334.079 46.0531 333.854 46.6741C333.661 47.2012 333.499 47.7391 333.368 48.2851C333.265 48.7666 333.124 49.2392 332.945 49.6981Z" fill="#E0E0E0"/>
<path d="M141.155 441V431.047H143.965C144.831 431.047 145.596 431.238 146.262 431.621C146.927 432.004 147.44 432.549 147.8 433.255C148.164 433.961 148.349 434.772 148.354 435.688V436.324C148.354 437.263 148.171 438.086 147.807 438.792C147.447 439.498 146.929 440.041 146.255 440.419C145.585 440.797 144.803 440.991 143.91 441H141.155ZM142.468 432.127V439.927H143.849C144.86 439.927 145.646 439.612 146.207 438.983C146.772 438.354 147.055 437.459 147.055 436.297V435.716C147.055 434.586 146.788 433.708 146.255 433.084C145.726 432.455 144.974 432.136 143.999 432.127H142.468ZM153.214 441.137C152.211 441.137 151.396 440.809 150.767 440.152C150.138 439.492 149.823 438.61 149.823 437.507V437.274C149.823 436.541 149.962 435.887 150.24 435.312C150.523 434.734 150.915 434.283 151.416 433.959C151.922 433.631 152.469 433.467 153.057 433.467C154.018 433.467 154.766 433.784 155.299 434.417C155.832 435.05 156.099 435.957 156.099 437.138V437.664H151.088C151.106 438.393 151.318 438.983 151.724 439.435C152.134 439.881 152.653 440.104 153.282 440.104C153.729 440.104 154.107 440.013 154.417 439.831C154.727 439.649 154.998 439.407 155.23 439.106L156.003 439.708C155.383 440.66 154.453 441.137 153.214 441.137ZM153.057 434.506C152.546 434.506 152.118 434.693 151.771 435.066C151.425 435.436 151.211 435.955 151.129 436.625H154.834V436.529C154.798 435.887 154.624 435.39 154.314 435.039C154.005 434.684 153.585 434.506 153.057 434.506ZM161.875 439.038C161.875 438.696 161.745 438.432 161.485 438.245C161.23 438.054 160.781 437.89 160.139 437.753C159.501 437.616 158.993 437.452 158.614 437.261C158.241 437.069 157.963 436.841 157.78 436.577C157.603 436.313 157.514 435.998 157.514 435.634C157.514 435.028 157.769 434.515 158.279 434.096C158.794 433.676 159.451 433.467 160.248 433.467C161.087 433.467 161.766 433.683 162.285 434.116C162.809 434.549 163.071 435.103 163.071 435.777H161.8C161.8 435.431 161.652 435.132 161.355 434.882C161.064 434.631 160.695 434.506 160.248 434.506C159.788 434.506 159.428 434.606 159.168 434.807C158.908 435.007 158.778 435.269 158.778 435.593C158.778 435.898 158.899 436.128 159.141 436.283C159.382 436.438 159.817 436.586 160.446 436.728C161.08 436.869 161.592 437.037 161.984 437.233C162.376 437.429 162.666 437.666 162.853 437.944C163.044 438.218 163.14 438.553 163.14 438.949C163.14 439.61 162.875 440.141 162.347 440.542C161.818 440.938 161.132 441.137 160.289 441.137C159.697 441.137 159.173 441.032 158.717 440.822C158.261 440.613 157.903 440.321 157.644 439.947C157.388 439.569 157.261 439.161 157.261 438.724H158.525C158.548 439.147 158.717 439.485 159.031 439.735C159.35 439.981 159.77 440.104 160.289 440.104C160.768 440.104 161.15 440.009 161.438 439.817C161.729 439.621 161.875 439.362 161.875 439.038ZM166.161 441H164.896V433.604H166.161V441ZM164.794 431.642C164.794 431.437 164.855 431.263 164.979 431.122C165.106 430.981 165.293 430.91 165.539 430.91C165.785 430.91 165.972 430.981 166.1 431.122C166.227 431.263 166.291 431.437 166.291 431.642C166.291 431.847 166.227 432.018 166.1 432.154C165.972 432.291 165.785 432.359 165.539 432.359C165.293 432.359 165.106 432.291 164.979 432.154C164.855 432.018 164.794 431.847 164.794 431.642ZM167.891 437.24C167.891 436.087 168.157 435.171 168.69 434.492C169.224 433.809 169.93 433.467 170.81 433.467C171.712 433.467 172.416 433.786 172.922 434.424L172.983 433.604H174.139V440.822C174.139 441.779 173.854 442.534 173.284 443.085C172.719 443.636 171.958 443.912 171.001 443.912C170.468 443.912 169.946 443.798 169.436 443.57C168.925 443.342 168.535 443.03 168.267 442.634L168.923 441.875C169.465 442.545 170.128 442.88 170.912 442.88C171.527 442.88 172.006 442.707 172.348 442.36C172.694 442.014 172.867 441.526 172.867 440.897V440.262C172.361 440.845 171.671 441.137 170.796 441.137C169.93 441.137 169.228 440.788 168.69 440.091C168.157 439.394 167.891 438.443 167.891 437.24ZM169.162 437.384C169.162 438.218 169.333 438.874 169.675 439.353C170.017 439.826 170.495 440.063 171.11 440.063C171.908 440.063 172.493 439.701 172.867 438.977V435.6C172.48 434.893 171.899 434.54 171.124 434.54C170.509 434.54 170.028 434.779 169.682 435.258C169.335 435.736 169.162 436.445 169.162 437.384ZM177.249 433.604L177.29 434.533C177.855 433.822 178.593 433.467 179.505 433.467C181.068 433.467 181.856 434.349 181.87 436.112V441H180.605V436.105C180.601 435.572 180.478 435.178 180.236 434.923C179.999 434.668 179.628 434.54 179.122 434.54C178.712 434.54 178.352 434.649 178.042 434.868C177.732 435.087 177.491 435.374 177.317 435.729V441H176.053V433.604H177.249ZM186.847 441.137C185.844 441.137 185.028 440.809 184.399 440.152C183.771 439.492 183.456 438.61 183.456 437.507V437.274C183.456 436.541 183.595 435.887 183.873 435.312C184.156 434.734 184.548 434.283 185.049 433.959C185.555 433.631 186.102 433.467 186.689 433.467C187.651 433.467 188.398 433.784 188.932 434.417C189.465 435.05 189.731 435.957 189.731 437.138V437.664H184.721C184.739 438.393 184.951 438.983 185.356 439.435C185.767 439.881 186.286 440.104 186.915 440.104C187.362 440.104 187.74 440.013 188.05 439.831C188.36 439.649 188.631 439.407 188.863 439.106L189.636 439.708C189.016 440.66 188.086 441.137 186.847 441.137ZM186.689 434.506C186.179 434.506 185.751 434.693 185.404 435.066C185.058 435.436 184.844 435.955 184.762 436.625H188.467V436.529C188.43 435.887 188.257 435.39 187.947 435.039C187.637 434.684 187.218 434.506 186.689 434.506ZM190.894 437.24C190.894 436.105 191.162 435.194 191.7 434.506C192.238 433.813 192.942 433.467 193.812 433.467C194.678 433.467 195.364 433.763 195.87 434.355V430.5H197.135V441H195.973L195.911 440.207C195.405 440.827 194.701 441.137 193.799 441.137C192.942 441.137 192.243 440.786 191.7 440.084C191.162 439.382 190.894 438.466 190.894 437.336V437.24ZM192.158 437.384C192.158 438.222 192.331 438.879 192.678 439.353C193.024 439.826 193.503 440.063 194.113 440.063C194.915 440.063 195.501 439.703 195.87 438.983V435.586C195.492 434.889 194.911 434.54 194.127 434.54C193.507 434.54 193.024 434.779 192.678 435.258C192.331 435.736 192.158 436.445 192.158 437.384ZM208.838 437.384C208.838 438.514 208.578 439.423 208.059 440.111C207.539 440.795 206.842 441.137 205.967 441.137C205.033 441.137 204.31 440.806 203.8 440.146L203.738 441H202.576V430.5H203.841V434.417C204.351 433.784 205.055 433.467 205.953 433.467C206.851 433.467 207.555 433.806 208.065 434.485C208.58 435.164 208.838 436.094 208.838 437.274V437.384ZM207.573 437.24C207.573 436.379 207.407 435.714 207.074 435.244C206.742 434.775 206.263 434.54 205.639 434.54C204.805 434.54 204.205 434.927 203.841 435.702V438.901C204.228 439.676 204.832 440.063 205.652 440.063C206.258 440.063 206.73 439.829 207.067 439.359C207.405 438.89 207.573 438.184 207.573 437.24ZM212.775 439.147L214.498 433.604H215.852L212.878 442.142C212.418 443.372 211.686 443.987 210.684 443.987L210.444 443.967L209.973 443.878V442.853L210.314 442.88C210.743 442.88 211.076 442.793 211.312 442.62C211.554 442.447 211.752 442.13 211.907 441.67L212.188 440.918L209.549 433.604H210.93L212.775 439.147ZM224.766 439.038C224.766 438.696 224.636 438.432 224.376 438.245C224.121 438.054 223.672 437.89 223.029 437.753C222.391 437.616 221.883 437.452 221.505 437.261C221.131 437.069 220.853 436.841 220.671 436.577C220.493 436.313 220.404 435.998 220.404 435.634C220.404 435.028 220.66 434.515 221.17 434.096C221.685 433.676 222.341 433.467 223.139 433.467C223.977 433.467 224.656 433.683 225.176 434.116C225.7 434.549 225.962 435.103 225.962 435.777H224.69C224.69 435.431 224.542 435.132 224.246 434.882C223.954 434.631 223.585 434.506 223.139 434.506C222.678 434.506 222.318 434.606 222.059 434.807C221.799 435.007 221.669 435.269 221.669 435.593C221.669 435.898 221.79 436.128 222.031 436.283C222.273 436.438 222.708 436.586 223.337 436.728C223.97 436.869 224.483 437.037 224.875 437.233C225.267 437.429 225.556 437.666 225.743 437.944C225.935 438.218 226.03 438.553 226.03 438.949C226.03 439.61 225.766 440.141 225.237 440.542C224.709 440.938 224.023 441.137 223.18 441.137C222.587 441.137 222.063 441.032 221.607 440.822C221.152 440.613 220.794 440.321 220.534 439.947C220.279 439.569 220.151 439.161 220.151 438.724H221.416C221.439 439.147 221.607 439.485 221.922 439.735C222.241 439.981 222.66 440.104 223.18 440.104C223.658 440.104 224.041 440.009 224.328 439.817C224.62 439.621 224.766 439.362 224.766 439.038ZM229.394 431.812V433.604H230.774V434.581H229.394V439.168C229.394 439.464 229.455 439.688 229.578 439.838C229.701 439.984 229.911 440.057 230.207 440.057C230.353 440.057 230.553 440.029 230.809 439.975V441C230.476 441.091 230.152 441.137 229.838 441.137C229.273 441.137 228.847 440.966 228.56 440.624C228.272 440.282 228.129 439.797 228.129 439.168V434.581H226.782V433.604H228.129V431.812H229.394ZM231.786 437.233C231.786 436.509 231.927 435.857 232.21 435.278C232.497 434.7 232.894 434.253 233.399 433.938C233.91 433.624 234.491 433.467 235.143 433.467C236.15 433.467 236.963 433.815 237.583 434.513C238.207 435.21 238.52 436.137 238.52 437.295V437.384C238.52 438.104 238.381 438.751 238.103 439.325C237.829 439.895 237.435 440.339 236.92 440.658C236.41 440.977 235.822 441.137 235.156 441.137C234.154 441.137 233.34 440.788 232.716 440.091C232.096 439.394 231.786 438.471 231.786 437.322V437.233ZM233.058 437.384C233.058 438.204 233.247 438.863 233.625 439.359C234.008 439.856 234.518 440.104 235.156 440.104C235.799 440.104 236.309 439.854 236.688 439.353C237.066 438.847 237.255 438.14 237.255 437.233C237.255 436.422 237.061 435.766 236.674 435.265C236.291 434.759 235.781 434.506 235.143 434.506C234.518 434.506 234.015 434.754 233.632 435.251C233.249 435.748 233.058 436.459 233.058 437.384ZM243.681 434.738C243.489 434.706 243.282 434.69 243.059 434.69C242.229 434.69 241.666 435.044 241.37 435.75V441H240.105V433.604H241.336L241.356 434.458C241.771 433.797 242.359 433.467 243.12 433.467C243.366 433.467 243.553 433.499 243.681 433.562V434.738ZM246.224 441H244.959V433.604H246.224V441ZM244.856 431.642C244.856 431.437 244.918 431.263 245.041 431.122C245.169 430.981 245.355 430.91 245.602 430.91C245.848 430.91 246.035 430.981 246.162 431.122C246.29 431.263 246.354 431.437 246.354 431.642C246.354 431.847 246.29 432.018 246.162 432.154C246.035 432.291 245.848 432.359 245.602 432.359C245.355 432.359 245.169 432.291 245.041 432.154C244.918 432.018 244.856 431.847 244.856 431.642ZM251.323 441.137C250.321 441.137 249.505 440.809 248.876 440.152C248.247 439.492 247.933 438.61 247.933 437.507V437.274C247.933 436.541 248.072 435.887 248.35 435.312C248.632 434.734 249.024 434.283 249.525 433.959C250.031 433.631 250.578 433.467 251.166 433.467C252.128 433.467 252.875 433.784 253.408 434.417C253.941 435.05 254.208 435.957 254.208 437.138V437.664H249.197C249.215 438.393 249.427 438.983 249.833 439.435C250.243 439.881 250.763 440.104 251.392 440.104C251.838 440.104 252.216 440.013 252.526 439.831C252.836 439.649 253.107 439.407 253.34 439.106L254.112 439.708C253.493 440.66 252.563 441.137 251.323 441.137ZM251.166 434.506C250.656 434.506 250.227 434.693 249.881 435.066C249.535 435.436 249.32 435.955 249.238 436.625H252.943V436.529C252.907 435.887 252.734 435.39 252.424 435.039C252.114 434.684 251.695 434.506 251.166 434.506ZM259.984 439.038C259.984 438.696 259.854 438.432 259.595 438.245C259.34 438.054 258.891 437.89 258.248 437.753C257.61 437.616 257.102 437.452 256.724 437.261C256.35 437.069 256.072 436.841 255.89 436.577C255.712 436.313 255.623 435.998 255.623 435.634C255.623 435.028 255.878 434.515 256.389 434.096C256.904 433.676 257.56 433.467 258.357 433.467C259.196 433.467 259.875 433.683 260.395 434.116C260.919 434.549 261.181 435.103 261.181 435.777H259.909C259.909 435.431 259.761 435.132 259.465 434.882C259.173 434.631 258.804 434.506 258.357 434.506C257.897 434.506 257.537 434.606 257.277 434.807C257.018 435.007 256.888 435.269 256.888 435.593C256.888 435.898 257.008 436.128 257.25 436.283C257.492 436.438 257.927 436.586 258.556 436.728C259.189 436.869 259.702 437.037 260.094 437.233C260.486 437.429 260.775 437.666 260.962 437.944C261.153 438.218 261.249 438.553 261.249 438.949C261.249 439.61 260.985 440.141 260.456 440.542C259.927 440.938 259.242 441.137 258.398 441.137C257.806 441.137 257.282 441.032 256.826 440.822C256.37 440.613 256.013 440.321 255.753 439.947C255.498 439.569 255.37 439.161 255.37 438.724H256.635C256.658 439.147 256.826 439.485 257.141 439.735C257.46 439.981 257.879 440.104 258.398 440.104C258.877 440.104 259.26 440.009 259.547 439.817C259.839 439.621 259.984 439.362 259.984 439.038ZM266.622 441.854H265.535L269.691 431.047H270.771L266.622 441.854ZM281.299 436.604H277.122V441H275.81V431.047H281.976V432.127H277.122V435.531H281.299V436.604ZM286.747 434.738C286.556 434.706 286.348 434.69 286.125 434.69C285.296 434.69 284.733 435.044 284.437 435.75V441H283.172V433.604H284.402L284.423 434.458C284.838 433.797 285.425 433.467 286.187 433.467C286.433 433.467 286.619 433.499 286.747 433.562V434.738ZM290.849 441.137C289.846 441.137 289.03 440.809 288.401 440.152C287.772 439.492 287.458 438.61 287.458 437.507V437.274C287.458 436.541 287.597 435.887 287.875 435.312C288.158 434.734 288.549 434.283 289.051 433.959C289.557 433.631 290.104 433.467 290.691 433.467C291.653 433.467 292.4 433.784 292.934 434.417C293.467 435.05 293.733 435.957 293.733 437.138V437.664H288.723C288.741 438.393 288.953 438.983 289.358 439.435C289.769 439.881 290.288 440.104 290.917 440.104C291.364 440.104 291.742 440.013 292.052 439.831C292.362 439.649 292.633 439.407 292.865 439.106L293.638 439.708C293.018 440.66 292.088 441.137 290.849 441.137ZM290.691 434.506C290.181 434.506 289.753 434.693 289.406 435.066C289.06 435.436 288.846 435.955 288.764 436.625H292.469V436.529C292.432 435.887 292.259 435.39 291.949 435.039C291.639 434.684 291.22 434.506 290.691 434.506ZM298.272 441.137C297.27 441.137 296.454 440.809 295.825 440.152C295.196 439.492 294.882 438.61 294.882 437.507V437.274C294.882 436.541 295.021 435.887 295.299 435.312C295.581 434.734 295.973 434.283 296.475 433.959C296.98 433.631 297.527 433.467 298.115 433.467C299.077 433.467 299.824 433.784 300.357 434.417C300.891 435.05 301.157 435.957 301.157 437.138V437.664H296.146C296.165 438.393 296.377 438.983 296.782 439.435C297.192 439.881 297.712 440.104 298.341 440.104C298.787 440.104 299.166 440.013 299.476 439.831C299.785 439.649 300.057 439.407 300.289 439.106L301.062 439.708C300.442 440.66 299.512 441.137 298.272 441.137ZM298.115 434.506C297.605 434.506 297.176 434.693 296.83 435.066C296.484 435.436 296.27 435.955 296.188 436.625H299.893V436.529C299.856 435.887 299.683 435.39 299.373 435.039C299.063 434.684 298.644 434.506 298.115 434.506ZM308.875 437.384C308.875 438.509 308.618 439.416 308.103 440.104C307.588 440.793 306.89 441.137 306.011 441.137C305.113 441.137 304.407 440.852 303.892 440.282V443.844H302.627V433.604H303.782L303.844 434.424C304.359 433.786 305.074 433.467 305.99 433.467C306.879 433.467 307.581 433.802 308.096 434.472C308.615 435.142 308.875 436.074 308.875 437.268V437.384ZM307.61 437.24C307.61 436.406 307.433 435.748 307.077 435.265C306.722 434.782 306.234 434.54 305.614 434.54C304.849 434.54 304.274 434.88 303.892 435.559V439.093C304.27 439.767 304.849 440.104 305.628 440.104C306.234 440.104 306.715 439.865 307.07 439.387C307.43 438.904 307.61 438.188 307.61 437.24ZM311.862 441H310.598V433.604H311.862V441ZM310.495 431.642C310.495 431.437 310.557 431.263 310.68 431.122C310.807 430.981 310.994 430.91 311.24 430.91C311.486 430.91 311.673 430.981 311.801 431.122C311.928 431.263 311.992 431.437 311.992 431.642C311.992 431.847 311.928 432.018 311.801 432.154C311.673 432.291 311.486 432.359 311.24 432.359C310.994 432.359 310.807 432.291 310.68 432.154C310.557 432.018 310.495 431.847 310.495 431.642ZM315.957 437.575L315.164 438.402V441H313.899V430.5H315.164V436.851L315.841 436.037L318.145 433.604H319.683L316.805 436.693L320.018 441H318.534L315.957 437.575Z" fill="#ACA9A9"/>
</svg>
