<?xml version="1.0" encoding="utf-8"?>
<svg height="496pt" viewBox="-24 0 496 496" width="496pt" xmlns="http://www.w3.org/2000/svg">
  <path d="m433.273438 270.441406-3.609376-7.800781c1.535157-10.046875 2.335938-20.28125 2.335938-30.640625v-8h-208v208h8c27.527344 0 54.929688-5.761719 80-16.679688v.679688c0 12.046875 3.984375 23.976562 11.199219 33.59375l12.800781 17.070312v29.335938h80v-30.800781l24.96875-81.144531c4.664062-15.160157 7.03125-30.886719 7.03125-46.765626 0-22.929687-5.097656-46.050781-14.726562-66.847656zm-193.273438 145.390625v-175.832031h175.832031c-1.664062 39.128906-15.625 76-39.832031 106.367188v-2.367188c0-17.648438-14.351562-32-32-32s-32 14.351562-32 32v53.671875c-22.625 10.96875-46.777344 17.105469-72 18.160156zm185.671875-36.472656-25.320313 82.289063-.351562 18.351562h-48v-18.664062l-16-21.34375c-5.160156-6.863282-8-15.390626-8-23.992188v-72c0-8.824219 7.175781-16 16-16s16 7.175781 16 16v64h16v-37.289062c22.441406-23.277344 38.632812-51.039063 47.648438-81.253907 5.421874 15.335938 8.351562 31.613281 8.351562 47.832031 0 14.277344-2.128906 28.429688-6.328125 42.070313zm0 0"/>
  <path d="m400 200c0-110.28125-89.71875-200-200-200s-200 89.71875-200 200 89.71875 200 200 200h8v-192h192zm-32.113281-75.199219-67.199219 67.199219h-49.375l98.589844-98.585938c6.984375 9.792969 13 20.304688 17.984375 31.386719zm-27.917969-44.074219-111.28125 111.273438h-20.6875v-28.6875l106.902344-106.90625c9.105468 7.296875 17.488281 15.449219 25.066406 24.320312zm-131.96875 10.585938 61.625-61.625c11.351562 4.65625 22.117188 10.441406 32.207031 17.167969l-93.832031 93.832031zm0-22.625v-52.488281c15.542969.671875 30.601562 3.257812 44.921875 7.570312zm-16 315.144531c-97.761719-4.207031-176-85.054687-176-183.832031s78.238281-179.59375 176-183.800781zm131.3125-191.832031 50.960938-50.96875c5.460937 16.113281 8.789062 33.214844 9.550781 50.96875zm0 0"/>
  <path d="M 141.065 142.373 C 151.522 142.373 160.034 153.208 160.034 166.518 C 160.034 170.957 162.859 174.565 166.356 174.565 C 169.855 174.565 172.679 170.957 172.679 166.518 C 172.679 144.33 158.496 126.277 141.065 126.277 L 122.097 126.277 L 122.097 94.086 C 122.097 89.645 119.272 86.038 115.774 86.038 C 112.276 86.038 109.451 89.645 109.451 94.086 L 109.451 126.277 L 90.482 126.277 C 81.6 126.277 73.064 131.083 67.087 139.454 C 61.113 147.82 58.168 159.114 59.02 170.442 C 60.551 190.807 74.845 206.757 91.569 206.757 L 109.451 206.757 L 109.451 255.044 L 90.482 255.044 C 80.026 255.044 71.514 244.21 71.514 230.9 C 71.514 226.46 68.689 222.852 65.191 222.852 C 61.694 222.852 58.868 226.46 58.868 230.9 C 58.868 253.088 73.052 271.141 90.482 271.141 L 109.451 271.141 L 109.451 303.332 C 109.451 307.773 112.276 311.38 115.774 311.38 C 119.272 311.38 122.097 307.773 122.097 303.332 L 122.097 271.141 L 139.978 271.141 C 156.703 271.141 170.997 255.19 172.528 234.826 C 173.38 223.505 170.435 212.203 164.461 203.837 C 158.484 195.467 149.948 190.661 141.065 190.661 L 122.097 190.661 L 122.097 142.373 Z M 109.451 190.661 L 91.569 190.661 C 81.289 190.661 72.521 181.108 71.604 168.915 C 71.085 161.994 72.804 155.373 76.445 150.284 C 80.032 145.254 85.144 142.373 90.482 142.373 L 109.451 142.373 Z M 141.065 206.757 C 146.403 206.757 151.516 209.637 155.11 214.666 C 158.744 219.764 160.469 226.378 159.951 233.298 C 159.027 245.492 150.259 255.044 139.978 255.044 L 122.097 255.044 L 122.097 206.757 Z M 141.065 206.757" style=""/>
</svg>