<svg width="30" height="54" viewBox="0 0 30 54" fill="none" xmlns="http://www.w3.org/2000/svg">
<path d="M15 0C23.2843 0 30 6.74383 30 15.0628C30 23.3817 15 54 15 54C15 54 0 23.3817 0 15.0628C0 6.74383 6.71573 0 15 0Z" fill="#FF1E1E"/>
<ellipse cx="15" cy="15.0502" rx="12" ry="12.0502" fill="white"/>
<path d="M19.75 21H10.25C9.5605 21 9 20.4395 9 19.75V10.25C9 9.5605 9.5605 9 10.25 9H19.75C20.4395 9 21 9.5605 21 10.25V19.75C21 20.4395 20.4395 21 19.75 21ZM10.25 9.5C9.8365 9.5 9.5 9.8365 9.5 10.25V19.75C9.5 20.1635 9.8365 20.5 10.25 20.5H19.75C20.1635 20.5 20.5 20.1635 20.5 19.75V10.25C20.5 9.8365 20.1635 9.5 19.75 9.5H10.25Z" fill="#111111"/>
<path d="M13.25 14.5H11.25C10.8365 14.5 10.5 14.1635 10.5 13.75V11.75C10.5 11.3365 10.8365 11 11.25 11H13.25C13.6635 11 14 11.3365 14 11.75V13.75C14 14.1635 13.6635 14.5 13.25 14.5ZM11.25 11.5C11.1125 11.5 11 11.6125 11 11.75V13.75C11 13.8875 11.1125 14 11.25 14H13.25C13.3875 14 13.5 13.8875 13.5 13.75V11.75C13.5 11.6125 13.3875 11.5 13.25 11.5H11.25Z" fill="#111111"/>
<path d="M19.25 12H15.75C15.612 12 15.5 11.888 15.5 11.75C15.5 11.612 15.612 11.5 15.75 11.5H19.25C19.388 11.5 19.5 11.612 19.5 11.75C19.5 11.888 19.388 12 19.25 12Z" fill="#111111"/>
<path d="M19.25 14H15.75C15.612 14 15.5 13.888 15.5 13.75C15.5 13.612 15.612 13.5 15.75 13.5H19.25C19.388 13.5 19.5 13.612 19.5 13.75C19.5 13.888 19.388 14 19.25 14Z" fill="#111111"/>
<path d="M12.2501 13.4999C12.1861 13.4999 12.1221 13.4754 12.0731 13.4269L11.0731 12.4269C10.9756 12.3294 10.9756 12.1709 11.0731 12.0734C11.1706 11.9759 11.3291 11.9759 11.4266 12.0734L12.2501 12.8964L14.5731 10.5734C14.6706 10.4759 14.8291 10.4759 14.9266 10.5734C15.0241 10.6709 15.0241 10.8294 14.9266 10.9269L12.4266 13.4269C12.3781 13.4754 12.3141 13.4999 12.2501 13.4999Z" fill="#111111"/>
<path d="M13.25 19.5H11.25C10.8365 19.5 10.5 19.1635 10.5 18.75V16.75C10.5 16.3365 10.8365 16 11.25 16H13.25C13.6635 16 14 16.3365 14 16.75V18.75C14 19.1635 13.6635 19.5 13.25 19.5ZM11.25 16.5C11.1125 16.5 11 16.6125 11 16.75V18.75C11 18.8875 11.1125 19 11.25 19H13.25C13.3875 19 13.5 18.8875 13.5 18.75V16.75C13.5 16.6125 13.3875 16.5 13.25 16.5H11.25Z" fill="#111111"/>
<path d="M19.25 17H15.75C15.612 17 15.5 16.888 15.5 16.75C15.5 16.612 15.612 16.5 15.75 16.5H19.25C19.388 16.5 19.5 16.612 19.5 16.75C19.5 16.888 19.388 17 19.25 17Z" fill="#111111"/>
<path d="M19.25 19H15.75C15.612 19 15.5 18.888 15.5 18.75C15.5 18.612 15.612 18.5 15.75 18.5H19.25C19.388 18.5 19.5 18.612 19.5 18.75C19.5 18.888 19.388 19 19.25 19Z" fill="#111111"/>
</svg>
