<svg width="30" height="54" viewBox="0 0 30 54" fill="none" xmlns="http://www.w3.org/2000/svg">
<path d="M15 0C23.2843 0 30 6.74383 30 15.0628C30 23.3817 15 54 15 54C15 54 0 23.3817 0 15.0628C0 6.74383 6.71573 0 15 0Z" fill="#FF1E1E"/>
<ellipse cx="15" cy="15.0502" rx="12" ry="12.0502" fill="white"/>
<g clip-path="url(#clip0)">
<path d="M20.8861 20.3471L17.7879 17.2985C18.5993 16.417 19.0978 15.2512 19.0978 13.9684C19.0974 11.2243 16.8371 9 14.0487 9C11.2603 9 9 11.2243 9 13.9684C9 16.7126 11.2603 18.9368 14.0487 18.9368C15.2535 18.9368 16.3585 18.5201 17.2264 17.8273L20.3367 20.888C20.4882 21.0373 20.7342 21.0373 20.8858 20.888C21.0377 20.7387 21.0377 20.4964 20.8861 20.3471ZM14.0487 18.1724C11.6894 18.1724 9.77681 16.2902 9.77681 13.9684C9.77681 11.6466 11.6894 9.76442 14.0487 9.76442C16.408 9.76442 18.3206 11.6466 18.3206 13.9684C18.3206 16.2902 16.408 18.1724 14.0487 18.1724Z" fill="#111111"/>
</g>
<defs>
<clipPath id="clip0">
<rect width="12" height="12" fill="white" transform="translate(9 9)"/>
</clipPath>
</defs>
</svg>
