<svg width="30" height="54" viewBox="0 0 30 54" fill="none" xmlns="http://www.w3.org/2000/svg">
<path d="M15 7.15256e-07C23.2843 7.15256e-07 30 6.74383 30 15.0628C30 23.3817 15 54 15 54C15 54 0 23.3817 0 15.0628C0 6.74383 6.71573 7.15256e-07 15 7.15256e-07Z" fill="#FF1E1E"/>
<ellipse cx="15" cy="15.0502" rx="12" ry="12.0502" fill="white"/>
<g clip-path="url(#clip0)">
<path d="M16 12.5449L20.405 13.4199C20.76 13.4949 21 13.7949 21 14.1499V19.2499C21 19.6649 20.665 19.9999 20.25 19.9999H15.75C15.89 19.9999 16 19.8899 16 19.7499V19.4999H20.25C20.385 19.4999 20.5 19.3899 20.5 19.2499V14.1499C20.5 14.0349 20.42 13.9299 20.305 13.9049L16 13.0549V12.5449Z" fill="#111111"/>
<path d="M18.75 14.999C18.89 14.999 19 15.109 19 15.249C19 15.389 18.89 15.499 18.75 15.499H17.75C17.61 15.499 17.5 15.389 17.5 15.249C17.5 15.109 17.61 14.999 17.75 14.999H18.75Z" fill="#111111"/>
<path d="M18.75 16.499C18.89 16.499 19 16.609 19 16.749C19 16.889 18.89 16.999 18.75 16.999H17.75C17.61 16.999 17.5 16.889 17.5 16.749C17.5 16.609 17.61 16.499 17.75 16.499H18.75Z" fill="#111111"/>
<path d="M18.75 17.999C18.89 17.999 19 18.109 19 18.249C19 18.389 18.89 18.499 18.75 18.499H17.75C17.61 18.499 17.5 18.389 17.5 18.249C17.5 18.109 17.61 17.999 17.75 17.999H18.75Z" fill="#111111"/>
<path d="M16 19.7499C16 19.8899 15.89 19.9999 15.75 19.9999C15.61 19.9999 15.5 19.8899 15.5 19.7499V19.4999V12.7499C15.5 12.6749 15.535 12.6049 15.59 12.5549C15.65 12.5099 15.725 12.4899 15.8 12.5049L16 12.5449V13.0549V19.4999V19.7499Z" fill="#111111"/>
<path d="M15.5 19.499V19.7491C15.5 19.8891 15.61 19.9991 15.75 19.9991H13.75C13.89 19.9991 14 19.8891 14 19.7491V19.499H15.5Z" fill="#111111"/>
<path d="M14.25 10.499C14.39 10.499 14.5 10.609 14.5 10.749C14.5 10.889 14.39 10.999 14.25 10.999H13.25C13.11 10.999 13 10.889 13 10.749C13 10.609 13.11 10.499 13.25 10.499H14.25Z" fill="#111111"/>
<path d="M14.5 12.249C14.5 12.389 14.39 12.499 14.25 12.499H13.25C13.11 12.499 13 12.389 13 12.249C13 12.109 13.11 11.999 13.25 11.999H14.25C14.39 11.999 14.5 12.109 14.5 12.249Z" fill="#111111"/>
<path d="M14.25 13.499C14.39 13.499 14.5 13.609 14.5 13.749C14.5 13.889 14.39 13.999 14.25 13.999H13.25C13.11 13.999 13 13.889 13 13.749C13 13.609 13.11 13.499 13.25 13.499H14.25Z" fill="#111111"/>
<path d="M14.25 14.999C14.39 14.999 14.5 15.109 14.5 15.249C14.5 15.389 14.39 15.499 14.25 15.499H13.25C13.11 15.499 13 15.389 13 15.249C13 15.109 13.11 14.999 13.25 14.999H14.25Z" fill="#111111"/>
<path d="M12 15.249C12 15.389 11.89 15.499 11.75 15.499H10.75C10.61 15.499 10.5 15.389 10.5 15.249C10.5 15.109 10.61 14.999 10.75 14.999H11.75C11.89 14.999 12 15.109 12 15.249Z" fill="#111111"/>
<path d="M11.75 10.499C11.89 10.499 12 10.609 12 10.749C12 10.889 11.89 10.999 11.75 10.999H10.75C10.61 10.999 10.5 10.889 10.5 10.749C10.5 10.609 10.61 10.499 10.75 10.499H11.75Z" fill="#111111"/>
<path d="M11.75 11.999C11.89 11.999 12 12.109 12 12.249C12 12.389 11.89 12.499 11.75 12.499H10.75C10.61 12.499 10.5 12.389 10.5 12.249C10.5 12.109 10.61 11.999 10.75 11.999H11.75Z" fill="#111111"/>
<path d="M11.75 13.499C11.89 13.499 12 13.609 12 13.749C12 13.889 11.89 13.999 11.75 13.999H10.75C10.61 13.999 10.5 13.889 10.5 13.749C10.5 13.609 10.61 13.499 10.75 13.499H11.75Z" fill="#111111"/>
<path d="M13.5 17.249C13.5 17.109 13.385 16.999 13.25 16.999H11.75C11.61 16.999 11.5 17.109 11.5 17.249V19.499H11V17.249C11 16.834 11.335 16.499 11.75 16.499H13.25C13.665 16.499 14 16.834 14 17.249V19.499H13.5V17.249Z" fill="#111111"/>
<path d="M11.5 19.499H13.5H14V19.7491C14 19.8891 13.89 19.9991 13.75 19.9991H11.25C11.11 19.9991 11 19.8891 11 19.7491V19.499H11.5Z" fill="#111111"/>
<path d="M9.875 8.09958L15.37 8.93458C15.735 8.99458 16 9.30458 16 9.67458V12.5446L15.8 12.5046C15.725 12.4896 15.65 12.5096 15.59 12.5546C15.535 12.6046 15.5 12.6746 15.5 12.7496V9.67458C15.5 9.54958 15.41 9.44458 15.29 9.42458L9.795 8.59458C9.78 8.58958 9.765 8.58958 9.75 8.58958C9.69 8.58958 9.635 8.60958 9.59 8.64958C9.53 8.69958 9.5 8.76458 9.5 8.83958V19.2496C9.5 19.3896 9.615 19.4996 9.75 19.4996H11V19.7496C11 19.8896 11.11 19.9996 11.25 19.9996H9.75C9.335 19.9996 9 19.6646 9 19.2496V8.83958C9 8.61958 9.095 8.40958 9.265 8.26958C9.435 8.12458 9.655 8.06458 9.875 8.09958V8.09958Z" fill="#111111"/>
</g>
<defs>
<clipPath id="clip0">
<rect width="12" height="12" fill="white" transform="translate(9 8)"/>
</clipPath>
</defs>
</svg>
