<svg width="30" height="30" viewBox="0 0 30 30" fill="none" xmlns="http://www.w3.org/2000/svg">
<path d="M4.21875 29.0625H21.5625C23.0525 29.0626 24.4981 28.5557 25.6617 27.6251C26.8253 26.6945 27.6375 25.3955 27.9648 23.942C28.2921 22.4884 28.115 20.9667 27.4626 19.6272C26.8101 18.2876 25.7212 17.21 24.375 16.5715V7.03125C24.375 6.96969 24.3629 6.90874 24.3393 6.85186C24.3158 6.79499 24.2812 6.74331 24.2377 6.69979L18.6127 1.07479C18.5692 1.03126 18.5175 0.996731 18.4606 0.973176C18.4038 0.94962 18.3428 0.937498 18.2812 0.9375H4.21875C3.59736 0.938198 3.00163 1.18535 2.56224 1.62474C2.12285 2.06413 1.8757 2.65986 1.875 3.28125V26.7188C1.8757 27.3401 2.12285 27.9359 2.56224 28.3753C3.00163 28.8146 3.59736 29.0618 4.21875 29.0625ZM27.1875 22.5C27.1875 23.6125 26.8576 24.7001 26.2395 25.6251C25.6214 26.5501 24.7429 27.2711 23.7151 27.6968C22.6873 28.1226 21.5563 28.234 20.4651 28.0169C19.374 27.7999 18.3717 27.2641 17.585 26.4775C16.7984 25.6908 16.2626 24.6885 16.0456 23.5974C15.8285 22.5062 15.9399 21.3752 16.3657 20.3474C16.7914 19.3196 17.5124 18.4411 18.4374 17.823C19.3624 17.2049 20.45 16.875 21.5625 16.875C23.0538 16.8767 24.4836 17.4698 25.5381 18.5244C26.5927 19.5789 27.1858 21.0087 27.1875 22.5ZM18.75 2.53787L22.7746 6.5625H20.1562C19.7834 6.56208 19.426 6.41379 19.1623 6.15016C18.8987 5.88652 18.7504 5.52908 18.75 5.15625V2.53787ZM2.8125 3.28125C2.81293 2.90842 2.96123 2.55099 3.22486 2.28736C3.48849 2.02373 3.84592 1.87543 4.21875 1.875H17.8125V5.15625C17.8132 5.77764 18.0604 6.37337 18.4997 6.81276C18.9391 7.25215 19.5349 7.4993 20.1562 7.5H23.4375V16.2109C21.9059 15.7539 20.2602 15.8717 18.8093 16.542C17.3584 17.2124 16.202 18.3893 15.5574 19.8518C14.9127 21.3144 14.824 22.9619 15.3079 24.4852C15.7918 26.0085 16.8151 27.3027 18.1857 28.125H4.21875C3.84592 28.1246 3.48849 27.9763 3.22486 27.7126C2.96123 27.449 2.81293 27.0916 2.8125 26.7188V3.28125Z" fill="#ACA9A9"/>
<path d="M9.375 9.84375C9.375 9.96807 9.42439 10.0873 9.51229 10.1752C9.6002 10.2631 9.71943 10.3125 9.84375 10.3125H21.0938C21.2181 10.3125 21.3373 10.2631 21.4252 10.1752C21.5131 10.0873 21.5625 9.96807 21.5625 9.84375C21.5625 9.71943 21.5131 9.6002 21.4252 9.51229C21.3373 9.42439 21.2181 9.375 21.0938 9.375H9.84375C9.71943 9.375 9.6002 9.42439 9.51229 9.51229C9.42439 9.6002 9.375 9.71943 9.375 9.84375Z" fill="#ACA9A9"/>
<path d="M5.15625 13.125H14.5312C14.6556 13.125 14.7748 13.0756 14.8627 12.9877C14.9506 12.8998 15 12.7806 15 12.6562C15 12.5319 14.9506 12.4127 14.8627 12.3248C14.7748 12.2369 14.6556 12.1875 14.5312 12.1875H5.15625C5.03193 12.1875 4.9127 12.2369 4.82479 12.3248C4.73689 12.4127 4.6875 12.5319 4.6875 12.6562C4.6875 12.7806 4.73689 12.8998 4.82479 12.9877C4.9127 13.0756 5.03193 13.125 5.15625 13.125Z" fill="#ACA9A9"/>
<path d="M16.4062 15H12.6562C12.5319 15 12.4127 15.0494 12.3248 15.1373C12.2369 15.2252 12.1875 15.3444 12.1875 15.4688C12.1875 15.5931 12.2369 15.7123 12.3248 15.8002C12.4127 15.8881 12.5319 15.9375 12.6562 15.9375H16.4062C16.5306 15.9375 16.6498 15.8881 16.7377 15.8002C16.8256 15.7123 16.875 15.5931 16.875 15.4688C16.875 15.3444 16.8256 15.2252 16.7377 15.1373C16.6498 15.0494 16.5306 15 16.4062 15Z" fill="#ACA9A9"/>
<path d="M5.15625 18.75H13.5938C13.7181 18.75 13.8373 18.7006 13.9252 18.6127C14.0131 18.5248 14.0625 18.4056 14.0625 18.2812C14.0625 18.1569 14.0131 18.0377 13.9252 17.9498C13.8373 17.8619 13.7181 17.8125 13.5938 17.8125H5.15625C5.03193 17.8125 4.9127 17.8619 4.82479 17.9498C4.73689 18.0377 4.6875 18.1569 4.6875 18.2812C4.6875 18.4056 4.73689 18.5248 4.82479 18.6127C4.9127 18.7006 5.03193 18.75 5.15625 18.75Z" fill="#ACA9A9"/>
<path d="M5.15625 10.3125H7.96875C8.09307 10.3125 8.2123 10.2631 8.30021 10.1752C8.38811 10.0873 8.4375 9.96807 8.4375 9.84375C8.4375 9.71943 8.38811 9.6002 8.30021 9.51229C8.2123 9.42439 8.09307 9.375 7.96875 9.375H5.15625C5.03193 9.375 4.9127 9.42439 4.82479 9.51229C4.73689 9.6002 4.6875 9.71943 4.6875 9.84375C4.6875 9.96807 4.73689 10.0873 4.82479 10.1752C4.9127 10.2631 5.03193 10.3125 5.15625 10.3125Z" fill="#ACA9A9"/>
<path d="M21.0938 12.1875H16.4062C16.2819 12.1875 16.1627 12.2369 16.0748 12.3248C15.9869 12.4127 15.9375 12.5319 15.9375 12.6562C15.9375 12.7806 15.9869 12.8998 16.0748 12.9877C16.1627 13.0756 16.2819 13.125 16.4062 13.125H21.0938C21.2181 13.125 21.3373 13.0756 21.4252 12.9877C21.5131 12.8998 21.5625 12.7806 21.5625 12.6562C21.5625 12.5319 21.5131 12.4127 21.4252 12.3248C21.3373 12.2369 21.2181 12.1875 21.0938 12.1875Z" fill="#ACA9A9"/>
<path d="M5.15625 15.9375H10.7812C10.9056 15.9375 11.0248 15.8881 11.1127 15.8002C11.2006 15.7123 11.25 15.5931 11.25 15.4688C11.25 15.3444 11.2006 15.2252 11.1127 15.1373C11.0248 15.0494 10.9056 15 10.7812 15H5.15625C5.03193 15 4.9127 15.0494 4.82479 15.1373C4.73689 15.2252 4.6875 15.3444 4.6875 15.4688C4.6875 15.5931 4.73689 15.7123 4.82479 15.8002C4.9127 15.8881 5.03193 15.9375 5.15625 15.9375Z" fill="#ACA9A9"/>
<path d="M12.6562 23.4375H10.7812C10.6569 23.4375 10.5377 23.4869 10.4498 23.5748C10.3619 23.6627 10.3125 23.7819 10.3125 23.9062C10.3125 24.0306 10.3619 24.1498 10.4498 24.2377C10.5377 24.3256 10.6569 24.375 10.7812 24.375H12.6562C12.7806 24.375 12.8998 24.3256 12.9877 24.2377C13.0756 24.1498 13.125 24.0306 13.125 23.9062C13.125 23.7819 13.0756 23.6627 12.9877 23.5748C12.8998 23.4869 12.7806 23.4375 12.6562 23.4375Z" fill="#ACA9A9"/>
<path d="M5.15625 24.375H8.90625C9.03057 24.375 9.1498 24.3256 9.23771 24.2377C9.32561 24.1498 9.375 24.0306 9.375 23.9062C9.375 23.7819 9.32561 23.6627 9.23771 23.5748C9.1498 23.4869 9.03057 23.4375 8.90625 23.4375H5.15625C5.03193 23.4375 4.9127 23.4869 4.82479 23.5748C4.73689 23.6627 4.6875 23.7819 4.6875 23.9062C4.6875 24.0306 4.73689 24.1498 4.82479 24.2377C4.9127 24.3256 5.03193 24.375 5.15625 24.375Z" fill="#ACA9A9"/>
<path d="M5.15625 21.5625H7.96875C8.09307 21.5625 8.2123 21.5131 8.30021 21.4252C8.38811 21.3373 8.4375 21.2181 8.4375 21.0938C8.4375 20.9694 8.38811 20.8502 8.30021 20.7623C8.2123 20.6744 8.09307 20.625 7.96875 20.625H5.15625C5.03193 20.625 4.9127 20.6744 4.82479 20.7623C4.73689 20.8502 4.6875 20.9694 4.6875 21.0938C4.6875 21.2181 4.73689 21.3373 4.82479 21.4252C4.9127 21.5131 5.03193 21.5625 5.15625 21.5625Z" fill="#ACA9A9"/>
<path d="M5.15625 7.5H10.7812C10.9056 7.5 11.0248 7.45061 11.1127 7.36271C11.2006 7.2748 11.25 7.15557 11.25 7.03125C11.25 6.90693 11.2006 6.7877 11.1127 6.69979C11.0248 6.61189 10.9056 6.5625 10.7812 6.5625H5.15625C5.03193 6.5625 4.9127 6.61189 4.82479 6.69979C4.73689 6.7877 4.6875 6.90693 4.6875 7.03125C4.6875 7.15557 4.73689 7.2748 4.82479 7.36271C4.9127 7.45061 5.03193 7.5 5.15625 7.5Z" fill="#ACA9A9"/>
<path d="M12.6562 20.625H9.84375C9.71943 20.625 9.6002 20.6744 9.51229 20.7623C9.42439 20.8502 9.375 20.9694 9.375 21.0938C9.375 21.2181 9.42439 21.3373 9.51229 21.4252C9.6002 21.5131 9.71943 21.5625 9.84375 21.5625H12.6562C12.7806 21.5625 12.8998 21.5131 12.9877 21.4252C13.0756 21.3373 13.125 21.2181 13.125 21.0938C13.125 20.9694 13.0756 20.8502 12.9877 20.7623C12.8998 20.6744 12.7806 20.625 12.6562 20.625Z" fill="#ACA9A9"/>
<path d="M21.0938 19.2188V22.0312H18.2812C18.1569 22.0312 18.0377 22.0806 17.9498 22.1685C17.8619 22.2565 17.8125 22.3757 17.8125 22.5C17.8125 22.6243 17.8619 22.7435 17.9498 22.8315C18.0377 22.9194 18.1569 22.9688 18.2812 22.9688H21.0938V25.7812C21.0938 25.9056 21.1431 26.0248 21.231 26.1127C21.319 26.2006 21.4382 26.25 21.5625 26.25C21.6868 26.25 21.806 26.2006 21.894 26.1127C21.9819 26.0248 22.0312 25.9056 22.0312 25.7812V22.9688H24.8438C24.9681 22.9688 25.0873 22.9194 25.1752 22.8315C25.2631 22.7435 25.3125 22.6243 25.3125 22.5C25.3125 22.3757 25.2631 22.2565 25.1752 22.1685C25.0873 22.0806 24.9681 22.0312 24.8438 22.0312H22.0312V19.2188C22.0312 19.0944 21.9819 18.9752 21.894 18.8873C21.806 18.7994 21.6868 18.75 21.5625 18.75C21.4382 18.75 21.319 18.7994 21.231 18.8873C21.1431 18.9752 21.0938 19.0944 21.0938 19.2188Z" fill="#ACA9A9"/>
</svg>
