<svg width="30" height="30" viewBox="0 0 30 30" fill="none" xmlns="http://www.w3.org/2000/svg">
<g clip-path="url(#clip0)">
<path d="M17.5 11.3623L28.5125 13.5498C29.4 13.7373 30 14.4873 30 15.3748V28.1248C30 29.1623 29.1625 29.9998 28.125 29.9998H16.875C17.225 29.9998 17.5 29.7248 17.5 29.3748V28.7498H28.125C28.4625 28.7498 28.75 28.4748 28.75 28.1248V15.3748C28.75 15.0873 28.55 14.8248 28.2625 14.7623L17.5 12.6373V11.3623Z" fill="#ACA9A9"/>
<path d="M24.375 17.4976C24.725 17.4976 25 17.7725 25 18.1225C25 18.4725 24.725 18.7475 24.375 18.7475H21.875C21.525 18.7475 21.25 18.4725 21.25 18.1225C21.25 17.7725 21.525 17.4976 21.875 17.4976H24.375Z" fill="#ACA9A9"/>
<path d="M24.375 21.2476C24.725 21.2476 25 21.5225 25 21.8725C25 22.2225 24.725 22.4975 24.375 22.4975H21.875C21.525 22.4975 21.25 22.2225 21.25 21.8725C21.25 21.5225 21.525 21.2476 21.875 21.2476H24.375Z" fill="#ACA9A9"/>
<path d="M24.375 24.9976C24.725 24.9976 25 25.2725 25 25.6225C25 25.9725 24.725 26.2475 24.375 26.2475H21.875C21.525 26.2475 21.25 25.9725 21.25 25.6225C21.25 25.2725 21.525 24.9976 21.875 24.9976H24.375Z" fill="#ACA9A9"/>
<path d="M17.4999 29.3748C17.4999 29.7248 17.2249 29.9998 16.875 29.9998C16.525 29.9998 16.25 29.7248 16.25 29.3748V28.7498V11.8748C16.25 11.6873 16.3375 11.5123 16.475 11.3873C16.625 11.2748 16.8125 11.2248 16.9999 11.2623L17.4999 11.3623V12.6373V28.7498V29.3748Z" fill="#ACA9A9"/>
<path d="M16.2499 28.7476V29.3727C16.2499 29.7227 16.5249 29.9978 16.8749 29.9978H11.875C12.225 29.9978 12.5 29.7227 12.5 29.3727V28.7476H16.2499Z" fill="#ACA9A9"/>
<path d="M13.125 6.24756C13.475 6.24756 13.75 6.52257 13.75 6.87259C13.75 7.2226 13.475 7.49762 13.125 7.49762H10.625C10.275 7.49762 10 7.2226 10 6.87259C10 6.52257 10.275 6.24756 10.625 6.24756H13.125Z" fill="#ACA9A9"/>
<path d="M13.75 10.6226C13.75 10.9726 13.475 11.2476 13.125 11.2476H10.625C10.275 11.2476 10 10.9726 10 10.6226C10 10.2726 10.275 9.99756 10.625 9.99756H13.125C13.475 9.99756 13.75 10.2726 13.75 10.6226Z" fill="#ACA9A9"/>
<path d="M13.125 13.7476C13.475 13.7476 13.75 14.0225 13.75 14.3725C13.75 14.7225 13.475 14.9975 13.125 14.9975H10.625C10.275 14.9975 10 14.7225 10 14.3725C10 14.0225 10.275 13.7476 10.625 13.7476H13.125Z" fill="#ACA9A9"/>
<path d="M13.125 17.4976C13.475 17.4976 13.75 17.7725 13.75 18.1225C13.75 18.4725 13.475 18.7475 13.125 18.7475H10.625C10.275 18.7475 10 18.4725 10 18.1225C10 17.7725 10.275 17.4976 10.625 17.4976H13.125Z" fill="#ACA9A9"/>
<path d="M7.5 18.1225C7.5 18.4725 7.225 18.7475 6.875 18.7475H4.375C4.025 18.7475 3.75 18.4725 3.75 18.1225C3.75 17.7725 4.025 17.4976 4.375 17.4976H6.875C7.225 17.4976 7.5 17.7725 7.5 18.1225Z" fill="#ACA9A9"/>
<path d="M6.875 6.24756C7.225 6.24756 7.5 6.52257 7.5 6.87259C7.5 7.2226 7.225 7.49762 6.875 7.49762H4.375C4.025 7.49762 3.75 7.2226 3.75 6.87259C3.75 6.52257 4.025 6.24756 4.375 6.24756H6.875Z" fill="#ACA9A9"/>
<path d="M6.875 9.99756C7.225 9.99756 7.5 10.2726 7.5 10.6226C7.5 10.9726 7.225 11.2476 6.875 11.2476H4.375C4.025 11.2476 3.75 10.9726 3.75 10.6226C3.75 10.2726 4.025 9.99756 4.375 9.99756H6.875Z" fill="#ACA9A9"/>
<path d="M6.875 13.7476C7.225 13.7476 7.5 14.0225 7.5 14.3725C7.5 14.7225 7.225 14.9975 6.875 14.9975H4.375C4.025 14.9975 3.75 14.7225 3.75 14.3725C3.75 14.0225 4.025 13.7476 4.375 13.7476H6.875Z" fill="#ACA9A9"/>
<path d="M11.25 23.1226C11.25 22.7726 10.9625 22.4976 10.625 22.4976H6.875C6.525 22.4976 6.25 22.7726 6.25 23.1226V28.7476H5V23.1226C5 22.0851 5.8375 21.2476 6.875 21.2476H10.625C11.6625 21.2476 12.5 22.0851 12.5 23.1226V28.7476H11.25V23.1226Z" fill="#ACA9A9"/>
<path d="M6.25 28.7476H11.25H12.5V29.3727C12.5 29.7227 12.225 29.9978 11.875 29.9978H5.625C5.275 29.9978 5 29.7227 5 29.3727V28.7476H6.25Z" fill="#ACA9A9"/>
<path d="M2.1875 0.248946L15.925 2.33645C16.8375 2.48645 17.5 3.26145 17.5 4.18645V11.3614L17 11.2614C16.8125 11.2239 16.625 11.2739 16.475 11.3864C16.3375 11.5114 16.25 11.6864 16.25 11.8739V4.18645C16.25 3.87395 16.025 3.61145 15.725 3.56145L1.9875 1.48645C1.95 1.47395 1.9125 1.47395 1.875 1.47395C1.725 1.47395 1.5875 1.52395 1.475 1.62395C1.325 1.74895 1.25 1.91145 1.25 2.09895V28.1239C1.25 28.4739 1.5375 28.7489 1.875 28.7489H5V29.3739C5 29.7239 5.275 29.9989 5.625 29.9989H1.875C0.8375 29.9989 0 29.1614 0 28.1239V2.09895C0 1.54895 0.2375 1.02395 0.6625 0.673946C1.0875 0.311446 1.6375 0.161446 2.1875 0.248946Z" fill="#ACA9A9"/>
</g>
<defs>
<clipPath id="clip0">
<rect width="30" height="30" fill="white"/>
</clipPath>
</defs>
</svg>
