<svg width="31" height="30" viewBox="0 0 31 30" fill="none" xmlns="http://www.w3.org/2000/svg">
<g clip-path="url(#clip0)">
<path d="M28.6555 15.1258V10.9094C28.6555 9.47963 27.5465 8.31687 26.1453 8.20411L22.2296 1.36474C21.8667 0.732193 21.2808 0.280091 20.5797 0.0923594C19.8819 -0.0940935 19.1521 0.00383102 18.5276 0.367341L5.10432 8.18213H2.74678C1.24269 8.18213 0.0195312 9.40522 0.0195312 10.9094V27.2727C0.0195312 28.7768 1.24263 30 2.74678 30H25.9282C27.4323 30 28.6555 28.7769 28.6555 27.2727V23.0563C29.4474 22.7739 30.0191 22.0242 30.0191 21.1365V17.0456C30.0191 16.1579 29.4474 15.4082 28.6555 15.1258ZM24.5608 8.18213H18.6182L23.0752 5.58725L24.5608 8.18213ZM22.3977 4.40391L15.908 8.18213H13.2162L21.7247 3.22837L22.3977 4.40391ZM19.214 1.54582C19.5223 1.36538 19.8825 1.31744 20.2268 1.40935C20.575 1.50255 20.8653 1.72761 21.0458 2.04254L21.0472 2.04503L10.5062 8.18213H7.81451L19.214 1.54582ZM27.2918 27.2727C27.2918 28.0244 26.6799 28.6363 25.9282 28.6363H2.74678C1.99509 28.6363 1.38319 28.0244 1.38319 27.2727V10.9094C1.38319 10.1577 1.99509 9.54578 2.74678 9.54578H25.9282C26.6799 9.54578 27.2918 10.1577 27.2918 10.9094V15.0002H23.201C20.9452 15.0002 19.1102 16.8352 19.1102 19.0911C19.1102 21.3469 20.9452 23.1819 23.201 23.1819H27.2918V27.2727ZM28.6555 21.1365C28.6555 21.5126 28.3499 21.8183 27.9737 21.8183H23.201C21.6969 21.8183 20.4737 20.5952 20.4737 19.0911C20.4737 17.587 21.6968 16.3638 23.201 16.3638H27.9737C28.3498 16.3638 28.6555 16.6694 28.6555 17.0456V21.1365Z" fill="#ACA9A9"/>
<path d="M23.1995 17.7275C22.4478 17.7275 21.8359 18.3394 21.8359 19.0911C21.8359 19.8428 22.4478 20.4547 23.1995 20.4547C23.9512 20.4547 24.5631 19.8428 24.5631 19.0911C24.5632 18.3394 23.9513 17.7275 23.1995 17.7275Z" fill="#ACA9A9"/>
</g>
<defs>
<clipPath id="clip0">
<rect width="30" height="30" fill="white" transform="translate(0.0195312)"/>
</clipPath>
</defs>
</svg>
