<svg xmlns="http://www.w3.org/2000/svg" viewBox="0 0 500 500"><path fill="#f5f5f5" d="M479.5 110.54h-73.64v34.99h29.94l11.2 11.2 11.2-11.2h21.3v-34.99z"/><path d="M423.51 126.27a5.23 5.23 0 00-10.37-.92 5.29 5.29 0 00.64 3.56c.2.34.45.58.7.94l3 4a1 1 0 001.51 0l3-3.95a10.7 10.7 0 00.76-1 5.22 5.22 0 00.76-2.63zm-5.22 2.28a2.3 2.3 0 112.29-2.3 2.3 2.3 0 01-2.29 2.3zM472.16 130c0 .14-9.81.26-21.92.26s-21.92-.12-21.92-.26 9.81-.26 21.92-.26 21.92.12 21.92.26zM458.2 134.72c0 .14-6.69.26-14.94.26s-14.94-.12-14.94-.26 6.69-.27 14.94-.27 14.94.12 14.94.27zM431 119.13l1 2.03 2.24.33-1.62 1.58.38 2.23-2-1.06-2.01 1.06.39-2.23-1.63-1.58 2.24-.33 1.01-2.03zM440.48 119.13l1 2.03 2.24.33-1.62 1.58.38 2.23-2-1.06-2.01 1.06.39-2.23-1.62-1.58 2.24-.33 1-2.03zM449.96 119.13l1 2.03 2.24.33-1.62 1.58.38 2.23-2-1.06-2.01 1.06.39-2.23-1.62-1.58 2.24-.33 1-2.03z" fill="#e0e0e0"/><path fill="#ebebeb" d="M459.44 119.13l1 2.03 2.24.33-1.62 1.58.38 2.23-2-1.06-2 1.06.38-2.23-1.62-1.58 2.24-.33 1-2.03zM468.92 119.13l1 2.03 2.24.33-1.62 1.58.38 2.23-2-1.06-2 1.06.38-2.23-1.62-1.58 2.24-.33 1-2.03z"/><path fill="#f5f5f5" d="M157.82 36.82H43.32v54.41h46.55l17.42 17.41 17.41-17.41h33.12V36.82z"/><path d="M70.76 61.29a8.12 8.12 0 10-15.12 4.1c.31.53.7.9 1.1 1.45l4.71 6.25a1.46 1.46 0 002.34 0L68.45 67a19.41 19.41 0 001.18-1.57 8 8 0 001.13-4.14zm-8.12 3.53a3.57 3.57 0 113.57-3.57 3.57 3.57 0 01-3.57 3.57zM146.41 67.09c0 .14-15.26.26-34.08.26s-34.09-.12-34.09-.26 15.26-.26 34.09-.26 34.08.17 34.08.26zM124.71 74.41c0 .15-10.4.26-23.23.26s-23.24-.11-23.24-.26 10.4-.26 23.24-.26 23.23.12 23.23.26zM82.41 50.18l1.55 3.16 3.48.5-2.52 2.46.6 3.47-3.11-1.64-3.12 1.64.6-3.47-2.52-2.46 3.48-.5 1.56-3.16zM97.15 50.18l1.55 3.16 3.49.5-2.52 2.46.59 3.47-3.11-1.64-3.12 1.64.6-3.47-2.52-2.46 3.48-.5 1.56-3.16zM111.89 50.18l1.56 3.16 3.48.5-2.52 2.46.59 3.47-3.11-1.64-3.11 1.64.59-3.47-2.52-2.46 3.48-.5 1.56-3.16z" fill="#e0e0e0"/><path fill="#ebebeb" d="M126.63 50.18l1.56 3.16 3.48.5-2.52 2.46.6 3.47-3.12-1.64-3.11 1.64.59-3.47-2.52-2.46 3.49-.5 1.55-3.16zM141.38 50.18l1.55 3.16 3.48.5-2.51 2.46.59 3.47-3.11-1.64-3.12 1.64.6-3.47-2.52-2.46 3.48-.5 1.56-3.16z"/><path d="M421.6 169.93c.6-4.38-5.57-8-10.2-8.35-2.21-.17-4.51.16-6.61-.57-4.53-1.58-6.35-7.44-10.78-9.31-3.31-1.4-7.12-.15-10.33 1.46s-6.38 3.65-10 3.88c-3.12.2-6.5-1-9.23.57-2 1.13-3.1 3.48-5 4.86s-4.22 1.64-6.5 1.76-4.63.15-6.7 1.1-3.79 3.14-3.36 5.37zM107.44 213.19c.61-4.37-5.56-8-10.2-8.34-2.21-.18-4.51.16-6.6-.57-4.54-1.58-6.36-7.45-10.78-9.31-3.32-1.4-7.13-.16-10.34 1.46s-6.38 3.65-10 3.88c-3.11.2-6.5-1-9.23.56-2 1.14-3.1 3.48-5 4.86s-4.23 1.64-6.51 1.77-4.63.14-6.7 1.09-3.78 3.14-3.35 5.38z" fill="#f5f5f5"/><path d="M75.79 167.12c.44-3.21-4.1-5.86-7.5-6.13-1.63-.13-3.32.12-4.86-.42-3.33-1.16-4.66-5.47-7.92-6.85-2.43-1-5.23-.11-7.59 1.08s-4.69 2.68-7.33 2.85c-2.29.15-4.78-.7-6.79.42-1.49.83-2.27 2.55-3.65 3.57a8.76 8.76 0 01-4.78 1.29 13.35 13.35 0 00-4.92.81c-1.53.7-2.79 2.31-2.47 3.95zM449.39 50.29c.45-3.21-4.09-5.86-7.5-6.13-1.62-.13-3.31.12-4.85-.42-3.33-1.16-4.67-5.47-7.92-6.85-2.44-1-5.24-.11-7.6 1.08s-4.69 2.68-7.32 2.85c-2.29.15-4.78-.7-6.79.42-1.49.83-2.28 2.55-3.65 3.57A8.76 8.76 0 01399 46.1a13.44 13.44 0 00-4.93.81c-1.52.7-2.78 2.31-2.46 4z" fill="#ebebeb"/><path fill="#f5f5f5" d="M358.06 208.32h83.22v263.75h-83.22z"/><path fill="#ebebeb" d="M399.68 208.32h41.61v263.03h-41.61z"/><path fill="#f5f5f5" d="M367.57 182.43h29.39v25.89h-29.39z"/><path fill="#ebebeb" d="M389.95 182.43h7v25.89h-7z"/><path fill="#e0e0e0" d="M351.13 208.32v-1.51h92.59v1.51"/><path fill="#fafafa" d="M374.49 219.61h7.04v14.85h-7.04z"/><path d="M399.68 240.3c0 .15-9.32.28-20.81.28s-20.81-.13-20.81-.28 9.32-.29 20.81-.29 20.81.13 20.81.29zM416.46 219.61h7.04v14.85h-7.04zM441.65 240.3c0 .15-9.32.28-20.81.28s-20.8-.13-20.8-.28 9.31-.29 20.8-.29 20.81.13 20.81.29zM416.46 249.1h7.04v14.85h-7.04zM441.65 269.79c0 .15-9.32.28-20.81.28s-20.8-.13-20.8-.28 9.31-.29 20.8-.29 20.81.13 20.81.29zM416.46 279.48h7.04v14.85h-7.04zM441.65 300.17c0 .15-9.32.28-20.81.28s-20.8-.13-20.8-.28 9.31-.29 20.8-.29 20.81.12 20.81.29zM416.46 309.87h7.04v14.85h-7.04zM441.65 330.55c0 .16-9.32.28-20.81.28s-20.8-.12-20.8-.28 9.31-.28 20.8-.28 20.81.12 20.81.28zM416.46 339.38h7.04v14.85h-7.04zM441.65 360.06c0 .16-9.32.28-20.81.28s-20.8-.12-20.8-.28 9.31-.28 20.8-.28 20.81.12 20.81.28zM416.46 369.01h7.04v14.85h-7.04zM416.46 399.03h7.04v14.85h-7.04zM441.65 389.69c0 .16-9.32.29-20.81.29s-20.8-.13-20.8-.29 9.31-.28 20.8-.28 20.81.12 20.81.28z" fill="#e0e0e0"/><path fill="#fafafa" d="M374.49 249.55h7.04v14.85h-7.04z"/><path d="M399.68 270.24c0 .15-9.32.28-20.81.28s-20.81-.13-20.81-.28 9.32-.29 20.81-.29 20.81.13 20.81.29z" fill="#e0e0e0"/><path fill="#fafafa" d="M374.49 279.49h7.04v14.85h-7.04z"/><path d="M399.68 300.18c0 .16-9.32.28-20.81.28s-20.81-.12-20.81-.28 9.32-.29 20.81-.29 20.81.11 20.81.29z" fill="#e0e0e0"/><path fill="#fafafa" d="M374.49 309.44h7.04v14.85h-7.04z"/><path d="M399.68 330.12c0 .16-9.32.28-20.81.28s-20.81-.12-20.81-.28 9.32-.28 20.81-.28 20.81.16 20.81.28z" fill="#e0e0e0"/><path fill="#fafafa" d="M374.49 339.38h7.04v14.85h-7.04z"/><path d="M399.68 360.06c0 .16-9.32.28-20.81.28s-20.81-.12-20.81-.28 9.32-.28 20.81-.28 20.81.12 20.81.28z" fill="#e0e0e0"/><path fill="#fafafa" d="M374.49 369.32h7.04v14.85h-7.04z"/><path d="M399.68 390c0 .16-9.32.29-20.81.29s-20.81-.13-20.81-.29 9.32-.28 20.81-.28 20.81.12 20.81.28z" fill="#e0e0e0"/><path fill="#fafafa" d="M374.49 399.26h7.04v14.85h-7.04z"/><path fill="#ebebeb" d="M181.31 472.29H58.85l-.54-193.54h122.47l.53 193.54z"/><path fill="#e0e0e0" d="M119.55 278.74h61.23v193.55h-61.23z"/><path fill="#ebebeb" d="M72.3 240.64h43.25v38.1H72.3z"/><path fill="#e0e0e0" d="M105.24 240.64h10.31v38.1h-10.31z"/><path fill="#e0e0e0" d="M48.11 276.52h136.25v2.22H48.11z"/><path fill="#fff" d="M82.49 295.36h10.37v21.86H82.49z"/><path d="M119.55 325.8c0 .23-13.71.42-30.62.42s-30.61-.19-30.61-.42 13.7-.42 30.61-.42 30.62.19 30.62.42z" fill="#e0e0e0"/><path fill="#f5f5f5" d="M144.25 295.36h10.37v21.86h-10.37z"/><path d="M181.31 325.8c0 .23-13.71.42-30.61.42s-30.62-.19-30.62-.42 13.71-.42 30.62-.42 30.61.19 30.61.42z" fill="#ebebeb"/><path fill="#f5f5f5" d="M144.25 338.76h10.37v21.86h-10.37z"/><path d="M181.31 369.2c0 .23-13.71.41-30.61.41s-30.62-.18-30.62-.41 13.71-.42 30.62-.42 30.61.22 30.61.42z" fill="#ebebeb"/><path fill="#f5f5f5" d="M144.25 383.47h10.37v21.86h-10.37z"/><path d="M181.31 413.9c0 .23-13.71.42-30.61.42s-30.62-.19-30.62-.42 13.71-.42 30.62-.42 30.61.19 30.61.42z" fill="#ebebeb"/><path fill="#f5f5f5" d="M144.25 428.17h10.37v21.86h-10.37z"/><path d="M181.31 458.61c0 .23-13.71.41-30.61.41s-30.62-.18-30.62-.41 13.71-.42 30.62-.42 30.61.19 30.61.42z" fill="#ebebeb"/><path fill="#fff" d="M82.49 339.42h10.37v21.86H82.49z"/><path d="M119.55 369.86c0 .23-13.71.42-30.62.42s-30.61-.19-30.61-.42 13.7-.42 30.61-.42 30.62.19 30.62.42z" fill="#e0e0e0"/><path fill="#fff" d="M82.49 383.48h10.37v21.86H82.49z"/><path d="M119.55 413.92c0 .23-13.71.41-30.62.41s-30.61-.18-30.61-.41 13.7-.42 30.61-.42 30.62.19 30.62.42z" fill="#e0e0e0"/><path fill="#fff" d="M82.49 427.54h10.37v21.86H82.49z"/><path d="M119.55 458c0 .23-13.71.41-30.62.41s-30.61-.18-30.61-.41 13.7-.42 30.61-.42 30.62.17 30.62.42z" fill="#e0e0e0"/><g><path d="M411.31 451.58c.76-3-1.17-5.93-3.35-8.07s-4.77-4.07-5.9-6.9c-1.83-4.6.63-10.55-2.49-14.38-1.84-2.26-5.14-3-6.77-5.42a12.53 12.53 0 01-1.47-4.3 43.68 43.68 0 00-10.87-20.36 38 38 0 004.26 19.62c1.27 2.41 2.82 4.76 3.24 7.45.68 4.37-1.75 8.86-.68 13.15 1.23 4.91 6.74 8.19 7 13.24.22 4.27-3.5 8-3.23 12.28A11.62 11.62 0 00393 463c3.3 5.49 8.15 9.27 15.5 9.14l9 .32z" fill="#ff725e"/><path d="M411.31 451.58c.76-3-1.17-5.93-3.35-8.07s-4.77-4.07-5.9-6.9c-1.83-4.6.63-10.55-2.49-14.38-1.84-2.26-5.14-3-6.77-5.42a12.53 12.53 0 01-1.47-4.3 43.68 43.68 0 00-10.87-20.36 38 38 0 004.26 19.62c1.27 2.41 2.82 4.76 3.24 7.45.68 4.37-1.75 8.86-.68 13.15 1.23 4.91 6.74 8.19 7 13.24.22 4.27-3.5 8-3.23 12.28A11.62 11.62 0 00393 463c3.3 5.49 8.15 9.27 15.5 9.14l9 .32z" opacity=".3"/><path d="M419.1 472.46a7.12 7.12 0 002.48-.06 15.46 15.46 0 002.92-.73 12.54 12.54 0 003.61-2 5.09 5.09 0 001.49-2 9.12 9.12 0 00.4-2.67 26.75 26.75 0 01.21-2.91 8.18 8.18 0 011.1-2.9c1.06-1.86 2.83-3.63 3.4-6.16s.17-5.18-.25-7.89-.82-5.64.21-8.45 2.94-5.36 3.93-8.53.52-6.66.73-10.06a13.15 13.15 0 011.17-5c.73-1.6 1.74-3.1 2.53-4.78 1.6-3.39 1.88-7.23 2.32-11 .21-1.9.42-3.81.64-5.75a28.83 28.83 0 011-5.76 51.54 51.54 0 012.16-5.57 18.88 18.88 0 001-2.91 27.32 27.32 0 00.29-3.09 36.09 36.09 0 00-.24-6.23c-.24-2.08-.62-4.14-.84-6.22v-.36l-.05-.41-.37.18a14 14 0 00-4.84 4.09 21.84 21.84 0 00-3 5.49c-1.5 3.86-2 7.92-2.8 11.78a32.13 32.13 0 01-3.7 10.89c-1 1.6-2.18 3.07-3.23 4.63a12.8 12.8 0 00-2.23 5.13c-.53 3.81 1.57 7.15 1.13 10.52a11.71 11.71 0 01-1.64 4.67c-.82 1.44-1.78 2.78-2.69 4.12a26.7 26.7 0 00-2.42 4.15 13 13 0 00-1.1 4.51c-.22 3 .21 5.92 0 8.63a19.8 19.8 0 01-2.23 7.4c-1.08 2.22-2.3 4.22-3.31 6.16a30.88 30.88 0 00-1.36 2.87 13.51 13.51 0 00-.79 2.85 17.76 17.76 0 00-.07 5.13 12.9 12.9 0 002.57 6.55 6.47 6.47 0 00.73.79 4.07 4.07 0 00.59.51l.52.36a11.91 11.91 0 01-1.75-1.73 13 13 0 01-2.44-6.51 17.75 17.75 0 01.12-5.06 14.2 14.2 0 01.79-2.78c.39-.93.86-1.87 1.38-2.83 1-1.92 2.24-3.92 3.35-6.15a20 20 0 002.3-7.52c.24-2.78-.18-5.67 0-8.63a12.44 12.44 0 011.09-4.36 25.54 25.54 0 012.38-4.07c.91-1.34 1.89-2.67 2.73-4.14a12.18 12.18 0 001.71-4.86c.44-3.6-1.64-7-1.1-10.5a12.23 12.23 0 012.16-4.91c1-1.53 2.22-3 3.24-4.64a32.51 32.51 0 003.78-11.07c.77-3.89 1.31-7.9 2.79-11.69a21.29 21.29 0 012.9-5.34 13.23 13.23 0 014.64-3.92l-.42-.23v.36c.23 2.11.61 4.17.85 6.23a37.07 37.07 0 01.24 6.13 28.8 28.8 0 01-.28 3 17.85 17.85 0 01-1 2.81 49.91 49.91 0 00-2.17 5.63 27.8 27.8 0 00-1 5.85q-.33 2.91-.64 5.76c-.43 3.78-.71 7.56-2.25 10.84-.76 1.63-1.77 3.13-2.52 4.78a13.9 13.9 0 00-1.21 5.18c-.19 3.47.26 6.87-.68 10s-2.9 5.61-3.89 8.52-.62 6-.19 8.66.87 5.35.29 7.75-2.23 4.16-3.32 6.08a8.4 8.4 0 00-1.11 3 25.42 25.42 0 00-.19 2.95 9 9 0 01-.39 2.61 4.86 4.86 0 01-1.39 1.9 12.43 12.43 0 01-3.53 2 15.92 15.92 0 01-2.88.79 11.76 11.76 0 01-1.83.17z" fill="#263238"/><path d="M447.54 366.42s0 .09-.09.27l-.2.81c-.17.71-.39 1.78-.73 3.12s-1.17 2.84-1.86 4.7a64.08 64.08 0 00-2.14 6.38c-.69 2.4-1.3 5.07-1.93 7.92a33.15 33.15 0 01-2.89 8.79c-.73 1.47-1.56 2.95-2.22 4.56a21.31 21.31 0 00-1.3 5.17 104.91 104.91 0 01-1.94 10.86c-1.8 7.38-3.52 14.4-5.09 20.8s-3 12.12-4.26 17-2.15 8.7-2.83 11.45c-.32 1.32-.56 2.36-.74 3.12q-.1.5-.18.81a.9.9 0 000 .29 1.36 1.36 0 00.1-.27c.06-.22.14-.48.23-.8.21-.75.49-1.79.85-3.1l3-11.4 4.35-16.9 5.13-20.8a101.14 101.14 0 001.94-10.94 20.79 20.79 0 011.25-5c.63-1.58 1.45-3.05 2.19-4.53a33.52 33.52 0 002.87-8.92c.62-2.87 1.2-5.52 1.86-7.92s1.35-4.53 2-6.38 1.45-3.38 1.78-4.76.49-2.42.63-3.15c.05-.33.1-.6.14-.82a1 1 0 00.08-.36z" fill="#263238"/><path d="M415.87 471.88c6.33-2.6 9.5-12.59 8-19.26s-4.9-13.07-4.57-19.9c.26-5.25 2.74-10.32 2.27-15.56-.62-7.06-6.51-13.33-5.4-20.34.62-3.93 3.4-7.31 3.8-11.27.49-4.86-2.65-9.23-4.32-13.82-2.56-7-1.66-14.75-1.79-22.23s-1.76-15.69-7.7-20.23c-1.87 6.06-4.12 10.06-4.84 18.53-.26 3 2.39 9.32 1.9 16-.29 4-.68 8-1 12s-.65 7.83.2 11.63c.65 2.91 2 5.66 2.35 8.62.69 5.57-2.1 11.09-1.71 16.69.34 4.74 2.94 9.16 2.9 13.92-.05 6.68-5.28 12.86-4 19.43.62 3.25 2.8 6.12 3.06 9.42.19 2.57-.8 5.11-.66 7.68.23 4.13 7.43 8.38 11.56 8.73" fill="#ff725e"/><path d="M406.86 335.66a1.6 1.6 0 000 .35v5c0 1.75.68 3.81 1 6.23s.75 5.2 1 8.28.3 6.47.36 10.11.13 7.6 1.35 11.56c.54 2 1.18 4 1.58 6.06a25.71 25.71 0 01.3 6.47 128.16 128.16 0 00-.28 13.8c.43 9.44.85 18.43 1.22 26.62s.89 15.52 1.24 21.71l.88 14.64c.12 1.7.21 3 .27 4 0 .43.06.77.09 1a2 2 0 000 .35 1.35 1.35 0 000-.35v-1c0-.95-.09-2.28-.16-4-.17-3.5-.41-8.49-.7-14.65s-.7-13.55-1.11-21.72-.76-17.17-1.18-26.61a127.38 127.38 0 01.27-13.75 26.36 26.36 0 00-.33-6.6c-.41-2.13-1.06-4.13-1.61-6.1-1.22-3.9-1.27-7.8-1.38-11.43s-.18-7-.43-10.13-.62-5.88-1.05-8.3-1-4.48-1.13-6.2-.08-3.07-.12-4v-1a1.6 1.6 0 00-.08-.34z" fill="#263238"/></g><g><path d="M353.11 471.88l-145.21-.08a31.63 31.63 0 01-31.61-31.64l.07-364A31.62 31.62 0 01208 44.51l145.21.08a31.63 31.63 0 0131.61 31.64l-.07 364a31.64 31.64 0 01-31.64 31.65z" fill="#455a64"/><path d="M354.12 55.41l-28.25-.13a7 7 0 00-6.87 7.14v5.13a7 7 0 01-6.89 7.14L257 74.43a7 7 0 01-6.83-7.2V62.1a7 7 0 00-6.83-7.2h-9.93l-24.73-.11a22.23 22.23 0 00-22.33 22.14l-1.51 356.56A22.23 22.23 0 00207 455.76l145.42.67a22.22 22.22 0 0022.33-22.13l1.51-356.57a22.23 22.23 0 00-22.14-22.32z" fill="#f5f5f5"/><path d="M292.41 389.05c-.17 4.31-.33 8.35-.46 11.7h20.89l-2.56-12.83zM207.51 394.42l.18 6.33h82.17c.14-3.55.3-7.5.45-11.56zM311.33 387.86l2.57 12.89h38.51l-.46-15.46-40.62 2.57z" fill="#f5f5f5"/><path fill="#ebebeb" d="M294.49 207.56l7.28-42.22-19.07-1.41v43.63h11.79z"/><path fill="#f5f5f5" d="M205.79 370.99l-20.7 8.11-.06 14.66 21.38-1.36-.62-21.41z"/><path fill="#ebebeb" d="M205.7 367.69l-1.13-39.32h-.02V314.5l-19.19 2.03-.25 59.2 20.58-8.06.01.02z"/><path fill="#f5f5f5" d="M204.55 283.54l-19.04-2.51-.14 32.36 19.18-2.03v-27.82zM346.48 315.08l-.8 11.27-22.49 2.43 1.74 8.91 25.53-1.92-.38-12.79 2.04-8.47-5.64.57zM305.95 339.13l17.93-1.36-3.9-20.01-15.66 1.58 1.63 19.79z"/><path fill="#ebebeb" d="M306.12 341.2l1.37 16.69 2.43 22.89 1 5.01 40.97-2.59-1.37-45.34-44.4 3.34z"/><path d="M235.61 262.41l1.58 2.7-31.6 18.43v43.71l33.35-2.36 64.26-6.49-2.35-28.65-61.4-8 .41-3.1 60.73 7.93-4-48.49-60.1 5.78-.2-2.07 60.14-5.8-2.07-25.3h-57.82l-50.77 9.24-.25 57.94 19.23 2.54zm-26.78 60.67s.24-36.05 0-37.39L234.61 272l3.39 49.24zM344.38 315.3l-23.36 2.35 1.77 9.08 20.94-2.26.65-9.17zM292.7 381.33l-.21 5.63 17.38-1.1-.89-4.48z" fill="#f5f5f5"/><path fill="#ebebeb" d="M255.26 207.56l3.06-13.88h23.34v-29.83l-72.98-5.4v28l-22.8 5.16-.1 25.14 50.48-9.19h19z"/><path d="M304 124.58l-.62-2.56 27.87-11-18.18-36.41a8.26 8.26 0 01-1 .08l-30.8-.15.84 50.93z" fill="#f5f5f5"/><path d="M346.19 105.06V55.37l-20.28-.09a7 7 0 00-6.91 7.14v5.13a7.26 7.26 0 01-3 5.88l18.14 36.41z" fill="#ebebeb"/><path d="M241.42 107.19l-2.35-52.31h-5.64l-22-.1-9.43 46.75zm-5-47l.75 42.6-29.3-4.28 6.42-38.32zM242.49 107.35v.44c0 4.08.14 11.43.2 19.29l38.38-1.57-.84-51-23.23-.08a7 7 0 01-6.83-7.2V62.1a7 7 0 00-6.83-7.2h-3.24l2.35 52.46zM198.9 101.09l9.3-46.33a22.23 22.23 0 00-21.83 22.12l-.1 23.09.1-.68zM205.55 158.22l-19.52-1.45-.13 31.63 19.65-4.44v-25.74zM198.69 102.11l-12.42-1.78-.21 51.22 2.67.2 9.96-49.64zM238.12 367.09l.33-41.12-32.84 2.32 1.16 40.29 31.35-1.49zM244.16 357.6l46.51 22.28c.56-14.56 1.05-28.17 1-29l1-.06.49-1c.67.33.67.33.32 10.26-.19 5.54-.47 12.91-.75 20.28h16.09L306.45 358l-3.16-38.55-60.77 6.14zM358.17 289.35l-.53-5.42-55.75 5.8 2.35 28.57 48.13-4.86 5.8-24.09zM281.66 196.81h-20.83l-2.37 10.75h23.2v-10.75zM349.56 200.44l-52.16-3.61-2.12 12.32 2.19 26.74 55-5.29zm-50.24 8.69l2.8-7.78 45.3 2.87 2.58 22.24-49.19 5.84zM354.97 256.33l-2.29-23.65-55.04 5.29 2.07 25.17 55.26-6.81zM206.47 394.49l-21.35 1.35-.09-1.39-.03 6.3h21.65l-.18-6.26z" fill="#f5f5f5"/><path d="M375.87 93.32l.31.79.07-16.38a22.23 22.23 0 00-22.13-22.32h-6.92v49.27z" fill="#ebebeb"/><path d="M290.63 381l-47.48-22.75-1.67-32.59-2 .2-.34 42.2-32.35 1.54v.94l.63 21.76 82.95-5.25c.1-1.97.18-4.05.26-6.05zm-81.8-8.72l45.29-3.18 29.47 13.67-74.76 4zM362.37 148l1.94-11.52c-17-6.08-18.2-23.83-18.15-29.21l-11.11 4.4 16.73 33.59zM301.64 286.62l23.14-2.41-4.56-20.45-20.26 2.5 1.68 20.36zM351.57 168.08l-43.23-.01-3.59-.26-4.88 28.31 51.31 3.55-1.19-12.31 5.05-18.18-3.47-1.1zM348.58 160.48l.54-13.51-17-34.11-26.34 10.43 9 37.19zM331.11 117l15.56 29.62-2.24 9.23-26.65-1-6.66-28zM355.31 323.52l.79 26.55 18.73-1.06.06 1.04-18.75 1.06.95 31.76 17.71-1.12.13 2.08-17.78 1.13.48 15.79h17.25l.38-88.57-17.65 1.78-2.3 9.56z" fill="#f5f5f5"/><path d="M241.46 108.25l-39.67-5.69-9.92 49.44 49.76 3.69c.2-7.63.03-30.97-.17-47.44z" fill="#ebebeb"/><path fill="#f5f5f5" d="M306.69 160.49h6.01l-8.5-34.88-22.07.9.53 32.19 24.03 1.79zM184.89 426.13V434.11zM242.65 155.74l39 2.89-.52-32.08-38.39 1.57c.04 10.88.07 22.42-.09 27.62zM355.27 259.44l-34.01 4.2 4.57 20.46 31.51-3.28-2.07-21.38z"/><path d="M364.49 135.47l2.18-12.93 9.39.73.12-27.84-29 11.47c-.55 19.58 11.75 26.47 17.31 28.57z" fill="#ebebeb"/><path fill="#f5f5f5" d="M353.34 185.44l1.18 12.21 21.22 1.47.1-25.15-17.76-5.61-4.74 17.08zM363.44 289.72l-5.57 23.17 17.39-1.76.11-24.29c-5.34-1.41-10-2.55-12.51-3zM351.69 160.88l24.18 7.63.06-13.74-23.74-6.14-.5 12.25zM362.56 280.62c1.95.3 5.64 1.08 12.82 3l.22-53.11-17.73 1.7zM357.67 230.11l17.94-1.73.11-26.13-20.89-1.45 2.84 29.31zM366.49 136.13c3.41 1 6.57 1.83 9.5 2.42l.06-13.19-7.64-.59zM364.4 148.56l11.54 3 .05-11.92q-4.49-.88-9.67-2.46z"/><path d="M374.93 383.83l-.13-2.08-17.71 1.12-.95-31.76 18.75-1.06-.05-1-18.74 1.06-.79-26.54 2.3-9.57 17.65-1.78v-1.05l-17.39 1.76 5.57-23.17-.58-5.91c2.51.48 7.17 1.62 12.51 3v-3.25c-7.18-1.89-10.87-2.67-12.82-3l-4.69-48.44 17.73-1.7v-2.1l-17.94 1.73-2.84-29.31 20.89 1.45v-3.14l-21.22-1.46-1.18-12.21 4.74-17.08 17.8 5.66v-5.46l-24.18-7.63.49-12.25 23.74 6.14v-3.23l-11.54-3 1.92-11.4q5.19 1.58 9.67 2.46v-1.07c-2.93-.59-6.09-1.39-9.5-2.42l1.92-11.36 7.64.59v-2.09l-9.39-.73-2.18 12.93c-5.56-2.1-17.86-9-17.27-28.57l29-11.47v-1.33l-.31-.79-28.64 11.33V55.38h-1.05v49.69l-12.07 4.78L316 73.43a6.67 6.67 0 01-2.91 1.18L331.2 111l-27.87 11 .62 2.56-21.84.89-.84-50.93h-1l.84 51-38.38 1.57c-.06-7.86-.15-15.21-.2-19.29v-.44l-2.35-52.46h-1.05l2.35 52.31-39.48-5.68 9.39-46.78h-3.19l-9.3 46.33-12.53-1.8-.1.68v.36l12.42 1.78-10 49.64-2.68-.2v5.22l19.52 1.45V184l-19.63 4.4v3.21l22.79-5.16v-28l73 5.41v29.82h-23.37l-3.06 13.89h-19l-50.48 9.18v3.18l50.77-9.24h57.82l2.07 25.3-60.13 5.79.2 2.07 60.1-5.78 4 48.49-60.73-7.93-.41 3.1 61.4 8 2.35 28.65-64.26 6.49-33.35 2.36v-43.69l31.6-18.43-1.58-2.7-30.86 18-19.23-2.54V281l19 2.51v27.82l-19.18 2v3.14l19.19-2v13.87l1.13 39.32-20.58 8.06v3.36l20.7-8.1.62 21.42-21.42 1.36v.69l.09 1.39 21.35-1.35.18 6.26h1l-.18-6.33 82.8-5.23c-.15 4.06-.31 8-.45 11.56H292c.13-3.35.29-7.39.46-11.7l17.87-1.13 2.56 12.83h1.06l-2.57-12.89 40.62-2.57.46 15.46h5.22M292.49 387l.21-5.63 16.28.05.89 4.48zm18.43-1.17l-1-5-2.43-22.89-1.37-16.69 44.4-3.34 1.37 45.34zM321 317.65l23.36-2.35-.65 9.17-20.94 2.26zm-1 .11l3.9 20-17.9 1.37-1.63-19.79zm30.48 18l-25.53 1.92-1.74-8.91 22.49-2.43.8-11.27 5.63-.56-2 8.46zm-30.24-72l4.56 20.45-23.14 2.4-1.66-20.35zm5.61 20.34l-4.57-20.46 34-4.19 2.07 21.37zm23.42-86.82l-51.31-3.55 4.88-28.31 3.59.27h43.23l3.47 1.09-5.07 18.22zm-3.09-90c-.05 5.38 1.13 23.13 18.15 29.21L362.37 148l-10.59-2.74-16.73-33.59zm-14 5.55l17 34.11-.54 13.51h-33.8l-9-37.19zm-27.98 12.78l8.5 34.87h-6l-24-1.78-.53-32.19zm-23.11.94l.52 32.08-39-2.89c.16-5.2.13-16.77 0-27.62zm-79.3-24l39.67 5.69c.2 16.47.37 39.81.17 47.42L191.87 152zm100 62.79l-7.28 42.22H282.7v-43.63zm-40.94 31.46h20.83v10.76h-23.2zm34.45 12.34l2.12-12.32 52.16 3.61 2.92 30.16-55 5.29zm57.4 23.53l2.3 23.66-55.26 6.81-2.1-25.14zm-50.79 57.05l55.75-5.8.53 5.42-5.8 24.09-48.13 4.86zm4.54 68.28l2.38 22.35h-16.09c.28-7.37.56-14.74.75-20.28.35-9.93.35-9.93-.32-10.26l-.49 1-1 .06c.05.87-.44 14.48-1 29l-46.52-22.27-1.64-32 60.77-6.14zm-68-32l-.33 41.12-31.35 1.49-1.16-40.29zm-31.63 44.61v-.94l32.35-1.54.34-42.2 2-.2 1.67 32.59L290.63 381c-.08 2-.16 4.06-.23 6.07l-82.95 5.25z" fill="#fff"/><path fill="#e0e0e0" d="M254.12 369.12l-45.29 3.18v14.54l74.75-4.05-29.46-13.67zM347.42 204.22l-45.3-2.87-2.8 7.78 1.53 23.17 49.19-5.84-2.62-22.24z"/><path d="M185 351.53l-.11 74.6v8A22.21 22.21 0 00207 455.76l145.42.67a22.22 22.22 0 0022.33-22.13l.14-82.77z" fill="#fff"/><path fill="#e0e0e0" d="M238.04 105.51l-.75-42.61h-22.13l-6.42 38.32 29.3 4.29z"/><path fill="#ebebeb" d="M344.43 155.87l2.25-9.24-15.57-29.62-19.99 9.83 6.67 28.02 26.64 1.01z"/><path d="M208.83 285.69c.24 1.34 0 37.39 0 37.39l29.17-1.84-3.39-49.24zM305.95 314.96l-1.54-22.34 49.95-6.42v3.85l-6.04 20.54-42.37 4.37z" fill="#e0e0e0"/><path d="M352.52 371.87l-.63-14.57-43.89 2.13a6.75 6.75 0 01-3.31-.7l-62.28-31.46a4.52 4.52 0 01-2.47-3.79l-8.47-164.39a2.69 2.69 0 01.82-2.11 2.78 2.78 0 012.12-.78l26.69 2V129h3.13v29.59a2.76 2.76 0 01-2.95 2.74l-26.67-2 8.45 164a1.4 1.4 0 00.76 1.16l62.28 31.46a3.54 3.54 0 001.75.37l44.27-2.15a2.77 2.77 0 012.9 2.64l.64 14.93z" fill="#fff"/><path d="M348.75 185.37a24 24 0 10-44.63 12.11l.07.09c.92 1.54 2.07 2.65 3.23 4.28l13.92 18.43a4.32 4.32 0 006.91 0l13.68-18.13a51.62 51.62 0 003.48-4.61l.05-.06a23.84 23.84 0 003.29-12.11zm-24 10.43a10.55 10.55 0 1110.55-10.55 10.54 10.54 0 01-10.52 10.55zM219.7 383.18a10.87 10.87 0 10-20.25 5.49c.42.71.94 1.21 1.47 2l6.31 8.36a2 2 0 003.14 0l6.2-8.23a23.24 23.24 0 001.58-2.09 10.78 10.78 0 001.55-5.53zm-10.87 4.73a4.79 4.79 0 114.78-4.78 4.78 4.78 0 01-4.78 4.78z" fill="#ff725e"/><path d="M350.91 391c0 .14-27.13.26-60.59.26s-60.6-.12-60.6-.26 27.13-.26 60.6-.26 60.59.06 60.59.26zM292 400.75c0 .15-13.93.26-31.11.26s-31.12-.11-31.12-.26 13.93-.26 31.12-.26 31.11.12 31.11.26z" fill="#263238"/><path fill="#ff725e" d="M235.3 368.3l2.08 4.23 4.66.68-3.37 3.28.8 4.65-4.17-2.19-4.17 2.19.79-4.65-3.37-3.28 4.66-.68 2.09-4.23zM255.04 368.3l2.09 4.23 4.66.68-3.38 3.28.8 4.65-4.17-2.19-4.17 2.19.8-4.65-3.38-3.28 4.67-.68 2.08-4.23zM274.78 368.3l2.09 4.23 4.66.68-3.37 3.28.79 4.65-4.17-2.19-4.17 2.19.8-4.65-3.37-3.28 4.66-.68 2.08-4.23zM294.53 368.3l2.08 4.23 4.66.68-3.37 3.28.8 4.65-4.17-2.19-4.17 2.19.79-4.65-3.37-3.28 4.66-.68 2.09-4.23z"/><path fill="#e0e0e0" d="M314.27 368.3l2.09 4.23 4.66.68-3.37 3.28.79 4.65-4.17-2.19-4.17 2.19.8-4.65-3.38-3.28 4.67-.68 2.08-4.23zM269.64 419.69c0 .15-7.58.26-16.93.26s-16.93-.11-16.93-.26 7.58-.26 16.93-.26 16.93.12 16.93.26zM356.64 428.22c0 .14-27.06.26-60.43.26s-60.43-.12-60.43-.26 27-.27 60.43-.27 60.43.12 60.43.27z"/><circle cx="213.93" cy="423.79" r="10.32" fill="#f5f5f5"/><path d="M215.14 423.5a3.23 3.23 0 002-3 3 3 0 10-6.05-.1 3.23 3.23 0 001.9 3c-4.67.65-4.51 5.71-4.51 5.71l11 .17s.26-5.03-4.34-5.78z" fill="#e0e0e0"/><path d="M280.6 445.73a.52.52 0 01-.36-.16l-5-5.22a.5.5 0 010-.71.49.49 0 01.7 0l4.65 4.84 4.56-4.75a.51.51 0 01.71 0 .5.5 0 010 .71l-4.86 5.13a.48.48 0 01-.4.16z" fill="#263238"/></g><g><path d="M105.87 113c.84-.19 1.87-.23 2.33-1s-.11-1.9-.87-2.51-1.7-1.07-2.14-1.94a3.33 3.33 0 01.47-3.2 7 7 0 0110.74-1.31l2.41-.21a33.72 33.72 0 01-.06 8.46 11.32 11.32 0 01-4.07 7.21 5.46 5.46 0 01-3.31 1.18 3.24 3.24 0 01-2.89-1.78 2.33 2.33 0 011.08-3 11.09 11.09 0 01-3.88.43 1.49 1.49 0 01-1.14-.55c-.45-.78.46-1.59 1.33-1.78z" fill="#263238"/><path d="M119.69 115.56a67.86 67.86 0 01-3.69-11.42 24.24 24.24 0 01.27-11.88c.18-.58 1.76-4.5 2.37-4.47.43 0-.48 3.63-.24 4a20.5 20.5 0 013 11.85 54 54 0 01-1.72 11.92" fill="#263238"/><path d="M134 155.13c-6.21.22-13.09-11.3-13.45-17.49l-2.15-37.31c-.9-10 4.18-18.86 14.2-19.48h.93a18 18 0 0118 16.45c.73 8.67 1.42 18.27 1.38 22.92-.08 9.64-9.72 11.17-9.72 11.17s.08 2.24.21 5.06c.29 6.35-.15 21-6.5 21.2z" fill="#ffbe9d"/><path d="M143.17 131.38a23.28 23.28 0 01-12.56-3.66s3.09 7 12.7 6.1z" fill="#eb996e"/><path d="M148.41 105.26a1.37 1.37 0 01-1.32 1.39 1.32 1.32 0 01-1.42-1.24A1.37 1.37 0 01147 104a1.31 1.31 0 011.41 1.26zM149.46 101.3c-.17.18-1.21-.59-2.69-.58s-2.57.75-2.73.57.1-.4.57-.75a3.81 3.81 0 012.18-.68 3.62 3.62 0 012.14.68c.46.35.62.68.53.76zM135 105.77a1.4 1.4 0 01-1.33 1.4 1.32 1.32 0 01-1.42-1.24 1.36 1.36 0 011.32-1.39 1.32 1.32 0 011.43 1.23zM135 102c-.17.18-1.22-.59-2.7-.58s-2.56.75-2.72.57.09-.4.56-.75a3.76 3.76 0 012.18-.68 3.65 3.65 0 012.15.68c.42.3.53.63.53.76zM140.31 113.31a9.15 9.15 0 012.4-.44c.38 0 .74-.12.8-.38a1.94 1.94 0 00-.25-1.12c-.36-.91-.74-1.87-1.13-2.88-1.57-4.09-2.71-7.46-2.54-7.52s1.57 3.21 3.14 7.3c.37 1 .74 2 1.08 2.9a2.21 2.21 0 01.2 1.48.94.94 0 01-.62.55 2.71 2.71 0 01-.64.1 10.23 10.23 0 01-2.44.01zM136 114.35c.24 0 .24 1.59 1.62 2.73s3.1 1 3.11 1.17-.38.32-1.11.34a4 4 0 01-2.59-.89 3.51 3.51 0 01-1.26-2.29c-.1-.67.08-1.07.23-1.06zM134.86 95.94c-.15.4-1.63.21-3.36.43s-3.15.69-3.38.33c-.1-.17.14-.55.71-.94a5.63 5.63 0 012.5-.88 5.55 5.55 0 012.63.3c.64.25.96.57.9.76zM148.83 96.38c-.26.33-1.28 0-2.5 0s-2.27.23-2.51-.12c-.1-.17.06-.51.51-.83a3.48 3.48 0 012-.56 3.54 3.54 0 012 .67c.47.33.67.67.5.84z" fill="#263238"/><path d="M119.23 107.46c-.16-.07-6.63-1.93-6.39 4.66s6.8 5 6.8 4.8-.41-9.46-.41-9.46z" fill="#ffbe9d"/><path d="M117.54 114.5s-.11.08-.3.18a1.2 1.2 0 01-.86 0 2.86 2.86 0 01-1.4-2.51 3.7 3.7 0 01.26-1.65 1.3 1.3 0 01.83-.91.59.59 0 01.69.29c.1.18.06.31.09.32s.14-.11.08-.38a.74.74 0 00-.28-.41.85.85 0 00-.64-.14 1.63 1.63 0 00-1.16 1.06 4 4 0 00-.33 1.85 3 3 0 001.77 2.79 1.27 1.27 0 001-.21c.24-.12.27-.27.25-.28z" fill="#eb996e"/><path d="M146.77 86.57c1-.64-2.32-3.95-5-5-4-1.62-10.13-2.46-13.73-1.26-4.34 1.44-7.9 3.79-9.93 7.88a26 26 0 00-2.32 13.36 7.84 7.84 0 001.11 4c1 1.42 2.79 2.25 2.8 4.27a2.75 2.75 0 00.77 2c1.26 1.22 2.68 0 3.31-1.28 1.33-2.65 1.36-5.73 1.35-8.69a19.26 19.26 0 00-.69-6.25c-.37-1.08-.93-2.1-1.24-3.2a3.94 3.94 0 01.32-3.31 3.84 3.84 0 01.51-.56 6.87 6.87 0 016.75-1.6c3.77 1.15 10.19 2.83 11.79 1.5a10.05 10.05 0 002.81-3.13z" fill="#263238"/><path d="M128.35 79.38a14.46 14.46 0 0111.15.12 7.56 7.56 0 014.17 4.19c.63 1.93-.09 4.37-1.94 5.21l-.12.09c-2.77 1.07-4.61.77-7.46-.07-2.39-.71-4.55-2.07-7-2.77a13.34 13.34 0 00-7.84.11 21.93 21.93 0 019.04-6.88z" fill="#263238"/><path d="M120.07 85.27a8.06 8.06 0 013.16-.82 9.35 9.35 0 013.49.6 26.93 26.93 0 013.95 1.95 31.16 31.16 0 004 2 9.85 9.85 0 003.62.71 6.59 6.59 0 002.45-.45 2.29 2.29 0 00.79-.46 8.7 8.7 0 01-3.23.55 10.15 10.15 0 01-3.46-.79 34 34 0 01-3.93-2 23.54 23.54 0 00-4-1.93 9.38 9.38 0 00-3.66-.52 6.11 6.11 0 00-2.4.65 2.08 2.08 0 00-.78.51z" fill="#455a64"/><path d="M122.75 83a8.88 8.88 0 012.94-.57 9.66 9.66 0 013.17.6 18.54 18.54 0 013.56 1.83c1.21.76 2.35 1.54 3.45 2.16a15.24 15.24 0 003 1.38 8.55 8.55 0 002.23.4 2.27 2.27 0 00.83-.06 18.59 18.59 0 01-2.94-.68 17.12 17.12 0 01-2.94-1.44c-1.06-.64-2.18-1.42-3.41-2.19a17.5 17.5 0 00-3.64-1.85 9.38 9.38 0 00-3.34-.52 6.37 6.37 0 00-2.22.49 2 2 0 00-.69.45z" fill="#455a64"/><path d="M138.07 80.23s.34.47.94 1.13a12.93 12.93 0 012.05 2.79 6.46 6.46 0 01.75 3.29c-.05.88-.28 1.4-.21 1.43s.41-.45.57-1.39a5.89 5.89 0 00-.66-3.56 10.23 10.23 0 00-2.24-2.81c-.68-.61-1.15-.93-1.2-.88z" fill="#455a64"/><path d="M142.79 83.18a12.3 12.3 0 01.08 3 11.78 11.78 0 01-1.14 2.82s.35-.15.72-.62a5.06 5.06 0 00.92-2.11 4.83 4.83 0 00-.13-2.3c-.18-.52-.4-.82-.45-.79z" fill="#455a64"/><path d="M115.59 101.79a5.65 5.65 0 00.08 2.82 4.38 4.38 0 001.22 2.55c.12-.08-.42-1.18-.72-2.66a13 13 0 00-.58-2.71z" fill="#ff725e"/><path d="M108.83 406.28l1 21.65s-21.68 8.23-21.9 12.24l42-.33-.09-33.78z" fill="#455a64"/><path d="M122.76 426a1.72 1.72 0 011.24 2 1.64 1.64 0 01-1.92 1.21 1.81 1.81 0 01-1.26-2.07 1.71 1.71 0 012.14-1" fill="#e0e0e0"/><path d="M129.91 439.84l-.14-3.4L89.53 438s-1.87.83-1.65 2.14z" fill="#fff"/><path d="M109.1 427.72c0 .2 1 .29 2.05.94s1.56 1.51 1.74 1.43-.12-1.27-1.37-2-2.47-.56-2.42-.37zM104.7 429.57c0 .2.85.55 1.55 1.41s.91 1.78 1.12 1.77.32-1.18-.57-2.23-2.09-1.14-2.1-.95zM102.24 434.87c.19 0 .46-1-.07-2.11s-1.5-1.55-1.59-1.38.52.76.94 1.69.48 1.78.72 1.8zM109.43 422.76c.09.19 1-.1 2.19 0s2.06.43 2.17.25-.77-.9-2.14-1-2.32.59-2.22.75z" fill="#263238"/><path d="M172.31 406.28l-.94 21.65s21.68 8.23 21.89 12.24l-42-.33.1-33.78z" fill="#455a64"/><path d="M158.39 426a1.72 1.72 0 00-1.21 1.95 1.66 1.66 0 001.93 1.21 1.81 1.81 0 001.26-2.07 1.71 1.71 0 00-2.14-1" fill="#e0e0e0"/><path d="M151.23 439.84l.15-3.4 40.24 1.56s1.86.83 1.64 2.14z" fill="#fff"/><path d="M172.05 427.72c0 .2-1 .29-2.05.94s-1.56 1.51-1.75 1.43.13-1.27 1.37-2 2.48-.56 2.43-.37zM176.45 429.57c0 .2-.85.55-1.55 1.41s-.92 1.78-1.12 1.77-.33-1.18.57-2.23 2.09-1.14 2.1-.95zM178.91 434.87c-.19 0-.47-1 .07-2.11s1.5-1.55 1.58-1.38-.51.76-.94 1.69-.51 1.78-.71 1.8zM171.72 422.76c-.09.19-1-.1-2.19 0s-2.07.43-2.17.25.77-.9 2.14-1 2.32.59 2.22.75z" fill="#263238"/><path d="M99.86 243.15c0 1.32 8.51 179.42 8.51 179.42l22.1.21 7.18-151.47s9.24 79.59 9.24 81.35 2.62 71 2.62 71h23.32v-165.1l-15-24.18z" fill="#263238"/><path d="M160.93 423.64a1.71 1.71 0 010-.4v-1.18-4.54c-.06-3.95-.18-9.66-.38-16.71-.43-14.11-1.23-33.58-2.22-55.09s-2-41-2.68-55.09c-.34-7-.62-12.72-.81-16.69-.08-1.95-.14-3.48-.19-4.54v-1.18a2.12 2.12 0 010-.41 1.87 1.87 0 01.05.4c0 .29 0 .68.09 1.18.06 1.07.16 2.59.28 4.54.23 4 .56 9.66 1 16.68.79 14.09 1.82 33.56 2.83 55.08s1.74 41 2.07 55.11c.16 7.06.22 12.77.22 16.71V423.24a2 2 0 01-.26.4zM120.21 267.83c.14 0 .13 34.66 0 77.42s-.4 77.43-.54 77.43-.13-34.66 0-77.43.4-77.43.54-77.42zM139.42 262.8a4.5 4.5 0 01-1 .47c-.69.26-1.7.63-2.94 1.07l-.23.08v-.25c-.14-2.19-.31-5.12-.46-8.33-.17-3.48-.29-6.63-.35-8.91v-2.7a3.61 3.61 0 010-1 4.59 4.59 0 01.15 1c.06.63.13 1.55.21 2.69.15 2.28.33 5.43.49 8.91.16 3.21.27 6.14.33 8.33l-.25-.17c1.26-.4 2.28-.71 3-.92a4.51 4.51 0 011.05-.27zM137.45 243.87s.08-.14.34-.24a1.56 1.56 0 011.15.11 1.5 1.5 0 01.87 1.5 1.81 1.81 0 01-1.38 1.61 1.87 1.87 0 01-1.92-.92 1.76 1.76 0 01.88-2.48c.26-.1.41-.08.42 0s-.59.21-.95 1a1.33 1.33 0 00.06 1.32 1.43 1.43 0 001.41.65 1.36 1.36 0 001-1.15 1.15 1.15 0 00-.57-1.13 2 2 0 00-1.31-.27zM149.37 245.74c-.14 0-.33-.78-.43-1.76s-.07-1.8.07-1.82.33.78.44 1.76.07 1.8-.08 1.82zM151.18 245.56c-.15 0-.26-.84-.27-1.88s.11-1.88.25-1.88.26.84.26 1.88-.1 1.88-.24 1.88zM119.86 246.81a9.15 9.15 0 01-.47-4.28 9.15 9.15 0 01.47 4.28zM122 247a3.48 3.48 0 01-.63-2.22 3.41 3.41 0 01.45-2.26 10.84 10.84 0 01.06 2.24A10.36 10.36 0 01122 247z" fill="#455a64"/><path d="M89.51 447.07l7.31 6.69a15 15 0 0010.18 3.95h66.82a15 15 0 0010.15-3.95l7.31-6.69z" fill="#ff725e"/><path fill="#ff725e" d="M87.5 439.39h106.72v7.91H87.5z"/><rect x="70.03" y="415.53" width="15.7" height="57.6" rx="6.97" fill="#263238"/><path d="M78.49 472.36c-.14 0-.49-12.35-.77-27.6s-.39-27.6-.24-27.6.48 12.35.76 27.59.39 27.61.25 27.61zM78 468.06a41.16 41.16 0 01-4-5 38.47 38.47 0 01-3.62-5.34 41.16 41.16 0 014 5 39.59 39.59 0 013.62 5.34z" fill="#455a64"/><path d="M78.43 461.38a47.46 47.46 0 01-4.17-5.48 44.25 44.25 0 01-3.75-5.77 47.46 47.46 0 014.17 5.48 45 45 0 013.75 5.77zM77.48 452.84a46.33 46.33 0 01-3.94-5.84 47.94 47.94 0 01-3.54-6.1 47.33 47.33 0 014 5.83 48.83 48.83 0 013.48 6.11zM77.48 445.88a8.18 8.18 0 01-1.21-1.77c-.69-1.13-1.61-2.71-2.6-4.46s-1.86-3.36-2.46-4.53a8 8 0 01-.88-1.94 10.16 10.16 0 011.21 1.82c.69 1.13 1.61 2.7 2.59 4.45s1.85 3.34 2.46 4.51a9.55 9.55 0 01.89 1.92zM77.33 438.23a28.39 28.39 0 01-3.91-5.85c-1-1.7-1.75-3.26-2.3-4.4a7.78 7.78 0 01-.79-1.91 61.81 61.81 0 013.54 6.06c.95 1.68 1.82 3.2 2.47 4.29a9.82 9.82 0 01.99 1.81zM76.42 430.29a32.27 32.27 0 01-2.72-4.92 30.84 30.84 0 01-2.27-5.15 30.28 30.28 0 012.73 4.92 29.88 29.88 0 012.26 5.15zM85.06 456.77a40.59 40.59 0 01-2.83 5.77 39.75 39.75 0 01-3.29 5.52 41.37 41.37 0 012.84-5.77 39.91 39.91 0 013.28-5.52zM84.88 448.48a25.43 25.43 0 01-2.57 6.16c-.85 1.63-1.66 3.08-2.28 4.12a7 7 0 01-1.09 1.63 50.52 50.52 0 012.91-6c.85-1.63 1.59-3.11 2.12-4.19a8.54 8.54 0 01.91-1.72zM85.06 437.44a56 56 0 01-2.8 7 55.86 55.86 0 01-3.26 6.77 55.27 55.27 0 012.81-7 54.14 54.14 0 013.25-6.77zM84.22 431.2a36.09 36.09 0 01-2 5.63 34.82 34.82 0 01-2.48 5.44 33.75 33.75 0 012-5.63 34.82 34.82 0 012.48-5.44zM83.51 423.8a20.14 20.14 0 01-1.71 5.68 20.11 20.11 0 01-2.86 5.21c-.13-.08 1.13-2.41 2.38-5.41s2.04-5.52 2.19-5.48z" fill="#455a64"/><path d="M72 415l15.5 27.5v-22.87a4.28 4.28 0 00-4.11-4.33z" fill="#ff725e"/><path fill="#ff725e" d="M84.88 428.42h2.62v21.41h-2.62z"/><rect x="197.11" y="415.51" width="15.7" height="57.59" rx="6.97" transform="rotate(180 204.965 444.31)" fill="#263238"/><path d="M204.36 472.34c-.15 0 0-12.36.25-27.6s.62-27.61.76-27.6 0 12.36-.25 27.61-.62 27.6-.76 27.59zM204.86 468a80.75 80.75 0 017.66-10.38 40.76 40.76 0 01-3.62 5.38 40.63 40.63 0 01-4.04 5z" fill="#455a64"/><path d="M204.41 461.36a46.39 46.39 0 013.75-5.77 45.57 45.57 0 014.18-5.48 46.88 46.88 0 01-3.76 5.78 45.28 45.28 0 01-4.17 5.47zM205.37 452.82a49.46 49.46 0 013.5-6.11 47.63 47.63 0 013.94-5.83 95 95 0 01-7.44 11.94zM205.37 445.86a9 9 0 01.89-1.94c.6-1.17 1.47-2.77 2.45-4.52s1.91-3.32 2.59-4.45a8.57 8.57 0 011.22-1.78 9.54 9.54 0 01-.88 1.93c-.61 1.17-1.48 2.77-2.47 4.53s-1.91 3.33-2.6 4.46a8.41 8.41 0 01-1.2 1.77zM205.52 438.21a10.21 10.21 0 011-1.81c.64-1.09 1.51-2.61 2.46-4.29a60.61 60.61 0 013.55-6.06 8.32 8.32 0 01-.79 1.91 90.91 90.91 0 01-2.31 4.4 29.09 29.09 0 01-3.91 5.85zM206.42 430.27a30.84 30.84 0 012.27-5.15 31.29 31.29 0 012.72-4.92 30.26 30.26 0 01-2.26 5.15 30.83 30.83 0 01-2.73 4.92zM197.78 456.75A78.88 78.88 0 01203.9 468a38.46 38.46 0 01-3.28-5.52 41.37 41.37 0 01-2.84-5.73zM198 448.46a8.83 8.83 0 01.92 1.73c.52 1.08 1.27 2.56 2.11 4.19a48.69 48.69 0 012.91 6 7.51 7.51 0 01-1.09-1.63c-.61-1-1.43-2.49-2.28-4.12a25.93 25.93 0 01-2.57-6.17zM197.78 437.42a55 55 0 013.28 6.78 54.24 54.24 0 012.8 7 55.85 55.85 0 01-3.27-6.78 55.27 55.27 0 01-2.81-7zM198.62 431.18a33.25 33.25 0 012.48 5.44 35.58 35.58 0 012 5.63 34.82 34.82 0 01-2.48-5.44 35.19 35.19 0 01-2-5.63zM199.34 423.78c.14 0 .92 2.49 2.18 5.48s2.51 5.33 2.38 5.41a28.57 28.57 0 01-4.56-10.89z" fill="#455a64"/><path d="M209.74 414.39l-15.52 27V419a4.24 4.24 0 014.11-4.24z" fill="#ff725e"/><path fill="#ff725e" d="M194.22 427.28h2.9v20.02h-2.9z"/><path d="M197.14 447.36c0 .14-25.24.26-56.36.26s-56.37-.12-56.37-.26 25.23-.26 56.37-.26 56.36.12 56.36.26z" fill="#263238"/><path d="M94.62 283.81s-.68-10.89-9.61-9.76-9.17 9.16-9.17 9.16l-3.84-.68s1.42-11.38 14-11.06 12.33 13.11 12.33 13.11z" fill="#455a64"/><path d="M94.62 283.81s-.68-10.89-9.61-9.76-9.17 9.16-9.17 9.16l-3.84-.68s1.42-11.38 14-11.06 12.33 13.11 12.33 13.11z" opacity=".3"/><path fill="#455a64" d="M52.66 280.65l-1.96 51.42 68.01 1.25 1.16-50.81-67.21-1.86z"/><path d="M119.87 282.51s0 .08-.12.21l-.41.57c-.4.54-.94 1.26-1.61 2.18-1.42 1.88-3.44 4.62-6.08 7.91a68.82 68.82 0 01-10.26 10.67 35.74 35.74 0 01-7.39 4.64 24.61 24.61 0 01-9.19 2.31 22 22 0 01-9.25-1.73 29.19 29.19 0 01-7.48-4.59 42.61 42.61 0 01-9.31-11.49 99.37 99.37 0 01-4.5-8.91l-1.09-2.48-.27-.65c-.06-.15-.08-.23-.07-.23a1.72 1.72 0 01.12.21l.32.63 1.18 2.44c1 2.11 2.49 5.19 4.63 8.8a43.07 43.07 0 009.3 11.3 29 29 0 007.37 4.49 21.65 21.65 0 009 1.68 23.88 23.88 0 008.94-2.22 35.34 35.34 0 007.36-4.54 70.42 70.42 0 0010.26-10.53c2.68-3.25 4.75-5.95 6.21-7.8l1.69-2.11.46-.55a1.45 1.45 0 01.19-.21zM109.4 333.15c-.15 0 1.92-11.1 4.61-24.73s5-24.66 5.13-24.63-1.92 11.1-4.61 24.73-4.99 24.66-5.13 24.63z" fill="#263238"/><path d="M119.58 282.9a2.52 2.52 0 010 .51v1.48c-.05 1.28-.17 3.12-.33 5.41-.33 4.56-.91 10.86-1.62 17.8s-1.31 13.16-1.77 17.79c-.21 2.22-.38 4-.5 5.39l-.15 1.47a1.85 1.85 0 01-.09.51 1.61 1.61 0 010-.52v-1.47c0-1.28.17-3.13.33-5.41.33-4.57.91-10.86 1.62-17.81s1.31-13.16 1.77-17.78c.21-2.22.38-4 .5-5.4.07-.58.12-1.07.16-1.46a1.74 1.74 0 01.08-.51zM81.924 309.113l2.03-.035.065 3.78-2.03.034zM119.87 282.51a3.22 3.22 0 01-.68 0h-2l-7.19-.1-23.69-.55-23.69-.71-7.18-.28-2-.1a3.1 3.1 0 01-.67-.07 3.22 3.22 0 01.68 0h2l7.18.11 23.7.55 23.69.71 7.18.28 2 .1a3.1 3.1 0 01.67.06z" fill="#263238"/><path d="M82.6 253.93s-4.46 12.35-4.6 14.31-2.12 5.09.13 5.82c0 0-.38 1.52 2 2.07 0 0 0 2.59 3.14 2.31 0 0 2.15 2.11 3.92 1 0 0 2.74 1.36 3.86-.64a42.28 42.28 0 002.26-5.16l1.78 1.4a7.68 7.68 0 00.53-4.56c-.52-2.4-3.56-5.44-2.88-8.44a13.63 13.63 0 01.91-3.15z" fill="#ffbe9d"/><path d="M106.09 299.43a38 38 0 01-11.61 15.11c-3.59 2.9-8.06 5.21-12.65 4.73-4-.42-7.52-2.9-10.44-5.69A46.29 46.29 0 0158.87 293s11 18.16 24.09 17.91c11.8-.28 23.13-11.48 23.13-11.48z" opacity=".3"/><path d="M152.34 138s17.91 3.7 20.12 6.41c1.77 2.16 11.17 24.07 11.17 24.07l7.58 13.44a10.27 10.27 0 013.36 5 61.32 61.32 0 011.36 13.41s-1.35 8.84-6.88 9.21a19.71 19.71 0 01-14.24-5.28c-3.23-2.89-11.13-22.48-10.85-23.48z" fill="#ff725e"/><path d="M119.53 134l.78-.9 8.16 9.24 6.55 7.17 8.21-17.36 2.38 1.75s8.84 66.91 8.69 67.69 3.42 37.3 3.42 37.3-18.81 3.74-24.26 2-17.57 1-17.49.44-5.2-22.92-5.2-22.92l1.55-61.32z" fill="#fafafa"/><path d="M154.53 230.71a8 8 0 01-1.36-.31c-.86-.23-2.1-.6-3.62-1.12a83.83 83.83 0 01-11.5-4.89 85.19 85.19 0 01-10.65-6.54c-1.3-.94-2.33-1.73-3-2.3a7.1 7.1 0 01-1-.93 8.71 8.71 0 011.16.77c.72.52 1.78 1.27 3.09 2.17a106.1 106.1 0 0010.69 6.37 101.69 101.69 0 0011.39 5c1.49.55 2.71 1 3.55 1.27a7.53 7.53 0 011.25.51z" fill="#263238"/><path d="M135 149.51a3.69 3.69 0 010 .76v2.17c0 1.95 0 4.67-.06 8 0 6.76-.05 16.1.08 26.41s.38 19.66.58 26.41c.1 3.34.18 6.06.24 8v2.17a3.4 3.4 0 010 .76 4.52 4.52 0 01-.08-.75c0-.55-.09-1.27-.14-2.18-.12-1.88-.25-4.62-.4-8-.29-6.76-.6-16.1-.74-26.42s-.06-19.66.08-26.42c.07-3.38.14-6.12.22-8 0-.91.07-1.63.09-2.18a4.07 4.07 0 01.13-.73zM139.17 238.51a49 49 0 01-.47-7 48.59 48.59 0 010-7 49 49 0 01.47 7 48.59 48.59 0 010 7z" fill="#263238"/><path d="M119.05 134.83l-6.05 6.62s-7.63 1.86-16.25 4.73a12.4 12.4 0 00-7.19 8.09c-.65 2.19 10.34 55.25 10.34 55.25L98 224.8l-5.86 44.07s10.16 3.62 16.68 3.88c3.67.15 4.28-14.22 5.83-24.18 1.49-9.62 5.35-40.42 5.35-49s-1.79-49.93-1.79-50.82.84-13.92.84-13.92z" fill="#ff725e"/><path d="M118.82 212.39a4.8 4.8 0 01-.24-.79c-.15-.57-.34-1.32-.59-2.27-.5-2-1.21-4.89-2.07-8.39-1.71-7.14-4-16.92-6.64-27.72-.72-3.07-1.43-6.05-2.1-8.91V164.16l5-12.36.19.29h-5.24l.17-.28c2-3.41 3.65-6.18 4.82-8.15l1.33-2.2a5 5 0 01.5-.75 7.41 7.41 0 01-.41.81l-1.25 2.25c-1.12 2-2.71 4.79-4.66 8.23l-.17-.28h5.23l-.12.3c-1.45 3.7-3.1 7.88-4.87 12.39v-.15c.68 2.85 1.38 5.83 2.11 8.9l6.49 27.75c.8 3.52 1.45 6.39 1.91 8.43.21 1 .38 1.73.5 2.3a5.55 5.55 0 01.11.75z" fill="#263238"/><path d="M145.57 133.63l3.88 3.53 22.25 6.3.3 35.54-3.32 35.63 6.81 53.19c-7.72 4.25-19.24 3.34-19.24 3.34l-5.29-31.08c-.83-5.8-3.72-44.89-3.72-44.89z" fill="#ff725e"/><path d="M153.57 205.82a4.15 4.15 0 01.08-.79c.09-.55.2-1.3.34-2.23l1.27-8.19c1-6.92 2.39-16.5 3.58-27.11.59-5.31 1.09-10.37 1.51-15 .2-2.3.38-4.49.56-6.55.08-1 .24-2.06-.32-2.72a2.5 2.5 0 00-2.39-.47 10.3 10.3 0 01-2.51.29 4.66 4.66 0 01-2.15-.73 9.46 9.46 0 01-2.52-2.57c-.56-.81-1-1.46-1.2-1.91a3.79 3.79 0 01-.37-.7 5.58 5.58 0 01.45.65c.29.42.7 1.06 1.28 1.84a9.45 9.45 0 002.51 2.44 4.39 4.39 0 002 .65 9.85 9.85 0 002.43-.32 5.28 5.28 0 011.39-.09 2 2 0 011.36.66 2.3 2.3 0 01.51 1.48 13.22 13.22 0 01-.06 1.54c-.17 2.05-.34 4.25-.52 6.55-.39 4.62-.88 9.69-1.47 15-1.19 10.62-2.6 20.2-3.73 27.11-.58 3.45-1.07 6.24-1.43 8.17-.18.92-.33 1.66-.44 2.21a4.17 4.17 0 01-.16.79zM168.63 168.35a12.64 12.64 0 01-3.66.32 13.06 13.06 0 01-3.67-.2 13.48 13.48 0 013.67-.31 13.16 13.16 0 013.66.19z" fill="#263238"/><path d="M172.6 187a10.36 10.36 0 016.09-3.9c.59-.12 1.37-.1 1.6.45a1.26 1.26 0 01-.41 1.27l-.75.91a13.6 13.6 0 00-4.16 8.38 7.39 7.39 0 012.71-8.16c-2.38.48-4.19 2.35-5.84 4.13a3.28 3.28 0 01.76-3.08z" opacity=".3"/><path d="M170.92 190.92s.28-.44.79-1.09a11.48 11.48 0 012.3-2.26 11.85 11.85 0 012.84-1.53c.78-.28 1.28-.39 1.28-.43s-.14 0-.37 0a8.8 8.8 0 00-1 .24 10.32 10.32 0 00-5.22 3.84 8.58 8.58 0 00-.52.85c-.02.25-.12.37-.1.38zM175.27 196.21v-1.82a14.34 14.34 0 01.25-1.94 16.88 16.88 0 01.68-2.31 16 16 0 011.08-2.15 14.94 14.94 0 011.14-1.6c.71-.86 1.24-1.31 1.22-1.35a2.2 2.2 0 00-.39.31c-.12.1-.27.23-.43.39s-.34.33-.52.55a12.85 12.85 0 00-1.2 1.59 14.78 14.78 0 00-1.1 2.18 13.88 13.88 0 00-.68 2.35 12.86 12.86 0 00-.21 2 6.24 6.24 0 000 .76 4.52 4.52 0 000 .58 2 2 0 00.16.46zM171.68 157.88a1.8 1.8 0 010 .55v1.59c-.06 1.46-.14 3.44-.24 5.85l-1 19.28c-.39 7.5-.86 14.27-1.16 19.27-.17 2.4-.3 4.38-.41 5.83 0 .64-.1 1.17-.13 1.59a2.08 2.08 0 01-.09.55 3.64 3.64 0 010-.56v-1.59c.06-1.46.15-3.44.25-5.85l1-19.28c.39-7.5.85-14.26 1.15-19.26.17-2.41.31-4.38.41-5.84.06-.64.1-1.16.14-1.58a2.47 2.47 0 01.08-.55z" fill="#263238"/><path d="M95.38 147.51s-5.06 1.87-6.44 9.58-10 102.06-10 102.06l14.58.84 7.17-51.35z" fill="#ff725e"/><path d="M100.69 209.72c.15 0-1.45 12-3.57 26.79s-4 26.73-4.09 26.7 1.46-12 3.57-26.78 3.95-26.73 4.09-26.71z" fill="#263238"/><path d="M96.73 164.77c.15 0 1.15 10 2.24 22.45s1.87 22.49 1.72 22.51-1.14-10-2.24-22.46-1.86-22.49-1.72-22.5zM135 150a7.32 7.32 0 01-1.08-.88l-2.81-2.54.31-.08c-.9 2.57-2.15 6-3.54 9.77l-.16.44-.29-.36-.2-.26a49.4 49.4 0 01-6-9.51c-.63-1.3-1.08-2.38-1.36-3.13a5.68 5.68 0 01-.38-1.2 6.86 6.86 0 01.57 1.12c.34.73.83 1.77 1.5 3a56.91 56.91 0 006.1 9.36l.2.25-.45.07c1.4-3.77 2.69-7.18 3.67-9.72l.11-.27.2.2 2.69 2.66A6.29 6.29 0 01135 150zM145.73 139.81a4.81 4.81 0 010 1.18c-.08.86-.18 1.93-.3 3.19-.28 2.7-.71 6.42-1.2 10.53v.32l-.09.67-.39-.56c-2.34-3.36-4.42-6.41-5.89-8.6h.28l-2.19 2.19a5.43 5.43 0 01-.85.76 4.51 4.51 0 01.71-.89l2.07-2.31.15-.16.13.18c1.55 2.14 3.68 5.15 6 8.52l-.47.11v-.31c.5-4.11 1-7.82 1.35-10.51.19-1.26.34-2.32.47-3.18a5.25 5.25 0 01.22-1.13zM90.76 252s.19-.06.52 0a1.93 1.93 0 011.12.88 2.69 2.69 0 01.34.94 2 2 0 01-.18 1.18 2.46 2.46 0 01-2.21 1.39 2.23 2.23 0 01-1.86-1.81 2.17 2.17 0 01.6-2 2.1 2.1 0 011.26-.64c.34 0 .52 0 .51.07a2.67 2.67 0 00-1.5.82 1.88 1.88 0 00-.41 1.68 1.81 1.81 0 001.45 1.39 2 2 0 001.73-1.09 1.88 1.88 0 000-1.72c-.56-.99-1.41-1.01-1.37-1.09z" fill="#263238"/><path d="M170.63 233.41s-13.35 1-12.77.79l3.84 7.24 12.44-.88z" fill="#ff725e"/><path d="M170.63 233.41a2.7 2.7 0 01.28.46l.74 1.39c.68 1.32 1.59 3.08 2.68 5.21l.13.27h-.3l-12.44.94h-.17l-.08-.15-.14-.26c-1.3-2.48-2.55-4.83-3.69-7l.29.12s.1 0 .07-.26-.16-.13-.14-.14h1.26l1.33-.07 2.46-.13 4.06-.22 2.64-.12a6.36 6.36 0 01.95 0 4.12 4.12 0 01-.94.15l-2.63.25-4.05.33-2.47.18-1.33.09h-1.45s0 .05-.15-.16.1-.26.07-.26h.07l.19-.06.1.18 3.72 7 .14.27-.25-.14 12.45-.83-.17.3-2.45-5.21-.67-1.47a2.79 2.79 0 01-.11-.66z" fill="#263238"/><path fill="#ff725e" d="M109.39 235.12l-12.1-1.71-2.56 8.03 12.36 1.79 2.3-8.11z"/><path d="M109.39 235.12a2.27 2.27 0 01-.11.54l-.4 1.62c-.36 1.41-.89 3.48-1.59 6v.17h-.19l-12.23-1.72h-.44l.09-.3c.92-2.86 1.8-5.57 2.59-8l.06-.19h.19c3.63.53 6.68 1 8.8 1.36l2.45.41a4.32 4.32 0 01.82.17s-.35 0-1-.08l-2.52-.29c-2.14-.26-5.14-.62-8.66-1.1l.26-.16c-.78 2.44-1.64 5.16-2.54 8l-.21-.34h.14l12.22 1.79-.23.15c.71-2.41 1.33-4.4 1.77-5.81.2-.65.37-1.19.52-1.64a3.86 3.86 0 01.21-.58z" fill="#263238"/><path d="M193.59 154a1.87 1.87 0 01.93 1.16 1.73 1.73 0 01-.13 1.14l-5.51 12.27-3.59 7.22-10.6-2.56 6.85-17.1s.56-2.36 2.72-2.36h8.42a1.81 1.81 0 01.91.23z" fill="#455a64"/><path d="M191.19 157.09h1.38a.57.57 0 00.49-.3.55.55 0 00-.49-.81h-1.38a.55.55 0 00-.5.32.56.56 0 00.5.79z" fill="#fff"/><path d="M193 188.2c.38-.8-1-2-1-2s-1.68-8.11-1-9.49.34-3.08.46-5.94 1.16-3.88 1.16-3.88.09-1.83.32-3.31a3.67 3.67 0 00-.68-2.63l-3.36 7.66-.55-.69a22.55 22.55 0 00-5.46-5.7c-1.08-.58-1.9.5-2.21 1.34s.93 2.3 1.7 2.83 2 3.93 2.45 5.17 0 1.51-.78 2-3.75-2-5.19-2.59a14.14 14.14 0 01-3.45-2.71 1.86 1.86 0 00-1.93-.2c-1.13.51-.62 2.71-.62 2.71-1.79 1.36-.86 4-.86 4s-1.79.14-1.91.74.49 3.82 1.49 4.6 5.28 3.78 5.28 3.78a9.51 9.51 0 003.86 3.36l.84 4.21a10 10 0 005.62 0 14 14 0 005.82-3.26z" fill="#ffbe9d"/><path d="M172.87 170.52v.11a1.21 1.21 0 000 .31 2.54 2.54 0 00.44 1.06 5.37 5.37 0 001.19 1.2c.51.38 1.09.75 1.72 1.13a25.31 25.31 0 003.34 1.65c.44.17.81.3 1.06.38l.4.11s-.54-.24-1.4-.63a31.16 31.16 0 01-3.3-1.7 9.64 9.64 0 01-2.89-2.23 2.83 2.83 0 01-.56-1.39zM172.07 174.78a4.44 4.44 0 00.74.91 12.59 12.59 0 002.19 1.81 12.12 12.12 0 002.55 1.26 4.48 4.48 0 001.14.31s-.42-.17-1.08-.45a14.76 14.76 0 01-2.49-1.3 15.36 15.36 0 01-2.2-1.73c-.53-.5-.83-.83-.85-.81zM189.38 174.82a1.38 1.38 0 00.5-.83 5.85 5.85 0 00-.06-2.34 18 18 0 00-.5-2.28 3.75 3.75 0 00-.33-.91 5.5 5.5 0 00.19.95c.13.58.3 1.38.44 2.27a6.8 6.8 0 01.11 2.28 3.34 3.34 0 01-.35.86zM185.14 178.4h.34a1.17 1.17 0 00.64-.52 1.2 1.2 0 00.14-.81c0-.21-.13-.32-.16-.3a1.86 1.86 0 01-.16 1c-.3.49-.82.57-.8.63zM181.59 181.6s.16.08.43 0a1.56 1.56 0 00.92-.48 1.53 1.53 0 00.41-.95c0-.27 0-.43-.07-.42s0 .16-.07.4a1.86 1.86 0 01-.42.83 1.91 1.91 0 01-.8.48 2 2 0 00-.4.14zM178.51 183.5s.13.06.34 0a1.38 1.38 0 00.68-.48 1.31 1.31 0 00.27-.79c0-.22-.07-.34-.09-.33a2.33 2.33 0 01-.35 1 2.26 2.26 0 01-.85.6zM180.74 187.44a2.28 2.28 0 00.73.32 14.24 14.24 0 001.87.48 14.87 14.87 0 001.91.21 2.6 2.6 0 00.8 0c0-.06-1.21-.11-2.67-.38s-2.62-.69-2.64-.63z" fill="#eb996e"/><path d="M177.44 170.21l.11-.25.28-.74 1-2.74c.85-2.34 2-5.54 3.26-9.06a4.15 4.15 0 011.47-2.18 4.56 4.56 0 012.43-.43l4.33.05H194a.9.9 0 00.28 0h-1.07l-2.92-.08-4.33-.09a8.94 8.94 0 00-1.26 0 3 3 0 00-1.27.42 4.27 4.27 0 00-1.57 2.27c-1.26 3.55-2.39 6.76-3.2 9.09l-.94 2.76c-.11.31-.19.56-.25.75a.85.85 0 00-.03.23z" fill="#263238"/></g><g><path d="M450.46 472.43c0 .14-92 .26-205.45.26s-205.47-.12-205.47-.26 92-.27 205.47-.27 205.45.12 205.45.27z" fill="#263238"/></g></svg>