<svg width="151" height="150" viewBox="0 0 151 150" fill="none" xmlns="http://www.w3.org/2000/svg">
<ellipse cx="75.2081" cy="141.346" rx="7.23157" ry="7.21154" fill="#FF1E1E"/>
<mask id="path-2-inside-1" fill="white">
<path d="M104.67 140.462C105.406 142.099 107.333 142.837 108.939 142.034C123.325 134.835 135.045 123.206 142.331 108.83C150.107 93.4869 152.361 75.9459 148.717 59.1436C145.072 42.3412 135.75 27.2974 122.311 16.5308C108.872 5.76428 92.1314 -0.0714543 74.8928 0.000659893C57.6543 0.072774 40.9638 6.04836 27.6157 16.927C14.2677 27.8056 5.07234 42.9269 1.56924 59.7591C-1.93387 76.5914 0.467898 94.1129 8.37244 109.39C15.7792 123.705 27.5963 135.236 42.0429 142.314C43.6552 143.104 45.5759 142.349 46.2989 140.706C47.0241 139.058 46.2695 137.141 44.6559 136.342C31.5834 129.867 20.891 119.391 14.1723 106.406C6.95366 92.4543 4.76031 76.4533 7.95943 61.0817C11.1585 45.7101 19.5559 31.901 31.7457 21.9664C43.9354 12.0318 59.1776 6.57475 74.9202 6.5089C90.6629 6.44304 105.95 11.7724 118.223 21.6046C130.496 31.4369 139.009 45.1752 142.338 60.5195C145.666 75.8638 143.607 91.8826 136.506 105.894C129.897 118.935 119.293 129.5 106.276 136.084C104.669 136.897 103.931 138.82 104.67 140.462Z"/>
</mask>
<path d="M104.67 140.462C105.406 142.099 107.333 142.837 108.939 142.034C123.325 134.835 135.045 123.206 142.331 108.83C150.107 93.4869 152.361 75.9459 148.717 59.1436C145.072 42.3412 135.75 27.2974 122.311 16.5308C108.872 5.76428 92.1314 -0.0714543 74.8928 0.000659893C57.6543 0.072774 40.9638 6.04836 27.6157 16.927C14.2677 27.8056 5.07234 42.9269 1.56924 59.7591C-1.93387 76.5914 0.467898 94.1129 8.37244 109.39C15.7792 123.705 27.5963 135.236 42.0429 142.314C43.6552 143.104 45.5759 142.349 46.2989 140.706C47.0241 139.058 46.2695 137.141 44.6559 136.342C31.5834 129.867 20.891 119.391 14.1723 106.406C6.95366 92.4543 4.76031 76.4533 7.95943 61.0817C11.1585 45.7101 19.5559 31.901 31.7457 21.9664C43.9354 12.0318 59.1776 6.57475 74.9202 6.5089C90.6629 6.44304 105.95 11.7724 118.223 21.6046C130.496 31.4369 139.009 45.1752 142.338 60.5195C145.666 75.8638 143.607 91.8826 136.506 105.894C129.897 118.935 119.293 129.5 106.276 136.084C104.669 136.897 103.931 138.82 104.67 140.462Z" fill="#111111" stroke="#111111" stroke-width="6" stroke-linecap="round" mask="url(#path-2-inside-1)"/>
</svg>
