<svg width="296" height="237" viewBox="0 0 296 237" fill="none" xmlns="http://www.w3.org/2000/svg">
<path d="M1 3.08134C35.0939 1.17439 45.8316 -1.92245 80.5359 7.2409C106.128 13.9982 139.474 29.5525 161.71 44.4249C172.854 51.8778 186.316 63.0769 190.953 76.8191C193.798 85.2474 190.774 98.3431 188.054 106.503C185.848 113.122 182.024 122.185 175.45 125.725C169.785 128.776 157.713 131.003 153.833 124.213C145.057 108.856 178.325 95.4171 185.723 93.2052C207.861 86.5859 224.526 86.2359 247.234 91.3145C262.937 94.8267 291.543 105.01 295.195 124.843C296.527 132.078 290.525 141.542 285.615 145.767C266.221 162.456 236.171 171.395 212.886 179.863C173.582 194.155 226.249 225.868 185.723 236" stroke="#ACA9A9" stroke-linecap="round" stroke-linejoin="round" stroke-dasharray="5 5"/>
</svg>
