<svg width="435" height="459" viewBox="0 0 435 459" fill="none" xmlns="http://www.w3.org/2000/svg">
<path d="M198.552 53.1792C265.922 85.5869 198.099 52.8511 260.788 83.4157C274.631 90.1652 292.964 102.484 309.491 102.937C319.611 103.214 322.699 91.7765 317.679 84.6678C308.701 71.9565 285.13 58.1325 270.702 71.3701C240.933 98.6828 255.139 137.162 269.589 167.773C285.042 200.506 308.448 244.834 342.246 259.829C355.211 265.582 367.826 265.527 376.141 254.605C383.366 245.116 377.983 238.49 370.004 234.686C355.26 227.658 346.399 227.87 331.961 239.292C278.837 281.316 222.162 318.356 158.788 338.952C102.663 357.192 53.3434 339.511 0.999507 324.85" stroke="#ACA9A9" stroke-linecap="round" stroke-linejoin="round" stroke-dasharray="5 5"/>
</svg>
