<svg width="429" height="264" viewBox="0 0 429 264" fill="none" xmlns="http://www.w3.org/2000/svg">
<path d="M0.511719 6.41098C52.7588 2.26439 105.356 0.754285 157.758 0.836939C187.876 0.884442 218.538 1.12437 247.823 9.05132C262.721 13.0839 280.387 17.6104 280.387 35.4547C280.387 57.8398 236.12 68.9496 248.997 89.875C264.957 115.811 340.27 129.74 323.22 169.525C319.411 178.412 310.423 183.654 304.737 191.235C300.542 196.828 299.078 203.485 296.229 209.717C287.842 228.065 303.632 245.155 318.672 254.309C339.548 267.016 370.971 262.524 394.069 262.524C402.446 262.524 408.947 257.243 416.365 257.243C423.573 257.243 422 257.243 428.5 257.243" stroke="#ACA9A9" stroke-linecap="round" stroke-dasharray="5 5"/>
</svg>
