<svg width="750" height="500" viewBox="0 0 750 500" fill="none" xmlns="http://www.w3.org/2000/svg">
<path d="M626.936 273.949L605.371 325.251L681.48 357.244L703.045 305.943L626.936 273.949Z" fill="#EBEBEB"/>
<path d="M703 306.68C702.677 306.832 702.343 306.959 702 307.06L699.1 308.06L688.39 311.48L652.9 322.5L652.61 322.59L652.46 322.32L652.11 321.67L634.11 288.52C631.88 284.31 630.05 280.89 628.75 278.43C628.16 277.28 627.68 276.37 627.32 275.67C627.142 275.35 626.991 275.016 626.87 274.67C627.097 274.956 627.295 275.264 627.46 275.59L629.01 278.28C630.36 280.71 632.25 284.1 634.58 288.28C639.25 296.8 645.65 308.45 652.72 321.28L653.07 321.94L652.63 321.76L688.26 311L699.05 307.8L701.99 306.97C702.316 306.839 702.654 306.742 703 306.68V306.68Z" fill="#E0E0E0"/>
<path d="M605.36 326C605.26 325.82 613.94 321.19 624.74 315.67C635.54 310.15 644.37 305.82 644.47 306.01C644.57 306.2 635.88 310.82 625.08 316.34C614.28 321.86 605.45 326.17 605.36 326Z" fill="#E0E0E0"/>
<path d="M670 316C670.2 315.95 672.93 325.3 676.08 336.9C679.23 348.5 681.63 357.9 681.43 358C681.23 358.1 678.51 348.7 675.36 337.1C672.21 325.5 669.84 316 670 316Z" fill="#E0E0E0"/>
<path d="M138.982 367.615L122.946 405.761L179.549 429.555L195.584 391.408L138.982 367.615Z" fill="#F5F5F5"/>
<path d="M195.57 392C195.334 392.123 195.086 392.22 194.83 392.29L192.68 393L184.68 395.55L158.27 403.77L158.05 403.84L157.94 403.64C157.86 403.48 157.77 403.32 157.67 403.15L144.33 378.5L140.33 370.99L139.27 368.94C139.137 368.706 139.024 368.462 138.93 368.21C139.101 368.42 139.249 368.648 139.37 368.89L140.52 370.89C141.52 372.69 142.94 375.21 144.66 378.31L158.15 402.88C158.24 403.05 158.33 403.22 158.42 403.37L158.09 403.24L184.55 395.18L192.55 392.8L194.74 392.18C195.009 392.089 195.287 392.028 195.57 392V392Z" fill="#E0E0E0"/>
<path d="M122.94 406.31C122.87 406.17 129.32 402.73 137.35 398.62C145.38 394.51 152 391.3 152 391.44C152 391.58 145.62 395.01 137.59 399.12C129.56 403.23 123 406.44 122.94 406.31Z" fill="#E0E0E0"/>
<path d="M171 398.87C171.14 398.87 173.17 405.79 175.51 414.41C177.85 423.03 179.64 430.06 179.51 430.1C179.38 430.14 177.33 423.18 174.99 414.56C172.65 405.94 170.89 398.91 171 398.87Z" fill="#E0E0E0"/>
<path d="M112.944 242.406L45.8145 269.011L71.558 333.966L138.688 307.36L112.944 242.406Z" fill="#F5F5F5"/>
<path d="M74.54 326.34L79.87 285.56L103.53 300.9L108.26 285.9L131.27 303.87L74.54 326.34Z" fill="#E0E0E0"/>
<path d="M99.0001 270.48C99.3787 271.436 99.4653 272.483 99.2489 273.489C99.0325 274.494 98.5229 275.413 97.7844 276.128C97.0459 276.844 96.1118 277.325 95.1001 277.51C94.0884 277.695 93.0446 277.575 92.1007 277.167C91.1569 276.759 90.3552 276.08 89.7973 275.216C89.2393 274.352 88.95 273.342 88.966 272.314C88.9819 271.285 89.3025 270.285 89.8871 269.439C90.4716 268.593 91.294 267.939 92.2501 267.56C92.8849 267.307 93.5634 267.182 94.2466 267.192C94.9299 267.202 95.6044 267.347 96.2316 267.618C96.8587 267.889 97.4261 268.282 97.9012 268.773C98.3763 269.264 98.7497 269.844 99.0001 270.48Z" fill="#E0E0E0"/>
<g opacity="0.3">
<path opacity="0.3" d="M131.34 304.05C131.293 303.967 131.253 303.88 131.22 303.79C131.14 303.59 131.03 303.35 130.9 303.04L129.71 300.12C128.71 297.56 127.18 293.84 125.27 289.12C121.48 279.65 116.07 266.12 109.59 249.96L109.97 250.13L53.2699 272.65C53.2199 272.75 53.6299 271.81 53.4599 272.21V272.26V272.32V272.43L53.5499 272.66L53.7299 273.13L54.0999 274.05L54.8299 275.9C55.3199 277.12 55.8299 278.35 56.2799 279.56L59.1499 286.8L64.6899 300.8L74.7999 326.42L74.4199 326.26L115.48 310.15L127.08 305.63L130.16 304.45L130.96 304.15C131.054 304.112 131.151 304.082 131.25 304.06L131.01 304.17L130.25 304.49L127.25 305.72L115.77 310.35L74.7299 326.8L74.4499 326.92L74.3399 326.64C71.1899 318.73 67.7699 310.13 64.1599 301.04C62.3533 296.493 60.4999 291.827 58.5999 287.04C57.6599 284.65 56.6999 282.24 55.7399 279.81C55.2499 278.59 54.7399 277.37 54.2799 276.14L53.5499 274.29L53.1799 273.37L52.9999 272.91L52.9099 272.67V272.56V272.5C52.7399 272.89 53.1399 271.94 53.1099 272.04L109.84 249.61L110.12 249.5L110.23 249.77L125.7 289.22L129.97 300.22L131.08 303.1C131.19 303.41 131.28 303.65 131.35 303.83C131.354 303.903 131.35 303.977 131.34 304.05V304.05Z" fill="#E0E0E0"/>
</g>
<path d="M497.53 420.2L493.9 417.58C491.838 416.087 490.386 413.899 489.81 411.42L487.25 400.42C486.429 396.964 484.402 393.915 481.533 391.822C478.663 389.728 475.141 388.727 471.6 389L470.6 384.74C470.541 384.483 470.432 384.24 470.279 384.025C470.125 383.81 469.931 383.628 469.707 383.488C469.483 383.349 469.234 383.255 468.973 383.212C468.713 383.17 468.447 383.179 468.19 383.24V383.24C467.933 383.299 467.69 383.408 467.475 383.561C467.26 383.714 467.078 383.908 466.938 384.133C466.799 384.357 466.705 384.606 466.662 384.866C466.62 385.127 466.629 385.393 466.69 385.65L467.69 389.83C464.253 391.066 461.39 393.52 459.645 396.728C457.899 399.936 457.392 403.673 458.22 407.23L460.67 417.79C461.21 420.091 460.96 422.508 459.96 424.65L457.69 429.52L472.46 426C473.029 426.855 473.8 427.558 474.704 428.047C475.608 428.535 476.619 428.794 477.646 428.801C478.674 428.808 479.688 428.563 480.599 428.086C481.509 427.61 482.289 426.918 482.87 426.07C483.413 425.254 483.755 424.323 483.87 423.35L497.53 420.2Z" fill="#EBEBEB"/>
<path d="M506.11 120.09L570.09 161.89L543.13 206.36L477.6 161.98L506.11 120.09Z" fill="#F5F5F5"/>
<path d="M506.11 120.09L552.43 115.71C553.38 115.619 554.333 115.859 555.128 116.389C555.922 116.919 556.509 117.707 556.79 118.62L570.09 161.89" fill="#FF725E"/>
<path d="M506.11 120.09L552.43 115.71C553.38 115.619 554.333 115.859 555.128 116.389C555.922 116.919 556.509 117.707 556.79 118.62L570.09 161.89" fill="#E0E0E0"/>
<path d="M477.6 162C477.6 161.87 486.36 159.69 497.24 157.13C508.12 154.57 517 152.57 517 152.7C517 152.83 508.24 155 497.37 157.57C486.5 160.14 477.63 162.11 477.6 162Z" fill="#E0E0E0"/>
<path d="M543.13 206.36C543 206.36 541.65 197.63 540.13 186.82C538.61 176.01 537.47 167.23 537.6 167.22C537.73 167.21 539.07 175.94 540.6 186.76C542.13 197.58 543.26 206.34 543.13 206.36Z" fill="#E0E0E0"/>
<path d="M506.11 120.09L521.16 166.21L570.09 161.89L506.11 120.09Z" fill="#E0E0E0"/>
<path d="M507.75 124.58L520.85 104.63L577.04 140.98L563.78 162.32L521.38 165.87L507.75 124.58Z" fill="#FAFAFA"/>
<path d="M507.75 124.58C507.75 124.58 507.85 124.84 508.02 125.33L508.78 127.51C509.43 129.45 510.37 132.25 511.58 135.83C513.98 143.02 517.42 153.32 521.58 165.83L521.36 165.68L563.76 162.08L563.56 162.2L571.44 149.51C573.26 146.59 575.053 143.707 576.82 140.86L576.9 141.22L520.76 104.79H520.99L511.29 119.41C510.16 121.1 509.29 122.41 508.68 123.31L507.99 124.31C507.84 124.54 507.75 124.65 507.75 124.65C507.75 124.65 507.81 124.53 507.95 124.3C508.09 124.07 508.31 123.72 508.59 123.3L511.11 119.37L520.71 104.62L520.8 104.48L520.94 104.57L577.18 140.84L577.39 140.98L577.26 141.2L571.88 149.85L564 162.46L563.93 162.57H563.8L521.4 166.08H521.23L521.18 165.92L511.34 135.81C510.18 132.23 509.27 129.42 508.65 127.48L507.96 125.3C507.81 124.83 507.75 124.58 507.75 124.58Z" fill="#E0E0E0"/>
<path d="M561.58 145.14C561.5 145.26 552.88 139.75 542.32 132.83C531.76 125.91 523.26 120.21 523.32 120.09C523.38 119.97 532.02 125.48 542.58 132.4C553.14 139.32 561.66 145 561.58 145.14Z" fill="#E0E0E0"/>
<path d="M557.85 150.76C557.77 150.88 549.15 145.37 538.59 138.45C528.03 131.53 519.53 125.83 519.59 125.71C519.65 125.59 528.29 131.1 538.86 138.02C549.43 144.94 557.93 150.64 557.85 150.76Z" fill="#E0E0E0"/>
<path d="M553.55 157.23C553.48 157.35 544.85 151.84 534.29 144.93C523.73 138.02 515.23 132.3 515.29 132.18C515.35 132.06 524 137.57 534.56 144.49C545.12 151.41 553.63 157.11 553.55 157.23Z" fill="#E0E0E0"/>
<path d="M549.26 163.71C549.18 163.83 540.95 158.58 530.87 151.98C520.79 145.38 512.69 139.98 512.77 139.81C512.85 139.64 521.08 144.94 531.16 151.54C541.24 158.14 549.34 163.59 549.26 163.71Z" fill="#E0E0E0"/>
<path d="M538.35 164.66C538.025 164.533 537.716 164.369 537.43 164.17L535 162.7L527.13 157.7C524.06 155.7 521.31 153.91 519.33 152.57C518.33 151.9 517.55 151.34 517.01 150.95C516.713 150.769 516.44 150.551 516.2 150.3C516.527 150.417 516.836 150.578 517.12 150.78L519.53 152.26L527.41 157.26C530.48 159.26 533.23 161.04 535.2 162.39C536.2 163.06 536.98 163.61 537.52 164.01C537.824 164.189 538.103 164.407 538.35 164.66V164.66Z" fill="#E0E0E0"/>
<path d="M527.55 165.36C526.065 164.685 524.658 163.854 523.35 162.88C521.941 162.051 520.627 161.072 519.43 159.96C520.914 160.635 522.322 161.466 523.63 162.44C525.038 163.269 526.352 164.248 527.55 165.36V165.36Z" fill="#E0E0E0"/>
<path d="M282.66 157.52L272.83 172.16L269 170.58L240.49 188.58L234.93 173.49C234.93 173.49 251.07 168.72 254.57 163.58C258.07 158.44 254.93 156.81 254.93 156.81L263.14 149.47L282.66 157.52Z" fill="#EBEBEB"/>
<path d="M276.12 124.43C276.12 124.43 264.78 120.43 250.28 102.74C235.78 85.0497 230.58 63.1597 228.56 62.9997C226.54 62.8397 218.27 57.7497 197.27 91.9997C176.27 126.25 181.82 135.45 185.15 135.78C188.48 136.11 211.73 132.53 225.6 135.78C239.47 139.03 256.67 148.55 256.67 148.55L276.12 124.43Z" fill="#EBEBEB"/>
<path d="M298.45 148.53L293.57 155.61L291.39 158.78C289.946 160.877 287.751 162.34 285.26 162.866C282.768 163.393 280.17 162.943 278 161.61L254.08 149.92L272.59 118.47L296 134.75C298.145 136.258 299.607 138.553 300.066 141.135C300.525 143.716 299.944 146.375 298.45 148.53V148.53Z" fill="#E0E0E0"/>
<path d="M198.54 92.8396C187.32 111.41 181.54 128.46 185.61 130.93C189.68 133.4 202.1 120.34 213.31 101.77C224.52 83.1996 230.31 66.1397 226.24 63.6797C222.17 61.2197 209.75 74.2696 198.54 92.8396Z" fill="#E0E0E0"/>
<path d="M293.08 149.21C292.96 149.41 289.74 147.7 285.89 145.37C282.04 143.04 279.03 140.99 279.15 140.79C279.27 140.59 282.5 142.3 286.34 144.62C290.18 146.94 293.21 149 293.08 149.21Z" fill="#EBEBEB"/>
<path d="M295.73 144.71C295.6 144.92 292.73 143.26 289.25 141.02C285.77 138.78 283.11 136.8 283.25 136.59C283.39 136.38 286.25 138.04 289.73 140.29C293.21 142.54 295.86 144.51 295.73 144.71Z" fill="#EBEBEB"/>
<path d="M289.86 153.87C289.81 153.98 289.03 153.7 287.8 153.15C287.18 152.87 286.45 152.53 285.64 152.15C284.83 151.77 284.03 151.21 283.16 150.67C279.66 148.51 277.03 146.49 277.16 146.3C277.29 146.11 280.16 147.79 283.62 149.93C284.49 150.45 285.29 151.02 286.05 151.45C286.81 151.88 287.51 152.26 288.05 152.6C289.22 153.28 289.91 153.76 289.86 153.87Z" fill="#EBEBEB"/>
<path d="M217.14 90.64C217.14 90.64 207.76 83.15 200.59 96.16C193.42 109.17 203.79 112.7 203.79 112.7C209.253 106.01 213.747 98.5836 217.14 90.64V90.64Z" fill="#FAFAFA"/>
<path d="M229.85 75.6299C229.693 76.5034 229.455 77.3604 229.14 78.1899C228.62 79.8199 227.88 82.1899 226.88 85.0999C226.27 86.5099 225.61 88.0999 224.88 89.7199L223.77 92.2899C223.58 92.7299 223.39 93.1799 223.19 93.6299C222.99 94.0799 222.73 94.5199 222.5 94.9699C221.54 96.7632 220.54 98.6399 219.5 100.6C219.24 101.08 218.98 101.57 218.72 102.07C218.46 102.57 218.12 103.07 217.82 103.51L216 106.44L214.11 109.36C213.8 109.83 213.52 110.36 213.17 110.77L212.17 112.1L208.29 117.16C207.97 117.56 207.68 117.97 207.36 118.35L206.36 119.43L204.47 121.51L201.09 125.23C198.87 127.34 197.02 129 195.76 130.15C195.127 130.778 194.441 131.35 193.71 131.86C194.258 131.145 194.863 130.476 195.52 129.86L200.66 124.74L203.94 120.98L205.77 118.89C206.09 118.54 206.41 118.17 206.77 117.8C207.13 117.43 207.37 117.02 207.68 116.62L211.49 111.56L212.49 110.23C212.83 109.79 213.1 109.3 213.42 108.83L215.28 105.92L217.15 103.02C217.44 102.54 217.78 102.09 218.04 101.59L218.83 100.13C219.83 98.1999 220.88 96.3399 221.83 94.5699C222.06 94.1199 222.32 93.6899 222.53 93.2499C222.74 92.8099 222.93 92.3599 223.12 91.9199L224.26 89.3799L226.32 84.8299L228.84 78.0499C229.113 77.218 229.45 76.4089 229.85 75.6299V75.6299Z" fill="#E0E0E0"/>
<path d="M175.66 102.58C175.66 102.73 168.31 102.48 159.25 102.04C150.19 101.6 142.86 101.12 142.87 100.98C142.88 100.84 150.22 101.08 159.28 101.52C168.34 101.96 175.67 102.44 175.66 102.58Z" fill="#EBEBEB"/>
<path d="M182.81 81.15C182.75 81.28 174.23 77.15 163.81 71.85C153.39 66.55 144.93 62.21 145 62.09C145.07 61.97 153.58 66.09 164 71.38C174.42 76.67 182.88 81 182.81 81.15Z" fill="#EBEBEB"/>
<path d="M195.65 67.3398C195.51 67.3398 193.65 60.9198 191.53 52.9198C189.41 44.9198 187.78 38.3898 187.92 38.3498C188.06 38.3098 189.92 44.7798 192.04 52.7798C194.16 60.7798 195.79 67.2998 195.65 67.3398Z" fill="#EBEBEB"/>
<path d="M482.86 85.4999C482.104 83.116 480.635 81.0216 478.65 79.4999C476.765 77.9429 474.439 77.0161 472 76.8499C470.712 76.8056 469.429 77.021 468.226 77.4831C467.024 77.9453 465.926 78.6448 465 79.5399C463.9 80.6197 463.079 81.9515 462.61 83.4199C461.326 81.8774 459.583 80.7848 457.635 80.301C455.688 79.8172 453.636 79.9675 451.78 80.7299C449.536 81.7068 447.658 83.3652 446.41 85.4699C445.033 87.5614 444.334 90.0269 444.41 92.5299C444.573 95.7116 445.758 98.7558 447.79 101.21C450.072 103.665 452.912 105.534 456.07 106.66C461.21 108.66 467.95 111.11 467.95 111.11C467.95 111.11 472.47 106.34 476.64 102.72C479.243 100.601 481.301 97.8882 482.64 94.8099C483.707 91.8099 483.784 88.5469 482.86 85.4999V85.4999Z" fill="#EBEBEB"/>
<path d="M438 58.9998C438.029 57.5224 437.607 56.0713 436.79 54.8398C436.035 53.6 434.908 52.6304 433.57 52.0698C432.855 51.7918 432.091 51.6618 431.324 51.6876C430.558 51.7134 429.804 51.8944 429.11 52.2198C428.273 52.634 427.549 53.2447 427 53.9998C426.7 53.2405 426.236 52.5573 425.64 51.9998C425.084 51.4723 424.427 51.0636 423.709 50.7988C422.99 50.534 422.225 50.4186 421.46 50.4598C420.031 50.5542 418.668 51.0926 417.56 51.9998C416.396 52.9147 415.541 54.1641 415.11 55.5798C414.591 57.3926 414.668 59.3241 415.33 61.0898C416.14 62.9032 417.374 64.4948 418.93 65.7298C421.42 67.8398 424.73 70.5098 424.73 70.5098C424.73 70.5098 428.17 68.7098 431.2 67.5098C433.065 66.8271 434.736 65.7015 436.07 64.2298C437.261 62.7406 437.938 60.9058 438 58.9998V58.9998Z" fill="#EBEBEB"/>
<path d="M252.23 385.85C251.627 384.499 250.621 383.367 249.35 382.61C248.132 381.821 246.7 381.429 245.25 381.49C244.022 381.57 242.855 382.055 241.932 382.869C241.009 383.684 240.382 384.781 240.15 385.99C239.55 385.418 238.829 384.987 238.04 384.73C237.311 384.494 236.542 384.407 235.779 384.476C235.016 384.545 234.275 384.767 233.6 385.13C232.343 385.859 231.346 386.964 230.75 388.29C230.094 389.614 229.86 391.108 230.08 392.57C230.385 394.435 231.287 396.151 232.65 397.46C234.161 398.745 235.958 399.65 237.89 400.1C241.05 400.93 245.18 401.92 245.18 401.92C245.18 401.92 247.51 398.81 249.73 396.4C251.112 394.995 252.141 393.281 252.73 391.4C253.168 389.545 252.993 387.597 252.23 385.85V385.85Z" fill="#EBEBEB"/>
<path d="M645.68 193.73C645.621 191.967 645.424 190.212 645.09 188.48C644.656 186.458 643.921 184.514 642.91 182.71C640.523 178.375 636.701 175.006 632.101 173.182C627.501 171.357 622.41 171.19 617.7 172.71C615.745 173.318 613.897 174.225 612.22 175.4C611.354 175.998 610.525 176.649 609.74 177.35C608.966 178.095 608.241 178.89 607.57 179.73C604.749 183.253 603.13 187.586 602.95 192.095C602.77 196.605 604.039 201.054 606.57 204.79C607.178 205.681 607.846 206.53 608.57 207.33C609.3 208.096 610.078 208.814 610.9 209.48C612.483 210.773 614.253 211.818 616.15 212.58C619.669 214.018 623.508 214.491 627.27 213.95C630.548 213.485 633.67 212.251 636.38 210.35C638.629 208.792 640.558 206.816 642.06 204.53C643.212 202.814 644.095 200.932 644.68 198.95C645.149 197.249 645.484 195.513 645.68 193.76C645.68 193.76 645.68 193.88 645.68 194.11C645.68 194.34 645.68 194.72 645.62 195.11C645.596 195.667 645.529 196.222 645.42 196.77C645.307 197.524 645.14 198.269 644.92 199C644.364 201.023 643.5 202.949 642.36 204.71C640.693 207.305 638.494 209.518 635.908 211.2C633.322 212.882 630.409 213.997 627.36 214.47C623.497 215.044 619.551 214.574 615.93 213.11C613.974 212.333 612.146 211.264 610.51 209.94C609.667 209.254 608.866 208.52 608.11 207.74C607.389 206.913 606.721 206.041 606.11 205.13C603.488 201.285 602.169 196.7 602.349 192.05C602.529 187.4 604.198 182.93 607.11 179.3C607.802 178.434 608.55 177.616 609.35 176.85C610.163 176.129 611.021 175.461 611.92 174.85C613.649 173.645 615.555 172.717 617.57 172.1C621.289 170.918 625.258 170.759 629.06 171.64C632.068 172.341 634.891 173.675 637.343 175.553C639.795 177.431 641.819 179.809 643.28 182.53C644.284 184.372 644.995 186.359 645.39 188.42C645.552 189.164 645.659 189.92 645.71 190.68C645.784 191.233 645.808 191.792 645.78 192.35C645.78 192.77 645.78 193.11 645.78 193.35C645.78 193.59 645.7 193.73 645.68 193.73Z" fill="#E0E0E0"/>
<path d="M624.06 215.19C621.203 215.21 618.371 214.659 615.73 213.57C613.728 212.78 611.86 211.687 610.19 210.33C609.481 209.778 608.813 209.177 608.19 208.53L607.75 208.1L607.36 207.65C606.729 206.937 606.147 206.182 605.62 205.39C602.94 201.46 601.591 196.774 601.771 192.02C601.951 187.267 603.651 182.696 606.62 178.98C607.206 178.238 607.84 177.537 608.52 176.88L608.9 176.5L609.4 176.07C610.08 175.474 610.798 174.922 611.55 174.42C613.319 173.197 615.265 172.253 617.32 171.62C621.125 170.423 625.181 170.261 629.07 171.15C632.149 171.865 635.041 173.229 637.55 175.152C640.059 177.075 642.129 179.512 643.62 182.3C644.645 184.176 645.374 186.2 645.78 188.3C645.938 188.984 646.042 189.679 646.09 190.38V190.6C646.164 191.173 646.188 191.752 646.16 192.33V193.33C646.166 193.46 646.166 193.59 646.16 193.72V194.04L646.1 195.04C646.072 195.621 646.002 196.199 645.89 196.77V196.98C645.78 197.68 645.623 198.371 645.42 199.05C644.85 201.113 643.966 203.076 642.8 204.87C641.097 207.534 638.845 209.805 636.194 211.529C633.544 213.254 630.556 214.393 627.43 214.87C626.315 215.052 625.189 215.158 624.06 215.19ZM624.06 172.19C621.942 172.18 619.838 172.518 617.83 173.19C615.92 173.778 614.115 174.662 612.48 175.81C611.778 176.264 611.109 176.769 610.48 177.32L609.63 178.1C609.044 178.696 608.5 179.331 608 180C605.24 183.438 603.655 187.67 603.475 192.075C603.295 196.481 604.53 200.828 607 204.48C607.486 205.208 608.021 205.903 608.6 206.56L608.96 206.98L609.37 207.39C609.942 207.968 610.553 208.506 611.2 209C612.747 210.26 614.481 211.272 616.34 212C619.78 213.404 623.531 213.869 627.21 213.35C630.127 212.919 632.921 211.877 635.407 210.291C637.894 208.706 640.018 206.613 641.64 204.15C642.761 202.475 643.624 200.641 644.2 198.71C644.648 197.206 644.949 195.662 645.1 194.1C645.1 193.9 645.1 193.75 645.16 193.63C645.22 193.51 645.16 193.36 645.16 193.16C645.13 191.593 644.949 190.032 644.62 188.5C644.192 186.528 643.474 184.631 642.49 182.87C641.196 180.535 639.468 178.468 637.4 176.78C634.9 174.729 631.955 173.291 628.8 172.58C627.249 172.277 625.67 172.137 624.09 172.16L624.06 172.19Z" fill="#E0E0E0"/>
<path d="M638.29 209.15C638.42 209.03 642.94 213.69 648.38 219.57C653.82 225.45 658.12 230.31 657.98 230.44C657.84 230.57 653.33 225.9 647.89 220.02C642.45 214.14 638.16 209.28 638.29 209.15Z" fill="#E0E0E0"/>
<path d="M658.17 230.94H658C657.8 230.94 657.33 230.94 647.57 220.36C637.81 209.78 637.82 209.36 637.83 209.14V208.93L637.98 208.79C638.4 208.39 638.44 208.36 641.74 211.79C643.64 213.79 646.14 216.41 648.74 219.26C651.34 222.11 653.82 224.8 655.64 226.86C658.77 230.41 658.74 230.44 658.31 230.86L658.17 230.94Z" fill="#E0E0E0"/>
<path d="M150.08 165.86L145.92 167.53L131.74 158.53L128.41 150.21C128.41 150.21 121.81 152.4 126.93 162.99C132.05 173.58 130.12 171.13 130.12 171.13C130.12 171.13 116.47 176.66 115.81 178.31C115.33 179.5 120.4 193.24 123.21 200.66C124.62 204.4 128.28 206.94 132.08 206.43C132.611 206.368 133.133 206.236 133.63 206.04C137.04 204.67 153.36 194.92 153.36 194.92L160.56 192.03L150.08 165.86Z" fill="#EBEBEB"/>
<path d="M161.1 158.8L169.96 188.33L162.82 191.19L151.63 163.26L161.1 158.8Z" fill="#EBEBEB"/>
<path d="M573.79 381.82L568.88 382.63L555.7 369.46L554.09 359.66C554.09 359.66 546.42 360.44 549.43 373.13C552.44 385.82 550.93 382.71 550.93 382.71C550.93 382.71 534.82 385.43 533.71 387.06C532.91 388.23 535.11 404.32 536.37 413.06C537.01 417.45 540.37 421.06 544.59 421.43C545.181 421.5 545.779 421.5 546.37 421.43C550.37 420.77 570.37 414.11 570.37 414.11L578.85 412.71L573.79 381.82Z" fill="#F5F5F5"/>
<path d="M587.41 376.81L589.93 410.9L581.52 412.29L576.09 379.37L587.41 376.81Z" fill="#F5F5F5"/>
<path d="M312.69 413.58C315.133 413.319 317.446 412.347 319.343 410.785C321.239 409.222 322.636 407.138 323.36 404.79C325.5 398.2 322.22 391.22 316.04 389.2C309.86 387.18 303.1 390.91 300.96 397.51C300.153 399.859 300.061 402.395 300.697 404.797C301.332 407.198 302.666 409.357 304.53 411C286.44 408.08 281.22 427.09 281.22 427.09L322 440.31C322 440.31 329 421.64 312.69 413.58Z" fill="#EBEBEB"/>
<path d="M578.79 233.63H176.63C142.361 233.63 114.58 261.411 114.58 295.68V300.06C114.58 334.329 142.361 362.11 176.63 362.11H578.79C613.059 362.11 640.84 334.329 640.84 300.06V295.68C640.84 261.411 613.059 233.63 578.79 233.63Z" fill="#FF725E"/>
<g opacity="0.3">
<path opacity="0.3" d="M578.79 233.63H176.63C142.361 233.63 114.58 261.411 114.58 295.68V300.06C114.58 334.329 142.361 362.11 176.63 362.11H578.79C613.059 362.11 640.84 334.329 640.84 300.06V295.68C640.84 261.411 613.059 233.63 578.79 233.63Z" fill="black"/>
</g>
<path d="M576.6 223.11H178.82C143.341 223.11 114.58 251.871 114.58 287.35C114.58 322.829 143.341 351.59 178.82 351.59H576.6C612.079 351.59 640.84 322.829 640.84 287.35C640.84 251.871 612.079 223.11 576.6 223.11Z" fill="#FF725E"/>
<g opacity="0.3">
<path opacity="0.3" d="M497.61 223.11C497.61 223.11 494.72 223.17 493.26 223.11C488.26 223.11 479.26 223.11 479.26 223.11L472.8 235C474.29 238.15 476.23 241.66 479.64 242.36C481.357 242.586 483.103 242.366 484.71 241.72C488.758 240.475 492.544 238.499 495.88 235.89C497.958 234.415 499.508 232.312 500.3 229.89C500.93 227.42 499.91 224.19 497.61 223.11Z" fill="black"/>
</g>
<g opacity="0.3">
<path opacity="0.3" d="M268.81 235.94C267.3 232.23 264.89 225.57 261.74 223.11C261.74 223.11 241.57 223.45 241.47 223.11L250.84 256.67C253.84 259.06 255.36 262.36 256.33 265.48C257.3 268.6 258.1 271.95 260.33 274.3C262.56 276.65 266.98 277.3 268.92 274.71C271.11 271.78 268.73 267.71 268.66 264.06C268.59 260.41 270.9 257.19 271.84 253.66C273.45 247.75 271.11 241.59 268.81 235.94Z" fill="black"/>
</g>
<path d="M420.54 119.41C421.94 115.86 423.35 112.2 423.37 108.41C423.39 104.62 421.7 100.48 418.37 98.84C415.27 97.33 411.54 98.2 408.27 97.15C404.27 95.85 401.58 91.9 399.68 87.99C397.78 84.08 396.23 79.84 393.14 76.86C391.067 74.939 388.451 73.7054 385.649 73.3277C382.848 72.95 379.998 73.4468 377.49 74.75C373.869 72.3999 369.666 71.1017 365.35 71C359.96 71 353.84 71.62 350.2 75.6C347.38 78.68 345.64 82.6 342.13 84.81C337.29 87.93 330.94 85.6 325.2 85.99C324.03 86.07 322.67 86.41 322.2 87.49C322.082 87.9832 322.07 88.4959 322.165 88.9941C322.26 89.4923 322.459 89.9647 322.75 90.38L327.48 99.52C326.28 100.1 324.964 100.401 323.63 100.401C322.297 100.401 320.981 100.1 319.78 99.52C320.252 105.617 322.845 111.357 327.11 115.74C326.11 115.05 324.56 115.84 324.11 117C323.749 118.206 323.805 119.5 324.27 120.67C325.389 124.353 327.286 127.754 329.831 130.642C332.377 133.53 335.512 135.838 339.026 137.41C342.54 138.983 346.35 139.783 350.199 139.757C354.049 139.731 357.848 138.88 361.34 137.26L393.09 138.67C393.563 139.879 394.321 140.956 395.3 141.809C396.278 142.662 397.448 143.266 398.71 143.57C402.17 140.84 402.71 139.35 402.71 139.35C404.95 140.9 403.21 140.14 404.95 140.9C408.95 142.65 414.67 140.25 415.42 135.85C415.6 134.061 416.294 132.362 417.42 130.96C418.64 129.64 420.42 129.1 421.97 128.25C424.46 126.876 426.433 124.727 427.59 122.13C426.291 122.189 424.993 121.978 423.78 121.51C422.566 121.041 421.463 120.326 420.54 119.41V119.41Z" fill="#263238"/>
<path d="M342.25 107.37C342.307 99.7052 345.247 92.3429 350.485 86.7472C355.724 81.1515 362.876 77.7324 370.52 77.1699L372.1 77.0599C389.16 76.8099 398.91 91.1499 398.69 108.21L401.22 186.78L362.28 189.56L360.8 164C360.8 164 344.29 162.66 342.89 146.35C342.21 138.5 342.14 122.16 342.25 107.37Z" fill="#FFBE9D"/>
<path d="M350.43 119.72C350.469 120.328 350.743 120.897 351.195 121.306C351.647 121.715 352.241 121.932 352.85 121.91C353.148 121.91 353.443 121.851 353.718 121.736C353.993 121.621 354.243 121.452 354.452 121.24C354.661 121.028 354.826 120.777 354.938 120.5C355.049 120.224 355.104 119.928 355.1 119.63C355.064 119.021 354.79 118.45 354.338 118.04C353.885 117.631 353.29 117.415 352.68 117.44C352.381 117.437 352.085 117.494 351.809 117.608C351.533 117.722 351.282 117.891 351.072 118.103C350.863 118.316 350.698 118.569 350.587 118.846C350.477 119.124 350.424 119.421 350.43 119.72V119.72Z" fill="#263238"/>
<path d="M347.18 113.62C347.49 113.91 349.18 112.47 351.67 112.29C354.16 112.11 356.11 113.23 356.36 112.91C356.49 112.76 356.15 112.23 355.31 111.71C354.166 111.039 352.843 110.735 351.52 110.84C350.217 110.931 348.977 111.436 347.98 112.28C347.25 112.93 347 113.5 347.18 113.62Z" fill="#263238"/>
<path d="M363.81 134C363.81 133.85 362.23 133.7 359.68 133.56C359.03 133.56 358.42 133.46 358.28 133.03C358.174 132.373 358.272 131.7 358.56 131.1C359.054 129.5 359.567 127.833 360.1 126.1C362.22 118.96 363.71 113.1 363.42 113.03C363.13 112.96 361.18 118.66 359.06 125.8C358.554 127.56 358.067 129.227 357.6 130.8C357.257 131.603 357.204 132.502 357.45 133.34C357.561 133.56 357.72 133.751 357.916 133.9C358.112 134.049 358.339 134.152 358.58 134.2C358.938 134.275 359.305 134.298 359.67 134.27C362.23 134.25 363.81 134.15 363.81 134Z" fill="#263238"/>
<path d="M346.41 107.58C346.98 108.12 349.06 107.39 351.61 107.21C354.16 107.03 356.34 107.29 356.79 106.67C356.99 106.36 356.62 105.81 355.64 105.33C354.293 104.737 352.814 104.507 351.35 104.66C349.89 104.765 348.484 105.251 347.27 106.07C346.41 106.71 346.15 107.32 346.41 107.58Z" fill="#263238"/>
<path d="M397.11 120.48C397.38 120.34 408.11 116.34 408.54 127.48C408.97 138.62 397.68 136.83 397.64 136.48C397.6 136.13 397.11 120.48 397.11 120.48Z" fill="#FFBE9D"/>
<path d="M399.9 132.24C399.95 132.24 400.11 132.37 400.44 132.51C400.91 132.694 401.431 132.694 401.9 132.51C403.06 132.03 403.98 130.11 403.95 128.09C403.939 127.129 403.714 126.183 403.29 125.32C403.171 124.975 402.969 124.665 402.703 124.415C402.436 124.166 402.113 123.986 401.76 123.89C401.535 123.843 401.301 123.876 401.097 123.981C400.893 124.087 400.732 124.26 400.64 124.47C400.5 124.79 400.58 125.01 400.52 125.03C400.46 125.05 400.27 124.85 400.34 124.39C400.391 124.111 400.536 123.857 400.75 123.67C401.049 123.423 401.434 123.305 401.82 123.34C402.285 123.409 402.724 123.597 403.093 123.886C403.463 124.175 403.752 124.556 403.93 124.99C404.446 125.939 404.721 127 404.73 128.08C404.73 130.34 403.73 132.49 402.09 133.03C401.793 133.131 401.477 133.164 401.165 133.126C400.854 133.087 400.555 132.98 400.29 132.81C399.94 132.51 399.87 132.27 399.9 132.24Z" fill="#EB996E"/>
<path d="M400.89 94.9198C400.032 91.6681 398.555 88.6124 396.54 85.9198C390.69 77.7898 377.33 73.9898 369.74 74.6698C362.15 75.3498 354.28 80.9698 347.21 83.7898C342.58 85.6398 339.07 89.8898 340.84 93.1798C338.097 94.2464 335.2 94.8611 332.26 94.9998C332.26 94.9998 331.99 99.1698 334.31 100.28L341.61 105.06C351.34 106.35 368.42 96.7698 371.71 93.7598C374.764 90.9571 378.145 88.533 381.78 86.5398C378.68 94.6698 388.78 92.8698 388.5 96.0198C385.41 107.45 394.74 111.67 394.74 111.67L394.97 121.67C394.76 124.23 395.86 126.2 398.42 126.03C398.42 126.03 401.2 122.21 401.67 119.1C402.59 113.1 402 100.91 400.89 94.9198Z" fill="#263238"/>
<path d="M360.67 164C368.252 163.446 375.516 160.729 381.6 156.17C381.6 156.17 377.43 168.31 361 168L360.67 164Z" fill="#EB996E"/>
<path d="M374 118.22C374.039 118.828 374.313 119.398 374.765 119.807C375.217 120.216 375.811 120.432 376.42 120.41C376.719 120.413 377.015 120.355 377.291 120.241C377.568 120.127 377.818 119.959 378.028 119.746C378.238 119.534 378.403 119.281 378.513 119.003C378.624 118.726 378.677 118.429 378.67 118.13C378.632 117.522 378.357 116.952 377.905 116.543C377.453 116.134 376.859 115.918 376.25 115.94C375.952 115.94 375.657 115.999 375.382 116.114C375.107 116.229 374.858 116.397 374.649 116.61C374.439 116.822 374.274 117.073 374.163 117.35C374.052 117.626 373.996 117.922 374 118.22V118.22Z" fill="#263238"/>
<path d="M371.26 112.36C371.57 112.68 373.54 111.44 376.26 111.54C378.98 111.64 380.98 112.98 381.26 112.69C381.41 112.55 381.1 111.99 380.26 111.38C379.078 110.575 377.69 110.124 376.26 110.08C374.858 110.013 373.466 110.361 372.26 111.08C371.41 111.68 371.11 112.22 371.26 112.36Z" fill="#263238"/>
<path d="M371 104.49C371.24 105.18 373.75 104.87 376.7 105.25C379.65 105.63 382.03 106.45 382.43 105.84C382.61 105.55 382.2 104.9 381.24 104.23C379.959 103.413 378.509 102.898 377 102.724C375.491 102.551 373.962 102.724 372.53 103.23C371.45 103.63 370.9 104.17 371 104.49Z" fill="#263238"/>
<path d="M363.58 138.84C365.687 138.133 367.843 137.582 370.03 137.19L371.62 136.69C372.021 137.405 372.26 138.198 372.323 139.015C372.385 139.832 372.268 140.653 371.98 141.42C371.644 141.972 371.195 142.446 370.662 142.811C370.13 143.177 369.526 143.425 368.89 143.54C368.444 143.657 367.979 143.679 367.524 143.605C367.07 143.531 366.635 143.362 366.25 143.11C366.25 143.11 364.19 142.3 363.58 138.84" fill="#EB996E"/>
<path d="M367.93 143.55C368.79 143.415 369.603 143.072 370.3 142.55C371.023 141.978 371.55 141.195 371.81 140.31C372.145 139.232 372.145 138.078 371.81 137L371.75 136.82L372.05 136.99C369.65 137.52 367.48 137.99 365.91 138.28C365.068 138.493 364.207 138.62 363.34 138.66C364.146 138.34 364.98 138.092 365.83 137.92C367.38 137.53 369.54 137.02 371.94 136.48L372.17 136.43L372.24 136.64L372.3 136.84C372.681 138.017 372.681 139.284 372.3 140.46C371.99 141.425 371.376 142.263 370.55 142.85C369.997 143.241 369.353 143.482 368.68 143.55C368.18 143.64 367.92 143.58 367.93 143.55Z" fill="#263238"/>
<path d="M418.81 129.08C418.579 129.063 418.352 129.005 418.14 128.91C417.521 128.635 416.983 128.204 416.58 127.66C415.935 126.807 415.538 125.794 415.43 124.73C415.322 123.338 415.379 121.938 415.6 120.56C415.887 118.937 415.816 117.272 415.39 115.68C415.108 114.825 414.583 114.072 413.88 113.51C413.113 112.915 412.273 112.421 411.38 112.04C410.41 111.628 409.48 111.129 408.6 110.55C407.669 109.895 406.947 108.985 406.52 107.93C405.61 105.81 405.7 103.43 405.19 101.2C404.98 100.096 404.529 99.0509 403.87 98.1399C403.215 97.2864 402.268 96.7057 401.21 96.51C400.21 96.27 399.07 96.2299 398 96.0199C396.913 95.8514 395.915 95.3191 395.17 94.51C394.537 93.6977 394.103 92.7494 393.9 91.7399C393.66 90.7899 393.52 89.8599 393.33 88.9899C393.147 88.156 392.865 87.3469 392.49 86.58C392.12 85.887 391.67 85.2393 391.15 84.65C389.547 82.8544 387.376 81.6645 385 81.2799C384.12 81.1876 383.234 81.1676 382.35 81.22C383.227 81.0043 384.136 80.9568 385.03 81.08C387.493 81.3926 389.764 82.5691 391.44 84.4C391.994 85.0058 392.471 85.6775 392.86 86.4C393.267 87.1918 393.573 88.0318 393.77 88.9C393.97 89.78 394.12 90.71 394.36 91.62C394.555 92.5564 394.962 93.4356 395.55 94.19C396.224 94.9233 397.133 95.3974 398.12 95.5299C399.12 95.7299 400.23 95.76 401.34 96.01C402.528 96.2256 403.595 96.8696 404.34 97.82C405.044 98.791 405.528 99.9033 405.76 101.08C406.28 103.41 406.2 105.74 407.05 107.73C407.437 108.7 408.097 109.537 408.95 110.14C409.802 110.713 410.706 111.206 411.65 111.61C412.572 112.017 413.442 112.534 414.24 113.15C414.992 113.778 415.551 114.607 415.85 115.54C416.29 117.192 416.351 118.921 416.03 120.6C415.787 121.949 415.703 123.322 415.78 124.69C415.855 125.712 416.2 126.695 416.78 127.54C417.271 128.261 417.984 128.802 418.81 129.08Z" fill="#455A64"/>
<path d="M328.82 89.2802C329.002 89.3614 329.17 89.4692 329.32 89.6002L330.72 90.6002C332.429 91.78 334.28 92.7377 336.23 93.4502C339.106 94.5303 342.264 94.5939 345.18 93.6302C346.872 93.0391 348.358 91.9733 349.46 90.5602C350.585 88.9846 351.565 87.3112 352.39 85.5602C353.266 83.7266 354.492 82.0823 356 80.7202C357.417 79.5099 359.044 78.5709 360.8 77.9502C363.779 76.9254 366.974 76.6911 370.07 77.2702C372.141 77.6322 374.158 78.2572 376.07 79.1302C376.75 79.4302 377.26 79.6902 377.6 79.8802C377.781 79.9642 377.952 80.0682 378.11 80.1902C377.919 80.1433 377.734 80.0728 377.56 79.9802C377.2 79.8202 376.68 79.5902 375.99 79.3102C374.06 78.5248 372.047 77.9612 369.99 77.6302C366.973 77.1252 363.878 77.39 360.99 78.4002C359.296 79.0119 357.727 79.9268 356.36 81.1002C354.926 82.4035 353.758 83.9724 352.92 85.7202C352.085 87.5151 351.081 89.2262 349.92 90.8302C348.74 92.3158 347.146 93.4188 345.34 94.0002C342.321 94.9835 339.054 94.8845 336.1 93.7202C334.14 92.9731 332.29 91.9639 330.6 90.7202C330 90.2802 329.6 89.9202 329.26 89.7202C329.098 89.5898 328.951 89.4423 328.82 89.2802Z" fill="#455A64"/>
<path d="M324.6 104.13C324.66 104.06 325.43 104.74 326.81 105.59C328.625 106.689 330.603 107.492 332.67 107.97C334.74 108.431 336.871 108.556 338.98 108.34C340.6 108.17 341.58 107.89 341.61 107.98C341.64 108.07 341.38 108.11 340.94 108.26C340.316 108.458 339.678 108.606 339.03 108.7C336.876 109.036 334.677 108.962 332.55 108.48C330.427 107.998 328.412 107.123 326.61 105.9C326.068 105.531 325.557 105.12 325.08 104.67C324.74 104.35 324.57 104.16 324.6 104.13Z" fill="#455A64"/>
<path d="M334 113.48C334.06 113.34 335.76 114.04 338 114.4C340.24 114.76 342 114.68 342.06 114.83C339.318 115.395 336.465 114.913 334.06 113.48H334Z" fill="#455A64"/>
<path d="M361.35 173.55L329.25 182.39L294.61 207.39L303.85 223.19L467.16 223.47C467.16 223.47 461.16 201.64 459.25 194.94C456.3 184.83 452.3 181.94 448.65 178.28C446.95 176.766 444.969 175.601 442.82 174.85C436.36 173.44 406.47 166.73 400.65 166.85C400.65 166.85 393.94 180.72 379.88 180.58C365.82 180.44 361.35 173.55 361.35 173.55Z" fill="#455A64"/>
<path d="M427.54 199.18C427.64 199.18 427.94 197.86 428.89 195.89C430.16 193.334 431.831 190.997 433.84 188.97C435.871 186.946 438.039 185.065 440.33 183.34C441.305 182.653 442.231 181.898 443.1 181.08C442.042 181.629 441.038 182.275 440.1 183.01C437.71 184.646 435.48 186.504 433.44 188.56C431.379 190.626 429.714 193.053 428.53 195.72C428.175 196.525 427.897 197.363 427.7 198.22C427.588 198.528 427.534 198.853 427.54 199.18V199.18Z" fill="#263238"/>
<path d="M330 216.52C330.143 215.396 330.18 214.261 330.11 213.13C330.11 211.03 329.97 208.13 329.73 204.95C329.49 201.77 329.16 198.87 328.86 196.8C328.763 195.669 328.555 194.55 328.24 193.46C328.221 194.594 328.291 195.727 328.45 196.85C328.64 199.12 328.88 201.91 329.14 204.99C329.4 208.07 329.54 210.87 329.69 213.14C329.703 214.273 329.807 215.403 330 216.52V216.52Z" fill="#263238"/>
<g opacity="0.3">
<path opacity="0.3" d="M320.38 220.68C323.02 219.89 325.71 218.89 327.67 216.96C329.63 215.03 330.67 211.96 329.51 209.42C331.458 213.549 334.557 217.028 338.435 219.437C342.313 221.846 346.805 223.084 351.37 223L312.63 223.49C315.086 222.234 317.69 221.29 320.38 220.68Z" fill="black"/>
</g>
<path d="M503.08 223.42C503.08 223.42 499.16 218.09 497.22 217.08C495.28 216.07 492.63 216.08 491.46 217.14L490.29 218.19C490.29 218.19 484.19 215.46 481.29 217.56C481.29 217.56 475.49 214.82 472.72 217.96C472.72 217.96 468.25 215.05 466.36 217.59C464.47 220.13 464.66 224.41 465.57 226.59C466.48 228.77 468.2 236.32 469.57 236.45C469.57 236.45 473.13 236.83 473.57 234.9C474.01 232.97 474.25 232.05 474.25 232.05C474.25 232.05 475.61 238.86 477.25 239.2C478.89 239.54 482.02 239.36 482.12 236.37C482.12 236.37 483.64 238.62 485.12 237.97C486.6 237.32 488.44 236.22 488.28 234.37C488.12 232.52 488.09 230.67 488.09 230.67C488.09 230.67 488.91 233.37 490.25 232.78C491.59 232.19 492.95 232.32 493.71 230.04C494.47 227.76 496.34 223.39 496.34 223.39L503.08 223.42Z" fill="#FFBE9D"/>
<path d="M488.19 230.55C488.033 229.9 487.84 229.259 487.61 228.63C487.195 227.09 487.13 225.477 487.421 223.909C487.711 222.341 488.35 220.858 489.29 219.57C490.01 218.57 490.59 218.05 490.53 217.98C490.47 217.91 489.8 218.34 488.96 219.31C487.872 220.595 487.138 222.142 486.831 223.797C486.524 225.453 486.655 227.16 487.21 228.75C487.384 229.421 487.721 230.04 488.19 230.55Z" fill="#EB996E"/>
<path d="M480.88 217.6C480.486 218.449 480.223 219.353 480.1 220.28C479.249 224.74 479.559 229.344 481 233.65C481.249 234.551 481.63 235.41 482.13 236.2C482.32 236.14 480.61 232.2 480.28 226.98C479.95 221.76 481.07 217.63 480.88 217.6Z" fill="#EB996E"/>
<path d="M472.55 218.05C472.116 220.428 472.086 222.862 472.46 225.25C472.643 227.662 473.224 230.028 474.18 232.25C474.35 232.25 473.49 229.1 473.05 225.18C472.61 221.26 472.72 218.06 472.55 218.05Z" fill="#EB996E"/>
<path d="M448.56 219.58C448.706 219.27 448.921 218.997 449.188 218.783C449.454 218.568 449.766 218.416 450.1 218.34C450.878 218.166 451.686 218.182 452.455 218.387C453.225 218.593 453.933 218.981 454.52 219.52C455.794 220.682 456.883 222.03 457.75 223.52L449.11 223.46C449.19 222.12 448.08 220.81 448.56 219.58Z" fill="#FFBE9D"/>
<path d="M229.6 225.75C229.864 223.109 230.731 220.563 232.133 218.309C233.536 216.056 235.437 214.154 237.69 212.75V212.75C239.485 211.694 241.487 211.041 243.559 210.836C245.631 210.63 247.723 210.877 249.69 211.56L266.36 217.36C267.26 218.36 294.77 207.72 294.77 207.72L304 223.5L251.42 223.42C254.311 226.718 257.375 229.859 260.6 232.83L264.17 244.69L263.82 255.42C261.93 256.29 259.11 252.98 259.11 252.98L257.46 255.98L258.01 258.89C258.01 258.89 262.87 270.69 262.7 273.32C262.7 273.519 262.66 273.716 262.583 273.9C262.506 274.083 262.392 274.249 262.25 274.388C262.107 274.527 261.938 274.636 261.753 274.708C261.567 274.781 261.369 274.816 261.17 274.81C260.472 274.848 259.779 274.678 259.177 274.322C258.576 273.966 258.093 273.44 257.79 272.81L250.88 259.38C250.88 259.38 245.53 258.08 243.66 256.32C241.79 254.56 239 251.2 239 251.2L235.6 250.72C235.195 250.779 234.783 250.698 234.43 250.49C233.536 250.048 232.758 249.401 232.16 248.601C231.563 247.802 231.162 246.873 230.99 245.89L229.26 236.89C228.84 234.85 229.17 230.09 229.6 225.75Z" fill="#FFBE9D"/>
<path d="M245.26 249.12C246.227 253.012 248.183 256.588 250.94 259.5C251.07 259.4 249.48 257.27 247.94 254.41C246.4 251.55 245.41 249.07 245.26 249.12Z" fill="#EB996E"/>
<path d="M237.24 248.14C237.06 248.21 237.69 249.6 238.77 251.06C239.342 252.005 240.081 252.838 240.95 253.52C240.522 252.506 239.939 251.564 239.22 250.73C238.632 249.814 237.97 248.948 237.24 248.14V248.14Z" fill="#EB996E"/>
<path d="M259.11 261.62C258.863 260.509 258.549 259.414 258.17 258.34C257.56 256.34 256.77 253.53 256 250.42C255.61 248.86 255.26 247.42 255 246.02C254.688 244.851 254.567 243.638 254.64 242.43C254.76 241.327 255.201 240.284 255.91 239.43C255.91 239.43 255.59 239.57 255.21 240.04C254.677 240.727 254.333 241.54 254.21 242.4C254.072 243.655 254.157 244.925 254.46 246.15C254.73 247.52 255.07 249.01 255.46 250.58C256.24 253.7 257.09 256.49 257.8 258.48C258.132 259.567 258.571 260.619 259.11 261.62Z" fill="#EB996E"/>
<path d="M255.5 241.68C255.43 241.74 256 242.39 256.66 243.58C257.517 245.117 258.026 246.824 258.15 248.58C258.134 249.586 258.218 250.591 258.4 251.58C258.599 252.414 259.037 253.171 259.66 253.76C260.17 254.33 260.812 254.766 261.53 255.03C261.59 254.95 260.85 254.48 259.95 253.49C259.429 252.928 259.067 252.238 258.9 251.49C258.754 250.524 258.691 249.547 258.71 248.57C258.584 246.727 257.996 244.946 257 243.39C256.63 242.718 256.118 242.134 255.5 241.68V241.68Z" fill="#EB996E"/>
<path d="M251.58 223.57C251.68 223.44 249.73 221.82 247.76 219.41C245.79 217 244.53 214.78 244.35 214.93C244.516 215.457 244.748 215.961 245.04 216.43C245.7 217.611 246.466 218.729 247.33 219.77C248.476 221.31 249.922 222.603 251.58 223.57V223.57Z" fill="#EB996E"/>
<g opacity="0.3">
<path opacity="0.3" d="M424.56 223.43L425.21 208.36L414.63 223.41L424.56 223.43Z" fill="black"/>
</g>
<path d="M424.55 223.42C424.462 220.444 424.543 217.466 424.79 214.5C424.87 211.525 425.12 208.556 425.54 205.61C425.64 208.585 425.563 211.564 425.31 214.53C425.237 217.506 424.984 220.475 424.55 223.42V223.42Z" fill="#263238"/>
<path d="M421.32 170.81C421.476 171.122 421.568 171.462 421.59 171.81C421.669 172.793 421.411 173.773 420.86 174.59C420.015 175.913 418.706 176.873 417.19 177.28C415.229 177.76 413.204 177.932 411.19 177.79C410.027 177.767 408.864 177.827 407.71 177.97C406.477 178.124 405.292 178.548 404.24 179.21C403.15 179.962 402.289 181 401.75 182.21C401.182 183.518 400.753 184.882 400.47 186.28C400.15 187.72 399.86 189.21 399.4 190.72C398.694 193.142 397.259 195.289 395.292 196.869C393.324 198.448 390.918 199.384 388.4 199.55C386.69 199.638 384.979 199.388 383.366 198.813C381.753 198.238 380.269 197.35 379 196.2C377.814 195.114 376.82 193.836 376.06 192.42C375.416 191.086 374.425 189.949 373.19 189.13C371.942 188.48 370.524 188.232 369.13 188.42C367.784 188.567 366.449 188.794 365.13 189.1C363.879 189.393 362.604 189.567 361.32 189.62C360.123 189.648 358.93 189.458 357.8 189.06C355.875 188.383 354.154 187.227 352.8 185.7C351.764 184.558 350.966 183.223 350.45 181.77C350.255 181.247 350.105 180.708 350 180.16C349.95 179.67 349.87 179.27 349.87 178.94V178.18C349.861 178.097 349.861 178.013 349.87 177.93C349.917 179.219 350.17 180.491 350.62 181.7C351.157 183.11 351.965 184.402 353 185.5C354.344 186.976 356.045 188.081 357.94 188.71C359.031 189.081 360.179 189.253 361.33 189.22C362.588 189.157 363.836 188.976 365.06 188.68C366.378 188.363 367.714 188.122 369.06 187.96C370.546 187.757 372.059 188.019 373.39 188.71C374.701 189.565 375.758 190.756 376.45 192.16C377.194 193.53 378.161 194.767 379.31 195.82C381.77 198.034 385.004 199.188 388.31 199.03C389.937 198.908 391.523 198.458 392.972 197.707C394.42 196.956 395.702 195.919 396.74 194.66C398.81 192.21 399.3 189.03 399.97 186.17C400.26 184.736 400.706 183.337 401.3 182C401.882 180.718 402.801 179.619 403.96 178.82C405.07 178.126 406.32 177.689 407.62 177.54C408.792 177.406 409.972 177.359 411.15 177.4C413.16 177.559 415.182 177.417 417.15 176.98C418.613 176.603 419.887 175.703 420.73 174.45C421.282 173.672 421.559 172.733 421.52 171.78C421.475 171.453 421.408 171.129 421.32 170.81V170.81Z" fill="white"/>
<path d="M372.69 222.34C372.595 222.122 372.524 221.894 372.48 221.66L371.93 219.66C371.299 217.232 370.286 214.92 368.93 212.81C368.468 212.131 367.935 211.504 367.34 210.94C366.688 210.34 365.958 209.832 365.17 209.43C363.391 208.6 361.425 208.255 359.47 208.43C357.285 208.624 355.121 209.002 353 209.56C350.69 210.176 348.31 210.485 345.92 210.48C343.462 210.522 341.079 209.633 339.25 207.99C337.688 206.321 336.754 204.161 336.61 201.88C336.464 199.88 336.511 197.871 336.75 195.88C336.945 194.164 336.988 192.434 336.88 190.71C336.818 189.468 336.511 188.25 335.975 187.127C335.44 186.005 334.687 184.999 333.76 184.17C333.04 183.607 332.218 183.19 331.34 182.94H331.52C331.7 182.958 331.877 182.995 332.05 183.05C332.716 183.248 333.339 183.567 333.89 183.99C334.87 184.816 335.673 185.832 336.25 186.977C336.827 188.121 337.168 189.371 337.25 190.65C337.385 192.395 337.362 194.149 337.18 195.89C336.963 197.859 336.933 199.845 337.09 201.82C337.105 202.953 337.351 204.07 337.813 205.104C338.276 206.138 338.945 207.067 339.779 207.833C340.614 208.599 341.596 209.187 342.666 209.559C343.735 209.932 344.87 210.082 346 210C348.363 210.011 350.717 209.708 353 209.1C355.147 208.544 357.339 208.172 359.55 207.99C361.589 207.829 363.634 208.208 365.48 209.09C366.3 209.521 367.058 210.062 367.73 210.7C368.337 211.31 368.88 211.98 369.35 212.7C370.686 214.857 371.649 217.223 372.2 219.7C372.42 220.56 372.56 221.24 372.65 221.7C372.683 221.912 372.696 222.126 372.69 222.34V222.34Z" fill="white"/>
<path d="M425.78 209.57C424.386 208.861 422.922 208.301 421.41 207.9C419.774 207.511 418.086 207.386 416.41 207.53C414.356 207.711 412.363 208.321 410.56 209.32C408.753 210.33 407.165 211.689 405.89 213.32C404.842 214.639 404.033 216.132 403.5 217.73C403.123 218.799 403.047 219.951 403.28 221.06C403.397 221.459 403.541 221.85 403.71 222.23C403.71 222.23 403.62 222.15 403.49 221.98C403.317 221.709 403.179 221.417 403.08 221.11C402.764 219.969 402.785 218.76 403.14 217.63C403.644 215.966 404.447 214.407 405.51 213.03C406.807 211.337 408.437 209.928 410.3 208.89C412.169 207.854 414.239 207.233 416.37 207.07C418.099 206.943 419.837 207.109 421.51 207.56C422.636 207.865 423.72 208.305 424.74 208.87C425.1 209.07 425.36 209.25 425.54 209.37C425.72 209.49 425.79 209.55 425.78 209.57Z" fill="white"/>
<path d="M436.56 182.59C436.51 182.59 436.2 182.18 435.95 181.35C435.641 180.266 435.593 179.125 435.81 178.02C436.027 176.91 436.499 175.866 437.19 174.97C437.73 174.3 438.19 173.97 438.19 174.05C437.233 175.228 436.582 176.623 436.292 178.112C436.003 179.602 436.084 181.139 436.53 182.59H436.56Z" fill="white"/>
<path d="M461 202.41C460.983 202.561 460.946 202.709 460.89 202.85C460.771 203.262 460.617 203.664 460.43 204.05C459.74 205.486 458.763 206.766 457.56 207.81C455.769 209.379 453.558 210.39 451.2 210.72C448.5 211.12 445.61 210.26 442.71 209.54C441.303 209.155 439.857 208.934 438.4 208.88C437.041 208.86 435.689 209.069 434.4 209.5C432.225 210.239 430.271 211.515 428.72 213.21C427.666 214.349 426.823 215.666 426.23 217.1C425.81 218.1 425.7 218.73 425.64 218.72C425.633 218.568 425.653 218.415 425.7 218.27C425.783 217.849 425.896 217.435 426.04 217.03C426.574 215.533 427.389 214.152 428.44 212.96C430.01 211.179 432.011 209.829 434.25 209.04C435.577 208.578 436.975 208.352 438.38 208.37C439.873 208.424 441.356 208.646 442.8 209.03C445.73 209.76 448.54 210.61 451.11 210.24C453.387 209.947 455.532 209.006 457.29 207.53C458.484 206.537 459.479 205.325 460.22 203.96C460.81 203 461 202.39 461 202.41Z" fill="white"/>
<path d="M327.3 220.68C327.184 220.694 327.066 220.694 326.95 220.68C326.618 220.712 326.283 220.712 325.95 220.68C324.701 220.599 323.479 220.28 322.35 219.74C320.66 218.94 319.211 217.709 318.15 216.17C317.532 215.252 317.069 214.238 316.78 213.17C316.51 212.034 316.313 210.881 316.19 209.72C315.92 207.38 315.54 205.1 314.19 203.57C312.971 202.26 311.341 201.406 309.57 201.15C308.371 200.939 307.157 200.815 305.94 200.78C305.485 200.786 305.031 200.759 304.58 200.7C305.027 200.603 305.484 200.563 305.94 200.58C307.177 200.532 308.416 200.603 309.64 200.79C311.516 201.012 313.254 201.886 314.55 203.26C315.265 204.12 315.78 205.127 316.06 206.21C316.352 207.339 316.556 208.489 316.67 209.65C316.792 210.787 316.982 211.916 317.24 213.03C317.504 214.048 317.937 215.015 318.52 215.89C319.531 217.383 320.908 218.592 322.52 219.4C324.012 220.142 325.637 220.578 327.3 220.68V220.68Z" fill="white"/>
<path d="M368.75 390.78C370.257 393.579 371.244 396.628 371.66 399.78H377L399.53 399.39L399.36 399.79C399.36 399.79 403.04 382.51 403.71 377.37C404.26 373.13 406.88 362.99 403.71 358.51C403.138 357.722 402.334 357.133 401.411 356.825C400.487 356.516 399.491 356.504 398.56 356.79C397.909 356.977 397.323 357.34 396.866 357.84C396.409 358.339 396.099 358.955 395.97 359.62C395.97 359.62 395.7 353.62 391.4 353.54C387.1 353.46 386.95 356.81 386.95 356.81C386.95 356.81 385.77 349.96 380.95 350.02C380.025 350.106 379.148 350.47 378.434 351.065C377.72 351.659 377.203 352.456 376.95 353.35V340.35C376.953 339.081 376.473 337.858 375.608 336.929C374.742 336.001 373.556 335.436 372.29 335.35C371.647 335.33 371.005 335.438 370.404 335.669C369.803 335.899 369.254 336.247 368.788 336.692C368.323 337.137 367.951 337.67 367.693 338.26C367.436 338.851 367.299 339.486 367.29 340.13L367 370.21L359.69 360.83C357.78 358.4 353.22 359.6 352.69 361.69C352.69 361.69 351.37 364.44 354.1 368.49C356 371.52 368.75 390.78 368.75 390.78Z" fill="#EBEBEB"/>
<path d="M368.75 390.78C368.75 390.78 368.62 390.62 368.4 390.3L367.4 388.86L363.65 383.27L357.72 374.39L354.02 368.83C353.296 367.825 352.745 366.706 352.39 365.52C351.97 364.25 351.97 362.879 352.39 361.61V361.61C352.689 360.855 353.265 360.243 354 359.9C354.733 359.529 355.539 359.324 356.36 359.3C357.211 359.25 358.059 359.448 358.8 359.87C358.985 359.984 359.162 360.111 359.33 360.25C359.49 360.4 359.64 360.57 359.78 360.73L360.56 361.73L367.09 370.08L366.7 370.21C366.8 361.81 366.91 352.6 367.02 342.8V340.96C366.995 340.323 367.038 339.686 367.15 339.06C367.44 337.758 368.226 336.622 369.34 335.89C369.901 335.525 370.531 335.276 371.19 335.159C371.849 335.042 372.526 335.059 373.179 335.208C373.831 335.357 374.448 335.636 374.991 336.028C375.534 336.42 375.993 336.917 376.34 337.49C376.702 338.067 376.95 338.709 377.07 339.38C377.163 340.042 377.196 340.711 377.17 341.38V353.31L376.66 353.24C377.012 352.04 377.8 351.016 378.87 350.37C379.325 350.107 379.817 349.915 380.33 349.8C380.592 349.74 380.862 349.72 381.13 349.74C381.391 349.754 381.652 349.784 381.91 349.83C382.933 350.053 383.862 350.588 384.57 351.36C385.87 352.89 386.737 354.741 387.08 356.72H386.57C386.632 356.055 386.871 355.419 387.261 354.878C387.652 354.336 388.179 353.909 388.79 353.64C389.383 353.388 390.016 353.246 390.66 353.22C390.992 353.186 391.327 353.186 391.66 353.22L392.14 353.28L392.6 353.42C393.199 353.639 393.745 353.981 394.205 354.424C394.665 354.866 395.027 355.399 395.27 355.99C395.774 357.104 396.075 358.299 396.16 359.52L395.66 359.47C395.795 358.826 396.086 358.226 396.508 357.722C396.93 357.218 397.47 356.825 398.08 356.58C399.288 356.109 400.633 356.138 401.82 356.66C402.406 356.909 402.937 357.272 403.38 357.73C403.781 358.196 404.117 358.714 404.38 359.27C404.857 360.38 405.164 361.557 405.29 362.76C405.72 367.51 404.7 372.02 404.01 376.29C403.32 380.56 402.55 384.72 401.78 388.63C401.01 392.54 400.2 396.24 399.47 399.74L399.11 399.63L399.27 399.23L399.45 399.49L376.92 399.82L377.04 399.69V399.82H377H371.63H371.54V399.73C371.233 397.415 370.628 395.149 369.74 392.99C369.44 392.25 369.18 391.7 368.99 391.33C368.8 390.96 368.73 390.77 368.73 390.77C369.151 391.469 369.522 392.198 369.84 392.95C370.776 395.107 371.415 397.381 371.74 399.71L371.64 399.62H377.01L376.88 399.75V399.63H377L399.52 399.17H399.81L399.7 399.44L399.54 399.84L399.18 399.73C399.893 396.23 400.647 392.523 401.44 388.61C402.2 384.7 403.04 380.61 403.63 376.29C404.22 371.97 405.31 367.51 404.88 362.88C404.761 361.732 404.467 360.609 404.01 359.55C403.745 359.035 403.408 358.56 403.01 358.14C402.612 357.723 402.141 357.384 401.62 357.14C400.551 356.68 399.344 356.659 398.26 357.08C397.72 357.289 397.243 357.632 396.872 358.076C396.502 358.52 396.25 359.051 396.14 359.62L395.78 361.35L395.64 359.57C395.556 358.419 395.272 357.292 394.8 356.24C394.585 355.712 394.264 355.235 393.856 354.837C393.448 354.44 392.963 354.131 392.43 353.93C391.309 353.62 390.117 353.691 389.04 354.13C388.517 354.36 388.065 354.725 387.73 355.187C387.394 355.649 387.187 356.192 387.13 356.76L386.97 358.45L386.61 356.79C386.278 354.913 385.457 353.157 384.23 351.7C383.627 350.982 382.791 350.498 381.868 350.334C380.945 350.169 379.994 350.334 379.18 350.8C378.213 351.374 377.499 352.291 377.18 353.37L376.67 354.95V341.36C376.699 340.725 376.673 340.089 376.59 339.46C376.474 338.853 376.247 338.273 375.92 337.75C375.6 337.231 375.181 336.78 374.687 336.423C374.193 336.066 373.633 335.81 373.04 335.67C371.858 335.419 370.624 335.645 369.608 336.299C368.591 336.952 367.873 337.98 367.61 339.16C367.503 339.75 367.463 340.35 367.49 340.95V342.8C367.36 352.59 367.23 361.8 367.11 370.21V370.84L366.73 370.34L360.28 362C359.851 361.313 359.294 360.716 358.64 360.24C357.961 359.857 357.188 359.673 356.41 359.71C355.649 359.737 354.903 359.924 354.22 360.26C353.563 360.558 353.047 361.099 352.78 361.77V361.77C352.39 362.958 352.39 364.241 352.78 365.43C353.121 366.583 353.651 367.671 354.35 368.65L358.02 374.23L363.87 383.16L367.54 388.8C367.95 389.44 368.26 389.93 368.49 390.27C368.72 390.61 368.75 390.78 368.75 390.78Z" fill="#263238"/>
<path d="M399.85 399.39H371.64C369.497 399.39 367.76 401.127 367.76 403.27V403.55C367.76 405.692 369.497 407.43 371.64 407.43H399.85C401.993 407.43 403.73 405.692 403.73 403.55V403.27C403.73 401.127 401.993 399.39 399.85 399.39Z" fill="#EBEBEB"/>
<path d="M399.86 407.43C399.86 407.43 400.14 407.43 400.66 407.29C401.429 407.103 402.125 406.692 402.66 406.11C403.029 405.696 403.305 405.209 403.47 404.68C403.645 404.028 403.682 403.347 403.58 402.68C403.453 401.892 403.076 401.166 402.506 400.608C401.935 400.05 401.201 399.689 400.41 399.58H371.68C371.029 399.585 370.391 399.763 369.83 400.095C369.27 400.427 368.808 400.901 368.49 401.47C368.196 402.035 368.045 402.663 368.05 403.3C368.012 404.23 368.33 405.14 368.939 405.844C369.549 406.548 370.404 406.994 371.33 407.09C372.56 407.09 373.84 407.09 375.04 407.09L387.97 407.15L396.69 407.23L399.06 407.28C399.338 407.269 399.616 407.285 399.89 407.33C399.616 407.374 399.338 407.391 399.06 407.38H396.69L387.97 407.46L375.04 407.52C373.82 407.52 372.6 407.52 371.28 407.52C370.589 407.451 369.927 407.211 369.352 406.822C368.778 406.433 368.309 405.906 367.99 405.29C367.644 404.644 367.47 403.92 367.484 403.187C367.498 402.455 367.699 401.738 368.07 401.106C368.44 400.474 368.967 399.947 369.599 399.576C370.231 399.206 370.947 399.004 371.68 398.99C382.92 398.99 393.05 398.99 400.46 399.12C401.322 399.242 402.12 399.643 402.733 400.26C403.347 400.877 403.742 401.677 403.86 402.54C403.955 403.233 403.904 403.938 403.71 404.61C403.521 405.171 403.211 405.683 402.8 406.11C402.245 406.701 401.517 407.1 400.72 407.25C400.445 407.356 400.154 407.416 399.86 407.43V407.43Z" fill="#263238"/>
<path d="M376.79 364.34C376.443 360.464 376.443 356.566 376.79 352.69C377.136 356.566 377.136 360.464 376.79 364.34V364.34Z" fill="#263238"/>
<path d="M386.82 363.55C386.473 361.253 386.473 358.917 386.82 356.62C387.167 358.917 387.167 361.253 386.82 363.55Z" fill="#263238"/>
<path d="M396 366.47C395.64 364.17 395.64 361.829 396 359.53C396.347 361.83 396.347 364.169 396 366.47V366.47Z" fill="#263238"/>
<path d="M365.28 334.86C363.379 334.18 361.539 333.34 359.78 332.35C357.94 331.504 356.176 330.5 354.51 329.35C358.249 330.874 361.852 332.714 365.28 334.85V334.86Z" fill="#263238"/>
<path d="M370.16 332.11C369.508 329.605 369.023 327.059 368.71 324.49C368.221 321.944 367.904 319.368 367.76 316.78C368.423 319.286 368.911 321.836 369.22 324.41C369.703 326.953 370.017 329.525 370.16 332.11V332.11Z" fill="#263238"/>
<path d="M376.23 332.81C377.221 330.956 378.358 329.184 379.63 327.51C380.764 325.741 382.041 324.069 383.45 322.51C381.335 326.142 378.92 329.591 376.23 332.82V332.81Z" fill="#263238"/>
<path d="M259.675 310H252.837V283.357H240.932V310H234.072V277.648H259.675V310ZM273.14 297.586C273.14 300.035 273.538 301.886 274.335 303.14C275.146 304.394 276.459 305.021 278.274 305.021C280.074 305.021 281.364 304.401 282.146 303.162C282.943 301.908 283.341 300.049 283.341 297.586C283.341 295.137 282.943 293.3 282.146 292.076C281.35 290.851 280.044 290.239 278.23 290.239C276.43 290.239 275.131 290.851 274.335 292.076C273.538 293.285 273.14 295.122 273.14 297.586ZM290.246 297.586C290.246 301.613 289.183 304.763 287.059 307.035C284.935 309.307 281.977 310.443 278.185 310.443C275.81 310.443 273.715 309.926 271.901 308.894C270.086 307.846 268.692 306.349 267.718 304.401C266.745 302.454 266.258 300.182 266.258 297.586C266.258 293.543 267.313 290.401 269.422 288.159C271.532 285.916 274.497 284.795 278.318 284.795C280.693 284.795 282.788 285.312 284.603 286.344C286.417 287.377 287.811 288.86 288.785 290.792C289.759 292.725 290.246 294.989 290.246 297.586ZM311.765 305.065V290.327H306.698C306.329 293.071 305.82 295.675 305.171 298.139C304.537 300.603 303.651 302.911 302.516 305.065H311.765ZM322.144 318.874H316.081V310H299.44V318.874H293.376V305.065H295.456C296.873 302.867 298.06 300.094 299.019 296.745C299.978 293.396 300.649 289.568 301.033 285.26H318.515V305.065H322.144V318.874ZM337.069 289.597C335.638 289.597 334.517 290.054 333.706 290.969C332.894 291.869 332.43 293.153 332.312 294.82H341.783C341.753 293.153 341.318 291.869 340.477 290.969C339.636 290.054 338.5 289.597 337.069 289.597ZM338.021 310.443C334.038 310.443 330.925 309.344 328.683 307.145C326.44 304.947 325.319 301.834 325.319 297.807C325.319 293.661 326.352 290.46 328.417 288.203C330.497 285.931 333.366 284.795 337.025 284.795C340.521 284.795 343.243 285.791 345.191 287.783C347.138 289.774 348.112 292.526 348.112 296.037V299.312H332.157C332.231 301.23 332.799 302.727 333.861 303.804C334.923 304.881 336.413 305.419 338.331 305.419C339.821 305.419 341.23 305.264 342.557 304.955C343.885 304.645 345.272 304.151 346.718 303.472V308.694C345.537 309.284 344.276 309.72 342.934 310C341.591 310.295 339.954 310.443 338.021 310.443ZM376.204 310H369.455V290.327H363.236C362.764 295.86 362.189 299.99 361.51 302.72C360.832 305.434 359.924 307.404 358.788 308.628C357.667 309.838 356.192 310.443 354.363 310.443C352.799 310.443 351.515 310.207 350.512 309.734V304.335C351.235 304.63 351.958 304.778 352.681 304.778C353.522 304.778 354.223 304.173 354.783 302.963C355.358 301.753 355.867 299.74 356.31 296.922C356.767 294.089 357.158 290.202 357.483 285.26H376.204V310ZM390.289 285.26V295.041C390.289 296.074 390.119 298.596 389.78 302.609L401.198 285.26H409.319V310H402.791V300.131C402.791 298.375 402.939 295.897 403.234 292.695L391.86 310H383.76V285.26H390.289ZM437.345 285.26V290.327H429.246V310H422.497V290.327H414.375V285.26H437.345ZM449.173 294.82H453.93C457.737 294.82 460.554 295.424 462.384 296.634C464.213 297.844 465.128 299.673 465.128 302.122C465.128 307.374 461.484 310 454.196 310H442.423V285.26H449.173V294.82ZM458.378 302.211C458.378 301.252 457.995 300.558 457.228 300.131C456.46 299.703 455.317 299.489 453.798 299.489H449.173V305.331H453.886C456.881 305.331 458.378 304.291 458.378 302.211ZM480.761 310.443C473.06 310.443 469.21 306.216 469.21 297.763C469.21 293.558 470.257 290.35 472.352 288.137C474.447 285.909 477.449 284.795 481.359 284.795C484.221 284.795 486.788 285.356 489.06 286.477L487.068 291.699C486.006 291.272 485.017 290.925 484.103 290.659C483.188 290.379 482.273 290.239 481.359 290.239C477.848 290.239 476.092 292.732 476.092 297.718C476.092 302.557 477.848 304.977 481.359 304.977C482.657 304.977 483.859 304.807 484.966 304.468C486.072 304.114 487.179 303.568 488.285 302.83V308.606C487.193 309.299 486.087 309.779 484.966 310.044C483.859 310.31 482.458 310.443 480.761 310.443ZM498.254 310H490.951L497.612 300.219C496.019 299.555 494.809 298.596 493.983 297.342C493.171 296.088 492.766 294.613 492.766 292.916C492.766 290.527 493.658 288.653 495.443 287.296C497.243 285.939 499.692 285.26 502.79 285.26H514.297V310H507.548V300.794H503.83L498.254 310ZM499.382 292.961C499.382 293.993 499.788 294.805 500.599 295.395C501.411 295.97 502.473 296.258 503.786 296.258H507.548V290.018H502.923C501.816 290.018 500.946 290.291 500.312 290.836C499.692 291.367 499.382 292.076 499.382 292.961Z" fill="#111111"/>
</svg>
