<svg width="296" height="221" viewBox="0 0 296 221" fill="none" xmlns="http://www.w3.org/2000/svg">
<path d="M1 2.70829C35.0939 0.801344 45.8316 -2.29549 80.5359 6.86786C106.128 13.6252 139.474 29.1794 161.71 44.0518C172.854 51.5047 186.316 62.7038 190.953 76.446C193.798 84.8744 190.774 97.9701 188.054 106.13C185.848 112.749 182.024 121.812 175.45 125.352C169.785 128.403 157.713 130.63 153.833 123.84C145.057 108.483 178.325 95.044 185.723 92.8322C207.861 86.2128 224.526 85.8628 247.234 90.9415C262.937 94.4537 291.543 104.637 295.195 124.47C296.527 131.705 290.525 141.169 285.615 145.394C266.221 162.083 236.171 171.022 212.886 179.49C173.582 193.782 74.5532 209.868 34.0264 220" stroke="#ACA9A9" stroke-linecap="round" stroke-linejoin="round" stroke-dasharray="5 5"/>
</svg>
