<svg width="166" height="129" fill="none" xmlns="http://www.w3.org/2000/svg"><path d="M120.829 37.828c0 14.216-7.851 27.105-20.483 33.633a3.723 3.723 0 01-1.716.425 3.824 3.824 0 01-2.527-.99 3.612 3.612 0 01-1.188-2.714A3.669 3.669 0 0196.9 64.9a30.313 30.313 0 0016.525-27.066c0-16.769-13.646-30.418-30.42-30.418-.245 0-.494 0-.744.011-16.438.396-29.748 14.103-29.674 30.556A30.342 30.342 0 0069.09 64.884a3.686 3.686 0 012 3.291c0 2.302-1.92 3.729-3.701 3.729a3.582 3.582 0 01-1.65-.406c-12.737-6.54-20.614-19.493-20.568-33.804C45.247 17.2 61.969.29 82.459.002H83c20.861 0 37.829 16.973 37.829 37.828" fill="#fff"/><path d="M120.829 37.828c0 14.216-7.851 27.105-20.483 33.633a3.723 3.723 0 01-1.716.425 3.824 3.824 0 01-2.527-.99 3.612 3.612 0 01-1.188-2.714A3.669 3.669 0 0196.9 64.9a30.313 30.313 0 0016.525-27.066c0-16.769-13.646-30.418-30.42-30.418-.245 0-.494 0-.744.011-16.438.396-29.748 14.103-29.674 30.556A30.342 30.342 0 0069.09 64.884a3.686 3.686 0 012 3.291c0 2.302-1.92 3.729-3.701 3.729a3.582 3.582 0 01-1.65-.406c-12.737-6.54-20.614-19.493-20.568-33.804C45.247 17.2 61.969.29 82.459.002H83c20.861 0 37.829 16.973 37.829 37.828" fill="#2D2D2D"/><path d="M80.493 69.337c-.05.042-.094.088-.14.134l.015-.017c.04-.041.08-.08.125-.117M80.353 69.466c-.1.1-.193.207-.282.318.086-.113.18-.22.282-.318M82.844 68.361a2.727 2.727 0 00-.254.015c.075-.007.165-.01.254-.015" fill="#000"/><path d="M80.353 69.466c-.1.1-.193.207-.282.318.086-.113.18-.22.282-.318M80.493 69.337c-.05.042-.094.088-.14.134l.015-.017c.04-.041.08-.08.125-.117M82.844 68.361a2.727 2.727 0 00-.254.015c.075-.007.165-.01.254-.015" fill="#000"/><path d="M80.353 69.466c-.1.1-.193.207-.282.318.086-.113.18-.22.282-.318M80.493 69.337c-.05.042-.094.088-.14.134l.015-.017c.04-.041.08-.08.125-.117M82.844 68.361a2.727 2.727 0 00-.254.015c.075-.007.165-.01.254-.015" fill="#fff"/><path d="M80.353 69.466c-.1.1-.193.207-.282.318.086-.113.18-.22.282-.318M80.493 69.337c-.05.042-.094.088-.14.134l.015-.017c.04-.041.08-.08.125-.117M82.844 68.361a2.727 2.727 0 00-.254.015c.075-.007.165-.01.254-.015" fill="#fff"/><path d="M80.353 69.466c-.1.1-.193.207-.282.318.086-.113.18-.22.282-.318M80.493 69.337c-.05.042-.094.088-.14.134l.015-.017c.04-.041.08-.08.125-.117M82.844 68.361a2.727 2.727 0 00-.254.015c.075-.007.165-.01.254-.015" fill="#fff"/><path d="M86.72 72.078c0 .07 0 .14-.007.21-.008.07-.012.152-.02.226-.008.075-.015.121-.023.18-.02.11-.043.214-.07.32l-.047.16c-.02.066-.04.124-.062.182a3.797 3.797 0 01-.43.835 2.375 2.375 0 01-.152.198c-.035.047-.074.093-.109.137-.008 0-.011.012-.016.016l-.128.14-.024.023c-.04.043-.08.083-.125.12h-.011a3.565 3.565 0 01-.74.527 3.253 3.253 0 01-.414.191 2.915 2.915 0 01-.434.14c-.073.02-.147.036-.221.048a2.431 2.431 0 01-.277.043 4.093 4.093 0 01-.41.023c-.148 0-.297-.011-.432-.023a.05.05 0 01-.024 0l-.227-.035a3.765 3.765 0 01-1.06-.375h-.007a3.646 3.646 0 01-.753-.534l-.059-.055c-.066-.058-.124-.12-.187-.187v-.008c-.035-.038-.074-.078-.11-.12l-.012-.016a3.906 3.906 0 01-.187-.261.08.08 0 01-.018-.024v-.008l-.106-.163c-.008-.016-.02-.032-.027-.047a.388.388 0 00-.031-.055c-.016-.035-.04-.07-.063-.113a.42.42 0 00-.02-.043v-.011a.136.136 0 01-.022-.05 2.997 2.997 0 01-.215-.555.041.041 0 010-.02 4.294 4.294 0 01-.074-.313 2.458 2.458 0 01-.035-.237 5.084 5.084 0 01-.02-.242v-.023c0-.063-.008-.125-.008-.191a1.005 1.005 0 010-.11.874.874 0 010-.105c0-.078.012-.152.02-.23l.023-.18a3.407 3.407 0 01.18-.662 3.448 3.448 0 01.304-.64c.038-.066.082-.128.124-.19a4.126 4.126 0 01.43-.515c.038-.044.082-.08.124-.118.225-.213.478-.393.754-.534a4.056 4.056 0 01.408-.19c.212-.082.432-.144.655-.186l.227-.036c.099-.012.198-.019.304-.023h.156c.305.001.608.038.904.11a4.483 4.483 0 01.434.136c.135.053.267.114.396.183.007 0 .011 0 .02.008.272.145.524.325.751.534.016.02.04.036.059.058.055.05.107.101.156.157.05.05.099.099.144.155.075.099.149.198.22.297l.084.136c.031.05.063.1.09.157.02.03.035.062.055.093.05.106.099.198.128.28a.705.705 0 01.032.083l.019.054c.032.08.06.162.082.246v.02c.024.078.043.157.058.237a2.311 2.311 0 01.051.313 2.656 2.656 0 01.02.265c0 .062.007.125.007.198" fill="red"/><path d="M80.368 69.449c.038-.043.082-.078.125-.117-.05.042-.094.088-.14.134l.015-.017M80.353 69.466c-.1.1-.193.207-.282.318.086-.113.18-.22.282-.318M82.59 68.376c.075-.008.165-.01.254-.015a2.727 2.727 0 00-.254.015M83.433 68.376c.16.018.317.048.471.09a3.903 3.903 0 00-.904-.109c.148 0 .297.008.433.02zM84.338 68.603c.137.048.27.11.396.183a3.617 3.617 0 00-.396-.183M85.632 69.445c.032.03.062.064.09.099a1.788 1.788 0 00-.156-.156l.066.058" fill="#2D2D2D"/><path d="M102.839 30.064a3.727 3.727 0 01-3.721 3.72H86.722v24.724c0 1.758-1.669 3.19-3.72 3.19s-3.72-1.432-3.72-3.19V33.784H67.049c-2.105 0-3.849-1.637-3.883-3.654a3.725 3.725 0 013.72-3.787h32.232a3.725 3.725 0 013.721 3.72" fill="red"/><path d="M14.148 128.147c-1.587 0-2.38-.809-2.38-2.427V99.53H2.058C.686 99.53 0 98.86 0 97.517c0-1.312.687-1.968 2.06-1.968h24.13c1.404 0 2.106.656 2.107 1.968 0 1.344-.703 2.015-2.107 2.014h-9.706v26.19c0 1.619-.778 2.427-2.335 2.427M45.861 127.826c-1.187 0-1.935-.465-2.244-1.396-.309-.931-.034-1.976.824-3.137L61.565 99.53H45.498c-1.435 0-2.153-.671-2.152-2.014 0-1.312.717-1.968 2.152-1.968h19.456c1.22 0 1.984.457 2.29 1.373.305.916.03 1.969-.825 3.16l-17.17 23.762h16.757c1.435 0 2.152.656 2.152 1.968 0 1.344-.717 2.016-2.152 2.015H45.861zM75.472 128.147c-.916 0-1.55-.297-1.9-.891-.352-.593-.329-1.319.068-2.177l12.408-27.838c.304-.701.686-1.212 1.144-1.533a2.723 2.723 0 011.604-.48c.548-.001 1.083.167 1.533.48.473.32.862.832 1.168 1.533l12.408 27.838c.396.886.434 1.618.114 2.198-.32.58-.923.87-1.808.87-.673 0-1.207-.168-1.603-.504-.396-.336-.747-.854-1.053-1.556l-2.656-6.135H80.555l-2.61 6.135c-.305.732-.64 1.26-1.008 1.583-.366.323-.855.483-1.464.481v-.004zm13.232-27.33l-6.456 15.289h13.05l-6.502-15.293-.093.004zM111.78 128.147c-1.587 0-2.38-.809-2.38-2.427V97.974c0-1.618.809-2.427 2.426-2.426h10.943c3.48 0 6.166.831 8.058 2.494 1.893 1.663 2.839 3.991 2.839 6.983 0 2.411-.641 4.388-1.923 5.929-1.283 1.542-3.099 2.572-5.449 3.091 1.466.488 2.702 1.663 3.709 3.525l3.937 7.322c.459.824.55 1.572.275 2.243-.275.672-.901 1.008-1.88 1.008-.671 0-1.221-.138-1.648-.413-.428-.275-.794-.717-1.099-1.327l-4.805-8.878c-.641-1.187-1.381-1.988-2.22-2.403-.839-.415-1.915-.621-3.228-.618h-5.174v11.217c0 1.619-.793 2.427-2.381 2.427v-.001zm2.381-17.217h7.825c4.701 0 7.051-1.938 7.051-5.815 0-3.845-2.35-5.768-7.051-5.769h-7.829l.004 11.584zM152.813 128.239c-4.304 0-7.592-1.137-9.866-3.412-2.274-2.274-3.411-5.609-3.411-10.004V97.606c0-1.587.794-2.38 2.381-2.38 1.587 0 2.38.793 2.38 2.38v17.124c0 6.257 2.839 9.386 8.516 9.386s8.516-3.129 8.517-9.386V97.608c0-1.587.778-2.38 2.335-2.38s2.335.793 2.335 2.38v17.217c0 4.396-1.114 7.73-3.342 10.004-2.229 2.274-5.51 3.411-9.845 3.412" fill="#2D2D2D"/><path d="M38.165 97.898v.133c0 .044-.007.098-.012.142l-.015.114c-.013.069-.027.135-.044.198l-.03.099c-.01.039-.024.078-.04.115a2.298 2.298 0 01-.202.425 1.187 1.187 0 01-.069.099c-.024.03-.061.084-.099.124-.037.04-.046.058-.068.086-.006 0-.008.006-.01.01l-.082.088-.015.014a.95.95 0 01-.078.078h-.008c-.141.13-.299.241-.468.332a1.96 1.96 0 01-.261.121 1.82 1.82 0 01-.136.049c-.047.015-.09.027-.137.04-.047.013-.1.022-.14.03l-.1.016c-.034.005-.052.008-.079.01a2.228 2.228 0 01-.532 0 .037.037 0 01-.015 0l-.142-.023a2.29 2.29 0 01-.67-.236h-.006a2.37 2.37 0 01-.476-.337l-.037-.035a1.67 1.67 0 01-.118-.119v-.005l-.069-.076-.007-.01a3.23 3.23 0 01-.13-.18v-.005l-.067-.099-.017-.03a.228.228 0 00-.02-.034c-.01-.022-.024-.045-.039-.071-.005-.01-.007-.02-.012-.028s0-.005 0-.007a2.054 2.054 0 01-.15-.382.03.03 0 010-.012 2.297 2.297 0 01-.07-.35c-.005-.052-.01-.1-.011-.153v-.014c0-.04-.005-.08-.005-.121a.533.533 0 010-.07v-.066c0-.05.008-.099.013-.145l.013-.114a2.16 2.16 0 01.075-.303c.01-.03.024-.079.04-.115l.036-.1a2.335 2.335 0 01.505-.75c.025-.028.052-.05.079-.075.142-.134.302-.247.475-.337a2.27 2.27 0 01.262-.12c.134-.053.272-.092.413-.12l.144-.021c.064-.007.127-.012.192-.015h.099a2.462 2.462 0 01.71.108l.135.046a2.62 2.62 0 01.263.12c.172.094.332.207.476.34.01.011.025.021.037.036.034.03.066.064.099.099.032.034.06.064.09.099.047.061.094.125.138.19l.054.086c.021.032.04.065.057.099l.035.058a3.365 3.365 0 01.1.23l.013.034c.02.051.037.103.052.156v.012a1.875 1.875 0 01.046.197c.01.05.017.1.022.15a1.545 1.545 0 01.013.168v.123" fill="red"/><path d="M34.02 127.826h3.597a.558.558 0 00.559-.559v-23.438a.558.558 0 00-.56-.559H34.02a.56.56 0 00-.517.345.558.558 0 00-.042.214v23.438a.557.557 0 00.559.559" fill="#2D2D2D"/></svg>