<svg width="140" height="43" fill="none" xmlns="http://www.w3.org/2000/svg"><path d="M42 20.94c0 7.116-3.943 13.57-10.288 16.838a1.872 1.872 0 01-.861.213 1.924 1.924 0 01-1.27-.495 1.81 1.81 0 01-.596-1.36 1.833 1.833 0 01.997-1.643 15.21 15.21 0 006.069-5.608 15.144 15.144 0 002.23-7.943c0-8.396-6.854-15.23-15.278-15.23-.123 0-.248 0-.374.005-8.256.198-14.942 7.061-14.904 15.299.009 2.787.787 5.518 2.249 7.894a15.222 15.222 0 006.04 5.576 1.85 1.85 0 011.004 1.647c0 1.153-.964 1.867-1.859 1.867-.289 0-.573-.07-.829-.203C7.934 34.523 3.978 28.037 4 20.872 4.037 10.61 12.437 2.145 22.728 2H23c10.478 0 19 8.498 19 18.94" fill="#fff"/><path d="M42 20.94c0 7.116-3.943 13.57-10.288 16.838a1.872 1.872 0 01-.861.213 1.924 1.924 0 01-1.27-.495 1.81 1.81 0 01-.596-1.36 1.833 1.833 0 01.997-1.643 15.21 15.21 0 006.069-5.608 15.144 15.144 0 002.23-7.943c0-8.396-6.854-15.23-15.278-15.23-.123 0-.248 0-.374.005-8.256.198-14.942 7.061-14.904 15.299.009 2.787.787 5.518 2.249 7.894a15.222 15.222 0 006.04 5.576 1.85 1.85 0 011.004 1.647c0 1.153-.964 1.867-1.859 1.867-.289 0-.573-.07-.829-.203C7.934 34.523 3.978 28.037 4 20.872 4.037 10.61 12.437 2.145 22.728 2H23c10.478 0 19 8.498 19 18.94" fill="#2D2D2D"/><path d="M24.999 37.997c0 .038 0 .075-.004.113-.005.038-.007.082-.011.122l-.012.096c-.01.06-.024.116-.038.173l-.025.086c-.01.036-.021.067-.034.098a2.037 2.037 0 01-.232.45 1.259 1.259 0 01-.081.107l-.06.073c-.003 0-.005.007-.008.009l-.069.075-.013.013a.86.86 0 01-.067.065h-.006a1.92 1.92 0 01-.622.386 1.582 1.582 0 01-.234.076c-.04.01-.08.019-.12.025a1.312 1.312 0 01-.149.023 2.2 2.2 0 01-.466 0l-.123-.018a1.992 1.992 0 01-.571-.202h-.004a1.962 1.962 0 01-.406-.288l-.031-.03c-.036-.03-.068-.064-.101-.1v-.004l-.06-.065-.006-.009a2.154 2.154 0 01-.11-.153v-.005l-.058-.088-.014-.025a.209.209 0 00-.017-.03c-.009-.018-.021-.037-.034-.06a.25.25 0 00-.01-.023v-.007a1.565 1.565 0 01-.157-.451 1.31 1.31 0 01-.03-.181 2.607 2.607 0 01-.01-.13v-.013c0-.033-.005-.067-.005-.103a.583.583 0 010-.059.484.484 0 010-.056c0-.042.006-.082.01-.124l.013-.097a1.86 1.86 0 01.097-.357 1.858 1.858 0 01.164-.344c.02-.036.044-.07.067-.103a2.212 2.212 0 01.232-.278c.02-.022.044-.042.067-.062a1.75 1.75 0 01.405-.288 2.301 2.301 0 01.22-.102c.115-.044.233-.078.354-.1l.122-.02c.053-.006.107-.01.164-.012H23c.164 0 .328.02.487.059a1.87 1.87 0 01.458.176c.147.078.283.175.405.288.009.01.022.019.032.031a.97.97 0 01.084.084c.027.028.053.054.078.084l.118.16.046.073c.016.028.033.054.048.085l.03.05c.027.057.053.106.069.151l.017.044.01.03c.017.043.032.087.044.132v.01a1.126 1.126 0 01.04.168c.009.043.015.086.02.129.005.041.008.085.01.13a.028.028 0 010 .012c0 .034.004.068.004.107M33 16.894c0 .502-.199.984-.55 1.339a1.868 1.868 0 01-1.326.555h-6.249v12.588c0 .895-.84 1.624-1.875 1.624-1.034 0-1.875-.729-1.875-1.624V18.788h-6.167c-1.061 0-1.94-.833-1.958-1.86a1.915 1.915 0 01.539-1.36A1.878 1.878 0 0114.876 15h16.248c.498 0 .974.2 1.326.556.351.355.55.836.55 1.338z" fill="red"/><path d="M54.722 31.595c-.891 0-1.337-.454-1.337-1.362V15.528h-5.45c-.772 0-1.157-.377-1.157-1.13 0-.737.385-1.106 1.157-1.106h13.547c.789 0 1.182.369 1.183 1.105 0 .755-.394 1.132-1.183 1.131h-5.45v14.705c0 .908-.436 1.362-1.31 1.362zM72.527 31.415c-.666 0-1.086-.261-1.26-.784-.173-.523-.019-1.11.463-1.761l9.614-13.342h-9.02c-.807 0-1.21-.377-1.209-1.13 0-.737.403-1.106 1.208-1.106h10.924c.685 0 1.114.257 1.285.771.172.514.017 1.106-.462 1.774L74.43 29.18h9.408c.805 0 1.208.368 1.208 1.105 0 .754-.403 1.131-1.208 1.131h-11.31zM89.152 31.595c-.514 0-.87-.167-1.067-.5-.197-.333-.184-.74.039-1.222l6.966-15.63c.17-.394.385-.68.642-.86a1.53 1.53 0 01.9-.27c.308 0 .609.093.862.27.265.18.484.466.655.86l6.967 15.63c.222.497.243.908.064 1.234-.18.325-.518.488-1.015.488-.378 0-.678-.094-.9-.283-.222-.188-.42-.48-.591-.874l-1.491-3.444h-9.178l-1.465 3.444c-.171.412-.36.708-.566.89-.206.18-.48.27-.822.27v-.003zm7.429-15.344l-3.625 8.583h7.327l-3.65-8.586-.052.003zM109.538 31.595c-.891 0-1.337-.454-1.337-1.362V14.654c0-.908.454-1.362 1.362-1.362h6.144c1.954 0 3.462.467 4.525 1.4 1.062.934 1.593 2.241 1.593 3.921 0 1.354-.36 2.464-1.08 3.33-.72.865-1.739 1.443-3.058 1.735.822.273 1.516.933 2.082 1.979l2.21 4.11c.258.463.309.883.155 1.26-.155.377-.506.566-1.056.566-.377 0-.685-.077-.925-.232-.24-.154-.446-.403-.617-.745l-2.698-4.984c-.36-.667-.775-1.117-1.246-1.35-.472-.233-1.075-.348-1.813-.347h-2.905v6.298c0 .909-.445 1.363-1.336 1.363v-.001zm1.336-9.666h4.394c2.639 0 3.959-1.088 3.959-3.265 0-2.159-1.32-3.239-3.959-3.239h-4.396l.002 6.504zM132.576 31.647c-2.417 0-4.263-.639-5.54-1.916-1.277-1.277-1.915-3.15-1.915-5.617v-9.666c0-.891.446-1.337 1.337-1.337s1.336.446 1.336 1.337v9.614c0 3.513 1.594 5.27 4.782 5.27 3.187 0 4.781-1.757 4.781-5.27V14.45c0-.891.437-1.337 1.311-1.337.874 0 1.311.446 1.311 1.337v9.667c0 2.467-.625 4.34-1.876 5.616-1.251 1.277-3.094 1.915-5.527 1.916" fill="#2D2D2D"/><path d="M68.206 14.612v.074c0 .025-.004.056-.007.08l-.008.064a1.44 1.44 0 01-.025.111c-.005.02-.011.039-.017.056a.54.54 0 01-.022.065 1.249 1.249 0 01-.152.294c-.014.017-.034.047-.056.069-.02.022-.026.033-.038.048-.003 0-.004.004-.006.006l-.046.05-.008.008a.544.544 0 01-.044.043h-.004a1.288 1.288 0 01-.486.282l-.077.022c-.026.008-.056.013-.079.017a1.028 1.028 0 01-.055.01l-.045.005a1.38 1.38 0 01-.307 0l-.08-.013a1.312 1.312 0 01-.377-.133h-.002a1.327 1.327 0 01-.268-.189l-.02-.02a.944.944 0 01-.066-.066v-.003l-.04-.043-.003-.005a1.791 1.791 0 01-.073-.101v-.003l-.038-.056-.01-.016a.126.126 0 00-.01-.02l-.022-.04-.007-.015c-.003-.005 0-.003 0-.004a1.124 1.124 0 01-.123-.418c-.003-.029-.006-.055-.007-.085v-.009c0-.022-.003-.044-.003-.068a.21.21 0 010-.039v-.037c0-.027.004-.055.007-.081l.008-.064a1.224 1.224 0 01.042-.17c.005-.017.014-.045.022-.065l.02-.056a1.324 1.324 0 01.284-.421c.014-.016.03-.028.044-.042a1.185 1.185 0 01.34-.226 1.345 1.345 0 01.307-.098l.08-.012.108-.009h.055a1.38 1.38 0 01.475.087 1.474 1.474 0 01.147.068c.097.052.187.116.268.19.005.006.014.012.02.02.02.017.037.037.056.056l.05.055c.027.035.053.071.078.107.01.015.02.03.03.049a.537.537 0 01.032.055l.02.033a1.894 1.894 0 01.056.129l.008.02c.01.028.02.057.028.086v.007a1.06 1.06 0 01.039.195.92.92 0 01.007.095v.068" fill="red"/><path d="M65.879 31.415h2.02a.314.314 0 00.313-.314v-13.16a.317.317 0 00-.194-.29.312.312 0 00-.12-.023h-2.02a.311.311 0 00-.29.194.32.32 0 00-.023.12V31.1a.314.314 0 00.314.314z" fill="#2D2D2D"/></svg>