<svg width="120" height="121" fill="none" xmlns="http://www.w3.org/2000/svg"><path d="M65.908 114.325c0 .111 0 .221-.013.332-.013.112-.019.242-.031.36-.013.118-.024.191-.037.284-.03.174-.069.34-.11.508l-.075.253a3.62 3.62 0 01-.099.29 1.583 1.583 0 01-.094.248 6.01 6.01 0 01-.414.817 6.189 6.189 0 01-.173.26 3.665 3.665 0 01-.241.314c-.055.074-.118.147-.173.217-.012 0-.019.018-.025.025l-.204.221-.038.038a2.565 2.565 0 01-.197.191h-.02a5.658 5.658 0 01-1.173.835c-.212.116-.43.217-.656.303-.112.044-.223.088-.34.124-.119.036-.23.069-.348.099a3.51 3.51 0 01-.351.075 4.466 4.466 0 01-.44.068 6.413 6.413 0 01-.65.037c-.235 0-.47-.019-.685-.037a.08.08 0 01-.038 0l-.36-.055a5.878 5.878 0 01-.864-.236 5.956 5.956 0 01-.818-.359h-.01a5.792 5.792 0 01-1.195-.848l-.093-.086a4.329 4.329 0 01-.296-.297v-.012c-.057-.061-.118-.124-.175-.192l-.018-.025a6.042 6.042 0 01-.297-.414.126.126 0 01-.03-.038v-.012l-.168-.259c-.012-.025-.031-.05-.042-.074a.606.606 0 00-.05-.088c-.025-.055-.062-.11-.1-.179a.68.68 0 00-.03-.067v-.019a.216.216 0 01-.037-.08 4.678 4.678 0 01-.13-.28 1.347 1.347 0 01-.08-.21 4.575 4.575 0 01-.13-.389.065.065 0 010-.031 6.965 6.965 0 01-.087-.339 1.246 1.246 0 01-.031-.157 3.883 3.883 0 01-.055-.377 8.05 8.05 0 01-.031-.385v-.036c0-.099-.013-.197-.013-.303a1.578 1.578 0 010-.174 1.393 1.393 0 010-.166c0-.124.019-.242.032-.366.012-.092.023-.191.036-.284a5.428 5.428 0 01.186-.761c.028-.099.06-.196.1-.29.029-.087.06-.167.092-.248.11-.266.24-.522.389-.766.061-.105.13-.204.198-.303.067-.099.136-.193.21-.286.147-.186.304-.363.47-.532.062-.067.131-.124.199-.185a5.172 5.172 0 011.194-.848c.104-.055.215-.111.314-.157a5.859 5.859 0 011.373-.439l.36-.057c.157-.018.313-.029.481-.036h.248c.484.002.965.06 1.435.173a6.442 6.442 0 01.687.217c.215.084.425.181.628.29.013 0 .019 0 .031.013.432.23.833.515 1.193.847.025.031.063.057.093.093.087.077.17.16.248.248.08.08.157.157.229.246.118.157.235.314.347.471l.135.216c.048.08.099.157.142.248.032.049.055.099.087.148.08.168.157.314.204.446.02.042.036.085.05.13l.03.086c.05.127.094.257.13.389v.032c.038.124.07.249.093.377.012.038.02.077.025.117.025.125.044.251.056.378a4.313 4.313 0 01.03.421c0 .099.013.198.013.314" fill="red"/><path d="M120 59.997c0 22.546-12.452 42.99-32.487 53.345-.84.44-1.774.671-2.722.673a6.06 6.06 0 01-4.008-1.569 5.735 5.735 0 01-1.884-4.305 5.817 5.817 0 013.149-5.208 48.085 48.085 0 0026.209-42.929c0-26.597-21.644-48.246-48.247-48.246-.39 0-.785 0-1.182.018-26.072.627-47.184 22.367-47.066 48.464a48.126 48.126 0 0026.175 42.67 5.847 5.847 0 013.172 5.22c0 3.65-3.043 5.914-5.87 5.914a5.688 5.688 0 01-2.616-.644C12.42 103.028-.073 82.482 0 59.783.118 27.278 26.642.458 59.14 0H60c33.087 0 60 26.92 60 60" fill="#2D2D2D"/><path d="M91.461 47.678a5.909 5.909 0 01-5.901 5.902H65.898v39.214c0 2.788-2.646 5.06-5.9 5.06-3.253 0-5.9-2.272-5.9-5.06V53.58H34.695c-3.34 0-6.105-2.598-6.16-5.796a5.91 5.91 0 015.901-6.007H85.56a5.91 5.91 0 015.901 5.901" fill="red"/></svg>