<svg width="148" height="115" fill="none" xmlns="http://www.w3.org/2000/svg"><path d="M107.412 33.628c0 12.637-6.979 24.095-18.208 29.899-.47.246-.994.376-1.525.377a3.4 3.4 0 01-2.247-.88 3.21 3.21 0 01-1.055-2.412 3.26 3.26 0 011.764-2.919 26.954 26.954 0 0014.69-24.06c0-14.907-12.131-27.04-27.042-27.04-.218 0-.44 0-.662.009-14.612.352-26.445 12.536-26.38 27.163A26.973 26.973 0 0061.419 57.68a3.277 3.277 0 011.778 2.926c0 2.046-1.706 3.314-3.29 3.314-.51 0-1.013-.124-1.466-.36-11.323-5.814-18.325-17.33-18.284-30.051C40.222 15.29 55.087.259 73.302.002h.482c18.544 0 33.628 15.088 33.628 33.628" fill="#fff"/><path d="M107.412 33.628c0 12.637-6.979 24.095-18.208 29.899-.47.246-.994.376-1.525.377a3.4 3.4 0 01-2.247-.88 3.21 3.21 0 01-1.055-2.412 3.26 3.26 0 011.764-2.919 26.954 26.954 0 0014.69-24.06c0-14.907-12.131-27.04-27.042-27.04-.218 0-.44 0-.662.009-14.612.352-26.445 12.536-26.38 27.163A26.973 26.973 0 0061.419 57.68a3.277 3.277 0 011.778 2.926c0 2.046-1.706 3.314-3.29 3.314-.51 0-1.013-.124-1.466-.36-11.323-5.814-18.325-17.33-18.284-30.051C40.222 15.29 55.087.259 73.302.002h.482c18.544 0 33.628 15.088 33.628 33.628" fill="#2D2D2D"/><path d="M71.555 61.638c-.044.037-.084.079-.124.12l.013-.016c.035-.036.072-.071.11-.104M73.645 60.771a2.443 2.443 0 00-.225.013c.066-.006.146-.01.225-.013M71.431 61.753" fill="#000"/><path d="M71.555 61.638c-.044.037-.084.079-.124.12l.013-.016c.035-.036.072-.071.11-.104M73.645 60.771a2.443 2.443 0 00-.225.013c.066-.006.146-.01.225-.013" fill="#000"/><path d="M71.555 61.638c-.044.037-.084.079-.124.12l.013-.016c.035-.036.072-.071.11-.104M73.645 60.771a2.443 2.443 0 00-.225.013c.066-.006.146-.01.225-.013M71.431 61.753" fill="#fff"/><path d="M71.555 61.638c-.044.037-.084.079-.124.12l.013-.016c.035-.036.072-.071.11-.104M73.645 60.771a2.443 2.443 0 00-.225.013c.066-.006.146-.01.225-.013M71.431 61.753" fill="#fff"/><path d="M71.555 61.638c-.044.037-.084.079-.124.12l.013-.016c.035-.036.072-.071.11-.104M73.645 60.771a2.443 2.443 0 00-.225.013c.066-.006.146-.01.225-.013" fill="#fff"/><path d="M77.091 64.075c0 .063 0 .124-.006.187-.007.062-.011.135-.018.201-.007.066-.013.107-.02.16a4.17 4.17 0 01-.063.284l-.041.142c-.018.059-.035.11-.055.163a3.395 3.395 0 01-.382.742c-.042.061-.088.12-.136.176-.03.041-.066.083-.097.121-.007 0-.01.01-.014.014l-.114.124-.021.022a1.386 1.386 0 01-.11.107h-.011a3.17 3.17 0 01-1.026.638c-.063.024-.125.049-.191.07-.066.02-.128.038-.194.055-.065.017-.131.031-.197.042a2.137 2.137 0 01-.247.038c-.12.013-.242.02-.364.02-.132 0-.264-.01-.384-.02a.044.044 0 01-.021 0l-.202-.031a3.354 3.354 0 01-.943-.333h-.006a3.235 3.235 0 01-.67-.476l-.051-.048c-.06-.052-.111-.107-.166-.166V66.3c-.032-.035-.066-.07-.098-.108l-.01-.014a3.518 3.518 0 01-.167-.232.07.07 0 01-.017-.021v-.007l-.094-.145c-.007-.014-.017-.028-.023-.042a.358.358 0 00-.029-.049c-.014-.03-.034-.061-.055-.1a.38.38 0 00-.018-.038v-.01a.122.122 0 01-.02-.045 2.699 2.699 0 01-.19-.493.037.037 0 010-.017 3.806 3.806 0 01-.067-.278 2.16 2.16 0 01-.03-.212 4.344 4.344 0 01-.018-.215v-.02c0-.056-.007-.111-.007-.17a.936.936 0 010-.098.805.805 0 010-.093c0-.07.01-.136.017-.205l.02-.16a3.074 3.074 0 01.16-.588l.053-.14a3.07 3.07 0 01.218-.429c.034-.059.073-.114.11-.17a3.66 3.66 0 01.382-.458c.035-.038.073-.07.111-.104.2-.19.425-.349.67-.475a3.65 3.65 0 01.363-.168c.188-.073.383-.129.582-.166l.202-.032a3.29 3.29 0 01.27-.02h.139a3.463 3.463 0 01.998.152 2.99 2.99 0 01.543.23c.007 0 .01 0 .017.006.243.13.467.29.669.475.014.018.035.032.052.052.049.043.095.09.139.139.045.045.088.088.128.138.066.088.132.176.195.264l.075.121c.027.045.056.088.08.14.018.027.031.055.049.082.044.094.088.176.114.25.01.024.02.048.028.073l.017.048c.028.072.053.144.073.218v.018c.021.07.038.14.052.211a2.048 2.048 0 01.046.278 2.369 2.369 0 01.016.236c0 .055.007.11.007.176" fill="red"/><path d="M71.444 61.738c.034-.038.073-.07.11-.104-.043.037-.083.078-.123.119l.013-.015M73.42 60.784c.066-.007.146-.01.225-.013a2.443 2.443 0 00-.225.013M74.17 60.784c.14.016.28.043.418.08a3.468 3.468 0 00-.804-.096c.132 0 .264.007.385.016zM74.973 60.986a2 2 0 01.352.162 3.23 3.23 0 00-.352-.162M76.124 61.734a.94.94 0 01.08.088 1.615 1.615 0 00-.14-.139l.06.052" fill="#2D2D2D"/><path d="M91.42 26.726a3.312 3.312 0 01-3.308 3.307h-11.02v21.979c0 1.563-1.483 2.836-3.306 2.836s-3.307-1.273-3.307-2.836V30.033H59.605c-1.872 0-3.422-1.455-3.453-3.248a3.312 3.312 0 013.307-3.366h28.653a3.312 3.312 0 013.308 3.307" fill="red"/><path d="M12.577 113.918c-1.411 0-2.117-.719-2.117-2.157V88.479H1.83C.61 88.48 0 87.882 0 86.69c0-1.167.61-1.75 1.831-1.75h21.451c1.248 0 1.872.583 1.873 1.75 0 1.194-.625 1.79-1.873 1.79h-8.628v23.282c0 1.439-.692 2.158-2.076 2.157M40.769 113.633c-1.056 0-1.72-.414-1.995-1.241-.275-.827-.03-1.757.733-2.788l15.222-21.125H40.446c-1.276 0-1.914-.597-1.913-1.79 0-1.167.638-1.75 1.913-1.75h17.295c1.086 0 1.764.407 2.036 1.22.271.815.027 1.75-.733 2.81l-15.263 21.124h14.896c1.276 0 1.913.583 1.913 1.749 0 1.195-.637 1.792-1.913 1.791H40.77zM67.092 113.918c-.815 0-1.378-.264-1.69-.791-.312-.528-.291-1.173.062-1.936l11.03-24.747c.27-.624.61-1.078 1.017-1.363a2.421 2.421 0 011.425-.427c.487 0 .963.149 1.363.427.42.285.767.74 1.038 1.363l11.031 24.747c.352.787.386 1.439.101 1.954-.284.516-.82.773-1.607.773-.598 0-1.073-.149-1.425-.447-.352-.299-.664-.76-.936-1.384l-2.36-5.454H71.61l-2.32 5.454c-.272.651-.57 1.12-.896 1.407-.326.288-.76.43-1.302.428v-.004zm11.762-24.295l-5.739 13.591h11.601l-5.78-13.595-.082.004zM99.369 113.918c-1.411 0-2.117-.719-2.117-2.157V87.096c0-1.439.72-2.158 2.157-2.157h9.728c3.093 0 5.481.739 7.164 2.217 1.682 1.479 2.523 3.548 2.523 6.208 0 2.143-.57 3.9-1.71 5.27-1.14 1.371-2.754 2.287-4.843 2.749 1.303.433 2.402 1.477 3.297 3.133l3.5 6.509c.408.733.489 1.397.245 1.994-.245.597-.802.896-1.672.896-.597 0-1.085-.123-1.465-.367-.38-.245-.706-.638-.977-1.18l-4.271-7.892c-.57-1.055-1.228-1.767-1.974-2.136-.746-.369-1.702-.552-2.869-.55h-4.6v9.972c0 1.439-.705 2.158-2.116 2.157v-.001zm2.116-15.305h6.956c4.179 0 6.269-1.723 6.269-5.169 0-3.418-2.09-5.128-6.269-5.128h-6.959l.003 10.297zM135.845 114c-3.825 0-6.749-1.011-8.77-3.033-2.022-2.022-3.032-4.986-3.032-8.893V86.769c0-1.411.705-2.117 2.116-2.117s2.116.706 2.116 2.117v15.222c0 5.563 2.524 8.344 7.57 8.344 5.047 0 7.571-2.781 7.571-8.344v-15.22c0-1.412.692-2.117 2.076-2.117 1.384 0 2.076.705 2.076 2.116v15.306c0 3.907-.99 6.871-2.971 8.893-1.981 2.021-4.898 3.032-8.752 3.033" fill="#2D2D2D"/><path d="M33.927 87.028v.118c0 .04-.006.088-.01.126l-.014.102a2.223 2.223 0 01-.28.744c-.02.03-.04.06-.062.088-.022.027-.054.075-.088.11-.033.035-.041.052-.06.076-.006 0-.007.007-.01.01l-.072.077-.013.014a.833.833 0 01-.07.068h-.007a2.036 2.036 0 01-.416.296 1.795 1.795 0 01-.232.107c-.04.016-.079.03-.12.044l-.123.035c-.041.012-.088.02-.125.027l-.088.015c-.03.004-.047.007-.07.008a2.203 2.203 0 01-.487 0l-.126-.02a2.137 2.137 0 01-.596-.21h-.005a2.102 2.102 0 01-.423-.3l-.033-.03a1.489 1.489 0 01-.104-.106v-.005l-.062-.067-.006-.01a2.844 2.844 0 01-.116-.16v-.004l-.06-.088-.014-.026a.212.212 0 00-.018-.03c-.009-.02-.022-.04-.035-.064-.004-.01-.006-.018-.01-.025-.005-.007 0-.004 0-.006a1.77 1.77 0 01-.176-.528 1.324 1.324 0 01-.02-.133c-.004-.046-.009-.089-.01-.136v-.013c0-.035-.005-.07-.005-.108a.452.452 0 010-.061v-.059c0-.044.007-.088.012-.13l.012-.1a1.926 1.926 0 01.066-.27c.009-.026.022-.07.035-.103l.033-.088a2.083 2.083 0 01.45-.667c.021-.025.045-.044.069-.066.126-.12.268-.22.423-.3a1.933 1.933 0 01.232-.107c.12-.046.242-.082.368-.106l.127-.02c.057-.005.114-.01.17-.013h.089c.17 0 .341.021.507.061l.124.035a2.324 2.324 0 01.354.149c.153.082.295.183.423.3.009.011.022.02.033.033.03.027.059.058.088.088l.08.088c.042.055.083.112.123.17.016.023.03.048.048.076a.955.955 0 01.05.088c.012.017.02.034.031.052a3.075 3.075 0 01.09.204l.011.03c.018.046.033.092.046.139v.01a1.66 1.66 0 01.041.175c.01.044.016.089.02.134a1.351 1.351 0 01.011.15v.109" fill="red"/><path d="M30.242 113.633h3.198a.497.497 0 00.497-.497V92.3a.498.498 0 00-.497-.496h-3.198a.496.496 0 00-.497.496v20.836a.5.5 0 00.497.497" fill="#2D2D2D"/></svg>