<svg width="197" height="68" viewBox="0 0 197 68" fill="none" xmlns="http://www.w3.org/2000/svg">
<path d="M36.0596 53H31.958L24.7559 29.0986C24.4141 28.0407 24.0316 26.7061 23.6084 25.0947C23.1852 23.4834 22.9655 22.515 22.9492 22.1895C22.5911 24.3379 22.0215 26.6898 21.2402 29.2451L14.2578 53H10.1562L0.65918 17.3066H5.05371L10.6934 39.3525C11.4746 42.445 12.0443 45.2445 12.4023 47.751C12.8418 44.7725 13.4928 41.859 14.3555 39.0107L20.752 17.3066H25.1465L31.8604 39.2061C32.6416 41.7288 33.3008 44.5771 33.8379 47.751C34.1471 45.4398 34.7331 42.624 35.5957 39.3037L41.2109 17.3066H45.6055L36.0596 53Z" fill="#111111"/>
<path d="M102.058 38.1562V53H97.9072V17.3066H107.697C112.076 17.3066 115.306 18.1449 117.39 19.8213C119.489 21.4977 120.539 24.0205 120.539 27.3896C120.539 32.1097 118.146 35.2998 113.361 36.96L123.054 53H118.146L109.504 38.1562H102.058ZM102.058 34.5918H107.746C110.676 34.5918 112.824 34.014 114.191 32.8584C115.559 31.6865 116.242 29.9368 116.242 27.6094C116.242 25.2493 115.542 23.5485 114.143 22.5068C112.759 21.4652 110.529 20.9443 107.453 20.9443H102.058V34.5918ZM133.815 53V17.3066H137.966V49.2402H153.713V53H133.815ZM193.283 34.8115C193.283 40.7035 191.68 45.2119 188.474 48.3369C185.284 51.4456 180.686 53 174.68 53H164.792V17.3066H175.729C181.28 17.3066 185.593 18.8447 188.669 21.9209C191.745 24.9971 193.283 29.2939 193.283 34.8115ZM188.889 34.958C188.889 30.3031 187.717 26.7956 185.373 24.4355C183.046 22.0755 179.579 20.8955 174.973 20.8955H168.942V49.4111H173.996C178.944 49.4111 182.663 48.1986 185.153 45.7734C187.644 43.332 188.889 39.7269 188.889 34.958Z" fill="#111111"/>
<path d="M90 35.9997C90 43.5152 85.8495 50.3296 79.1691 53.781C78.8891 53.9277 78.5779 54.0049 78.2618 54.0058C77.7896 54.0058 77.2991 53.8173 76.9257 53.48C76.7258 53.2986 76.5667 53.077 76.4586 52.8297C76.3506 52.5823 76.2962 52.3149 76.299 52.0451C76.2968 51.687 76.3938 51.3353 76.5791 51.0289C76.7644 50.7225 77.0308 50.4733 77.3489 50.3089C82.7368 47.5378 86.0829 42.0555 86.0829 35.9997C86.0829 27.1338 78.8678 19.9174 70.0006 19.9174C69.8708 19.9174 69.7389 19.9195 69.6067 19.9236C60.9161 20.132 53.879 27.3793 53.9183 36.078C53.9471 42.0945 57.2913 47.5481 62.6461 50.3049C62.9656 50.4693 63.2335 50.7188 63.4202 51.0259C63.6069 51.333 63.705 51.6857 63.7039 52.0451C63.7039 53.2614 62.6894 54.016 61.7472 54.016C61.4434 54.0152 61.1442 53.9413 60.8749 53.8007C54.1404 50.3442 49.9753 43.4952 50.0001 35.9302C50.0394 25.0947 58.8813 16.1545 69.7136 16.0019C69.8084 16.0019 69.9053 16 70.0001 16C81.0288 16 90 24.973 90 35.9997Z" fill="white"/>
<path d="M90 35.9997C90 43.5152 85.8495 50.3296 79.1691 53.781C78.8891 53.9277 78.5779 54.0049 78.2618 54.0058C77.7896 54.0058 77.2991 53.8173 76.9257 53.48C76.7258 53.2986 76.5667 53.077 76.4586 52.8297C76.3506 52.5823 76.2962 52.3149 76.299 52.0451C76.2968 51.687 76.3938 51.3353 76.5791 51.0289C76.7644 50.7225 77.0308 50.4733 77.3489 50.3089C82.7368 47.5378 86.0829 42.0555 86.0829 35.9997C86.0829 27.1338 78.8678 19.9174 70.0006 19.9174C69.8708 19.9174 69.7389 19.9195 69.6067 19.9236C60.9161 20.132 53.879 27.3793 53.9183 36.078C53.9471 42.0945 57.2913 47.5481 62.6461 50.3049C62.9656 50.4693 63.2335 50.7188 63.4202 51.0259C63.6069 51.333 63.705 51.6857 63.7039 52.0451C63.7039 53.2614 62.6894 54.016 61.7472 54.016C61.4434 54.0152 61.1442 53.9413 60.8749 53.8007C54.1404 50.3442 49.9753 43.4952 50.0001 35.9302C50.0394 25.0947 58.8813 16.1545 69.7136 16.0019C69.8084 16.0019 69.9053 16 70.0001 16C81.0288 16 90 24.973 90 35.9997Z" fill="#111111"/>
<path d="M68.6756 52.6558C68.6487 52.6778 68.6258 52.7026 68.6016 52.7266C68.6045 52.7236 68.6067 52.7204 68.6096 52.7177C68.6304 52.6958 68.6525 52.6751 68.6756 52.6558Z" fill="#111111"/>
<path d="M68.6017 52.7251C68.5493 52.7786 68.4997 52.8347 68.4531 52.8934C68.4983 52.8335 68.5479 52.7773 68.6017 52.7251Z" fill="#111111"/>
<path d="M69.9154 52.1431C69.8616 52.145 69.8077 52.1493 69.7539 52.1554C69.7627 52.153 69.7717 52.1515 69.7808 52.1511C69.8201 52.1471 69.8675 52.145 69.9154 52.1431Z" fill="#111111"/>
<path d="M68.6017 52.7251C68.5493 52.7786 68.4997 52.8347 68.4531 52.8934C68.4983 52.8335 68.5479 52.7773 68.6017 52.7251Z" fill="#111111"/>
<path d="M68.6756 52.6558C68.6487 52.6778 68.6258 52.7026 68.6016 52.7266C68.6045 52.7236 68.6067 52.7204 68.6096 52.7177C68.6304 52.6958 68.6525 52.6751 68.6756 52.6558Z" fill="#111111"/>
<path d="M69.9154 52.1431C69.8616 52.145 69.8077 52.1493 69.7539 52.1554C69.7627 52.153 69.7717 52.1515 69.7808 52.1511C69.8201 52.1471 69.8675 52.145 69.9154 52.1431Z" fill="#111111"/>
<path d="M68.6017 52.7251C68.5493 52.7786 68.4997 52.8347 68.4531 52.8934C68.4983 52.8335 68.5479 52.7773 68.6017 52.7251Z" fill="white"/>
<path d="M68.6756 52.6558C68.6487 52.6778 68.6258 52.7026 68.6016 52.7266C68.6045 52.7236 68.6067 52.7204 68.6096 52.7177C68.6304 52.6958 68.6525 52.6751 68.6756 52.6558Z" fill="white"/>
<path d="M69.9154 52.1431C69.8616 52.145 69.8077 52.1493 69.7539 52.1554C69.7627 52.153 69.7717 52.1515 69.7808 52.1511C69.8201 52.1471 69.8675 52.145 69.9154 52.1431Z" fill="white"/>
<path d="M68.6017 52.7251C68.5493 52.7786 68.4997 52.8347 68.4531 52.8934C68.4983 52.8335 68.5479 52.7773 68.6017 52.7251Z" fill="white"/>
<path d="M68.6756 52.6558C68.6487 52.6778 68.6258 52.7026 68.6016 52.7266C68.6045 52.7236 68.6067 52.7204 68.6096 52.7177C68.6304 52.6958 68.6525 52.6751 68.6756 52.6558Z" fill="white"/>
<path d="M69.9154 52.1431C69.8616 52.145 69.8077 52.1493 69.7539 52.1554C69.7627 52.153 69.7717 52.1515 69.7808 52.1511C69.8201 52.1471 69.8675 52.145 69.9154 52.1431Z" fill="white"/>
<path d="M68.6017 52.7251C68.5493 52.7786 68.4997 52.8347 68.4531 52.8934C68.4983 52.8335 68.5479 52.7773 68.6017 52.7251Z" fill="white"/>
<path d="M68.6756 52.6558C68.6487 52.6778 68.6258 52.7026 68.6016 52.7266C68.6045 52.7236 68.6067 52.7204 68.6096 52.7177C68.6304 52.6958 68.6525 52.6751 68.6756 52.6558Z" fill="white"/>
<path d="M69.9154 52.1431C69.8616 52.145 69.8077 52.1493 69.7539 52.1554C69.7627 52.153 69.7717 52.1515 69.7808 52.1511C69.8201 52.1471 69.8675 52.145 69.9154 52.1431Z" fill="white"/>
<path d="M71.9649 54.1051V54.1073C71.9649 54.1444 71.963 54.1816 71.9608 54.2188C71.9587 54.2559 71.9547 54.2995 71.9506 54.3383C71.9466 54.3711 71.9423 54.4021 71.9382 54.433C71.928 54.4909 71.9156 54.5464 71.9011 54.6021C71.8927 54.6309 71.8847 54.66 71.8763 54.6867C71.8661 54.7217 71.8559 54.7526 71.8435 54.7836C71.8352 54.8119 71.8249 54.8395 71.8125 54.8662C71.7754 54.9551 71.7319 55.0412 71.6825 55.1239C71.6806 55.129 71.6779 55.1339 71.6744 55.1381C71.6558 55.1672 71.6372 55.196 71.6165 55.2248C71.5914 55.2606 71.5645 55.295 71.5358 55.3279C71.5174 55.3527 71.4967 55.3775 71.4781 55.4001C71.4749 55.4024 71.4721 55.4052 71.4698 55.4084L71.4019 55.4825L71.3896 55.4948C71.3688 55.5177 71.3462 55.5382 71.3236 55.5589H71.3171C71.1988 55.6678 71.0672 55.7613 70.9254 55.8373V55.8392C70.8549 55.8778 70.7819 55.9116 70.7068 55.9404C70.6697 55.9547 70.6325 55.9692 70.5932 55.9816C70.5539 55.994 70.517 56.0042 70.478 56.0144C70.4392 56.0247 70.4 56.033 70.3603 56.0392C70.3334 56.0454 70.3065 56.0497 70.2796 56.0537C70.257 56.0559 70.2365 56.0599 70.2136 56.0621C70.152 56.068 70.0755 56.0742 69.9982 56.0742C69.921 56.0742 69.8437 56.068 69.7694 56.0621C69.7652 56.0624 69.7609 56.0617 69.757 56.0599L69.6375 56.0414C69.5394 56.0227 69.4429 55.9966 69.3489 55.963H69.3467C69.2532 55.9298 69.1623 55.8898 69.0746 55.8435C69.0724 55.8435 69.0724 55.8413 69.0705 55.8413C68.9265 55.7643 68.7928 55.6694 68.6726 55.5589L68.6417 55.5301C68.6067 55.4992 68.5757 55.466 68.5426 55.431C68.5426 55.4289 68.5426 55.4289 68.5407 55.427C68.5221 55.4063 68.5014 55.3858 68.4828 55.3629C68.4807 55.361 68.4788 55.3567 68.4766 55.3549C68.4416 55.3094 68.4085 55.2641 68.3776 55.2165C68.3735 55.2129 68.3701 55.2087 68.3673 55.2041C68.3673 55.2022 68.3652 55.2022 68.3652 55.2001C68.3469 55.1712 68.3283 55.1424 68.3097 55.1136C68.3054 55.1053 68.2995 55.0969 68.2952 55.0889C68.2905 55.0787 68.285 55.069 68.2788 55.0598C68.2704 55.0415 68.258 55.0229 68.2456 55C68.2416 54.9919 68.2394 54.9836 68.2354 54.9774C68.2354 54.9753 68.2333 54.9734 68.2333 54.9712C68.2271 54.9633 68.2229 54.9541 68.2209 54.9443C68.2044 54.9112 68.1902 54.8802 68.1778 54.8514C68.167 54.8288 68.158 54.8054 68.1509 54.7814C68.1344 54.7382 68.1199 54.6948 68.1075 54.6514C68.1062 54.6482 68.1055 54.6447 68.1056 54.6412C68.0951 54.604 68.0849 54.5647 68.0766 54.5275C68.072 54.5098 68.0686 54.4918 68.0663 54.4737C68.058 54.4321 68.0518 54.3902 68.0478 54.348C68.0416 54.3046 68.0397 54.2613 68.0375 54.2201C68.0375 54.2161 68.0354 54.212 68.0354 54.2077C68.0335 54.1749 68.0313 54.1418 68.0313 54.1068C68.031 54.0875 68.0317 54.0683 68.0335 54.0491C68.0331 54.0305 68.0338 54.0119 68.0354 53.9934C68.0375 53.9522 68.0416 53.9127 68.0456 53.8717C68.0499 53.8408 68.054 53.8079 68.058 53.777C68.0681 53.7172 68.0812 53.658 68.0973 53.5996C68.1035 53.5748 68.1116 53.5481 68.1199 53.5234C68.1301 53.4884 68.1406 53.4574 68.153 53.4264C68.1654 53.3955 68.1735 53.3707 68.184 53.3438C68.2205 53.2554 68.2639 53.1699 68.3137 53.0883C68.3345 53.0533 68.3571 53.0202 68.3797 52.9871C68.4023 52.954 68.4252 52.9233 68.45 52.8923C68.4987 52.8303 68.5511 52.7711 68.6067 52.7152C68.6275 52.6933 68.6495 52.6726 68.6726 52.6532C68.7912 52.5407 68.9251 52.4456 69.0705 52.3708C69.1055 52.3523 69.1427 52.3337 69.1782 52.317C69.2137 52.3003 69.2525 52.2842 69.2897 52.2696C69.4018 52.2261 69.5177 52.193 69.6359 52.1708L69.7554 52.1522C69.8093 52.146 69.8631 52.1417 69.9169 52.1399C69.9439 52.1377 69.9727 52.1377 69.9993 52.1377C70.1605 52.1382 70.3211 52.1577 70.4777 52.1956C70.517 52.2058 70.5539 52.216 70.5932 52.2284C70.6325 52.2408 70.6694 52.2532 70.7066 52.2677C70.7785 52.2958 70.8487 52.3282 70.9168 52.3646C70.9211 52.3646 70.923 52.3665 70.9273 52.3687C71.0713 52.4457 71.205 52.5405 71.3252 52.6511C71.3333 52.6613 71.3457 52.6697 71.3559 52.6821C71.385 52.7079 71.4126 52.7354 71.4386 52.7644C71.4655 52.7914 71.49 52.8183 71.5148 52.8471C71.5541 52.8985 71.5931 52.9521 71.6302 53.0057L71.6757 53.0778C71.6922 53.1047 71.7086 53.1316 71.7231 53.1605C71.7334 53.1769 71.7417 53.1933 71.7519 53.21C71.7789 53.2655 71.8015 53.315 71.82 53.3583C71.8265 53.3724 71.8319 53.3869 71.8365 53.4017L71.8467 53.4305C71.8634 53.473 71.8779 53.5164 71.89 53.5605C71.891 53.5639 71.8917 53.5673 71.8922 53.5707C71.9047 53.6121 71.915 53.6541 71.9232 53.6965C71.9271 53.7093 71.9298 53.7224 71.9312 53.7358C71.9397 53.7773 71.9459 53.8193 71.9498 53.8615C71.956 53.9027 71.9582 53.946 71.9603 53.9894C71.9619 53.9933 71.9625 53.9975 71.9622 54.0018C71.9643 54.0346 71.9662 54.0677 71.9662 54.1046" fill="#FF0000"/>
<path d="M68.6096 52.7174C68.6305 52.6957 68.6525 52.6751 68.6756 52.6558C68.6487 52.6778 68.6258 52.7026 68.6016 52.7266C68.6045 52.7236 68.6067 52.7204 68.6096 52.7174Z" fill="#2D2D2D"/>
<path d="M68.6017 52.7251C68.5493 52.7786 68.4997 52.8347 68.4531 52.8934C68.4983 52.8335 68.5479 52.7773 68.6017 52.7251Z" fill="#2D2D2D"/>
<path d="M69.7847 52.1511C69.8238 52.1471 69.8714 52.145 69.9193 52.1431C69.8655 52.145 69.8117 52.1493 69.7578 52.1554C69.7666 52.153 69.7756 52.1515 69.7847 52.1511Z" fill="#2D2D2D"/>
<path d="M70.2288 52.1494C70.3131 52.1589 70.3965 52.1748 70.4784 52.197C70.3217 52.1591 70.1612 52.1397 70 52.1392C70.0783 52.1392 70.1548 52.1432 70.2288 52.1494Z" fill="#2D2D2D"/>
<path d="M70.707 52.27C70.7801 52.2954 70.8505 52.3278 70.9173 52.3669C70.8492 52.3305 70.779 52.2981 70.707 52.27Z" fill="#2D2D2D"/>
<path d="M71.3907 52.715C71.4076 52.7312 71.4234 52.7484 71.4381 52.7665C71.4121 52.7375 71.3845 52.71 71.3555 52.6841C71.3679 52.6943 71.3784 52.7048 71.3907 52.715Z" fill="#2D2D2D"/>
</svg>
