<svg width="104" height="104" viewBox="0 0 104 104" fill="none" xmlns="http://www.w3.org/2000/svg">
<path d="M57.3309 51.9382C59.8133 52.6364 61.6945 53.8388 62.9745 55.5455C64.2545 57.2133 64.8945 59.3273 64.8945 61.8873C64.8945 65.4558 63.6339 68.2679 61.1127 70.3236C58.6303 72.3794 55.2558 73.4073 50.9891 73.4073C48.4679 73.4073 46.0436 73 43.7164 72.1855C41.4279 71.3709 39.4885 70.2461 37.8982 68.8109C37.1224 68.1903 36.7345 67.4145 36.7345 66.4836C36.7345 65.7855 36.9285 65.2036 37.3164 64.7382C37.7042 64.2339 38.1697 63.9818 38.7127 63.9818C39.2945 63.9818 39.9539 64.2339 40.6909 64.7382C42.3588 65.9794 43.9879 66.9297 45.5782 67.5891C47.2073 68.2097 48.9527 68.52 50.8145 68.52C56.3224 68.52 59.0764 66.1733 59.0764 61.48C59.0764 59.1915 58.3394 57.4848 56.8655 56.36C55.4303 55.1964 53.2388 54.6145 50.2909 54.6145H47.0909C46.3539 54.6145 45.7721 54.3818 45.3455 53.9164C44.9188 53.4121 44.7055 52.8303 44.7055 52.1709C44.7055 51.5503 44.9188 51.0073 45.3455 50.5418C45.7721 50.0376 46.3539 49.7855 47.0909 49.7855H49.36C52.1915 49.7855 54.3442 49.2036 55.8182 48.04C57.3309 46.8376 58.0873 45.0921 58.0873 42.8036C58.0873 40.7867 57.4667 39.2158 56.2255 38.0909C55.023 36.9661 53.3164 36.4036 51.1055 36.4036C47.8473 36.4036 44.5891 37.6642 41.3309 40.1855C40.5939 40.6897 39.9345 40.9418 39.3527 40.9418C38.8097 40.9418 38.3442 40.7091 37.9564 40.2436C37.5685 39.7394 37.3745 39.1382 37.3745 38.44C37.3745 37.5091 37.7624 36.7333 38.5382 36.1127C40.1285 34.6776 42.0485 33.5527 44.2982 32.7382C46.5867 31.9236 48.9333 31.5164 51.3382 31.5164C55.1782 31.5164 58.2424 32.4861 60.5309 34.4255C62.8194 36.3648 63.9442 38.9636 63.9055 42.2218C63.9055 44.4715 63.3236 46.4691 62.16 48.2145C60.9964 49.9212 59.3867 51.1624 57.3309 51.9382Z" fill="#FF1E1E"/>
<circle cx="52" cy="98" r="5" fill="#FF1E1E"/>
<mask id="path-3-inside-1" fill="white">
<path d="M72.3679 97.3827C72.8782 98.5196 74.2159 99.032 75.3295 98.473C85.273 93.4815 93.3732 85.4205 98.4096 75.4553C103.786 64.8176 105.344 52.6558 102.825 41.0062C100.305 29.3566 93.8591 18.9262 84.5672 11.4614C75.2752 3.99657 63.7008 -0.0495416 51.7819 0.000457526C39.8629 0.0504567 28.3229 4.19353 19.0939 11.736C9.86485 19.2785 3.50708 29.7626 1.08499 41.433C-1.3371 53.1034 0.323511 65.2516 5.78881 75.8438C10.9086 85.7664 19.0762 93.7592 29.0612 98.667C30.1795 99.2167 31.5129 98.6931 32.0135 97.552C32.5142 96.4109 31.9921 95.0849 30.8761 94.5306C21.8374 90.0416 14.4444 82.778 9.79889 73.7747C4.80785 64.1017 3.29134 53.0076 5.50325 42.35C7.71516 31.6923 13.5212 22.118 21.9494 15.23C30.3775 8.34204 40.9161 4.55849 51.8008 4.51283C62.6855 4.46717 73.2554 8.16217 81.7411 14.9792C90.2267 21.7962 96.1129 31.3215 98.4142 41.9602C100.715 52.5989 99.292 63.7053 94.3823 73.4199C89.8125 82.4618 82.4807 89.7872 73.48 94.3519C72.3687 94.9155 71.8577 96.2459 72.3679 97.3827Z"/>
</mask>
<path d="M72.3679 97.3827C72.8782 98.5196 74.2159 99.032 75.3295 98.473C85.273 93.4815 93.3732 85.4205 98.4096 75.4553C103.786 64.8176 105.344 52.6558 102.825 41.0062C100.305 29.3566 93.8591 18.9262 84.5672 11.4614C75.2752 3.99657 63.7008 -0.0495416 51.7819 0.000457526C39.8629 0.0504567 28.3229 4.19353 19.0939 11.736C9.86485 19.2785 3.50708 29.7626 1.08499 41.433C-1.3371 53.1034 0.323511 65.2516 5.78881 75.8438C10.9086 85.7664 19.0762 93.7592 29.0612 98.667C30.1795 99.2167 31.5129 98.6931 32.0135 97.552C32.5142 96.4109 31.9921 95.0849 30.8761 94.5306C21.8374 90.0416 14.4444 82.778 9.79889 73.7747C4.80785 64.1017 3.29134 53.0076 5.50325 42.35C7.71516 31.6923 13.5212 22.118 21.9494 15.23C30.3775 8.34204 40.9161 4.55849 51.8008 4.51283C62.6855 4.46717 73.2554 8.16217 81.7411 14.9792C90.2267 21.7962 96.1129 31.3215 98.4142 41.9602C100.715 52.5989 99.292 63.7053 94.3823 73.4199C89.8125 82.4618 82.4807 89.7872 73.48 94.3519C72.3687 94.9155 71.8577 96.2459 72.3679 97.3827Z" stroke="#111111" stroke-width="6" stroke-linecap="round" mask="url(#path-3-inside-1)"/>
</svg>
