<svg width="104" height="104" viewBox="0 0 104 104" fill="none" xmlns="http://www.w3.org/2000/svg">
<path d="M62.7782 57.7345C64.6788 57.7345 65.6291 58.5297 65.6291 60.12C65.6291 61.7103 64.6788 62.5055 62.7782 62.5055H59.0545V68.2655C59.0545 69.2352 58.783 69.9915 58.24 70.5345C57.697 71.0388 56.9794 71.2909 56.0873 71.2909C55.2339 71.2909 54.5358 71.0388 53.9927 70.5345C53.4497 69.9915 53.1782 69.2352 53.1782 68.2655V62.5055H36.8291C35.9758 62.5055 35.3164 62.2727 34.8509 61.8073C34.3855 61.3418 34.1527 60.7406 34.1527 60.0036C34.1527 59.2279 34.4048 58.4715 34.9091 57.7345L53.4691 31.0291C54.0897 30.137 54.9624 29.6909 56.0873 29.6909C56.9018 29.6909 57.6 29.9624 58.1818 30.5055C58.7636 31.0097 59.0545 31.7467 59.0545 32.7164V57.7345H62.7782ZM40.6109 57.7345H53.1782V39.5818L40.6109 57.7345Z" fill="#FF1E1E"/>
<circle cx="52" cy="98" r="5" fill="#FF1E1E"/>
<mask id="path-3-inside-1" fill="white">
<path d="M72.3679 97.3827C72.8782 98.5196 74.2159 99.032 75.3295 98.473C85.273 93.4815 93.3732 85.4205 98.4096 75.4553C103.786 64.8176 105.344 52.6558 102.825 41.0062C100.305 29.3566 93.8591 18.9262 84.5672 11.4614C75.2752 3.99657 63.7008 -0.0495416 51.7819 0.000457526C39.8629 0.0504567 28.3229 4.19353 19.0939 11.736C9.86485 19.2785 3.50708 29.7626 1.08499 41.433C-1.3371 53.1034 0.323511 65.2516 5.78881 75.8438C10.9086 85.7664 19.0762 93.7592 29.0612 98.667C30.1795 99.2167 31.5129 98.6931 32.0135 97.552C32.5142 96.4109 31.9921 95.0849 30.8761 94.5306C21.8374 90.0416 14.4444 82.778 9.79889 73.7747C4.80785 64.1017 3.29134 53.0076 5.50325 42.35C7.71516 31.6923 13.5212 22.118 21.9494 15.23C30.3775 8.34204 40.9161 4.55849 51.8008 4.51283C62.6855 4.46717 73.2554 8.16217 81.7411 14.9792C90.2267 21.7962 96.1129 31.3215 98.4142 41.9602C100.715 52.5989 99.292 63.7053 94.3823 73.4199C89.8125 82.4618 82.4807 89.7872 73.48 94.3519C72.3687 94.9155 71.8577 96.2459 72.3679 97.3827Z"/>
</mask>
<path d="M72.3679 97.3827C72.8782 98.5196 74.2159 99.032 75.3295 98.473C85.273 93.4815 93.3732 85.4205 98.4096 75.4553C103.786 64.8176 105.344 52.6558 102.825 41.0062C100.305 29.3566 93.8591 18.9262 84.5672 11.4614C75.2752 3.99657 63.7008 -0.0495416 51.7819 0.000457526C39.8629 0.0504567 28.3229 4.19353 19.0939 11.736C9.86485 19.2785 3.50708 29.7626 1.08499 41.433C-1.3371 53.1034 0.323511 65.2516 5.78881 75.8438C10.9086 85.7664 19.0762 93.7592 29.0612 98.667C30.1795 99.2167 31.5129 98.6931 32.0135 97.552C32.5142 96.4109 31.9921 95.0849 30.8761 94.5306C21.8374 90.0416 14.4444 82.778 9.79889 73.7747C4.80785 64.1017 3.29134 53.0076 5.50325 42.35C7.71516 31.6923 13.5212 22.118 21.9494 15.23C30.3775 8.34204 40.9161 4.55849 51.8008 4.51283C62.6855 4.46717 73.2554 8.16217 81.7411 14.9792C90.2267 21.7962 96.1129 31.3215 98.4142 41.9602C100.715 52.5989 99.292 63.7053 94.3823 73.4199C89.8125 82.4618 82.4807 89.7872 73.48 94.3519C72.3687 94.9155 71.8577 96.2459 72.3679 97.3827Z" stroke="#111111" stroke-width="6" stroke-linecap="round" mask="url(#path-3-inside-1)"/>
</svg>
