<svg width="210" height="120" viewBox="0 0 210 120" fill="none" xmlns="http://www.w3.org/2000/svg">
<path d="M1.46277 119.189C1.35821 119.445 1.06625 119.567 0.810672 119.463C0.555092 119.358 0.432668 119.066 0.537231 118.811L1.46277 119.189ZM39.5294 9.75182L39.7133 10.2167L39.5294 9.75182ZM209.354 3.5526C209.549 3.74786 209.549 4.06445 209.354 4.25971L206.172 7.4417C205.976 7.63696 205.66 7.63696 205.464 7.4417C205.269 7.24643 205.269 6.92985 205.464 6.73459L208.293 3.90616L205.464 1.07773C205.269 0.882469 205.269 0.565887 205.464 0.370621C205.66 0.175362 205.976 0.175362 206.172 0.370621L209.354 3.5526ZM0.537231 118.811C3.42659 111.748 5.53121 102.103 7.49999 91.391C9.4646 80.7017 11.2941 68.9489 13.6319 57.7591C15.9706 46.5653 18.8286 35.8782 22.8702 27.2858C26.909 18.6995 32.1657 12.1284 39.3454 9.28691L39.7133 10.2167C32.8792 12.9215 27.7686 19.2214 23.7751 27.7114C19.7845 36.1954 16.9453 46.7899 14.6108 57.9636C12.2755 69.1412 10.4556 80.8417 8.48351 91.5718C6.51559 102.279 4.39613 112.019 1.46277 119.189L0.537231 118.811ZM39.3454 9.28691C52.2504 4.17952 66.5329 2.71629 80.9069 2.52319C88.0956 2.42661 95.3165 2.6478 102.405 2.89265C109.498 3.13763 116.454 3.40616 123.133 3.40616V4.40616C116.433 4.40616 109.455 4.13677 102.371 3.89205C95.2819 3.64719 88.0825 3.42687 80.9204 3.52309C66.5928 3.71558 52.4521 5.17519 39.7133 10.2167L39.3454 9.28691ZM123.133 3.40616C123.181 3.40616 123.228 3.40616 123.276 3.40616C123.324 3.40616 123.372 3.40616 123.42 3.40616C123.468 3.40616 123.516 3.40616 123.564 3.40616C123.612 3.40616 123.66 3.40616 123.708 3.40616C123.756 3.40616 123.805 3.40616 123.853 3.40616C123.901 3.40616 123.949 3.40616 123.998 3.40616C124.046 3.40616 124.094 3.40616 124.143 3.40616C124.191 3.40616 124.24 3.40616 124.288 3.40616C124.337 3.40616 124.385 3.40616 124.434 3.40616C124.483 3.40616 124.531 3.40616 124.58 3.40616C124.629 3.40616 124.677 3.40616 124.726 3.40616C124.775 3.40616 124.824 3.40616 124.873 3.40616C124.921 3.40616 124.97 3.40616 125.019 3.40616C125.068 3.40616 125.117 3.40616 125.166 3.40616C125.216 3.40616 125.265 3.40616 125.314 3.40616C125.363 3.40616 125.412 3.40616 125.461 3.40616C125.511 3.40616 125.56 3.40616 125.609 3.40616C125.659 3.40616 125.708 3.40616 125.757 3.40616C125.807 3.40616 125.856 3.40616 125.906 3.40616C125.955 3.40616 126.005 3.40616 126.054 3.40616C126.104 3.40616 126.154 3.40616 126.203 3.40616C126.253 3.40616 126.303 3.40616 126.353 3.40616C126.402 3.40616 126.452 3.40616 126.502 3.40616C126.552 3.40616 126.602 3.40616 126.652 3.40616C126.702 3.40616 126.752 3.40616 126.802 3.40616C126.852 3.40616 126.902 3.40616 126.952 3.40616C127.002 3.40616 127.052 3.40616 127.102 3.40616C127.153 3.40616 127.203 3.40616 127.253 3.40616C127.303 3.40616 127.354 3.40616 127.404 3.40616C127.454 3.40616 127.505 3.40616 127.555 3.40616C127.606 3.40616 127.656 3.40616 127.707 3.40616C127.757 3.40616 127.808 3.40616 127.859 3.40616C127.909 3.40616 127.96 3.40616 128.011 3.40616C128.061 3.40616 128.112 3.40616 128.163 3.40616C128.214 3.40616 128.264 3.40616 128.315 3.40616C128.366 3.40616 128.417 3.40616 128.468 3.40616C128.519 3.40616 128.57 3.40616 128.621 3.40616C128.672 3.40616 128.723 3.40616 128.774 3.40616C128.825 3.40616 128.877 3.40616 128.928 3.40616C128.979 3.40616 129.03 3.40616 129.082 3.40616C129.133 3.40616 129.184 3.40616 129.235 3.40616C129.287 3.40616 129.338 3.40616 129.39 3.40616C129.441 3.40616 129.493 3.40616 129.544 3.40616C129.596 3.40616 129.647 3.40616 129.699 3.40616C129.75 3.40616 129.802 3.40616 129.854 3.40616C129.905 3.40616 129.957 3.40616 130.009 3.40616C130.061 3.40616 130.112 3.40616 130.164 3.40616C130.216 3.40616 130.268 3.40616 130.32 3.40616C130.372 3.40616 130.424 3.40616 130.476 3.40616C130.528 3.40616 130.58 3.40616 130.632 3.40616C130.684 3.40616 130.736 3.40616 130.788 3.40616C130.84 3.40616 130.893 3.40616 130.945 3.40616C130.997 3.40616 131.049 3.40616 131.102 3.40616C131.154 3.40616 131.206 3.40616 131.258 3.40616C131.311 3.40616 131.363 3.40616 131.416 3.40616C131.468 3.40616 131.521 3.40616 131.573 3.40616C131.626 3.40616 131.678 3.40616 131.731 3.40616C131.783 3.40616 131.836 3.40616 131.889 3.40616C131.941 3.40616 131.994 3.40616 132.047 3.40616C132.1 3.40616 132.152 3.40616 132.205 3.40616C132.258 3.40616 132.311 3.40616 132.364 3.40616C132.417 3.40616 132.47 3.40616 132.523 3.40616C132.576 3.40616 132.629 3.40616 132.682 3.40616C132.735 3.40616 132.788 3.40616 132.841 3.40616C132.894 3.40616 132.947 3.40616 133 3.40616C133.053 3.40616 133.107 3.40616 133.16 3.40616C133.213 3.40616 133.266 3.40616 133.32 3.40616C133.373 3.40616 133.426 3.40616 133.48 3.40616C133.533 3.40616 133.587 3.40616 133.64 3.40616C133.693 3.40616 133.747 3.40616 133.8 3.40616C133.854 3.40616 133.908 3.40616 133.961 3.40616C134.015 3.40616 134.068 3.40616 134.122 3.40616C134.176 3.40616 134.229 3.40616 134.283 3.40616C134.337 3.40616 134.391 3.40616 134.444 3.40616C134.498 3.40616 134.552 3.40616 134.606 3.40616C134.66 3.40616 134.714 3.40616 134.768 3.40616C134.822 3.40616 134.876 3.40616 134.93 3.40616C134.984 3.40616 135.038 3.40616 135.092 3.40616C135.146 3.40616 135.2 3.40616 135.254 3.40616C135.308 3.40616 135.362 3.40616 135.417 3.40616C135.471 3.40616 135.525 3.40616 135.579 3.40616C135.633 3.40616 135.688 3.40616 135.742 3.40616C135.796 3.40616 135.851 3.40616 135.905 3.40616C135.96 3.40616 136.014 3.40616 136.068 3.40616C136.123 3.40616 136.177 3.40616 136.232 3.40616C136.287 3.40616 136.341 3.40616 136.396 3.40616C136.45 3.40616 136.505 3.40616 136.56 3.40616C136.614 3.40616 136.669 3.40616 136.724 3.40616C136.778 3.40616 136.833 3.40616 136.888 3.40616C136.943 3.40616 136.997 3.40616 137.052 3.40616C137.107 3.40616 137.162 3.40616 137.217 3.40616C137.272 3.40616 137.327 3.40616 137.382 3.40616C137.437 3.40616 137.492 3.40616 137.547 3.40616C137.602 3.40616 137.657 3.40616 137.712 3.40616C137.767 3.40616 137.822 3.40616 137.877 3.40616C137.932 3.40616 137.987 3.40616 138.043 3.40616C138.098 3.40616 138.153 3.40616 138.208 3.40616C138.264 3.40616 138.319 3.40616 138.374 3.40616C138.43 3.40616 138.485 3.40616 138.54 3.40616C138.596 3.40616 138.651 3.40616 138.706 3.40616C138.762 3.40616 138.817 3.40616 138.873 3.40616C138.928 3.40616 138.984 3.40616 139.039 3.40616C139.095 3.40616 139.151 3.40616 139.206 3.40616C139.262 3.40616 139.317 3.40616 139.373 3.40616C139.429 3.40616 139.485 3.40616 139.54 3.40616C139.596 3.40616 139.652 3.40616 139.708 3.40616C139.763 3.40616 139.819 3.40616 139.875 3.40616C139.931 3.40616 139.987 3.40616 140.043 3.40616C140.098 3.40616 140.154 3.40616 140.21 3.40616C140.266 3.40616 140.322 3.40616 140.378 3.40616C140.434 3.40616 140.49 3.40616 140.546 3.40616C140.602 3.40616 140.658 3.40616 140.715 3.40616C140.771 3.40616 140.827 3.40616 140.883 3.40616C140.939 3.40616 140.995 3.40616 141.052 3.40616C141.108 3.40616 141.164 3.40616 141.22 3.40616C141.277 3.40616 141.333 3.40616 141.389 3.40616C141.445 3.40616 141.502 3.40616 141.558 3.40616C141.615 3.40616 141.671 3.40616 141.727 3.40616C141.784 3.40616 141.84 3.40616 141.897 3.40616C141.953 3.40616 142.01 3.40616 142.066 3.40616C142.123 3.40616 142.179 3.40616 142.236 3.40616C142.292 3.40616 142.349 3.40616 142.406 3.40616C142.462 3.40616 142.519 3.40616 142.576 3.40616C142.632 3.40616 142.689 3.40616 142.746 3.40616C142.802 3.40616 142.859 3.40616 142.916 3.40616C142.973 3.40616 143.03 3.40616 143.086 3.40616C143.143 3.40616 143.2 3.40616 143.257 3.40616C143.314 3.40616 143.371 3.40616 143.428 3.40616C143.485 3.40616 143.542 3.40616 143.598 3.40616C143.655 3.40616 143.712 3.40616 143.769 3.40616C143.826 3.40616 143.884 3.40616 143.941 3.40616C143.998 3.40616 144.055 3.40616 144.112 3.40616C144.169 3.40616 144.226 3.40616 144.283 3.40616C144.34 3.40616 144.398 3.40616 144.455 3.40616C144.512 3.40616 144.569 3.40616 144.626 3.40616C144.684 3.40616 144.741 3.40616 144.798 3.40616C144.856 3.40616 144.913 3.40616 144.97 3.40616C145.027 3.40616 145.085 3.40616 145.142 3.40616C145.2 3.40616 145.257 3.40616 145.314 3.40616C145.372 3.40616 145.429 3.40616 145.487 3.40616C145.544 3.40616 145.602 3.40616 145.659 3.40616C145.717 3.40616 145.774 3.40616 145.832 3.40616C145.889 3.40616 145.947 3.40616 146.005 3.40616C146.062 3.40616 146.12 3.40616 146.177 3.40616C146.235 3.40616 146.293 3.40616 146.35 3.40616C146.408 3.40616 146.466 3.40616 146.523 3.40616C146.581 3.40616 146.639 3.40616 146.697 3.40616C146.754 3.40616 146.812 3.40616 146.87 3.40616C146.928 3.40616 146.986 3.40616 147.043 3.40616C147.101 3.40616 147.159 3.40616 147.217 3.40616C147.275 3.40616 147.333 3.40616 147.391 3.40616C147.449 3.40616 147.507 3.40616 147.565 3.40616C147.623 3.40616 147.68 3.40616 147.738 3.40616C147.796 3.40616 147.854 3.40616 147.913 3.40616C147.971 3.40616 148.029 3.40616 148.087 3.40616C148.145 3.40616 148.203 3.40616 148.261 3.40616C148.319 3.40616 148.377 3.40616 148.435 3.40616C148.493 3.40616 148.552 3.40616 148.61 3.40616C148.668 3.40616 148.726 3.40616 148.784 3.40616C148.843 3.40616 148.901 3.40616 148.959 3.40616C149.017 3.40616 149.076 3.40616 149.134 3.40616C149.192 3.40616 149.251 3.40616 149.309 3.40616C149.367 3.40616 149.426 3.40616 149.484 3.40616C149.542 3.40616 149.601 3.40616 149.659 3.40616C149.717 3.40616 149.776 3.40616 149.834 3.40616C149.893 3.40616 149.951 3.40616 150.01 3.40616C150.068 3.40616 150.127 3.40616 150.185 3.40616C150.244 3.40616 150.302 3.40616 150.361 3.40616C150.419 3.40616 150.478 3.40616 150.536 3.40616C150.595 3.40616 150.653 3.40616 150.712 3.40616C150.771 3.40616 150.829 3.40616 150.888 3.40616C150.946 3.40616 151.005 3.40616 151.064 3.40616C151.122 3.40616 151.181 3.40616 151.24 3.40616C151.298 3.40616 151.357 3.40616 151.416 3.40616C151.475 3.40616 151.533 3.40616 151.592 3.40616C151.651 3.40616 151.71 3.40616 151.768 3.40616C151.827 3.40616 151.886 3.40616 151.945 3.40616C152.004 3.40616 152.062 3.40616 152.121 3.40616C152.18 3.40616 152.239 3.40616 152.298 3.40616C152.357 3.40616 152.416 3.40616 152.474 3.40616C152.533 3.40616 152.592 3.40616 152.651 3.40616C152.71 3.40616 152.769 3.40616 152.828 3.40616C152.887 3.40616 152.946 3.40616 153.005 3.40616C153.064 3.40616 153.123 3.40616 153.182 3.40616C153.241 3.40616 153.3 3.40616 153.359 3.40616C153.418 3.40616 153.477 3.40616 153.536 3.40616C153.595 3.40616 153.654 3.40616 153.713 3.40616C153.772 3.40616 153.831 3.40616 153.891 3.40616C153.95 3.40616 154.009 3.40616 154.068 3.40616C154.127 3.40616 154.186 3.40616 154.245 3.40616C154.305 3.40616 154.364 3.40616 154.423 3.40616C154.482 3.40616 154.541 3.40616 154.601 3.40616C154.66 3.40616 154.719 3.40616 154.778 3.40616C154.837 3.40616 154.897 3.40616 154.956 3.40616C155.015 3.40616 155.074 3.40616 155.134 3.40616C155.193 3.40616 155.252 3.40616 155.312 3.40616C155.371 3.40616 155.43 3.40616 155.49 3.40616C155.549 3.40616 155.608 3.40616 155.668 3.40616C155.727 3.40616 155.786 3.40616 155.846 3.40616C155.905 3.40616 155.964 3.40616 156.024 3.40616C156.083 3.40616 156.143 3.40616 156.202 3.40616C156.261 3.40616 156.321 3.40616 156.38 3.40616C156.44 3.40616 156.499 3.40616 156.559 3.40616C156.618 3.40616 156.677 3.40616 156.737 3.40616C156.796 3.40616 156.856 3.40616 156.915 3.40616C156.975 3.40616 157.034 3.40616 157.094 3.40616C157.153 3.40616 157.213 3.40616 157.272 3.40616C157.332 3.40616 157.391 3.40616 157.451 3.40616C157.511 3.40616 157.57 3.40616 157.63 3.40616C157.689 3.40616 157.749 3.40616 157.808 3.40616C157.868 3.40616 157.928 3.40616 157.987 3.40616C158.047 3.40616 158.106 3.40616 158.166 3.40616C158.226 3.40616 158.285 3.40616 158.345 3.40616C158.404 3.40616 158.464 3.40616 158.524 3.40616C158.583 3.40616 158.643 3.40616 158.703 3.40616C158.762 3.40616 158.822 3.40616 158.882 3.40616C158.941 3.40616 159.001 3.40616 159.061 3.40616C159.12 3.40616 159.18 3.40616 159.24 3.40616C159.299 3.40616 159.359 3.40616 159.419 3.40616C159.479 3.40616 159.538 3.40616 159.598 3.40616C159.658 3.40616 159.718 3.40616 159.777 3.40616C159.837 3.40616 159.897 3.40616 159.957 3.40616C160.016 3.40616 160.076 3.40616 160.136 3.40616C160.196 3.40616 160.255 3.40616 160.315 3.40616C160.375 3.40616 160.435 3.40616 160.495 3.40616C160.554 3.40616 160.614 3.40616 160.674 3.40616C160.734 3.40616 160.794 3.40616 160.853 3.40616C160.913 3.40616 160.973 3.40616 161.033 3.40616C161.093 3.40616 161.152 3.40616 161.212 3.40616C161.272 3.40616 161.332 3.40616 161.392 3.40616C161.452 3.40616 161.512 3.40616 161.571 3.40616C161.631 3.40616 161.691 3.40616 161.751 3.40616C161.811 3.40616 161.871 3.40616 161.931 3.40616C161.99 3.40616 162.05 3.40616 162.11 3.40616C162.17 3.40616 162.23 3.40616 162.29 3.40616C162.35 3.40616 162.41 3.40616 162.47 3.40616C162.529 3.40616 162.589 3.40616 162.649 3.40616C162.709 3.40616 162.769 3.40616 162.829 3.40616C162.889 3.40616 162.949 3.40616 163.009 3.40616C163.069 3.40616 163.129 3.40616 163.188 3.40616C163.248 3.40616 163.308 3.40616 163.368 3.40616C163.428 3.40616 163.488 3.40616 163.548 3.40616C163.608 3.40616 163.668 3.40616 163.728 3.40616C163.788 3.40616 163.848 3.40616 163.908 3.40616C163.968 3.40616 164.028 3.40616 164.088 3.40616C164.148 3.40616 164.207 3.40616 164.267 3.40616C164.327 3.40616 164.387 3.40616 164.447 3.40616C164.507 3.40616 164.567 3.40616 164.627 3.40616C164.687 3.40616 164.747 3.40616 164.807 3.40616C164.867 3.40616 164.927 3.40616 164.987 3.40616C165.047 3.40616 165.107 3.40616 165.167 3.40616C165.227 3.40616 165.287 3.40616 165.347 3.40616C165.407 3.40616 165.467 3.40616 165.527 3.40616C165.587 3.40616 165.647 3.40616 165.707 3.40616C165.767 3.40616 165.827 3.40616 165.886 3.40616C165.946 3.40616 166.006 3.40616 166.066 3.40616C166.126 3.40616 166.186 3.40616 166.246 3.40616C166.306 3.40616 166.366 3.40616 166.426 3.40616C166.486 3.40616 166.546 3.40616 166.606 3.40616C166.666 3.40616 166.726 3.40616 166.786 3.40616C166.846 3.40616 166.906 3.40616 166.966 3.40616C167.026 3.40616 167.086 3.40616 167.146 3.40616C167.206 3.40616 167.266 3.40616 167.326 3.40616C167.386 3.40616 167.446 3.40616 167.506 3.40616C167.566 3.40616 167.626 3.40616 167.686 3.40616C167.745 3.40616 167.805 3.40616 167.865 3.40616C167.925 3.40616 167.985 3.40616 168.045 3.40616C168.105 3.40616 168.165 3.40616 168.225 3.40616C168.285 3.40616 168.345 3.40616 168.405 3.40616C168.465 3.40616 168.525 3.40616 168.585 3.40616C168.645 3.40616 168.705 3.40616 168.765 3.40616C168.824 3.40616 168.884 3.40616 168.944 3.40616C169.004 3.40616 169.064 3.40616 169.124 3.40616C169.184 3.40616 169.244 3.40616 169.304 3.40616C169.364 3.40616 169.424 3.40616 169.484 3.40616C169.543 3.40616 169.603 3.40616 169.663 3.40616C169.723 3.40616 169.783 3.40616 169.843 3.40616C169.903 3.40616 169.963 3.40616 170.023 3.40616C170.082 3.40616 170.142 3.40616 170.202 3.40616C170.262 3.40616 170.322 3.40616 170.382 3.40616C170.442 3.40616 170.502 3.40616 170.561 3.40616C170.621 3.40616 170.681 3.40616 170.741 3.40616C170.801 3.40616 170.861 3.40616 170.921 3.40616C170.98 3.40616 171.04 3.40616 171.1 3.40616C171.16 3.40616 171.22 3.40616 171.279 3.40616C171.339 3.40616 171.399 3.40616 171.459 3.40616C171.519 3.40616 171.578 3.40616 171.638 3.40616C171.698 3.40616 171.758 3.40616 171.818 3.40616C171.877 3.40616 171.937 3.40616 171.997 3.40616C172.057 3.40616 172.117 3.40616 172.176 3.40616C172.236 3.40616 172.296 3.40616 172.356 3.40616C172.415 3.40616 172.475 3.40616 172.535 3.40616C172.594 3.40616 172.654 3.40616 172.714 3.40616C172.774 3.40616 172.833 3.40616 172.893 3.40616C172.953 3.40616 173.012 3.40616 173.072 3.40616C173.132 3.40616 173.191 3.40616 173.251 3.40616C173.311 3.40616 173.371 3.40616 173.43 3.40616C173.49 3.40616 173.549 3.40616 173.609 3.40616C173.669 3.40616 173.728 3.40616 173.788 3.40616C173.848 3.40616 173.907 3.40616 173.967 3.40616C174.027 3.40616 174.086 3.40616 174.146 3.40616C174.205 3.40616 174.265 3.40616 174.324 3.40616C174.384 3.40616 174.444 3.40616 174.503 3.40616C174.563 3.40616 174.622 3.40616 174.682 3.40616C174.741 3.40616 174.801 3.40616 174.86 3.40616C174.92 3.40616 174.979 3.40616 175.039 3.40616C175.098 3.40616 175.158 3.40616 175.217 3.40616C175.277 3.40616 175.336 3.40616 175.396 3.40616C175.455 3.40616 175.515 3.40616 175.574 3.40616C175.634 3.40616 175.693 3.40616 175.753 3.40616C175.812 3.40616 175.871 3.40616 175.931 3.40616C175.99 3.40616 176.05 3.40616 176.109 3.40616C176.168 3.40616 176.228 3.40616 176.287 3.40616C176.347 3.40616 176.406 3.40616 176.465 3.40616C176.525 3.40616 176.584 3.40616 176.643 3.40616C176.703 3.40616 176.762 3.40616 176.821 3.40616C176.881 3.40616 176.94 3.40616 176.999 3.40616C177.058 3.40616 177.118 3.40616 177.177 3.40616C177.236 3.40616 177.295 3.40616 177.355 3.40616C177.414 3.40616 177.473 3.40616 177.532 3.40616C177.591 3.40616 177.651 3.40616 177.71 3.40616C177.769 3.40616 177.828 3.40616 177.887 3.40616C177.947 3.40616 178.006 3.40616 178.065 3.40616C178.124 3.40616 178.183 3.40616 178.242 3.40616C178.301 3.40616 178.36 3.40616 178.42 3.40616C178.479 3.40616 178.538 3.40616 178.597 3.40616C178.656 3.40616 178.715 3.40616 178.774 3.40616C178.833 3.40616 178.892 3.40616 178.951 3.40616C179.01 3.40616 179.069 3.40616 179.128 3.40616C179.187 3.40616 179.246 3.40616 179.305 3.40616C179.364 3.40616 179.423 3.40616 179.482 3.40616C179.541 3.40616 179.599 3.40616 179.658 3.40616C179.717 3.40616 179.776 3.40616 179.835 3.40616C179.894 3.40616 179.953 3.40616 180.012 3.40616C180.07 3.40616 180.129 3.40616 180.188 3.40616C180.247 3.40616 180.306 3.40616 180.364 3.40616C180.423 3.40616 180.482 3.40616 180.541 3.40616C180.599 3.40616 180.658 3.40616 180.717 3.40616C180.776 3.40616 180.834 3.40616 180.893 3.40616C180.952 3.40616 181.01 3.40616 181.069 3.40616C181.128 3.40616 181.186 3.40616 181.245 3.40616C181.304 3.40616 181.362 3.40616 181.421 3.40616C181.479 3.40616 181.538 3.40616 181.597 3.40616C181.655 3.40616 181.714 3.40616 181.772 3.40616C181.831 3.40616 181.889 3.40616 181.948 3.40616C182.006 3.40616 182.065 3.40616 182.123 3.40616C182.182 3.40616 182.24 3.40616 182.299 3.40616C182.357 3.40616 182.415 3.40616 182.474 3.40616C182.532 3.40616 182.591 3.40616 182.649 3.40616C182.707 3.40616 182.766 3.40616 182.824 3.40616C182.882 3.40616 182.941 3.40616 182.999 3.40616C183.057 3.40616 183.115 3.40616 183.174 3.40616C183.232 3.40616 183.29 3.40616 183.348 3.40616C183.407 3.40616 183.465 3.40616 183.523 3.40616C183.581 3.40616 183.639 3.40616 183.697 3.40616C183.756 3.40616 183.814 3.40616 183.872 3.40616C183.93 3.40616 183.988 3.40616 184.046 3.40616C184.104 3.40616 184.162 3.40616 184.22 3.40616C184.278 3.40616 184.336 3.40616 184.394 3.40616C184.452 3.40616 184.51 3.40616 184.568 3.40616C184.626 3.40616 184.684 3.40616 184.742 3.40616C184.8 3.40616 184.858 3.40616 184.916 3.40616C184.974 3.40616 185.032 3.40616 185.089 3.40616C185.147 3.40616 185.205 3.40616 185.263 3.40616C185.321 3.40616 185.378 3.40616 185.436 3.40616C185.494 3.40616 185.552 3.40616 185.609 3.40616C185.667 3.40616 185.725 3.40616 185.782 3.40616C185.84 3.40616 185.898 3.40616 185.955 3.40616C186.013 3.40616 186.071 3.40616 186.128 3.40616C186.186 3.40616 186.243 3.40616 186.301 3.40616C186.359 3.40616 186.416 3.40616 186.474 3.40616C186.531 3.40616 186.589 3.40616 186.646 3.40616C186.704 3.40616 186.761 3.40616 186.818 3.40616C186.876 3.40616 186.933 3.40616 186.991 3.40616C187.048 3.40616 187.105 3.40616 187.163 3.40616C187.22 3.40616 187.277 3.40616 187.335 3.40616C187.392 3.40616 187.449 3.40616 187.506 3.40616C187.564 3.40616 187.621 3.40616 187.678 3.40616C187.735 3.40616 187.792 3.40616 187.85 3.40616C187.907 3.40616 187.964 3.40616 188.021 3.40616C188.078 3.40616 188.135 3.40616 188.192 3.40616C188.249 3.40616 188.306 3.40616 188.363 3.40616C188.42 3.40616 188.477 3.40616 188.534 3.40616C188.591 3.40616 188.648 3.40616 188.705 3.40616C188.762 3.40616 188.819 3.40616 188.876 3.40616C188.933 3.40616 188.99 3.40616 189.046 3.40616C189.103 3.40616 189.16 3.40616 189.217 3.40616C189.274 3.40616 189.33 3.40616 189.387 3.40616C189.444 3.40616 189.5 3.40616 189.557 3.40616C189.614 3.40616 189.67 3.40616 189.727 3.40616C189.784 3.40616 189.84 3.40616 189.897 3.40616C189.954 3.40616 190.01 3.40616 190.067 3.40616C190.123 3.40616 190.18 3.40616 190.236 3.40616C190.293 3.40616 190.349 3.40616 190.405 3.40616C190.462 3.40616 190.518 3.40616 190.575 3.40616C190.631 3.40616 190.687 3.40616 190.744 3.40616C190.8 3.40616 190.856 3.40616 190.913 3.40616C190.969 3.40616 191.025 3.40616 191.081 3.40616C191.138 3.40616 191.194 3.40616 191.25 3.40616C191.306 3.40616 191.362 3.40616 191.418 3.40616C191.474 3.40616 191.53 3.40616 191.587 3.40616C191.643 3.40616 191.699 3.40616 191.755 3.40616C191.811 3.40616 191.867 3.40616 191.923 3.40616C191.978 3.40616 192.034 3.40616 192.09 3.40616C192.146 3.40616 192.202 3.40616 192.258 3.40616C192.314 3.40616 192.37 3.40616 192.425 3.40616C192.481 3.40616 192.537 3.40616 192.593 3.40616C192.648 3.40616 192.704 3.40616 192.76 3.40616C192.815 3.40616 192.871 3.40616 192.927 3.40616C192.982 3.40616 193.038 3.40616 193.093 3.40616C193.149 3.40616 193.204 3.40616 193.26 3.40616C193.315 3.40616 193.371 3.40616 193.426 3.40616C193.482 3.40616 193.537 3.40616 193.593 3.40616C193.648 3.40616 193.703 3.40616 193.759 3.40616C193.814 3.40616 193.869 3.40616 193.924 3.40616C193.98 3.40616 194.035 3.40616 194.09 3.40616C194.145 3.40616 194.201 3.40616 194.256 3.40616C194.311 3.40616 194.366 3.40616 194.421 3.40616C194.476 3.40616 194.531 3.40616 194.586 3.40616C194.641 3.40616 194.696 3.40616 194.751 3.40616C194.806 3.40616 194.861 3.40616 194.916 3.40616C194.971 3.40616 195.026 3.40616 195.081 3.40616C195.135 3.40616 195.19 3.40616 195.245 3.40616C195.3 3.40616 195.355 3.40616 195.409 3.40616C195.464 3.40616 195.519 3.40616 195.573 3.40616C195.628 3.40616 195.683 3.40616 195.737 3.40616C195.792 3.40616 195.846 3.40616 195.901 3.40616C195.955 3.40616 196.01 3.40616 196.064 3.40616C196.119 3.40616 196.173 3.40616 196.228 3.40616C196.282 3.40616 196.336 3.40616 196.391 3.40616C196.445 3.40616 196.499 3.40616 196.554 3.40616C196.608 3.40616 196.662 3.40616 196.716 3.40616C196.77 3.40616 196.825 3.40616 196.879 3.40616C196.933 3.40616 196.987 3.40616 197.041 3.40616C197.095 3.40616 197.149 3.40616 197.203 3.40616C197.257 3.40616 197.311 3.40616 197.365 3.40616C197.419 3.40616 197.473 3.40616 197.527 3.40616C197.581 3.40616 197.635 3.40616 197.688 3.40616C197.742 3.40616 197.796 3.40616 197.85 3.40616C197.903 3.40616 197.957 3.40616 198.011 3.40616C198.064 3.40616 198.118 3.40616 198.172 3.40616C198.225 3.40616 198.279 3.40616 198.332 3.40616C198.386 3.40616 198.439 3.40616 198.493 3.40616C198.546 3.40616 198.6 3.40616 198.653 3.40616C198.706 3.40616 198.76 3.40616 198.813 3.40616C198.866 3.40616 198.92 3.40616 198.973 3.40616C199.026 3.40616 199.079 3.40616 199.133 3.40616C199.186 3.40616 199.239 3.40616 199.292 3.40616C199.345 3.40616 199.398 3.40616 199.451 3.40616C199.504 3.40616 199.557 3.40616 199.61 3.40616C199.663 3.40616 199.716 3.40616 199.769 3.40616C199.822 3.40616 199.875 3.40616 199.928 3.40616C199.98 3.40616 200.033 3.40616 200.086 3.40616C200.139 3.40616 200.191 3.40616 200.244 3.40616C200.297 3.40616 200.349 3.40616 200.402 3.40616C200.455 3.40616 200.507 3.40616 200.56 3.40616C200.612 3.40616 200.665 3.40616 200.717 3.40616C200.77 3.40616 200.822 3.40616 200.874 3.40616C200.927 3.40616 200.979 3.40616 201.031 3.40616C201.084 3.40616 201.136 3.40616 201.188 3.40616C201.24 3.40616 201.292 3.40616 201.345 3.40616C201.397 3.40616 201.449 3.40616 201.501 3.40616C201.553 3.40616 201.605 3.40616 201.657 3.40616C201.709 3.40616 201.761 3.40616 201.813 3.40616C201.865 3.40616 201.917 3.40616 201.969 3.40616C202.02 3.40616 202.072 3.40616 202.124 3.40616C202.176 3.40616 202.227 3.40616 202.279 3.40616C202.331 3.40616 202.382 3.40616 202.434 3.40616C202.486 3.40616 202.537 3.40616 202.589 3.40616C202.64 3.40616 202.692 3.40616 202.743 3.40616C202.795 3.40616 202.846 3.40616 202.897 3.40616C202.949 3.40616 203 3.40616 203.051 3.40616C203.103 3.40616 203.154 3.40616 203.205 3.40616C203.256 3.40616 203.307 3.40616 203.358 3.40616C203.41 3.40616 203.461 3.40616 203.512 3.40616C203.563 3.40616 203.614 3.40616 203.665 3.40616C203.716 3.40616 203.767 3.40616 203.817 3.40616C203.868 3.40616 203.919 3.40616 203.97 3.40616C204.021 3.40616 204.072 3.40616 204.122 3.40616C204.173 3.40616 204.224 3.40616 204.274 3.40616C204.325 3.40616 204.375 3.40616 204.426 3.40616C204.477 3.40616 204.527 3.40616 204.577 3.40616C204.628 3.40616 204.678 3.40616 204.729 3.40616C204.779 3.40616 204.829 3.40616 204.88 3.40616C204.93 3.40616 204.98 3.40616 205.03 3.40616C205.081 3.40616 205.131 3.40616 205.181 3.40616C205.231 3.40616 205.281 3.40616 205.331 3.40616C205.381 3.40616 205.431 3.40616 205.481 3.40616C205.531 3.40616 205.581 3.40616 205.631 3.40616C205.681 3.40616 205.731 3.40616 205.78 3.40616C205.83 3.40616 205.88 3.40616 205.929 3.40616C205.979 3.40616 206.029 3.40616 206.078 3.40616C206.128 3.40616 206.178 3.40616 206.227 3.40616C206.277 3.40616 206.326 3.40616 206.375 3.40616C206.425 3.40616 206.474 3.40616 206.524 3.40616C206.573 3.40616 206.622 3.40616 206.671 3.40616C206.721 3.40616 206.77 3.40616 206.819 3.40616C206.868 3.40616 206.917 3.40616 206.966 3.40616C207.015 3.40616 207.064 3.40616 207.113 3.40616C207.162 3.40616 207.211 3.40616 207.26 3.40616C207.309 3.40616 207.358 3.40616 207.407 3.40616C207.456 3.40616 207.504 3.40616 207.553 3.40616C207.602 3.40616 207.65 3.40616 207.699 3.40616C207.748 3.40616 207.796 3.40616 207.845 3.40616C207.893 3.40616 207.942 3.40616 207.99 3.40616C208.038 3.40616 208.087 3.40616 208.135 3.40616C208.183 3.40616 208.232 3.40616 208.28 3.40616C208.328 3.40616 208.376 3.40616 208.425 3.40616C208.473 3.40616 208.521 3.40616 208.569 3.40616C208.617 3.40616 208.665 3.40616 208.713 3.40616C208.761 3.40616 208.809 3.40616 208.857 3.40616C208.904 3.40616 208.952 3.40616 209 3.40616V4.40616C208.952 4.40616 208.904 4.40616 208.857 4.40616C208.809 4.40616 208.761 4.40616 208.713 4.40616C208.665 4.40616 208.617 4.40616 208.569 4.40616C208.521 4.40616 208.473 4.40616 208.425 4.40616C208.376 4.40616 208.328 4.40616 208.28 4.40616C208.232 4.40616 208.183 4.40616 208.135 4.40616C208.087 4.40616 208.038 4.40616 207.99 4.40616C207.942 4.40616 207.893 4.40616 207.845 4.40616C207.796 4.40616 207.748 4.40616 207.699 4.40616C207.65 4.40616 207.602 4.40616 207.553 4.40616C207.504 4.40616 207.456 4.40616 207.407 4.40616C207.358 4.40616 207.309 4.40616 207.26 4.40616C207.211 4.40616 207.162 4.40616 207.113 4.40616C207.064 4.40616 207.015 4.40616 206.966 4.40616C206.917 4.40616 206.868 4.40616 206.819 4.40616C206.77 4.40616 206.721 4.40616 206.671 4.40616C206.622 4.40616 206.573 4.40616 206.524 4.40616C206.474 4.40616 206.425 4.40616 206.375 4.40616C206.326 4.40616 206.277 4.40616 206.227 4.40616C206.178 4.40616 206.128 4.40616 206.078 4.40616C206.029 4.40616 205.979 4.40616 205.929 4.40616C205.88 4.40616 205.83 4.40616 205.78 4.40616C205.731 4.40616 205.681 4.40616 205.631 4.40616C205.581 4.40616 205.531 4.40616 205.481 4.40616C205.431 4.40616 205.381 4.40616 205.331 4.40616C205.281 4.40616 205.231 4.40616 205.181 4.40616C205.131 4.40616 205.081 4.40616 205.03 4.40616C204.98 4.40616 204.93 4.40616 204.88 4.40616C204.829 4.40616 204.779 4.40616 204.729 4.40616C204.678 4.40616 204.628 4.40616 204.577 4.40616C204.527 4.40616 204.477 4.40616 204.426 4.40616C204.375 4.40616 204.325 4.40616 204.274 4.40616C204.224 4.40616 204.173 4.40616 204.122 4.40616C204.072 4.40616 204.021 4.40616 203.97 4.40616C203.919 4.40616 203.868 4.40616 203.817 4.40616C203.767 4.40616 203.716 4.40616 203.665 4.40616C203.614 4.40616 203.563 4.40616 203.512 4.40616C203.461 4.40616 203.41 4.40616 203.358 4.40616C203.307 4.40616 203.256 4.40616 203.205 4.40616C203.154 4.40616 203.103 4.40616 203.051 4.40616C203 4.40616 202.949 4.40616 202.897 4.40616C202.846 4.40616 202.795 4.40616 202.743 4.40616C202.692 4.40616 202.64 4.40616 202.589 4.40616C202.537 4.40616 202.486 4.40616 202.434 4.40616C202.382 4.40616 202.331 4.40616 202.279 4.40616C202.227 4.40616 202.176 4.40616 202.124 4.40616C202.072 4.40616 202.02 4.40616 201.969 4.40616C201.917 4.40616 201.865 4.40616 201.813 4.40616C201.761 4.40616 201.709 4.40616 201.657 4.40616C201.605 4.40616 201.553 4.40616 201.501 4.40616C201.449 4.40616 201.397 4.40616 201.345 4.40616C201.292 4.40616 201.24 4.40616 201.188 4.40616C201.136 4.40616 201.084 4.40616 201.031 4.40616C200.979 4.40616 200.927 4.40616 200.874 4.40616C200.822 4.40616 200.77 4.40616 200.717 4.40616C200.665 4.40616 200.612 4.40616 200.56 4.40616C200.507 4.40616 200.455 4.40616 200.402 4.40616C200.349 4.40616 200.297 4.40616 200.244 4.40616C200.191 4.40616 200.139 4.40616 200.086 4.40616C200.033 4.40616 199.98 4.40616 199.928 4.40616C199.875 4.40616 199.822 4.40616 199.769 4.40616C199.716 4.40616 199.663 4.40616 199.61 4.40616C199.557 4.40616 199.504 4.40616 199.451 4.40616C199.398 4.40616 199.345 4.40616 199.292 4.40616C199.239 4.40616 199.186 4.40616 199.133 4.40616C199.079 4.40616 199.026 4.40616 198.973 4.40616C198.92 4.40616 198.866 4.40616 198.813 4.40616C198.76 4.40616 198.706 4.40616 198.653 4.40616C198.6 4.40616 198.546 4.40616 198.493 4.40616C198.439 4.40616 198.386 4.40616 198.332 4.40616C198.279 4.40616 198.225 4.40616 198.172 4.40616C198.118 4.40616 198.064 4.40616 198.011 4.40616C197.957 4.40616 197.903 4.40616 197.85 4.40616C197.796 4.40616 197.742 4.40616 197.688 4.40616C197.635 4.40616 197.581 4.40616 197.527 4.40616C197.473 4.40616 197.419 4.40616 197.365 4.40616C197.311 4.40616 197.257 4.40616 197.203 4.40616C197.149 4.40616 197.095 4.40616 197.041 4.40616C196.987 4.40616 196.933 4.40616 196.879 4.40616C196.825 4.40616 196.77 4.40616 196.716 4.40616C196.662 4.40616 196.608 4.40616 196.554 4.40616C196.499 4.40616 196.445 4.40616 196.391 4.40616C196.336 4.40616 196.282 4.40616 196.228 4.40616C196.173 4.40616 196.119 4.40616 196.064 4.40616C196.01 4.40616 195.955 4.40616 195.901 4.40616C195.846 4.40616 195.792 4.40616 195.737 4.40616C195.683 4.40616 195.628 4.40616 195.573 4.40616C195.519 4.40616 195.464 4.40616 195.409 4.40616C195.355 4.40616 195.3 4.40616 195.245 4.40616C195.19 4.40616 195.135 4.40616 195.081 4.40616C195.026 4.40616 194.971 4.40616 194.916 4.40616C194.861 4.40616 194.806 4.40616 194.751 4.40616C194.696 4.40616 194.641 4.40616 194.586 4.40616C194.531 4.40616 194.476 4.40616 194.421 4.40616C194.366 4.40616 194.311 4.40616 194.256 4.40616C194.201 4.40616 194.145 4.40616 194.09 4.40616C194.035 4.40616 193.98 4.40616 193.924 4.40616C193.869 4.40616 193.814 4.40616 193.759 4.40616C193.703 4.40616 193.648 4.40616 193.593 4.40616C193.537 4.40616 193.482 4.40616 193.426 4.40616C193.371 4.40616 193.315 4.40616 193.26 4.40616C193.204 4.40616 193.149 4.40616 193.093 4.40616C193.038 4.40616 192.982 4.40616 192.927 4.40616C192.871 4.40616 192.815 4.40616 192.76 4.40616C192.704 4.40616 192.648 4.40616 192.593 4.40616C192.537 4.40616 192.481 4.40616 192.425 4.40616C192.37 4.40616 192.314 4.40616 192.258 4.40616C192.202 4.40616 192.146 4.40616 192.09 4.40616C192.034 4.40616 191.978 4.40616 191.923 4.40616C191.867 4.40616 191.811 4.40616 191.755 4.40616C191.699 4.40616 191.643 4.40616 191.587 4.40616C191.53 4.40616 191.474 4.40616 191.418 4.40616C191.362 4.40616 191.306 4.40616 191.25 4.40616C191.194 4.40616 191.138 4.40616 191.081 4.40616C191.025 4.40616 190.969 4.40616 190.913 4.40616C190.856 4.40616 190.8 4.40616 190.744 4.40616C190.687 4.40616 190.631 4.40616 190.575 4.40616C190.518 4.40616 190.462 4.40616 190.405 4.40616C190.349 4.40616 190.293 4.40616 190.236 4.40616C190.18 4.40616 190.123 4.40616 190.067 4.40616C190.01 4.40616 189.954 4.40616 189.897 4.40616C189.84 4.40616 189.784 4.40616 189.727 4.40616C189.67 4.40616 189.614 4.40616 189.557 4.40616C189.5 4.40616 189.444 4.40616 189.387 4.40616C189.33 4.40616 189.274 4.40616 189.217 4.40616C189.16 4.40616 189.103 4.40616 189.046 4.40616C188.99 4.40616 188.933 4.40616 188.876 4.40616C188.819 4.40616 188.762 4.40616 188.705 4.40616C188.648 4.40616 188.591 4.40616 188.534 4.40616C188.477 4.40616 188.42 4.40616 188.363 4.40616C188.306 4.40616 188.249 4.40616 188.192 4.40616C188.135 4.40616 188.078 4.40616 188.021 4.40616C187.964 4.40616 187.907 4.40616 187.85 4.40616C187.792 4.40616 187.735 4.40616 187.678 4.40616C187.621 4.40616 187.564 4.40616 187.506 4.40616C187.449 4.40616 187.392 4.40616 187.335 4.40616C187.277 4.40616 187.22 4.40616 187.163 4.40616C187.105 4.40616 187.048 4.40616 186.991 4.40616C186.933 4.40616 186.876 4.40616 186.818 4.40616C186.761 4.40616 186.704 4.40616 186.646 4.40616C186.589 4.40616 186.531 4.40616 186.474 4.40616C186.416 4.40616 186.359 4.40616 186.301 4.40616C186.243 4.40616 186.186 4.40616 186.128 4.40616C186.071 4.40616 186.013 4.40616 185.955 4.40616C185.898 4.40616 185.84 4.40616 185.782 4.40616C185.725 4.40616 185.667 4.40616 185.609 4.40616C185.552 4.40616 185.494 4.40616 185.436 4.40616C185.378 4.40616 185.321 4.40616 185.263 4.40616C185.205 4.40616 185.147 4.40616 185.089 4.40616C185.032 4.40616 184.974 4.40616 184.916 4.40616C184.858 4.40616 184.8 4.40616 184.742 4.40616C184.684 4.40616 184.626 4.40616 184.568 4.40616C184.51 4.40616 184.452 4.40616 184.394 4.40616C184.336 4.40616 184.278 4.40616 184.22 4.40616C184.162 4.40616 184.104 4.40616 184.046 4.40616C183.988 4.40616 183.93 4.40616 183.872 4.40616C183.814 4.40616 183.756 4.40616 183.697 4.40616C183.639 4.40616 183.581 4.40616 183.523 4.40616C183.465 4.40616 183.407 4.40616 183.348 4.40616C183.29 4.40616 183.232 4.40616 183.174 4.40616C183.115 4.40616 183.057 4.40616 182.999 4.40616C182.941 4.40616 182.882 4.40616 182.824 4.40616C182.766 4.40616 182.707 4.40616 182.649 4.40616C182.591 4.40616 182.532 4.40616 182.474 4.40616C182.415 4.40616 182.357 4.40616 182.299 4.40616C182.24 4.40616 182.182 4.40616 182.123 4.40616C182.065 4.40616 182.006 4.40616 181.948 4.40616C181.889 4.40616 181.831 4.40616 181.772 4.40616C181.714 4.40616 181.655 4.40616 181.597 4.40616C181.538 4.40616 181.479 4.40616 181.421 4.40616C181.362 4.40616 181.304 4.40616 181.245 4.40616C181.186 4.40616 181.128 4.40616 181.069 4.40616C181.01 4.40616 180.952 4.40616 180.893 4.40616C180.834 4.40616 180.776 4.40616 180.717 4.40616C180.658 4.40616 180.599 4.40616 180.541 4.40616C180.482 4.40616 180.423 4.40616 180.364 4.40616C180.306 4.40616 180.247 4.40616 180.188 4.40616C180.129 4.40616 180.07 4.40616 180.012 4.40616C179.953 4.40616 179.894 4.40616 179.835 4.40616C179.776 4.40616 179.717 4.40616 179.658 4.40616C179.599 4.40616 179.541 4.40616 179.482 4.40616C179.423 4.40616 179.364 4.40616 179.305 4.40616C179.246 4.40616 179.187 4.40616 179.128 4.40616C179.069 4.40616 179.01 4.40616 178.951 4.40616C178.892 4.40616 178.833 4.40616 178.774 4.40616C178.715 4.40616 178.656 4.40616 178.597 4.40616C178.538 4.40616 178.479 4.40616 178.42 4.40616C178.36 4.40616 178.301 4.40616 178.242 4.40616C178.183 4.40616 178.124 4.40616 178.065 4.40616C178.006 4.40616 177.947 4.40616 177.887 4.40616C177.828 4.40616 177.769 4.40616 177.71 4.40616C177.651 4.40616 177.591 4.40616 177.532 4.40616C177.473 4.40616 177.414 4.40616 177.355 4.40616C177.295 4.40616 177.236 4.40616 177.177 4.40616C177.118 4.40616 177.058 4.40616 176.999 4.40616C176.94 4.40616 176.881 4.40616 176.821 4.40616C176.762 4.40616 176.703 4.40616 176.643 4.40616C176.584 4.40616 176.525 4.40616 176.465 4.40616C176.406 4.40616 176.347 4.40616 176.287 4.40616C176.228 4.40616 176.168 4.40616 176.109 4.40616C176.05 4.40616 175.99 4.40616 175.931 4.40616C175.871 4.40616 175.812 4.40616 175.753 4.40616C175.693 4.40616 175.634 4.40616 175.574 4.40616C175.515 4.40616 175.455 4.40616 175.396 4.40616C175.336 4.40616 175.277 4.40616 175.217 4.40616C175.158 4.40616 175.098 4.40616 175.039 4.40616C174.979 4.40616 174.92 4.40616 174.86 4.40616C174.801 4.40616 174.741 4.40616 174.682 4.40616C174.622 4.40616 174.563 4.40616 174.503 4.40616C174.444 4.40616 174.384 4.40616 174.324 4.40616C174.265 4.40616 174.205 4.40616 174.146 4.40616C174.086 4.40616 174.027 4.40616 173.967 4.40616C173.907 4.40616 173.848 4.40616 173.788 4.40616C173.728 4.40616 173.669 4.40616 173.609 4.40616C173.549 4.40616 173.49 4.40616 173.43 4.40616C173.371 4.40616 173.311 4.40616 173.251 4.40616C173.191 4.40616 173.132 4.40616 173.072 4.40616C173.012 4.40616 172.953 4.40616 172.893 4.40616C172.833 4.40616 172.774 4.40616 172.714 4.40616C172.654 4.40616 172.594 4.40616 172.535 4.40616C172.475 4.40616 172.415 4.40616 172.356 4.40616C172.296 4.40616 172.236 4.40616 172.176 4.40616C172.117 4.40616 172.057 4.40616 171.997 4.40616C171.937 4.40616 171.877 4.40616 171.818 4.40616C171.758 4.40616 171.698 4.40616 171.638 4.40616C171.578 4.40616 171.519 4.40616 171.459 4.40616C171.399 4.40616 171.339 4.40616 171.279 4.40616C171.22 4.40616 171.16 4.40616 171.1 4.40616C171.04 4.40616 170.98 4.40616 170.921 4.40616C170.861 4.40616 170.801 4.40616 170.741 4.40616C170.681 4.40616 170.621 4.40616 170.561 4.40616C170.502 4.40616 170.442 4.40616 170.382 4.40616C170.322 4.40616 170.262 4.40616 170.202 4.40616C170.142 4.40616 170.082 4.40616 170.023 4.40616C169.963 4.40616 169.903 4.40616 169.843 4.40616C169.783 4.40616 169.723 4.40616 169.663 4.40616C169.603 4.40616 169.543 4.40616 169.484 4.40616C169.424 4.40616 169.364 4.40616 169.304 4.40616C169.244 4.40616 169.184 4.40616 169.124 4.40616C169.064 4.40616 169.004 4.40616 168.944 4.40616C168.884 4.40616 168.824 4.40616 168.765 4.40616C168.705 4.40616 168.645 4.40616 168.585 4.40616C168.525 4.40616 168.465 4.40616 168.405 4.40616C168.345 4.40616 168.285 4.40616 168.225 4.40616C168.165 4.40616 168.105 4.40616 168.045 4.40616C167.985 4.40616 167.925 4.40616 167.865 4.40616C167.805 4.40616 167.745 4.40616 167.686 4.40616C167.626 4.40616 167.566 4.40616 167.506 4.40616C167.446 4.40616 167.386 4.40616 167.326 4.40616C167.266 4.40616 167.206 4.40616 167.146 4.40616C167.086 4.40616 167.026 4.40616 166.966 4.40616C166.906 4.40616 166.846 4.40616 166.786 4.40616C166.726 4.40616 166.666 4.40616 166.606 4.40616C166.546 4.40616 166.486 4.40616 166.426 4.40616C166.366 4.40616 166.306 4.40616 166.246 4.40616C166.186 4.40616 166.126 4.40616 166.066 4.40616C166.006 4.40616 165.946 4.40616 165.886 4.40616C165.827 4.40616 165.767 4.40616 165.707 4.40616C165.647 4.40616 165.587 4.40616 165.527 4.40616C165.467 4.40616 165.407 4.40616 165.347 4.40616C165.287 4.40616 165.227 4.40616 165.167 4.40616C165.107 4.40616 165.047 4.40616 164.987 4.40616C164.927 4.40616 164.867 4.40616 164.807 4.40616C164.747 4.40616 164.687 4.40616 164.627 4.40616C164.567 4.40616 164.507 4.40616 164.447 4.40616C164.387 4.40616 164.327 4.40616 164.267 4.40616C164.207 4.40616 164.148 4.40616 164.088 4.40616C164.028 4.40616 163.968 4.40616 163.908 4.40616C163.848 4.40616 163.788 4.40616 163.728 4.40616C163.668 4.40616 163.608 4.40616 163.548 4.40616C163.488 4.40616 163.428 4.40616 163.368 4.40616C163.308 4.40616 163.248 4.40616 163.188 4.40616C163.129 4.40616 163.069 4.40616 163.009 4.40616C162.949 4.40616 162.889 4.40616 162.829 4.40616C162.769 4.40616 162.709 4.40616 162.649 4.40616C162.589 4.40616 162.529 4.40616 162.47 4.40616C162.41 4.40616 162.35 4.40616 162.29 4.40616C162.23 4.40616 162.17 4.40616 162.11 4.40616C162.05 4.40616 161.99 4.40616 161.931 4.40616C161.871 4.40616 161.811 4.40616 161.751 4.40616C161.691 4.40616 161.631 4.40616 161.571 4.40616C161.512 4.40616 161.452 4.40616 161.392 4.40616C161.332 4.40616 161.272 4.40616 161.212 4.40616C161.152 4.40616 161.093 4.40616 161.033 4.40616C160.973 4.40616 160.913 4.40616 160.853 4.40616C160.794 4.40616 160.734 4.40616 160.674 4.40616C160.614 4.40616 160.554 4.40616 160.495 4.40616C160.435 4.40616 160.375 4.40616 160.315 4.40616C160.255 4.40616 160.196 4.40616 160.136 4.40616C160.076 4.40616 160.016 4.40616 159.957 4.40616C159.897 4.40616 159.837 4.40616 159.777 4.40616C159.718 4.40616 159.658 4.40616 159.598 4.40616C159.538 4.40616 159.479 4.40616 159.419 4.40616C159.359 4.40616 159.299 4.40616 159.24 4.40616C159.18 4.40616 159.12 4.40616 159.061 4.40616C159.001 4.40616 158.941 4.40616 158.882 4.40616C158.822 4.40616 158.762 4.40616 158.703 4.40616C158.643 4.40616 158.583 4.40616 158.524 4.40616C158.464 4.40616 158.404 4.40616 158.345 4.40616C158.285 4.40616 158.226 4.40616 158.166 4.40616C158.106 4.40616 158.047 4.40616 157.987 4.40616C157.928 4.40616 157.868 4.40616 157.808 4.40616C157.749 4.40616 157.689 4.40616 157.63 4.40616C157.57 4.40616 157.511 4.40616 157.451 4.40616C157.391 4.40616 157.332 4.40616 157.272 4.40616C157.213 4.40616 157.153 4.40616 157.094 4.40616C157.034 4.40616 156.975 4.40616 156.915 4.40616C156.856 4.40616 156.796 4.40616 156.737 4.40616C156.677 4.40616 156.618 4.40616 156.559 4.40616C156.499 4.40616 156.44 4.40616 156.38 4.40616C156.321 4.40616 156.261 4.40616 156.202 4.40616C156.143 4.40616 156.083 4.40616 156.024 4.40616C155.964 4.40616 155.905 4.40616 155.846 4.40616C155.786 4.40616 155.727 4.40616 155.668 4.40616C155.608 4.40616 155.549 4.40616 155.49 4.40616C155.43 4.40616 155.371 4.40616 155.312 4.40616C155.252 4.40616 155.193 4.40616 155.134 4.40616C155.074 4.40616 155.015 4.40616 154.956 4.40616C154.897 4.40616 154.837 4.40616 154.778 4.40616C154.719 4.40616 154.66 4.40616 154.601 4.40616C154.541 4.40616 154.482 4.40616 154.423 4.40616C154.364 4.40616 154.305 4.40616 154.245 4.40616C154.186 4.40616 154.127 4.40616 154.068 4.40616C154.009 4.40616 153.95 4.40616 153.891 4.40616C153.831 4.40616 153.772 4.40616 153.713 4.40616C153.654 4.40616 153.595 4.40616 153.536 4.40616C153.477 4.40616 153.418 4.40616 153.359 4.40616C153.3 4.40616 153.241 4.40616 153.182 4.40616C153.123 4.40616 153.064 4.40616 153.005 4.40616C152.946 4.40616 152.887 4.40616 152.828 4.40616C152.769 4.40616 152.71 4.40616 152.651 4.40616C152.592 4.40616 152.533 4.40616 152.474 4.40616C152.416 4.40616 152.357 4.40616 152.298 4.40616C152.239 4.40616 152.18 4.40616 152.121 4.40616C152.062 4.40616 152.004 4.40616 151.945 4.40616C151.886 4.40616 151.827 4.40616 151.768 4.40616C151.71 4.40616 151.651 4.40616 151.592 4.40616C151.533 4.40616 151.475 4.40616 151.416 4.40616C151.357 4.40616 151.298 4.40616 151.24 4.40616C151.181 4.40616 151.122 4.40616 151.064 4.40616C151.005 4.40616 150.946 4.40616 150.888 4.40616C150.829 4.40616 150.771 4.40616 150.712 4.40616C150.653 4.40616 150.595 4.40616 150.536 4.40616C150.478 4.40616 150.419 4.40616 150.361 4.40616C150.302 4.40616 150.244 4.40616 150.185 4.40616C150.127 4.40616 150.068 4.40616 150.01 4.40616C149.951 4.40616 149.893 4.40616 149.834 4.40616C149.776 4.40616 149.717 4.40616 149.659 4.40616C149.601 4.40616 149.542 4.40616 149.484 4.40616C149.426 4.40616 149.367 4.40616 149.309 4.40616C149.251 4.40616 149.192 4.40616 149.134 4.40616C149.076 4.40616 149.017 4.40616 148.959 4.40616C148.901 4.40616 148.843 4.40616 148.784 4.40616C148.726 4.40616 148.668 4.40616 148.61 4.40616C148.552 4.40616 148.493 4.40616 148.435 4.40616C148.377 4.40616 148.319 4.40616 148.261 4.40616C148.203 4.40616 148.145 4.40616 148.087 4.40616C148.029 4.40616 147.971 4.40616 147.913 4.40616C147.854 4.40616 147.796 4.40616 147.738 4.40616C147.68 4.40616 147.623 4.40616 147.565 4.40616C147.507 4.40616 147.449 4.40616 147.391 4.40616C147.333 4.40616 147.275 4.40616 147.217 4.40616C147.159 4.40616 147.101 4.40616 147.043 4.40616C146.986 4.40616 146.928 4.40616 146.87 4.40616C146.812 4.40616 146.754 4.40616 146.697 4.40616C146.639 4.40616 146.581 4.40616 146.523 4.40616C146.466 4.40616 146.408 4.40616 146.35 4.40616C146.293 4.40616 146.235 4.40616 146.177 4.40616C146.12 4.40616 146.062 4.40616 146.005 4.40616C145.947 4.40616 145.889 4.40616 145.832 4.40616C145.774 4.40616 145.717 4.40616 145.659 4.40616C145.602 4.40616 145.544 4.40616 145.487 4.40616C145.429 4.40616 145.372 4.40616 145.314 4.40616C145.257 4.40616 145.2 4.40616 145.142 4.40616C145.085 4.40616 145.027 4.40616 144.97 4.40616C144.913 4.40616 144.856 4.40616 144.798 4.40616C144.741 4.40616 144.684 4.40616 144.626 4.40616C144.569 4.40616 144.512 4.40616 144.455 4.40616C144.398 4.40616 144.34 4.40616 144.283 4.40616C144.226 4.40616 144.169 4.40616 144.112 4.40616C144.055 4.40616 143.998 4.40616 143.941 4.40616C143.884 4.40616 143.826 4.40616 143.769 4.40616C143.712 4.40616 143.655 4.40616 143.598 4.40616C143.542 4.40616 143.485 4.40616 143.428 4.40616C143.371 4.40616 143.314 4.40616 143.257 4.40616C143.2 4.40616 143.143 4.40616 143.086 4.40616C143.03 4.40616 142.973 4.40616 142.916 4.40616C142.859 4.40616 142.802 4.40616 142.746 4.40616C142.689 4.40616 142.632 4.40616 142.576 4.40616C142.519 4.40616 142.462 4.40616 142.406 4.40616C142.349 4.40616 142.292 4.40616 142.236 4.40616C142.179 4.40616 142.123 4.40616 142.066 4.40616C142.01 4.40616 141.953 4.40616 141.897 4.40616C141.84 4.40616 141.784 4.40616 141.727 4.40616C141.671 4.40616 141.615 4.40616 141.558 4.40616C141.502 4.40616 141.445 4.40616 141.389 4.40616C141.333 4.40616 141.277 4.40616 141.22 4.40616C141.164 4.40616 141.108 4.40616 141.052 4.40616C140.995 4.40616 140.939 4.40616 140.883 4.40616C140.827 4.40616 140.771 4.40616 140.715 4.40616C140.658 4.40616 140.602 4.40616 140.546 4.40616C140.49 4.40616 140.434 4.40616 140.378 4.40616C140.322 4.40616 140.266 4.40616 140.21 4.40616C140.154 4.40616 140.098 4.40616 140.043 4.40616C139.987 4.40616 139.931 4.40616 139.875 4.40616C139.819 4.40616 139.763 4.40616 139.708 4.40616C139.652 4.40616 139.596 4.40616 139.54 4.40616C139.485 4.40616 139.429 4.40616 139.373 4.40616C139.317 4.40616 139.262 4.40616 139.206 4.40616C139.151 4.40616 139.095 4.40616 139.039 4.40616C138.984 4.40616 138.928 4.40616 138.873 4.40616C138.817 4.40616 138.762 4.40616 138.706 4.40616C138.651 4.40616 138.596 4.40616 138.54 4.40616C138.485 4.40616 138.43 4.40616 138.374 4.40616C138.319 4.40616 138.264 4.40616 138.208 4.40616C138.153 4.40616 138.098 4.40616 138.043 4.40616C137.987 4.40616 137.932 4.40616 137.877 4.40616C137.822 4.40616 137.767 4.40616 137.712 4.40616C137.657 4.40616 137.602 4.40616 137.547 4.40616C137.492 4.40616 137.437 4.40616 137.382 4.40616C137.327 4.40616 137.272 4.40616 137.217 4.40616C137.162 4.40616 137.107 4.40616 137.052 4.40616C136.997 4.40616 136.943 4.40616 136.888 4.40616C136.833 4.40616 136.778 4.40616 136.724 4.40616C136.669 4.40616 136.614 4.40616 136.56 4.40616C136.505 4.40616 136.45 4.40616 136.396 4.40616C136.341 4.40616 136.287 4.40616 136.232 4.40616C136.177 4.40616 136.123 4.40616 136.068 4.40616C136.014 4.40616 135.96 4.40616 135.905 4.40616C135.851 4.40616 135.796 4.40616 135.742 4.40616C135.688 4.40616 135.633 4.40616 135.579 4.40616C135.525 4.40616 135.471 4.40616 135.417 4.40616C135.362 4.40616 135.308 4.40616 135.254 4.40616C135.2 4.40616 135.146 4.40616 135.092 4.40616C135.038 4.40616 134.984 4.40616 134.93 4.40616C134.876 4.40616 134.822 4.40616 134.768 4.40616C134.714 4.40616 134.66 4.40616 134.606 4.40616C134.552 4.40616 134.498 4.40616 134.444 4.40616C134.391 4.40616 134.337 4.40616 134.283 4.40616C134.229 4.40616 134.176 4.40616 134.122 4.40616C134.068 4.40616 134.015 4.40616 133.961 4.40616C133.908 4.40616 133.854 4.40616 133.8 4.40616C133.747 4.40616 133.693 4.40616 133.64 4.40616C133.587 4.40616 133.533 4.40616 133.48 4.40616C133.426 4.40616 133.373 4.40616 133.32 4.40616C133.266 4.40616 133.213 4.40616 133.16 4.40616C133.107 4.40616 133.053 4.40616 133 4.40616C132.947 4.40616 132.894 4.40616 132.841 4.40616C132.788 4.40616 132.735 4.40616 132.682 4.40616C132.629 4.40616 132.576 4.40616 132.523 4.40616C132.47 4.40616 132.417 4.40616 132.364 4.40616C132.311 4.40616 132.258 4.40616 132.205 4.40616C132.152 4.40616 132.1 4.40616 132.047 4.40616C131.994 4.40616 131.941 4.40616 131.889 4.40616C131.836 4.40616 131.783 4.40616 131.731 4.40616C131.678 4.40616 131.626 4.40616 131.573 4.40616C131.521 4.40616 131.468 4.40616 131.416 4.40616C131.363 4.40616 131.311 4.40616 131.258 4.40616C131.206 4.40616 131.154 4.40616 131.102 4.40616C131.049 4.40616 130.997 4.40616 130.945 4.40616C130.893 4.40616 130.84 4.40616 130.788 4.40616C130.736 4.40616 130.684 4.40616 130.632 4.40616C130.58 4.40616 130.528 4.40616 130.476 4.40616C130.424 4.40616 130.372 4.40616 130.32 4.40616C130.268 4.40616 130.216 4.40616 130.164 4.40616C130.112 4.40616 130.061 4.40616 130.009 4.40616C129.957 4.40616 129.905 4.40616 129.854 4.40616C129.802 4.40616 129.75 4.40616 129.699 4.40616C129.647 4.40616 129.596 4.40616 129.544 4.40616C129.493 4.40616 129.441 4.40616 129.39 4.40616C129.338 4.40616 129.287 4.40616 129.235 4.40616C129.184 4.40616 129.133 4.40616 129.082 4.40616C129.03 4.40616 128.979 4.40616 128.928 4.40616C128.877 4.40616 128.825 4.40616 128.774 4.40616C128.723 4.40616 128.672 4.40616 128.621 4.40616C128.57 4.40616 128.519 4.40616 128.468 4.40616C128.417 4.40616 128.366 4.40616 128.315 4.40616C128.264 4.40616 128.214 4.40616 128.163 4.40616C128.112 4.40616 128.061 4.40616 128.011 4.40616C127.96 4.40616 127.909 4.40616 127.859 4.40616C127.808 4.40616 127.757 4.40616 127.707 4.40616C127.656 4.40616 127.606 4.40616 127.555 4.40616C127.505 4.40616 127.454 4.40616 127.404 4.40616C127.354 4.40616 127.303 4.40616 127.253 4.40616C127.203 4.40616 127.153 4.40616 127.102 4.40616C127.052 4.40616 127.002 4.40616 126.952 4.40616C126.902 4.40616 126.852 4.40616 126.802 4.40616C126.752 4.40616 126.702 4.40616 126.652 4.40616C126.602 4.40616 126.552 4.40616 126.502 4.40616C126.452 4.40616 126.402 4.40616 126.353 4.40616C126.303 4.40616 126.253 4.40616 126.203 4.40616C126.154 4.40616 126.104 4.40616 126.054 4.40616C126.005 4.40616 125.955 4.40616 125.906 4.40616C125.856 4.40616 125.807 4.40616 125.757 4.40616C125.708 4.40616 125.659 4.40616 125.609 4.40616C125.56 4.40616 125.511 4.40616 125.461 4.40616C125.412 4.40616 125.363 4.40616 125.314 4.40616C125.265 4.40616 125.216 4.40616 125.166 4.40616C125.117 4.40616 125.068 4.40616 125.019 4.40616C124.97 4.40616 124.921 4.40616 124.873 4.40616C124.824 4.40616 124.775 4.40616 124.726 4.40616C124.677 4.40616 124.629 4.40616 124.58 4.40616C124.531 4.40616 124.483 4.40616 124.434 4.40616C124.385 4.40616 124.337 4.40616 124.288 4.40616C124.24 4.40616 124.191 4.40616 124.143 4.40616C124.094 4.40616 124.046 4.40616 123.998 4.40616C123.949 4.40616 123.901 4.40616 123.853 4.40616C123.805 4.40616 123.756 4.40616 123.708 4.40616C123.66 4.40616 123.612 4.40616 123.564 4.40616C123.516 4.40616 123.468 4.40616 123.42 4.40616C123.372 4.40616 123.324 4.40616 123.276 4.40616C123.228 4.40616 123.181 4.40616 123.133 4.40616V3.40616Z" fill="#FF1E1E"/>
</svg>
