<svg width="487" height="290" fill="none" xmlns="http://www.w3.org/2000/svg"><path d="M473.22 147.209c-8.445-7.692-18.43-15.194-21.032-25.637-4.507-18.072 14.76-33.483 21.067-51.133 4.363-12.204 2.111-26.1-5.952-36.748-8.062-10.648-21.769-17.836-36.254-19.003-24.922-2.012-49.303 12.757-73.865 8.481-19.658-3.425-35.192-18.543-55.147-20.153-23.482-1.906-42.976 15.142-65.387 21.563-26.833 7.676-55.901-.347-82.27-9.152C128.012 6.622 100.265-3.2 72.47 1.003 41.53 5.704 15.587 29.415 11.45 56.787c-4.1 27.127 30.294 48.903 1.015 81.478-9.149 10.177-15.235 24.35-11.19 36.828 3.926 12.125 20.654 19.793 20.776 32.4.096 9.952-10.574 17.871-11.433 27.795-.738 8.508 6.228 16.394 14.788 20.43 8.56 4.036 18.493 5.018 28.142 5.941l-2.836 2.692c48.648 3.839 97.588 2.984 146.418 2.127l231.013-4.06c7.912-.14 16.019-.31 23.392-2.836 7.374-2.526 13.988-7.948 15.112-14.835 1.911-11.728-12.027-21.907-10.74-33.7 1.645-15.053 25.757-20.871 30.345-35.452 3.24-10.323-4.59-20.694-13.032-28.386z" fill="#F5F5F5"/><path d="M327.455 255.278c-25.476-14.387-38.347-51.921-27.705-66.004 9.238-12.217 32.941-2.483 38.68-13.836 6.909-13.634-23.735-34.647-17.234-50.611 6.246-15.293 38.936-7.003 45.514-22.141 7.007-16.167-26.532-34.274-21.982-57.293 3.796-19.198 32.826-35.435 59.268-30.356 21.519 4.134 43.236 22.758 41.969 39.558-1.73 22.932-45.093 26.636-46.249 49.01-1.054 20.644 35.193 30.705 32.765 49.038-2.618 19.735-46.574 22.907-46.779 38.775-.179 13.936 33.678 17.635 34.651 31.632 1.296 18.484-55.013 53.622-92.898 32.228z" fill="#E1E1E1"/><path d="M394.283 43.22c-2.306 16.86-5.092 33.634-8.083 50.37-1.47 8.374-3.085 16.716-4.668 25.069-.805 4.171-1.667 8.333-2.501 12.5-.833 4.167-1.662 8.333-2.565 12.487l-2.677 12.463c-.923 4.145-1.826 8.29-2.781 12.435l-.709 3.106-.735 3.102-1.471 6.203-1.483 6.197-1.571 6.178c-4.182 16.467-8.639 32.907-14.496 48.867l-.316-.109c4.568-16.347 8.32-32.891 12.018-49.449l1.383-6.211 1.346-6.22 1.357-6.217.678-3.109.655-3.113c.857-4.158 1.767-8.3 2.657-12.45l2.598-12.461 10.39-49.863c3.458-16.625 6.96-33.246 10.649-49.837l.325.061z" fill="#3E5960"/><path d="M105.194 162.467a22.758 22.758 0 01-6.564-21.8c1.985-8.465 2.124-18.242 0-28.301-5.587-26.392-24.687-44.706-42.656-40.9-17.97 3.807-28.015 28.278-22.43 54.672a70.066 70.066 0 004.673 14.354 22.394 22.394 0 01-1.104 20.725 28.7 28.7 0 0014.834 41.678 22.52 22.52 0 0112.321 10.807c7.38 14.289 20.561 22.806 33.343 20.103 16.379-3.466 25.897-24.051 21.259-45.978-2.212-10.445-7.243-19.315-13.676-25.36z" fill="#E1E1E1"/><path d="M108.135 264.45a1.116 1.116 0 01-1.078-.526c-11.494-18.905-20.942-52.304-26.832-77.008-6.375-26.706-10.096-49.263-10.133-49.488a1.113 1.113 0 01.893-1.379 1.109 1.109 0 011.288 1.021c.146.895 14.926 89.934 36.669 125.689a1.113 1.113 0 01-.305 1.482 1.111 1.111 0 01-.513.198l.011.011z" fill="#3E5960"/><path d="M104.17 31.028L94.397 48.86a17.598 17.598 0 00-.768 15.334l12.635 29.767a17.618 17.618 0 01.98 10.69l-3.469 15.602a17.606 17.606 0 004.686 16.209 17.598 17.598 0 0024.494.477l11.021-10.279a17.597 17.597 0 004.527-18.903l-7.991-21.892a17.606 17.606 0 01-.857-8.75l4.736-30.323a17.596 17.596 0 00-8.128-17.67l-7.405-4.582a17.593 17.593 0 00-24.688 6.488z" fill="#fff"/><path d="M435.54 233.351c7.282-11.449 10.098-24.158 8.726-35.269-1.23-9.93 1.355-19.993 7.385-27.969a38.698 38.698 0 001.819-2.618c8.759-13.77 7.417-30.299-2.986-36.918-10.404-6.619-25.945-.822-34.702 12.947a38.279 38.279 0 00-4.114 8.685c-3.055 9.381-9.405 17.372-18.055 22.106-7.731 4.232-14.895 10.842-20.356 19.415-8.141 12.801-10.689 27.18-8.058 39.135a37.927 37.927 0 01.493 13.78c-1.139 7.605 1.389 14.859 7.234 18.574 6.302 4.01 14.697 2.779 21.379-2.4a40.434 40.434 0 0112.653-6.516c10.755-3.39 21.219-11.377 28.582-22.952z" fill="#1A2E35"/><path d="M444.807 147.541c-4.428 9.965-9.173 19.78-14.021 29.544-1.21 2.443-2.46 4.865-3.708 7.291l-1.865 3.639-1.894 3.623c-1.272 2.411-2.511 4.839-3.809 7.236l-3.898 7.199c-2.66 4.758-5.28 9.54-8.026 14.25-1.372 2.358-2.697 4.74-4.115 7.07l-4.221 7.005c-5.724 9.283-11.684 18.425-18.107 27.248l-.381-.273 4.544-6.785 1.141-1.693 1.091-1.721 2.181-3.447 2.195-3.442c.733-1.145 1.424-2.319 2.138-3.477 1.413-2.326 2.836-4.641 4.243-6.981a1060.855 1060.855 0 0016.143-28.389c2.57-4.799 5.179-9.579 7.714-14.398l1.911-3.608 1.883-3.623c1.254-2.418 2.51-4.833 3.741-7.261 2.504-4.835 4.972-9.69 7.404-14.563 2.455-4.861 4.874-9.74 7.258-14.636l.458.192z" fill="#3E5960"/><path d="M394.508 256.331a5.53 5.53 0 01-5.515 5.508H90.806a5.528 5.528 0 01-5.513-5.508L82.81 84.969c0-3.03 3.57-8.944 10.113-8.508l291.422-7.54a13.897 13.897 0 0114.259 14.211l-4.095 173.199z" fill="#385A64"/><path d="M389.065 251.045a5.234 5.234 0 01-5.218 5.216H97.997a5.233 5.233 0 01-5.219-5.216l-2.34-155.562c.277-9.361 8.483-12.728 13.457-12.529l279.313-7.493a9.753 9.753 0 0110.011 9.993l-4.154 165.591z" fill="#F5F5F5"/><path d="M95.864 176.851a.477.477 0 01-.475-.467l-.186-12.618a.476.476 0 01.803-.349c.09.086.142.203.146.327l.186 12.616a.477.477 0 01-.467.482l-.007.009z" fill="#91B3FA"/><path d="M95.41 145.934a.471.471 0 01-.473-.467l-.703-48.319c.016-3.242 1.015-5.833 2.972-7.707 3.556-3.41 9.118-3.237 9.354-3.229l89.19-2.4a.482.482 0 01.486.46.48.48 0 01-.462.49l-89.225 2.4c-.255 0-5.428-.171-8.696 2.964-1.764 1.688-2.665 4.051-2.678 7.018l.709 48.31a.471.471 0 01-.467.48h-.007z" fill="#375963"/><path d="M411.17 276.063H74.673a7.553 7.553 0 01-7.529-7.527 7.55 7.55 0 017.529-7.528H411.17a7.554 7.554 0 015.317 2.211 7.554 7.554 0 012.211 5.317 7.554 7.554 0 01-2.211 5.317 7.555 7.555 0 01-5.317 2.21z" fill="#385A64"/><path d="M259.08 213.815c-.054-.687-.759-1.282-1.95-1.76 1.296-.716 2.011-1.479 1.95-2.23-.183-2.271-7.371-3.543-16.058-2.836-8.687.707-15.581 3.109-15.397 5.378.056.689.759 1.285 1.95 1.762-1.294.714-2.009 1.48-1.95 2.23.056.689.759 1.285 1.95 1.763-1.294.713-2.009 1.479-1.95 2.229.056.687.759 1.285 1.95 1.763-1.294.713-2.009 1.479-1.95 2.229.08 1.004 1.527 1.811 3.881 2.341-.03.819-.011 1.638.058 2.454.341 4.182 5.046 7.463 11.27 7.463 6.224 0 11.61-4.472 11.671-8.669a20.87 20.87 0 00-.122-2.738c2.978-.995 4.8-2.21 4.697-3.388-.054-.689-.759-1.285-1.95-1.762 1.296-.714 2.011-1.48 1.95-2.23-.054-.687-.759-1.285-1.95-1.763 1.296-.72 2.011-1.477 1.95-2.236z" fill="#1A2E35"/><path d="M239.005 227.58a37.606 37.606 0 01-6.889-.571.217.217 0 01-.183-.07.215.215 0 01-.013-.28.213.213 0 01.177-.085c.034 0 .067.009.098.024 3.054.585 7.127.714 11.477.363 3.558-.286 6.887-.86 9.624-1.661a.217.217 0 01.158.021.214.214 0 01.102.121.222.222 0 01-.02.158.22.22 0 01-.122.102c-2.764.807-6.121 1.385-9.71 1.675-1.614.14-3.194.203-4.699.203zM239.05 223.586c-3.351 0-6.346-.316-8.46-.916a.22.22 0 01-.122-.102.222.222 0 01-.02-.158.218.218 0 01.257-.142c3.011.858 7.854 1.122 12.967.712 5.055-.408 9.767-1.434 12.61-2.745a.216.216 0 01.342.073.22.22 0 01-.007.196.216.216 0 01-.161.111c-2.884 1.328-7.65 2.369-12.751 2.779-1.59.125-3.159.192-4.655.192zM239.008 219.591c-3.62 0-6.787-.368-8.918-1.071a.217.217 0 01-.001-.357.218.218 0 01.131-.04c2.967.977 7.996 1.309 13.452.86 5.054-.408 9.766-1.434 12.609-2.745a.213.213 0 01.089-.047.223.223 0 01.192.04.243.243 0 01.062.08.207.207 0 01.019.098.216.216 0 01-.188.209c-2.884 1.331-7.65 2.369-12.751 2.779a56.567 56.567 0 01-4.696.194zM239.033 215.603c-2.871 0-5.48-.233-7.511-.683a.217.217 0 01-.036-.356.22.22 0 01.127-.052c3.054.679 7.448.853 12.058.482 5.017-.403 9.699-1.418 12.543-2.713a.218.218 0 11.173.379c-2.886 1.309-7.636 2.343-12.684 2.751a58.25 58.25 0 01-4.67.192z" fill="#3E5960"/><path d="M221.796 193.666a29.418 29.418 0 00-5.259-10.27c-5.173-6.517-13.609-19.769-14.647-37.859-1.51-26.311 21.815-39.485 43.12-37.697 21.305 1.789 42.296 17.645 40.005 42.121-1.416 15.053-9.845 26.486-16.122 33.046a34.862 34.862 0 00-8.368 14.835c-1.883 6.8-6.366 15.27-17.016 15.792-13.796.659-19.518-12.191-21.713-19.968z" fill="#FF4F5A"/><path d="M247.026 208.379l7.45-48.461c.155-1.001.654-1.673 1.091-1.5.436.172.696 1.121.543 2.122 0 .029 0 .061-.015.087l-8.486 48.009c-.064.36-.247.589-.411.509-.163-.081-.224-.417-.172-.766z" fill="url(#paint0_linear)"/><path d="M239.292 208.762l-7.45-48.458c-.155-1.002-.654-1.673-1.091-1.503-.436.17-.696 1.123-.543 2.125l.015.085 8.487 48.009c.063.362.246.589.41.51.163-.078.224-.41.172-.768z" fill="url(#paint1_linear)"/><path opacity=".85" d="M254.424 155.758a.779.779 0 00-.978-.253l-4.145 1.937-1.439-4.103a.88.88 0 00-.506-.506 1.023 1.023 0 00-1.274.392v.014l-3.412 6.219-3.168-8.855v-.015a.995.995 0 00-.48-.539 1.243 1.243 0 00-1.566.308l-4.769 6.566a.576.576 0 00.168.829.8.8 0 001.003-.115l4.2-4.684 3.78 8.423a.657.657 0 00.332.327.8.8 0 00.542.054.796.796 0 00.448-.309l3.65-5.856 1.372 2.961.013.026c.009.022.02.043.033.063a.779.779 0 00.977.253l4.926-2.299a.584.584 0 00.367-.6.586.586 0 00-.074-.238z" fill="#fff"/><path opacity=".69" d="M269.053 176.526a.706.706 0 01-.374-.106.704.704 0 01-.336-.668.707.707 0 01.138-.363 55.053 55.053 0 003.471-5.27.71.71 0 111.232.711 56 56 0 01-3.551 5.408.704.704 0 01-.58.288zM275.186 166.006a.716.716 0 01-.596-.32.71.71 0 01-.058-.675c7.901-18.198 1.09-33.541 1.01-33.693a.71.71 0 011.293-.592c.075.157 7.164 16.05-.999 34.852a.706.706 0 01-.65.428z" fill="#fff"/><path d="M266.746 122.996a2.371 2.371 0 01-2.372 2.372h-40.323a2.371 2.371 0 010-4.743h40.323a2.37 2.37 0 012.372 2.371z" fill="url(#paint2_linear)"/><path d="M221.685 96.113c1.221-5.175-1.983-10.36-7.158-11.581-5.175-1.222-10.36 1.983-11.581 7.158-1.222 5.175 1.983 10.36 7.158 11.581 5.175 1.221 10.36-1.983 11.581-7.158z" fill="url(#paint3_linear)"/><path d="M218.902 100.493a9.307 9.307 0 10-13.164-13.161 9.307 9.307 0 0013.164 13.161z" fill="url(#paint4_linear)"/><path opacity=".72" d="M204.646 90.519a.455.455 0 01-.218-.05.473.473 0 01-.218-.637 9.025 9.025 0 018.097-4.987c.549 0 1.097.05 1.637.146a.477.477 0 11-.171.936 8.12 8.12 0 00-8.726 4.332.473.473 0 01-.401.26z" fill="#fff"/><path opacity=".72" d="M212.526 101.991a7.877 7.877 0 007.877-7.877 7.878 7.878 0 10-7.877 7.877z" fill="#fff"/><path d="M211.751 99.968v-.857a6.945 6.945 0 01-2.399-.521.49.49 0 01-.275-.585l.218-.798a.497.497 0 01.678-.328c.702.3 1.456.459 2.219.467.873 0 1.503-.292 1.503-.89 0-.539-.495-.86-1.693-1.18-1.706-.467-2.93-1.21-2.93-2.714 0-1.355.991-2.4 2.712-2.668v-.857a.502.502 0 01.5-.5h.503a.5.5 0 01.5.5v.77a6.328 6.328 0 011.905.342.496.496 0 01.311.6l-.2.738a.506.506 0 01-.253.313.49.49 0 01-.402.023 5.219 5.219 0 00-1.869-.339c-1.021 0-1.309.421-1.309.801 0 .467.613.788 1.939 1.196 1.896.569 2.683 1.356 2.683 2.772 0 1.31-.962 2.463-2.836 2.755v.96a.502.502 0 01-.497.5h-.504a.505.505 0 01-.465-.307.493.493 0 01-.039-.193z" fill="url(#paint5_linear)"/><path d="M254.441 77.583c1.75-9.089-4.199-17.875-13.288-19.625-9.088-1.75-17.875 4.199-19.625 13.287-1.75 9.088 4.199 17.875 13.288 19.625 9.088 1.75 17.875-4.199 19.625-13.287z" fill="url(#paint6_linear)"/><path d="M252.362 78.087c1.521-8.768-4.354-17.109-13.122-18.63-8.769-1.521-17.11 4.354-18.631 13.122-1.521 8.768 4.354 17.11 13.123 18.63 8.768 1.521 17.109-4.354 18.63-13.122z" fill="url(#paint7_linear)"/><path opacity=".72" d="M224.63 68.16a.474.474 0 01-.219-.052.47.47 0 01-.241-.274.487.487 0 01.023-.364 15.363 15.363 0 0113.781-8.486c.933 0 1.865.085 2.784.251a.474.474 0 01.413.558.467.467 0 01-.21.315.477.477 0 01-.374.061 14.695 14.695 0 00-2.617-.236 14.421 14.421 0 00-12.935 7.965.47.47 0 01-.405.262z" fill="#fff"/><path opacity=".72" d="M240.018 88.368c7.516-.926 12.858-7.768 11.933-15.284-.926-7.516-7.769-12.858-15.284-11.933-7.516.926-12.858 7.769-11.933 15.284.926 7.516 7.769 12.858 15.284 11.933z" fill="#fff"/><path d="M236.993 84.962v-1.496a12.19 12.19 0 01-4.184-.908.87.87 0 01-.478-1.02l.38-1.388a.86.86 0 01.461-.552.876.876 0 01.719-.018c1.222.523 2.536.8 3.866.814 1.496 0 2.617-.508 2.617-1.549 0-.94-.872-1.499-2.945-2.057-2.969-.812-5.102-2.107-5.102-4.72 0-2.364 1.728-4.165 4.723-4.648v-1.492a.875.875 0 01.872-.872h.873a.874.874 0 01.873.872v1.34c1.13.027 2.249.228 3.318.595a.873.873 0 01.541 1.045l-.349 1.285a.866.866 0 01-.789.637.871.871 0 01-.354-.052 9.09 9.09 0 00-3.255-.591c-1.778 0-2.284.737-2.284 1.396 0 .814 1.066 1.372 3.377 2.083 3.298.99 4.67 2.36 4.67 4.824 0 2.26-1.675 4.29-4.926 4.799v1.67a.875.875 0 01-.872.874h-.873a.868.868 0 01-.811-.536.856.856 0 01-.068-.335z" fill="url(#paint8_linear)"/><path d="M266.248 116.182c2.389-9.218-3.147-18.628-12.366-21.017-9.218-2.39-18.628 3.147-21.017 12.365-2.389 9.219 3.147 18.628 12.365 21.018 9.219 2.389 18.629-3.147 21.018-12.366z" fill="url(#paint9_linear)"/><path d="M261.334 123.635c6.51-6.51 6.51-17.066 0-23.577-6.511-6.51-17.066-6.51-23.577 0-6.51 6.511-6.51 17.067 0 23.577 6.511 6.511 17.066 6.511 23.577 0z" fill="url(#paint10_linear)"/><path opacity=".72" d="M235.801 105.395a.494.494 0 01-.366-.165.471.471 0 01-.118-.345.486.486 0 01.048-.179 15.8 15.8 0 0114.18-8.726c.96 0 1.918.086 2.862.257a.48.48 0 01.328.19.475.475 0 01-.498.744 14.94 14.94 0 00-16.015 7.96.464.464 0 01-.421.264z" fill="#fff"/><path opacity=".72" d="M263.277 116.649c2.463-7.394-1.533-15.384-8.926-17.848-7.393-2.463-15.384 1.533-17.847 8.926-2.464 7.393 1.532 15.383 8.925 17.847 7.394 2.464 15.384-1.532 17.848-8.925z" fill="#fff"/><path d="M248.525 122.696v-1.527a12.548 12.548 0 01-4.306-.934.885.885 0 01-.491-1.049l.388-1.431a.896.896 0 011.215-.585c1.258.538 2.609.822 3.977.838 1.542 0 2.692-.524 2.692-1.595 0-.966-.888-1.54-3.03-2.116-3.054-.835-5.251-2.168-5.251-4.858 0-2.43 1.776-4.285 4.858-4.782v-1.527a.9.9 0 01.262-.633.9.9 0 01.633-.262h.901a.892.892 0 01.894.895v1.379c1.163.028 2.314.235 3.414.613a.885.885 0 01.557 1.073l-.358 1.322a.892.892 0 01-1.176.6 9.346 9.346 0 00-3.349-.607c-1.828 0-2.349.757-2.349 1.436 0 .837 1.091 1.411 3.473 2.142 3.396 1.019 4.799 2.43 4.799 4.963 0 2.325-1.725 4.415-5.07 4.939v1.717a.894.894 0 01-.894.894h-.901a.9.9 0 01-.824-.561.898.898 0 01-.064-.344z" fill="url(#paint11_linear)"/><path d="M271.668 100.987c6.978 0 12.634-5.656 12.634-12.633 0-6.977-5.656-12.633-12.634-12.633-6.977 0-12.633 5.656-12.633 12.633 0 6.977 5.656 12.633 12.633 12.633z" fill="#FF4F5A"/><path d="M280.305 96.991c4.77-4.77 4.77-12.503 0-17.273s-12.504-4.77-17.274 0c-4.77 4.77-4.77 12.503 0 17.273s12.504 4.77 17.274 0z" fill="url(#paint12_linear)"/><path opacity=".72" d="M261.596 83.756a.492.492 0 01-.461-.323.464.464 0 01.025-.365 11.695 11.695 0 0110.493-6.463c.711 0 1.421.064 2.12.191a.48.48 0 01.328.19.475.475 0 01-.498.744 10.809 10.809 0 00-11.597 5.764.473.473 0 01-.41.262z" fill="#fff"/><path opacity=".72" d="M281.255 93.099c2.473-5.146.307-11.323-4.84-13.797-5.146-2.473-11.323-.306-13.796 4.84-2.473 5.146-.307 11.323 4.84 13.796 5.146 2.474 11.323.307 13.796-4.84z" fill="#fff"/><path d="M270.916 96.306v-1.124a9.204 9.204 0 01-3.154-.685.656.656 0 01-.36-.767l.286-1.05a.663.663 0 01.345-.422.652.652 0 01.545-.014 7.622 7.622 0 002.914.613c1.128 0 1.964-.384 1.964-1.167 0-.71-.655-1.13-2.219-1.551-2.24-.613-3.848-1.588-3.848-3.56 0-1.78 1.309-3.14 3.56-3.491V81.96a.653.653 0 01.655-.654h.654a.654.654 0 01.655.654v1.01a8.357 8.357 0 012.5.45.653.653 0 01.408.787l-.262.969a.653.653 0 01-.873.436 6.812 6.812 0 00-2.452-.436c-1.342 0-1.723.554-1.723 1.051 0 .613.802 1.034 2.546 1.57 2.486.747 3.521 1.781 3.521 3.638 0 1.703-1.264 3.235-3.709 3.617v1.258a.654.654 0 01-.655.655h-.654a.654.654 0 01-.644-.66z" fill="url(#paint13_linear)"/><path opacity=".69" d="M265.797 128.214H221.68a.711.711 0 110-1.422h44.117a.711.711 0 110 1.422z" fill="#fff"/><path stroke="#1A2E35" d="M392.02 261.411H87.914M119.984 246.141H85.08"/><path d="M447.536 102.635l-.419-.77-.05-.1c-.085-.17-.262-.528-.537-1.006a.354.354 0 01.257-.543.358.358 0 01.268.077.358.358 0 01.09.111c.098.17.186.327.26.466a.36.36 0 01.367.033.349.349 0 01.132.378c-.08.336-.133.517-.133.517l-.235.837zm.436-2.836a.39.39 0 01-.1 0 .353.353 0 01-.28-.416c.112-.57.218-1.154.31-1.746a.357.357 0 01.407-.295.355.355 0 01.296.407 52.538 52.538 0 01-.315 1.764.355.355 0 01-.318.292V99.8zm-2.062-.37a.352.352 0 01-.32-.151 16.95 16.95 0 00-1.074-1.37.353.353 0 01-.086-.258.354.354 0 01.379-.33c.095.006.182.05.244.121.397.456.77.933 1.117 1.429a.349.349 0 01.061.265.356.356 0 01-.146.23.37.37 0 01-.183.07l.008-.007zm-2.343-2.658a.35.35 0 01-.266-.087 11.163 11.163 0 00-1.365-1.05.344.344 0 01-.171-.224.35.35 0 01.148-.381.354.354 0 01.409.01c.512.334.997.706 1.453 1.113a.358.358 0 01.028.504.354.354 0 01-.236.115zm4.963-.473a.356.356 0 01-.384-.395 52.39 52.39 0 00.184-1.745.355.355 0 01.707.061 46.944 46.944 0 01-.184 1.78.36.36 0 01-.323.295v.004zm-7.943-1.429a.353.353 0 01-.163-.024 7.823 7.823 0 00-1.152-.366c-.174-.04-.345-.083-.508-.127a.356.356 0 01.185-.687c.155.043.316.083.484.122.429.1.849.233 1.257.4a.353.353 0 01.216.38.355.355 0 01-.319.302zm-6.69.066l-.707.045a1.585 1.585 0 00-.628-.981.355.355 0 01.458-.544c.282.225.515.505.685.823a.354.354 0 01.198.331l-.006.326zm3.318-1.165a.37.37 0 01-.179-.031 7.22 7.22 0 01-1.586-.977.343.343 0 01-.087-.108.348.348 0 01-.025-.272.356.356 0 01.568-.168c.435.353.915.646 1.427.873a.354.354 0 01.174.471.347.347 0 01-.292.207v.005zm11.616-1.015h-.048a.353.353 0 01-.338-.37c.026-.59.042-1.183.044-1.763a.354.354 0 01.356-.356.356.356 0 01.355.356c0 .589-.017 1.19-.046 1.79a.353.353 0 01-.323.339v.004zm-15.187.417h-.046a.352.352 0 01-.319-.234.339.339 0 01-.021-.137c.028-.692.061-1.294.096-1.789a.36.36 0 01.513-.293.356.356 0 01.196.343 78.33 78.33 0 00-.096 1.77.357.357 0 01-.323.336v.004zm-2.287-.094a.343.343 0 01-.218-.057c-.451-.29-.94-.617-1.481-1.032a.356.356 0 11.436-.565c.52.402.995.718 1.434 1.002a.357.357 0 01.038.571.356.356 0 01-.202.083l-.007-.002zm3.229-1.597a.347.347 0 01-.345-.188 5.163 5.163 0 01-.488-1.455c-.02-.095-.033-.172-.05-.229a.366.366 0 01.302-.517.345.345 0 01.335.199.924.924 0 01.039.102c.029.1.053.203.072.306.075.44.216.865.419 1.263a.354.354 0 01-.149.48.31.31 0 01-.135.035v.004zm14.256-2.282h-.015a.354.354 0 01-.369-.34 33.743 33.743 0 00-.1-1.558l-.017-.198a.34.34 0 01.081-.26.36.36 0 01.241-.126.358.358 0 01.387.32l.017.203c.044.52.079 1.054.1 1.588a.354.354 0 01-.325.367v.004zm-20.288 1.704a.354.354 0 01-.277-.098c-.434-.42-.846-.862-1.235-1.324a.363.363 0 01-.092-.263.364.364 0 01.125-.25.365.365 0 01.267-.081.356.356 0 01.244.136c.372.444.768.868 1.186 1.27a.357.357 0 01-.216.606l-.002.004zm-2.286-2.71a.349.349 0 01-.321-.15c-.074-.105-.148-.218-.218-.318a12.823 12.823 0 01-.735-1.23.352.352 0 01.025-.41.362.362 0 01.252-.132.354.354 0 01.351.212c.21.4.442.787.696 1.16l.218.31a.35.35 0 01.034.355.357.357 0 01-.293.203h-.009zm22.252-2.534a.358.358 0 01-.382-.304 30.092 30.092 0 00-.31-1.727.359.359 0 01.047-.27.361.361 0 01.367-.158.353.353 0 01.229.152c.026.04.044.083.053.13.12.573.218 1.169.316 1.769a.357.357 0 01-.299.405l-.021.003zm-23.888-.605a.361.361 0 01-.367-.24 12 12 0 01-.462-1.769.37.37 0 01.057-.267.354.354 0 01.231-.147.354.354 0 01.412.288c.103.565.249 1.121.436 1.664a.354.354 0 01-.218.452.393.393 0 01-.094.02h.005zm23.146-2.87a.355.355 0 01-.373-.255 22.979 22.979 0 00-.543-1.663.347.347 0 01-.031-.3.356.356 0 01.362-.237.352.352 0 01.262.147c.031.042.051.09.061.141.205.554.395 1.13.563 1.715a.361.361 0 01-.306.451h.005zm-23.779-.614h-.02a.348.348 0 01-.254-.094.352.352 0 01-.112-.248c-.021-.609.001-1.218.065-1.824a.363.363 0 01.126-.248.359.359 0 01.402-.039.374.374 0 01.108.093.356.356 0 01.071.269c-.06.573-.081 1.149-.063 1.725a.358.358 0 01-.329.366h.006zm22.537-2.711a.353.353 0 01-.351-.2 18.239 18.239 0 00-.818-1.539.358.358 0 01.135-.465.356.356 0 01.474.1c.305.511.591 1.048.853 1.598.02.042.031.088.033.134a.351.351 0 01-.203.339.31.31 0 01-.129.033h.006zm-22.168-.814a.425.425 0 01-.116 0 .36.36 0 01-.22-.164.349.349 0 01-.039-.272c0-.015.349-1.394.665-1.8l.476-.604a.353.353 0 01.479-.039.353.353 0 01.079.475l-.487.62c-.227.488-.4 1-.517 1.527a.362.362 0 01-.327.257h.007zm20.349-2.23a.354.354 0 01-.316-.141 16.058 16.058 0 00-1.111-1.333.356.356 0 11.52-.484c.411.442.799.907 1.16 1.391a.35.35 0 01.067.264.352.352 0 01-.326.304h.006zm-2.421-2.604a.35.35 0 01-.262-.085 16.363 16.363 0 00-1.375-1.06.357.357 0 01-.001-.603.357.357 0 01.405.018c.498.342.977.711 1.435 1.106a.348.348 0 01.123.243.358.358 0 01-.325.38zm-15.766 1.156a.358.358 0 01-.31-.574l1.091-1.398a.353.353 0 01.48-.039c.07.055.117.134.131.222a.352.352 0 01-.053.253l-1.091 1.396a.36.36 0 01-.248.149v-.009zm12.849-3.168a.345.345 0 01-.201-.041 18.532 18.532 0 00-1.566-.757.356.356 0 01.011-.65.356.356 0 01.266-.004c.563.24 1.112.504 1.63.787a.355.355 0 01.141.482.35.35 0 01-.281.192V71.2zm-10.65.374a.344.344 0 01-.251-.075.34.34 0 01-.09-.105.345.345 0 01-.032-.27.36.36 0 01.063-.124l1.091-1.396a.353.353 0 01.48-.04c.07.056.117.135.131.223a.352.352 0 01-.053.253l-1.091 1.398a.354.354 0 01-.248.144v-.008zm7.388-1.765a.338.338 0 01-.139-.016 22.258 22.258 0 00-1.682-.473.357.357 0 01-.259-.428.356.356 0 01.425-.264 25.3 25.3 0 011.745.49.359.359 0 01.188.146c.043.069.062.15.053.232a.356.356 0 01-.322.313h-.009zm-3.448-.832a.405.405 0 01-.088 0 30.69 30.69 0 00-1.564-.218.356.356 0 01-.401-.552l.148-.19.194.022c.591.062 1.176.14 1.745.234a.352.352 0 01.293.41.35.35 0 01-.327.303v-.008z" fill="#CD4F40"/><path d="M427.688 73.211s-2.559 7.448 2.705 9.915c5.264 2.468 11.189 3.652 12.134 6.22 0 0 2.147-15.249-12.891-18.107l-1.948 1.972z" fill="#FF4F5A"/><path d="M411.737 68.68s-4.913 5.97-3.927 8.395c.943 2.308 14.093 13.862 15.374 14.985a.141.141 0 00.196 0 1.979 1.979 0 00.58-1.7c-.436-3.027-1.806-12.059-3.095-14.657-1.556-3.146-9.128-7.022-9.128-7.022z" fill="#BABABA"/><path d="M419.223 87.172a.187.187 0 01-.135-.043c-.072-.066-7.164-6.519-10.107-9.416a1.858 1.858 0 01-.436-1.979 27.808 27.808 0 012.484-5.036.181.181 0 01.239-.04.179.179 0 01.06.234 27.3 27.3 0 00-2.45 4.97 1.499 1.499 0 00.354 1.599c2.938 2.892 10.035 9.338 10.098 9.404a.178.178 0 010 .25.163.163 0 01-.107.058z" fill="#3E5960"/><path d="M424.594 56.134s6.088-4.765 8.49-3.709c2.282 1 13.51 14.429 14.601 15.738a.138.138 0 01.033.1.14.14 0 01-.046.096 1.976 1.976 0 01-1.712.537c-3.017-.508-12.012-2.101-14.577-3.456-3.098-1.638-6.789-9.306-6.789-9.306z" fill="#BABABA"/><path d="M442.743 64.23a.172.172 0 01-.148-.061c-.063-.072-6.326-7.315-9.162-10.325a1.505 1.505 0 00-1.591-.393 27.237 27.237 0 00-5.017 2.325.179.179 0 01-.245-.056.18.18 0 01.059-.245 27.052 27.052 0 015.096-2.36 1.858 1.858 0 011.964.486c2.823 3.015 9.099 10.254 9.162 10.336a.175.175 0 01.042.13.18.18 0 01-.062.121.169.169 0 01-.098.042z" fill="#3E5960"/><path d="M393.676 50.024a39.936 39.936 0 007.175 10.196c9.959 10.264 19.051 16.087 21.682 17.67a1.527 1.527 0 001.549 0 26.752 26.752 0 009.197-8.824 2.2 2.2 0 00.042-2.288c-1.793-3.085-7.33-11.961-16.916-21.728a39.875 39.875 0 00-9.941-7.398c-6.455 3.539-10.613 9.09-12.788 12.372z" fill="#F5F5F5"/><path d="M406.462 37.652c-7.304-3.844-13.997-4.555-16.246-4.686a.75.75 0 00-.565.21.74.74 0 00-.225.56c.077 2.243.618 8.914 4.248 16.281 2.175-3.275 6.333-8.827 12.788-12.365z" fill="#BABABA"/><path d="M413.111 46.942c2.587 2.65 2.378 7.05-.467 9.817-2.845 2.766-7.249 2.88-9.837.218-2.587-2.662-2.378-7.05.469-9.828 2.847-2.777 7.25-2.86 9.835-.207z" fill="#1A2E35"/><path d="M411.714 55.532c2.268-2.212 2.435-5.718.373-7.831-2.061-2.113-5.57-2.033-7.837.179-2.267 2.212-2.435 5.718-.373 7.83 2.061 2.114 5.57 2.033 7.837-.178z" fill="#385A64"/><path d="M404.402 53.796a.183.183 0 01-.172-.096c-.873-1.689-.489-3.83.929-5.214a4.717 4.717 0 011.202-.85.176.176 0 01.196.026.168.168 0 01.042.056.171.171 0 01.009.135.16.16 0 01-.035.06.17.17 0 01-.055.04c-.41.203-.785.469-1.112.788a4.134 4.134 0 00-.86 4.8c.022.042.026.09.011.136a.176.176 0 01-.087.104.187.187 0 01-.068.015z" fill="#BDD0FB"/><path d="M420.774 58.294c1.708 1.745 1.571 4.657-.31 6.492-1.88 1.834-4.799 1.902-6.499.15-1.699-1.752-1.568-4.66.31-6.492 1.878-1.832 4.789-1.902 6.499-.15z" fill="#1A2E35"/><path d="M420.09 58.787c1.361 1.396 1.25 3.709-.247 5.175-1.496 1.465-3.815 1.513-5.179.117-1.363-1.396-1.25-3.708.247-5.172 1.496-1.464 3.818-1.516 5.179-.12z" fill="#385A64"/><path d="M415.024 62.878a.181.181 0 01-.173-.096 3.024 3.024 0 01.624-3.514c.238-.234.512-.428.812-.574a.177.177 0 01.155.318 2.836 2.836 0 00-.718.508 2.669 2.669 0 00-.556 3.098.178.178 0 01.009.136.178.178 0 01-.153.124z" fill="#BDD0FB"/><path d="M353.919 132.398s5.93 1.977 9.771 10.446c1.05 2.316 6.752 2.727 7.341 7.478a5.459 5.459 0 004.562 4.799c6.084.932 15.462 4.091 16.961 14.656 1.145 8.071-2.965 11.126-7.28 12.179-3.167.777-5.272 3.859-4.633 7.06.615 3.067-.301 6.614-5.618 9.42-11.911 6.285-23.807-14.892-23.807-14.892l-2.439-36.974 5.142-14.172z" fill="#1A2E35"/><path d="M315.639 131.252s14.834 23.469 32.483 28.004c0 0-3.438 9.791-6.091 10.908 0 0-21.708-18.107-27.289-35.583l.897-3.329z" fill="url(#paint14_linear)"/><path d="M386.627 281.368l.48 3.953a1.635 1.635 0 001.433 1.429 25.36 25.36 0 005.291.083 1.391 1.391 0 001.016-.628 1.4 1.4 0 00.159-1.185c-.486-1.527-1.374-3.817-2.652-5.166h-4.387a1.365 1.365 0 00-1.011.456 1.346 1.346 0 00-.329 1.058z" fill="#FF735C"/><path d="M352.273 235.056l-.742 4.363s2.481 25.109 2.921 35.153a7.877 7.877 0 01-1.165 4.474l-4.31 6.999 10.955-6.464.218-1.338-1.793-2.465 2.347-28.128a8.624 8.624 0 00-.981-4.774l-2.267-4.258-5.183-3.562z" fill="url(#paint15_linear)"/><path d="M348.255 287.05h3.49a2.101 2.101 0 001.671-.818c1.091-1.418 3.347-4.18 4.427-4.252 1.453-.098 1.267 5.07 1.267 5.07h.831l1.032-6.42a3.8 3.8 0 00-1.996-3.973s-.331 2.457-2.133 3.543c-1.802 1.086-7.33 4.98-7.33 4.98a4.954 4.954 0 00-1.423.038c-1.11.198-.957 1.832.164 1.832z" fill="#FF735C"/><path d="M367.281 237.124s14.523 27.548 16.831 33.837c2.308 6.29 3.117 11.536 3.148 12.034.048.776 1.014 1.527 3.676 1.527 1.372 0 2.046-.55 2.375-1.091a1.543 1.543 0 00.059-1.503c-.84-1.699-3.506-7.134-4.494-9.599-1.178-2.943-3.708-16.276-5.105-20.912-1.396-4.636-2.962-9.664-9.018-14.295 0 .002-4.158-4.069-7.472.002z" fill="url(#paint16_linear)"/><path d="M358.103 191.985c-3.745-15.873 5.744-24.852 5.744-24.852-5.988-5.746-16.898-8.362-16.898-8.362s-10.41 7.612-9.175 13.567c.724 3.491 7.319 20.915 7.319 20.915s6.097 2.886 13.01-1.268z" fill="#FF4F5A"/><path d="M366.411 199.846c-1.527-4.595-8.307-7.854-8.307-7.854-6.913 4.145-13.011 1.268-13.011 1.268s-1.368 5.235-.436 10.085c.931 4.849 6.865 36.071 6.865 36.071 9.331 1.892 23.678-1.902 23.678-1.902-5.931-10.556-7.266-33.076-8.789-37.668z" fill="#1A2E35"/><path d="M353.76 148.28l3.054 13.68c.293 1.207-.807 1.008-2.024.779-1.996-.375-4.566-1.152-5.425-2.703a1.445 1.445 0 01-.158-.517l-1.308-9.485a1.703 1.703 0 01.999-1.791l2.524-1.119a1.693 1.693 0 011.438.033 1.708 1.708 0 01.9 1.123z" fill="url(#paint17_linear)"/><path d="M347.923 135.822s-3.25 2.182-4.636 7.773c-1.385 5.592.873 7.594 3.192 7.472 2.319-.122 5.687-.842 8.602-4.852 2.914-4.009-2.908-13.087-7.158-10.393z" fill="url(#paint18_linear)"/><path d="M352.14 143.961s1.189-8.008-5.453-6.784l-1.346 1.4s-3.255-3.667.349-6.437c3.604-2.771 8.599-2.06 11.365 2.984 2.767 5.044 3.768 8.589 1.451 11.723-2.317 3.135-4.062.437-4.062.437s1.063-2.712.181-3.877c-.881-1.165-2.02.676-2.02.676l-.465-.122z" fill="#1A2E35"/><path d="M353.051 144.647s.587-4.121 2.692-2.943c2.105 1.178-.759 3.85-1.907 4.76l-.785-1.817z" fill="url(#paint19_linear)"/><path d="M315.742 136.081c-.046.485 1.745.821 2.327-1.243-.157-.897-.436-4.821-1.125-5.43-3.659-3.248-10.184-6.9-10.184-6.9a1.331 1.331 0 00.218 1.848l3.257 2.199c-.34 1.125-.835 2.12-.892 3.405a3.829 3.829 0 00.964 2.664 33.608 33.608 0 002.308 2.421 3.771 3.771 0 003.127 1.036z" fill="url(#paint20_linear)"/><path d="M313.992 134.473l.456-.187c-.065-.162-1.627-3.955-2.38-4.743-.292-.303-.436-.567-.419-.781a.577.577 0 01.184-.36l2.657 1.42 1.167 1.828.416-.266-1.236-1.937-3.07-1.64-.126.104a1.153 1.153 0 00-.487.823c-.022.36.162.737.556 1.152.572.597 1.842 3.514 2.282 4.587z" fill="url(#paint21_linear)"/><path d="M363.849 167.133s16.861 34.619 22.967 37.644c0 0 6.2.655 9.993 1.796a.996.996 0 01.511.367.995.995 0 01-.55 1.539c-2.642.722-7.02 1.325-11.032-.855 0 0 2.155 3.231.899 4.49 0 0-2.873-3.412-3.951-4.49-.949-.947-18.216-19.771-25.474-31.124-.586-.918-.181-3.643.219-4.653.946-2.323 3.025-6.034 6.418-4.714z" fill="url(#paint22_linear)"/><path d="M351.082 132.842c1.427.467 2.703 1.325 3.861 2.269a16.14 16.14 0 015.587 9.481 20.8 20.8 0 00.489 2.238 4.96 4.96 0 001.145 2.051 7.375 7.375 0 001.896 1.357c.676.362 1.363.676 2.009 1.041a8.245 8.245 0 013.973 5.065c.205.716.362 1.464.632 2.199.253.76.705 1.438 1.309 1.963a5.706 5.706 0 002.11 1.052c.74.196 1.49.353 2.247.469 1.478.226 2.923.63 4.304 1.204 2.727 1.152 5.236 3.085 6.571 5.744a7.415 7.415 0 01.789 4.282 6.402 6.402 0 01-1.93 3.873 4.781 4.781 0 01-1.889 1.09 5.014 5.014 0 01-2.193.103c-1.453-.218-2.849-1.158-3.397-2.561l-.115.043c.537 1.466 1.963 2.466 3.473 2.734a5.27 5.27 0 002.304-.061 5.08 5.08 0 002.028-1.113c1.176-1.034 1.859-2.53 2.088-4.055a7.815 7.815 0 00-.777-4.52 11.172 11.172 0 00-2.836-3.609 15.364 15.364 0 00-3.926-2.399 19.145 19.145 0 00-4.407-1.255 20.768 20.768 0 01-2.181-.462 5.198 5.198 0 01-1.92-.96 4.055 4.055 0 01-1.17-1.745c-.257-.685-.416-1.42-.63-2.158a8.718 8.718 0 00-4.223-5.342c-.672-.378-1.364-.688-2.023-1.039a6.927 6.927 0 01-1.784-1.261 4.504 4.504 0 01-1.065-1.863 20.88 20.88 0 01-.504-2.181 16.239 16.239 0 00-5.846-9.575c-1.196-.934-2.5-1.769-3.966-2.216l-.033.117z" fill="#375963"/><path d="M359.117 143.203c.028.979.122 1.956.282 2.923.153.987.486 1.937.983 2.803.263.434.584.831.954 1.178.369.337.762.646 1.176.925.813.52 1.592 1.091 2.334 1.708 1.442 1.239 2.653 2.786 3.03 4.636.436 1.832.314 3.864 1.132 5.788a6.232 6.232 0 001.911 2.399 9.847 9.847 0 002.655 1.434c1.892.68 3.848.922 5.725 1.348 1.876.425 3.708 1.128 5.035 2.502.637.676 1.199 1.527 1.21 2.45.011.923-.425 1.843-.853 2.709l.109.057c.482-.836.991-1.728 1.028-2.764a3.192 3.192 0 00-.343-1.483 5.763 5.763 0 00-.844-1.253c-1.363-1.514-3.307-2.301-5.203-2.788-1.896-.486-3.852-.733-5.63-1.407s-3.419-1.793-4.145-3.49c-.757-1.695-.679-3.709-1.143-5.648a7.818 7.818 0 00-1.242-2.762 10.525 10.525 0 00-2.068-2.168c-1.503-1.309-3.49-1.964-4.485-3.587a7.802 7.802 0 01-1.058-2.637 26.611 26.611 0 01-.436-2.878l-.114.005z" fill="#375963"/><path d="M450.284 107.066l1.026 1.597a.712.712 0 01-1.194.77l-1.029-1.595a.714.714 0 01.012-.791.717.717 0 01.735-.291.707.707 0 01.448.31h.002zM453.063 111.518l.956 1.641a.703.703 0 01-.265.945.71.71 0 01-.955-.232l-.96-1.638a.71.71 0 01.253-.969.71.71 0 01.969.253h.002zM455.641 116.09l.872 1.682a.696.696 0 01.049.536.699.699 0 01-.607.492.72.72 0 01-.515-.16.7.7 0 01-.172-.214l-.873-1.682a.707.707 0 01.303-.94.703.703 0 01.945.286h-.002zM457.916 120.787l.829 1.726a.68.68 0 01.042.538.687.687 0 01-1.286.045l-.785-1.724a.693.693 0 01.093-.764.68.68 0 01.215-.165c.351-.162.892 0 .892.344zM460.295 125.607l.591 1.765a.726.726 0 01-.431.929.729.729 0 01-.934-.421l-.705-1.767c-.142-.358.126-.761.484-.901.358-.139.519.035.995.393v.002zM461.713 130.537l.681 1.806a.657.657 0 01-.187.703.663.663 0 01-.474.162.643.643 0 01-.45-.221.644.644 0 01-.128-.221l-.572-1.804c-.118-.362 0-.752.351-.872.352-.12.779.08.779.436v.011zM463.611 135.579l.366 1.837a.72.72 0 01-.547.835.708.708 0 01-.856-.499l-.475-1.837c-.094-.369.218-.744.587-.836.368-.091.449.129.925.498v.002zM464.559 140.709l.347 1.868a.666.666 0 01-.091.529.673.673 0 01-.447.297.683.683 0 01-.707-.325.699.699 0 01-.088-.259l-.334-1.868a.675.675 0 01.539-.796c.371-.065.781.181.781.554zM465.507 145.915l.136 1.887a.7.7 0 01-.633.746.692.692 0 01-.761-.604l-.205-1.887a.719.719 0 01.654-.749c.373-.039.803.232.803.607h.006zM465.981 151.165l-.035 1.898a.708.708 0 01-.698.694.695.695 0 01-.716-.654l-.067-1.896a.747.747 0 01.737-.696c.375-.011.779.284.779.654zM465.981 156.434l-.168 1.893a.714.714 0 01-.744.64.69.69 0 01-.655-.703l.079-1.893a.746.746 0 01.773-.634.749.749 0 01.717.697h-.002zM465.508 161.687l-.269 1.881a.677.677 0 01-.759.58.672.672 0 01-.589-.744l.229-1.883a.696.696 0 01.775-.582.73.73 0 01.613.746v.002zM464.558 166.892l-.321 1.861a.635.635 0 01-.991.418.644.644 0 01-.275-.423.673.673 0 01.005-.257l.38-1.861a.621.621 0 01.252-.419.62.62 0 01.479-.102c.359.072.471.423.471.783zM463.609 172.034l-.556 1.831a.685.685 0 01-.836.46.665.665 0 01-.473-.812l.497-1.83a.71.71 0 01.86-.462c.351.096.508.46.508.813zM462.188 177.069l-.737 1.786a.715.715 0 01-.888.397.67.67 0 01-.421-.84l.624-1.786a.768.768 0 01.933-.399.855.855 0 01.489.839v.003zM460.298 181.982l-.872 1.734a.71.71 0 01-1.124.188.659.659 0 01-.141-.718l.757-1.745a.76.76 0 01.953-.334c.329.146.423.532.423.873l.004.002zM457.844 186.74l-.895 1.671a.652.652 0 01-1.145-.15.654.654 0 010-.461l.894-1.673a.658.658 0 01.921-.347.656.656 0 01.225.957v.003zM455.252 191.318l-1.01 1.604a.64.64 0 01-.405.378.655.655 0 01-.686-1.063l1.008-1.608a.658.658 0 01.834-.114.655.655 0 01.257.801l.002.002zM452.353 195.705l-1.117 1.527a.638.638 0 01-.882.124.644.644 0 01-.154-.878l1.115-1.528a.65.65 0 01.419-.266.64.64 0 01.742.538.635.635 0 01-.123.481v.002zM449.172 199.889l-1.211 1.46a.641.641 0 01-.432.238.644.644 0 01-.474-.142.638.638 0 01-.076-.908l1.211-1.462a.64.64 0 11.984.814h-.002zM445.744 203.868l-1.298 1.385a.635.635 0 11-.925-.872l1.287-1.37a.628.628 0 01.444-.2.627.627 0 01.6.375.649.649 0 01.015.487.622.622 0 01-.132.21l.009-.015zM442.084 207.637l-1.372 1.308a.632.632 0 01-.873-.909l1.37-1.309a.63.63 0 01.893.02.634.634 0 01-.02.892l.002-.002zM438.225 211.199l-1.437 1.237a.63.63 0 01-.867-.08.624.624 0 01.051-.869l1.437-1.239a.626.626 0 01.859.089.628.628 0 01-.041.862h-.002zM434.195 214.557l-1.496 1.165a.614.614 0 01-.459.126.62.62 0 01-.305-1.108l1.497-1.165a.62.62 0 01.874.108.625.625 0 01-.108.874h-.003zM430.004 217.397l-1.549 1.254a.6.6 0 01-.446.145.61.61 0 01-.416-.214.574.574 0 01.148-.821l1.547-1.077c.279-.197.655-.28.873 0 .218.279.131.715-.147.715l-.01-.002zM425.68 220.716l-1.597 1.008a.62.62 0 01-.655-1.043l1.595-1.031a.62.62 0 01.851.2c.183.286.102.393-.184.873l-.01-.007zM421.235 223.081l-1.639 1.146c-.29.172-.654.168-.833-.125a.563.563 0 01-.063-.441.56.56 0 01.281-.346l1.634-.94c.293-.171.655-.247.838.043.183.29.074.655-.218.655v.008zM416.683 225.935l-1.674.958a.582.582 0 01-.455.061.593.593 0 01-.365-.279.586.586 0 01.247-.805l1.671-.891a.588.588 0 01.451-.078c.076.018.149.05.213.096a.617.617 0 01.158.172c.159.295.05.766-.246.766zM412.037 228.317l-1.704.921a.593.593 0 01-.658-.054.58.58 0 01-.149-.178.574.574 0 01.089-.648.572.572 0 01.186-.137l1.703-.827c.299-.146.655-.105.808.194.152.299.024.729-.275.729zM407.305 230.677l-1.732.801a.602.602 0 01-.451.017.58.58 0 01-.33-.307.593.593 0 01.104-.646.577.577 0 01.186-.135l1.732-.775a.6.6 0 01.454-.027.595.595 0 01.338.305c.135.301 0 .294-.301.767zM402.499 232.576l-1.745.837a.564.564 0 01-.445.031.58.58 0 01-.332-.297.563.563 0 01.327-.746l1.746-.702c.303-.125.654-.092.776.218.122.309-.022.654-.327.654v.005zM397.625 234.474l-1.78.792a.559.559 0 01-.757-.282.551.551 0 01.347-.724l1.78-.654c.305-.114.654-.083.761.218.107.301-.044.635-.349.635l-.002.015zM392.696 236.372l-1.8.667a.554.554 0 01-.445-.005.568.568 0 01-.333-.553.57.57 0 01.405-.502l1.8-.595a.549.549 0 01.437-.006.56.56 0 01.307.313c.104.308-.061.681-.371.681zM387.714 237.794l-1.817.704c-.307.092-.632 0-.724-.312a.536.536 0 01.046-.427.55.55 0 01.344-.258l1.818-.525c.307-.094.634-.068.726.24a.41.41 0 01-.037.395.414.414 0 01-.353.183h-.003zM382.679 239.225l-1.834.655c-.308.08-.626-.016-.707-.325a.537.537 0 01.064-.416.537.537 0 01.346-.239l1.833-.469c.309-.083.628-.061.711.249a.406.406 0 01-.413.545zM377.617 240.641l-1.848.539a.533.533 0 01-.591-.183.533.533 0 01-.026-.618.541.541 0 01.355-.237l1.848-.419c.31-.072.619.017.694.327a.457.457 0 01-.437.591h.005zM372.493 241.59l-1.861.571c-.308.063-.609-.037-.672-.347a.524.524 0 01.456-.626l1.859-.347c.312-.063.613-.052.676.258.063.31-.14.486-.45.486l-.008.005zM367.349 243.012l-1.872.286a.578.578 0 01-.649-.478.58.58 0 01.097-.424.582.582 0 01.367-.235l1.872-.316a.585.585 0 01.654.489c.052.312-.157.202-.467.678h-.002zM362.174 243.486l-1.881.388a.513.513 0 01-.632-.416.528.528 0 01.484-.596l1.881-.233c.309-.042.593.046.634.355a.441.441 0 01-.117.373.426.426 0 01-.169.108.425.425 0 01-.2.021zM356.976 244.434l-1.89.166a.57.57 0 01-.488-.927.561.561 0 01.377-.205l1.889-.192a.578.578 0 01.616.523c.03.308-.195.162-.504.635zM351.766 244.91l-1.894.12a.563.563 0 01-.083-1.125l1.892-.146a.567.567 0 01.597.532c.024.307-.205.144-.512.619zM346.549 244.911l-1.896.25a.491.491 0 01-.578-.436.522.522 0 01.521-.541l1.896-.078c.305-.018.565.072.582.377.018.305-.218.436-.523.436l-.002-.008zM341.318 245.384l-1.896.079a.551.551 0 01-.39-.142.536.536 0 01.152-.888.534.534 0 01.208-.046l1.898-.048a.527.527 0 01.412.892.514.514 0 01-.384.153zM336.086 245.383h-1.898a.49.49 0 01-.497-.273.477.477 0 01.116-.566.514.514 0 01.381-.136l1.898.016a.478.478 0 01.505.279.478.478 0 01-.122.565.478.478 0 01-.383.115zM330.852 245.383h-1.885a.518.518 0 01-.178-1.009.538.538 0 01.207-.032l1.895.055a.495.495 0 01.528.506.496.496 0 01-.175.358.496.496 0 01-.381.12l-.011.002zM325.625 244.91l-1.896.093c-.294-.015-.521-.168-.506-.464a.494.494 0 01.362-.444.487.487 0 01.201-.014l1.896.124c.297.015.526.083.508.38-.017.296-.268.325-.565.325zM320.403 244.91l-1.891-.122a.529.529 0 01-.361-.177.51.51 0 01-.069-.58.522.522 0 01.517-.279l1.891.157a.5.5 0 01.464.341c.022.065.03.134.025.202a.53.53 0 01-.576.458zM315.193 244.435l-1.885-.175a.516.516 0 01-.09-1.012.527.527 0 01.205-.016l1.885.219a.49.49 0 01.354.174.503.503 0 01.115.378.524.524 0 01-.584.436v-.004zM309.987 243.486l-1.879-.068c-.285-.042-.486-.218-.447-.495a.493.493 0 01.594-.399l1.878.285c.288.042.488.122.449.413-.039.29-.305.739-.593.264h-.002zM304.821 243.012l-1.87-.277a.497.497 0 01-.363-.766.5.5 0 01.325-.226.528.528 0 01.202-.003l1.872.323a.492.492 0 01.341.186.481.481 0 01.095.377c-.048.284-.319.386-.602.386zM299.673 242.06l-1.861-.322a.502.502 0 01-.326-.207.503.503 0 01-.078-.378.519.519 0 01.223-.323.504.504 0 01.386-.068l1.861.38a.461.461 0 01.326.191.482.482 0 01.079.176c.013.064.014.13.001.194-.057.281-.33.357-.611.357zM294.552 241.114l-1.846-.449a.526.526 0 01-.384-.626.517.517 0 01.617-.389l1.848.437a.53.53 0 01.322.237.532.532 0 01.062.395.584.584 0 01-.617.402l-.002-.007zM289.467 239.692l-1.833-.418a.483.483 0 01-.306-.216.464.464 0 01-.054-.371.49.49 0 01.24-.303.482.482 0 01.384-.042l1.833.497a.445.445 0 01.31.196.443.443 0 01.052.363c-.072.273-.351.294-.624.294h-.002zM284.43 238.268l-1.817-.465a.457.457 0 01-.356-.399.478.478 0 01.454-.532.49.49 0 01.194.026l1.817.554a.438.438 0 01.355.373.428.428 0 01-.015.181c-.08.268-.362.262-.63.262h-.002zM279.436 236.845l-1.798-.589a.487.487 0 01-.18-.091.485.485 0 01-.187-.348.509.509 0 01.127-.375.504.504 0 01.36-.164.495.495 0 01.198.038l1.8.602a.487.487 0 01.319.624c-.09.264-.376.303-.637.303h-.002zM274.488 234.948l-1.78-.555a.425.425 0 01-.279-.227.424.424 0 01-.014-.359.477.477 0 01.263-.269.49.49 0 01.376 0l1.781.672a.394.394 0 01.323.369.403.403 0 01-.029.172c-.096.26-.382.197-.641.197zM269.602 233.049l-1.745-.596a.436.436 0 01-.273-.585.49.49 0 01.276-.261.488.488 0 01.379.019l1.758.729c.256.102.378.279.273.534-.105.255-.391.16-.655.16h-.013zM264.774 231.153l-1.745-.713a.46.46 0 01-.249-.62.484.484 0 01.655-.235l1.745.774a.43.43 0 01.257.242.434.434 0 01-.006.354c-.109.248-.4.198-.655.198h-.002zM260.014 228.78l-1.717-.644a.4.4 0 01-.233-.565.471.471 0 01.654-.194l1.719.825c.245.113.349.251.236.495-.114.244-.406.558-.655.083h-.004zM255.297 226.884l-1.706-.838a.482.482 0 01-.215-.278.482.482 0 01.285-.59.483.483 0 01.351-.005l1.708.827a.495.495 0 01.219.655c-.118.24-.406.233-.655.233l.013-.004zM250.61 224.511l-1.698-.818a.469.469 0 01-.266-.451.49.49 0 01.161-.327.49.49 0 01.529-.069l1.699.847a.444.444 0 01.267.442.445.445 0 01-.049.175c-.118.238-.406.19-.654.19l.011.011zM245.941 222.14l-1.692-.816a.474.474 0 01-.149-.105.439.439 0 01-.118-.336.448.448 0 01.163-.319.478.478 0 01.522-.054l1.695.873a.425.425 0 01.265.426.458.458 0 01-.046.171c-.118.236-.406.17-.64.17v-.01zM241.29 219.768l-1.691-.82a.439.439 0 01-.203-.613.48.48 0 01.276-.229.468.468 0 01.357.035l1.69.872a.431.431 0 01.237.25.45.45 0 01-.018.344c-.12.231-.404.163-.637.163l-.011-.002zM236.645 217.397l-1.69-.829a.431.431 0 01-.234-.261.425.425 0 01.033-.348.457.457 0 01.455-.245c.06.006.119.024.173.053l1.691.873a.442.442 0 01.227.253.443.443 0 01-.024.34c-.118.231-.399.168-.631.168v-.004zM232.001 215.023l-1.691-.826a.449.449 0 01-.233-.258.442.442 0 01.143-.487.455.455 0 01.157-.086.456.456 0 01.352.032l1.693.873a.442.442 0 01.227.252.437.437 0 01-.022.339c-.118.218-.397.17-.626.17v-.009zM227.344 212.652l-1.695-.814a.425.425 0 01-.231-.254.43.43 0 01.026-.343.444.444 0 01.268-.226.465.465 0 01.349.032l1.697.855a.42.42 0 01.205.582c-.113.218-.39.168-.619.168zM222.68 210.281l-1.702-.779a.413.413 0 01-.236-.244.415.415 0 01.018-.339.456.456 0 01.44-.241.457.457 0 01.169.049l1.704.842a.4.4 0 01.218.557c-.112.218-.386.155-.611.155zM217.993 207.909l-1.713-.718a.407.407 0 01-.233-.225.399.399 0 01.015-.324.435.435 0 01.602-.188l1.713.827a.36.36 0 01.139.074.36.36 0 01.121.282.368.368 0 01-.042.152c-.109.218-.38.12-.604.12h.002zM213.286 205.536l-1.723-.615a.353.353 0 01-.229-.202.35.35 0 01.011-.304.421.421 0 01.109-.132.425.425 0 01.484-.045l1.726.811c.218.103.325.205.218.437-.107.231-.369.532-.596.056v-.006zM208.549 203.64l-1.745-.711a.423.423 0 01-.257-.399.414.414 0 01.039-.162.427.427 0 01.417-.259.42.42 0 01.167.041l1.746.763a.4.4 0 01.268.381.403.403 0 01-.037.16c-.098.219-.36.184-.587.184l-.011.002zM203.748 201.742l-1.745-.752a.464.464 0 01-.239-.246.462.462 0 01.092-.49.428.428 0 01.311-.135c.058 0 .116.011.17.033l1.745.718a.47.47 0 01.242.604c-.093.218-.351.268-.578.268h.002zM198.929 199.368l-1.771-.497c-.219-.087-.336-.247-.251-.474a.402.402 0 01.238-.221.43.43 0 01.325.016l1.771.701c.218.087.34.17.253.395-.087.224-.34.556-.565.08zM194.058 197.947l-1.789-.655a.435.435 0 01.288-.822l1.794.628a.451.451 0 01.266.572c-.081.218-.327.283-.554.283l-.005-.006zM189.132 196.048l-1.815-.46a.383.383 0 01-.284-.489.412.412 0 01.372-.285.43.43 0 01.163.023l1.815.565c.218.07.356.219.286.45s-.31.196-.537.196zM184.137 194.626l-1.839-.393a.386.386 0 01-.231-.623.408.408 0 01.443-.14l1.839.48c.218.059.367.218.308.436s-.29.231-.52.231v.009zM179.099 193.195l-1.859-.219c-.218-.048-.373-.178-.325-.407a.403.403 0 01.188-.249.405.405 0 01.309-.033l1.857.408c.218.048.375.1.329.329-.046.229-.27.16-.499.16v.011zM173.983 192.255l-1.874-.135c-.218-.037-.381-.168-.346-.397a.379.379 0 01.173-.255.393.393 0 01.304-.051l1.874.317c.229.037.384.098.349.325-.035.227-.251.196-.48.196zM168.847 191.78l-1.887-.175a.397.397 0 01-.349-.28c-.015-.05-.021-.104-.015-.156a.416.416 0 01.151-.275.41.41 0 01.303-.083l1.887.218a.39.39 0 01.366.436.41.41 0 01-.456.339v-.024zM163.659 191.306l-.847-.031a.4.4 0 01-.36-.266.392.392 0 01.118-.436.415.415 0 01.297-.096l.846.057a.386.386 0 01.384.412.4.4 0 01-.436.36h-.002z" fill="#CD4F40"/><path d="M103.252 242.901h-3.604v38.973h3.604v-38.973z" fill="#1A2E35"/><path d="M85.664 282.638h31.565v-1.723a.624.624 0 00-.622-.624H86.336a.668.668 0 00-.62.415.67.67 0 00-.052.257v1.675z" fill="#1A2E35"/><path d="M117.754 233.621h-33.94a4.119 4.119 0 00-4.119 4.119v3.724a4.119 4.119 0 004.119 4.118h33.94a4.119 4.119 0 004.119-4.118v-3.724a4.119 4.119 0 00-4.119-4.119z" fill="#385A64"/><path d="M133.393 270.039s11.651 5.017 10.984 10.268c0 0-12.044-2.308-14.2-5.751-2.155-3.442-.968-5.436-.968-5.436l4.184.919z" fill="#E86954"/><path d="M130.539 264.312l-.591 5.112a1.696 1.696 0 001.069 1.797c.476.156.975.23 1.477.219a1.963 1.963 0 001.913-1.436l1.145-4.145-5.013-1.547z" fill="url(#paint23_linear)"/><path d="M105.09 225.09s21.429-.992 32.093 5.236c10.663 6.228-.541 36.063-.541 36.063s-2.786.6-6.796-1.545c0 0 5.724-21.848-4.219-25.648-11.178-4.282-22.74-3.244-22.74-3.244l2.142-10.19.061-.672z" fill="#1A2E35"/><path d="M142.03 278.003c-2.436-.534-9.662-3.527-10.759-3.49-1.097.037-2.653 1.684-2.653 1.684s-.268.899.517 2.182c1.863 1.45 5.873 4.116 10.537 4.409 3.43.218 5.493-1.15 6.674-2.474a9.563 9.563 0 00-4.316-2.311z" fill="#FF735C"/><path d="M139.674 282.799c-4.665-.293-8.674-2.959-10.537-4.409.53.872 1.542 1.922 3.442 2.995 4.712 2.664 12.5 2.275 14.043 1.675 1.237-.48.855-1.636-.275-2.735-1.18 1.324-3.248 2.689-6.673 2.474z" fill="#1A2C3A"/><path d="M126.062 273.526c.162.602 1.868 2.415 2.854 3.425a1.938 1.938 0 001.806.543c.45-.09.885-.243 1.292-.454.144-.08.272-.188.374-.318a1.246 1.246 0 00.265-.926 1.244 1.244 0 00-.151-.468l-2.491-4.54-3.949 2.738z" fill="url(#paint24_linear)"/><path d="M83.848 223.301s-1.871 13.27 3.537 15.982c5.408 2.711 17.271 4.489 21.357 11.372 4.086 6.883 11.424 20.391 18.106 24.272 0 0 3.814-1.239 4.929-3.116 0 0-7.926-20.838-11.233-25.903-2.864-4.385-7.051-10.705-13-13.438-1.704-.781-1.837-2.59-1.527-4.44l.545-3.368-22.714-1.361z" fill="#1A2E35"/><path d="M133.976 208.248c-7.58 2.164-10.975-19.176-10.944-19.695l-11.626 13.593s6.927 12.188 17.387 13.486a12.36 12.36 0 006.785-.995 10.89 10.89 0 01-1.602-6.389z" fill="#FF4F5A"/><path d="M148.016 201.267c-3.305-1.359-6.108 1.353-6.108 1.353-3.272 3.35-5.873 5.043-7.934 5.632a10.894 10.894 0 001.601 6.39c4.086-1.872 6.468-5.657 7.448-7.544a1.416 1.416 0 011.872-.635c.7.341 1.422.856 1.468 1.558.089 1.385 1.745 1.466 1.745.955 0-.51-1.276-3.246-1.276-3.246s3.798 2.437 5.275 3.369c1.477.931 2.738-.607 2.738-.607s-3.524-5.868-6.829-7.225z" fill="url(#paint25_linear)"/><path d="M86.773 179.777s10.188-6.953 34.798 5.62c0 0 2.534 3.213 1.348 6.834-1.187 3.622-15.799 23.223-16.362 32.424 0 0-9.987 5.89-22.954.051-.006 0-4.354-24.296 3.17-44.929z" fill="#FF4F5A"/><path d="M107.988 170.889l-4.027 7.89a2.244 2.244 0 00.233 2.42c1.108 1.389 3.423 3.257 7.374 2.052a3.458 3.458 0 002.358-2.508l2.086-8.809-8.024-1.045z" fill="url(#paint26_linear)"/><path d="M79.225 207.329c-.69-4.799 11.986-14.093 11.986-14.093l-4.44-13.46s-24.186 17.261-19.1 31.355c.73 2.021 1.816 3.491 3.142 4.536 2.561-5.253 6.034-7.435 8.412-8.338z" fill="#FF4F5A"/><path d="M96.906 208.66s-14.337 4.005-17.31-.36a2.267 2.267 0 01-.371-.971c-2.378.903-5.851 3.085-8.412 8.338 6.808 5.356 19.932-.655 23.499-2.448a2.514 2.514 0 011.89-.157c1.267.395 3.466 1.01 4.689.943 1.791-.099 3.709 6.376 6.763 4.736 0 0-1.385-11.061-10.748-10.081z" fill="url(#paint27_linear)"/><path d="M113.152 157.994c.17.149 7.531 13.22 7.531 13.22l-7.555 4.045-8.816-11.344s5.967-8.408 8.84-5.921z" fill="url(#paint28_linear)"/><path d="M107.827 165.09l4.173 6.342c.053.081.117.154.19.218.449.391 2.096 1.621 3.252-.142 1.05-1.597 2.029-3.041 3.144-3.534a1.058 1.058 0 011.353.45c.669 1.186 2.124 3.891 3.032 6.435a1.063 1.063 0 01-.561 1.309c-1.501.689-4.705 2.053-7.541 2.546a1.058 1.058 0 01-1.015-.382c-1.182-1.488-4.799-5.997-5.997-7.099-1.128-1.031-3.132-.499-3.959-.218a1.033 1.033 0 01-.821-.059c-.898-.466-2.713-1.771-1.226-4.241a1.065 1.065 0 00.119-.821 1.05 1.05 0 00-.509-.655c-1.047-.589-2.306-1.781-1.326-3.888.979-2.107 2.964-2.328 4.234-2.181a1.065 1.065 0 001.126-.764.833.833 0 01.741-.602 1.041 1.041 0 00.852-.878 1.045 1.045 0 00-.027-.431c-.303-1.139-.253-2.685 1.579-3.794 3.251-1.963 6.288.89 7.134 3.375.846 2.485-2.799 4.418-5.127 4.813-1.769.298-2.631 2.338-2.945 3.3a1.06 1.06 0 00.125.901z" fill="#1A2E35"/><path d="M109.399 173.529s-1.66-4.265-3.547-4.027c-1.887.238-3.299 2.181-.873 4.208 3.039 2.515 4.42-.181 4.42-.181z" fill="url(#paint29_linear)"/><path d="M115.218 217.79h.076l33.495-.035a1.498 1.498 0 001.024-2.54 1.5 1.5 0 00-1.024-.459l-33.495.037a1.5 1.5 0 00-1.536 1.462 1.498 1.498 0 001.462 1.535h-.002z" fill="#C8C8C8"/><path d="M178.9 187.377h-27.895a5.314 5.314 0 00-4.799 3.054l-12.897 27.343h34.664a3.226 3.226 0 003.006-2.041l10-25.306a2.234 2.234 0 00-.231-2.076 2.23 2.23 0 00-1.848-.974z" fill="#E1E1E1"/><path d="M174.373 289.631a1.472 1.472 0 001.005-.406 1.359 1.359 0 00.399-.972 1.338 1.338 0 00-.113-.525l-29.511-66.436a1.427 1.427 0 00-1.85-.713 1.331 1.331 0 00-.748.739 1.34 1.34 0 00.01 1.052l29.521 66.436a1.416 1.416 0 001.287.825z" fill="#1A2E35"/><path d="M141.118 289.631a1.411 1.411 0 001.293-.825l29.521-66.436a1.358 1.358 0 00-.289-1.497 1.35 1.35 0 00-.448-.294 1.425 1.425 0 00-1.85.713l-29.519 66.436a1.354 1.354 0 00.738 1.791c.175.073.364.111.554.112zM82.997 289.63c.19 0 .379-.038.554-.111a1.336 1.336 0 00.75-.739 1.344 1.344 0 00-.012-1.052l-29.52-66.436a1.426 1.426 0 00-1.848-.714 1.354 1.354 0 00-.85 1.267c.001.18.04.359.112.524l29.52 66.437a1.404 1.404 0 001.294.824z" fill="#1A2E35"/><path d="M49.742 289.631a1.414 1.414 0 001.293-.825l29.519-66.436a1.351 1.351 0 00-.287-1.498 1.332 1.332 0 00-.448-.293 1.423 1.423 0 00-1.85.713l-29.52 66.436a1.35 1.35 0 00.736 1.791c.177.073.366.111.557.112z" fill="#1A2E35"/><path d="M46.278 219.241a1.628 1.628 0 01.282-1.23 1.268 1.268 0 011.023-.539h134.293a1.5 1.5 0 011.289.787 1.89 1.89 0 01.098 1.641l-1.455 3.525a2.031 2.031 0 01-1.85 1.326H48.506c-.74 0-1.375-.586-1.516-1.4l-.712-4.11z" fill="#385A64"/><path d="M182.624 59.033c8.767-8.767 8.767-22.982 0-31.75-8.767-8.767-22.982-8.767-31.749 0-8.768 8.768-8.768 22.983 0 31.75 8.767 8.767 22.982 8.767 31.749 0z" fill="url(#paint30_linear)"/><path d="M182.095 58.504c8.475-8.475 8.475-22.216 0-30.691-8.475-8.475-22.216-8.475-30.691 0-8.475 8.475-8.475 22.216 0 30.69 8.475 8.476 22.216 8.476 30.691 0z" fill="url(#paint31_linear)"/><path opacity=".72" d="M146.746 42.57h-.026a.471.471 0 01-.45-.497c.046-.864.146-1.724.299-2.576a.474.474 0 11.934.168 19.335 19.335 0 00-.284 2.458.474.474 0 01-.473.448zM148.856 34.617a.485.485 0 01-.459-.323.462.462 0 01.023-.364 20.427 20.427 0 0118.325-11.28c1.243 0 2.485.111 3.708.333a.475.475 0 01-.17.934 19.584 19.584 0 00-21.001 10.44.477.477 0 01-.426.26z" fill="#fff"/><path opacity=".78" d="M180.208 56.62c7.173-7.173 7.173-18.803 0-25.977-7.174-7.173-18.804-7.173-25.977 0-7.174 7.174-7.174 18.804 0 25.977 7.173 7.174 18.803 7.174 25.977 0z" fill="#fff"/><path d="M172.849 36.69c0 3.11-2.522 6.468-5.63 6.468-3.109 0-5.633-3.358-5.633-6.469 0-3.11 2.522-5.316 5.633-5.316s5.63 2.208 5.63 5.316z" fill="url(#paint32_linear)"/><path d="M160.225 55.134h13.744a3.332 3.332 0 003.169-2.315l.74-2.312a3.328 3.328 0 00-2.009-4.145c-5.596-2.046-11.379-1.782-17.306.19a3.31 3.31 0 00-2.123 4.016l.569 2.1a3.326 3.326 0 003.216 2.466z" fill="url(#paint33_linear)"/><path d="M126.784 76.825c7.698-1.817 12.466-9.53 10.649-17.229-1.817-7.698-9.53-12.465-17.229-10.648-7.698 1.816-12.465 9.53-10.649 17.228 1.817 7.698 9.531 12.466 17.229 10.649z" fill="url(#paint34_linear)"/><path d="M133.286 72.668c5.407-5.408 5.407-14.175 0-19.582s-14.174-5.407-19.581 0-5.407 14.174 0 19.582c5.407 5.407 14.174 5.407 19.581 0z" fill="url(#paint35_linear)"/><path opacity=".72" d="M110.734 62.675h-.026a.48.48 0 01-.328-.155.472.472 0 01-.122-.342c.03-.559.095-1.114.195-1.665a.464.464 0 01.193-.312.467.467 0 01.358-.08.467.467 0 01.308.2.475.475 0 01.072.36c-.09.511-.15 1.027-.179 1.545a.471.471 0 01-.471.45zM112.08 57.602a.482.482 0 01-.461-.323.48.48 0 01.024-.364 13.201 13.201 0 0111.842-7.29c.804 0 1.607.073 2.399.217a.475.475 0 01-.17.934 12.577 12.577 0 00-2.221-.199 12.256 12.256 0 00-10.992 6.763.483.483 0 01-.421.262z" fill="#fff"/><path opacity=".78" d="M135.195 65.866c1.487-6.3-2.415-12.611-8.714-14.098s-12.611 2.415-14.098 8.714c-1.486 6.3 2.415 12.611 8.714 14.098s12.611-2.415 14.098-8.714z" fill="#fff"/><path d="M127.385 58.754c0 1.983-1.608 4.125-3.593 4.125-1.985 0-3.593-2.142-3.593-4.125s1.608-3.393 3.593-3.393c1.985 0 3.593 1.407 3.593 3.393z" fill="url(#paint36_linear)"/><path d="M119.326 70.518h8.772a2.127 2.127 0 002.022-1.477l.471-1.474a2.12 2.12 0 00-1.274-2.644c-3.571-1.31-7.26-1.14-11.043.12a2.111 2.111 0 00-1.348 2.57l.364 1.339a2.129 2.129 0 002.036 1.566z" fill="url(#paint37_linear)"/><path d="M142.772 113.162c3.027-7.307-.443-15.685-7.751-18.712-7.308-3.027-15.685.444-18.712 7.751-3.027 7.308.443 15.685 7.751 18.712 7.307 3.027 15.685-.443 18.712-7.751z" fill="url(#paint38_linear)"/><path d="M139.329 117.473c5.407-5.407 5.407-14.174 0-19.581s-14.174-5.407-19.581 0c-5.408 5.407-5.408 14.174 0 19.581 5.407 5.408 14.174 5.408 19.581 0z" fill="url(#paint39_linear)"/><path opacity=".72" d="M116.773 107.478h-.026a.474.474 0 01-.449-.499c.029-.559.094-1.115.194-1.665a.473.473 0 11.931.17c-.09.511-.15 1.027-.179 1.545a.469.469 0 01-.146.318.469.469 0 01-.325.131zM118.119 102.406a.454.454 0 01-.219-.053.475.475 0 01-.218-.637 13.274 13.274 0 0114.233-7.074.475.475 0 11-.171.933c-.732-.133-1.476-.2-2.22-.2a12.258 12.258 0 00-10.993 6.762.475.475 0 01-.412.269z" fill="#fff"/><path opacity=".78" d="M129.84 119.703c6.473 0 11.719-5.247 11.719-11.719 0-6.472-5.246-11.72-11.719-11.72-6.472 0-11.719 5.248-11.719 11.72s5.247 11.719 11.719 11.719z" fill="#fff"/><path d="M133.424 103.555c0 1.986-1.608 4.128-3.593 4.128-1.985 0-3.593-2.142-3.593-4.128 0-1.985 1.608-3.392 3.593-3.392 1.985 0 3.593 1.409 3.593 3.392z" fill="url(#paint40_linear)"/><path d="M125.375 115.316h8.772a2.116 2.116 0 002.02-1.477l.474-1.475a2.124 2.124 0 00-1.281-2.639c-3.571-1.309-7.262-1.137-11.043.119a2.119 2.119 0 00-1.354 2.564l.364 1.339a2.124 2.124 0 002.048 1.569z" fill="url(#paint41_linear)"/><path d="M217.615 49.659a9.08 9.08 0 10-6.949-16.777 9.08 9.08 0 106.949 16.777z" fill="url(#paint42_linear)"/><path d="M220.348 47.474a8.777 8.777 0 10-12.413-12.411 8.777 8.777 0 0012.413 12.411z" fill="url(#paint43_linear)"/><path opacity=".72" d="M206.048 41.316h-.026a.472.472 0 01-.447-.5c.018-.36.06-.72.124-1.077a.478.478 0 01.551-.383.476.476 0 01.383.551 7.736 7.736 0 00-.111.96.474.474 0 01-.474.45zM206.903 38.1a.466.466 0 01-.218-.052.474.474 0 01-.218-.637 8.591 8.591 0 019.208-4.581.476.476 0 01.185.857.464.464 0 01-.355.074 7.831 7.831 0 00-1.377-.122 7.596 7.596 0 00-6.815 4.195.478.478 0 01-.41.266z" fill="#fff"/><path opacity=".78" d="M214.33 48.89a7.429 7.429 0 10.001-14.857 7.429 7.429 0 00-.001 14.857z" fill="#fff"/><path d="M216.606 38.655c0 1.258-1.019 2.617-2.278 2.617-1.258 0-2.277-1.356-2.277-2.617s1.019-2.15 2.277-2.15c1.259 0 2.278.893 2.278 2.15z" fill="url(#paint44_linear)"/><path d="M211.502 46.113h5.558a1.352 1.352 0 001.283-.934l.299-.936a1.348 1.348 0 00-.814-1.673c-2.262-.827-4.601-.722-6.998.077a1.34 1.34 0 00-.86 1.625l.232.849a1.342 1.342 0 001.3.992z" fill="url(#paint45_linear)"/><path d="M213.868 79.703a.471.471 0 01-.351-.155 33.5 33.5 0 00-.554-.6.467.467 0 01-.131-.339.488.488 0 01.147-.332.487.487 0 01.339-.13.472.472 0 01.332.147c.194.205.384.408.57.613a.475.475 0 01-.352.794v.002zm-2.936-2.932a.47.47 0 01-.318-.122c-.348-.317-.7-.63-1.056-.94a.479.479 0 01-.162-.325.457.457 0 01.115-.344.472.472 0 01.668-.047c.365.314.723.632 1.074.953a.474.474 0 01-.321.825zm-3.628-3.054a.473.473 0 01-.292-.1c-.371-.293-.746-.58-1.121-.873a.477.477 0 01-.078-.653.473.473 0 01.649-.106c.38.288.759.578 1.135.872a.478.478 0 01-.018.76.476.476 0 01-.275.089v.01zm-3.817-2.814a.48.48 0 01-.271-.085c-.393-.273-.781-.54-1.169-.801a.474.474 0 01.184-.841.476.476 0 01.346.053c.39.264.785.535 1.18.81a.47.47 0 01.02.785.472.472 0 01-.29.087v-.008zm-3.962-2.618a.465.465 0 01-.253-.074c-.408-.255-.81-.506-1.204-.749a.473.473 0 11.495-.807c.397.242.803.495 1.215.753a.478.478 0 01-.253.873v.004zm-4.062-2.452a.472.472 0 01-.238-.063l-1.235-.7a.474.474 0 01.463-.827c.395.218.811.455 1.245.704a.473.473 0 01-.235.886zm-4.169-2.282a.483.483 0 01-.218-.052c-.803-.417-1.263-.64-1.265-.642a.46.46 0 01-.242-.27.474.474 0 01.654-.583s.469.218 1.289.655a.47.47 0 01.244.533.478.478 0 01-.462.361v-.002zM145.242 104.408a.476.476 0 01-.218-.897c.017-.011.465-.237 1.309-.619a.474.474 0 01.631.241.479.479 0 01-.241.631c-.824.371-1.265.598-1.269.6a.486.486 0 01-.212.044zm4.363-1.896a.475.475 0 01-.174-.916c.419-.164.872-.336 1.337-.513a.473.473 0 01.332.888c-.467.177-.908.345-1.322.508a.462.462 0 01-.177.022l.004.011zm4.464-1.612a.477.477 0 01-.149-.925c.437-.145.89-.29 1.359-.436a.476.476 0 01.288.905c-.465.146-.914.291-1.348.436a.504.504 0 01-.155.009l.005.011zm4.539-1.385a.476.476 0 01-.128-.932 88.84 88.84 0 011.381-.375.473.473 0 01.242.916c-.466.124-.922.248-1.368.373a.504.504 0 01-.131.007l.004.01zm4.597-1.174a.475.475 0 01-.389-.75.478.478 0 01.284-.186c.458-.107.923-.218 1.394-.312a.472.472 0 01.564.364.48.48 0 01-.193.49.48.48 0 01-.17.073c-.467.1-.927.206-1.383.31a.582.582 0 01-.112 0l.005.011zm4.647-.964a.474.474 0 01-.086-.94c.463-.085.934-.17 1.408-.25a.472.472 0 01.507.205.485.485 0 01.063.372.468.468 0 01-.411.36c-.471.078-.936.16-1.394.246l-.087.007zm33.97-.626h-.072l-.912-.133a.473.473 0 01-.377-.533.475.475 0 01.511-.408l.92.136a.475.475 0 01-.07.944v-.006zm-29.287-.129a.479.479 0 01-.46-.444.472.472 0 01.397-.5c.467-.064.94-.127 1.418-.186a.475.475 0 01.118.94c-.474.06-.943.122-1.407.186a.332.332 0 01-.07-.007l.004.011zm25.077-.414h-.052c-.472-.051-.941-.099-1.407-.142a.476.476 0 01-.429-.516.471.471 0 01.516-.429c.471.044.947.092 1.422.142a.473.473 0 01.412.496.473.473 0 01-.462.45v-.001zm-20.362-.13a.473.473 0 11-.044-.946c.471-.044.945-.085 1.424-.124a.475.475 0 01.075.947 73.59 73.59 0 00-1.412.122l-.043.002zm15.637-.265h-.029c-.475-.028-.947-.053-1.415-.075a.475.475 0 01.043-.948c.474.021.95.047 1.427.076a.474.474 0 01-.026.947zm-10.908-.066a.477.477 0 01-.022-.949c.473-.022.949-.04 1.429-.056a.474.474 0 11.033.946c-.476.018-.949.035-1.416.06h-.024zm6.165-.107h-1.414a.477.477 0 01-.315-.799.477.477 0 01.315-.15h1.429a.477.477 0 01.316.8.477.477 0 01-.316.15h-.015zM197.088 86.957a.484.484 0 01-.174-.033c-.421-.166-.873-.334-1.324-.502a.475.475 0 01-.036-.875.475.475 0 01.363-.015c.467.17.916.34 1.344.508a.474.474 0 01.127.805.476.476 0 01-.3.112zm-4.481-1.597c-.05 0-.1-.008-.148-.024-.436-.146-.886-.291-1.35-.436a.48.48 0 01-.3-.23.478.478 0 01.208-.66.482.482 0 01.378-.016c.465.146.919.291 1.363.436a.477.477 0 01.314.526.476.476 0 01-.465.4v.004zm-4.537-1.416a.467.467 0 01-.135-.02c-.45-.135-.905-.269-1.366-.401a.476.476 0 11.266-.912c.463.135.921.268 1.37.404a.48.48 0 01.329.522.48.48 0 01-.464.407zm-4.581-1.309a.506.506 0 01-.127-.017c-.454-.127-.911-.253-1.372-.378a.477.477 0 01.251-.916l1.376.38a.478.478 0 01.336.52.474.474 0 01-.464.411zm-4.582-1.239a.465.465 0 01-.12-.017l-1.378-.36a.47.47 0 01-.312-.214.487.487 0 01-.057-.373.468.468 0 01.417-.354.477.477 0 01.192.022l1.378.362a.472.472 0 01.345.52.48.48 0 01-.465.414zm-4.607-1.202a.545.545 0 01-.116-.013l-1.38-.347a.47.47 0 01-.13-.867.474.474 0 01.359-.054l1.383.347a.471.471 0 01.359.519.474.474 0 01-.475.415zm-4.612-1.143a.494.494 0 01-.113-.013l-1.381-.336a.477.477 0 01.218-.923l1.383.336a.475.475 0 01-.111.936h.004zm-4.62-1.108a.477.477 0 01-.109-.013l-1.386-.328a.474.474 0 01.219-.922l1.387.327a.476.476 0 01.37.517.478.478 0 01-.479.419h-.002zm-4.629-1.091a.465.465 0 01-.107-.013l-1.388-.319a.474.474 0 01-.353-.571.468.468 0 01.571-.353l1.39.32a.471.471 0 01.37.516.477.477 0 01-.477.42h-.006zm-4.634-1.054a.617.617 0 01-.107 0l-1.389-.312a.481.481 0 01-.296-.213.474.474 0 01.018-.528.485.485 0 01.31-.192.477.477 0 01.186.006l1.392.312a.478.478 0 01.362.514.477.477 0 01-.465.424l-.011-.01zm-4.629-1.019a.404.404 0 01-.103 0l-1.394-.303a.48.48 0 01-.362-.565.465.465 0 01.207-.3.472.472 0 01.358-.062l1.394.305a.473.473 0 01-.1.936v-.01zm-4.649-1.007a.38.38 0 01-.1 0l-1.397-.297a.475.475 0 01.199-.93l1.396.3a.472.472 0 01.381.513.47.47 0 01-.479.424v-.01zm-4.66-.984a.501.501 0 01-.098 0c-.91-.19-1.407-.29-1.409-.29a.474.474 0 11.19-.93l1.413.29a.475.475 0 01-.096.94v-.01zM223.215 61.829a.473.473 0 01-.463-.375 6.309 6.309 0 00-.148-.578.475.475 0 01.91-.273c.065.218.122.436.166.654a.463.463 0 01-.067.358.478.478 0 01-.3.205.493.493 0 01-.098.009zm-1.56-3.62a.475.475 0 01-.408-.217 24.066 24.066 0 00-.759-1.172.473.473 0 01.779-.539c.286.41.552.82.792 1.218a.47.47 0 01-.165.655.472.472 0 01-.239.065v-.01zm-2.814-3.819a.474.474 0 01-.362-.166c-.55-.641-.932-1.036-.936-1.04a.476.476 0 01.029-.654.473.473 0 01.654 0c.015.014.403.416.973 1.09a.476.476 0 01-.102.708.475.475 0 01-.256.075v-.013z" fill="#fff"/><path d="M348.015 59.034c8.767-8.767 8.767-22.982 0-31.75-8.768-8.767-22.982-8.767-31.75 0-8.767 8.768-8.767 22.983 0 31.75 8.768 8.767 22.982 8.767 31.75 0z" fill="url(#paint46_linear)"/><path d="M347.486 58.505c8.475-8.475 8.475-22.216 0-30.691-8.475-8.475-22.216-8.476-30.691 0-8.475 8.475-8.475 22.216 0 30.69 8.475 8.476 22.216 8.476 30.691 0z" fill="url(#paint47_linear)"/><path opacity=".78" d="M352.147 42.572a.473.473 0 01-.473-.45 19.712 19.712 0 00-.284-2.458.475.475 0 01.934-.168c.154.851.253 1.712.297 2.576a.486.486 0 01-.268.452.476.476 0 01-.18.046l-.026.002zM350.037 34.618a.471.471 0 01-.424-.26 19.586 19.586 0 00-21.001-10.447.477.477 0 01-.17-.934 20.742 20.742 0 013.708-.333 20.428 20.428 0 0118.325 11.28.473.473 0 01-.423.688l-.015.006z" fill="#fff"/><path opacity=".78" d="M335.144 61.673c9.962-1.918 16.482-11.549 14.564-21.51-1.919-9.962-11.549-16.482-21.511-14.564-9.961 1.918-16.482 11.549-14.563 21.51 1.918 9.962 11.548 16.482 21.51 14.564z" fill="#fff"/><path d="M326.043 36.69c0 3.111 2.522 6.469 5.631 6.469 3.108 0 5.632-3.358 5.632-6.469 0-3.11-2.522-5.316-5.632-5.316-3.111 0-5.631 2.208-5.631 5.316z" fill="url(#paint48_linear)"/><path d="M338.667 55.135h-13.744a3.33 3.33 0 01-3.169-2.315l-.74-2.312a3.323 3.323 0 012.009-4.145c5.594-2.046 11.379-1.782 17.306.19a3.314 3.314 0 012.123 4.016l-.569 2.1a3.326 3.326 0 01-3.216 2.466z" fill="url(#paint49_linear)"/><path d="M389.295 66.254c1.869-7.686-2.846-15.432-10.532-17.301-7.685-1.87-15.431 2.846-17.3 10.531-1.87 7.686 2.846 15.432 10.531 17.301 7.686 1.87 15.432-2.846 17.301-10.531z" fill="url(#paint50_linear)"/><path d="M385.189 72.669c5.407-5.408 5.407-14.174 0-19.582-5.408-5.407-14.175-5.407-19.582 0s-5.407 14.174 0 19.582c5.407 5.407 14.174 5.407 19.582 0z" fill="url(#paint51_linear)"/><path opacity=".78" d="M388.16 62.675a.472.472 0 01-.474-.451 11.963 11.963 0 00-.179-1.545.475.475 0 01.934-.168c.099.55.163 1.107.192 1.665a.47.47 0 01-.436.497l-.037.002zM386.815 57.602a.474.474 0 01-.423-.262 12.263 12.263 0 00-10.993-6.763c-.745 0-1.488.067-2.221.199a.474.474 0 01-.454-.73.478.478 0 01.284-.204 13.425 13.425 0 012.4-.218 13.193 13.193 0 0111.839 7.29.487.487 0 01.023.364.477.477 0 01-.455.324z" fill="#fff"/><path opacity=".78" d="M377.809 74.557c6.296-1.499 10.185-7.818 8.687-14.114-1.499-6.297-7.819-10.186-14.115-8.687-6.296 1.499-10.185 7.818-8.687 14.114 1.499 6.297 7.818 10.186 14.115 8.687z" fill="#fff"/><path d="M371.508 58.754c0 1.983 1.608 4.125 3.593 4.125 1.985 0 3.593-2.142 3.593-4.125s-1.61-3.393-3.593-3.393c-1.983 0-3.593 1.407-3.593 3.393z" fill="url(#paint52_linear)"/><path d="M379.559 70.519h-8.772a2.125 2.125 0 01-2.022-1.477l-.472-1.475a2.123 2.123 0 011.281-2.638c3.569-1.309 7.26-1.138 11.041.12a2.114 2.114 0 011.354 2.564l-.362 1.34a2.123 2.123 0 01-2.048 1.566z" fill="url(#paint53_linear)"/><path d="M379.49 117.81c5.593-5.593 5.593-14.661 0-20.254-5.593-5.593-14.661-5.593-20.254 0-5.593 5.593-5.593 14.661 0 20.254 5.593 5.593 14.661 5.593 20.254 0z" fill="url(#paint54_linear)"/><path d="M379.153 117.473c5.408-5.407 5.408-14.174 0-19.581-5.407-5.407-14.174-5.407-19.581 0s-5.407 14.174 0 19.581c5.407 5.408 14.174 5.408 19.581 0z" fill="url(#paint55_linear)"/><path opacity=".78" d="M382.124 107.479a.476.476 0 01-.473-.45 12.31 12.31 0 00-.179-1.544.475.475 0 01.934-.17c.099.55.163 1.106.192 1.664a.473.473 0 01-.437.5h-.037zM380.78 102.407a.467.467 0 01-.423-.262 12.263 12.263 0 00-10.993-6.762c-.745 0-1.488.067-2.221.2a.473.473 0 01-.522-.387.476.476 0 01.352-.546 13.266 13.266 0 0114.23 7.074.477.477 0 01-.218.637.455.455 0 01-.205.046z" fill="#fff"/><path opacity=".78" d="M369.059 119.704c6.472 0 11.719-5.247 11.719-11.719 0-6.473-5.247-11.72-11.719-11.72-6.472 0-11.719 5.247-11.719 11.72 0 6.472 5.247 11.719 11.719 11.719z" fill="#fff"/><path d="M365.477 103.556c0 1.986 1.607 4.128 3.593 4.128 1.985 0 3.593-2.142 3.593-4.128 0-1.985-1.61-3.392-3.593-3.392-1.983 0-3.593 1.409-3.593 3.392z" fill="url(#paint56_linear)"/><path d="M373.525 115.317h-8.777a2.13 2.13 0 01-2.022-1.477l-.471-1.475a2.118 2.118 0 011.28-2.64c3.569-1.308 7.261-1.136 11.041.12a2.117 2.117 0 011.355 2.564l-.362 1.339a2.132 2.132 0 01-.757 1.13c-.37.283-.822.437-1.287.439z" fill="url(#paint57_linear)"/><path d="M293.142 44.744a9.08 9.08 0 00-4.914-11.863 9.08 9.08 0 10-6.949 16.777 9.08 9.08 0 0011.863-4.914z" fill="url(#paint58_linear)"/><path d="M289.074 49.782a8.743 8.743 0 10-10.18-14.218 8.744 8.744 0 0010.18 14.218z" fill="url(#paint59_linear)"/><path opacity=".72" d="M292.846 41.316a.473.473 0 01-.473-.45 7.933 7.933 0 00-.112-.959.475.475 0 01.934-.168c.064.356.105.716.124 1.078a.474.474 0 01-.449.5h-.024zM291.998 38.1a.47.47 0 01-.424-.261 7.595 7.595 0 00-6.815-4.195c-.461 0-.922.04-1.376.122a.474.474 0 11-.17-.931 8.587 8.587 0 019.208 4.58.484.484 0 01-.021.462.486.486 0 01-.402.228v-.004z" fill="#fff"/><path opacity=".78" d="M277.137 41.463a7.43 7.43 0 1014.86.029 7.43 7.43 0 00-14.86-.029z" fill="#fff"/><path d="M282.285 38.656c0 1.258 1.019 2.617 2.278 2.617 1.258 0 2.277-1.356 2.277-2.617s-1.021-2.15-2.277-2.15c-1.257 0-2.278.893-2.278 2.15z" fill="url(#paint60_linear)"/><path d="M287.396 46.114h-5.558a1.346 1.346 0 01-1.283-.934l-.299-.935a1.347 1.347 0 01.812-1.674c2.264-.827 4.603-.722 7 .077a1.338 1.338 0 01.857 1.625l-.218.848a1.346 1.346 0 01-1.311.993z" fill="url(#paint61_linear)"/><path d="M285.026 79.704a.473.473 0 01-.465-.552.474.474 0 01.116-.242c.186-.205.375-.408.567-.613a.476.476 0 01.69.654c-.188.199-.373.4-.557.6a.459.459 0 01-.351.153zm2.93-2.932a.468.468 0 01-.473-.495.487.487 0 01.154-.33c.352-.321.709-.64 1.072-.953a.472.472 0 01.783.39.481.481 0 01-.162.325c-.355.31-.709.624-1.053.94a.475.475 0 01-.321.123zm3.63-3.054a.473.473 0 01-.449-.32.476.476 0 01.155-.529c.377-.294.754-.585 1.136-.873a.476.476 0 01.572.76c-.378.28-.752.571-1.122.872a.474.474 0 01-.285.085l-.007.005zm3.818-2.815a.476.476 0 01-.273-.872c.397-.275.791-.545 1.182-.81a.478.478 0 01.636.145.476.476 0 01-.106.643c-.388.262-.778.529-1.169.8a.477.477 0 01-.264.09l-.006.004zm3.961-2.617a.477.477 0 01-.253-.873c.413-.257.818-.51 1.215-.753a.474.474 0 01.496.808c-.395.242-.797.492-1.207.748a.46.46 0 01-.244.065l-.007.005zm4.08-2.453a.476.476 0 01-.461-.351.478.478 0 01.225-.534c.437-.249.852-.484 1.246-.705a.472.472 0 01.714.356.458.458 0 01-.018.187.46.46 0 01-.236.284l-1.235.7a.456.456 0 01-.235.064zm4.169-2.281a.475.475 0 01-.433-.67.477.477 0 01.215-.225c.818-.425 1.287-.654 1.287-.654a.473.473 0 11.414.853s-.462.218-1.265.641a.488.488 0 01-.22.055h.002zM353.649 104.41a.483.483 0 01-.218-.052s-.437-.23-1.27-.6a.484.484 0 01-.241-.632.479.479 0 01.632-.241c.848.382 1.293.609 1.309.62a.477.477 0 01.073.794.475.475 0 01-.292.102l.007.009zm-4.363-1.896a.458.458 0 01-.172-.033 107.15 107.15 0 00-1.325-.508.474.474 0 11.334-.888c.474.177.919.349 1.337.513a.474.474 0 01.126.806.475.475 0 01-.3.11zm-4.464-1.612a.547.547 0 01-.15-.024 83.606 83.606 0 00-1.348-.436.48.48 0 01-.258-.238.472.472 0 01.544-.668c.468.146.922.291 1.361.437a.47.47 0 01.252.205.48.48 0 01-.401.72v.004zm-4.539-1.385a.536.536 0 01-.129-.018c-.445-.125-.9-.25-1.366-.373a.474.474 0 01.242-.916c.469.125.928.25 1.379.375a.478.478 0 01.336.52.473.473 0 01-.462.412zm-4.599-1.174a.617.617 0 01-.107 0c-.454-.105-.914-.218-1.383-.31a.477.477 0 01-.138-.848.478.478 0 01.341-.079c.471.103.936.205 1.394.312a.471.471 0 01.369.516.471.471 0 01-.476.42v-.01zm-4.644-.964a.587.587 0 01-.088 0 73.375 73.375 0 00-1.394-.247.477.477 0 01-.178-.84.473.473 0 01.335-.096c.476.079.945.164 1.41.25a.474.474 0 01-.085.94v-.007zm-33.971-.626a.478.478 0 01-.466-.44.476.476 0 01.396-.505l.921-.135a.474.474 0 01.133.94l-.912.133-.072.007zm29.287-.129a.33.33 0 01-.066 0c-.464-.063-.933-.126-1.407-.185a.475.475 0 01.118-.94c.478.058.951.122 1.418.185a.473.473 0 01.397.5.476.476 0 01-.46.444v-.004zm-25.088-.414a.477.477 0 01-.05-.947c.476-.05.951-.098 1.422-.142a.475.475 0 01.088.945c-.467.043-.936.09-1.407.141l-.053.003zm20.363-.131h-.044c-.467-.044-.938-.085-1.414-.122a.478.478 0 01-.411-.51.476.476 0 01.488-.437c.477.039.953.078 1.424.122a.482.482 0 01.329.154.47.47 0 01.123.341.467.467 0 01-.154.328.472.472 0 01-.341.124zm-15.638-.264a.473.473 0 01-.026-.947c.477-.028.953-.053 1.427-.076a.47.47 0 01.495.453.477.477 0 01-.454.495c-.468.022-.939.047-1.413.075h-.029zm10.908-.066h-.024c-.47-.022-.942-.04-1.416-.056a.475.475 0 11.033-.95c.478.016.955.035 1.429.057a.477.477 0 01.298.807.476.476 0 01-.32.142zm-6.165-.107a.475.475 0 010-.949h1.429a.475.475 0 010 .95H310.736zM301.805 86.957a.476.476 0 01-.172-.916c.427-.167.875-.337 1.341-.508a.478.478 0 01.641.269.478.478 0 01-.311.62c-.46.169-.903.337-1.324.502a.487.487 0 01-.175.033zm4.479-1.597a.474.474 0 01-.401-.72.475.475 0 01.252-.205l1.362-.436a.471.471 0 01.525.135.47.47 0 01.058.54.472.472 0 01-.295.23c-.461.147-.912.293-1.351.437a.45.45 0 01-.155.009l.005.01zm4.54-1.415a.477.477 0 01-.136-.93c.45-.135.908-.268 1.37-.403a.478.478 0 01.613.316.486.486 0 01-.173.515.478.478 0 01-.174.08c-.462.134-.916.267-1.365.402a.495.495 0 01-.135.009v.01zm4.568-1.31a.476.476 0 01-.127-.93l1.377-.38a.474.474 0 01.521.69.475.475 0 01-.27.226c-.463.124-.919.25-1.373.377a.516.516 0 01-.128.005v.013zm4.581-1.239a.473.473 0 01-.389-.738.476.476 0 01.269-.195l1.379-.362a.476.476 0 01.24.918l-1.379.36a.46.46 0 01-.111.004l-.009.014zm4.609-1.201a.471.471 0 01-.472-.417.47.47 0 01.359-.517l1.381-.347a.474.474 0 11.231.92l-1.381.347a.531.531 0 01-.118.014zm4.614-1.144a.473.473 0 01-.464-.419.478.478 0 01.353-.517l1.383-.335a.477.477 0 01.487.703.476.476 0 01-.269.22l-1.38.335a.524.524 0 01-.11.016v-.003zm4.619-1.108a.471.471 0 01-.479-.418.473.473 0 01.37-.517l1.389-.328a.473.473 0 01.571.352.474.474 0 01-.353.57l-1.385.328a.486.486 0 01-.113.015v-.002zm4.629-1.09a.475.475 0 01-.388-.75.473.473 0 01.283-.186l1.39-.321a.476.476 0 01.218.925l-1.387.318a.484.484 0 01-.116.026v-.013zm4.636-1.054a.477.477 0 01-.465-.424.472.472 0 01.362-.514l1.392-.312a.476.476 0 01.205.927l-1.39.312a.572.572 0 01-.104.024v-.013zm4.642-1.032a.474.474 0 01-.1-.936l1.394-.305a.472.472 0 01.564.363.48.48 0 01-.065.357.48.48 0 01-.299.207l-1.392.303a.404.404 0 01-.095.024l-.007-.013zm4.649-1.008a.473.473 0 01-.098-.938l1.396-.299a.473.473 0 01.545.37.477.477 0 01-.347.56l-1.396.296a.392.392 0 01-.1.024v-.013zm4.66-.984a.476.476 0 01-.096-.94l1.413-.29a.476.476 0 01.491.726.48.48 0 01-.301.203s-.502.1-1.409.29a.512.512 0 01-.098.024v-.013zM267.628 68.771a.474.474 0 01-.384-.746c.269-.37.557-.757.873-1.154a.475.475 0 01.753.58c-.299.389-.583.768-.847 1.13a.473.473 0 01-.395.19zm2.932-3.74a.47.47 0 01-.428-.272.47.47 0 01.062-.504c.301-.362.606-.73.916-1.09a.476.476 0 01.726.61c-.307.367-.613.731-.911 1.091a.473.473 0 01-.365.166zm3.083-3.616a.472.472 0 01-.358-.785c.316-.363.633-.72.945-1.074a.466.466 0 01.33-.173.47.47 0 01.353.119.467.467 0 01.16.336.481.481 0 01-.132.349l-.943 1.067a.469.469 0 01-.355.161zm3.163-3.545a.472.472 0 01-.433-.283.476.476 0 01.082-.51l.962-1.057a.475.475 0 01.7.641c-.308.334-.628.688-.96 1.052a.465.465 0 01-.351.157zm3.22-3.49a.477.477 0 01-.345-.799c.618-.654.984-1.047.984-1.047a.48.48 0 01.53-.143.474.474 0 01.157.797s-.364.382-.979 1.039a.476.476 0 01-.347.146v.007z" fill="#fff"/><path d="M255.834 47.645c7.504-2.5 11.56-10.611 9.06-18.115-2.501-7.504-10.611-11.56-18.115-9.06-7.504 2.5-11.56 10.611-9.06 18.115 2.501 7.504 10.611 11.56 18.115 9.06z" fill="url(#paint62_linear)"/><path d="M261.095 43.823c5.407-5.407 5.407-14.174 0-19.582-5.407-5.407-14.174-5.407-19.582 0-5.407 5.408-5.407 14.175 0 19.582 5.408 5.407 14.175 5.407 19.582 0z" fill="url(#paint63_linear)"/><path opacity=".72" d="M264.066 33.829a.472.472 0 01-.473-.452 12.717 12.717 0 00-.179-1.544.47.47 0 01.383-.551.473.473 0 01.55.383c.1.55.164 1.106.192 1.664a.456.456 0 01-.121.342.47.47 0 01-.328.156l-.024.002zM262.721 28.755a.472.472 0 01-.423-.26 12.258 12.258 0 00-10.995-6.763c-.745 0-1.488.067-2.221.199a.474.474 0 11-.17-.932 13.272 13.272 0 0114.232 7.075.473.473 0 01-.423.687v-.006z" fill="#fff"/><path opacity=".78" d="M259.294 42.62c4.576-4.576 4.576-11.996 0-16.573-4.577-4.576-11.997-4.576-16.574 0-4.576 4.577-4.576 11.997 0 16.574 4.577 4.576 11.997 4.576 16.574 0z" fill="#fff"/><path d="M247.414 29.906c0 1.983 1.61 4.125 3.593 4.125 1.983 0 3.593-2.142 3.593-4.125s-1.608-3.392-3.593-3.392c-1.985 0-3.593 1.407-3.593 3.392z" fill="url(#paint64_linear)"/><path d="M255.467 41.67h-8.769a2.124 2.124 0 01-2.023-1.476l-.471-1.475a2.12 2.12 0 011.281-2.637c3.569-1.31 7.26-1.139 11.04.12a2.111 2.111 0 011.355 2.563l-.364 1.34a2.123 2.123 0 01-2.049 1.566z" fill="url(#paint65_linear)"/><path d="M251.09 56.584a.475.475 0 01-.476-.476v-1.422a.48.48 0 01.475-.443.474.474 0 01.474.443v1.422a.48.48 0 01-.473.476zm0-4.745a.478.478 0 01-.476-.473v-1.423a.48.48 0 01.285-.468.479.479 0 01.537.111.471.471 0 01.127.357v1.423a.472.472 0 01-.473.467v.006z" fill="#fff"/><defs><linearGradient id="paint0_linear" x1="11492.4" y1="49790.4" x2="15330.4" y2="71767.3" gradientUnits="userSpaceOnUse"><stop stop-color="#E1473D"/><stop offset="1" stop-color="#E9605A"/></linearGradient><linearGradient id="paint1_linear" x1="11475.5" y1="49791.7" x2="15313.7" y2="71768.9" gradientUnits="userSpaceOnUse"><stop stop-color="#E1473D"/><stop offset="1" stop-color="#E9605A"/></linearGradient><linearGradient id="paint2_linear" x1="53002.6" y1="3640.66" x2="62312.4" y2="3640.66" gradientUnits="userSpaceOnUse"><stop stop-color="#E1473D"/><stop offset="1" stop-color="#E9605A"/></linearGradient><linearGradient id="paint3_linear" x1="20764.6" y1="13157.1" x2="21904.3" y2="11834.3" gradientUnits="userSpaceOnUse"><stop stop-color="#FE7062"/><stop offset="1" stop-color="#FF928E"/></linearGradient><linearGradient id="paint4_linear" x1="21804.1" y1="10510.8" x2="18546.5" y2="15432" gradientUnits="userSpaceOnUse"><stop stop-color="#FE7062"/><stop offset="1" stop-color="#FF928E"/></linearGradient><linearGradient id="paint5_linear" x1="8335.51" y1="6862.01" x2="7071.12" y2="8113.54" gradientUnits="userSpaceOnUse"><stop stop-color="#FE7062"/><stop offset="1" stop-color="#FF928E"/></linearGradient><linearGradient id="paint6_linear" x1="39407.7" y1="17470.1" x2="44556.9" y2="17470.1" gradientUnits="userSpaceOnUse"><stop stop-color="#E1473D"/><stop offset="1" stop-color="#E9605A"/></linearGradient><linearGradient id="paint7_linear" x1="42218.7" y1="13959" x2="32438.6" y2="28817.5" gradientUnits="userSpaceOnUse"><stop stop-color="#FE7062"/><stop offset="1" stop-color="#FF928E"/></linearGradient><linearGradient id="paint8_linear" x1="16062.2" y1="9370.83" x2="12229" y2="13162.5" gradientUnits="userSpaceOnUse"><stop stop-color="#FE7062"/><stop offset="1" stop-color="#FF928E"/></linearGradient><linearGradient id="paint9_linear" x1="41297.1" y1="28256.6" x2="44953.3" y2="24012.8" gradientUnits="userSpaceOnUse"><stop stop-color="#E1473D"/><stop offset="1" stop-color="#E9605A"/></linearGradient><linearGradient id="paint10_linear" x1="44623.4" y1="19528.2" x2="43578.8" y2="23017.8" gradientUnits="userSpaceOnUse"><stop stop-color="#FE7062"/><stop offset="1" stop-color="#FF928E"/></linearGradient><linearGradient id="paint11_linear" x1="16906.8" y1="12854.7" x2="15653.2" y2="15976.1" gradientUnits="userSpaceOnUse"><stop stop-color="#FE7062"/><stop offset="1" stop-color="#FF928E"/></linearGradient><linearGradient id="paint12_linear" x1="35502.1" y1="12766.2" x2="29890.6" y2="21243.4" gradientUnits="userSpaceOnUse"><stop stop-color="#FE7062"/><stop offset="1" stop-color="#FF928E"/></linearGradient><linearGradient id="paint13_linear" x1="13474.9" y1="8371.35" x2="11296.9" y2="10519.3" gradientUnits="userSpaceOnUse"><stop stop-color="#FE7062"/><stop offset="1" stop-color="#FF928E"/></linearGradient><linearGradient id="paint14_linear" x1="326.742" y1="142.341" x2="353.578" y2="179.432" gradientUnits="userSpaceOnUse"><stop stop-color="#FF928E"/><stop offset="1" stop-color="#FEB3B1"/></linearGradient><linearGradient id="paint15_linear" x1="-21459.4" y1="83362.8" x2="-10539.1" y2="53933.4" gradientUnits="userSpaceOnUse"><stop stop-color="#FF928E"/><stop offset="1" stop-color="#FEB3B1"/></linearGradient><linearGradient id="paint16_linear" x1="-46374.3" y1="80935.9" x2="-41321.2" y2="49426.2" gradientUnits="userSpaceOnUse"><stop stop-color="#FF928E"/><stop offset="1" stop-color="#FEB3B1"/></linearGradient><linearGradient id="paint17_linear" x1="-16171.2" y1="15883.1" x2="-15886.5" y2="14708.2" gradientUnits="userSpaceOnUse"><stop stop-color="#FF928E"/><stop offset="1" stop-color="#FEB3B1"/></linearGradient><linearGradient id="paint18_linear" x1="-23241.4" y1="16750.5" x2="-22151.8" y2="14186.4" gradientUnits="userSpaceOnUse"><stop stop-color="#FF928E"/><stop offset="1" stop-color="#FEB3B1"/></linearGradient><linearGradient id="paint19_linear" x1="-5095.9" y1="5070.28" x2="-4709.83" y2="4339.43" gradientUnits="userSpaceOnUse"><stop stop-color="#FF928E"/><stop offset="1" stop-color="#FEB3B1"/></linearGradient><linearGradient id="paint20_linear" x1="-25062.2" y1="9349.12" x2="-23741.6" y2="11846.1" gradientUnits="userSpaceOnUse"><stop stop-color="#FF928E"/><stop offset="1" stop-color="#FEB3B1"/></linearGradient><linearGradient id="paint21_linear" x1="1469.97" y1="5324.81" x2="1358.95" y2="5324.81" gradientUnits="userSpaceOnUse"><stop stop-color="#FF928E"/><stop offset="1" stop-color="#FEB3B1"/></linearGradient><linearGradient id="paint22_linear" x1="27943.6" y1="47550.8" x2="20391.3" y2="47550.8" gradientUnits="userSpaceOnUse"><stop stop-color="#FF928E"/><stop offset="1" stop-color="#FEB3B1"/></linearGradient><linearGradient id="paint23_linear" x1="14694.7" y1="10072" x2="14854.6" y2="10036" gradientUnits="userSpaceOnUse"><stop stop-color="#FF928E"/><stop offset="1" stop-color="#FEB3B1"/></linearGradient><linearGradient id="paint24_linear" x1="16554.1" y1="9150.4" x2="16730.4" y2="9110.83" gradientUnits="userSpaceOnUse"><stop stop-color="#FF928E"/><stop offset="1" stop-color="#FEB3B1"/></linearGradient><linearGradient id="paint25_linear" x1="50919.2" y1="10430.6" x2="52866.5" y2="9993.43" gradientUnits="userSpaceOnUse"><stop stop-color="#FF928E"/><stop offset="1" stop-color="#FEB3B1"/></linearGradient><linearGradient id="paint26_linear" x1="8449.55" y1="11726.7" x2="7798.31" y2="14220.7" gradientUnits="userSpaceOnUse"><stop stop-color="#FF928E"/><stop offset="1" stop-color="#FEB3B1"/></linearGradient><linearGradient id="paint27_linear" x1="23656.5" y1="12781.1" x2="23187" y2="14639.1" gradientUnits="userSpaceOnUse"><stop stop-color="#FF928E"/><stop offset="1" stop-color="#FEB3B1"/></linearGradient><linearGradient id="paint28_linear" x1="25123.2" y1="-13026.4" x2="25520.1" y2="-10812.2" gradientUnits="userSpaceOnUse"><stop stop-color="#FF928E"/><stop offset="1" stop-color="#FEB3B1"/></linearGradient><linearGradient id="paint29_linear" x1="8290.84" y1="-3847.23" x2="8227.17" y2="-4340.05" gradientUnits="userSpaceOnUse"><stop stop-color="#FF928E"/><stop offset="1" stop-color="#FEB3B1"/></linearGradient><linearGradient id="paint30_linear" x1="35103.6" y1="24252.5" x2="41301.2" y2="17059" gradientUnits="userSpaceOnUse"><stop stop-color="#FE7062"/><stop offset="1" stop-color="#FF928E"/></linearGradient><linearGradient id="paint31_linear" x1="43315.3" y1="11420.1" x2="25600" y2="38182.9" gradientUnits="userSpaceOnUse"><stop stop-color="#FE7062"/><stop offset="1" stop-color="#FF928E"/></linearGradient><linearGradient id="paint32_linear" x1="10728.6" y1="3853.36" x2="8351.7" y2="7023.95" gradientUnits="userSpaceOnUse"><stop stop-color="#FE7062"/><stop offset="1" stop-color="#FF928E"/></linearGradient><linearGradient id="paint33_linear" x1="21159.7" y1="3559.95" x2="19866.6" y2="7407.16" gradientUnits="userSpaceOnUse"><stop stop-color="#FE7062"/><stop offset="1" stop-color="#FF928E"/></linearGradient><linearGradient id="paint34_linear" x1="18191" y1="16401.4" x2="20713.3" y2="13473.5" gradientUnits="userSpaceOnUse"><stop stop-color="#FE7062"/><stop offset="1" stop-color="#FF928E"/></linearGradient><linearGradient id="paint35_linear" x1="21407.5" y1="10964" x2="14196.7" y2="21857.3" gradientUnits="userSpaceOnUse"><stop stop-color="#FE7062"/><stop offset="1" stop-color="#FF928E"/></linearGradient><linearGradient id="paint36_linear" x1="5388.15" y1="3314.29" x2="4420.83" y2="4604.77" gradientUnits="userSpaceOnUse"><stop stop-color="#FE7062"/><stop offset="1" stop-color="#FF928E"/></linearGradient><linearGradient id="paint37_linear" x1="10523.6" y1="2968.27" x2="9996.8" y2="4534.18" gradientUnits="userSpaceOnUse"><stop stop-color="#FE7062"/><stop offset="1" stop-color="#FF928E"/></linearGradient><linearGradient id="paint38_linear" x1="18990.1" y1="22328.7" x2="21512.5" y2="19401.1" gradientUnits="userSpaceOnUse"><stop stop-color="#FE7062"/><stop offset="1" stop-color="#FF928E"/></linearGradient><linearGradient id="paint39_linear" x1="22180.4" y1="16695.9" x2="14969.6" y2="27589.6" gradientUnits="userSpaceOnUse"><stop stop-color="#FE7062"/><stop offset="1" stop-color="#FF928E"/></linearGradient><linearGradient id="paint40_linear" x1="5593.17" y1="4904.45" x2="4625.48" y2="6195.03" gradientUnits="userSpaceOnUse"><stop stop-color="#FE7062"/><stop offset="1" stop-color="#FF928E"/></linearGradient><linearGradient id="paint41_linear" x1="10919.2" y1="4344.95" x2="10393.4" y2="5910.11" gradientUnits="userSpaceOnUse"><stop stop-color="#FE7062"/><stop offset="1" stop-color="#FF928E"/></linearGradient><linearGradient id="paint42_linear" x1="19810.8" y1="7907.6" x2="20824.5" y2="6730.89" gradientUnits="userSpaceOnUse"><stop stop-color="#FE7062"/><stop offset="1" stop-color="#FF928E"/></linearGradient><linearGradient id="paint43_linear" x1="20689.8" y1="5677.93" x2="17792.4" y2="10055.2" gradientUnits="userSpaceOnUse"><stop stop-color="#FE7062"/><stop offset="1" stop-color="#FF928E"/></linearGradient><linearGradient id="paint44_linear" x1="5423.97" y1="1688.58" x2="5035.12" y2="2207.19" gradientUnits="userSpaceOnUse"><stop stop-color="#FE7062"/><stop offset="1" stop-color="#FF928E"/></linearGradient><linearGradient id="paint45_linear" x1="10363.7" y1="1502.96" x2="10152.6" y2="2131.72" gradientUnits="userSpaceOnUse"><stop stop-color="#FE7062"/><stop offset="1" stop-color="#FF928E"/></linearGradient><linearGradient id="paint46_linear" x1="61496.7" y1="24351.9" x2="55273.7" y2="17129" gradientUnits="userSpaceOnUse"><stop stop-color="#FE7062"/><stop offset="1" stop-color="#FF928E"/></linearGradient><linearGradient id="paint47_linear" x1="50022.4" y1="11467" x2="67810.1" y2="38339.3" gradientUnits="userSpaceOnUse"><stop stop-color="#FE7062"/><stop offset="1" stop-color="#FF928E"/></linearGradient><linearGradient id="paint48_linear" x1="13340.4" y1="3853.37" x2="15717.3" y2="7023.95" gradientUnits="userSpaceOnUse"><stop stop-color="#FE7062"/><stop offset="1" stop-color="#FF928E"/></linearGradient><linearGradient id="paint49_linear" x1="25379" y1="3559.95" x2="26672.1" y2="7407.18" gradientUnits="userSpaceOnUse"><stop stop-color="#FE7062"/><stop offset="1" stop-color="#FF928E"/></linearGradient><linearGradient id="paint50_linear" x1="43170.9" y1="16218.3" x2="40639.1" y2="13302.6" gradientUnits="userSpaceOnUse"><stop stop-color="#FE7062"/><stop offset="1" stop-color="#FF928E"/></linearGradient><linearGradient id="paint51_linear" x1="38032.9" y1="11009" x2="45273.2" y2="21946.9" gradientUnits="userSpaceOnUse"><stop stop-color="#FE7062"/><stop offset="1" stop-color="#FF928E"/></linearGradient><linearGradient id="paint52_linear" x1="9832.39" y1="3314.29" x2="10799.7" y2="4604.77" gradientUnits="userSpaceOnUse"><stop stop-color="#FE7062"/><stop offset="1" stop-color="#FF928E"/></linearGradient><linearGradient id="paint53_linear" x1="19021.7" y1="2965.35" x2="19547.3" y2="4530.15" gradientUnits="userSpaceOnUse"><stop stop-color="#FE7062"/><stop offset="1" stop-color="#FF928E"/></linearGradient><linearGradient id="paint54_linear" x1="42524.3" y1="22420.2" x2="39991.9" y2="19480.6" gradientUnits="userSpaceOnUse"><stop stop-color="#FE7062"/><stop offset="1" stop-color="#FF928E"/></linearGradient><linearGradient id="paint55_linear" x1="37269" y1="16764.4" x2="44509.3" y2="27702.6" gradientUnits="userSpaceOnUse"><stop stop-color="#FE7062"/><stop offset="1" stop-color="#FF928E"/></linearGradient><linearGradient id="paint56_linear" x1="9639.49" y1="4904.45" x2="10607.2" y2="6195.03" gradientUnits="userSpaceOnUse"><stop stop-color="#FE7062"/><stop offset="1" stop-color="#FF928E"/></linearGradient><linearGradient id="paint57_linear" x1="18645" y1="4344.95" x2="19170.8" y2="5910.08" gradientUnits="userSpaceOnUse"><stop stop-color="#FE7062"/><stop offset="1" stop-color="#FF928E"/></linearGradient><linearGradient id="paint58_linear" x1="19074.3" y1="7889.95" x2="18066.5" y2="6717.66" gradientUnits="userSpaceOnUse"><stop stop-color="#FE7062"/><stop offset="1" stop-color="#FF928E"/></linearGradient><linearGradient id="paint59_linear" x1="16861.3" y1="5636.07" x2="19737.2" y2="9980.51" gradientUnits="userSpaceOnUse"><stop stop-color="#FE7062"/><stop offset="1" stop-color="#FF928E"/></linearGradient><linearGradient id="paint60_linear" x1="4324.13" y1="1688.58" x2="4712.98" y2="2207.19" gradientUnits="userSpaceOnUse"><stop stop-color="#FE7062"/><stop offset="1" stop-color="#FF928E"/></linearGradient><linearGradient id="paint61_linear" x1="8471.13" y1="1502.98" x2="8682.24" y2="2131.68" gradientUnits="userSpaceOnUse"><stop stop-color="#FE7062"/><stop offset="1" stop-color="#FF928E"/></linearGradient><linearGradient id="paint62_linear" x1="26993.6" y1="12703.3" x2="24474.6" y2="9760.28" gradientUnits="userSpaceOnUse"><stop stop-color="#FE7062"/><stop offset="1" stop-color="#FF928E"/></linearGradient><linearGradient id="paint63_linear" x1="22340.2" y1="7303.29" x2="29580.6" y2="18241.2" gradientUnits="userSpaceOnUse"><stop stop-color="#FE7062"/><stop offset="1" stop-color="#FF928E"/></linearGradient><linearGradient id="paint64_linear" x1="5868.83" y1="2291.4" x2="6836.16" y2="3581.87" gradientUnits="userSpaceOnUse"><stop stop-color="#FE7062"/><stop offset="1" stop-color="#FF928E"/></linearGradient><linearGradient id="paint65_linear" x1="11265.3" y1="2077.67" x2="11790.9" y2="3642.52" gradientUnits="userSpaceOnUse"><stop stop-color="#FE7062"/><stop offset="1" stop-color="#FF928E"/></linearGradient></defs></svg>