<svg width="212" height="239" viewBox="0 0 212 239" fill="none" xmlns="http://www.w3.org/2000/svg">
<g filter="url(#filter0_d)">
<path fill-rule="evenodd" clip-rule="evenodd" d="M75.4738 5.69369C75.7487 5.71974 75.9505 5.96371 75.9245 6.23862C73.4533 32.3233 70.5078 57.0437 58.5563 81.0269C55.2634 87.6348 49.2902 97.9956 41.6965 106.754C47.9237 109.814 52.6917 115.283 57.4376 120.861C62.3662 126.654 66.946 132.867 71.5246 139.079L71.5246 139.079L71.5258 139.08C72.9911 141.068 74.4562 143.056 75.9325 145.029C82.0309 153.181 88.3317 161.11 95.674 167.917C101.642 173.449 111.095 176.624 120.962 177.566C122.672 177.729 124.391 177.825 126.104 177.855C125.066 172.486 124.515 166.698 125.086 161.504C125.598 156.845 127.02 152.605 129.862 149.585C132.719 146.548 136.951 144.81 142.937 145.044C153.055 145.44 159.419 150.633 160.752 156.974C162.086 163.325 158.313 170.527 148.787 174.809C142.845 177.48 135.18 178.858 127.327 178.865C128.11 182.606 129.115 186.107 130.118 188.998C136.088 206.203 146.74 216.439 159.92 222.387C172.894 228.244 188.341 229.955 204.229 230.013C203.615 229.417 202.982 228.752 202.419 228.16L202.419 228.16C202.139 227.866 201.877 227.59 201.642 227.349C201.449 227.152 201.453 226.835 201.651 226.642C201.849 226.449 202.165 226.453 202.358 226.651C202.612 226.912 202.889 227.202 203.179 227.507L203.179 227.507L203.179 227.507C204.03 228.401 204.99 229.411 205.815 230.112C205.835 230.128 205.854 230.146 205.872 230.165C205.902 230.199 205.927 230.236 205.946 230.275C206.03 230.44 206.017 230.645 205.9 230.8C205.881 230.825 205.86 230.848 205.837 230.87C205.817 230.888 205.795 230.905 205.773 230.919C205.423 231.159 205.022 231.465 204.587 231.796C204.504 231.86 204.419 231.925 204.332 231.99C204.258 232.046 204.184 232.103 204.108 232.16C203.497 232.622 202.843 233.097 202.246 233.435C202.006 233.571 201.701 233.487 201.565 233.246C201.429 233.006 201.513 232.701 201.754 232.565C202.288 232.263 202.894 231.824 203.505 231.362C203.654 231.25 203.803 231.136 203.951 231.024L203.962 231.016L203.962 231.016C203.963 231.014 203.965 231.013 203.967 231.012C188.118 230.937 172.602 229.209 159.508 223.299C146.088 217.241 135.236 206.801 129.174 189.326C128.143 186.356 127.105 182.735 126.304 178.858C124.492 178.833 122.673 178.734 120.867 178.562C110.886 177.608 101.186 174.39 94.9942 168.65C87.5823 161.778 81.2371 153.79 75.1318 145.628C73.6453 143.641 72.1736 141.645 70.7043 139.651C66.1306 133.447 61.5798 127.273 56.676 121.509C51.8407 115.826 47.1258 110.454 41.0127 107.533C40.5718 108.029 40.1256 108.52 39.6745 109.004C31.1468 118.149 20.6739 125.019 9.67763 122.318C8.00059 121.906 7.02941 120.504 6.56864 118.998C6.10752 117.491 6.11622 115.769 6.48408 114.492C7.04036 112.561 8.53402 110.977 10.4596 109.691C12.3906 108.402 14.8088 107.376 17.3127 106.58C22.318 104.988 27.7651 104.282 30.5903 104.258C34.4164 104.225 37.7543 104.99 40.7536 106.314C48.3591 97.6002 54.3607 87.2042 57.6613 80.5809C69.5211 56.7818 72.4575 32.2319 74.9289 6.14431C74.955 5.8694 75.1989 5.66765 75.4738 5.69369ZM40.0574 107.102C37.2476 105.907 34.1405 105.228 30.5987 105.258C27.8764 105.281 22.5286 105.97 17.6158 107.533C15.1607 108.314 12.8391 109.305 11.015 110.523C9.18551 111.745 7.90881 113.159 7.44498 114.769C7.13231 115.854 7.11885 117.379 7.52488 118.706C7.93124 120.034 8.7165 121.052 9.91615 121.347C20.3406 123.907 30.4545 117.425 38.9431 108.322C39.3181 107.92 39.6895 107.513 40.0574 107.102ZM127.124 177.865C134.934 177.881 142.537 176.522 148.377 173.897C157.623 169.741 160.981 162.929 159.773 157.179C158.562 151.42 152.708 146.427 142.898 146.043C137.14 145.818 133.211 147.485 130.59 150.27C127.954 153.072 126.58 157.069 126.08 161.613C125.515 166.753 126.076 172.517 127.124 177.865Z" fill="#FF1E1E"/>
<path d="M75.9245 6.23862L75.4267 6.19146L75.4267 6.19146L75.9245 6.23862ZM75.4738 5.69369L75.521 5.19592L75.521 5.19592L75.4738 5.69369ZM58.5563 81.0269L59.0039 81.2499L59.0039 81.2499L58.5563 81.0269ZM41.6965 106.754L41.3187 106.426C41.2171 106.543 41.1757 106.701 41.2065 106.853C41.2372 107.005 41.3368 107.134 41.476 107.202L41.6965 106.754ZM57.4376 120.861L57.8185 120.537L57.8185 120.537L57.4376 120.861ZM71.5246 139.079L71.1221 139.375L71.1246 139.379L71.5246 139.079ZM71.5246 139.079L71.9273 138.782L71.9246 138.779L71.5246 139.079ZM71.5258 139.08L71.1232 139.377L71.1234 139.377L71.5258 139.08ZM75.9325 145.029L76.3329 144.73L76.3329 144.73L75.9325 145.029ZM95.674 167.917L95.3341 168.283L95.3341 168.283L95.674 167.917ZM120.962 177.566L120.914 178.064L120.914 178.064L120.962 177.566ZM126.104 177.855L126.095 178.355C126.246 178.358 126.39 178.292 126.487 178.177C126.584 178.061 126.623 177.908 126.595 177.76L126.104 177.855ZM125.086 161.504L124.589 161.449L124.589 161.449L125.086 161.504ZM129.862 149.585L129.498 149.242L129.498 149.242L129.862 149.585ZM142.937 145.044L142.957 144.544L142.957 144.544L142.937 145.044ZM160.752 156.974L161.241 156.871L161.241 156.871L160.752 156.974ZM148.787 174.809L148.582 174.353L148.582 174.353L148.787 174.809ZM127.327 178.865L127.327 178.365C127.176 178.365 127.034 178.433 126.939 178.55C126.844 178.667 126.807 178.82 126.838 178.967L127.327 178.865ZM130.118 188.998L130.591 188.834L130.591 188.834L130.118 188.998ZM159.92 222.387L160.125 221.932L160.125 221.932L159.92 222.387ZM204.229 230.013L204.227 230.513C204.431 230.513 204.615 230.39 204.692 230.201C204.769 230.013 204.724 229.796 204.577 229.654L204.229 230.013ZM202.419 228.16L202.035 228.48C202.042 228.489 202.049 228.497 202.057 228.505L202.419 228.16ZM202.419 228.16L202.803 227.84C202.796 227.831 202.789 227.823 202.781 227.815L202.419 228.16ZM201.642 227.349L202 227L202 227L201.642 227.349ZM201.651 226.642L202 227L202 227L201.651 226.642ZM202.358 226.651L202 227L202 227L202.358 226.651ZM203.179 227.507L202.816 227.852L202.825 227.86L203.179 227.507ZM203.179 227.507L203.541 227.162L203.532 227.153L203.179 227.507ZM205.815 230.112L205.491 230.493L205.5 230.5L205.815 230.112ZM205.872 230.165L205.5 230.5L205.5 230.5L205.872 230.165ZM205.946 230.275L205.5 230.5L205.5 230.5L205.946 230.275ZM205.9 230.8L205.5 230.5L205.5 230.5L205.9 230.8ZM205.837 230.87L205.5 230.5L205.5 230.501L205.837 230.87ZM205.773 230.919L205.5 230.5L205.49 230.507L205.773 230.919ZM204.587 231.796L204.284 231.398L204.284 231.398L204.587 231.796ZM204.332 231.99L204.03 231.592L204.03 231.592L204.332 231.99ZM204.108 232.16L203.807 231.761L203.807 231.761L204.108 232.16ZM202.246 233.435L202 233L202 233L202.246 233.435ZM201.754 232.565L201.508 232.13L201.508 232.13L201.754 232.565ZM203.505 231.362L203.204 230.963L203.204 230.963L203.505 231.362ZM203.951 231.024L204.254 231.421L204.255 231.421L203.951 231.024ZM203.962 231.016L203.684 230.6C203.675 230.606 203.666 230.612 203.658 230.619L203.962 231.016ZM203.962 231.016L204.239 231.432C204.248 231.425 204.257 231.419 204.266 231.412L203.962 231.016ZM203.967 231.012L204.271 231.409C204.441 231.279 204.509 231.055 204.441 230.852C204.372 230.65 204.183 230.513 203.969 230.512L203.967 231.012ZM159.508 223.299L159.714 222.843L159.714 222.843L159.508 223.299ZM129.174 189.326L128.701 189.49L128.701 189.49L129.174 189.326ZM126.304 178.858L126.794 178.757C126.747 178.528 126.546 178.362 126.311 178.358L126.304 178.858ZM120.867 178.562L120.819 179.059L120.819 179.059L120.867 178.562ZM94.9942 168.65L95.3341 168.283L95.3341 168.283L94.9942 168.65ZM75.1318 145.628L75.5321 145.329L75.5321 145.329L75.1318 145.628ZM70.7043 139.651L71.1068 139.355L71.1068 139.355L70.7043 139.651ZM56.676 121.509L56.2952 121.833L56.2952 121.833L56.676 121.509ZM41.0127 107.533L41.2282 107.082C41.0272 106.986 40.7868 107.034 40.6388 107.201L41.0127 107.533ZM39.6745 109.004L40.0402 109.345L40.0402 109.345L39.6745 109.004ZM9.67763 122.318L9.79689 121.833L9.79689 121.833L9.67763 122.318ZM6.56864 118.998L6.09052 119.145L6.09052 119.145L6.56864 118.998ZM6.48408 114.492L6.00362 114.353L6.48408 114.492ZM10.4596 109.691L10.7373 110.107L10.7373 110.107L10.4596 109.691ZM17.3127 106.58L17.1612 106.103L17.1612 106.103L17.3127 106.58ZM30.5903 104.258L30.586 103.758L30.586 103.758L30.5903 104.258ZM40.7536 106.314L40.5517 106.771C40.7519 106.86 40.9863 106.808 41.1303 106.643L40.7536 106.314ZM57.6613 80.5809L57.2138 80.3579L57.2138 80.3579L57.6613 80.5809ZM74.9289 6.14431L74.4311 6.09715L74.4311 6.09715L74.9289 6.14431ZM30.5987 105.258L30.5945 104.758L30.5945 104.758L30.5987 105.258ZM40.0574 107.102L40.43 107.435C40.5376 107.315 40.5806 107.15 40.5455 106.993C40.5104 106.835 40.4015 106.705 40.2531 106.642L40.0574 107.102ZM17.6158 107.533L17.4643 107.056L17.4643 107.056L17.6158 107.533ZM11.015 110.523L11.2927 110.939L11.2927 110.939L11.015 110.523ZM7.44498 114.769L6.96453 114.63L6.96453 114.63L7.44498 114.769ZM7.52488 118.706L8.003 118.56L8.003 118.56L7.52488 118.706ZM9.91615 121.347L9.79689 121.833L9.79689 121.833L9.91615 121.347ZM38.9431 108.322L38.5774 107.981L38.5774 107.981L38.9431 108.322ZM148.377 173.897L148.173 173.441L148.173 173.441L148.377 173.897ZM127.124 177.865L126.634 177.961C126.68 178.195 126.885 178.365 127.123 178.365L127.124 177.865ZM159.773 157.179L160.262 157.077L160.262 157.077L159.773 157.179ZM142.898 146.043L142.879 146.543L142.879 146.543L142.898 146.043ZM130.59 150.27L130.226 149.928L130.226 149.928L130.59 150.27ZM126.08 161.613L125.583 161.559L125.583 161.559L126.08 161.613ZM76.4222 6.28578C76.4743 5.73595 76.0708 5.24801 75.521 5.19592L75.4267 6.19146L75.4267 6.19146L76.4222 6.28578ZM59.0039 81.2499C71.0012 57.1746 73.9512 32.3689 76.4222 6.28578L75.4267 6.19146C72.9554 32.2776 70.0145 56.9127 58.1088 80.8039L59.0039 81.2499ZM42.0743 107.081C49.7051 98.2802 55.7001 87.8795 59.0039 81.2499L58.1088 80.8039C54.8268 87.39 48.8752 97.7109 41.3187 106.426L42.0743 107.081ZM57.8185 120.537C53.0834 114.971 48.2522 109.418 41.917 106.305L41.476 107.202C47.5952 110.209 52.3 115.594 57.0568 121.185L57.8185 120.537ZM71.927 138.782C67.3503 132.573 62.7602 126.346 57.8185 120.537L57.0568 121.185C61.9721 126.963 66.5417 133.162 71.1221 139.375L71.927 138.782ZM71.9246 138.779L71.9246 138.779L71.1246 139.379L71.1246 139.379L71.9246 138.779ZM71.9285 138.784L71.9273 138.782L71.122 139.375L71.1232 139.377L71.9285 138.784ZM76.3329 144.73C74.8578 142.758 73.3937 140.772 71.9283 138.784L71.1234 139.377C72.5884 141.365 74.0546 143.353 75.5321 145.329L76.3329 144.73ZM96.014 167.55C88.7064 160.775 82.4278 152.877 76.3329 144.73L75.5321 145.329C81.634 153.485 87.957 161.444 95.3341 168.283L96.014 167.55ZM121.01 177.068C111.199 176.131 101.87 172.979 96.014 167.55L95.3341 168.283C101.414 173.92 110.99 177.116 120.914 178.064L121.01 177.068ZM126.112 177.355C124.413 177.326 122.706 177.23 121.01 177.068L120.914 178.064C122.637 178.228 124.37 178.325 126.095 178.355L126.112 177.355ZM124.589 161.449C124.01 166.712 124.569 172.554 125.613 177.95L126.595 177.76C125.562 172.419 125.019 166.685 125.583 161.559L124.589 161.449ZM129.498 149.242C126.552 152.372 125.108 156.734 124.589 161.449L125.583 161.559C126.089 156.957 127.487 152.839 130.226 149.928L129.498 149.242ZM142.957 144.544C136.857 144.306 132.474 146.08 129.498 149.242L130.226 149.928C132.965 147.017 137.046 145.314 142.918 145.543L142.957 144.544ZM161.241 156.871C159.847 150.239 153.228 144.946 142.957 144.544L142.918 145.543C152.882 145.933 158.991 151.027 160.262 157.077L161.241 156.871ZM148.992 175.265C158.658 170.921 162.639 163.524 161.241 156.871L160.262 157.077C161.534 163.127 157.968 170.134 148.582 174.353L148.992 175.265ZM127.328 179.365C135.231 179.358 142.969 177.972 148.992 175.265L148.582 174.353C142.72 176.988 135.129 178.358 127.327 178.365L127.328 179.365ZM130.591 188.834C129.594 185.962 128.594 182.482 127.816 178.763L126.838 178.967C127.625 182.73 128.636 186.251 129.646 189.162L130.591 188.834ZM160.125 221.932C147.066 216.037 136.513 205.905 130.591 188.834L129.646 189.162C135.662 206.502 146.414 216.84 159.714 222.843L160.125 221.932ZM204.231 229.513C188.368 229.455 173.004 227.745 160.125 221.932L159.714 222.843C172.784 228.743 188.314 230.455 204.227 230.513L204.231 229.513ZM202.057 228.505C202.619 229.095 203.258 229.767 203.881 230.371L204.577 229.654C203.971 229.066 203.346 228.408 202.781 227.815L202.057 228.505ZM202.035 228.48L202.035 228.48L202.803 227.84L202.803 227.84L202.035 228.48ZM201.284 227.698C201.516 227.936 201.776 228.21 202.057 228.504L202.781 227.815C202.502 227.521 202.237 227.243 202 227L201.284 227.698ZM201.302 226.284C200.906 226.67 200.899 227.303 201.284 227.698L202 227L202 227L201.302 226.284ZM202.716 226.302C202.33 225.906 201.697 225.899 201.302 226.284L202 227L202 227L202.716 226.302ZM203.541 227.162C203.252 226.858 202.973 226.565 202.716 226.302L202 227C202.252 227.258 202.526 227.547 202.816 227.851L203.541 227.162ZM203.532 227.153L203.532 227.153L202.825 227.86L202.825 227.86L203.532 227.153ZM203.532 227.153L203.532 227.153L202.825 227.86L202.825 227.861L203.532 227.153ZM206.139 229.731C205.339 229.05 204.398 228.062 203.541 227.162L202.817 227.852C203.661 228.739 204.642 229.771 205.491 230.493L206.139 229.731ZM206.243 229.831C206.208 229.792 206.17 229.756 206.13 229.724L205.5 230.5L205.5 230.5L206.243 229.831ZM206.393 230.05C206.353 229.971 206.303 229.897 206.243 229.83L205.5 230.5L205.5 230.5L206.393 230.05ZM206.3 231.1C206.534 230.788 206.559 230.38 206.393 230.05L205.5 230.5L205.5 230.5L206.3 231.1ZM206.173 231.239C206.221 231.196 206.264 231.149 206.3 231.1L205.5 230.5L205.5 230.5L206.173 231.239ZM206.045 231.339C206.091 231.309 206.134 231.276 206.174 231.239L205.5 230.501L205.5 230.5L206.045 231.339ZM204.891 232.194C205.328 231.86 205.718 231.563 206.055 231.332L205.49 230.507C205.128 230.755 204.716 231.069 204.284 231.398L204.891 232.194ZM204.635 232.388C204.722 232.323 204.807 232.257 204.891 232.194L204.284 231.398C204.2 231.462 204.116 231.527 204.03 231.592L204.635 232.388ZM204.409 232.559C204.485 232.502 204.561 232.445 204.635 232.388L204.03 231.592C203.956 231.648 203.882 231.705 203.807 231.761L204.409 232.559ZM202.492 233.87C203.121 233.515 203.798 233.021 204.409 232.559L203.807 231.761C203.196 232.223 202.566 232.68 202 233L202.492 233.87ZM201.13 233.492C201.402 233.973 202.012 234.142 202.492 233.87L202 233L202 233L201.13 233.492ZM201.508 232.13C201.027 232.402 200.858 233.012 201.13 233.492L202 233L202 233L201.508 232.13ZM203.204 230.963C202.593 231.425 202.01 231.846 201.508 232.13L202 233C202.566 232.68 203.196 232.223 203.807 231.761L203.204 230.963ZM203.648 230.626C203.5 230.739 203.351 230.852 203.204 230.963L203.807 231.761C203.956 231.648 204.106 231.534 204.254 231.421L203.648 230.626ZM203.658 230.619L203.647 230.626L204.255 231.421L204.265 231.413L203.658 230.619ZM203.684 230.599L203.684 230.6L204.239 231.432L204.239 231.432L203.684 230.599ZM203.663 230.615C203.663 230.615 203.662 230.615 203.661 230.616C203.661 230.616 203.659 230.617 203.658 230.619L204.266 231.412C204.266 231.412 204.266 231.412 204.267 231.411C204.268 231.411 204.269 231.41 204.271 231.409L203.663 230.615ZM159.303 223.755C172.491 229.708 188.09 231.436 203.964 231.512L203.969 230.512C188.145 230.437 172.713 228.71 159.714 222.843L159.303 223.755ZM128.701 189.49C134.811 207.099 145.762 217.643 159.303 223.755L159.714 222.843C146.414 216.84 135.662 206.502 129.646 189.162L128.701 189.49ZM125.815 178.959C126.62 182.859 127.664 186.5 128.701 189.49L129.646 189.162C128.622 186.211 127.59 182.612 126.794 178.757L125.815 178.959ZM120.819 179.059C122.639 179.233 124.472 179.332 126.297 179.358L126.311 178.358C124.512 178.333 122.707 178.235 120.914 178.064L120.819 179.059ZM94.6542 169.017C100.958 174.861 110.781 178.101 120.819 179.059L120.914 178.064C110.99 177.116 101.414 173.92 95.3341 168.283L94.6542 169.017ZM74.7314 145.928C80.8402 154.094 87.2076 162.113 94.6542 169.017L95.3341 168.283C87.957 161.444 81.634 153.485 75.5321 145.329L74.7314 145.928ZM70.3018 139.948C71.771 141.941 73.2437 143.939 74.7314 145.928L75.5321 145.329C74.0469 143.343 72.5762 141.348 71.1068 139.355L70.3018 139.948ZM56.2952 121.833C61.1857 127.582 65.7263 133.741 70.3018 139.948L71.1068 139.355C66.5349 133.153 61.9738 126.965 57.0568 121.185L56.2952 121.833ZM40.7971 107.984C46.7987 110.852 51.4486 116.136 56.2952 121.833L57.0568 121.185C52.2328 115.515 47.453 110.056 41.2282 107.082L40.7971 107.984ZM40.0402 109.345C40.4942 108.858 40.943 108.364 41.3865 107.865L40.6388 107.201C40.2005 107.694 39.7571 108.182 39.3088 108.663L40.0402 109.345ZM9.55836 122.804C20.8406 125.575 31.4931 118.511 40.0402 109.345L39.3088 108.663C30.8006 117.787 20.5072 124.463 9.79689 121.833L9.55836 122.804ZM6.09052 119.145C6.57824 120.739 7.64205 122.333 9.55836 122.804L9.79689 121.833C8.35914 121.479 7.48058 120.27 7.04676 118.852L6.09052 119.145ZM6.00362 114.353C5.60817 115.726 5.60186 117.548 6.09052 119.145L7.04676 118.852C6.61318 117.435 6.62427 115.811 6.96453 114.63L6.00362 114.353ZM10.182 109.275C8.20834 110.593 6.60615 112.262 6.00362 114.353L6.96453 114.63C7.47457 112.86 8.8597 111.361 10.7373 110.107L10.182 109.275ZM17.1612 106.103C14.6328 106.907 12.1663 107.95 10.182 109.275L10.7373 110.107C12.6149 108.853 14.9848 107.845 17.4643 107.056L17.1612 106.103ZM30.586 103.758C27.7094 103.782 22.2127 104.497 17.1612 106.103L17.4643 107.056C22.4233 105.479 27.8207 104.781 30.5945 104.758L30.586 103.758ZM40.9554 105.857C37.8928 104.505 34.4848 103.725 30.586 103.758L30.5945 104.758C34.348 104.726 37.6158 105.476 40.5517 106.771L40.9554 105.857ZM57.2138 80.3579C53.9241 86.9594 47.9445 97.3149 40.3769 105.985L41.1303 106.643C48.7737 97.8855 54.7974 87.4489 58.1088 80.8039L57.2138 80.3579ZM74.4311 6.09715C71.9595 32.1863 69.0277 56.6508 57.2138 80.3579L58.1088 80.8039C70.0145 56.9127 72.9554 32.2776 75.4267 6.19146L74.4311 6.09715ZM75.521 5.19592C74.9712 5.14383 74.4832 5.54733 74.4311 6.09715L75.4267 6.19147L75.4267 6.19146L75.521 5.19592ZM30.603 105.758C34.0751 105.728 37.1143 106.393 39.8618 107.562L40.2531 106.642C37.381 105.42 34.2058 104.727 30.5945 104.758L30.603 105.758ZM17.7674 108.009C22.6339 106.461 27.9321 105.78 30.603 105.758L30.5945 104.758C27.8207 104.781 22.4233 105.479 17.4643 107.056L17.7674 108.009ZM11.2927 110.939C13.0634 109.756 15.3367 108.782 17.7674 108.009L17.4643 107.056C14.9848 107.845 12.6149 108.853 10.7373 110.107L11.2927 110.939ZM7.92544 114.907C8.34306 113.458 9.51134 112.128 11.2927 110.939L10.7373 110.107C8.85969 111.361 7.47457 112.86 6.96453 114.63L7.92544 114.907ZM8.003 118.56C7.62451 117.323 7.64036 115.897 7.92544 114.907L6.96453 114.63C6.62427 115.811 6.61318 117.435 7.04676 118.852L8.003 118.56ZM10.0354 120.861C9.07369 120.625 8.38183 119.798 8.003 118.56L7.04676 118.852C7.48065 120.27 8.35931 121.48 9.79689 121.833L10.0354 120.861ZM38.5774 107.981C30.1085 117.063 20.1741 123.352 10.0354 120.861L9.79689 121.833C20.5072 124.463 30.8006 117.787 39.3088 108.663L38.5774 107.981ZM39.6848 106.768C39.3191 107.177 38.95 107.581 38.5774 107.981L39.3088 108.663C39.6861 108.258 40.0599 107.849 40.43 107.435L39.6848 106.768ZM148.173 173.441C142.413 176.029 134.884 177.381 127.125 177.365L127.123 178.365C134.984 178.381 142.661 177.014 148.582 174.353L148.173 173.441ZM159.284 157.282C160.429 162.731 157.277 169.349 148.173 173.441L148.582 174.353C157.969 170.134 161.534 163.127 160.262 157.077L159.284 157.282ZM142.879 146.543C152.535 146.92 158.134 151.813 159.284 157.282L160.262 157.077C158.991 151.027 152.882 145.933 142.918 145.543L142.879 146.543ZM130.954 150.613C133.456 147.954 137.234 146.322 142.879 146.543L142.918 145.543C137.046 145.314 132.965 147.017 130.226 149.928L130.954 150.613ZM126.577 161.668C127.07 157.181 128.421 153.305 130.954 150.613L130.226 149.928C127.487 152.839 126.089 156.957 125.583 161.559L126.577 161.668ZM127.615 177.769C126.572 172.448 126.019 166.739 126.577 161.668L125.583 161.559C125.01 166.767 125.58 172.586 126.634 177.961L127.615 177.769Z" fill="#FF1E1E"/>
</g>
<defs>
<filter id="filter0_d" x="0.714844" y="0.191406" width="210.785" height="238.809" filterUnits="userSpaceOnUse" color-interpolation-filters="sRGB">
<feFlood flood-opacity="0" result="BackgroundImageFix"/>
<feColorMatrix in="SourceAlpha" type="matrix" values="0 0 0 0 0 0 0 0 0 0 0 0 0 0 0 0 0 0 127 0"/>
<feOffset/>
<feGaussianBlur stdDeviation="2.5"/>
<feColorMatrix type="matrix" values="0 0 0 0 1 0 0 0 0 0.117647 0 0 0 0 0.117647 0 0 0 1 0"/>
<feBlend mode="normal" in2="BackgroundImageFix" result="effect1_dropShadow"/>
<feBlend mode="normal" in="SourceGraphic" in2="effect1_dropShadow" result="shape"/>
</filter>
</defs>
</svg>
