<svg width="201" height="31" fill="none" xmlns="http://www.w3.org/2000/svg"><path d="M1 10c1.264-3.791 8.65-6.687 12.163-7.675 4.458-1.254 9.128-.806 13.726-.806 5.182 0 11.525 5.724 15.307 9.19 8.088 7.415 16.411 14.443 27.9 14.443 6.025 0 10.146-.63 15.845-2.656 5.32-1.891 9.307-3.803 14.024-6.773C110.38 9.165 121.91 4.205 134.43 4.205c2.573 0 4.285 1.417 6.684 2.268 2.399.85 10.991 5.349 15.039 8.713 4.048 3.364 1.718 2.885 9.727 6.982 8.01 4.098 7.67 4.509 11.757 4.595 3.352.072 13.813 1.645 16.531-1.074M191.5 21c.055.339 8.422.597 8.288.901m0 0c-.154.348.133-.35 0 0zm0 0c-.863 2.257-1.315 5.738-1.315 8.099" stroke="#ACA9A9" stroke-linecap="round" stroke-linejoin="round" stroke-dasharray="4 4"/></svg>