<svg width="25" height="25" viewBox="0 0 25 25" fill="none" xmlns="http://www.w3.org/2000/svg">
<path d="M8.33464 21.667H5.83464C5.60452 21.667 5.41797 21.8535 5.41797 22.0837C5.41797 22.3138 5.60452 22.5003 5.83464 22.5003H8.33464C8.56476 22.5003 8.75131 22.3138 8.75131 22.0837C8.75131 21.8535 8.56476 21.667 8.33464 21.667Z" fill="#111111"/>
<path d="M19.1659 21.6666H16.6659C16.4358 21.6666 16.2493 21.8532 16.2493 22.0833C16.2493 22.3134 16.4358 22.4999 16.6659 22.4999H19.1659C19.3961 22.4999 19.5826 22.3134 19.5826 22.0833C19.5826 21.8532 19.3961 21.6666 19.1659 21.6666Z" fill="#111111"/>
<path d="M24.5833 24.1667H23.75V1.25C23.75 0.559644 23.1904 0 22.5 0H2.5C1.80964 0 1.25 0.559644 1.25 1.25V24.1667H0.416667C0.186548 24.1667 0 24.3532 0 24.5833C0 24.8135 0.186548 25 0.416667 25H24.5833C24.8135 25 25 24.8135 25 24.5833C25 24.3532 24.8135 24.1667 24.5833 24.1667ZM17.0833 20V18.75H18.75V20H17.0833ZM14.5833 20V15H16.25V20H14.5833ZM17.0833 13.3333H18.75V17.9167H17.0833V13.3333ZM21.25 14.5833H19.5833V13.3333H21.25V14.5833ZM19.5833 15.4167H21.25V20H19.5833V15.4167ZM22.0833 13.3333C22.0833 12.8731 21.7102 12.5 21.25 12.5H19.5833C19.4366 12.5008 19.2928 12.5408 19.1667 12.6158C19.0406 12.5408 18.8967 12.5008 18.75 12.5H17.0833C16.6231 12.5 16.25 12.8731 16.25 13.3333V14.1667H14.5833C14.1231 14.1667 13.75 14.5398 13.75 15V20H9.46708L9.00875 18.6287C10.4559 17.7629 11.147 16.0375 10.6979 14.412C10.2487 12.7865 8.76974 11.6608 7.08333 11.6608C5.39692 11.6608 3.91795 12.7865 3.46879 14.412C3.01963 16.0375 3.71077 17.7629 5.15792 18.6287L4.69958 20H2.08333V10.8333H22.9167V20H22.0833V13.3333ZM7.08333 18.3333C5.4725 18.3333 4.16667 17.0275 4.16667 15.4167C4.16667 13.8058 5.4725 12.5 7.08333 12.5C8.69416 12.5 10 13.8058 10 15.4167C9.99816 17.0267 8.6934 18.3315 7.08333 18.3333ZM5.91917 18.9792C6.67515 19.2291 7.49152 19.2291 8.2475 18.9792L8.58833 20H5.57833L5.91917 18.9792ZM8.75 5V3.75H10.4167V10H8.75V5ZM7.91667 10H6.25V5H7.91667V10ZM3.75 7.08333H5.41667V7.91667H3.75V7.08333ZM5.41667 5V6.25H3.75V2.5H5.41667V5ZM3.75 8.75H5.41667V10H3.75V8.75ZM14.5833 4.16667H16.25V10H14.5833V4.16667ZM17.0833 2.5H18.75V6.25H17.0833V2.5ZM21.25 10H19.5833V4.16667H21.25V10ZM17.0833 10V8.75H18.75V10H17.0833ZM18.75 7.91667H17.0833V7.08333H18.75V7.91667ZM2.5 0.833333H22.5C22.7301 0.833333 22.9167 1.01988 22.9167 1.25V10H22.0833V4.16667C22.0833 3.70643 21.7102 3.33333 21.25 3.33333H19.5833V2.5C19.5833 2.03976 19.2102 1.66667 18.75 1.66667H17.0833C16.6231 1.66667 16.25 2.03976 16.25 2.5V3.33333H14.5833C14.1231 3.33333 13.75 3.70643 13.75 4.16667V10H11.25V3.75C11.25 3.28976 10.8769 2.91667 10.4167 2.91667H8.75C8.28976 2.91667 7.91667 3.28976 7.91667 3.75V4.16667H6.25V2.5C6.25 2.03976 5.8769 1.66667 5.41667 1.66667H3.75C3.28976 1.66667 2.91667 2.03976 2.91667 2.5V10H2.08333V1.25C2.08333 1.01988 2.26988 0.833333 2.5 0.833333ZM2.08333 20.8333H12.0833V24.1667H2.08333V20.8333ZM12.9167 24.1667V20.8333H22.9167V24.1667H12.9167Z" fill="#111111"/>
<path d="M7.49825 15.2444V13.7503C7.49825 13.5202 7.31171 13.3336 7.08159 13.3336C6.85147 13.3336 6.66492 13.5202 6.66492 13.7503V15.4169C6.66494 15.5274 6.70885 15.6334 6.787 15.7115L7.62034 16.5449C7.78383 16.7028 8.04371 16.7005 8.20443 16.5398C8.36515 16.3791 8.36741 16.1192 8.20951 15.9557L7.49825 15.2444Z" fill="#111111"/>
</svg>
