<svg width="12" height="11" viewBox="0 0 12 11" fill="none" xmlns="http://www.w3.org/2000/svg">
<path d="M10.4531 0.784506H9.375V0.313802C9.375 0.140505 9.20712 0 9 0C8.79288 0 8.625 0.140505 8.625 0.313802V0.784506H3.375V0.313802C3.375 0.140505 3.20712 0 3 0C2.79288 0 2.625 0.140505 2.625 0.313802V0.784506H1.54688C0.693914 0.784506 0 1.36518 0 2.07894V8.74724C0 9.461 0.693914 10.0417 1.54688 10.0417H10.4531C11.3061 10.0417 12 9.461 12 8.74724V2.07894C12 1.36518 11.3061 0.784506 10.4531 0.784506ZM1.54688 1.41211H2.625V1.72591C2.625 1.89921 2.79288 2.03971 3 2.03971C3.20712 2.03971 3.375 1.89921 3.375 1.72591V1.41211H8.625V1.72591C8.625 1.89921 8.79288 2.03971 9 2.03971C9.20712 2.03971 9.375 1.89921 9.375 1.72591V1.41211H10.4531C10.8925 1.41211 11.25 1.71124 11.25 2.07894V2.82422H0.75V2.07894C0.75 1.71124 1.10747 1.41211 1.54688 1.41211ZM10.4531 9.41407H1.54688C1.10747 9.41407 0.75 9.11494 0.75 8.74724V3.45182H11.25V8.74724C11.25 9.11494 10.8925 9.41407 10.4531 9.41407Z" fill="#ACA9A9"/>
</svg>
