<svg width="25" height="25" viewBox="0 0 25 25" fill="none" xmlns="http://www.w3.org/2000/svg">
<g clip-path="url(#clip0)">
<path d="M23.75 5.00008C24.4404 5.00008 25 4.44044 25 3.75008C25 3.05973 24.4404 2.50008 23.75 2.50008H21.6667C21.6667 2.03984 21.2936 1.66675 20.8333 1.66675H19.1667C19.1667 0.976392 18.607 0.416748 17.9167 0.416748H12.0833C11.393 0.416748 10.8333 0.976392 10.8333 1.66675V15.0001C10.8333 15.6904 11.393 16.2501 12.0833 16.2501H13.1587L13.4225 18.0297C13.5059 18.4587 13.8882 18.7638 14.325 18.7501H14.5833V21.2501C14.582 22.6302 13.4635 23.7487 12.0833 23.7501H11.6667C10.2865 23.7487 9.16804 22.6302 9.16667 21.2501V6.66675C9.16667 4.8258 7.67428 3.33341 5.83333 3.33341C3.99238 3.33341 2.5 4.8258 2.5 6.66675V13.7501H1.25C0.559644 13.7501 0 14.3097 0 15.0001V19.1667C0.00218808 19.6946 0.335687 20.1641 0.833333 20.3401V22.0834C0.833333 22.7738 1.39298 23.3334 2.08333 23.3334H3.75C4.44036 23.3334 5 22.7738 5 22.0834V20.3401C5.49765 20.1641 5.83115 19.6946 5.83333 19.1667V15.0001C5.83333 14.3097 5.27369 13.7501 4.58333 13.7501H3.33333V6.66675C3.33333 5.28604 4.45262 4.16675 5.83333 4.16675C7.21405 4.16675 8.33333 5.28604 8.33333 6.66675V21.2501C8.3354 23.0902 9.82657 24.5813 11.6667 24.5834H12.0833C13.9234 24.5813 15.4146 23.0902 15.4167 21.2501V18.7501H15.675C16.1118 18.7638 16.4941 18.4587 16.5775 18.0297L16.8412 16.2501H17.9167C18.607 16.2501 19.1667 15.6904 19.1667 15.0001V9.16675H20.8333C21.2936 9.16675 21.6667 8.79365 21.6667 8.33342H23.75C24.4404 8.33342 25 7.77377 25 7.08342C25 6.39306 24.4404 5.83342 23.75 5.83342H21.6667V5.00008H23.75ZM4.16667 22.0834C4.16667 22.3135 3.98012 22.5001 3.75 22.5001H2.08333C1.85321 22.5001 1.66667 22.3135 1.66667 22.0834V20.4167H2.5V21.2501C2.5 21.4802 2.68655 21.6667 2.91667 21.6667C3.14679 21.6667 3.33333 21.4802 3.33333 21.2501V20.4167H4.16667V22.0834ZM5 15.0001V19.1667C5 19.3969 4.81345 19.5834 4.58333 19.5834H1.25C1.01988 19.5834 0.833333 19.3969 0.833333 19.1667V15.0001C0.833333 14.77 1.01988 14.5834 1.25 14.5834H4.58333C4.81345 14.5834 5 14.77 5 15.0001ZM23.75 3.33341C23.9801 3.33341 24.1667 3.51996 24.1667 3.75008C24.1667 3.9802 23.9801 4.16675 23.75 4.16675H21.6667V3.33341H23.75ZM15.7596 17.8892C15.7363 17.9087 15.7065 17.9186 15.6763 17.9167H14.325C14.2994 17.9153 14.2741 17.9108 14.2496 17.9034C14.2496 17.9034 14.2463 17.9034 14.2467 17.9072L14 16.2501H16L15.7596 17.8892ZM18.3333 15.0001C18.3333 15.2302 18.1468 15.4167 17.9167 15.4167H12.0833C11.8532 15.4167 11.6667 15.2302 11.6667 15.0001V5.83342H13.75C13.9801 5.83342 14.1667 5.64687 14.1667 5.41675C14.1667 5.18663 13.9801 5.00008 13.75 5.00008H11.6667V3.75008H13.75C13.9801 3.75008 14.1667 3.56353 14.1667 3.33341C14.1667 3.1033 13.9801 2.91675 13.75 2.91675H11.6667V1.66675C11.6667 1.43663 11.8532 1.25008 12.0833 1.25008H17.9167C18.1468 1.25008 18.3333 1.43663 18.3333 1.66675V15.0001ZM20.8333 8.33342H19.1667V2.50008H20.8333V8.33342ZM23.75 6.66675C23.9801 6.66675 24.1667 6.8533 24.1667 7.08342C24.1667 7.31353 23.9801 7.50008 23.75 7.50008H21.6667V6.66675H23.75Z" fill="#111111"/>
<path d="M2.08384 15.4166C1.85372 15.4166 1.66718 15.6031 1.66718 15.8332V16.6666C1.66718 16.8967 1.85372 17.0832 2.08384 17.0832C2.31396 17.0832 2.50051 16.8967 2.50051 16.6666V16.2499H2.91718C3.1473 16.2499 3.33385 16.0634 3.33385 15.8332C3.33385 15.6031 3.1473 15.4166 2.91718 15.4166H2.08384Z" fill="#111111"/>
</g>
<defs>
<clipPath id="clip0">
<rect width="25" height="25" fill="white"/>
</clipPath>
</defs>
</svg>
