<svg width="20" height="23" viewBox="0 0 20 23" fill="none" xmlns="http://www.w3.org/2000/svg">
<path d="M16.6616 23H3.50106C3.22402 22.9934 2.95098 22.9325 2.69755 22.8206C2.44412 22.7087 2.21526 22.548 2.02404 22.3478C1.83283 22.1475 1.68301 21.9116 1.58314 21.6536C1.48328 21.3955 1.43532 21.1203 1.44202 20.8437V6.63403H2.88191V20.8437C2.87503 20.9316 2.88562 21.0199 2.91306 21.1036C2.94049 21.1873 2.98424 21.2648 3.04178 21.3316C3.09932 21.3984 3.16952 21.4532 3.24834 21.4928C3.32716 21.5324 3.41304 21.5561 3.50106 21.5625H16.6616C16.7496 21.5561 16.8355 21.5324 16.9143 21.4928C16.9931 21.4532 17.0633 21.3984 17.1209 21.3316C17.1784 21.2648 17.2222 21.1873 17.2496 21.1036C17.277 21.0199 17.2876 20.9316 17.2808 20.8437V6.63403H18.7206V20.8437C18.7273 21.1203 18.6794 21.3955 18.5795 21.6536C18.4797 21.9116 18.3298 22.1475 18.1386 22.3478C17.9474 22.548 17.7185 22.7087 17.4651 22.8206C17.2117 22.9325 16.9386 22.9934 16.6616 23Z" fill="#ACA9A9"/>
<path d="M19.2801 5.03125H0.719942C0.529002 5.03125 0.345882 4.95552 0.210866 4.82073C0.075851 4.68594 0 4.50312 0 4.3125C0 4.12188 0.075851 3.93906 0.210866 3.80427C0.345882 3.66948 0.529002 3.59375 0.719942 3.59375H19.2801C19.471 3.59375 19.6541 3.66948 19.7891 3.80427C19.9241 3.93906 20 4.12188 20 4.3125C20 4.50312 19.9241 4.68594 19.7891 4.82073C19.6541 4.95552 19.471 5.03125 19.2801 5.03125Z" fill="#ACA9A9"/>
<path d="M12.2383 7.90625H13.6782V18.6875H12.2383V7.90625Z" fill="#ACA9A9"/>
<path d="M6.48047 7.90625H7.92035V18.6875H6.48047V7.90625Z" fill="#ACA9A9"/>
<path d="M13.6789 2.77438H12.311V1.4375H7.84737V2.77438H6.47948V1.4375C6.47902 1.06838 6.6208 0.713234 6.87545 0.445625C7.1301 0.178015 7.4781 0.0184555 7.84737 0H12.311C12.6803 0.0184555 13.0283 0.178015 13.2829 0.445625C13.5376 0.713234 13.6794 1.06838 13.6789 1.4375V2.77438Z" fill="#ACA9A9"/>
</svg>
