<svg width="25" height="25" viewBox="0 0 25 25" fill="none" xmlns="http://www.w3.org/2000/svg">
<g clip-path="url(#clip0)">
<path d="M25 11.6667C25 10.9763 24.4404 10.4167 23.75 10.4167H16.5792C16.4917 9.85 16.4042 9.29167 16.3083 8.75H19.1667C19.857 8.75 20.4167 8.19036 20.4167 7.5V1.25C20.4167 0.559644 19.857 0 19.1667 0H5.83333C5.14298 0 4.58333 0.559644 4.58333 1.25V7.5C4.58333 8.19036 5.14298 8.75 5.83333 8.75H8.69167C8.59583 9.29167 8.50833 9.85 8.42083 10.4167H1.25C0.559644 10.4167 0 10.9763 0 11.6667C0 12.357 0.559644 12.9167 1.25 12.9167V22.5C0.559644 22.5 0 23.0596 0 23.75C0 24.4404 0.559644 25 1.25 25H3.75C4.44036 25 5 24.4404 5 23.75C5 23.0596 4.44036 22.5 3.75 22.5V12.9167H8.1C8.1 13.0542 8.07083 13.1958 8.05417 13.3333H7.08333C6.6231 13.3333 6.25 13.7064 6.25 14.1667V15C6.25 15.4602 6.6231 15.8333 7.08333 15.8333H7.91667C7.91667 17.6208 9.5125 18.15 11.25 18.2875V18.75H9.58333C8.43274 18.75 7.5 19.6827 7.5 20.8333V22.2417C6.90907 22.9117 6.95157 23.9285 7.59636 24.5469C8.24115 25.1653 9.25885 25.1653 9.90364 24.5469C10.5484 23.9285 10.5909 22.9117 10 22.2417V21.25H15V22.2417C14.4091 22.9117 14.4516 23.9285 15.0964 24.5469C15.7411 25.1653 16.7589 25.1653 17.4036 24.5469C18.0484 23.9285 18.0909 22.9117 17.5 22.2417V20.8333C17.5 19.6827 16.5673 18.75 15.4167 18.75H13.75V18.2875C15.4875 18.15 17.0833 17.6208 17.0833 15.8333H17.9167C18.3769 15.8333 18.75 15.4602 18.75 15V14.1667C18.75 13.7064 18.3769 13.3333 17.9167 13.3333H16.9458C16.9458 13.1958 16.9167 13.0542 16.9 12.9167H21.25V22.5C20.5596 22.5 20 23.0596 20 23.75C20 24.4404 20.5596 25 21.25 25H23.75C24.4404 25 25 24.4404 25 23.75C25 23.0596 24.4404 22.5 23.75 22.5V12.9167C24.4404 12.9167 25 12.357 25 11.6667ZM19.1667 7.91667H16.1667C16.1125 7.63333 16.0625 7.35 16.0125 7.08333H19.5833V7.5C19.5833 7.73012 19.3968 7.91667 19.1667 7.91667ZM5.83333 0.833333H19.1667C19.3968 0.833333 19.5833 1.01988 19.5833 1.25V6.25H15.8333C15.775 5.95417 15.7208 5.675 15.6667 5.41667C15.4686 4.44653 14.6151 3.7498 13.625 3.75H11.3333C10.3432 3.7498 9.48969 4.44653 9.29167 5.41667C9.2375 5.675 9.18333 5.95417 9.125 6.25H5.41667V1.25C5.41667 1.01988 5.60321 0.833333 5.83333 0.833333ZM5.83333 7.91667C5.60321 7.91667 5.41667 7.73012 5.41667 7.5V7.08333H8.9875C8.9375 7.35 8.8875 7.63333 8.83333 7.91667H5.83333ZM4.16667 23.75C4.16667 23.9801 3.98012 24.1667 3.75 24.1667H1.25C1.01988 24.1667 0.833333 23.9801 0.833333 23.75C0.833333 23.5199 1.01988 23.3333 1.25 23.3333H3.75C3.98012 23.3333 4.16667 23.5199 4.16667 23.75ZM2.91667 22.5H2.08333V12.9167H2.91667V22.5ZM1.25 12.0833C1.01988 12.0833 0.833333 11.8968 0.833333 11.6667C0.833333 11.4365 1.01988 11.25 1.25 11.25H8.30417C8.26667 11.5292 8.22917 11.8083 8.19583 12.0833H1.25ZM7.08333 15V14.1667H7.9875C7.96667 14.4542 7.95 14.7292 7.9375 15H7.08333ZM8.75 24.1667C8.28976 24.1667 7.91667 23.7936 7.91667 23.3333C7.91667 22.8731 8.28976 22.5 8.75 22.5C9.21024 22.5 9.58333 22.8731 9.58333 23.3333C9.58333 23.7936 9.21024 24.1667 8.75 24.1667ZM9.16667 21.25V21.725C8.89453 21.6458 8.60547 21.6458 8.33333 21.725V20.8333C8.33333 20.143 8.89298 19.5833 9.58333 19.5833H11.25V20.4167H10C9.53976 20.4167 9.16667 20.7898 9.16667 21.25ZM16.25 24.1667C15.7898 24.1667 15.4167 23.7936 15.4167 23.3333C15.4167 22.8731 15.7898 22.5 16.25 22.5C16.7102 22.5 17.0833 22.8731 17.0833 23.3333C17.0833 23.7936 16.7102 24.1667 16.25 24.1667ZM15.4167 19.5833C16.107 19.5833 16.6667 20.143 16.6667 20.8333V21.725C16.3945 21.6458 16.1055 21.6458 15.8333 21.725V21.25C15.8333 20.7898 15.4602 20.4167 15 20.4167H13.75V19.5833H15.4167ZM12.9167 20.4167H12.0833V18.3333H12.9167V20.4167ZM12.5 17.5C8.75 17.5 8.75 16.4167 8.75 15.8333C8.75 12.8417 9.6125 8.125 10.1292 5.58333C10.248 5.00125 10.7601 4.58321 11.3542 4.58333H13.6458C14.2399 4.58321 14.752 5.00125 14.8708 5.58333C15.3875 8.125 16.25 12.8417 16.25 15.8333C16.25 16.4167 16.25 17.5 12.5 17.5ZM17.9167 14.1667V15H17.0833C17.0833 14.7292 17.0542 14.4542 17.0333 14.1667H17.9167ZM16.6958 11.25H23.75C23.9801 11.25 24.1667 11.4365 24.1667 11.6667C24.1667 11.8968 23.9801 12.0833 23.75 12.0833H16.8042C16.7708 11.8083 16.7333 11.5292 16.6958 11.25ZM24.1667 23.75C24.1667 23.9801 23.9801 24.1667 23.75 24.1667H21.25C21.0199 24.1667 20.8333 23.9801 20.8333 23.75C20.8333 23.5199 21.0199 23.3333 21.25 23.3333H23.75C23.9801 23.3333 24.1667 23.5199 24.1667 23.75ZM22.9167 22.5H22.0833V12.9167H22.9167V22.5Z" fill="#111111"/>
</g>
<defs>
<clipPath id="clip0">
<rect width="25" height="25" fill="white"/>
</clipPath>
</defs>
</svg>
