<svg width="19" height="20" viewBox="0 0 19 20" fill="none" xmlns="http://www.w3.org/2000/svg">
<path d="M2.7832 20H8.98047V12.8906H6.75391V10.5469H8.98047V7.61719C8.98047 6.00174 10.229 4.6875 11.7637 4.6875H14.5469V7.03125H12.3203C11.7064 7.03125 11.207 7.55692 11.207 8.20312V10.5469H14.4464L14.0753 12.8906H11.207V20H16.2168C17.7515 20 19 18.6858 19 17.0703V2.92969C19 1.31424 17.7515 0 16.2168 0H2.7832C1.24853 0 0 1.31424 0 2.92969V17.0703C0 18.6858 1.24853 20 2.7832 20ZM1.11328 2.92969C1.11328 1.96045 1.86243 1.17188 2.7832 1.17188H16.2168C17.1376 1.17188 17.8867 1.96045 17.8867 2.92969V17.0703C17.8867 18.0396 17.1376 18.8281 16.2168 18.8281H12.3203V14.0625H15.0184L15.7606 9.375H12.3203V8.20312H15.6602V3.51562H11.7637C9.6151 3.51562 7.86719 5.35553 7.86719 7.61719V9.375H5.64062V14.0625H7.86719V18.8281H2.7832C1.86243 18.8281 1.11328 18.0396 1.11328 17.0703V2.92969Z" fill="#4C6DB6"/>
</svg>
