<svg width="19" height="19" viewBox="0 0 19 19" fill="none" xmlns="http://www.w3.org/2000/svg">
<path d="M4.03028 8.53979C4.26374 8.53979 4.45306 8.35052 4.45306 8.11702V6.28508C4.45306 6.05162 4.26379 5.8623 4.03028 5.8623H0.422772C0.189317 5.8623 0 6.05157 0 6.28508V18.4604C0 18.6939 0.189264 18.8832 0.422772 18.8832H4.03028C4.26374 18.8832 4.45306 18.694 4.45306 18.4604V8.11702C4.45306 7.88356 4.26384 7.69424 4.03034 7.69424C3.79683 7.69424 3.60756 7.88351 3.60756 8.11702L3.60751 18.0377H0.845544V6.70785H3.60756V8.11702C3.60756 8.35047 3.79683 8.53979 4.03028 8.53979Z" fill="#0E76A8"/>
<path d="M17.4592 7.02035C16.5986 6.28439 15.4841 5.8623 14.4013 5.8623C12.614 5.8623 11.4819 6.45651 10.7655 7.18863V6.28508C10.7655 6.05162 10.5763 5.8623 10.3428 5.8623H6.73527C6.50182 5.8623 6.3125 6.05157 6.3125 6.28508V18.4604C6.3125 18.6939 6.50176 18.8832 6.73527 18.8832H10.3428C10.5763 18.8832 10.7655 18.6939 10.7655 18.4604V12.5982C10.7655 11.4667 11.7165 10.7662 12.5975 10.7662C13.659 10.7662 14.4294 11.5367 14.4294 12.5982V18.4604C14.4294 18.6938 14.6186 18.8832 14.8522 18.8832H18.4597C18.6932 18.8832 18.8825 18.6939 18.8825 18.4604V9.89253C18.8825 8.8254 18.377 7.80535 17.4592 7.02035ZM18.0369 18.0376H15.2749V12.5982C15.2749 11.0717 14.1238 9.92074 12.5975 9.92074C11.3098 9.92074 9.92006 10.9444 9.92006 12.5982V18.0376H7.15804V6.70779H9.92006V8.53973C9.92006 8.73253 10.0557 8.90497 10.2431 8.95048C10.4361 8.99731 10.6412 8.89917 10.7256 8.71924C11.3516 7.38453 12.5883 6.70779 14.4013 6.70779C16.1176 6.70779 18.037 8.06982 18.037 9.89253V18.0376H18.0369Z" fill="#0E76A8"/>
<path d="M2.2265 0C0.998789 0 0 0.998843 0 2.2265C0 3.45416 0.998842 4.453 2.2265 4.453C3.45415 4.453 4.453 3.45416 4.453 2.2265C4.453 0.998843 3.45415 0 2.2265 0ZM2.2265 3.60756C1.46501 3.60756 0.84549 2.98804 0.84549 2.22655C0.84549 1.46507 1.46501 0.845544 2.2265 0.845544C2.98798 0.845544 3.60751 1.46507 3.60751 2.22655C3.60751 2.98804 2.98793 3.60756 2.2265 3.60756Z" fill="#0E76A8"/>
</svg>
