<svg width="32" height="32" viewBox="0 0 32 32" fill="none" xmlns="http://www.w3.org/2000/svg">
<path d="M16 1C7.72914 1 1 7.72914 1 16C1 24.2709 7.72914 31 16 31C18.8418 31 21.6085 30.2007 24.0008 28.6902L22.9992 27.1045C20.9072 28.4265 18.4866 29.1251 16 29.1251C8.7628 29.1251 2.87499 23.2373 2.87499 16.0001C2.87499 8.7628 8.76273 2.87499 16 2.87499C23.2373 2.87499 29.125 8.76273 29.125 16V16.9375C29.125 18.4884 27.8634 19.75 26.3125 19.75C24.7616 19.75 23.5 18.4884 23.5 16.9375V10.375H21.625V11.092C20.2491 9.51703 18.2506 8.50003 16 8.50003C11.8646 8.50003 8.50003 11.8646 8.50003 16C8.50003 20.1354 11.8646 23.5 16 23.5C18.8019 23.5 21.2207 21.9375 22.5081 19.6552C23.3594 20.8429 24.7432 21.625 26.3125 21.625C28.897 21.625 31 19.522 31 16.9375V15.9999C31 7.72914 24.2709 1 16 1ZM16 21.625C12.8982 21.625 10.375 19.1018 10.375 16C10.375 12.8982 12.8982 10.375 16 10.375C19.1018 10.375 21.625 12.8982 21.625 16C21.625 19.1018 19.1018 21.625 16 21.625Z" fill="#FC2C38" stroke="#FF1E1E"/>
</svg>
