<svg width="15" height="15" viewBox="0 0 15 15" fill="none" xmlns="http://www.w3.org/2000/svg">
<path d="M15 0H0V15H15V0Z" fill="white" fill-opacity="0.01"/>
<path d="M7.5 13.75C7.5 13.75 12.1875 10 12.1875 5.9375C12.1875 3.34866 10.0888 1.25 7.5 1.25C4.91116 1.25 2.8125 3.34866 2.8125 5.9375C2.8125 10 7.5 13.75 7.5 13.75Z" stroke="#111111" stroke-width="0.6" stroke-linejoin="round"/>
<path d="M7.5 7.8125C8.53553 7.8125 9.375 6.97303 9.375 5.9375C9.375 4.90197 8.53553 4.0625 7.5 4.0625C6.46447 4.0625 5.625 4.90197 5.625 5.9375C5.625 6.97303 6.46447 7.8125 7.5 7.8125Z" stroke="#111111" stroke-width="0.6" stroke-linejoin="round"/>
</svg>
