<svg width="9" height="9" viewBox="0 0 9 9" fill="none" xmlns="http://www.w3.org/2000/svg">
<path fill-rule="evenodd" clip-rule="evenodd" d="M0.353554 0.646522C0.548816 0.45126 0.865399 0.45126 1.06066 0.646522L7.42462 7.01048C7.61988 7.20575 7.61988 7.52233 7.42462 7.71759C7.22936 7.91285 6.91278 7.91285 6.71752 7.71759L0.353554 1.35363C0.158292 1.15837 0.158292 0.841784 0.353554 0.646522Z" fill="#ACA9A9"/>
<path fill-rule="evenodd" clip-rule="evenodd" d="M0.646446 7.64652C0.451184 7.45126 0.451184 7.13468 0.646446 6.93942L7.01041 0.575454C7.20567 0.380192 7.52225 0.380192 7.71751 0.575454C7.91278 0.770717 7.91278 1.0873 7.71751 1.28256L1.35355 7.64652C1.15829 7.84178 0.841708 7.84178 0.646446 7.64652Z" fill="#ACA9A9"/>
</svg>
