<svg width="14" height="21" viewBox="0 0 14 21" fill="none" xmlns="http://www.w3.org/2000/svg">
<path d="M6.6875 0C3.79212 0 1.4375 2.35462 1.4375 5.25C1.4375 8.14538 3.79212 10.5 6.6875 10.5C9.58287 10.5 11.9375 8.14538 11.9375 5.25C11.9375 2.35462 9.58287 0 6.6875 0ZM6.6875 9.1875C4.51662 9.1875 2.75 7.42088 2.75 5.25C2.75 3.07912 4.51662 1.3125 6.6875 1.3125C8.85837 1.3125 10.625 3.07912 10.625 5.25C10.625 7.42088 8.85837 9.1875 6.6875 9.1875Z" fill="#ACA9A9"/>
<path d="M11.8186 19.9659L7.2249 13.4034C6.98077 13.0543 6.39671 13.0543 6.14996 13.4034L1.55621 19.9659C1.34883 20.2626 1.41971 20.6721 1.71765 20.8794C2.01427 21.0881 2.42377 21.0159 2.63115 20.7193L6.68677 14.9246L10.7437 20.7193C10.871 20.9018 11.0745 20.9989 11.2805 20.9989C11.4118 20.9989 11.5417 20.9608 11.6585 20.8794C11.9551 20.6721 12.0273 20.2639 11.8186 19.9659Z" fill="#ACA9A9"/>
<path d="M13.1844 10.8209C12.9284 10.5649 12.5124 10.5649 12.2564 10.8209C9.18389 13.8921 4.18983 13.8921 1.11989 10.8209C0.863953 10.5649 0.44789 10.5649 0.191953 10.8209C-0.0639844 11.0768 -0.0639844 11.4929 0.191953 11.7488C1.98352 13.5391 4.33683 14.4355 6.68883 14.4355C9.04082 14.4355 11.3941 13.5391 13.1844 11.7488C13.4403 11.4929 13.4403 11.0768 13.1844 10.8209Z" fill="#ACA9A9"/>
</svg>
