<svg width="12" height="13" viewBox="0 0 12 13" fill="none" xmlns="http://www.w3.org/2000/svg">
<path d="M9.75 8.5C9.30469 8.5 8.89375 8.65625 8.57187 8.91719L5.33437 6.575C5.38859 6.27745 5.38859 5.97255 5.33437 5.675L8.57187 3.33281C8.89375 3.59375 9.30469 3.75 9.75 3.75C10.7844 3.75 11.625 2.90937 11.625 1.875C11.625 0.840625 10.7844 0 9.75 0C8.71562 0 7.875 0.840625 7.875 1.875C7.875 2.05625 7.9 2.22969 7.94844 2.39531L4.87344 4.62187C4.41719 4.01719 3.69219 3.625 2.875 3.625C1.49375 3.625 0.375 4.74375 0.375 6.125C0.375 7.50625 1.49375 8.625 2.875 8.625C3.69219 8.625 4.41719 8.23281 4.87344 7.62813L7.94844 9.85469C7.9 10.0203 7.875 10.1953 7.875 10.375C7.875 11.4094 8.71562 12.25 9.75 12.25C10.7844 12.25 11.625 11.4094 11.625 10.375C11.625 9.34062 10.7844 8.5 9.75 8.5ZM9.75 1.0625C10.1984 1.0625 10.5625 1.42656 10.5625 1.875C10.5625 2.32344 10.1984 2.6875 9.75 2.6875C9.30156 2.6875 8.9375 2.32344 8.9375 1.875C8.9375 1.42656 9.30156 1.0625 9.75 1.0625ZM2.875 7.5C2.11719 7.5 1.5 6.88281 1.5 6.125C1.5 5.36719 2.11719 4.75 2.875 4.75C3.63281 4.75 4.25 5.36719 4.25 6.125C4.25 6.88281 3.63281 7.5 2.875 7.5ZM9.75 11.1875C9.30156 11.1875 8.9375 10.8234 8.9375 10.375C8.9375 9.92656 9.30156 9.5625 9.75 9.5625C10.1984 9.5625 10.5625 9.92656 10.5625 10.375C10.5625 10.8234 10.1984 11.1875 9.75 11.1875Z" fill="#5A5A5A"/>
</svg>
