<svg width="20" height="20" viewBox="0 0 20 20" fill="none" xmlns="http://www.w3.org/2000/svg">
<path d="M10 20C15.5228 20 20 15.5228 20 10C20 4.47715 15.5228 0 10 0C4.47715 0 0 4.47715 0 10C0 15.5228 4.47715 20 10 20Z" fill="#FFCC5B"/>
<path d="M9.99783 17.1388C6.06157 17.1388 2.85962 13.936 2.85962 10.0006C2.85962 6.06524 6.06157 2.86328 9.99783 2.86328C13.9341 2.86328 17.136 6.06609 17.136 10.0015C17.136 13.9369 13.9341 17.1388 9.99783 17.1388Z" fill="#FFDB70"/>
<path d="M11.6709 13.5625H9.45182V9.2793C9.45182 8.75911 9.46289 8.2832 9.48503 7.85156C9.34852 8.01758 9.17882 8.19097 8.97591 8.37174L8.05729 9.12988L6.92285 7.73535L9.70085 5.472H11.6709V13.5625Z" fill="#EC9922"/>
</svg>
