<svg width="100" height="100" viewBox="0 0 100 100" fill="none" xmlns="http://www.w3.org/2000/svg">
<path d="M50 100C77.6143 100 100 77.6142 100 50C100 22.3858 77.6143 0 50 0C22.3858 0 0 22.3858 0 50C0 77.6142 22.3858 100 50 100Z" fill="#D6A975"/>
<path d="M50.006 85.6844C30.3247 85.6844 14.3149 69.6704 14.3149 49.9934C14.3149 30.3164 30.3247 14.3066 50.006 14.3066C69.6872 14.3066 85.697 30.3207 85.697 49.9977C85.697 69.6747 69.6872 85.6844 50.006 85.6844Z" fill="#8A521E"/>
<path d="M63.0226 37.6517C63.0226 40.1604 62.2571 42.3186 60.7261 44.1263C59.195 45.9156 56.9815 47.216 54.0855 48.0277V48.1937C60.8368 49.0422 64.2124 52.2334 64.2124 57.7673C64.2124 61.5303 62.7183 64.4909 59.73 66.6491C56.7601 68.8073 52.6282 69.8864 47.3341 69.8864C45.1575 69.8864 43.1376 69.7296 41.2746 69.416C39.43 69.1024 37.4285 68.5306 35.2703 67.7005V58.625C37.0412 59.5289 38.8397 60.2021 40.6659 60.6449C42.5105 61.0691 44.2075 61.2812 45.757 61.2812C48.155 61.2812 49.8982 60.9492 50.9865 60.2852C52.0933 59.6026 52.6466 58.542 52.6466 57.1032C52.6466 55.9964 52.3607 55.1479 51.7889 54.5576C51.2171 53.9489 50.2948 53.497 49.022 53.2018C47.7492 52.8882 46.089 52.7314 44.0415 52.7314H41.5513V44.5137H44.0968C49.6491 44.5137 52.4253 43.0933 52.4253 40.2526C52.4253 39.1827 52.0103 38.3895 51.1802 37.873C50.3685 37.3566 49.271 37.0983 47.8875 37.0983C45.3051 37.0983 42.6304 37.9653 39.8634 39.6992L35.3257 32.3945C37.4654 30.9188 39.6513 29.8674 41.8833 29.2402C44.1337 28.6131 46.707 28.2995 49.603 28.2995C53.7903 28.2995 57.0737 29.1296 59.4533 30.7897C61.8328 32.4499 63.0226 34.7372 63.0226 37.6517Z" fill="#EC8322"/>
</svg>
