<svg width="25" height="25" viewBox="0 0 25 25" fill="none" xmlns="http://www.w3.org/2000/svg">
<g clip-path="url(#clip0)">
<path d="M11.6666 21.6673C11.8967 21.6673 12.0832 21.4808 12.0832 21.2506C12.0832 21.0205 11.8967 20.834 11.6666 20.834C11.4365 20.834 11.2499 21.0205 11.2499 21.2506C11.2499 21.4808 11.4365 21.6673 11.6666 21.6673Z" fill="#111111"/>
<path d="M11.6666 23.3333C11.8967 23.3333 12.0832 23.1468 12.0832 22.9167C12.0832 22.6865 11.8967 22.5 11.6666 22.5C11.4365 22.5 11.2499 22.6865 11.2499 22.9167C11.2499 23.1468 11.4365 23.3333 11.6666 23.3333Z" fill="#111111"/>
<path d="M2.91715 22.5002H2.08381C1.85369 22.5002 1.66714 22.6867 1.66714 22.9168C1.66714 23.147 1.85369 23.3335 2.08381 23.3335H2.91715C3.14727 23.3335 3.33381 23.147 3.33381 22.9168C3.33381 22.6867 3.14727 22.5002 2.91715 22.5002Z" fill="#111111"/>
<path d="M17.0845 22.5002C16.8544 22.5002 16.6679 22.6867 16.6679 22.9168C16.6679 23.147 16.8544 23.3335 17.0845 23.3335H17.9179C18.148 23.3335 18.3345 23.147 18.3345 22.9168C18.3345 22.6867 18.148 22.5002 17.9179 22.5002H17.0845Z" fill="#111111"/>
<path d="M22.5895 9.59949L20.6137 8.28324C20.6 8.0258 20.5064 7.77905 20.3457 7.5774C18.957 5.8424 19.0391 5.89199 18.8299 5.8499C18.7082 5.8249 19.262 5.83365 15.4166 5.83365V4.96824C15.4242 4.51328 15.6722 4.09638 16.0682 3.8724C16.7394 3.47527 17.1326 2.73655 17.0871 1.95803C17.0416 1.1795 16.5652 0.491555 15.8524 0.175216C15.1396 -0.141123 14.3098 -0.0328758 13.702 0.455738C13.205 0.849732 12.9157 1.44947 12.9166 2.08365C12.9166 2.31377 13.1031 2.50032 13.3332 2.50032C13.5634 2.50032 13.7499 2.31377 13.7499 2.08365C13.75 1.47932 14.1825 0.961621 14.7772 0.853928C15.3718 0.746235 15.9584 1.07939 16.1704 1.6453C16.3825 2.21121 16.1593 2.84778 15.6403 3.1574C14.9915 3.53059 14.5892 4.21978 14.5832 4.96824V5.83365H10.4166V4.96824C10.4242 4.51328 10.6722 4.09638 11.0682 3.8724C11.9329 3.35596 12.3043 2.29496 11.9505 1.35203C11.5967 0.409091 10.6191 -0.145773 9.62812 0.0339552C8.63718 0.213684 7.91667 1.07654 7.91658 2.08365C7.91658 2.31377 8.10313 2.50032 8.33325 2.50032C8.56336 2.50032 8.74991 2.31377 8.74991 2.08365C8.75004 1.47932 9.1825 0.961621 9.77716 0.853928C10.3718 0.746235 10.9584 1.07939 11.1704 1.6453C11.3825 2.21121 11.1593 2.84778 10.6403 3.1574C9.99152 3.53059 9.58919 4.21978 9.58325 4.96824V5.83365C5.76158 5.83365 6.27741 5.82782 6.16908 5.8499C5.96408 5.89157 6.03033 5.85782 4.65491 7.57699C4.49473 7.77888 4.40112 8.02549 4.387 8.28282L2.41033 9.59949C0.902841 10.6025 -0.00211763 12.2938 -8.81464e-05 14.1045V23.3337C-8.81464e-05 24.2541 0.746104 25.0003 1.66658 25.0003H23.3332C24.2537 25.0003 24.9999 24.2541 24.9999 23.3337V14.1045C25.0019 12.2938 24.097 10.6025 22.5895 9.59949ZM19.6957 8.09949C19.8109 8.24626 19.8145 8.45171 19.7045 8.60241L18.4516 10.3262C17.9021 9.79797 17.2902 9.33875 16.6295 8.95866L18.7153 6.87532L19.6957 8.09949ZM17.7441 6.66699L15.9224 8.48866L15.6128 8.28282C15.5832 7.77782 15.3849 7.62532 14.617 6.66699H17.7441ZM14.6941 8.09741C14.8114 8.244 14.8162 8.45097 14.7057 8.60282C12.3062 11.9016 15.6641 7.28324 12.0862 12.2045L10.5445 10.0453L13.7153 6.87532L14.6941 8.09741ZM13.5107 11.6624L14.0978 12.1341C14.2738 12.2776 14.3042 12.5347 14.1666 12.7153L10.4166 17.5328V11.3003L11.4082 12.6887C11.5639 12.9066 11.8149 13.0365 12.0828 13.0377C12.3507 13.0388 12.6028 12.9111 12.7603 12.6945L13.5107 11.6624ZM5.30575 8.09741L6.2845 6.87532L9.45575 10.0466L7.91408 12.2057L5.29491 8.60407C5.1836 8.45215 5.18804 8.24444 5.30575 8.09741ZM9.58325 24.167H4.99991V15.8337C4.99991 15.6035 4.81336 15.417 4.58325 15.417C4.35313 15.417 4.16658 15.6035 4.16658 15.8337V24.167H1.66658C1.20634 24.167 0.833245 23.7939 0.833245 23.3337V14.1045C0.831365 12.5717 1.59805 11.14 2.87491 10.292L4.63991 9.11616L5.99991 10.9878L5.38283 11.4832C4.85343 11.9129 4.76219 12.6859 5.177 13.227L9.58325 18.8891V24.167ZM9.58325 17.5328L5.83325 12.717C5.69437 12.5361 5.72466 12.2775 5.90158 12.1337L6.48825 11.6624L7.23825 12.6945C7.39581 12.9111 7.64791 13.0388 7.91578 13.0377C8.18366 13.0365 8.43464 12.9066 8.59033 12.6887L9.58325 11.3003V17.5328ZM7.25575 6.66699H12.7441L9.99991 9.41116L7.25575 6.66699ZM19.1666 23.3337C19.1666 23.7939 18.7935 24.167 18.3332 24.167H15.8332V15.8337C15.8332 15.6035 15.6467 15.417 15.4166 15.417C15.1865 15.417 14.9999 15.6035 14.9999 15.8337V24.167H10.4166V18.8895L14.8257 13.2253C15.2391 12.684 15.1467 11.9122 14.6174 11.4837L13.9999 10.9878L15.3603 9.11741L17.127 10.292C18.4029 11.1406 19.1687 12.5721 19.1666 14.1045V23.3337ZM24.1666 23.3337C24.1666 23.7939 23.7935 24.167 23.3332 24.167H19.7682C19.9182 23.9148 19.9982 23.6271 19.9999 23.3337V14.1045C20.0003 12.9851 19.6533 11.8932 19.0066 10.9795L20.3603 9.11782L22.127 10.2945C23.4022 11.1427 24.1679 12.573 24.1666 14.1045V23.3337Z" fill="#111111"/>
<path d="M22.0806 22.5C21.8505 22.5 21.664 22.6865 21.664 22.9167C21.664 23.1468 21.8505 23.3333 22.0806 23.3333H22.914C23.1441 23.3333 23.3306 23.1468 23.3306 22.9167C23.3306 22.6865 23.1441 22.5 22.914 22.5H22.0806Z" fill="#111111"/>
</g>
<defs>
<clipPath id="clip0">
<rect width="25" height="25" fill="white"/>
</clipPath>
</defs>
</svg>
