<svg width="25" height="25" viewBox="0 0 25 25" fill="none" xmlns="http://www.w3.org/2000/svg">
<g clip-path="url(#clip0)">
<path d="M0.060952 18.7595C0.129268 18.8724 0.247048 18.9463 0.378452 18.9587C0.422619 18.9628 4.8122 19.4087 7.15262 22.9403C7.2301 23.0562 7.36035 23.1256 7.4997 23.1253H14.583C14.583 23.5856 14.9561 23.9587 15.4164 23.9587H16.6664C17.1266 23.9587 17.4997 23.5856 17.4997 23.1253H24.583C24.7214 23.1254 24.8508 23.0568 24.9284 22.9423C25.006 22.8277 25.0216 22.6821 24.9701 22.5537L17.4997 3.87824V2.50033C17.4997 1.69491 16.8468 1.04199 16.0414 1.04199C15.236 1.04199 14.583 1.69491 14.583 2.50033V3.70408C12.2497 4.87572 9.69215 5.53316 7.08304 5.63199V4.37533C7.07962 3.68639 6.52197 3.12874 5.83304 3.12533C5.14268 3.12533 4.58304 3.68497 4.58304 4.37533V7.00283L0.0292853 18.387C-0.019048 18.5093 -0.00732865 18.6471 0.060952 18.7595ZM17.4997 20.9337L21.8505 22.292H17.4997V20.9337ZM23.871 22.0495L17.4997 20.0607V6.12241L23.871 22.0495ZM15.4164 2.50033C15.4164 2.15515 15.6962 1.87533 16.0414 1.87533C16.3865 1.87533 16.6664 2.15515 16.6664 2.50033V23.1253H15.4164V2.50033ZM8.11512 22.292L9.6422 18.4749L14.583 20.0191V22.292H8.11512ZM14.583 19.1462L9.95262 17.6991L14.583 6.12241V19.1462ZM5.83304 3.95866C5.9453 3.9583 6.05271 4.00445 6.1297 4.08616C6.20745 4.16216 6.2508 4.26661 6.2497 4.37533V5.65074C6.15804 5.65074 6.06929 5.65074 5.99054 5.65074C5.79167 5.64774 5.59491 5.69186 5.41637 5.77949V4.37533C5.41637 4.14521 5.60292 3.95866 5.83304 3.95866ZM5.58304 6.74408C5.6429 6.58123 5.80092 6.47555 5.97429 6.48241C8.80625 6.52558 11.6144 5.95901 14.208 4.82116L7.39304 21.8537C5.29887 19.2187 2.23929 18.4262 0.999702 18.2053L5.58304 6.74408Z" fill="#111111"/>
<path d="M12.1214 7.35033C12.2647 7.31006 12.3757 7.19637 12.4125 7.05209C12.4493 6.90781 12.4064 6.75486 12.2998 6.65084C12.1933 6.54683 12.0393 6.50756 11.896 6.54783C10.1474 7.03218 8.34395 7.2904 6.52972 7.31616C6.36146 7.31839 6.21106 7.42162 6.14847 7.57783L5.45847 9.30741C5.40317 9.44563 5.42581 9.60285 5.51786 9.71986C5.6099 9.83686 5.75738 9.89586 5.90473 9.87465C6.05208 9.85343 6.17692 9.75522 6.23222 9.617L6.82139 8.14366C8.61372 8.09541 10.3935 7.82901 12.1214 7.35033Z" fill="#111111"/>
</g>
<defs>
<clipPath id="clip0">
<rect width="25" height="25" fill="white"/>
</clipPath>
</defs>
</svg>
