<svg width="19" height="12" viewBox="0 0 19 12" fill="none" xmlns="http://www.w3.org/2000/svg">
<path d="M9.61469 12C12.3633 12 11.3833 10.2416 11.5954 9.736C11.5922 9.3584 11.5891 8.9952 11.6017 8.7744C11.7759 8.824 12.1868 9.0344 13.0354 9.868C14.3456 11.204 14.6805 12 15.739 12H17.6872C18.3047 12 18.6261 11.7416 18.7868 11.5248C18.942 11.3152 19.094 10.9472 18.9278 10.3744C18.4931 8.9952 15.9582 6.6136 15.8007 6.3624C15.8245 6.316 15.8625 6.2544 15.8822 6.2224H15.8807C16.381 5.5544 18.2905 2.6632 18.5715 1.5064C18.5723 1.5048 18.5731 1.5024 18.5731 1.5C18.7251 0.972 18.5858 0.6296 18.4417 0.436C18.2248 0.1464 17.8796 0 17.4133 0H15.465C14.8127 0 14.3179 0.332 14.0678 0.9376C13.649 2.0136 12.4726 4.2264 11.5907 5.0096C11.5637 3.9 11.582 3.0528 11.5962 2.4232C11.6247 1.1952 11.7165 0 10.4554 0H7.39329C6.60322 0 5.84719 0.872 6.66576 1.9072C7.38142 2.8144 6.92305 3.32 7.07742 5.8368C6.47576 5.1848 5.40544 3.424 4.64862 1.1736C4.43645 0.5648 4.11504 0.000799942 3.21017 0.000799942H1.2619C0.471828 0.000799942 0 0.436 0 1.1648C0 2.8016 3.58542 12 9.61469 12ZM3.21017 1.2008C3.38196 1.2008 3.39938 1.2008 3.52684 1.5664C4.30187 3.8728 6.04035 7.2856 7.31017 7.2856C8.26412 7.2856 8.26412 6.2976 8.26412 5.9256L8.26333 2.964C8.21108 1.984 7.858 1.496 7.62604 1.2L10.4032 1.2032C10.4048 1.2168 10.3873 4.4792 10.4111 5.2696C10.4111 6.392 11.293 7.0352 12.6697 5.6272C14.1224 3.9704 15.127 1.4936 15.1674 1.3928C15.2268 1.2488 15.2782 1.2 15.465 1.2H17.4133H17.4212C17.4204 1.2024 17.4204 1.2048 17.4196 1.2072C17.2415 2.0472 15.4832 4.724 14.895 5.5552C14.8855 5.568 14.8768 5.5816 14.8681 5.5952C14.6093 6.0224 14.3987 6.4944 14.9038 7.1584H14.9045C14.9505 7.2144 15.07 7.3456 15.2442 7.528C15.7857 8.0928 17.6429 10.024 17.8076 10.792C17.6983 10.8096 17.5796 10.7968 15.739 10.8008C15.3471 10.8008 15.0407 10.2088 13.8714 9.0168C12.8201 7.9832 12.1377 7.5608 11.5162 7.5608C10.3098 7.5608 10.3976 8.5504 10.4087 9.7472C10.4127 11.0448 10.4048 10.6344 10.4135 10.716C10.343 10.744 10.1411 10.8 9.61469 10.8C4.59162 10.8 1.32049 2.7432 1.19461 1.2032C1.23815 1.1992 1.83744 1.2016 3.21017 1.2008Z" fill="#6695BD"/>
</svg>
