<svg width="168" height="35" viewBox="0 0 168 35" fill="none" xmlns="http://www.w3.org/2000/svg">
<path d="M14.4481 34.6285C12.8444 34.6285 12.0425 33.7904 12.0425 32.1141V4.97157H2.23304C0.84526 4.97157 0.151367 4.27567 0.151367 2.88368C0.151367 1.52389 0.84526 0.843994 2.23304 0.843994H26.6153C28.034 0.843994 28.7429 1.52389 28.7439 2.88368C28.7439 4.27629 28.034 4.97228 26.6153 4.97157H16.8078V32.1141C16.8078 33.7911 16.0209 34.6293 14.4481 34.6285Z" fill="white"/>
<path d="M46.4976 34.2962C45.2978 34.2962 44.542 33.8139 44.23 32.8492C43.9181 31.8847 44.196 30.801 45.0629 29.5985L62.3661 4.97155H46.1307C44.6799 4.97155 43.9551 4.27566 43.9561 2.88367C43.9561 1.52389 44.6809 0.843994 46.1307 0.843994H65.7895C67.0233 0.843994 67.7942 1.31848 68.1031 2.26736C68.4121 3.21634 68.1341 4.30776 67.2703 5.54172L49.9211 30.1686H66.8533C68.3031 30.1686 69.028 30.8485 69.028 32.2083C69.028 33.6009 68.3031 34.2969 66.8533 34.2962H46.4976Z" fill="white"/>
<path d="M76.4154 34.6287C75.4895 34.6287 74.8496 34.321 74.4947 33.7057C74.1397 33.0905 74.1637 32.3385 74.5647 31.4497L87.1018 2.59871C87.4097 1.87195 87.7957 1.34249 88.2586 1.01023C88.7345 0.673876 89.3004 0.499441 89.8784 0.511849C90.4323 0.511644 90.9732 0.685669 91.4281 1.01023C91.9061 1.34249 92.299 1.87195 92.6079 2.59871L105.146 31.4497C105.546 32.3672 105.584 33.1263 105.261 33.7273C104.938 34.3282 104.329 34.6287 103.434 34.6287C102.754 34.6287 102.215 34.4547 101.815 34.1067C101.415 33.7588 101.06 33.221 100.751 32.4936L98.0671 26.1356H81.5506L78.913 32.4936C78.6051 33.2525 78.2661 33.7995 77.8952 34.1344C77.5242 34.4694 77.0313 34.6356 76.4154 34.6328V34.6287ZM89.7854 6.30481L83.2624 22.1496H96.4484L89.8784 6.30071L89.7854 6.30481Z" fill="white"/>
<path d="M113.1 34.6285C111.496 34.6285 110.694 33.7904 110.694 32.1141V3.35848C110.694 1.68151 111.511 0.843379 113.146 0.843994H124.203C127.72 0.843994 130.433 1.70581 132.346 3.42924C134.259 5.15277 135.215 7.56501 135.215 10.6661C135.215 13.1649 134.567 15.2131 133.271 16.8108C131.975 18.4085 130.14 19.4764 127.766 20.0144C129.246 20.5196 130.495 21.7372 131.513 23.6672L135.491 31.2557C135.954 32.1097 136.047 32.8846 135.769 33.5805C135.491 34.2765 134.859 34.6244 133.87 34.6244C133.191 34.6244 132.636 34.4819 132.204 34.1968C131.772 33.9117 131.402 33.4533 131.094 32.8216L126.239 23.621C125.591 22.3904 124.843 21.5602 123.995 21.1301C123.147 20.7001 122.061 20.4865 120.734 20.4892H115.506V32.1151C115.506 33.7922 114.704 34.6303 113.1 34.6296V34.6285ZM115.506 16.7862H123.412C128.163 16.7862 130.537 14.7772 130.537 10.7594C130.537 6.77437 128.163 4.78154 123.412 4.78083H115.502L115.506 16.7862Z" fill="white"/>
<path d="M154.563 34.7237C150.215 34.7237 146.892 33.5451 144.594 31.1878C142.296 28.8306 141.147 25.3747 141.147 20.8202V2.97683C141.147 1.33196 141.949 0.509521 143.553 0.509521C145.157 0.509521 145.959 1.33196 145.959 2.97683V20.7238C145.959 27.2082 148.827 30.4505 154.563 30.4505C160.3 30.4505 163.168 27.2082 163.169 20.7238V2.97888C163.169 1.33401 163.956 0.511573 165.529 0.511573C167.101 0.511573 167.888 1.33401 167.888 2.97888V20.8223C167.888 25.3775 166.762 28.8333 164.511 31.1899C162.259 33.5464 158.944 34.725 154.563 34.7257" fill="white"/>
<path d="M38.72 3.27951C38.72 3.32463 38.72 3.37078 38.72 3.41693C38.72 3.46307 38.713 3.51948 38.708 3.5646C38.703 3.60972 38.698 3.64458 38.693 3.68253C38.68 3.75431 38.665 3.82302 38.648 3.88762C38.638 3.92352 38.628 3.95941 38.618 3.99017C38.607 4.03088 38.594 4.07098 38.578 4.11015C38.568 4.14522 38.556 4.17958 38.5411 4.2127C38.4971 4.32294 38.4441 4.42949 38.3841 4.53163C38.3811 4.53819 38.3781 4.54444 38.3741 4.55008C38.3521 4.58495 38.3291 4.62084 38.3041 4.65263C38.2791 4.68442 38.2421 4.7398 38.2041 4.78082C38.1661 4.82184 38.1571 4.84132 38.1351 4.87003C38.1291 4.87003 38.1271 4.87721 38.1241 4.88029L38.0421 4.97156L38.0271 4.98694C38.0022 5.01514 37.9762 5.0418 37.9482 5.06693H37.9402C37.7972 5.20168 37.6382 5.31745 37.4673 5.41149C37.3823 5.45958 37.2943 5.50142 37.2033 5.5366C37.1583 5.55505 37.1143 5.57249 37.0663 5.58787C37.0183 5.60325 36.9743 5.61556 36.9274 5.62889C36.8804 5.64222 36.8274 5.65145 36.7854 5.65966C36.7434 5.66786 36.7204 5.67196 36.6854 5.67709C36.6504 5.68222 36.6324 5.68529 36.6054 5.68734C36.5184 5.69708 36.4314 5.70232 36.3445 5.70273C36.2495 5.70273 36.1575 5.69555 36.0675 5.68734C36.0625 5.68837 36.0575 5.68837 36.0525 5.68734L35.9085 5.66376C35.7896 5.64079 35.6736 5.60859 35.5596 5.56736C35.4466 5.52624 35.3367 5.4765 35.2307 5.41867C35.2307 5.41867 35.2307 5.41867 35.2257 5.41867C35.0517 5.32289 34.8907 5.20537 34.7448 5.06898L34.7078 5.03308C34.6658 4.99412 34.6268 4.9531 34.5888 4.91003C34.5888 4.91003 34.5888 4.91003 34.5888 4.9049C34.5668 4.87926 34.5418 4.85363 34.5188 4.82594L34.5118 4.81568C34.4698 4.75928 34.4298 4.70288 34.3918 4.64443C34.3868 4.64012 34.3828 4.63489 34.3798 4.62905C34.3798 4.62905 34.3798 4.62905 34.3798 4.62392L34.3128 4.52137C34.3078 4.51112 34.3008 4.50086 34.2958 4.49061C34.2898 4.4781 34.2838 4.4661 34.2758 4.45471C34.2658 4.43215 34.2508 4.40857 34.2359 4.38088C34.2309 4.37062 34.2289 4.36037 34.2239 4.35217C34.2189 4.34396 34.2239 4.34704 34.2239 4.34499C34.2169 4.33514 34.2119 4.32396 34.2089 4.31217C34.1889 4.27115 34.1719 4.23219 34.1569 4.19629C34.1439 4.16871 34.1329 4.13979 34.1249 4.11015C34.1049 4.05683 34.0869 4.00761 34.0719 3.94915C34.0709 3.94505 34.0709 3.94095 34.0719 3.93685C34.0589 3.8907 34.0469 3.84148 34.0369 3.79533C34.0309 3.77369 34.0269 3.75185 34.0239 3.7297C34.0139 3.67842 34.0069 3.62715 34.0019 3.57383C33.9969 3.5205 33.9919 3.47128 33.9899 3.4159C33.9899 3.4159 33.9899 3.40565 33.9899 3.40052C33.9899 3.3595 33.9849 3.31848 33.9849 3.27541C33.9829 3.25152 33.9829 3.22752 33.9849 3.20363C33.9849 3.18004 33.9849 3.1544 33.9849 3.13492C33.9849 3.08365 33.9929 3.03237 33.9979 2.98417C34.0029 2.93598 34.0069 2.90419 34.0119 2.86624C34.0249 2.79241 34.0399 2.71857 34.0599 2.64679C34.0669 2.61603 34.0769 2.58321 34.0869 2.55245C34.0969 2.52168 34.1119 2.47041 34.1269 2.43246C34.1419 2.39452 34.1519 2.36376 34.1639 2.32992C34.2089 2.2205 34.2608 2.11457 34.3208 2.01304C34.3458 1.96997 34.3728 1.92895 34.4008 1.88793C34.4288 1.84692 34.4558 1.80897 34.4858 1.77103C34.5448 1.69412 34.6078 1.6208 34.6748 1.55158C34.6998 1.52286 34.7268 1.5003 34.7538 1.47467C34.8977 1.33561 35.0597 1.21788 35.2347 1.12498C35.2767 1.10139 35.3217 1.07883 35.3646 1.05832C35.4086 1.03648 35.4526 1.01699 35.4986 0.999867C35.6336 0.946234 35.7736 0.90501 35.9165 0.87681L36.0615 0.854249C36.1265 0.84707 36.1905 0.841944 36.2555 0.838867C36.2875 0.838867 36.3225 0.838867 36.3555 0.838867C36.5494 0.839175 36.7434 0.862965 36.9323 0.909624C36.9803 0.922955 37.0243 0.935262 37.0723 0.950644C37.1203 0.966027 37.1643 0.981409 37.2093 0.998842C37.2963 1.03422 37.3803 1.07421 37.4632 1.11882C37.4632 1.11882 37.4702 1.11882 37.4752 1.12395C37.6492 1.22014 37.8102 1.33787 37.9562 1.47467C37.9661 1.48697 37.9811 1.49723 37.9931 1.51261C38.0281 1.54337 38.0601 1.57926 38.0931 1.61516C38.1261 1.65105 38.1551 1.68181 38.1851 1.7177C38.2321 1.78128 38.2791 1.84794 38.3241 1.9146C38.3421 1.94228 38.3591 1.971 38.3791 2.00381C38.4001 2.03694 38.4191 2.07119 38.4361 2.10636C38.4491 2.12687 38.4591 2.14636 38.4711 2.16687C38.5041 2.2366 38.5311 2.2971 38.553 2.35145C38.561 2.36868 38.568 2.38652 38.573 2.40478L38.586 2.44067C38.606 2.49338 38.623 2.54711 38.638 2.60167C38.638 2.60577 38.638 2.60987 38.638 2.61397C38.652 2.66525 38.665 2.71652 38.675 2.76985C38.679 2.78564 38.683 2.80174 38.685 2.81805C38.695 2.86963 38.702 2.92162 38.707 2.97392C38.714 3.02663 38.718 3.07964 38.72 3.13287C38.721 3.13789 38.721 3.14312 38.72 3.14825C38.72 3.18825 38.72 3.22926 38.72 3.27541" fill="white"/>
<path d="M34.5249 34.2961H38.1593C38.3093 34.2961 38.4533 34.235 38.5592 34.1263C38.6642 34.0177 38.7242 33.8704 38.7242 33.7167V9.42608C38.7242 9.34999 38.7092 9.27472 38.6812 9.20437C38.6532 9.13412 38.6112 9.07023 38.5592 9.0164C38.5063 8.96256 38.4443 8.9199 38.3753 8.89078C38.3073 8.86165 38.2333 8.84668 38.1593 8.84668H34.5249C34.4509 8.84668 34.3769 8.86165 34.3089 8.89078C34.2399 8.9199 34.1779 8.96256 34.1249 9.0164C34.0729 9.07023 34.0309 9.13412 34.0029 9.20437C33.975 9.27472 33.96 9.34999 33.96 9.42608V33.7167C33.96 33.8704 34.0199 34.0177 34.1249 34.1263C34.2309 34.235 34.3749 34.2961 34.5249 34.2961Z" fill="white"/>
</svg>
