<svg width="245" height="71" viewBox="0 0 245 71" fill="none" xmlns="http://www.w3.org/2000/svg">
<path d="M68.5407 34.959C68.5407 48.0965 61.4442 60.0086 50.0258 66.0424C49.5471 66.2987 49.0151 66.4333 48.4748 66.4347C47.6295 66.4258 46.8168 66.1004 46.1904 65.5203C45.8482 65.2035 45.5755 64.8162 45.3905 64.3837C45.2055 63.9514 45.1123 63.4838 45.117 63.0118C45.113 62.386 45.2786 61.7713 45.5952 61.2357C45.9119 60.7002 46.3675 60.2647 46.9113 59.9776C51.4167 57.6239 55.197 54.0413 57.8334 49.6263C60.4698 45.2113 61.8595 40.1364 61.8485 34.9636C61.8485 19.4658 49.5132 6.85134 34.3515 6.85134C34.1297 6.85134 33.9043 6.85134 33.678 6.8614C18.8195 7.22719 6.78743 19.8947 6.85451 35.1008C6.87105 40.2453 8.27151 45.2861 10.9026 49.6714C13.5338 54.0566 17.2941 57.6174 21.772 59.9638C22.3183 60.2513 22.7761 60.6874 23.0952 61.2242C23.4142 61.7609 23.5819 62.3773 23.5797 63.0054C23.5797 65.1325 21.8454 66.4512 20.2345 66.4512C19.7153 66.4503 19.2039 66.3217 18.7435 66.0763C7.23018 60.0324 0.109513 48.0609 0.151552 34.8346C0.218636 15.8947 15.3347 0.26703 33.856 0C34.0188 0 34.1842 0 34.3461 0C53.2028 0 68.5407 15.6862 68.5407 34.9608" fill="white"/>
<path d="M68.5407 34.959C68.5407 48.0965 61.4442 60.0086 50.0258 66.0424C49.5471 66.2987 49.0151 66.4333 48.4748 66.4347C47.6295 66.4258 46.8168 66.1004 46.1904 65.5203C45.8482 65.2035 45.5755 64.8162 45.3905 64.3837C45.2055 63.9514 45.1123 63.4838 45.117 63.0118C45.113 62.386 45.2786 61.7713 45.5952 61.2357C45.9119 60.7002 46.3675 60.2647 46.9113 59.9776C51.4167 57.6239 55.197 54.0413 57.8334 49.6263C60.4698 45.2113 61.8595 40.1364 61.8485 34.9636C61.8485 19.4658 49.5132 6.85134 34.3515 6.85134C34.1297 6.85134 33.9043 6.85134 33.678 6.8614C18.8195 7.22719 6.78743 19.8947 6.85451 35.1008C6.87105 40.2453 8.27151 45.2861 10.9026 49.6714C13.5338 54.0566 17.2941 57.6174 21.772 59.9638C22.3183 60.2513 22.7761 60.6874 23.0952 61.2242C23.4142 61.7609 23.5819 62.3773 23.5797 63.0054C23.5797 65.1325 21.8454 66.4512 20.2345 66.4512C19.7153 66.4503 19.2039 66.3217 18.7435 66.0763C7.23018 60.0324 0.109513 48.0609 0.151552 34.8346C0.218636 15.8947 15.3347 0.26703 33.856 0C34.0188 0 34.1842 0 34.3461 0C53.2028 0 68.5407 15.6862 68.5407 34.9608" fill="white"/>
<path d="M37.947 66.4458C37.947 66.5157 37.947 66.5845 37.9393 66.6544C37.9316 66.7242 37.9278 66.8058 37.9201 66.8796C37.9124 66.9534 37.9057 66.9996 37.898 67.0576C37.8788 67.1668 37.8558 67.271 37.8299 67.3763L37.7847 67.5346C37.7655 67.6005 37.7463 67.6586 37.7243 67.7166C37.7093 67.7699 37.69 67.8219 37.6667 67.872C37.5988 68.0393 37.5192 68.2013 37.4286 68.3569C37.4249 68.3665 37.4197 68.3755 37.4133 68.3834C37.3797 68.4375 37.3451 68.4926 37.3077 68.5467C37.2619 68.6149 37.2125 68.6806 37.1598 68.7434C37.1262 68.7896 37.0878 68.8359 37.0542 68.8791C37.0466 68.8791 37.0427 68.8909 37.0389 68.8949L36.9141 69.0335L36.8911 69.0572C36.853 69.0993 36.8125 69.1394 36.7701 69.1771H36.7586C36.542 69.3822 36.3007 69.5581 36.0406 69.7004C35.9114 69.7732 35.7773 69.8366 35.6393 69.8902C35.5712 69.9178 35.503 69.9453 35.431 69.9679C35.3591 69.9905 35.2909 70.0112 35.2189 70.0299C35.1481 70.0493 35.0764 70.0651 35.0039 70.0771C34.954 70.0879 34.9079 70.0958 34.8561 70.1036C34.8042 70.1115 34.7764 70.1154 34.7351 70.1194C34.6031 70.134 34.4705 70.1419 34.3377 70.143C34.1937 70.143 34.0497 70.1312 33.9182 70.1194C33.9107 70.1212 33.9028 70.1212 33.8952 70.1194L33.6754 70.085C33.4957 70.0497 33.3189 70.0004 33.1465 69.9374C32.9746 69.8753 32.8073 69.7999 32.6464 69.7122C32.6464 69.7122 32.6464 69.7122 32.6396 69.7122C32.3752 69.5676 32.1297 69.3892 31.9092 69.1811L31.8525 69.127C31.7882 69.069 31.7316 69.007 31.6711 68.9411C31.6711 68.9411 31.6711 68.9411 31.6711 68.9332C31.6365 68.8949 31.5991 68.8555 31.5646 68.8132C31.5646 68.8132 31.5569 68.8014 31.553 68.7975C31.4887 68.7119 31.4282 68.6273 31.3716 68.5378C31.3641 68.5313 31.3579 68.5232 31.3534 68.5142C31.3534 68.5142 31.3534 68.5142 31.3534 68.5064L31.2507 68.3441C31.243 68.3283 31.2315 68.3126 31.2247 68.2979C31.216 68.2787 31.2057 68.2603 31.194 68.2428C31.1787 68.2084 31.1566 68.1739 31.1336 68.1307C31.1279 68.1162 31.1215 68.1021 31.1144 68.0884C31.1144 68.0884 31.1144 68.0805 31.1144 68.0766C31.1037 68.0615 31.0962 68.0445 31.0923 68.0264C31.0616 67.9644 31.0356 67.9064 31.0126 67.8513C30.9928 67.8088 30.9764 67.7648 30.9637 67.7195C30.9329 67.6389 30.907 67.5572 30.884 67.4756C30.8824 67.4691 30.8824 67.4624 30.884 67.4559C30.8648 67.3861 30.8465 67.3133 30.8312 67.2435C30.8227 67.2111 30.8163 67.1783 30.812 67.1451C30.7966 67.0674 30.7861 66.9868 30.7784 66.9091C30.7707 66.8314 30.763 66.7458 30.7592 66.6681C30.7592 66.6612 30.7592 66.6534 30.7592 66.6455C30.7592 66.5835 30.7515 66.5216 30.7515 66.4557C30.7496 66.4193 30.7496 66.3829 30.7515 66.3465C30.7495 66.3118 30.7495 66.277 30.7515 66.2423C30.7515 66.1646 30.763 66.0908 30.7707 66.0131C30.7784 65.9551 30.7851 65.8931 30.7928 65.8351C30.8113 65.7227 30.8354 65.6115 30.8648 65.5016C30.8763 65.4554 30.8917 65.4033 30.907 65.358C30.9238 65.2963 30.9441 65.2355 30.9675 65.1761C30.9857 65.122 31.0049 65.0718 31.0241 65.0207C31.0911 64.8546 31.1707 64.6941 31.2622 64.5407C31.2996 64.4748 31.3419 64.4129 31.3831 64.3509C31.4244 64.2889 31.4666 64.2299 31.5118 64.1719C31.6019 64.0555 31.698 63.9442 31.7997 63.8385C31.8372 63.7962 31.8794 63.7608 31.9207 63.7224C32.1383 63.5106 32.3842 63.3317 32.6512 63.1913C32.7145 63.1569 32.7827 63.1215 32.8431 63.0929C32.9036 63.0644 32.9795 63.031 33.0476 63.0034C33.2534 62.9215 33.4661 62.8593 33.6831 62.8176L33.9029 62.7821C33.9989 62.7703 34.0949 62.7635 34.1976 62.7595C34.2475 62.7595 34.3003 62.7595 34.3492 62.7595C34.6448 62.7603 34.9393 62.7966 35.2266 62.8677C35.2986 62.8874 35.3667 62.9061 35.4387 62.9297C35.5107 62.9533 35.5789 62.9759 35.647 63.0034C35.7785 63.0562 35.9067 63.1168 36.031 63.1854C36.0387 63.1854 36.0425 63.1854 36.0502 63.1933C36.3145 63.3378 36.5595 63.5164 36.7797 63.7244C36.7951 63.744 36.8181 63.7598 36.8364 63.7824C36.89 63.831 36.9407 63.8828 36.988 63.9378C37.037 63.988 37.084 64.0362 37.1282 64.0922C37.2002 64.1906 37.2721 64.2889 37.3403 64.3873C37.3662 64.4296 37.3931 64.4729 37.4229 64.523C37.4526 64.5732 37.4833 64.6214 37.5102 64.6784C37.5294 64.7089 37.5438 64.7404 37.563 64.7709C37.612 64.8761 37.659 64.9676 37.6878 65.0502C37.6997 65.0767 37.71 65.104 37.7185 65.1318L37.7367 65.1859C37.7677 65.2656 37.7943 65.347 37.8164 65.4298C37.8168 65.4364 37.8168 65.4429 37.8164 65.4495C37.8397 65.527 37.8586 65.6058 37.873 65.6856C37.8803 65.7097 37.8854 65.7343 37.8884 65.7593C37.904 65.8376 37.9155 65.9168 37.923 65.9964C37.9335 66.0731 37.9374 66.1547 37.9412 66.2364C37.943 66.2441 37.943 66.2522 37.9412 66.26C37.9412 66.3219 37.9489 66.3839 37.9489 66.4567" fill="white"/>
<path d="M52.345 27.4925C52.3438 28.4195 51.9878 29.3081 51.3551 29.9636C50.7222 30.619 49.8644 30.9878 48.9695 30.989H37.7226V54.2237C37.7226 55.8761 36.209 57.2217 34.348 57.2217C32.487 57.2217 30.9725 55.8761 30.9725 54.2237V30.989H19.8747C17.9643 30.989 16.3825 29.45 16.351 27.5549C16.3438 27.0906 16.4257 26.6296 16.592 26.1986C16.7583 25.7675 17.0058 25.375 17.3198 25.0438C17.6339 24.7126 18.0084 24.4494 18.4217 24.2696C18.8348 24.0897 19.2784 23.9967 19.7265 23.9961H48.9695C49.8644 23.9973 50.7222 24.3661 51.3551 25.0215C51.9878 25.677 52.3438 26.5656 52.345 27.4925Z" fill="white"/>
<path d="M91.4364 54.6285C89.8327 54.6285 89.0308 53.7904 89.0308 52.1141V24.9716H79.2213C77.8335 24.9716 77.1396 24.2757 77.1396 22.8837C77.1396 21.5239 77.8335 20.844 79.2213 20.844H103.604C105.022 20.844 105.731 21.5239 105.732 22.8837C105.732 24.2763 105.022 24.9723 103.604 24.9716H93.7961V52.1141C93.7961 53.7911 93.0092 54.6293 91.4364 54.6285Z" fill="white"/>
<path d="M123.486 54.2962C122.286 54.2962 121.53 53.8139 121.218 52.8492C120.906 51.8847 121.184 50.801 122.051 49.5985L139.354 24.9716H123.119C121.668 24.9716 120.943 24.2757 120.944 22.8837C120.944 21.5239 121.669 20.844 123.119 20.844H142.778C144.012 20.844 144.782 21.3185 145.091 22.2674C145.4 23.2163 145.122 24.3078 144.259 25.5417L126.909 50.1686H143.842C145.291 50.1686 146.016 50.8485 146.016 52.2083C146.016 53.6009 145.291 54.2969 143.842 54.2962H123.486Z" fill="white"/>
<path d="M153.4 54.6287C152.474 54.6287 151.834 54.321 151.479 53.7057C151.124 53.0905 151.148 52.3385 151.549 51.4497L164.086 22.5987C164.394 21.8719 164.78 21.3425 165.243 21.0102C165.719 20.6739 166.285 20.4994 166.863 20.5118C167.417 20.5116 167.958 20.6857 168.413 21.0102C168.89 21.3425 169.283 21.8719 169.592 22.5987L182.13 51.4497C182.53 52.3672 182.568 53.1263 182.245 53.7273C181.922 54.3282 181.314 54.6287 180.419 54.6287C179.739 54.6287 179.199 54.4547 178.799 54.1067C178.399 53.7588 178.044 53.221 177.735 52.4936L175.052 46.1356H158.535L155.897 52.4936C155.589 53.2525 155.25 53.7995 154.88 54.1344C154.509 54.4694 154.016 54.6356 153.4 54.6328V54.6287ZM166.77 26.3048L160.247 42.1496H173.433L166.863 26.3007L166.77 26.3048Z" fill="white"/>
<path d="M190.088 54.6285C188.484 54.6285 187.683 53.7904 187.683 52.1141V23.3585C187.683 21.6815 188.499 20.8434 190.134 20.844H201.192C204.708 20.844 207.422 21.7058 209.334 23.4292C211.247 25.1528 212.203 27.565 212.203 30.6661C212.203 33.1649 211.555 35.2131 210.259 36.8108C208.963 38.4085 207.129 39.4764 204.754 40.0144C206.235 40.5196 207.484 41.7372 208.501 43.6672L212.48 51.2557C212.943 52.1097 213.036 52.8846 212.758 53.5805C212.48 54.2765 211.847 54.6244 210.858 54.6244C210.179 54.6244 209.624 54.4819 209.192 54.1968C208.76 53.9117 208.39 53.4533 208.082 52.8216L203.227 43.621C202.579 42.3904 201.831 41.5602 200.984 41.1301C200.136 40.7001 199.049 40.4865 197.722 40.4892H192.494V52.1151C192.494 53.7922 191.692 54.6303 190.088 54.6296V54.6285ZM192.494 36.7862H200.401C205.151 36.7862 207.526 34.7772 207.526 30.7594C207.526 26.7744 205.151 24.7815 200.401 24.7808H192.49L192.494 36.7862Z" fill="white"/>
<path d="M231.553 54.7237C227.204 54.7237 223.881 53.5451 221.583 51.1878C219.286 48.8306 218.137 45.3747 218.137 40.8202V22.9768C218.137 21.332 218.939 20.5095 220.542 20.5095C222.146 20.5095 222.948 21.332 222.948 22.9768V40.7238C222.948 47.2082 225.817 50.4505 231.553 50.4505C237.289 50.4505 240.157 47.2082 240.158 40.7238V22.9789C240.158 21.334 240.945 20.5116 242.518 20.5116C244.091 20.5116 244.878 21.334 244.878 22.9789V40.8223C244.878 45.3775 243.752 48.8333 241.5 51.1899C239.248 53.5464 235.933 54.725 231.553 54.7257" fill="white"/>
<path d="M115.708 23.2795C115.708 23.3246 115.708 23.3708 115.708 23.4169C115.708 23.4631 115.701 23.5195 115.696 23.5646C115.691 23.6097 115.686 23.6446 115.681 23.6825C115.668 23.7543 115.653 23.823 115.636 23.8876C115.626 23.9235 115.616 23.9594 115.606 23.9902C115.595 24.0309 115.582 24.071 115.566 24.1102C115.556 24.1452 115.544 24.1796 115.529 24.2127C115.485 24.3229 115.432 24.4295 115.372 24.5316C115.369 24.5382 115.366 24.5444 115.362 24.5501C115.34 24.5849 115.317 24.6208 115.292 24.6526C115.267 24.6844 115.23 24.7398 115.192 24.7808C115.154 24.8218 115.145 24.8413 115.123 24.87C115.117 24.87 115.115 24.8772 115.112 24.8803L115.03 24.9716L115.015 24.9869C114.99 25.0151 114.964 25.0418 114.936 25.0669H114.928C114.785 25.2017 114.627 25.3175 114.456 25.4115C114.371 25.4596 114.283 25.5014 114.192 25.5366C114.147 25.5551 114.103 25.5725 114.055 25.5879C114.007 25.6033 113.963 25.6156 113.916 25.6289C113.869 25.6422 113.816 25.6515 113.774 25.6597C113.732 25.6679 113.709 25.672 113.674 25.6771C113.639 25.6822 113.621 25.6853 113.594 25.6873C113.507 25.6971 113.42 25.7023 113.333 25.7027C113.238 25.7027 113.146 25.6955 113.056 25.6873C113.051 25.6884 113.046 25.6884 113.041 25.6873L112.897 25.6638C112.778 25.6408 112.662 25.6086 112.548 25.5674C112.435 25.5262 112.325 25.4765 112.219 25.4187C112.219 25.4187 112.219 25.4187 112.214 25.4187C112.04 25.3229 111.879 25.2054 111.733 25.069L111.696 25.0331C111.654 24.9941 111.615 24.9531 111.577 24.91C111.577 24.91 111.577 24.91 111.577 24.9049C111.555 24.8793 111.53 24.8536 111.507 24.8259L111.5 24.8157C111.458 24.7593 111.418 24.7029 111.38 24.6444C111.375 24.6401 111.371 24.6349 111.368 24.629C111.368 24.629 111.368 24.629 111.368 24.6239L111.301 24.5214C111.296 24.5111 111.289 24.5009 111.284 24.4906C111.278 24.4781 111.272 24.4661 111.264 24.4547C111.254 24.4322 111.239 24.4086 111.224 24.3809C111.219 24.3706 111.217 24.3604 111.212 24.3522C111.207 24.344 111.212 24.347 111.212 24.345C111.205 24.3351 111.2 24.324 111.197 24.3122C111.177 24.2712 111.16 24.2322 111.145 24.1963C111.132 24.1687 111.121 24.1398 111.113 24.1102C111.093 24.0568 111.075 24.0076 111.06 23.9492C111.059 23.9451 111.059 23.9409 111.06 23.9368C111.047 23.8907 111.035 23.8415 111.025 23.7953C111.019 23.7737 111.015 23.7518 111.012 23.7297C111.002 23.6784 110.995 23.6272 110.99 23.5738C110.985 23.5205 110.98 23.4713 110.978 23.4159C110.978 23.4159 110.978 23.4056 110.978 23.4005C110.978 23.3595 110.973 23.3185 110.973 23.2754C110.971 23.2515 110.971 23.2275 110.973 23.2036C110.973 23.18 110.973 23.1544 110.973 23.1349C110.973 23.0836 110.981 23.0324 110.986 22.9842C110.991 22.936 110.995 22.9042 111 22.8662C111.013 22.7924 111.028 22.7186 111.048 22.6468C111.055 22.616 111.065 22.5832 111.075 22.5524C111.085 22.5217 111.1 22.4704 111.115 22.4325C111.13 22.3945 111.14 22.3638 111.152 22.3299C111.197 22.2205 111.249 22.1146 111.309 22.013C111.334 21.97 111.361 21.929 111.389 21.8879C111.417 21.8469 111.444 21.809 111.474 21.771C111.533 21.6941 111.596 21.6208 111.663 21.5516C111.688 21.5229 111.715 21.5003 111.742 21.4747C111.886 21.3356 112.048 21.2179 112.223 21.125C112.265 21.1014 112.31 21.0788 112.353 21.0583C112.397 21.0365 112.441 21.017 112.487 20.9999C112.622 20.9462 112.762 20.905 112.905 20.8768L113.05 20.8542C113.115 20.8471 113.179 20.8419 113.244 20.8389C113.276 20.8389 113.311 20.8389 113.344 20.8389C113.538 20.8392 113.732 20.863 113.921 20.9096C113.969 20.923 114.013 20.9353 114.061 20.9506C114.109 20.966 114.153 20.9814 114.198 20.9988C114.285 21.0342 114.369 21.0742 114.452 21.1188C114.452 21.1188 114.459 21.1188 114.464 21.124C114.637 21.2201 114.798 21.3379 114.944 21.4747C114.954 21.487 114.969 21.4972 114.981 21.5126C115.016 21.5434 115.048 21.5793 115.081 21.6152C115.114 21.651 115.143 21.6818 115.173 21.7177C115.22 21.7813 115.267 21.8479 115.312 21.9146C115.33 21.9423 115.347 21.971 115.367 22.0038C115.388 22.0369 115.407 22.0712 115.424 22.1064C115.437 22.1269 115.447 22.1464 115.459 22.1669C115.492 22.2366 115.519 22.2971 115.541 22.3515C115.549 22.3687 115.556 22.3865 115.561 22.4048L115.574 22.4407C115.594 22.4934 115.611 22.5471 115.626 22.6017C115.626 22.6058 115.626 22.6099 115.626 22.614C115.64 22.6652 115.653 22.7165 115.663 22.7698C115.667 22.7856 115.671 22.8017 115.673 22.818C115.683 22.8696 115.69 22.9216 115.695 22.9739C115.702 23.0266 115.706 23.0796 115.708 23.1329C115.709 23.1379 115.709 23.1431 115.708 23.1483C115.708 23.1882 115.708 23.2293 115.708 23.2754" fill="white"/>
<path d="M111.513 54.2961H115.148C115.298 54.2961 115.442 54.235 115.548 54.1263C115.653 54.0177 115.712 53.8704 115.712 53.7167V29.4261C115.712 29.35 115.698 29.2747 115.67 29.2044C115.642 29.1341 115.6 29.0702 115.548 29.0164C115.495 28.9626 115.433 28.9199 115.364 28.8908C115.296 28.8617 115.222 28.8467 115.148 28.8467H111.513C111.439 28.8467 111.365 28.8617 111.297 28.8908C111.228 28.9199 111.166 28.9626 111.113 29.0164C111.061 29.0702 111.019 29.1341 110.991 29.2044C110.963 29.2747 110.948 29.35 110.948 29.4261V53.7167C110.948 53.8704 111.008 54.0177 111.113 54.1263C111.219 54.235 111.363 54.2961 111.513 54.2961Z" fill="white"/>
</svg>
