<svg width="23" height="23" viewBox="0 0 23 23" fill="none" xmlns="http://www.w3.org/2000/svg">
<path d="M11.4633 0.71875C6.75547 0.71875 2.76641 3.7375 1.29297 7.90625H21.6336C20.1602 3.7375 16.1711 0.71875 11.4633 0.71875Z" fill="#3E4347"/>
<path d="M11.4633 22.2812C16.1711 22.2812 20.1602 19.2984 21.6336 15.0938H1.29297C2.76641 19.2984 6.75547 22.2812 11.4633 22.2812Z" fill="#FFE62E"/>
<path d="M1.29453 7.90625C0.899219 9.02031 0.683594 10.2422 0.683594 11.5C0.683594 12.7578 0.899219 13.9797 1.29453 15.0938H21.6352C22.0305 13.9797 22.2461 12.7578 22.2461 11.5C22.2461 10.2422 22.0305 9.02031 21.6352 7.90625H1.29453Z" fill="#ED4C5C"/>
</svg>
