<svg width="23" height="23" viewBox="0 0 23 23" fill="none" xmlns="http://www.w3.org/2000/svg">
<path d="M7.90762 21.6703V16.7109L4.20605 19.4422C5.24824 20.4125 6.50605 21.1672 7.90762 21.6703Z" fill="#2A5F9E"/>
<path d="M15.0938 21.6701C16.4953 21.167 17.7531 20.4123 18.7953 19.442L15.0938 16.6748V21.6701Z" fill="#2A5F9E"/>
<path d="M1.33105 15.0938C1.43887 15.4531 1.58262 15.7766 1.7623 16.1359L3.16387 15.0938H1.33105Z" fill="#2A5F9E"/>
<path d="M19.8389 15.0938L21.2404 16.1359C21.3842 15.8125 21.5279 15.4531 21.6717 15.0938H19.8389Z" fill="#2A5F9E"/>
<path d="M8.44453 13.6562H0.933594C1.04141 14.1594 1.18516 14.6266 1.32891 15.0937H3.16172L1.76016 16.1359C2.04766 16.7469 2.37109 17.2859 2.76641 17.825L6.46797 15.0937H7.90547V15.8125L3.70078 18.9031L4.20391 19.4062L7.90547 16.7109V21.6703C8.37266 21.85 8.83984 21.9578 9.34297 22.0656V13.6562H8.44453Z" fill="white"/>
<path d="M22.0656 13.6562H13.6562V22.0656C14.1594 21.9578 14.6266 21.8141 15.0938 21.6703V16.7109L18.7953 19.4062C19.2984 18.9391 19.7297 18.4359 20.1609 17.8969L16.3156 15.0937H18.7594L20.9516 16.7109C21.0594 16.5312 21.1672 16.3156 21.2391 16.1359L19.8375 15.0937H21.6703C21.8141 14.6266 21.9578 14.1594 22.0656 13.6562Z" fill="white"/>
<path d="M2.76855 17.8252C3.05605 18.2205 3.34355 18.5799 3.66699 18.9393L7.90762 15.8486V15.1299H6.47012L2.76855 17.8252Z" fill="#ED4C5C"/>
<path d="M16.3516 15.0938L20.1969 17.8969C20.3406 17.7172 20.4484 17.5375 20.5922 17.3578C20.6281 17.3219 20.6281 17.2859 20.6641 17.2859C20.7719 17.1063 20.9156 16.8906 21.0234 16.7109L18.7594 15.0938H16.3516Z" fill="#ED4C5C"/>
<path d="M15.0938 1.32959V6.28897L18.7953 3.55772C17.7531 2.5874 16.4953 1.83271 15.0938 1.32959Z" fill="#2A5F9E"/>
<path d="M7.90762 1.32959C6.50605 1.83271 5.24824 2.5874 4.20605 3.55771L7.90762 6.3249V1.32959Z" fill="#2A5F9E"/>
<path d="M21.6717 7.90596C21.5639 7.54658 21.4201 7.22314 21.2404 6.86377L19.8389 7.90596H21.6717Z" fill="#2A5F9E"/>
<path d="M3.16387 7.90596L1.7623 6.86377C1.61855 7.22314 1.4748 7.54658 1.33105 7.90596H3.16387Z" fill="#2A5F9E"/>
<path d="M14.5547 9.34394H22.0297C21.9219 8.84082 21.7781 8.37363 21.6344 7.90644H19.8016L21.2031 6.86426C20.9156 6.25332 20.5922 5.71426 20.1969 5.17519L16.5312 7.90644H15.0937V7.18769L19.2984 4.09707L18.7953 3.59395L15.0937 6.28926V1.32988C14.6266 1.1502 14.1594 1.04238 13.6562 0.93457V9.34394H14.5547Z" fill="white"/>
<path d="M0.933594 9.34394H9.34297V0.93457C8.83984 1.04238 8.37266 1.18613 7.90547 1.32988V6.28926L4.20391 3.59395C3.70078 4.06113 3.26953 4.56426 2.83828 5.10332L6.68359 7.90644H4.23984L2.04766 6.28926C1.93984 6.46894 1.83203 6.68457 1.76016 6.86426L3.16172 7.90644H1.32891C1.18516 8.37363 1.04141 8.84082 0.933594 9.34394Z" fill="white"/>
<path d="M20.2328 5.1751C19.9453 4.77978 19.6578 4.42041 19.3344 4.06104L15.0938 7.15166V7.87041H16.5312L20.2328 5.1751Z" fill="#ED4C5C"/>
<path d="M6.64766 7.90615L2.83828 5.10303C2.69453 5.28271 2.58672 5.4624 2.44297 5.64209C2.40703 5.67803 2.40703 5.71396 2.37109 5.71396C2.26328 5.89365 2.11953 6.10928 2.01172 6.28897L4.20391 7.90615H6.64766Z" fill="#ED4C5C"/>
<path d="M22.0656 9.34375H13.6562V0.934375C12.9734 0.790625 12.2547 0.71875 11.5 0.71875C10.7453 0.71875 10.0266 0.790625 9.34375 0.934375V9.34375H0.934375C0.790625 10.0266 0.71875 10.7453 0.71875 11.5C0.71875 12.2547 0.790625 12.9734 0.934375 13.6562H9.34375V22.0656C10.0266 22.2094 10.7453 22.2812 11.5 22.2812C12.2547 22.2812 12.9734 22.2094 13.6562 22.0656V13.6562H22.0656C22.2094 12.9734 22.2812 12.2547 22.2812 11.5C22.2812 10.7453 22.2094 10.0266 22.0656 9.34375Z" fill="#ED4C5C"/>
</svg>
