<svg width="23" height="23" viewBox="0 0 23 23" fill="none" xmlns="http://www.w3.org/2000/svg">
<path d="M0.71875 11.5C0.71875 13.6203 1.32969 15.5969 2.37187 17.25H20.5922C21.6344 15.5969 22.2453 13.6203 22.2453 11.5C22.2453 9.37969 21.6344 7.40312 20.5922 5.75H2.37187C1.32969 7.40312 0.71875 9.37969 0.71875 11.5Z" fill="#FFCE31"/>
<path d="M20.6283 5.75C18.7236 2.73125 15.3455 0.71875 11.5002 0.71875C7.65488 0.71875 4.27676 2.73125 2.37207 5.75H20.6283Z" fill="#ED4C5C"/>
<path d="M2.37207 17.25C4.27676 20.2687 7.65488 22.2812 11.5002 22.2812C15.3455 22.2812 18.7236 20.2687 20.6283 17.25H2.37207Z" fill="#ED4C5C"/>
<path d="M3.30615 10.314H4.45615V10.9608H3.30615V10.314Z" fill="#C8B100"/>
<path d="M3.30615 15.0576H4.49209V15.6686H3.30615V15.0576Z" fill="#C8B100"/>
<path d="M3.19824 14.0518C3.09043 14.1236 3.01855 14.1955 3.01855 14.2314C3.01855 14.2674 3.05449 14.3033 3.12637 14.3393C3.19824 14.3752 3.27012 14.4471 3.23418 14.5189C3.30606 14.4471 3.34199 14.3752 3.34199 14.3033C3.34199 14.1955 3.27012 14.0877 3.19824 14.0518Z" fill="#ED4C5C"/>
<path d="M3.48584 10.9609H4.3124V15.0578H3.48584V10.9609Z" fill="white"/>
<path d="M5.17514 12.4703C4.99545 12.3984 4.67202 12.3266 4.31264 12.3266C4.20483 12.3266 4.06108 12.3266 3.91733 12.3625C3.4142 12.4344 3.01889 12.65 3.05483 12.7938L2.87514 12.3984C2.8392 12.2188 3.27045 12.0031 3.80952 11.8953C3.9892 11.8594 4.16889 11.8594 4.31264 11.8594C4.67202 11.8594 4.99545 11.8953 5.17514 11.9672V12.4703Z" fill="#ED4C5C"/>
<path d="M3.48613 13.0094C3.27051 13.0094 3.09082 12.9375 3.09082 12.8297C3.09082 12.7578 3.1627 12.65 3.30645 12.5781H3.52207L3.48613 13.0094Z" fill="#ED4C5C"/>
<path d="M4.3125 12.686C4.45625 12.722 4.56406 12.7579 4.63594 12.7938C4.67187 12.8298 4.52812 12.9735 4.3125 13.0813V12.686Z" fill="#ED4C5C"/>
<path d="M2.94727 13.8002C2.91133 13.7283 3.1629 13.5846 3.48633 13.4768C3.63008 13.4408 3.7379 13.3689 3.91758 13.2971C4.34883 13.1174 4.70821 12.8658 4.63633 12.7939L4.70821 13.2252C4.74415 13.2971 4.45665 13.5127 4.0254 13.7283C3.88165 13.8002 3.63008 13.908 3.48633 13.9439C3.23477 14.0158 3.01915 14.1596 3.01915 14.1955L2.94727 13.8002Z" fill="#ED4C5C"/>
<path d="M11.0332 10.314H12.1832V10.9608H11.0332V10.314Z" fill="#C8B100"/>
<path d="M10.9971 15.0576H12.183V15.6686H10.9971V15.0576Z" fill="#C8B100"/>
<path d="M12.2907 14.0518C12.3985 14.1236 12.4704 14.1955 12.4704 14.2314C12.4704 14.2674 12.4345 14.3033 12.3626 14.3393C12.2907 14.4111 12.2188 14.5189 12.2548 14.5549C12.1829 14.483 12.147 14.4111 12.147 14.3393C12.147 14.1955 12.2188 14.0877 12.2907 14.0518Z" fill="#ED4C5C"/>
<path d="M11.1768 10.9609H12.0033V15.0578H11.1768V10.9609Z" fill="white"/>
<path d="M10.314 12.4703C10.4937 12.3984 10.8171 12.3266 11.1765 12.3266C11.2843 12.3266 11.428 12.3266 11.5718 12.3625C12.0749 12.4344 12.4702 12.65 12.4343 12.7938L12.614 12.3625C12.6499 12.1828 12.2187 11.9672 11.6796 11.8594H11.1765C10.8171 11.8594 10.4937 11.8953 10.314 11.9672V12.4703Z" fill="#ED4C5C"/>
<path d="M12.0032 13.0094C12.2188 13.0094 12.3985 12.9375 12.3985 12.8297C12.3985 12.7578 12.3267 12.65 12.1829 12.5781H11.9673L12.0032 13.0094Z" fill="#ED4C5C"/>
<path d="M11.1766 12.686C11.0328 12.722 10.925 12.7579 10.8532 12.7938C10.8172 12.8298 10.961 12.9735 11.1766 13.0813V12.686Z" fill="#ED4C5C"/>
<path d="M12.5423 13.8002C12.5782 13.7283 12.3267 13.5846 12.0032 13.4768C11.8595 13.4408 11.7517 13.3689 11.572 13.2971C11.1407 13.1174 10.7813 12.8658 10.8532 12.7939L10.7813 13.2252C10.7454 13.2971 11.0329 13.5127 11.4642 13.7283C11.6079 13.8002 11.8595 13.908 12.0032 13.9439C12.2548 14.0158 12.4704 14.1955 12.4345 14.2314L12.5423 13.8002Z" fill="#ED4C5C"/>
<path d="M7.72666 8.01416C8.40947 8.01416 9.81104 8.15791 10.3142 8.66104C9.7751 9.95479 8.9126 9.41572 7.72666 9.41572C6.57666 9.41572 5.67822 9.95479 5.13916 8.66104C5.64229 8.15791 7.00791 8.01416 7.72666 8.01416Z" fill="#ED4C5C"/>
<path d="M9.4877 9.45156C9.05645 9.2 8.40957 9.16406 7.72676 9.16406C7.04395 9.16406 6.39707 9.23594 5.96582 9.45156L6.10957 10.0625C6.50488 10.1703 7.07988 10.2422 7.72676 10.2422C8.37363 10.2422 8.9127 10.1703 9.34395 10.0625L9.4877 9.45156Z" fill="#C8B100"/>
<path d="M10.0985 7.90625C9.95479 7.79844 9.66729 7.69062 9.41572 7.69062C9.30791 7.69062 9.2001 7.69062 9.09229 7.72656C9.09229 7.72656 8.87666 7.43906 8.37354 7.43906C8.19385 7.43906 8.0501 7.475 7.90635 7.54687V7.51094C7.87041 7.43906 7.79854 7.36719 7.72666 7.36719C7.65479 7.36719 7.54697 7.475 7.54697 7.54687V7.58281C7.40322 7.51094 7.25947 7.475 7.07979 7.475C6.57666 7.475 6.36104 7.79844 6.36104 7.7625C6.25322 7.72656 6.14541 7.72656 6.0376 7.72656C4.38447 7.72656 5.21104 8.84062 5.21104 8.84062L5.39072 8.625C4.99541 8.12187 5.35479 7.83437 6.07354 7.83437C6.18135 7.83437 6.25322 7.83437 6.3251 7.87031C6.07354 8.22969 6.54072 8.55312 6.54072 8.55312L6.64854 8.37344C6.39697 8.19375 6.36104 7.58281 7.07979 7.58281C7.25947 7.58281 7.40322 7.61875 7.54697 7.72656C7.54697 7.7625 7.51104 8.26563 7.4751 8.3375L7.7626 8.58906L8.0501 8.3375C8.01416 8.22969 7.97822 7.7625 7.97822 7.72656C8.08604 7.65469 8.26572 7.58281 8.44541 7.58281C9.2001 7.58281 9.2001 8.19375 8.87666 8.37344L8.98447 8.55312C8.98447 8.55312 9.37979 8.22969 9.2001 7.87031C9.27197 7.87031 9.37979 7.83437 9.45166 7.83437C10.3142 7.83437 10.3501 8.48125 10.1345 8.625L10.2782 8.84062C10.2063 8.84062 10.6017 8.3375 10.0985 7.90625Z" fill="#C8B100"/>
<path d="M7.51074 7.22344C7.51074 7.11562 7.61855 7.00781 7.72637 7.00781C7.87012 7.00781 7.94199 7.11562 7.94199 7.22344C7.94199 7.33125 7.83418 7.43906 7.72637 7.43906C7.61855 7.43906 7.51074 7.33125 7.51074 7.22344Z" fill="#005BBF"/>
<path d="M7.65449 6.6123V6.72012H7.54668V6.82793H7.65449V7.1873H7.51074V7.29512H7.94199L7.97793 7.22324L7.94199 7.1873H7.79824V6.82793H7.90606V6.72012H7.79824V6.6123H7.65449Z" fill="#C8B100"/>
<path d="M7.72637 10.1704C7.15137 10.1704 6.64824 10.0985 6.25293 9.99072C6.64824 9.88291 7.15137 9.81104 7.72637 9.81104C8.30137 9.81104 8.80449 9.88291 9.1998 9.99072C8.84043 10.0985 8.30137 10.1704 7.72637 10.1704Z" fill="#ED4C5C"/>
<path d="M7.7623 16.3877C7.07949 16.3877 6.43262 16.208 5.85762 15.9564C5.42637 15.7408 5.1748 15.3455 5.1748 14.8783V13.1533H10.3498V14.8783C10.3498 15.3455 10.0623 15.7768 9.66699 15.9564C9.09199 16.2439 8.44512 16.3877 7.7623 16.3877Z" fill="white"/>
<path d="M7.72656 10.2783H10.3141V13.1533H7.72656V10.2783Z" fill="white"/>
<path d="M7.76231 14.8783C7.76231 15.5611 7.1873 16.1002 6.46855 16.1002C5.7498 16.1002 5.1748 15.5611 5.1748 14.8783V13.1533H7.76231V14.8783Z" fill="#ED4C5C"/>
<path d="M5.71436 15.8842C5.78623 15.9201 5.89404 15.992 6.03779 16.0279V13.0811H5.75029L5.71436 15.8842Z" fill="#C8B100"/>
<path d="M5.13916 14.842C5.13916 15.2014 5.28291 15.4889 5.42666 15.6326V13.0811H5.13916V14.842Z" fill="#C8B100"/>
<path d="M6.28906 16.0998H6.57656V13.0811H6.28906V16.0998Z" fill="#C7B500"/>
<path d="M6.86426 16.0279C6.97207 15.992 7.11582 15.9201 7.18769 15.8842V13.0811H6.9002L6.86426 16.0279Z" fill="#C8B100"/>
<path d="M5.13916 10.2783H7.72666V13.1533H5.13916V10.2783Z" fill="#ED4C5C"/>
<path d="M7.4751 15.6328C7.61885 15.525 7.72666 15.2734 7.7626 14.9859V13.1172H7.4751V15.6328Z" fill="#C8B100"/>
<path d="M10.3497 13.1528V14.8778C10.3497 15.5606 9.77471 16.0997 9.05596 16.0997C8.33721 16.0997 7.76221 15.5606 7.76221 14.8778V13.1528H10.3497Z" fill="#ED4C5C"/>
<path d="M9.41527 10.781C9.52309 10.9966 9.52309 11.5357 9.19965 11.4279C9.27152 11.4638 9.30746 11.7154 9.41527 11.8591C9.59496 12.0748 9.81059 11.8951 9.77465 11.6435C9.70277 11.2482 9.73871 10.9966 9.81059 10.6013C9.81059 10.6373 9.99027 10.6373 10.0621 10.5654C10.0262 10.6732 9.99027 10.817 10.0621 10.817C9.99027 10.9248 9.81059 11.1045 9.77465 11.2123C9.73871 11.4638 10.134 11.931 9.70277 12.0388C9.41527 12.1107 9.59496 12.3263 9.70277 12.4341C9.70277 12.4341 9.55902 12.9013 9.6309 12.8654C9.3434 12.9732 9.41527 12.7216 9.41527 12.7216C9.55902 12.2904 9.16371 12.2545 9.19965 12.1826C8.84027 12.1466 9.23559 12.506 8.91215 12.506C8.84027 12.506 8.69652 12.5779 8.69652 12.5779C8.30121 12.542 8.51684 12.1826 8.66059 12.2185C8.7684 12.2545 8.87621 12.4341 8.87621 12.1826C8.87621 12.1826 8.69652 11.8951 9.16371 11.8951C8.98402 11.8951 8.87621 11.7513 8.80434 11.5716C8.73246 11.6076 8.62465 11.7873 8.22934 11.8232C8.22934 11.8232 8.12152 11.4279 8.22934 11.4998C8.37309 11.5716 8.44496 11.5716 8.58871 11.4279C8.51684 11.3201 8.08559 11.1763 8.15746 10.9248C8.15746 10.8529 8.37309 10.7451 8.37309 10.7451C8.33715 10.9248 8.44496 11.1045 8.66059 11.1045C8.94809 11.1404 8.84027 11.0326 8.87621 10.9607C8.91215 10.8888 9.12777 10.9966 9.0559 10.817C9.0559 10.781 8.80434 10.7451 8.87621 10.6373C9.01996 10.4576 9.23559 10.6013 9.41527 10.781Z" fill="#ED4C5C"/>
<path d="M7.7623 16.0281L7.69043 15.8484L7.7623 15.6328L7.83418 15.8484L7.7623 16.0281Z" fill="#ED4C5C"/>
<path d="M5.92949 10.8891V11.0687H6.00137V11.2125H5.82168V11.5719H5.92949V12.3625H5.71387V12.7578H7.18731V12.3625H7.00762V11.5719H7.07949V11.2125H6.89981V11.0687H7.00762V10.8891H6.64824V11.0687H6.72012V11.2125H6.54043V10.7812H6.64824V10.6016H6.25293V10.7812H6.36074V11.2125H6.18106V11.0687H6.25293V10.8891H5.92949Z" fill="#C8B100"/>
<path d="M9.99033 15.3096V13.5127H8.12158V15.3096L8.98408 15.7049H9.09189L9.99033 15.3096ZM8.98408 13.6564V14.2674L8.37314 13.6564H8.98408ZM8.22939 13.6924L8.94814 14.4111L8.22939 15.1299V13.6924ZM8.30127 15.2736L8.98408 14.5908V15.5971L8.30127 15.2736ZM9.09189 15.5611V14.5549L9.77471 15.2377L9.09189 15.5611ZM9.84658 15.1299L9.12783 14.4111L9.84658 13.6924V15.1299ZM9.09189 13.6564H9.70283L9.09189 14.2674V13.6564Z" fill="#C8B100"/>
<path d="M6.8999 13.117C6.8999 12.5779 7.25928 12.1826 7.72646 12.1826C8.19365 12.1826 8.55303 12.6139 8.55303 13.117C8.55303 13.6201 8.19365 14.0514 7.72646 14.0514C7.25928 14.0514 6.8999 13.6561 6.8999 13.117Z" fill="#ED4C5C"/>
<path d="M7.15137 13.1174C7.15137 12.7221 7.40293 12.4346 7.72637 12.4346C8.04981 12.4346 8.30137 12.758 8.30137 13.1174C8.30137 13.5127 8.04981 13.8002 7.72637 13.8002C7.43887 13.8361 7.15137 13.5127 7.15137 13.1174Z" fill="#005BBF"/>
<path d="M7.4748 12.6499L7.33105 13.0452L7.43887 13.0812L7.36699 13.2249H7.58262L7.51074 13.0812L7.61856 13.0452L7.4748 12.6499Z" fill="#C8B100"/>
<path d="M8.01387 12.6499L7.87012 13.0452L7.97793 13.0812L7.90605 13.2249H8.12168L8.08574 13.0812L8.19355 13.0452L8.01387 12.6499Z" fill="#C8B100"/>
<path d="M7.76221 13.1172L7.58252 13.5125L7.69033 13.5484L7.65439 13.6922H7.83408L7.79814 13.5484L7.90596 13.5125L7.76221 13.1172Z" fill="#C8B100"/>
</svg>
