<svg width="23" height="23" viewBox="0 0 23 23" fill="none" xmlns="http://www.w3.org/2000/svg">
<path d="M0.682617 11.5001C0.682617 16.208 3.70137 20.197 7.87012 21.6705V1.32983C3.70137 2.80327 0.682617 6.79233 0.682617 11.5001Z" fill="#428BC1"/>
<path d="M22.2451 11.5001C22.2451 6.79233 19.2623 2.80327 15.0576 1.32983V21.6705C19.2623 20.197 22.2451 16.208 22.2451 11.5001Z" fill="#ED4C5C"/>
<path d="M7.87012 21.6703C8.98418 22.0656 10.2061 22.2812 11.4639 22.2812C12.7217 22.2812 13.9436 22.0656 15.0576 21.6703V1.32969C13.9436 0.934375 12.7576 0.71875 11.4639 0.71875C10.1701 0.71875 8.98418 0.934375 7.87012 1.32969V21.6703Z" fill="white"/>
</svg>
