<svg width="23" height="23" viewBox="0 0 23 23" fill="none" xmlns="http://www.w3.org/2000/svg">
<path d="M0.71875 11.5001C0.71875 16.208 3.7375 20.197 7.90625 21.6705V1.32983C3.7375 2.80327 0.71875 6.79233 0.71875 11.5001Z" fill="#ED4C5C"/>
<path d="M11.5 0.71875C10.2422 0.71875 9.02031 0.934375 7.90625 1.32969V7.90625H21.6703C20.1969 3.7375 16.2078 0.71875 11.5 0.71875Z" fill="#699635"/>
<path d="M21.6703 7.90625H7.90625V15.0938H21.6703C22.0656 13.9797 22.2812 12.7578 22.2812 11.5C22.2812 10.2422 22.0656 9.02031 21.6703 7.90625Z" fill="#F9F9F9"/>
<path d="M7.90625 15.0938V21.6703C9.02031 22.0656 10.2422 22.2812 11.5 22.2812C16.2078 22.2812 20.1969 19.2984 21.6703 15.0938H7.90625Z" fill="#3E4347"/>
</svg>
