<svg width="23" height="23" viewBox="0 0 23 23" fill="none" xmlns="http://www.w3.org/2000/svg">
<path d="M11.4633 0C6.47999 0 2.22499 3.21995 0.65332 7.66655H22.35C20.74 3.21995 16.485 0 11.4633 0Z" fill="#F6F6F6"/>
<path d="M11.4633 23C16.485 23 20.74 19.7801 22.3117 15.3335H0.65332C2.22499 19.8184 6.47999 23 11.4633 23Z" fill="#ED4C5C"/>
<path d="M0.651667 7.6665C0.23 8.85482 0 10.1581 0 11.4998C0 12.8414 0.23 14.1447 0.651667 15.3331H22.3483C22.77 14.1447 23 12.8414 23 11.4998C23 10.1581 22.77 8.85482 22.3483 7.6665H0.651667Z" fill="#428BC1"/>
</svg>
