<svg width="23" height="21" viewBox="0 0 23 21" fill="none" xmlns="http://www.w3.org/2000/svg">
<path fill-rule="evenodd" clip-rule="evenodd" d="M6.64948 1.10825H2.21649C1.60442 1.10825 1.10825 1.60442 1.10825 2.21649V6.64947C1.10825 7.26154 1.60442 7.75772 2.21649 7.75772H6.64947C7.26154 7.75772 7.75772 7.26154 7.75772 6.64948V2.21649C7.75772 1.60442 7.26154 1.10825 6.64948 1.10825ZM2.21649 0C0.992357 0 0 0.992357 0 2.21649V6.64947C0 7.87361 0.992357 8.86597 2.21649 8.86597H6.64947C7.87361 8.86597 8.86597 7.87361 8.86597 6.64948V2.21649C8.86597 0.992357 7.87361 0 6.64948 0H2.21649Z" fill="black"/>
<path fill-rule="evenodd" clip-rule="evenodd" d="M18.8404 1.10825H14.4074C13.7953 1.10825 13.2992 1.60442 13.2992 2.21649V6.64947C13.2992 7.26154 13.7953 7.75772 14.4074 7.75772H18.8404C19.4525 7.75772 19.9486 7.26154 19.9486 6.64948V2.21649C19.9486 1.60442 19.4525 1.10825 18.8404 1.10825ZM14.4074 0C13.1833 0 12.1909 0.992357 12.1909 2.21649V6.64947C12.1909 7.87361 13.1833 8.86597 14.4074 8.86597H18.8404C20.0645 8.86597 21.0569 7.87361 21.0569 6.64948V2.21649C21.0569 0.992357 20.0645 0 18.8404 0H14.4074Z" fill="black"/>
<path fill-rule="evenodd" clip-rule="evenodd" d="M6.64948 12.1908H2.21649C1.60442 12.1908 1.10825 12.6869 1.10825 13.299V17.732C1.10825 18.3441 1.60442 18.8402 2.21649 18.8402H6.64947C7.26154 18.8402 7.75772 18.3441 7.75772 17.732V13.299C7.75772 12.6869 7.26154 12.1908 6.64948 12.1908ZM2.21649 11.0825C0.992357 11.0825 0 12.0749 0 13.299V17.732C0 18.9561 0.992357 19.9485 2.21649 19.9485H6.64947C7.87361 19.9485 8.86597 18.9561 8.86597 17.732V13.299C8.86597 12.0749 7.87361 11.0825 6.64948 11.0825H2.21649Z" fill="black"/>
<path fill-rule="evenodd" clip-rule="evenodd" d="M19.6253 12.8777L15.3434 11.7303C14.7522 11.5719 14.1445 11.9228 13.9861 12.514L12.8387 16.7959C12.6803 17.3871 13.0312 17.9948 13.6224 18.1532L17.9043 19.3006C18.4955 19.459 19.1032 19.1081 19.2616 18.5169L20.409 14.235C20.5674 13.6438 20.2165 13.0361 19.6253 12.8777ZM15.6302 10.6599C14.4478 10.343 13.2324 11.0447 12.9156 12.2271L11.7682 16.5091C11.4514 17.6915 12.1531 18.9069 13.3355 19.2237L17.6175 20.3711C18.7999 20.6879 20.0153 19.9862 20.3321 18.8038L21.4795 14.5218C21.7963 13.3394 21.0946 12.124 19.9122 11.8072L15.6302 10.6599Z" fill="black"/>
</svg>
