<svg width="24" height="24" viewBox="0 0 24 24" fill="none" xmlns="http://www.w3.org/2000/svg">
<path fill-rule="evenodd" clip-rule="evenodd" d="M1.98464 5.31941C1.64998 5.81964 1.78283 6.49739 2.28137 6.83319C2.77991 7.16899 3.45535 7.03569 3.79001 6.53545C5.59695 3.83456 8.61832 2.18182 11.9207 2.18182C17.3247 2.18182 21.7056 6.57757 21.7056 12C21.7056 17.4224 17.3247 21.8182 11.9207 21.8182C11.3202 21.8182 10.8334 22.3066 10.8334 22.9091C10.8334 23.5116 11.3202 24 11.9207 24C18.5256 24 23.88 18.6274 23.88 12C23.88 5.37258 18.5256 0 11.9207 0C7.88601 0 4.19126 2.0211 1.98464 5.31941Z" fill="black"/>
</svg>
