<svg width="36" height="36" viewBox="0 0 36 36" fill="none" xmlns="http://www.w3.org/2000/svg">
<path d="M31.5 9H26.7L24 6H15V9H22.65L25.5 12H31.5V30H7.5V16.5H4.5V30C4.5 31.65 5.85 33 7.5 33H31.5C33.15 33 34.5 31.65 34.5 30V12C34.5 10.35 33.15 9 31.5 9ZM12 21C12 27.675 20.085 31.035 24.81 26.31C29.535 21.585 26.175 13.5 19.5 13.5C15.36 13.5 12 16.86 12 21ZM19.5 16.5C21.96 16.575 23.925 18.54 24 21C23.925 23.46 21.96 25.425 19.5 25.5C17.04 25.425 15.075 23.46 15 21C15.075 18.54 17.04 16.575 19.5 16.5ZM7.5 9H12V6H7.5V1.5H4.5V6H0V9H4.5V13.5H7.5" fill="#AFAFAF"/>
</svg>
