<svg width="25" height="25" viewBox="0 0 25 25" fill="none" xmlns="http://www.w3.org/2000/svg">
<g clip-path="url(#clip0)">
<path d="M5.83203 17.0832C5.1417 17.0832 4.58203 17.6429 4.58203 18.3332C4.58203 19.0235 5.14165 19.5832 5.83203 19.5832C6.52241 19.5832 7.08202 19.0236 7.08202 18.3332C7.08124 17.6432 6.52206 17.0839 5.83203 17.0832ZM5.83203 18.7498C5.6019 18.7498 5.41538 18.5633 5.41538 18.3332C5.41538 18.1031 5.6019 17.9165 5.83203 17.9165C6.06215 17.9165 6.24868 18.1031 6.24868 18.3332C6.24843 18.5632 6.06206 18.7496 5.83203 18.7498Z" fill="#111111"/>
<path d="M19.168 17.0832C18.4776 17.0832 17.918 17.6429 17.918 18.3332C17.918 19.0235 18.4776 19.5832 19.168 19.5832C19.8583 19.5832 20.418 19.0236 20.418 18.3332C20.4172 17.6432 19.858 17.0839 19.168 17.0832ZM19.168 18.7498C18.9378 18.7498 18.7513 18.5633 18.7513 18.3332C18.7513 18.1031 18.9379 17.9165 19.168 17.9165C19.3981 17.9165 19.5846 18.1031 19.5846 18.3332C19.5844 18.5632 19.398 18.7496 19.168 18.7498Z" fill="#111111"/>
<path d="M24.6824 11.1525L21.8122 7.9201C21.5744 7.65233 21.2332 7.49945 20.875 7.50018H17.0833V5.00018C17.0826 4.31014 16.5234 3.75092 15.8333 3.75018H1.25C0.559961 3.75092 0.000732463 4.31014 4.06918e-08 5.00018V15.8335C-4.87874e-05 15.944 0.0438477 16.05 0.122022 16.1282C0.200147 16.2063 0.306152 16.2502 0.416699 16.2502H0.83335V17.5002C0.834082 18.1903 1.39331 18.7495 2.08335 18.7502H2.94995C3.15532 20.1848 4.38413 21.2502 5.83335 21.2502C7.28257 21.2502 8.51138 20.1848 8.71675 18.7502H16.2833C16.4887 20.1848 17.7175 21.2502 19.1667 21.2502C20.616 21.2502 21.8448 20.1848 22.0501 18.7502H23.75C24.44 18.7495 24.9993 18.1903 25 17.5002V11.9834C24.9997 11.6768 24.8867 11.3811 24.6824 11.1525ZM0.83335 15.4168V5.00018C0.833594 4.77015 1.01997 4.58373 1.25 4.58353H15.8333C16.0634 4.58378 16.2498 4.77015 16.25 5.00018V15.4168H0.83335ZM2.94995 17.9168H2.08335C1.85332 17.9166 1.66689 17.7302 1.6667 17.5002V16.2502H3.79609C3.33838 16.6975 3.04097 17.2833 2.94995 17.9168ZM5.83335 20.4168C4.68276 20.4168 3.75 19.4841 3.75 18.3335C3.75 17.1829 4.68276 16.2502 5.83335 16.2502C6.98394 16.2502 7.9167 17.1829 7.9167 18.3335C7.91533 19.4835 6.98335 20.4155 5.83335 20.4168ZM10 17.9168H8.7167C8.62568 17.2833 8.32832 16.6975 7.87061 16.2502H10V17.9168ZM13.75 17.9168H10.8334V16.2502H13.75V17.9168ZM16.2833 17.9168H14.5833V16.2502H17.1294C16.6717 16.6975 16.3743 17.2833 16.2833 17.9168ZM19.1667 20.4168C18.0161 20.4168 17.0833 19.4841 17.0833 18.3335C17.0833 17.1829 18.016 16.2501 19.1667 16.2501C20.3172 16.2501 21.25 17.1829 21.25 18.3335C21.2486 19.4835 20.3167 20.4155 19.1667 20.4168ZM24.1667 17.5002C24.1664 17.7302 23.98 17.9166 23.75 17.9168H22.05C21.8423 16.4836 20.6149 15.4194 19.1667 15.4168H17.0833V8.33353H18.75V12.5002C18.7507 13.1902 19.31 13.7495 20 13.7502H24.1667V17.5002ZM24.1667 12.9168H20C19.77 12.9166 19.5835 12.7302 19.5833 12.5002V8.33353H20.875C20.9947 8.33285 21.1088 8.38353 21.1886 8.47269L24.0599 11.7063C24.1282 11.7825 24.1662 11.8811 24.1667 11.9834V12.9168H24.1667Z" fill="#111111"/>
</g>
<defs>
<clipPath id="clip0">
<rect width="25" height="25" fill="white"/>
</clipPath>
</defs>
</svg>
