<svg width="25" height="25" viewBox="0 0 25 25" fill="none" xmlns="http://www.w3.org/2000/svg">
<g clip-path="url(#clip0)">
<path d="M22.9288 0.258255C22.8514 0.116539 22.7093 0.0219345 22.5487 0.00495908L22.5296 0.00286103C22.5203 0.00228882 22.5082 0 22.5 0C22.0381 0 21.0775 0 19.7054 1.37215C19.1557 1.89877 18.5734 2.39048 17.9623 2.84424C14.4899 1.27411 10.5101 1.27411 7.03773 2.84424C6.42662 2.39048 5.84431 1.89877 5.29461 1.37215C3.92246 0 2.96192 0 2.49996 0C2.49176 0 2.48013 0.00228882 2.47078 0.00286103C2.46353 0.00324249 2.45667 0.00400543 2.44942 0.00495908C2.28958 0.0226975 2.14825 0.117302 2.07119 0.258255C1.67255 0.90313 1.45645 4.43001 1.96304 7.06577C0.687981 8.90751 0.00343323 11.0933 0 13.3333C0 19.7666 5.60741 25 12.5 25C19.3926 25 25 19.7666 25 13.3333C24.9966 11.0933 24.3118 8.90732 23.037 7.06558C23.5435 4.42982 23.3273 0.90313 22.9288 0.258255ZM19.0479 5.54008C19.2854 5.26199 19.602 4.94537 19.9301 4.6175C20.5435 4.04224 21.1014 3.41072 21.5967 2.73113C21.8866 2.29645 22.1628 1.84269 22.3833 1.46694C22.5903 3.33767 22.5258 5.22861 22.1922 7.08084L22.1895 7.09476C22.1188 7.43675 22.0242 7.7734 21.9061 8.10204C20.9906 6.37989 19.7981 5.76134 19.0479 5.54008ZM3.09372 8.10184C2.97585 7.77321 2.88124 7.43656 2.81067 7.09457L2.808 7.08084C2.47421 5.22842 2.40974 3.33748 2.61669 1.46675C2.83737 1.8425 3.11356 2.29645 3.40328 2.73113C3.89862 3.41072 4.45671 4.04224 5.06992 4.6175C5.3978 4.94537 5.71442 5.26199 5.95207 5.54008C5.2021 5.76134 4.00944 6.3797 3.09353 8.10184H3.09372ZM24.1667 13.3333C24.1667 19.3068 18.9333 24.1667 12.5 24.1667C6.0667 24.1667 0.833321 19.3068 0.833321 13.3333C0.835037 11.5206 1.32122 9.74102 2.24133 8.17909C2.32315 8.43868 2.42424 8.69179 2.54402 8.93612C2.57187 8.98952 2.61097 9.03606 2.65884 9.0723C2.61211 9.19571 2.56538 9.3195 2.52132 9.45129C2.4744 9.59263 2.50607 9.74827 2.60487 9.85966C2.70367 9.97105 2.85435 10.0212 3.00026 9.99146C3.14598 9.96151 3.26481 9.85622 3.31192 9.71508C4.44164 6.32591 6.57959 6.25134 6.66676 6.25C6.81114 6.25 6.94523 6.17523 7.02114 6.0524C7.09705 5.92957 7.10392 5.77621 7.03945 5.6469C6.6576 5.04532 6.19297 4.50039 5.6591 4.02832C5.08575 3.49083 4.56276 2.90184 4.0966 2.26879C3.79772 1.82037 3.50971 1.34335 3.28693 0.961494C3.82633 1.18885 4.31004 1.52988 4.70543 1.96133C5.89905 3.04661 7.17392 4.039 8.51879 4.92992C8.71029 5.05505 8.96664 5.00259 9.09348 4.81243C9.22031 4.62208 9.17015 4.36516 8.98113 4.2366C8.97007 4.22916 8.46596 3.89194 7.80621 3.41454C10.8166 2.19517 14.1832 2.19517 17.1936 3.41454C16.534 3.89194 16.0299 4.22916 16.0189 4.2366C15.8298 4.36516 15.7797 4.62208 15.9065 4.81243C16.0334 5.00259 16.2897 5.05505 16.481 4.92992C17.8261 4.039 19.101 3.04661 20.2946 1.96133C20.69 1.52969 21.1739 1.18885 21.7131 0.961494C21.4905 1.34315 21.2025 1.82037 20.9034 2.26879C20.4372 2.90184 19.9142 3.49064 19.3409 4.02832C18.807 4.50039 18.3424 5.04532 17.9605 5.6469C17.8974 5.77564 17.9045 5.92785 17.9792 6.05011C18.0542 6.17237 18.1866 6.2479 18.3298 6.25C18.4204 6.25134 20.5582 6.32591 21.6883 9.71508C21.7321 9.86042 21.8515 9.97028 21.9997 10.0019C22.1481 10.0338 22.3021 9.98249 22.4014 9.86786C22.501 9.75342 22.5304 9.59396 22.4783 9.45148C22.4344 9.31969 22.3877 9.19609 22.341 9.07249C22.3888 9.03625 22.4281 8.98972 22.456 8.93631C22.5758 8.69198 22.677 8.43906 22.7587 8.17947C23.6788 9.74121 24.165 11.5206 24.1667 13.3333Z" fill="#111111"/>
<path d="M14.9771 15.2223C14.9693 15.1755 14.9571 15.1296 14.9409 15.0851C14.803 14.7754 14.4934 14.5778 14.1543 14.5831H10.8523C10.5131 14.5778 10.2036 14.7754 10.0657 15.0851C10.0546 15.1179 10.0458 15.1513 10.0394 15.1853C8.63287 16.2826 6.55176 18.8033 7.9796 21.1768C8.42039 21.9102 8.92431 22.0811 9.29739 22.0811C9.32924 22.0811 9.36033 22.0798 9.39028 22.0773C10.6436 21.9829 11.8117 19.9351 12.4846 18.4899C13.1575 19.9353 14.3255 21.9831 15.5789 22.0773C15.6088 22.0798 15.6397 22.0811 15.6719 22.0811C16.045 22.0811 16.5487 21.9102 16.9895 21.177C18.4014 18.83 16.382 16.3388 14.9771 15.2223ZM14.1365 15.3962L12.5298 17.0766C12.5248 17.0789 12.5197 17.08 12.5143 17.0802C12.5078 17.0802 12.5017 17.081 12.4951 17.081C12.4888 17.081 12.4825 17.0796 12.4768 17.0768L10.8889 15.4164L14.1365 15.3962ZM9.32753 21.2462C9.11085 21.2628 8.90257 21.0942 8.69372 20.7471C7.5247 18.8041 9.49785 16.7665 10.327 16.034L11.8744 17.6522C11.8904 17.669 11.9099 17.6818 11.9272 17.6971C11.149 19.4747 10.0529 21.1917 9.32753 21.2464V21.2462ZM16.2754 20.7475C16.0671 21.0942 15.8608 21.2615 15.6414 21.2462C14.9193 21.1919 13.8298 19.4894 13.052 17.7199C13.08 17.6991 13.1067 17.6765 13.1319 17.6522L14.6622 16.0523C15.5028 16.7995 17.4351 18.8197 16.2754 20.7477V20.7475Z" fill="#111111"/>
<path d="M8.74694 13.9996V14.1665C8.74694 14.3967 8.93348 14.5833 9.16351 14.5833C9.39373 14.5833 9.58027 14.3967 9.58027 14.1665V13.3502L9.57988 13.3483C9.58294 13.2701 9.63081 11.6383 8.50185 10.6732C7.76752 10.0455 6.73354 9.85801 5.42834 10.1163C5.28758 10.1439 5.17104 10.2423 5.11992 10.3764C4.84622 11.093 4.67837 12.7038 6.00112 13.6698C6.47052 14.0229 7.04215 14.2136 7.62943 14.2134C8.01185 14.2098 8.39027 14.1373 8.74694 13.9996ZM5.83499 10.8905C6.75471 10.7487 7.46787 10.888 7.95673 11.3032C8.43776 11.7791 8.71814 12.4213 8.73989 13.0976C8.47953 13.2312 8.19839 13.3193 7.90847 13.3586C7.90904 13.3498 7.91362 13.3422 7.91362 13.3332V12.0831C7.91362 11.8531 7.72708 11.6666 7.49687 11.6666C7.26684 11.6666 7.0803 11.8531 7.0803 12.0831V13.2922C6.59164 13.1461 6.18308 12.8081 5.94829 12.3553C5.71368 11.9025 5.67267 11.3738 5.83499 10.8905Z" fill="#111111"/>
<path d="M19.5676 10.1158C18.2629 9.85736 17.2286 10.0447 16.4941 10.6727C15.3651 11.6381 15.413 13.2698 15.416 13.3478L15.4156 13.3497V14.1662C15.4156 14.3965 15.6022 14.583 15.8324 14.583C16.0624 14.583 16.249 14.3965 16.249 14.1662V13.9994C16.6056 14.1371 16.9841 14.2094 17.3663 14.213C17.9537 14.2132 18.5252 14.0222 18.9948 13.6694C20.3173 12.7033 20.1493 11.0926 19.876 10.376C19.8249 10.2419 19.7083 10.1437 19.5676 10.1158ZM18.5033 12.9965C18.3253 13.1275 18.1264 13.2273 17.915 13.2919V12.0829C17.915 11.8528 17.7285 11.6663 17.4983 11.6663C17.2682 11.6663 17.0817 11.8528 17.0817 12.0829V13.3329C17.0817 13.3419 17.0863 13.3493 17.0869 13.3579C16.7967 13.3186 16.5154 13.2303 16.2549 13.0968C16.2753 12.4218 16.5549 11.7805 17.0355 11.306C17.5242 10.8883 18.2389 10.7492 19.1609 10.89C19.3967 11.6606 19.1355 12.4969 18.5033 12.9965Z" fill="#111111"/>
</g>
<defs>
<clipPath id="clip0">
<rect width="25" height="25" fill="white"/>
</clipPath>
</defs>
</svg>
