<svg width="24" height="24" viewBox="0 0 24 24" fill="none" xmlns="http://www.w3.org/2000/svg">
<path d="M12 1C5.93471 1 1 5.93471 1 12C1 18.0653 5.93471 23 12 23C18.0653 23 23 18.0653 23 12C23 5.93471 18.0653 1 12 1ZM12 22.0435C6.46172 22.0435 1.95651 17.5382 1.95651 12C1.95651 6.46172 6.46172 1.95651 12 1.95651C17.5382 1.95651 22.0435 6.46172 22.0435 12C22.0435 17.5382 17.5382 22.0435 12 22.0435Z" fill="#FF1E1E"/>
<path fill-rule="evenodd" clip-rule="evenodd" d="M0.75 12C0.75 5.79664 5.79664 0.75 12 0.75C18.2034 0.75 23.25 5.79664 23.25 12C23.25 18.2033 18.2033 23.25 12 23.25C5.79664 23.25 0.75 18.2033 0.75 12ZM12 1.25C6.07278 1.25 1.25 6.07278 1.25 12C1.25 17.9272 6.07278 22.75 12 22.75C17.9272 22.75 22.75 17.9272 22.75 12C22.75 6.07278 17.9272 1.25 12 1.25ZM12 2.20651C6.59979 2.20651 2.20651 6.59979 2.20651 12C2.20651 17.4002 6.59979 21.7935 12 21.7935C17.4002 21.7935 21.7935 17.4002 21.7935 12C21.7935 6.59979 17.4002 2.20651 12 2.20651ZM1.70651 12C1.70651 6.32365 6.32365 1.70651 12 1.70651C17.6763 1.70651 22.2935 6.32365 22.2935 12C22.2935 17.6763 17.6763 22.2935 12 22.2935C6.32365 22.2935 1.70651 17.6763 1.70651 12Z" fill="#FF1E1E"/>
<path d="M16.6447 15.9668L12.48 11.802V4.3479C12.48 4.0839 12.2657 3.86963 12.0017 3.86963C11.7377 3.86963 11.5234 4.0839 11.5234 4.3479V12.0001C11.5234 12.1273 11.5741 12.2488 11.6631 12.3387L15.9674 16.643C16.0612 16.7358 16.1836 16.7827 16.3061 16.7827C16.4285 16.7827 16.5509 16.7358 16.6447 16.643C16.8312 16.4565 16.8312 16.1533 16.6447 15.9668Z" fill="#FF1E1E"/>
<path fill-rule="evenodd" clip-rule="evenodd" d="M11.5234 12.0001C11.5234 12.1273 11.5741 12.2488 11.6631 12.3387L15.9674 16.643C15.9673 16.6429 15.9676 16.6432 15.9674 16.643C16.0611 16.7355 16.1838 16.7827 16.3061 16.7827C16.4285 16.7827 16.5509 16.7358 16.6447 16.643C16.8312 16.4565 16.8312 16.1533 16.6447 15.9668L12.48 11.802V4.3479C12.48 4.0839 12.2657 3.86963 12.0017 3.86963C11.7377 3.86963 11.5234 4.0839 11.5234 4.3479V12.0001Z" fill="#FF1E1E"/>
</svg>
