<svg width="17" height="17" viewBox="0 0 17 17" fill="none" xmlns="http://www.w3.org/2000/svg">
<path d="M10.9384 11.6875L7.96875 8.71781V3.71875H9.03125V8.27688L11.6875 10.9384L10.9384 11.6875Z" fill="black"/>
<path d="M8.5 1.0625C7.50919 1.06264 6.52849 1.2616 5.61597 1.6476C4.70344 2.0336 3.87765 2.59878 3.1875 3.30969V1.0625H2.125V5.3125H6.375V4.25H3.76125C4.75789 3.1425 6.11096 2.41906 7.58546 2.20533C9.05997 1.99159 10.5628 2.30106 11.8328 3.08C13.1029 3.85893 14.0601 5.05811 14.538 6.46928C15.016 7.88044 14.9846 9.41445 14.4493 10.8049C13.914 12.1953 12.9086 13.3543 11.6077 14.0806C10.3068 14.8069 8.79258 15.0546 7.32806 14.7807C5.86353 14.5069 4.5412 13.7287 3.59072 12.5813C2.64023 11.4339 2.12164 9.98991 2.125 8.5H1.0625C1.0625 9.971 1.4987 11.409 2.31594 12.6321C3.13319 13.8551 4.29477 14.8084 5.65379 15.3714C7.01282 15.9343 8.50825 16.0816 9.95098 15.7946C11.3937 15.5076 12.719 14.7993 13.7591 13.7591C14.7993 12.719 15.5076 11.3937 15.7946 9.95098C16.0816 8.50825 15.9343 7.01282 15.3714 5.65379C14.8084 4.29477 13.8551 3.13319 12.6321 2.31594C11.409 1.4987 9.971 1.0625 8.5 1.0625Z" fill="black"/>
</svg>
