<svg width="15" height="15" viewBox="0 0 15 15" fill="none" xmlns="http://www.w3.org/2000/svg">
<path fill-rule="evenodd" clip-rule="evenodd" d="M0.247726 0.461458C0.384626 0.321751 0.606585 0.321751 0.743485 0.461458L14.2464 14.2412C14.3833 14.381 14.3833 14.6075 14.2464 14.7472C14.1095 14.8869 13.8876 14.8869 13.7507 14.7472L0.247726 0.967381C0.110826 0.827674 0.110826 0.601165 0.247726 0.461458Z" fill="black"/>
<path fill-rule="evenodd" clip-rule="evenodd" d="M14.2477 0.252898C14.3846 0.392605 14.3846 0.619114 14.2477 0.758821L0.744771 14.5386C0.607871 14.6783 0.385912 14.6783 0.249011 14.5386C0.112111 14.3989 0.112111 14.1724 0.249011 14.0327L13.752 0.252898C13.8889 0.113191 14.1108 0.113191 14.2477 0.252898Z" fill="black"/>
</svg>
