<svg width="25" height="25" viewBox="0 0 25 25" fill="none" xmlns="http://www.w3.org/2000/svg">
<path d="M23.75 10.8333H22.5C21.9722 10.8355 21.5026 11.169 21.3267 11.6667H21.0083C20.2749 11.6335 19.5566 11.4471 18.8996 11.1196L16.25 10.1004V1.25C16.25 0.559644 15.6904 0 15 0H4.58333C4.47476 0.00395619 4.37123 0.0468463 4.29167 0.120833L0.125 4.2875V4.28958C0.049255 4.36921 0.00485866 4.47354 0 4.58333V23.75C0 24.4404 0.559644 25 1.25 25H15C15.6904 25 16.25 24.4404 16.25 23.75V22.8496C17.0715 22.7298 17.8543 22.4221 18.5375 21.9504C18.8108 21.7628 19.1352 21.6638 19.4667 21.6667H21.3267C21.5026 22.1643 21.9722 22.4978 22.5 22.5H23.75C24.4404 22.5 25 21.9404 25 21.25V12.0833C25 11.393 24.4404 10.8333 23.75 10.8333ZM4.16667 1.4225V3.75C4.16667 3.98012 3.98012 4.16667 3.75 4.16667H1.4225L4.16667 1.4225ZM18.0621 21.2663C17.5173 21.6383 16.8996 21.8901 16.25 22.005V18.3333C16.25 18.1032 16.0635 17.9167 15.8333 17.9167C15.6032 17.9167 15.4167 18.1032 15.4167 18.3333V23.75C15.4167 23.9801 15.2301 24.1667 15 24.1667H1.25C1.01988 24.1667 0.833333 23.9801 0.833333 23.75V5H3.75C4.44036 5 5 4.44036 5 3.75V0.833333H15C15.2301 0.833333 15.4167 1.01988 15.4167 1.25V9.78L13.8837 9.19042C12.9237 8.85358 11.8699 9.34162 11.5058 10.2917L9.89083 14.5375C9.65117 15.1632 9.76353 15.8693 10.1856 16.3897C10.6077 16.9101 11.2753 17.1659 11.9371 17.0606C12.5988 16.9552 13.1541 16.5049 13.3938 15.8792L14.25 13.6333L15.3471 14.1829C15.2337 15.0661 15.4465 15.9604 15.9454 16.6979C16.5202 17.4118 17.3675 17.8526 18.2821 17.9133C18.2991 17.9157 18.3162 17.9168 18.3333 17.9167C18.5529 17.9158 18.7341 17.7446 18.7475 17.5255C18.7609 17.3063 18.602 17.1144 18.3842 17.0867C17.6959 17.0488 17.0542 16.7271 16.6121 16.1983C16.2014 15.5474 16.0563 14.7636 16.2067 14.0087C16.2232 13.8311 16.1357 13.6599 15.9821 13.5692L14.2112 12.6817C14.1052 12.6345 13.9848 12.6316 13.8766 12.6737C13.7685 12.7158 13.6816 12.7994 13.6354 12.9058L12.6142 15.5833C12.4083 16.1207 11.8059 16.3894 11.2685 16.1835C10.7312 15.9777 10.4625 15.3752 10.6683 14.8379L12.2867 10.5833C12.4945 10.0669 13.0674 9.80041 13.5962 9.97417L18.5825 11.8908C19.3397 12.2609 20.1661 12.4684 21.0083 12.5H21.25V20.8333H19.4667C18.9652 20.8302 18.4748 20.9814 18.0621 21.2663ZM24.1667 21.25C24.1667 21.4801 23.9801 21.6667 23.75 21.6667H22.5C22.2699 21.6667 22.0833 21.4801 22.0833 21.25V12.0833C22.0833 11.8532 22.2699 11.6667 22.5 11.6667H23.75C23.9801 11.6667 24.1667 11.8532 24.1667 12.0833V21.25Z" fill="#111111"/>
<path d="M2.9174 7.50014H5.4174C5.64752 7.50014 5.83407 7.3136 5.83407 7.08348C5.83407 6.85336 5.64752 6.66681 5.4174 6.66681H2.9174C2.68728 6.66681 2.50073 6.85336 2.50073 7.08348C2.50073 7.3136 2.68728 7.50014 2.9174 7.50014Z" fill="#111111"/>
<path d="M7.08158 7.50014H13.7483C13.9784 7.50014 14.1649 7.3136 14.1649 7.08348C14.1649 6.85336 13.9784 6.66681 13.7483 6.66681H7.08158C6.85147 6.66681 6.66492 6.85336 6.66492 7.08348C6.66492 7.3136 6.85147 7.50014 7.08158 7.50014Z" fill="#111111"/>
<path d="M2.9174 9.58315H9.58407C9.81418 9.58315 10.0007 9.3966 10.0007 9.16648C10.0007 8.93637 9.81418 8.74982 9.58407 8.74982H2.9174C2.68728 8.74982 2.50073 8.93637 2.50073 9.16648C2.50073 9.3966 2.68728 9.58315 2.9174 9.58315Z" fill="#111111"/>
<path d="M2.9174 11.6671H5.4174C5.64752 11.6671 5.83407 11.4805 5.83407 11.2504C5.83407 11.0203 5.64752 10.8337 5.4174 10.8337H2.9174C2.68728 10.8337 2.50073 11.0203 2.50073 11.2504C2.50073 11.4805 2.68728 11.6671 2.9174 11.6671Z" fill="#111111"/>
<path d="M9.80242 10.8337H7.08158C6.85147 10.8337 6.66492 11.0203 6.66492 11.2504C6.66492 11.4805 6.85147 11.6671 7.08158 11.6671H9.80242C10.0325 11.6671 10.2191 11.4805 10.2191 11.2504C10.2191 11.0203 10.0325 10.8337 9.80242 10.8337Z" fill="#111111"/>
<path d="M2.9174 13.7501H9.00907C9.23919 13.7501 9.42573 13.5636 9.42573 13.3335C9.42573 13.1034 9.23919 12.9168 9.00907 12.9168H2.9174C2.68728 12.9168 2.50073 13.1034 2.50073 13.3335C2.50073 13.5636 2.68728 13.7501 2.9174 13.7501Z" fill="#111111"/>
<path d="M2.9174 15.8331H5.4174C5.64752 15.8331 5.83407 15.6466 5.83407 15.4165C5.83407 15.1864 5.64752 14.9998 5.4174 14.9998H2.9174C2.68728 14.9998 2.50073 15.1864 2.50073 15.4165C2.50073 15.6466 2.68728 15.8331 2.9174 15.8331Z" fill="#111111"/>
<path d="M7.08158 14.9998C6.85147 14.9998 6.66492 15.1864 6.66492 15.4165C6.66492 15.6466 6.85147 15.8331 7.08158 15.8331H8.52325C8.75337 15.8331 8.93992 15.6466 8.93992 15.4165C8.93992 15.1864 8.75337 14.9998 8.52325 14.9998H7.08158Z" fill="#111111"/>
<path d="M2.9174 17.9171H9.5174C9.74752 17.9171 9.93407 17.7305 9.93407 17.5004C9.93407 17.2703 9.74752 17.0837 9.5174 17.0837H2.9174C2.68728 17.0837 2.50073 17.2703 2.50073 17.5004C2.50073 17.7305 2.68728 17.9171 2.9174 17.9171Z" fill="#111111"/>
<path d="M2.9174 20.0001H5.4174C5.64752 20.0001 5.83407 19.8136 5.83407 19.5835C5.83407 19.3534 5.64752 19.1668 5.4174 19.1668H2.9174C2.68728 19.1668 2.50073 19.3534 2.50073 19.5835C2.50073 19.8136 2.68728 20.0001 2.9174 20.0001Z" fill="#111111"/>
<path d="M13.7483 19.1668H7.08158C6.85147 19.1668 6.66492 19.3534 6.66492 19.5835C6.66492 19.8136 6.85147 20.0001 7.08158 20.0001H13.7483C13.9784 20.0001 14.1649 19.8136 14.1649 19.5835C14.1649 19.3534 13.9784 19.1668 13.7483 19.1668Z" fill="#111111"/>
<path d="M13.7495 21.2498H11.2495C11.0194 21.2498 10.8328 21.4364 10.8328 21.6665C10.8328 21.8966 11.0194 22.0831 11.2495 22.0831H13.7495C13.9796 22.0831 14.1662 21.8966 14.1662 21.6665C14.1662 21.4364 13.9796 21.2498 13.7495 21.2498Z" fill="#111111"/>
<path d="M9.58407 21.2498H2.9174C2.68728 21.2498 2.50073 21.4364 2.50073 21.6665C2.50073 21.8966 2.68728 22.0831 2.9174 22.0831H9.58407C9.81418 22.0831 10.0007 21.8966 10.0007 21.6665C10.0007 21.4364 9.81418 21.2498 9.58407 21.2498Z" fill="#111111"/>
</svg>
