<svg width="25" height="25" viewBox="0 0 25 25" fill="none" xmlns="http://www.w3.org/2000/svg">
<g clip-path="url(#clip0)">
<path d="M6.28835 4.99971H9.23793C9.44115 5.73575 10.1094 6.24662 10.8729 6.24971H14.755C15.4542 6.25026 16.0983 5.86997 16.4355 5.25743C16.7728 4.64489 16.7497 3.89731 16.3753 3.30676C16.0008 2.71621 15.3345 2.37641 14.6367 2.42013C14.2749 1.7061 13.5442 1.25432 12.7438 1.24971C12.2842 1.25039 11.8376 1.40157 11.4721 1.68013C11.0883 1.32544 10.5772 1.1413 10.0554 1.16971C9.69781 0.45035 8.96253 -0.00332609 8.15918 -0.000290032C7.19315 0.00437267 6.35097 0.657979 6.10669 1.59263C5.20327 1.68872 4.5331 2.47511 4.58147 3.38234C4.62984 4.28956 5.37984 5.00023 6.28835 4.99971ZM12.7438 2.08304C13.3114 2.08673 13.8106 2.45917 13.9758 3.00221C14.0405 3.21734 14.2641 3.34248 14.4813 3.28513C14.8879 3.1785 15.3196 3.31681 15.5886 3.63993C15.8576 3.96305 15.9153 4.41263 15.7367 4.79324C15.5581 5.17385 15.1754 5.41676 14.755 5.41638H10.8729C10.3897 5.41638 9.99793 5.02463 9.99793 4.54138C9.99793 4.05813 10.3897 3.66638 10.8729 3.66638C10.9115 3.66637 10.9501 3.66888 10.9883 3.67388C11.1027 3.68992 11.2186 3.65745 11.3079 3.58429C11.3973 3.51105 11.4525 3.40416 11.4604 3.28888C11.5055 2.61243 12.0658 2.08592 12.7438 2.08304ZM6.28835 2.41638C6.33627 2.41638 6.38377 2.42013 6.42794 2.42346C6.53858 2.43231 6.64811 2.3961 6.73168 2.32304C6.81589 2.25076 6.86778 2.14788 6.87585 2.03721C6.91564 1.41467 7.39612 0.910283 8.016 0.840337C8.63587 0.770391 9.21667 1.15503 9.39418 1.75304C9.45938 1.96993 9.68588 2.09503 9.90418 2.03471C9.99141 2.01128 10.0814 1.99952 10.1717 1.99971C10.4519 1.99953 10.7211 2.109 10.9217 2.30471C10.8208 2.47205 10.7438 2.65269 10.6929 2.84138C9.96712 2.92135 9.37239 3.4538 9.21293 4.16638H6.28835C5.8051 4.16638 5.41335 3.77463 5.41335 3.29138C5.41335 2.80813 5.8051 2.41638 6.28835 2.41638Z" fill="#111111"/>
<path d="M24.1677 19.9999H23.751V11.1166L24.3239 11.5749C24.5037 11.7187 24.7659 11.6896 24.9098 11.5099C25.0536 11.3302 25.0245 11.0679 24.8448 10.9241L18.5948 5.92405C18.4426 5.80217 18.2262 5.80217 18.0739 5.92405L14.5889 8.7128L12.7694 7.18072C12.6143 7.05017 12.3878 7.05017 12.2327 7.18072L10.4131 8.7128L6.92811 5.92405C6.77588 5.80217 6.55949 5.80217 6.40727 5.92405L0.157272 10.9241C-0.0224503 11.0679 -0.0515518 11.3302 0.0922724 11.5099C0.236097 11.6896 0.498383 11.7187 0.678106 11.5749L1.25102 11.1166V19.9999H0.834356C0.374118 19.9999 0.00102238 20.373 0.00102238 20.8332V24.1666C0.00102238 24.6268 0.374118 24.9999 0.834356 24.9999H24.1677C24.6279 24.9999 25.001 24.6268 25.001 24.1666V20.8332C25.001 20.373 24.6279 19.9999 24.1677 19.9999ZM18.3344 6.78363L22.9177 10.4503V19.9999H22.0844V13.3332C22.0844 12.873 21.7113 12.4999 21.251 12.4999H19.0844L15.2377 9.26072L18.3344 6.78363ZM19.1677 13.6586L20.1494 14.4853C20.3255 14.6318 20.5869 14.6085 20.7345 14.4332C20.882 14.258 20.8604 13.9964 20.686 13.8478L20.0752 13.3332H21.251V19.9999H19.1677V13.6586ZM12.501 8.04447L18.3344 12.9582V22.0832H17.501V15.4166C17.501 14.9563 17.1279 14.5832 16.6677 14.5832H13.3344C12.8741 14.5832 12.501 14.9563 12.501 15.4166V22.0832H6.66769V12.9582L12.501 8.04447ZM16.6677 18.7499H16.251C16.0209 18.7499 15.8344 18.9364 15.8344 19.1666C15.8344 19.3967 16.0209 19.5832 16.251 19.5832H16.6677V22.0832H13.3344V15.4166H16.6677V18.7499ZM4.26561 14.4349C4.4138 14.6109 4.67665 14.6335 4.85269 14.4853L5.83436 13.6586V19.9999H3.75102V13.3332H4.92686L4.31602 13.8478C4.13999 13.996 4.11741 14.2589 4.26561 14.4349ZM2.08436 10.4499L6.66769 6.78322L9.76311 9.2603L5.91769 12.4999H3.75102C3.29079 12.4999 2.91769 12.873 2.91769 13.3332V19.9999H2.08436V10.4499ZM24.1677 24.1666H0.834356V20.8332H5.83436V22.0832H5.00102C4.7709 22.0832 4.58436 22.2698 4.58436 22.4999C4.58436 22.73 4.7709 22.9166 5.00102 22.9166H20.001C20.2311 22.9166 20.4177 22.73 20.4177 22.4999C20.4177 22.2698 20.2311 22.0832 20.001 22.0832H19.1677V20.8332H24.1677V24.1666Z" fill="#111111"/>
<path d="M8.33422 18.7494H10.8342C11.2944 18.7494 11.6675 18.3763 11.6675 17.916V15.416C11.6675 14.9558 11.2944 14.5827 10.8342 14.5827H8.33422C7.87398 14.5827 7.50089 14.9558 7.50089 15.416V17.916C7.50089 18.3763 7.87398 18.7494 8.33422 18.7494ZM8.33422 15.416H10.8342V17.916H8.33422V15.416Z" fill="#111111"/>
<path d="M20.0015 5C21.3822 5 22.5015 3.88071 22.5015 2.5C22.5015 1.11929 21.3822 0 20.0015 0C18.6208 0 17.5015 1.11929 17.5015 2.5C17.5029 3.88014 18.6214 4.99862 20.0015 5ZM20.0015 0.833333C20.922 0.833333 21.6682 1.57953 21.6682 2.5C21.6682 3.42048 20.922 4.16667 20.0015 4.16667C19.081 4.16667 18.3348 3.42048 18.3348 2.5C18.3348 1.57953 19.081 0.833333 20.0015 0.833333Z" fill="#111111"/>
</g>
<defs>
<clipPath id="clip0">
<rect width="25" height="25" fill="white"/>
</clipPath>
</defs>
</svg>
