<svg width="20" height="20" viewBox="0 0 20 20" fill="none" xmlns="http://www.w3.org/2000/svg">
<path d="M10 6.40625C9.28922 6.40625 8.59441 6.61702 8.00342 7.01191C7.41243 7.40679 6.95181 7.96806 6.67981 8.62473C6.40781 9.2814 6.33664 10.004 6.4753 10.7011C6.61397 11.3982 6.95624 12.0386 7.45884 12.5412C7.96143 13.0438 8.60178 13.386 9.29889 13.5247C9.99601 13.6634 10.7186 13.5922 11.3753 13.3202C12.0319 13.0482 12.5932 12.5876 12.9881 11.9966C13.383 11.4056 13.5938 10.7108 13.5938 10C13.5927 9.04721 13.2137 8.13375 12.54 7.46002C11.8663 6.7863 10.9528 6.40733 10 6.40625ZM10 12.6562C9.47464 12.6562 8.96108 12.5005 8.52427 12.2086C8.08745 11.9167 7.74699 11.5019 7.54595 11.0165C7.3449 10.5311 7.2923 9.99705 7.39479 9.48179C7.49728 8.96653 7.75026 8.49323 8.12175 8.12175C8.49323 7.75026 8.96653 7.49728 9.48179 7.39479C9.99705 7.2923 10.5311 7.3449 11.0165 7.54595C11.5019 7.74699 11.9167 8.08745 12.2086 8.52427C12.5005 8.96108 12.6562 9.47464 12.6562 10C12.6554 10.7042 12.3753 11.3794 11.8774 11.8774C11.3794 12.3753 10.7042 12.6554 10 12.6562ZM13.4375 2.34375H6.5625C5.44401 2.34503 4.3717 2.78992 3.58081 3.58081C2.78992 4.3717 2.34503 5.44401 2.34375 6.5625V13.4375C2.34503 14.556 2.78992 15.6283 3.58081 16.4192C4.3717 17.2101 5.44401 17.655 6.5625 17.6562H13.4375C14.556 17.655 15.6283 17.2101 16.4192 16.4192C17.2101 15.6283 17.655 14.556 17.6562 13.4375V6.5625C17.655 5.44401 17.2101 4.3717 16.4192 3.58081C15.6283 2.78992 14.556 2.34503 13.4375 2.34375ZM16.7188 13.4375C16.7178 14.3074 16.3718 15.1415 15.7566 15.7566C15.1415 16.3718 14.3074 16.7178 13.4375 16.7188H6.5625C5.69256 16.7178 4.85852 16.3718 4.24338 15.7566C3.62824 15.1415 3.28222 14.3074 3.28125 13.4375V6.5625C3.28222 5.69256 3.62824 4.85852 4.24338 4.24338C4.85852 3.62824 5.69256 3.28222 6.5625 3.28125H13.4375C14.3074 3.28222 15.1415 3.62824 15.7566 4.24338C16.3718 4.85852 16.7178 5.69256 16.7188 6.5625V13.4375ZM14.8438 5.9375C14.8438 6.09202 14.7979 6.24306 14.7121 6.37154C14.6262 6.50002 14.5042 6.60015 14.3615 6.65928C14.2187 6.71841 14.0616 6.73388 13.9101 6.70374C13.7585 6.67359 13.6193 6.59919 13.5101 6.48993C13.4008 6.38067 13.3264 6.24146 13.2963 6.08991C13.2661 5.93837 13.2816 5.78128 13.3407 5.63853C13.3998 5.49577 13.5 5.37376 13.6285 5.28791C13.7569 5.20207 13.908 5.15625 14.0625 5.15625C14.2696 5.1565 14.4682 5.23889 14.6147 5.38535C14.7611 5.53181 14.8435 5.73038 14.8438 5.9375Z" fill="#000080"/>
</svg>
