<svg width="25" height="25" viewBox="0 0 25 25" fill="none" xmlns="http://www.w3.org/2000/svg">
<g clip-path="url(#clip0)">
<path d="M24.5833 23.3331H24.09C24.2487 22.9026 24.1521 22.4194 23.84 22.0831C24.0487 21.8555 24.1651 21.5585 24.1667 21.2497V14.1664C24.1653 13.0164 23.2334 12.0844 22.0833 12.0831H13.75C12.6 12.0844 11.668 13.0164 11.6667 14.1664V15.4518C10.7737 14.9351 10.0662 14.9997 9.32542 14.9997C8.74911 14.493 8.55231 13.6793 8.83333 12.9651C9.95661 12.4706 10.8414 11.5556 11.2979 10.4164C12.1031 10.3948 12.777 9.79902 12.8972 9.00252C13.0174 8.20602 12.5493 7.43795 11.7863 7.17973C12.0696 6.1489 12.5075 3.68556 10.6312 2.55973C8.44917 1.24973 3.11375 3.21265 2.03958 1.06348C1.95676 0.897357 1.77403 0.80606 1.59145 0.83958C1.40888 0.873101 1.2705 1.02335 1.25208 1.20806C1.23667 1.36306 0.951667 4.45223 2.50208 5.97056V7.13723C1.69952 7.34536 1.17198 8.11176 1.26411 8.93574C1.35624 9.75972 2.04004 10.3907 2.86875 10.4164C3.32529 11.5556 4.21006 12.4706 5.33333 12.9651C5.61435 13.6793 5.41756 14.493 4.84125 14.9997H4.16667C2.32657 15.0018 0.8354 16.493 0.833333 18.3331V22.0831C0.834865 22.5353 0.985081 22.9746 1.26083 23.3331H0.416667C0.186548 23.3331 0 23.5196 0 23.7497C0 23.9799 0.186548 24.1664 0.416667 24.1664H24.5833C24.8135 24.1664 25 23.9799 25 23.7497C25 23.5196 24.8135 23.3331 24.5833 23.3331ZM12.5 14.1664C12.5 13.476 13.0596 12.9164 13.75 12.9164H22.0833C22.7737 12.9164 23.3333 13.476 23.3333 14.1664V21.2497C23.3333 21.4799 23.1468 21.6664 22.9167 21.6664H12.9167C12.6865 21.6664 12.5 21.4799 12.5 21.2497V14.1664ZM10.2021 3.27348C11.2408 3.89848 11.2854 5.19598 11.1467 6.16181C10.4958 5.44803 9.56416 5.05619 8.59875 5.09015C7.29375 5.11015 6.79625 5.7414 5.66125 5.96806C5.0692 6.09875 4.45226 6.05932 3.88167 5.85431C2.44542 5.37556 2.1225 3.52098 2.06792 2.32931C4.11458 3.74265 8.51167 2.2589 10.2021 3.27348ZM3.54542 9.8439C3.47823 9.64092 3.26831 9.52174 3.05958 9.56806C2.74701 9.62795 2.42763 9.50457 2.23649 9.25011C2.04535 8.99564 2.01583 8.65453 2.16042 8.37102C2.30501 8.0875 2.59845 7.9111 2.91667 7.9164C3.14679 7.9164 3.33333 7.72985 3.33333 7.49973V6.53556C4.1176 6.87575 4.98836 6.96313 5.82458 6.78556C7.03083 6.54473 7.56417 5.94015 8.61125 5.9239C9.6425 5.90515 10.7629 6.46556 10.8342 7.52806C10.8542 7.74426 11.0329 7.91119 11.25 7.9164C11.5682 7.9111 11.8617 8.0875 12.0062 8.37102C12.1508 8.65453 12.1213 8.99564 11.9302 9.25011C11.739 9.50457 11.4197 9.62795 11.1071 9.56806C10.8984 9.52174 10.6884 9.64092 10.6212 9.8439C10.1389 11.4001 8.71229 12.471 7.08333 12.4997C5.45438 12.471 4.02779 11.4001 3.54542 9.8439ZM6.24125 13.2481C6.79692 13.3614 7.36975 13.3614 7.92542 13.2481C7.76862 14.1153 8.07436 15.0016 8.7325 15.5876C8.64927 16.4361 7.93585 17.0829 7.08333 17.0829C6.23081 17.0829 5.5174 16.4361 5.43417 15.5876C6.09174 15.0019 6.39744 14.1164 6.24125 13.2497V13.2481ZM1.66667 22.0831V18.3331C1.66804 16.9529 2.78653 15.8344 4.16667 15.8331H4.61792C4.82027 17.037 5.86254 17.9187 7.08333 17.9187C8.30413 17.9187 9.34639 17.037 9.54875 15.8331H10C10.6158 15.8348 11.2092 16.0637 11.6667 16.476V21.2497C11.6678 21.5582 11.7836 21.8553 11.9917 22.0831C11.6795 22.4194 11.5829 22.9026 11.7417 23.3331H10.6C10.901 22.8195 10.904 22.1841 10.608 21.6676C10.3119 21.1512 9.76196 20.8328 9.16667 20.8331H3.75C3.51988 20.8331 3.33333 21.0196 3.33333 21.2497C3.33333 21.4799 3.51988 21.6664 3.75 21.6664H7.5V23.3331H2.91667C2.22631 23.3331 1.66667 22.7734 1.66667 22.0831ZM8.33333 23.3331V21.6664H9.16667C9.6269 21.6664 10 22.0395 10 22.4997C10 22.96 9.6269 23.3331 9.16667 23.3331H8.33333ZM12.9167 23.3331C12.6865 23.3331 12.5 23.1465 12.5 22.9164C12.5 22.6863 12.6865 22.4997 12.9167 22.4997H22.9167C23.1468 22.4997 23.3333 22.6863 23.3333 22.9164C23.3333 23.1465 23.1468 23.3331 22.9167 23.3331H12.9167Z" fill="#111111"/>
<path d="M17.9159 19.1668C18.8364 19.1668 19.5826 18.4206 19.5826 17.5001C19.5826 16.5796 18.8364 15.8334 17.9159 15.8334C16.9955 15.8334 16.2493 16.5796 16.2493 17.5001C16.2493 18.4206 16.9955 19.1668 17.9159 19.1668ZM17.9159 16.6668C18.3762 16.6668 18.7493 17.0399 18.7493 17.5001C18.7493 17.9603 18.3762 18.3334 17.9159 18.3334C17.4557 18.3334 17.0826 17.9603 17.0826 17.5001C17.0826 17.0399 17.4557 16.6668 17.9159 16.6668Z" fill="#111111"/>
</g>
<defs>
<clipPath id="clip0">
<rect width="25" height="25" fill="white"/>
</clipPath>
</defs>
</svg>
