<svg width="22" height="22" viewBox="0 0 22 22" fill="none" xmlns="http://www.w3.org/2000/svg">
<g clip-path="url(#clip0)">
<path d="M20.8718 3.66669H1.12823C0.507676 3.66669 0 4.17436 0 4.79487V17.2052C0 17.8256 0.507676 18.3334 1.12823 18.3334H20.8718C21.4923 18.3334 22 17.8257 22 17.2052V4.79487C22 4.17436 21.4923 3.66669 20.8718 3.66669ZM20.4484 4.51278L11.649 11.1129C11.4908 11.2333 11.2479 11.3086 11 11.3075C10.752 11.3086 10.5092 11.2333 10.351 11.1129L1.55156 4.51278H20.4484ZM15.748 11.5484L20.5429 17.4715C20.5477 17.4774 20.5536 17.4819 20.5587 17.4873H1.44126C1.44633 17.4817 1.45226 17.4774 1.45707 17.4715L6.25195 11.5484C6.39886 11.3667 6.37102 11.1005 6.18905 10.9532C6.00742 10.8063 5.74114 10.8341 5.59419 11.0158L0.846141 16.8811V5.04164L9.84354 11.7897C10.1817 12.0416 10.5932 12.1525 10.9999 12.1536C11.4061 12.1527 11.8179 12.0419 12.1563 11.7897L21.1537 5.04164V16.881L16.4058 11.0158C16.2588 10.8342 15.9923 10.8062 15.8109 10.9532C15.629 11.1001 15.6011 11.3667 15.748 11.5484Z" fill="#FF1E1E"/>
</g>
<defs>
<clipPath id="clip0">
<rect width="22" height="22" fill="white"/>
</clipPath>
</defs>
</svg>
