<svg width="46" height="30" viewBox="0 0 46 30" fill="none" xmlns="http://www.w3.org/2000/svg">
<path d="M42.7435 1H3.25646C2.01535 1 1 1.99225 1 3.20504V27.4609C1 28.6736 2.01535 29.666 3.25646 29.666H42.7435C43.9845 29.666 45 28.6738 45 27.4609V3.20504C44.9999 1.99225 43.9846 1 42.7435 1ZM41.8967 2.6537L24.298 15.5535C23.9815 15.7889 23.4958 15.9361 22.9999 15.9339C22.504 15.9361 22.0184 15.7889 21.7019 15.5535L4.10311 2.6537H41.8967ZM32.496 16.4047L42.0858 27.9814C42.0954 27.993 42.1072 28.0018 42.1174 28.0123H3.88251C3.89265 28.0013 3.90451 27.993 3.91413 27.9814L13.5039 16.4047C13.7977 16.0497 13.742 15.5293 13.3781 15.2415C13.0148 14.9543 12.4823 15.0088 12.1884 15.3638L2.69228 26.8275V3.68735L20.687 16.8764C21.3635 17.3687 22.1864 17.5854 22.9998 17.5876C23.8121 17.5859 24.6357 17.3692 25.3125 16.8764L43.3073 3.68735V26.8273L33.8115 15.3638C33.5176 15.0088 32.9845 14.9542 32.6218 15.2415C32.2579 15.5286 32.202 16.0497 32.496 16.4047Z" fill="#FF1E1E" stroke="#FF1E1E" stroke-width="0.5"/>
</svg>
