<svg width="21" height="31" viewBox="0 0 21 31" fill="none" xmlns="http://www.w3.org/2000/svg">
<path d="M10.2114 1C4.57448 1.00644 0.00644293 5.57448 0 11.2114C0 16.6853 9.42516 28.9793 9.82632 29.4996L10.2114 30L10.5966 29.4996C10.9977 28.9793 20.4229 16.6853 20.4229 11.2114C20.4164 5.57448 15.8484 1.00644 10.2114 1ZM10.2114 28.3963C8.41666 25.9937 0.972518 15.7599 0.972518 11.2114C0.972518 6.10894 5.10894 1.97252 10.2114 1.97252C15.3139 1.97252 19.4504 6.10894 19.4504 11.2114C19.4504 15.7589 12.0062 25.9937 10.2114 28.3963Z" fill="#FF1E1E"/>
<path d="M10.2124 7.80762C8.33253 7.80762 6.80859 9.33155 6.80859 11.2114C6.80859 13.0913 8.33253 14.6152 10.2124 14.6152C12.0923 14.6152 13.6162 13.0913 13.6162 11.2114C13.6141 9.33246 12.0914 7.80974 10.2124 7.80762ZM10.2124 13.6427C8.86966 13.6427 7.78111 12.5542 7.78111 11.2114C7.78111 9.86869 8.86966 8.78014 10.2124 8.78014C11.5552 8.78014 12.6437 9.86869 12.6437 11.2114C12.6421 12.5535 11.5545 13.6411 10.2124 13.6427Z" fill="#FF1E1E"/>
<path fill-rule="evenodd" clip-rule="evenodd" d="M6.55859 11.2114C6.55859 9.19348 8.19446 7.55762 10.2124 7.55762H10.2127C12.2295 7.5599 13.8639 9.19433 13.8662 11.2111V11.2114C13.8662 13.2294 12.2304 14.8652 10.2124 14.8652C8.19446 14.8652 6.55859 13.2294 6.55859 11.2114ZM10.2123 8.05762C8.47053 8.05769 7.05859 9.46967 7.05859 11.2114C7.05859 12.9532 8.4706 14.3652 10.2124 14.3652C11.9541 14.3652 13.3661 12.9534 13.3662 11.2117C13.3642 9.47065 11.9533 8.05967 10.2123 8.05762ZM10.2124 9.03014C9.00773 9.03014 8.03111 10.0068 8.03111 11.2114C8.03111 12.416 9.00758 13.3926 10.2121 13.3927C11.4163 13.3913 12.3923 12.4154 12.3937 11.2111C12.3935 10.0066 11.417 9.03014 10.2124 9.03014ZM7.53111 11.2114C7.53111 9.73062 8.73159 8.53014 10.2124 8.53014C11.6932 8.53014 12.8937 9.73062 12.8937 11.2114V11.2117C12.892 12.6916 11.6926 13.891 10.2127 13.8927H10.2124C8.73159 13.8927 7.53111 12.6922 7.53111 11.2114Z" fill="#FF1E1E"/>
</svg>
