<svg width="18" height="16" viewBox="0 0 18 16" fill="none" xmlns="http://www.w3.org/2000/svg">
<path fill-rule="evenodd" clip-rule="evenodd" d="M0 5.5C0 5.22386 0.223858 5 0.5 5H17.5C17.7761 5 18 5.22386 18 5.5C18 5.77614 17.7761 6 17.5 6H0.5C0.223858 6 0 5.77614 0 5.5Z" fill="white"/>
<path fill-rule="evenodd" clip-rule="evenodd" d="M0 10.5C0 10.2239 0.223858 10 0.5 10H11.5C11.7761 10 12 10.2239 12 10.5C12 10.7761 11.7761 11 11.5 11H0.5C0.223858 11 0 10.7761 0 10.5Z" fill="white"/>
<path fill-rule="evenodd" clip-rule="evenodd" d="M0 0.5C0 0.223858 0.223858 0 0.5 0H7.5C7.77614 0 8 0.223858 8 0.5C8 0.776142 7.77614 1 7.5 1H0.5C0.223858 1 0 0.776142 0 0.5Z" fill="white"/>
<path fill-rule="evenodd" clip-rule="evenodd" d="M0 15.5C0 15.2239 0.223858 15 0.5 15H17.5C17.7761 15 18 15.2239 18 15.5C18 15.7761 17.7761 16 17.5 16H0.5C0.223858 16 0 15.7761 0 15.5Z" fill="white"/>
</svg>
