<svg width="15" height="15" viewBox="0 0 15 15" fill="none" xmlns="http://www.w3.org/2000/svg">
<path d="M1.875 2.8125V4.06661C1.875 9.07169 5.93242 13.1291 10.9375 13.1291H12.1875C12.7053 13.1291 13.125 12.7094 13.125 12.1916V10.5885C13.125 10.1849 12.8668 9.82667 12.484 9.69906L10.4944 9.03588C10.0934 8.90219 9.65243 9.05348 9.41792 9.40524L8.96232 10.0886C8.72781 10.4404 8.28688 10.5917 7.8858 10.458L6.93243 10.1402C5.95476 9.81432 5.20465 9.02138 4.93349 8.02714L4.54158 6.59013C4.41066 6.1101 4.67755 5.61141 5.14958 5.45407L5.52618 5.32854C5.92017 5.19721 6.16007 4.79876 6.09179 4.38911L5.80334 2.65838C5.72799 2.20632 5.33688 1.875 4.87859 1.875H2.8125C2.29473 1.875 1.875 2.29473 1.875 2.8125ZM1.25 2.8125C1.25 1.94956 1.94956 1.25 2.8125 1.25H4.87859C5.6424 1.25 6.29426 1.80221 6.41983 2.55563L6.70829 4.28636C6.82712 4.99937 6.40958 5.69288 5.72382 5.92146L5.34722 6.047C5.18988 6.09944 5.10092 6.26567 5.14455 6.42568L5.53647 7.86269C5.75264 8.65533 6.35065 9.28748 7.13007 9.54729L8.08345 9.86508C8.21714 9.90964 8.36411 9.85921 8.44228 9.74196L8.89789 9.05855C9.28874 8.47228 10.0236 8.22014 10.6921 8.44295L12.6816 9.10613C13.3196 9.31881 13.75 9.9159 13.75 10.5885V12.1916C13.75 13.0546 13.0504 13.7541 12.1875 13.7541H10.9375C5.58724 13.7541 1.25 9.41687 1.25 4.06661V2.8125Z" fill="#111111"/>
</svg>
