<svg width="22" height="22" viewBox="0 0 22 22" fill="none" xmlns="http://www.w3.org/2000/svg">
<path d="M21.4227 16.971L16.9698 14.0015C16.4047 13.6277 15.6473 13.7507 15.2295 14.2841L13.9324 15.9518C13.7657 16.1716 13.4627 16.2354 13.2216 16.1014L12.9748 15.9654C12.1569 15.5196 11.1392 14.9646 9.08876 12.9134C7.0383 10.8622 6.48215 9.84371 6.03633 9.0273L5.90104 8.78057C5.76524 8.53946 5.82779 8.23516 6.04767 8.06713L7.71427 6.77044C8.24752 6.35263 8.37069 5.59538 7.9973 5.03012L5.02774 0.577245C4.64508 0.00163513 3.87734 -0.17116 3.28493 0.184956L1.4229 1.30348C0.837838 1.64744 0.408601 2.20449 0.225195 2.8579C-0.445319 5.301 0.0591021 9.51741 6.27026 15.7293C11.2111 20.6698 14.8893 21.9984 17.4175 21.9984C17.9993 22.0009 18.5789 21.9252 19.1406 21.7733C19.7941 21.5901 20.3513 21.1608 20.695 20.5756L21.8146 18.7147C22.1713 18.1221 21.9986 17.3539 21.4227 16.971ZM21.1829 18.3385L20.0659 20.2005C19.819 20.6229 19.4183 20.9335 18.9477 21.0672C16.6923 21.6864 12.7519 21.1735 6.78899 15.2106C0.826024 9.24761 0.313182 5.30762 0.932399 3.05188C1.06627 2.58067 1.37723 2.17944 1.80015 1.93224L3.66218 0.815171C3.91923 0.660506 4.25244 0.735475 4.41849 0.985259L6.0316 3.40709L7.38552 5.43775C7.54766 5.68294 7.49439 6.01156 7.26308 6.19299L5.59609 7.48968C5.08879 7.87758 4.94392 8.57946 5.25626 9.13651L5.38863 9.37701C5.85718 10.2363 6.4397 11.3054 8.56643 13.4318C10.6931 15.5581 11.7618 16.1407 12.6208 16.6092L12.8616 16.7419C13.4186 17.0542 14.1206 16.9093 14.5085 16.4021L15.8052 14.7351C15.9866 14.5039 16.3151 14.4507 16.5604 14.6126L21.0129 17.5822C21.2628 17.7481 21.3378 18.0815 21.1829 18.3385Z" fill="#FF1E1E"/>
</svg>
