<svg width="100" height="100" viewBox="0 0 100 100" fill="none" xmlns="http://www.w3.org/2000/svg">
<path d="M50 100C77.6143 100 100 77.6142 100 50C100 22.3858 77.6143 0 50 0C22.3858 0 0 22.3858 0 50C0 77.6142 22.3858 100 50 100Z" fill="#D0D0D0"/>
<path d="M50.0065 85.6844C30.3252 85.6844 14.3154 69.6704 14.3154 49.9934C14.3154 30.3164 30.3252 14.3066 50.0065 14.3066C69.6877 14.3066 85.6975 30.3207 85.6975 49.9977C85.6975 69.6747 69.6877 85.6844 50.0065 85.6844Z" fill="#514D42"/>
<path d="M63.4014 67.7646H34.0443V60.5706L43.9222 50.582C46.7445 47.6306 48.5891 45.62 49.4561 44.5501C50.323 43.4618 50.9225 42.5303 51.2546 41.7555C51.605 40.9808 51.7803 40.1692 51.7803 39.3206C51.7803 38.2692 51.439 37.4391 50.7565 36.8304C50.074 36.2217 49.1148 35.9173 47.8789 35.9173C46.6061 35.9173 45.3149 36.2862 44.0052 37.0241C42.714 37.7435 41.2475 38.8134 39.6058 40.2337L33.6016 33.2057C35.686 31.3427 37.4384 30.0145 38.8587 29.2214C40.2791 28.4097 41.8193 27.7918 43.4795 27.3675C45.1581 26.9433 47.0396 26.7311 49.124 26.7311C51.7434 26.7311 54.0768 27.1923 56.1243 28.1146C58.1903 29.0369 59.7859 30.3558 60.9111 32.0713C62.0548 33.7683 62.6266 35.6775 62.6266 37.7988C62.6266 39.3852 62.4237 40.8517 62.0179 42.1982C61.6305 43.5448 61.0218 44.8729 60.1917 46.1826C59.3617 47.4739 58.2549 48.8389 56.8714 50.2777C55.5064 51.7165 52.5827 54.4465 48.1003 58.4678V58.7445H63.4014V67.7646Z" fill="white"/>
</svg>
