<svg width="77" height="69" viewBox="0 0 77 69" fill="none" xmlns="http://www.w3.org/2000/svg">
<path d="M76.6725 7.64641C76.6699 9.53725 75.9174 11.3499 74.5799 12.6868C73.2425 14.0238 71.4294 14.7759 69.5381 14.7782H45.7694V62.1733C45.7694 65.544 42.5708 68.2889 38.6419 68.2889C34.713 68.2889 31.5056 65.544 31.5056 62.1733V14.7782H8.04931C4.01202 14.7782 0.668932 11.6389 0.602539 7.77332C0.586874 6.82619 0.759754 5.88539 1.11112 5.00568C1.46249 4.12596 1.98533 3.32489 2.64923 2.64906C3.31312 1.97323 4.10482 1.43615 4.97825 1.06905C5.85168 0.701951 6.7894 0.512166 7.73687 0.510742H69.5411C71.4325 0.513067 73.2458 1.2653 74.5832 2.60245C75.9207 3.93959 76.6731 5.75248 76.6754 7.64349" fill="#FF0000"/>
</svg>
