<svg width="19" height="17" viewBox="0 0 19 17" fill="none" xmlns="http://www.w3.org/2000/svg">
<path d="M18.7066 0.465417C18.4746 0.165257 18.1269 0 17.7277 0C17.5107 0 17.2808 0.0482894 17.0445 0.143795L0.961395 6.63649C0.107879 6.98096 -0.00707314 7.49788 0.000319737 7.77535C0.00771261 8.05282 0.150207 8.56209 1.02083 8.85504C1.02605 8.85673 1.03126 8.85841 1.03648 8.85995L4.37256 9.86958L6.17671 15.3255C6.42271 16.0693 6.97485 16.5314 7.61789 16.5314C8.02334 16.5314 8.42212 16.3517 8.77118 16.012L10.8347 14.0027L13.8276 16.5513C13.8279 16.5516 13.8283 16.5518 13.8286 16.5521L13.857 16.5763C13.8597 16.5784 13.8624 16.5807 13.865 16.5829C14.1977 16.8557 14.5608 16.9998 14.9155 17H14.9157C15.6087 17 16.1606 16.4575 16.3213 15.618L18.9565 1.85722C19.0624 1.30489 18.9736 0.810648 18.7066 0.465417ZM5.48859 9.6778L11.9249 6.20051L7.91723 10.704C7.85156 10.7777 7.80503 10.868 7.78213 10.9663L7.00935 14.2766L5.48859 9.6778ZM8.01696 15.1458C7.99029 15.1718 7.96347 15.1949 7.93665 15.2162L8.65362 12.1453L9.95781 13.256L8.01696 15.1458ZM17.8654 1.62344L15.2302 15.3844C15.2049 15.5161 15.1238 15.8225 14.9155 15.8225C14.8126 15.8225 14.6833 15.7632 14.551 15.6554L11.1595 12.7676C11.1591 12.7671 11.1585 12.7666 11.1579 12.7663L9.13995 11.0478L14.9355 4.53521C15.1211 4.32673 15.1379 4.0074 14.9754 3.77837C14.8128 3.54934 14.5181 3.47729 14.277 3.6076L4.74481 8.75754L1.36336 7.73442L17.4416 1.24372C17.5774 1.18884 17.6722 1.17734 17.7277 1.17734C17.7618 1.17734 17.8224 1.18163 17.8449 1.21091C17.8744 1.24908 17.9121 1.37924 17.8654 1.62344Z" fill="#2AA1DA"/>
</svg>
