<svg width="42" height="42" viewBox="0 0 42 42" fill="none" xmlns="http://www.w3.org/2000/svg">
<ellipse cx="37" cy="20" rx="4" ry="4" transform="rotate(-90 37 20)" fill="#FF1E1E"/>
<mask id="path-2-inside-1" fill="white">
<path d="M37.928 13.0943C38.9352 12.6423 39.3934 11.4534 38.8468 10.4944C36.8332 6.96126 33.8187 4.08247 30.1632 2.235C25.9108 0.0858486 21.0492 -0.537213 16.3922 0.470123C11.7353 1.47746 7.56574 4.05405 4.58168 7.76851C1.59763 11.483 -0.0198054 16.1098 0.000181991 20.8744C0.0201693 25.639 1.67636 30.2522 4.69148 33.9414C7.70659 37.6307 11.8976 40.1723 16.5628 41.1405C21.2281 42.1087 26.0843 41.4449 30.3185 39.2601C33.9584 37.3821 36.9487 34.4781 38.9325 30.9282C39.471 29.9646 39.0028 28.7796 37.992 28.3361L37.4064 28.0792C36.3956 27.6357 35.2269 28.1038 34.6619 29.0522C33.1236 31.6347 30.8871 33.7489 28.1923 35.1394C24.9026 36.8368 21.1297 37.3525 17.5051 36.6003C13.8806 35.848 10.6244 33.8735 8.28191 31.0071C5.93938 28.1408 4.65263 24.5567 4.6371 20.855C4.62157 17.1532 5.8782 13.5585 8.19661 10.6726C10.515 7.78673 13.7544 5.7849 17.3726 5.00227C20.9907 4.21964 24.7678 4.70372 28.0717 6.37345C30.778 7.74124 33.0322 9.83661 34.5921 12.4061C35.165 13.3497 36.3375 13.8081 37.3446 13.3561L37.928 13.0943Z"/>
</mask>
<path d="M37.928 13.0943C38.9352 12.6423 39.3934 11.4534 38.8468 10.4944C36.8332 6.96126 33.8187 4.08247 30.1632 2.235C25.9108 0.0858486 21.0492 -0.537213 16.3922 0.470123C11.7353 1.47746 7.56574 4.05405 4.58168 7.76851C1.59763 11.483 -0.0198054 16.1098 0.000181991 20.8744C0.0201693 25.639 1.67636 30.2522 4.69148 33.9414C7.70659 37.6307 11.8976 40.1723 16.5628 41.1405C21.2281 42.1087 26.0843 41.4449 30.3185 39.2601C33.9584 37.3821 36.9487 34.4781 38.9325 30.9282C39.471 29.9646 39.0028 28.7796 37.992 28.3361L37.4064 28.0792C36.3956 27.6357 35.2269 28.1038 34.6619 29.0522C33.1236 31.6347 30.8871 33.7489 28.1923 35.1394C24.9026 36.8368 21.1297 37.3525 17.5051 36.6003C13.8806 35.848 10.6244 33.8735 8.28191 31.0071C5.93938 28.1408 4.65263 24.5567 4.6371 20.855C4.62157 17.1532 5.8782 13.5585 8.19661 10.6726C10.515 7.78673 13.7544 5.7849 17.3726 5.00227C20.9907 4.21964 24.7678 4.70372 28.0717 6.37345C30.778 7.74124 33.0322 9.83661 34.5921 12.4061C35.165 13.3497 36.3375 13.8081 37.3446 13.3561L37.928 13.0943Z" fill="#111111" stroke="#111111" stroke-width="2" stroke-linecap="round" mask="url(#path-2-inside-1)"/>
</svg>
