<svg width="19" height="17" viewBox="0 0 19 17" fill="none" xmlns="http://www.w3.org/2000/svg">
<path d="M0.275977 14.4529C2.03506 15.6279 4.08231 16.2487 6.19606 16.2487C9.29148 16.2487 12.128 14.997 14.184 12.7245C16.1513 10.5495 17.2335 7.62702 17.1796 4.66119C17.9254 3.98952 18.8026 2.70702 18.8026 1.45702C18.8026 0.977856 18.3086 0.673689 17.908 0.917856C17.2073 1.35119 16.5685 1.46452 15.9114 1.27036C14.5695 -0.106311 12.5721 -0.396311 10.8891 0.558689C9.41814 1.39202 8.60035 2.91702 8.67398 4.58369C6.18893 4.26452 3.8931 2.95286 2.29235 0.914522C2.02952 0.582022 1.53077 0.621189 1.32177 0.997855C0.550685 2.38786 0.558602 3.99869 1.22914 5.29952C0.910102 5.35869 0.712977 5.64119 0.712977 5.94702C0.712977 7.25452 1.27189 8.45619 2.17202 9.27619C2.00419 9.44619 1.94877 9.69869 2.02002 9.92369C2.41585 11.1754 3.31202 12.1537 4.43223 12.6437C3.21385 13.2562 1.86643 13.4604 0.66706 13.3054C0.0463938 13.217 -0.259981 14.0954 0.275977 14.4529ZM6.35835 12.8579C6.80248 12.4987 6.56656 11.7504 6.00923 11.7379C5.02756 11.7162 4.13377 11.207 3.57723 10.4062C3.8456 10.3879 4.12348 10.3445 4.38789 10.2695C4.99035 10.0979 4.96185 9.18285 4.34989 9.05369C3.23918 8.81869 2.36756 7.96702 2.0406 6.87036C2.33906 6.94786 2.64306 6.99119 2.94627 6.99702C3.54714 7.00035 3.77435 6.18952 3.28431 5.85036C2.17993 5.08452 1.70889 3.73202 2.02081 2.46036C3.94931 4.51702 6.56577 5.75619 9.33343 5.89619C9.73006 5.92202 10.0277 5.52952 9.94064 5.13202C9.5646 3.41619 10.475 2.21369 11.4527 1.65952C12.4201 1.10952 13.9734 0.937856 15.1641 2.25286C15.5179 2.64536 16.7118 2.66036 17.319 2.51119C17.0466 3.05119 16.6278 3.56369 16.236 3.85202C16.0689 3.97536 15.9731 4.18036 15.9834 4.39452C16.1109 7.13202 15.1419 9.85369 13.325 11.8612C11.4947 13.8837 8.96373 14.9979 6.19685 14.9979C5.09643 14.9979 4.01739 14.8095 2.99773 14.4462C4.21689 14.1979 5.3751 13.6545 6.35835 12.8579Z" fill="#ACA9A9"/>
</svg>
