<svg width="24" height="24" viewBox="0 0 24 24" fill="none" xmlns="http://www.w3.org/2000/svg">
<path fill-rule="evenodd" clip-rule="evenodd" d="M12 2.75C10.2051 2.75 8.75 4.20507 8.75 6C8.75 7.79493 10.2051 9.25 12 9.25C13.7949 9.25 15.25 7.79493 15.25 6C15.25 4.20507 13.7949 2.75 12 2.75ZM7.25 6C7.25 3.37665 9.37665 1.25 12 1.25C14.6234 1.25 16.75 3.37665 16.75 6C16.75 8.62335 14.6234 10.75 12 10.75C9.37665 10.75 7.25 8.62335 7.25 6Z" fill="#FF1E1E"/>
<path fill-rule="evenodd" clip-rule="evenodd" d="M2.25 22C2.25 16.6152 6.61524 12.25 12 12.25C13.3435 12.25 14.6253 12.5222 15.7919 13.015C16.1735 13.1763 16.3521 13.6163 16.1909 13.9978C16.0297 14.3794 15.5897 14.558 15.2081 14.3968C14.2229 13.9805 13.1393 13.75 12 13.75C7.44366 13.75 3.75 17.4437 3.75 22C3.75 22.4142 3.41421 22.75 3 22.75C2.58579 22.75 2.25 22.4142 2.25 22Z" fill="#FF1E1E"/>
<path fill-rule="evenodd" clip-rule="evenodd" d="M15.5 19.5C15.5 19.2239 15.7239 19 16 19H21C21.2761 19 21.5 19.2239 21.5 19.5C21.5 19.7761 21.2761 20 21 20H16C15.7239 20 15.5 19.7761 15.5 19.5Z" fill="#FF1E1E"/>
<path fill-rule="evenodd" clip-rule="evenodd" d="M18.5 16.5C18.7761 16.5 19 16.7239 19 17V22C19 22.2761 18.7761 22.5 18.5 22.5C18.2239 22.5 18 22.2761 18 22V17C18 16.7239 18.2239 16.5 18.5 16.5Z" fill="#FF1E1E"/>
</svg>
