<svg width="31" height="30" viewBox="0 0 31 30" fill="none" xmlns="http://www.w3.org/2000/svg">
<path d="M23.8816 29.5181C23.592 29.5173 23.3033 29.4855 23.0204 29.4234C17.6356 28.3094 12.6747 25.6977 8.70877 21.8886C4.82746 18.0712 2.13556 13.2109 0.958773 7.89559C0.820015 7.23314 0.854072 6.54614 1.05767 5.90067C1.26126 5.25519 1.62754 4.67298 2.12127 4.21003L5.56572 0.894756C5.74165 0.728378 5.95069 0.60097 6.17919 0.520846C6.40769 0.440722 6.65052 0.409683 6.89183 0.429756C7.14204 0.455859 7.38349 0.536459 7.59921 0.665888C7.81492 0.795318 7.99966 0.970434 8.14044 1.17892L12.446 7.54253C12.6075 7.78945 12.6854 8.08167 12.6683 8.3762C12.6513 8.67073 12.5402 8.95201 12.3513 9.17864L10.1899 11.762C11.0507 13.6671 12.2698 15.389 13.7807 16.8339C15.2819 18.3312 17.0562 19.5268 19.0077 20.3559L21.6857 18.2289C21.9106 18.0512 22.1843 17.9461 22.4704 17.9276C22.7565 17.9091 23.0415 17.9782 23.2874 18.1256L29.7888 22.3278C30.0119 22.461 30.202 22.643 30.3447 22.8601C30.4875 23.0772 30.5794 23.3238 30.6133 23.5814C30.6473 23.839 30.6225 24.101 30.5409 24.3477C30.4592 24.5944 30.3228 24.8194 30.1418 25.0059L26.7835 28.3298C26.402 28.7094 25.9492 29.0098 25.4512 29.2137C24.9532 29.4177 24.4197 29.5211 23.8816 29.5181ZM6.75405 2.13476L3.30961 5.45003C3.03186 5.70884 2.82625 6.03549 2.71302 6.39784C2.59978 6.7602 2.58281 7.14579 2.66377 7.5167C3.75801 12.5044 6.27331 17.0684 9.90572 20.6573C13.6379 24.2408 18.3064 26.6974 23.3735 27.7442C23.757 27.8244 24.1545 27.8081 24.5302 27.6969C24.9059 27.5857 25.2482 27.383 25.5263 27.107L28.8846 23.7831L22.6071 19.7273L19.731 22.0178C19.6209 22.105 19.4911 22.1639 19.3531 22.1894C19.215 22.2149 19.0728 22.2062 18.9388 22.1642C16.5507 21.2843 14.3865 19.8876 12.601 18.0739C10.7542 16.3493 9.3207 14.2299 8.40738 11.8739C8.36875 11.7313 8.36746 11.5811 8.40366 11.4378C8.43985 11.2946 8.51231 11.163 8.61405 11.0559L10.9391 8.27448L6.75405 2.13476Z" fill="#111111" stroke="white" stroke-width="0.5"/>
</svg>
