<svg width="615" height="295" viewBox="0 0 615 295" fill="none" xmlns="http://www.w3.org/2000/svg">
<path d="M614.888 263.987C614.888 264.111 477.303 264.216 307.637 264.216C137.972 264.216 0.351562 264.111 0.351562 263.987C0.351562 263.864 137.901 263.749 307.637 263.749C477.373 263.749 614.888 263.855 614.888 263.987Z" fill="#263238"/>
<path d="M441.475 26.0586H112.825C105.733 26.0586 99.9844 31.8121 99.9844 38.9093V247.696C99.9844 254.794 105.733 260.547 112.825 260.547H441.475C448.566 260.547 454.316 254.794 454.316 247.696V38.9093C454.316 31.8121 448.566 26.0586 441.475 26.0586Z" fill="#263238"/>
<path d="M85.6641 243.207H469.546V248.032C469.546 252.195 467.894 256.189 464.952 259.133C462.01 262.077 458.019 263.731 453.859 263.731H101.387C97.2264 263.731 93.2362 262.077 90.2941 259.133C87.3521 256.189 85.6993 252.195 85.6993 248.032V243.207H85.6641Z" fill="#455A64"/>
<path d="M444.304 35.373H109.988V233.4H444.304V35.373Z" fill="#EBEBEB"/>
<path d="M242.709 243.207H243.079H244.207H248.57L264.769 243.145L318.927 243.03H319.332L319.129 243.374L316.979 247.061L314.67 250.907L314.599 251.012H314.467L247.442 250.889H247.38L243.855 245.174L242.973 243.727L242.691 243.251C242.691 243.251 242.815 243.418 243.026 243.754C243.238 244.089 243.564 244.574 243.961 245.2L247.548 250.774H247.459L314.485 250.642L314.291 250.757L316.565 246.858L318.715 243.18L318.909 243.524L264.971 243.401L248.702 243.339H244.295H242.727L242.709 243.207Z" fill="#263238"/>
<path fill-rule="evenodd" clip-rule="evenodd" d="M232.328 72.2133C232.932 71.3954 233.647 70.6652 234.452 70.0436L233.941 67.2653L238.224 65.4396L239.872 67.724C240.881 67.5871 241.904 67.5871 242.913 67.724L244.508 65.4043L248.826 67.1683L248.386 69.9554C249.201 70.5627 249.93 71.2778 250.554 72.081L253.321 71.5695L255.146 75.856L252.872 77.5053C253.008 78.515 253.008 79.5385 252.872 80.5482L255.19 82.1447L253.427 86.4665L250.651 86.0255C250.042 86.8393 249.327 87.5689 248.527 88.1952L249.029 90.9647L244.746 92.7904L243.098 90.5148C242.092 90.6517 241.072 90.6517 240.066 90.5148L238.462 92.8345L234.143 91.0705L234.593 88.2922C233.778 87.6848 233.048 86.9698 232.425 86.1666L229.649 86.6693L227.824 82.3828L230.107 80.7335C229.97 79.7267 229.97 78.7061 230.107 77.6994L227.789 76.0941L229.552 71.7723L232.337 72.2222L232.328 72.2133ZM236.955 77.0291C236.586 77.9471 236.498 78.9538 236.702 79.9219C236.905 80.89 237.391 81.776 238.098 82.4679C238.804 83.1597 239.7 83.6262 240.672 83.8084C241.643 83.9906 242.647 83.8804 243.556 83.4916C244.465 83.1028 245.238 82.4529 245.778 81.6241C246.318 80.7954 246.6 79.8251 246.589 78.8358C246.578 77.8466 246.273 76.883 245.715 76.0668C245.156 75.2507 244.368 74.6187 243.45 74.2508C242.221 73.7578 240.846 73.7735 239.628 74.2945C238.41 74.8155 237.449 75.799 236.955 77.0291Z" fill="#E0E0E0"/>
<path fill-rule="evenodd" clip-rule="evenodd" d="M214.965 162.081C216.734 159.721 218.808 157.606 221.134 155.793L219.671 147.766L232.08 142.474L236.857 149.089C239.778 148.667 242.741 148.634 245.67 148.992L250.306 142.28L262.83 147.316L261.534 155.369C263.895 157.137 266.008 159.214 267.818 161.543L275.839 160.07L281.127 172.489L274.525 177.278C274.949 180.201 274.978 183.167 274.613 186.098L281.32 190.737L276.297 203.262L268.241 201.965C266.475 204.328 264.4 206.443 262.072 208.254L263.553 216.254L251.144 221.546L246.367 214.931C243.446 215.353 240.483 215.385 237.553 215.028L232.918 221.74L220.367 216.695L221.663 208.642C219.302 206.874 217.189 204.797 215.379 202.468L207.359 203.932L202.071 191.514L208.681 186.733C208.254 183.811 208.222 180.844 208.584 177.913L201.859 173.318L206.892 160.793L214.938 162.081H214.965ZM228.388 176.043C227.321 178.701 227.067 181.616 227.656 184.419C228.245 187.222 229.651 189.787 231.697 191.79C233.743 193.793 236.336 195.144 239.149 195.672C241.962 196.2 244.868 195.882 247.5 194.757C250.132 193.632 252.372 191.752 253.936 189.353C255.501 186.955 256.319 184.146 256.288 181.282C256.258 178.418 255.379 175.628 253.763 173.263C252.148 170.899 249.868 169.067 247.213 167.999C245.449 167.29 243.563 166.936 241.662 166.956C239.761 166.977 237.883 167.372 236.135 168.119C234.387 168.866 232.803 169.95 231.474 171.31C230.144 172.669 229.096 174.278 228.388 176.043Z" fill="#F5F5F5"/>
<path d="M159.689 186.53C159.881 185.896 160.179 185.3 160.57 184.766C161.634 183.248 163.191 182.147 164.977 181.652C166.296 181.276 167.688 181.24 169.025 181.548C170.361 181.857 171.597 182.5 172.618 183.416C173.212 183.938 173.724 184.548 174.134 185.225C174.581 185.921 174.908 186.687 175.103 187.491C175.548 189.188 175.436 190.982 174.784 192.61C174.132 194.238 172.974 195.613 171.481 196.532C170.779 196.971 170.011 197.296 169.207 197.493C168.445 197.704 167.653 197.79 166.863 197.749C165.492 197.701 164.155 197.307 162.977 196.602C161.8 195.897 160.82 194.905 160.129 193.718C159.192 192.124 158.837 190.253 159.125 188.426C159.216 187.766 159.416 187.125 159.715 186.53C159.544 187.163 159.405 187.805 159.301 188.453C159.097 190.225 159.488 192.016 160.411 193.542C161.042 194.583 161.909 195.463 162.941 196.108C164.122 196.849 165.478 197.263 166.872 197.308C168.425 197.361 169.96 196.95 171.278 196.126C172.687 195.257 173.78 193.959 174.397 192.422C175.014 190.885 175.123 189.191 174.707 187.588C174.532 186.828 174.234 186.101 173.825 185.436C173.441 184.78 172.959 184.185 172.398 183.672C171.358 182.739 170.09 182.097 168.722 181.811C167.531 181.568 166.3 181.607 165.127 181.926C163.402 182.38 161.881 183.402 160.808 184.828C160.405 185.374 160.031 185.943 159.689 186.53Z" fill="#263238"/>
<path d="M152.257 178.812H151.975L151.093 178.688L147.753 178.194L147.832 178.15C147.136 179.914 146.211 182.269 145.091 185.092V184.959L148.811 187.508L148.881 187.552V187.588C148.69 189.195 148.713 190.82 148.952 192.421V192.509L148.881 192.562L145.232 195.208L145.285 195.005L148.229 201.876L148.035 201.762L152.442 200.95H152.556L152.627 201.038C153.621 202.31 154.78 203.443 156.073 204.408L156.17 204.478V204.602C155.949 205.977 155.703 207.503 155.456 209.056L155.333 208.835L162.26 211.613L162.004 211.684L164.569 207.971L164.639 207.865H164.772C166.371 208.06 167.99 208.039 169.584 207.803H169.716L169.795 207.909L172.439 211.569L172.166 211.49L179.032 208.562L178.899 208.809C178.644 207.406 178.362 205.889 178.089 204.399V204.258L178.194 204.169C179.465 203.181 180.597 202.027 181.561 200.738L181.64 200.624H181.781L186.232 201.338L185.985 201.479L188.77 194.547L188.85 194.82L185.113 192.262L184.998 192.183V192.051C185.214 190.453 185.214 188.833 184.998 187.235V187.103L185.104 187.023L188.762 184.377L188.691 184.642C187.686 182.296 186.717 180.003 185.765 177.771L185.994 177.895L181.587 178.706H181.464L181.385 178.609C180.374 177.335 179.197 176.202 177.886 175.24L177.789 175.169V175.055C178.036 173.52 178.274 172.038 178.512 170.6L178.626 170.803L171.708 168.007L171.919 167.937L169.346 171.65L169.284 171.729H169.249C167.649 171.512 166.028 171.512 164.428 171.729H164.331L164.278 171.65L161.634 167.981L161.793 168.034L154.918 170.927L154.98 170.821L155.756 175.231V175.275C154.793 176.02 153.908 176.859 153.112 177.78L152.521 178.468L152.327 178.697C152.375 178.607 152.432 178.522 152.495 178.441C152.609 178.283 152.794 178.036 153.05 177.727C153.841 176.783 154.727 175.923 155.694 175.16V175.231L154.857 170.821V170.742H154.936L161.784 167.778L161.881 167.734L161.951 167.822L164.595 171.474L164.454 171.412C166.081 171.173 167.732 171.152 169.363 171.35L169.205 171.412L171.761 167.699L171.84 167.584L171.972 167.637L178.899 170.406L179.04 170.459V170.609C178.802 172.056 178.573 173.537 178.327 175.072L178.256 174.878C179.577 175.865 180.762 177.021 181.781 178.318L181.579 178.247L185.985 177.427H186.153L186.214 177.577C187.166 179.809 188.153 182.102 189.149 184.448L189.22 184.607L189.079 184.712L185.421 187.358L185.518 187.147C185.752 188.781 185.77 190.438 185.571 192.077L185.474 191.865L189.185 194.423L189.334 194.529L189.273 194.697C188.262 197.013 187.298 199.348 186.382 201.7L186.311 201.876H186.135L181.728 201.162L181.949 201.074C180.964 202.399 179.805 203.586 178.503 204.602L178.591 204.381C178.864 205.907 179.146 207.424 179.402 208.791V208.967L179.234 209.038L172.369 211.966L172.201 212.037L172.104 211.896L169.46 208.235L169.672 208.324C168.039 208.557 166.383 208.574 164.745 208.377L164.948 208.279C164.067 209.567 163.185 210.837 162.383 211.993L162.286 212.134L162.128 212.072L155.147 209.223L154.989 209.161V209.003C155.244 207.45 155.491 205.925 155.711 204.593L155.791 204.778C154.466 203.792 153.28 202.632 152.265 201.329L152.451 201.4L148.044 202.203H147.903L147.841 202.07L144.933 195.191L144.88 195.067L144.986 194.997L148.652 192.351L148.59 192.492C148.37 190.864 148.37 189.215 148.59 187.588L148.643 187.711L144.942 185.127L144.871 185.074V184.995L147.7 178.08V178.018H147.762L151.058 178.591L151.939 178.75L152.257 178.812Z" fill="#263238"/>
<path fill-rule="evenodd" clip-rule="evenodd" d="M135.302 87.1015C136.703 83.2877 138.606 79.6778 140.96 76.3676L135.875 66.3304L150.197 54.4499L159.107 61.303C162.794 59.5985 166.691 58.3942 170.696 57.7221L174.222 47.0234L192.73 48.7874L194.184 59.9447C197.997 61.3461 201.604 63.2535 204.91 65.616L214.939 60.518L226.811 74.8505L219.954 83.7675C221.664 87.4552 222.871 91.3563 223.541 95.3659L234.232 98.8939L232.469 117.416L221.338 118.792C219.938 122.608 218.032 126.218 215.671 129.526L220.765 139.563L206.443 151.47L197.533 144.608C193.848 146.319 189.95 147.527 185.943 148.198L182.418 158.896L163.91 157.132L162.456 145.975C158.643 144.574 155.036 142.666 151.73 140.304L141.701 145.402L129.847 131.14L136.695 122.223C134.988 118.522 133.785 114.609 133.116 110.589L122.426 107.061L124.188 88.5392L135.337 87.0839L135.302 87.1015ZM158.525 100.27C158.157 104.204 158.963 108.16 160.841 111.636C162.719 115.112 165.586 117.952 169.077 119.798C172.569 121.643 176.529 122.411 180.456 122.004C184.384 121.597 188.103 120.034 191.142 117.511C194.182 114.989 196.406 111.621 197.533 107.834C198.659 104.046 198.638 100.01 197.472 96.2341C196.306 92.4586 194.048 89.114 190.982 86.6234C187.917 84.1327 184.182 82.6078 180.25 82.2417C177.641 81.9975 175.009 82.2702 172.505 83.0441C170.001 83.818 167.673 85.078 165.656 86.7521C163.639 88.4262 161.97 90.4817 160.747 92.8011C159.523 95.1205 158.768 97.6583 158.525 100.27Z" fill="#E0E0E0"/>
<path d="M522.499 0.322266H238.956C237.365 0.322266 236.074 1.61354 236.074 3.2064V195.209C236.074 196.802 237.365 198.093 238.956 198.093H522.499C524.09 198.093 525.381 196.802 525.381 195.209V3.2064C525.381 1.61354 524.09 0.322266 522.499 0.322266Z" fill="#FF725E"/>
<path d="M525.652 198.305L235.059 199.39L235.772 14.6816H525.652V198.305Z" fill="#FAFAFA"/>
<path d="M256.705 8.17162C256.698 8.53325 256.585 8.88476 256.379 9.18196C256.173 9.47915 255.883 9.70877 255.547 9.84196C255.211 9.97516 254.843 10.006 254.49 9.93053C254.136 9.85509 253.813 9.67677 253.561 9.41797C253.308 9.15918 253.138 8.83146 253.071 8.47602C253.004 8.12057 253.043 7.75327 253.184 7.42025C253.326 7.08724 253.562 6.80339 253.864 6.60439C254.165 6.40538 254.519 6.30011 254.881 6.30178C255.37 6.30875 255.837 6.50938 256.179 6.8598C256.52 7.21021 256.71 7.68189 256.705 8.17162Z" fill="#263238"/>
<path d="M246.162 8.23406C246.157 8.59573 246.045 8.9478 245.841 9.24599C245.636 9.54418 245.348 9.77519 245.012 9.90999C244.677 10.0448 244.309 10.0774 243.956 10.0036C243.602 9.92989 243.278 9.75311 243.024 9.49552C242.77 9.23793 242.598 8.91102 242.529 8.55589C242.461 8.20076 242.499 7.83326 242.638 7.49958C242.778 7.1659 243.013 6.88092 243.313 6.68049C243.614 6.48005 243.968 6.37308 244.329 6.37305C244.818 6.37771 245.286 6.57612 245.63 6.92487C245.973 7.27363 246.165 7.74435 246.162 8.23406Z" fill="#263238"/>
<path d="M251.557 8.17159C251.55 8.53285 251.436 8.88401 251.231 9.18103C251.025 9.47804 250.736 9.70768 250.401 9.84114C250.065 9.9746 249.698 10.0059 249.345 9.93122C248.991 9.85649 248.668 9.67904 248.415 9.42112C248.162 9.1632 247.991 8.83631 247.923 8.48144C247.855 8.12657 247.894 7.75953 248.033 7.42635C248.173 7.09318 248.408 6.80871 248.709 6.60865C249.009 6.40858 249.362 6.30182 249.723 6.30176C249.967 6.30406 250.207 6.35426 250.43 6.44948C250.654 6.54469 250.857 6.68306 251.027 6.85669C251.197 7.03033 251.332 7.23582 251.423 7.46143C251.513 7.68704 251.559 7.92835 251.557 8.17159Z" fill="#263238"/>
<path d="M510.096 131.899H253.637V186.583H510.096V131.899Z" fill="#EBEBEB"/>
<path d="M486.113 141.724C486.113 141.848 436.336 141.954 374.942 141.954C313.548 141.954 263.762 141.848 263.762 141.724C263.762 141.601 313.531 141.495 374.942 141.495C436.353 141.495 486.113 141.583 486.113 141.724Z" fill="#263238"/>
<path d="M369.171 173.415C369.171 173.371 369.806 173.415 370.934 173.186C372.654 172.828 374.234 171.98 375.482 170.743C376.45 169.779 377.186 168.606 377.633 167.315C378.081 166.023 378.228 164.647 378.064 163.29C377.959 162.475 377.749 161.677 377.438 160.917C377.089 160.115 376.632 159.364 376.081 158.686C374.86 157.215 373.202 156.174 371.348 155.713C370.348 155.489 369.322 155.4 368.299 155.449H365.055H358.155H342.934H308.068C306.564 155.46 305.086 155.845 303.768 156.569C302.472 157.297 301.379 158.337 300.586 159.594C299.822 160.803 299.363 162.181 299.25 163.607C299.136 165.033 299.371 166.466 299.934 167.781C300.497 169.096 301.371 170.254 302.481 171.156C303.591 172.058 304.904 172.676 306.306 172.956C307.667 173.138 309.041 173.2 310.413 173.142H314.476L342.96 173.194L362.156 173.265L367.373 173.309H368.731H369.198H368.731H367.373H362.156L342.96 173.389L314.476 173.433H310.413C309.012 173.493 307.608 173.431 306.218 173.247C304.361 172.866 302.665 171.926 301.358 170.551C300.051 169.177 299.196 167.435 298.908 165.56C298.621 163.685 298.913 161.767 299.747 160.063C300.581 158.359 301.917 156.952 303.574 156.031C304.958 155.265 306.513 154.859 308.095 154.849H342.96H358.181H365.082H368.325C369.377 154.798 370.43 154.896 371.454 155.14C373.371 155.622 375.082 156.707 376.337 158.236C376.897 158.942 377.363 159.719 377.72 160.547C378.031 161.334 378.242 162.158 378.346 162.999C378.613 165.283 378.009 167.583 376.654 169.441C375.3 171.298 373.295 172.576 371.04 173.018C370.591 173.097 370.138 173.142 369.682 173.15L369.171 173.415Z" fill="#263238"/>
<path d="M465.148 173.415C465.148 173.371 465.782 173.415 466.91 173.186C468.611 172.817 470.171 171.969 471.405 170.742C472.372 169.778 473.106 168.605 473.552 167.313C473.998 166.022 474.144 164.646 473.979 163.289C473.874 162.475 473.663 161.677 473.353 160.917C473.003 160.117 472.55 159.367 472.004 158.685C470.784 157.215 469.125 156.174 467.272 155.713C466.271 155.49 465.246 155.401 464.222 155.448H460.97H454.069H438.857H403.983C402.479 155.461 401.001 155.846 399.682 156.569C398.095 157.44 396.814 158.779 396.014 160.405C395.214 162.03 394.934 163.862 395.211 165.653C395.488 167.443 396.31 169.105 397.564 170.411C398.818 171.718 400.444 172.607 402.22 172.956C403.581 173.137 404.956 173.199 406.327 173.141H410.399L438.875 173.194L458.07 173.265L463.297 173.309H464.654H465.112H464.654H463.297H458.07L438.875 173.388L410.399 173.432H406.327C404.926 173.493 403.522 173.431 402.132 173.247C400.662 172.949 399.285 172.299 398.121 171.352C396.957 170.404 396.04 169.189 395.449 167.809C394.858 166.429 394.61 164.926 394.728 163.429C394.845 161.932 395.323 160.486 396.121 159.215C396.948 157.888 398.098 156.793 399.462 156.031C400.847 155.266 402.401 154.86 403.983 154.849H438.857H454.069H460.97H464.222C465.274 154.798 466.327 154.896 467.351 155.14C469.264 155.624 470.972 156.709 472.225 158.236C472.789 158.939 473.254 159.717 473.608 160.546C473.92 161.334 474.13 162.158 474.234 162.998C474.501 165.282 473.897 167.583 472.543 169.441C471.188 171.298 469.183 172.576 466.928 173.018C466.482 173.097 466.032 173.141 465.579 173.15L465.148 173.415Z" fill="#263238"/>
<path d="M344.081 30.0986H251.559V118.36H344.081V30.0986Z" fill="#FF725E"/>
<path d="M341.913 114.382C341.913 114.382 341.913 113.862 341.913 112.892C341.913 111.922 341.913 110.457 341.913 108.579C341.913 104.804 341.913 99.2824 341.86 92.2617C341.86 78.2115 341.798 58.146 341.763 34.0497L341.957 34.2526H255.234L255.463 34.0233C255.463 63.3233 255.463 90.8505 255.463 114.382L255.26 114.179L318.02 114.276L335.691 114.329H340.371H341.578H341.992H340.415H335.779L318.152 114.382L255.269 114.488H255.066V114.382C255.066 90.8505 255.066 63.3233 255.066 34.0233V33.7939H255.304H342.028H342.221V33.988C342.177 58.1636 342.142 78.2732 342.124 92.3499C342.124 99.353 342.124 104.857 342.072 108.623C342.072 110.484 342.072 111.922 342.072 112.892C342.072 113.862 341.913 114.382 341.913 114.382Z" fill="#263238"/>
<path d="M341.91 71.9323C341.785 71.8583 341.667 71.7726 341.558 71.6766L340.571 70.8916L336.843 67.8575L323.482 56.8061H323.72L298.355 77.586L294.028 81.114L293.878 81.2374L293.728 81.1052L280.455 69.0041H280.737L262.643 84.6332L257.47 89.0432L256.086 90.2074L255.734 90.4985L255.602 90.5867C255.602 90.5867 255.602 90.5425 255.707 90.472L256.042 90.1545L257.382 88.9461L262.476 84.4391L280.464 68.6866L280.605 68.5631L280.737 68.6866L294.036 80.7612H293.746L298.064 77.2332L323.482 56.515L323.605 56.418L323.72 56.5238L337.019 67.6899L340.685 70.8122L341.637 71.6325C341.735 71.7259 341.827 71.8261 341.91 71.9323Z" fill="#263238"/>
<path d="M303.82 51.5136C303.767 51.5136 303.82 50.9315 303.529 49.9348C303.142 48.5235 302.295 47.2818 301.123 46.4068C300.33 45.8075 299.405 45.4055 298.426 45.2337C297.307 45.0345 296.154 45.1349 295.086 45.5248C293.865 45.9751 292.811 46.7886 292.066 47.8561C291.321 48.9235 290.92 50.1937 290.917 51.4959C290.92 52.8463 291.348 54.1614 292.142 55.2533C292.882 56.2698 293.906 57.0434 295.086 57.4759C296.154 57.8658 297.307 57.9662 298.426 57.767C299.405 57.5952 300.33 57.1932 301.123 56.5939C302.295 55.7189 303.142 54.4772 303.529 53.0659C303.794 52.0692 303.767 51.4783 303.82 51.4783C303.831 51.6192 303.831 51.7608 303.82 51.9017C303.813 52.3086 303.763 52.7137 303.67 53.11C303.337 54.5889 302.498 55.905 301.299 56.832C300.472 57.4808 299.502 57.9223 298.47 58.1198C297.491 58.3132 296.48 58.2869 295.512 58.0429C294.543 57.799 293.641 57.3433 292.87 56.7087C292.098 56.074 291.477 55.2762 291.05 54.3726C290.624 53.4691 290.402 52.4821 290.402 51.4827C290.402 50.4833 290.624 49.4964 291.05 48.5928C291.477 47.6892 292.098 46.8914 292.87 46.2568C293.641 45.6221 294.543 45.1665 295.512 44.9225C296.48 44.6785 297.491 44.6523 298.47 44.8457C299.502 45.0448 300.472 45.4861 301.299 46.1334C302.498 47.0604 303.337 48.3766 303.67 49.8554C303.763 50.2517 303.813 50.6568 303.82 51.0638C303.834 51.2134 303.834 51.364 303.82 51.5136Z" fill="#263238"/>
<path d="M549.51 116.763L539.577 104.345C539.577 104.345 523.546 116.86 521.783 115.908C511.718 110.616 503.583 100.914 500.825 97.3857C500.728 96.7506 500.631 95.9921 500.552 95.1013C500.494 94.3305 500.566 93.5554 500.763 92.8081C500.976 91.8846 501.314 90.9944 501.768 90.1621C501.885 90.0197 501.955 89.844 501.967 89.6598C501.98 89.4756 501.934 89.2922 501.837 89.1354C501.739 88.9785 501.595 88.8562 501.425 88.7857C501.254 88.7151 501.066 88.6999 500.886 88.7421C500.129 89.0067 498.71 90.9824 498.242 93.7783C497.775 96.5743 495.598 92.6846 494.717 91.2823C493.836 89.8799 491.139 85.6551 490.504 85.5669C489.579 85.4434 489.271 86.4489 490.134 87.7984C490.998 89.1478 493.263 93.5049 492.505 93.9018C491.747 94.2987 487.649 87.0928 487.649 87.0928C487.649 87.0928 487.023 85.417 486.124 85.8491C484.511 86.6341 489.438 93.9635 489.923 94.6691C490.258 95.1454 489.447 95.6041 489.112 95.0749C488.777 94.5457 485.19 87.7984 483.533 88.5833C482.264 89.1743 487.525 94.6515 487.499 96.4596C487.473 98.2677 483.93 91.8997 482.74 92.5259C482.299 92.7552 482 92.9933 484.555 96.3538C486.491 98.697 488.55 100.935 490.725 103.057C490.725 103.057 514.424 139.51 530.887 129.782C548.346 119.409 549.51 116.763 549.51 116.763Z" fill="#EB996E"/>
<path d="M587.989 271.378L582.859 267.391L590.245 257.689L597.816 263.431L597.393 264.066C595.506 266.845 587.583 278.072 585.68 279.44C583.564 281.027 587.989 271.378 587.989 271.378Z" fill="#FF725E"/>
<g opacity="0.4">
<path opacity="0.4" d="M585.97 276.22C585.97 276.22 584.595 279.748 585.345 279.748C586.094 279.748 594.528 268.714 597.815 263.51L597.586 263.369L587.892 276.326C587.892 276.326 586.42 275.673 585.97 276.22Z" fill="white"/>
</g>
<path d="M597.702 263.193L597.588 263.37L597.253 263.872L595.993 265.689C594.909 267.215 593.349 269.297 591.656 271.572C589.964 273.848 588.316 275.859 587.135 277.305C586.58 277.976 586.104 278.54 585.725 279.007L585.328 279.457L585.188 279.616C585.188 279.616 585.188 279.554 585.302 279.44L585.681 278.972L587.056 277.208C588.219 275.753 589.814 273.724 591.542 271.449C593.269 269.173 594.803 267.109 595.949 265.601L597.253 263.837L597.614 263.352C597.649 263.246 597.694 263.184 597.702 263.193Z" fill="#263238"/>
<path d="M588.017 276.423C587.669 276.278 587.305 276.174 586.933 276.114C586.555 276.099 586.177 276.125 585.805 276.193C586.143 275.981 586.547 275.899 586.942 275.964C587.346 275.973 587.731 276.137 588.017 276.423Z" fill="#263238"/>
<path d="M588.764 272.463C588.764 272.463 588.491 272.516 588.165 272.463C587.839 272.41 587.566 272.375 587.574 272.331C587.772 272.288 587.976 272.288 588.174 272.331C588.378 272.327 588.581 272.373 588.764 272.463Z" fill="#263238"/>
<path d="M588.931 271.378C588.931 271.378 588.719 271.492 588.446 271.545C588.173 271.598 587.935 271.607 587.926 271.545C587.917 271.483 588.138 271.431 588.42 271.378C588.702 271.325 588.922 271.325 588.931 271.378Z" fill="#263238"/>
<path d="M588.404 270.169C588.335 270.375 588.224 270.564 588.077 270.725C587.866 271.007 587.672 271.219 587.637 271.192C587.706 270.986 587.817 270.797 587.963 270.637C588.174 270.354 588.368 270.151 588.404 270.169Z" fill="#263238"/>
<path d="M587.882 269.508C587.882 269.508 587.882 269.852 587.618 270.196C587.353 270.54 587.124 270.751 587.098 270.725C587.212 270.511 587.345 270.307 587.494 270.116C587.611 269.906 587.741 269.703 587.882 269.508Z" fill="#263238"/>
<path d="M587.652 272.145C587.532 272.378 587.371 272.587 587.176 272.762C586.978 272.969 586.759 273.155 586.524 273.318C586.387 273.419 586.239 273.505 586.083 273.574C585.981 273.614 585.868 273.614 585.766 273.574C585.714 273.547 585.67 273.506 585.639 273.457C585.608 273.407 585.591 273.35 585.59 273.291C585.633 273.081 585.722 272.883 585.851 272.712C585.98 272.54 586.145 272.4 586.335 272.3C586.524 272.201 586.734 272.144 586.948 272.136C587.162 272.127 587.376 272.167 587.573 272.251C587.696 272.304 587.758 272.357 587.749 272.365C587.508 272.283 587.254 272.247 587 272.259C586.729 272.271 586.469 272.363 586.251 272.524C586.116 272.612 586.001 272.726 585.912 272.859C585.822 272.992 585.761 273.142 585.731 273.3C585.731 273.459 585.872 273.512 586.022 273.45C586.168 273.387 586.307 273.307 586.436 273.212C586.668 273.058 586.889 272.887 587.097 272.7C587.449 272.365 587.635 272.136 587.652 272.145Z" fill="#263238"/>
<path d="M587.566 272.33C587.378 272.309 587.206 272.217 587.082 272.075C586.929 271.933 586.816 271.754 586.755 271.554C586.702 271.432 586.682 271.297 586.696 271.165C586.71 271.032 586.757 270.905 586.835 270.796C586.894 270.743 586.971 270.714 587.051 270.714C587.13 270.714 587.207 270.743 587.267 270.796C587.353 270.887 587.419 270.995 587.461 271.113C587.538 271.299 587.589 271.495 587.61 271.695C587.657 271.875 587.657 272.063 587.61 272.242C587.61 272.242 587.61 272.039 587.531 271.713C587.49 271.525 587.431 271.342 587.355 271.166C587.293 270.981 587.099 270.743 586.949 270.884C586.903 270.979 586.878 271.083 586.878 271.188C586.878 271.294 586.903 271.398 586.949 271.492C586.999 271.672 587.09 271.838 587.214 271.978C587.318 272.107 587.437 272.226 587.566 272.33Z" fill="#263238"/>
<path d="M594.932 261.367C594.932 261.367 594.694 261.623 594.412 262.099C594.045 262.722 593.853 263.432 593.857 264.154C593.88 264.873 594.099 265.572 594.491 266.174C594.791 266.642 595.064 266.871 595.037 266.889C594.967 266.847 594.902 266.797 594.844 266.739C594.681 266.585 594.534 266.417 594.403 266.236C593.976 265.624 593.737 264.9 593.716 264.154C593.701 263.406 593.913 262.672 594.324 262.046C594.439 261.856 594.578 261.681 594.738 261.526C594.826 261.411 594.932 261.358 594.932 261.367Z" fill="#263238"/>
<path d="M590.113 259.295C590.827 259.731 591.513 260.211 592.167 260.733C592.853 261.206 593.506 261.725 594.123 262.285C594.123 262.285 593.189 261.668 592.079 260.847C591.396 260.366 590.739 259.848 590.113 259.295Z" fill="#263238"/>
<path d="M593.172 267.444C592.926 267.988 592.612 268.497 592.238 268.961C591.902 269.456 591.499 269.902 591.039 270.284C591.039 270.284 591.533 269.658 592.114 268.873C592.696 268.088 593.172 267.418 593.172 267.444Z" fill="#263238"/>
<path d="M594.633 265.539C594.677 265.539 594.73 265.698 594.827 265.874C594.924 266.051 595.021 266.183 594.995 266.209C594.968 266.236 594.801 266.148 594.695 265.945C594.589 265.742 594.598 265.548 594.633 265.539Z" fill="#263238"/>
<path d="M594.289 264.146C594.333 264.146 594.386 264.287 594.413 264.463C594.439 264.639 594.413 264.789 594.413 264.789C594.413 264.789 594.325 264.657 594.298 264.481C594.272 264.304 594.254 264.154 594.289 264.146Z" fill="#263238"/>
<path d="M594.671 262.814C594.671 262.814 594.592 262.972 594.539 263.158C594.486 263.343 594.477 263.501 594.433 263.501C594.389 263.501 594.319 263.334 594.433 263.113C594.548 262.893 594.645 262.787 594.671 262.814Z" fill="#263238"/>
<path d="M595.029 261.94C595.029 261.94 595.029 262.046 595.029 262.152C595.029 262.258 594.94 262.328 594.896 262.319C594.852 262.311 594.852 262.214 594.896 262.108C594.94 262.002 594.984 261.931 595.029 261.94Z" fill="#263238"/>
<g opacity="0.3">
<path opacity="0.3" d="M594.635 261.182L587.1 270.725L585.945 269.816L594.08 260.635L594.635 261.182Z" fill="black"/>
</g>
<path d="M548.143 290.411L547.323 283.964L559.38 282.358L560.675 291.778L559.935 291.928C556.63 292.554 543.102 294.892 540.784 294.512C538.201 294.089 548.143 290.411 548.143 290.411Z" fill="#FF725E"/>
<g opacity="0.4">
<path opacity="0.4" d="M543.313 292.387C543.313 292.387 539.858 293.904 540.387 294.433C540.916 294.962 554.674 293.119 560.658 291.787L560.605 291.522L544.565 293.807C544.565 293.807 544.018 292.325 543.313 292.387Z" fill="white"/>
</g>
<path d="M560.807 291.479L560.605 291.531L560.014 291.646L557.837 292.034C555.995 292.343 553.431 292.749 550.619 293.128C547.808 293.507 545.225 293.798 543.366 294.01L541.162 294.213L540.563 294.257H540.352H540.563L541.154 294.186L543.357 293.939C545.208 293.728 547.764 293.428 550.593 293.057C553.422 292.687 555.969 292.29 557.82 291.999L560.005 291.655L560.596 291.567C560.662 291.527 560.733 291.497 560.807 291.479Z" fill="#263238"/>
<path d="M544.611 293.984C544.464 293.636 544.281 293.305 544.065 292.996C543.8 292.716 543.505 292.468 543.184 292.255C543.577 292.343 543.925 292.572 544.162 292.899C544.442 293.192 544.602 293.578 544.611 293.984Z" fill="#263238"/>
<path d="M547.924 291.708C547.75 291.603 547.599 291.461 547.484 291.293C547.272 291.038 547.122 290.808 547.157 290.782C547.193 290.755 547.387 290.941 547.598 291.196C547.81 291.452 547.96 291.664 547.924 291.708Z" fill="#263238"/>
<path d="M548.832 291.056C548.832 291.056 548.603 290.985 548.374 290.826C548.145 290.668 547.968 290.518 547.995 290.482C548.021 290.447 548.224 290.553 548.453 290.712C548.682 290.87 548.859 291.02 548.832 291.056Z" fill="#263238"/>
<path d="M549.299 289.838C549.108 289.936 548.897 289.99 548.683 289.997C548.471 290.049 548.25 290.049 548.039 289.997C548.234 289.899 548.447 289.845 548.665 289.838C548.873 289.786 549.091 289.786 549.299 289.838Z" fill="#263238"/>
<path d="M549.402 289.018C549.213 289.186 548.976 289.291 548.724 289.317C548.486 289.398 548.229 289.398 547.992 289.317C548.222 289.247 548.458 289.199 548.697 289.176C548.928 289.106 549.164 289.053 549.402 289.018Z" fill="#263238"/>
<path d="M547.342 290.702C547.092 290.784 546.829 290.82 546.566 290.808C546.271 290.811 545.976 290.785 545.685 290.729C545.513 290.711 545.344 290.669 545.183 290.605C545.085 290.56 545.007 290.482 544.962 290.385C544.941 290.329 544.936 290.269 544.948 290.211C544.961 290.153 544.99 290.1 545.033 290.058C545.213 289.943 545.416 289.868 545.628 289.839C545.84 289.811 546.056 289.829 546.26 289.893C546.464 289.957 546.652 290.065 546.81 290.209C546.968 290.354 547.093 290.531 547.175 290.729C547.205 290.792 547.22 290.861 547.219 290.931C547.105 290.704 546.956 290.495 546.778 290.314C546.574 290.136 546.323 290.019 546.055 289.979C545.749 289.923 545.432 289.989 545.174 290.164C545.059 290.27 545.13 290.411 545.271 290.473C545.423 290.527 545.579 290.569 545.738 290.596C546.008 290.654 546.282 290.689 546.558 290.702C547.078 290.72 547.342 290.685 547.342 290.702Z" fill="#263238"/>
<path d="M547.184 290.782C547.069 290.63 547.013 290.443 547.025 290.253C547.016 290.048 547.062 289.844 547.157 289.662C547.206 289.537 547.286 289.427 547.39 289.343C547.493 289.258 547.616 289.201 547.748 289.177C547.829 289.183 547.904 289.221 547.958 289.282C548.012 289.343 548.041 289.422 548.039 289.503C548.035 289.629 548.005 289.752 547.95 289.865C547.872 290.049 547.771 290.224 547.651 290.385C547.439 290.659 547.254 290.773 547.245 290.756C547.237 290.738 547.378 290.597 547.563 290.323C547.667 290.165 547.755 289.996 547.827 289.821C547.906 289.635 547.942 289.336 547.748 289.327C547.554 289.318 547.378 289.556 547.281 289.724C547.187 289.885 547.133 290.066 547.122 290.253C547.125 290.431 547.146 290.608 547.184 290.782Z" fill="#263238"/>
<path d="M560.122 288.216C560.122 288.216 559.77 288.216 559.241 288.366C558.544 288.543 557.91 288.909 557.408 289.424C556.915 289.949 556.574 290.598 556.421 291.303C556.306 291.849 556.341 292.185 556.306 292.185C556.295 292.106 556.295 292.025 556.306 291.946C556.283 291.724 556.283 291.499 556.306 291.276C556.424 290.536 556.765 289.85 557.283 289.31C557.801 288.769 558.472 288.4 559.206 288.251C559.423 288.207 559.645 288.183 559.867 288.18C559.953 288.174 560.04 288.186 560.122 288.216Z" fill="#263238"/>
<path d="M558.199 283.355C558.533 284.99 558.774 286.642 558.922 288.304C558.735 287.491 558.591 286.67 558.49 285.843C558.341 285.021 558.244 284.19 558.199 283.355Z" fill="#263238"/>
<path d="M554.611 291.293C554.045 291.509 553.452 291.648 552.849 291.708C552.268 291.818 551.675 291.847 551.086 291.796C551.086 291.796 551.879 291.699 552.849 291.558C553.818 291.417 554.603 291.249 554.611 291.293Z" fill="#263238"/>
<path d="M556.975 290.976C556.975 290.976 556.975 291.152 556.878 291.338C556.781 291.523 556.798 291.699 556.763 291.699C556.728 291.699 556.675 291.523 556.763 291.302C556.851 291.082 556.948 290.95 556.975 290.976Z" fill="#263238"/>
<path d="M557.726 289.749C557.726 289.749 557.726 289.908 557.585 290.049C557.444 290.191 557.364 290.288 557.329 290.261C557.294 290.235 557.329 290.102 557.47 289.961C557.611 289.82 557.69 289.723 557.726 289.749Z" fill="#263238"/>
<path d="M558.93 289.071C558.93 289.071 558.762 289.133 558.595 289.221C558.428 289.309 558.313 289.415 558.278 289.388C558.242 289.362 558.322 289.186 558.524 289.089C558.727 288.992 558.93 289.018 558.93 289.071Z" fill="#263238"/>
<path d="M559.803 288.709C559.803 288.709 559.803 288.815 559.662 288.868C559.521 288.921 559.476 288.93 559.459 288.868C559.441 288.806 559.459 288.762 559.591 288.709C559.723 288.656 559.785 288.674 559.803 288.709Z" fill="#263238"/>
<g opacity="0.3">
<path opacity="0.3" d="M560.058 287.889L547.993 289.301L547.816 287.845L559.926 286.311L560.058 287.889Z" fill="black"/>
</g>
<path d="M565.067 95.807C566.956 95.6716 568.853 95.9354 570.634 96.5811C572.415 97.2269 574.04 98.2403 575.405 99.5555L577.89 111.815L573.633 128.997C572.382 134.024 576.039 141.045 577.018 149.283L543.386 155.201L543.289 135.03L539.764 124.296L534.229 127.885L522.41 114.179L533.374 105.438C538.643 100.305 545.559 97.2048 552.895 96.689" fill="#FF725E"/>
<path d="M543.287 112.848C543.287 112.918 542.555 113.183 541.524 113.95C540.232 114.958 539.284 116.341 538.81 117.91C538.382 119.495 538.465 121.174 539.048 122.708C539.488 123.89 539.999 124.517 539.929 124.561C539.38 124.09 538.966 123.481 538.73 122.797C538.02 121.207 537.896 119.416 538.38 117.743C538.864 116.07 539.925 114.623 541.374 113.659C541.933 113.231 542.591 112.952 543.287 112.848Z" fill="#263238"/>
<path d="M551.888 96.5831C551.983 97.6954 552.282 98.7806 552.769 99.7848C553.315 100.848 554.118 101.757 555.105 102.431C556.333 103.222 557.781 103.599 559.239 103.507C560.696 103.415 562.086 102.859 563.204 101.919C564.1 101.129 564.782 100.124 565.187 98.9998C565.53 97.9416 565.68 96.8301 565.628 95.7188C565.737 96.0005 565.796 96.2988 565.804 96.6007C565.857 97.4418 565.752 98.2853 565.496 99.088C565.112 100.292 564.415 101.372 563.478 102.219C562.301 103.243 560.82 103.851 559.263 103.948C557.707 104.046 556.162 103.627 554.867 102.757C553.834 102.031 553.01 101.045 552.479 99.8994C552.12 99.1381 551.914 98.3143 551.87 97.4739C551.814 97.179 551.82 96.8755 551.888 96.5831Z" fill="#263238"/>
<path d="M519.607 141.441C518.664 140.127 512.072 139.007 512.636 137.913C513.358 136.467 519.457 139.395 519.995 139.607C520.532 139.819 520.823 139.042 520.33 138.875C519.625 138.645 512.274 135.999 512.979 134.579C513.367 133.794 514.742 134.668 514.742 134.668C514.742 134.668 521.449 137.649 521.793 136.97C522.137 136.29 518.223 134.385 516.866 133.847C515.509 133.309 515.227 132.454 515.941 132.083C516.425 131.81 520.603 133.371 521.925 133.944C523.247 134.518 526.869 136.132 525.697 133.865L525.644 133.759C524.437 131.563 524.234 129.473 524.587 128.829C524.679 128.699 524.806 128.596 524.953 128.533C525.099 128.469 525.26 128.446 525.419 128.467C525.577 128.488 525.727 128.551 525.852 128.651C525.977 128.75 526.073 128.882 526.129 129.032C526.186 129.138 526.219 129.255 526.226 129.376C526.226 129.437 526.226 129.508 526.226 129.57C526.469 130.392 526.797 131.187 527.204 131.942C527.559 132.625 528.023 133.245 528.579 133.777C529.231 134.385 529.813 134.888 530.342 135.294C534.748 136.088 547.316 137.869 558.324 135.056C560.316 134.544 567.367 112.221 567.367 112.221L580.825 118.774C580.278 121.42 577.854 128.035 574.347 139.219C568.609 157.476 526.755 144.67 526.755 144.67L526.385 144.625C523.419 144.234 520.477 143.683 517.571 142.976C513.993 141.927 514.046 141.6 514.257 141.212C514.733 140.074 520.559 142.764 519.607 141.441Z" fill="#FFBE9D"/>
<path d="M559.285 131.14C559.479 130.211 559.747 129.3 560.087 128.414L562.176 121.914C562.934 119.427 563.621 117.178 564.177 115.378C564.406 114.476 564.7 113.592 565.058 112.732C564.939 113.673 564.745 114.602 564.476 115.511C564.044 117.213 563.401 119.541 562.599 122.09C561.797 124.639 560.995 126.933 560.369 128.564C560.078 129.451 559.715 130.312 559.285 131.14Z" fill="#263238"/>
<path d="M571.677 97.0596C571.677 97.0596 580.913 98.7089 581.283 113.818C581.473 123.014 579.508 132.128 575.546 140.428L559.285 131.907C562.936 124.598 565.682 116.871 567.464 108.896L571.668 97.0508L571.677 97.0596Z" fill="#FF725E"/>
<path d="M558.949 131.687C559.78 132.033 560.584 132.44 561.355 132.904C562.827 133.68 564.881 134.747 567.137 135.858C569.393 136.97 571.544 137.896 573.042 138.566C573.883 138.883 574.699 139.263 575.483 139.704C574.604 139.506 573.745 139.225 572.918 138.866C571.359 138.275 569.226 137.375 566.934 136.273C564.643 135.17 562.624 134.041 561.197 133.186C560.401 132.76 559.648 132.258 558.949 131.687Z" fill="#263238"/>
<path d="M580.937 121.482C580.905 122.4 580.787 123.312 580.584 124.208C580.285 125.875 579.782 128.168 579.104 130.664C578.425 133.16 577.711 135.4 577.174 137.006C576.922 137.888 576.595 138.747 576.195 139.572C576.343 138.673 576.567 137.788 576.865 136.926L578.628 130.558C579.306 128.071 579.862 125.804 580.241 124.155C580.407 123.248 580.64 122.355 580.937 121.482Z" fill="#263238"/>
<path d="M569.015 67.6885C570.046 68.0931 570.908 68.8386 571.458 69.8012C572.008 70.7638 572.212 71.8856 572.038 72.9805C573.161 73.0724 574.228 73.5138 575.088 74.2428C575.949 74.9718 576.559 75.9519 576.835 77.0458C577.111 78.1396 577.038 79.2925 576.627 80.3428C576.215 81.3931 575.486 82.2883 574.54 82.903C575.353 84.0247 575.735 85.4021 575.615 86.7826C575.495 88.1631 574.882 89.4541 573.888 90.4188C572.894 91.3835 571.586 91.9573 570.204 92.0348C568.821 92.1123 567.457 91.6885 566.362 90.841C565.821 91.8364 564.989 92.6431 563.978 93.1537C562.968 93.6642 561.825 93.8543 560.704 93.6986C558.45 93.34 556.419 92.1312 555.028 90.3206C554.082 91.4736 552.76 92.2546 551.294 92.5252C549.829 92.7958 548.315 92.5385 547.021 91.799C545.726 91.0595 544.735 89.8855 544.223 88.4848C543.711 87.0842 543.711 85.5474 544.223 84.1466C543.323 84.0332 542.491 83.6121 541.866 82.9547C541.241 82.2973 540.862 81.4439 540.794 80.5392C540.754 79.6317 540.947 78.729 541.356 77.918C541.765 77.107 542.376 76.415 543.13 75.9087C543.13 75.9087 538.723 68.5705 547.069 69.0909" fill="#263238"/>
<path d="M565.647 97.3237L566.731 71.5958L556.42 63.7812L547.051 68.3676C547.051 68.3676 546.743 80.1423 547.051 85.2491C547.36 90.3559 552.507 90.8939 552.507 90.8939C552.507 90.8939 552.357 93.7163 552.198 96.6798C552.108 98.4393 552.712 100.164 553.878 101.483C555.045 102.802 556.682 103.611 558.438 103.736C559.335 103.803 560.237 103.689 561.089 103.4C561.941 103.112 562.727 102.655 563.399 102.057C564.072 101.459 564.617 100.732 565.003 99.9188C565.389 99.1057 565.608 98.2232 565.647 97.3237Z" fill="#FFBE9D"/>
<path d="M548.109 76.765C548.109 76.8941 548.148 77.0203 548.219 77.1276C548.291 77.2349 548.393 77.3186 548.512 77.368C548.631 77.4174 548.762 77.4303 548.889 77.4051C549.015 77.3799 549.132 77.3178 549.223 77.2265C549.314 77.1352 549.376 77.0189 549.401 76.8923C549.426 76.7657 549.414 76.6345 549.364 76.5152C549.315 76.396 549.231 76.294 549.124 76.2223C549.017 76.1506 548.891 76.1123 548.762 76.1123C548.589 76.1123 548.423 76.1811 548.3 76.3035C548.178 76.4259 548.109 76.5919 548.109 76.765Z" fill="#263238"/>
<path d="M547.474 76.0506C547.562 76.1388 548.047 75.7331 548.743 75.689C549.44 75.6449 549.977 75.9889 550.048 75.9007C550.118 75.8125 549.995 75.6978 549.766 75.5391C549.455 75.3365 549.087 75.2405 548.717 75.2656C548.349 75.2895 547.997 75.4283 547.712 75.6625C547.501 75.8566 547.439 76.0153 547.474 76.0506Z" fill="#263238"/>
<path d="M555.668 76.765C555.666 76.8962 555.704 77.0249 555.775 77.1348C555.847 77.2448 555.949 77.3309 556.07 77.3824C556.19 77.4338 556.324 77.4482 556.452 77.4236C556.581 77.3991 556.7 77.3368 556.793 77.2447C556.886 77.1525 556.95 77.0347 556.977 76.9061C557.003 76.7776 556.99 76.6441 556.94 76.5227C556.891 76.4013 556.806 76.2975 556.697 76.2244C556.588 76.1513 556.46 76.1123 556.329 76.1123C556.155 76.1123 555.988 76.1808 555.865 76.3029C555.741 76.4251 555.67 76.5911 555.668 76.765Z" fill="#263238"/>
<path d="M555.273 76.2356C555.362 76.3238 555.846 75.9092 556.543 75.8739C557.239 75.8387 557.776 76.1738 557.847 76.0768C557.917 75.9798 557.847 75.8828 557.565 75.724C557.255 75.5202 556.886 75.4242 556.516 75.4506C556.148 75.4744 555.797 75.6132 555.511 75.8475C555.273 76.0327 555.273 76.2003 555.273 76.2356Z" fill="#263238"/>
<path d="M552.543 90.8937C554.969 90.7958 557.315 90.003 559.303 88.6094C559.303 88.6094 557.593 92.3667 552.473 92.1374L552.543 90.8937Z" fill="#EB996E"/>
<path d="M552.737 82.1796C552.358 82.0894 551.971 82.042 551.582 82.0385C551.406 82.0385 551.23 82.0385 551.194 81.8709C551.167 81.6744 551.201 81.4743 551.291 81.2976C551.441 80.839 551.6 80.3539 551.776 79.8423C552.111 78.8016 552.393 77.8578 552.587 77.1963C552.718 76.8314 552.807 76.4526 552.851 76.0674C552.653 76.4006 552.502 76.7598 552.402 77.1346C552.155 77.8137 551.838 78.7398 551.52 79.7806L551.062 81.2447C550.958 81.4773 550.934 81.7376 550.992 81.9856C551.019 82.0469 551.061 82.1011 551.113 82.1439C551.165 82.1867 551.226 82.217 551.291 82.2326C551.39 82.2497 551.492 82.2497 551.591 82.2326C551.974 82.2618 552.358 82.244 552.737 82.1796Z" fill="#263238"/>
<path d="M549.29 63.4113C548.939 63.3271 548.583 63.2652 548.224 63.2261C547.823 63.2166 547.427 63.324 547.086 63.5352C546.745 63.7465 546.472 64.0524 546.301 64.4159C546.13 64.7794 546.069 65.1847 546.124 65.5826C546.179 65.9804 546.348 66.3537 546.611 66.6571C547.025 67.1422 547.44 67.2744 547.413 67.345C547.387 67.4156 546.928 67.345 546.382 66.8776C546.112 66.6165 545.908 66.294 545.789 65.9375C545.67 65.5809 545.638 65.2008 545.697 64.8294C545.756 64.458 545.903 64.1064 546.127 63.8042C546.35 63.502 546.644 63.2583 546.981 63.0938C547.376 62.9145 547.812 62.8503 548.242 62.9086C549 63.0144 549.326 63.376 549.29 63.4113Z" fill="#263238"/>
<path d="M541.278 84.9319C541.278 84.9319 541.349 84.7819 541.34 84.535C541.336 84.3703 541.276 84.2119 541.17 84.0854C541.065 83.959 540.92 83.8719 540.758 83.8382C540.642 83.8248 540.524 83.8348 540.411 83.8676C540.299 83.9004 540.194 83.9554 540.103 84.0293C540.011 84.1032 539.936 84.1946 539.881 84.2981C539.825 84.4016 539.791 84.5151 539.78 84.632C539.77 84.9364 539.862 85.2354 540.043 85.4804C540.224 85.7254 540.482 85.902 540.776 85.9814C541.076 86.0725 541.394 86.0879 541.702 86.0264C542.009 85.9648 542.297 85.8282 542.539 85.6286C542.947 85.2836 543.222 84.806 543.314 84.2792C543.366 84.1106 543.382 83.9326 543.359 83.7576C543.336 83.5825 543.276 83.4145 543.182 83.2649C543.032 83.062 542.874 83.0356 542.882 83.0003C542.891 82.965 543.067 82.9297 543.314 83.1414C543.457 83.299 543.561 83.4881 543.618 83.6934C543.675 83.8987 543.682 84.1145 543.64 84.3233C543.575 84.9489 543.283 85.529 542.821 85.955C542.525 86.2131 542.168 86.3909 541.783 86.4712C541.399 86.5515 541.001 86.5317 540.626 86.4136C540.236 86.301 539.896 86.057 539.665 85.7227C539.434 85.3884 539.325 84.9844 539.357 84.5791C539.383 84.4015 539.446 84.2312 539.542 84.0793C539.637 83.9274 539.763 83.7972 539.912 83.6971C540.175 83.5326 540.492 83.4786 540.794 83.5471C540.921 83.5797 541.041 83.639 541.144 83.7211C541.248 83.8031 541.332 83.9062 541.393 84.0234C541.48 84.1915 541.511 84.3832 541.481 84.5702C541.463 84.8613 541.296 84.9583 541.278 84.9319Z" fill="#263238"/>
<path d="M574.044 80.4515C574.185 80.7159 574.37 80.9545 574.59 81.1571C574.853 81.3798 575.174 81.5208 575.516 81.5628C575.966 81.6122 576.42 81.5065 576.803 81.2629C577.286 80.9165 577.665 80.4436 577.899 79.8961C578.132 79.3485 578.21 78.7473 578.125 78.1583C578.086 77.4519 577.871 76.7666 577.499 76.165C577.304 75.8535 577.047 75.5861 576.744 75.3796C576.44 75.173 576.097 75.032 575.736 74.9654C575.399 74.8896 575.047 74.8982 574.714 74.9905C574.38 75.0828 574.075 75.256 573.824 75.4946L572.704 76.6501L573.462 75.2388C574.098 74.1779 574.385 72.9438 574.282 71.7108C574.233 71.237 574.065 70.7832 573.794 70.3916C573.522 70 573.157 69.6832 572.731 69.4706C572.441 69.342 572.127 69.2755 571.81 69.2755C571.493 69.2755 571.179 69.342 570.889 69.4706C570.483 69.6734 570.334 69.9027 570.298 69.8763C570.263 69.8498 570.395 69.6029 570.81 69.3383C571.112 69.1571 571.452 69.0471 571.803 69.0166C572.154 68.986 572.507 69.0357 572.837 69.1619C573.328 69.3771 573.755 69.7162 574.076 70.1459C574.398 70.5757 574.602 71.0814 574.67 71.6138C574.808 72.9236 574.524 74.2433 573.859 75.38L573.498 75.1242C573.8 74.8311 574.169 74.6162 574.573 74.4978C574.977 74.3795 575.403 74.3614 575.816 74.4451C576.238 74.5239 576.64 74.6912 576.994 74.9359C577.348 75.1806 577.646 75.4972 577.869 75.8651C578.279 76.5304 578.513 77.2893 578.548 78.0701C578.593 78.7742 578.469 79.4789 578.186 80.1251C577.936 80.6986 577.506 81.1752 576.961 81.4834C576.513 81.7478 575.985 81.8447 575.472 81.7568C575.093 81.6822 574.743 81.4983 574.467 81.2276C574.018 80.866 574.026 80.4427 574.044 80.4515Z" fill="#263238"/>
<path d="M568.952 77.0292C569.601 75.3822 569.796 73.5911 569.516 71.843C569.404 70.3801 568.885 68.9779 568.018 67.7946C567.575 67.2116 566.978 66.7641 566.294 66.5023C565.611 66.2405 564.868 66.1749 564.149 66.3129C564.131 65.3514 563.818 64.4185 563.254 63.6402C562.69 62.8619 561.9 62.2756 560.992 61.9602C560.085 61.6449 559.102 61.6158 558.177 61.8768C557.252 62.1378 556.43 62.6764 555.82 63.4199C554.693 62.3654 553.242 61.7248 551.704 61.603C550.942 61.5504 550.178 61.6835 549.478 61.9907C548.778 62.2978 548.163 62.7701 547.686 63.367C547.223 63.9778 546.964 64.7192 546.946 65.4857C546.929 66.2522 547.154 67.0046 547.589 67.6359C547.132 67.7919 546.723 68.0611 546.398 68.4183C546.074 68.7756 545.845 69.2092 545.734 69.6788C545.622 70.1483 545.631 70.6385 545.76 71.1037C545.889 71.5688 546.133 71.9936 546.471 72.3386C546.808 72.6836 547.227 72.9375 547.689 73.0766C548.151 73.2156 548.64 73.2354 549.112 73.1339C549.583 73.0325 550.022 72.8131 550.386 72.4964C550.75 72.1797 551.027 71.7759 551.193 71.3226C551.337 71.9862 551.723 72.5722 552.275 72.9668C552.828 73.3613 553.507 73.5361 554.181 73.4571C554.852 73.3475 555.483 73.0667 556.014 72.6419C556.545 72.217 556.958 71.6624 557.213 71.0316C557.243 72.0142 557.62 72.9544 558.276 73.6856C558.933 74.4169 559.827 74.8921 560.8 75.027C561.283 75.073 561.771 75.025 562.236 74.8859C561.863 75.2787 561.589 75.7551 561.436 76.2753C561.284 76.7956 561.258 77.3447 561.361 77.8771C561.463 78.4094 561.692 78.9095 562.026 79.3358C562.361 79.762 562.793 80.1022 563.285 80.3278C562.91 80.4678 562.578 80.7047 562.324 81.0146C562.071 81.3245 561.903 81.6962 561.84 82.0918C561.712 82.8792 561.784 83.6862 562.051 84.438C562.703 86.6253 564.246 90.021 566.361 90.8766C568.476 91.7321 571.164 89.7388 572.266 87.7366L568.952 77.0292Z" fill="#263238"/>
<path d="M555.273 83.0532C555.132 82.9298 554.966 82.8371 554.787 82.781C554.608 82.7248 554.42 82.7064 554.233 82.7269C554.047 82.7506 553.867 82.8131 553.707 82.9103C553.546 83.0075 553.407 83.1373 553.299 83.2913C553.154 83.483 553.084 83.7219 553.105 83.9616C553.128 84.1126 553.184 84.2566 553.27 84.3832C553.355 84.5098 553.467 84.6158 553.599 84.6937C553.786 84.8191 554 84.8981 554.224 84.9242C554.448 84.9503 554.675 84.9227 554.885 84.8436C555.095 84.7614 555.278 84.6234 555.414 84.4446C555.551 84.2659 555.636 84.0531 555.661 83.8294C555.681 83.6287 555.631 83.4273 555.521 83.2588C555.41 83.0903 555.245 82.9648 555.053 82.9033" fill="#EB996E"/>
<path d="M555.654 82.5328C555.768 82.5769 555.495 83.4148 554.667 83.944C553.838 84.4732 552.983 84.4555 552.992 84.332C553.001 84.2086 553.697 84.0498 554.411 83.5559C555.125 83.062 555.539 82.471 555.654 82.5328Z" fill="#263238"/>
<path d="M544.98 154.901C544.98 154.901 532.316 219.411 533.699 222.471C535.083 225.532 581.979 275.391 581.979 275.391L596.08 258.272C596.08 258.272 557.055 214.683 557.301 213.51C557.548 212.337 571.13 150.165 571.13 150.165L544.98 154.901Z" fill="#263238"/>
<path d="M578.551 273.044C578.689 272.761 578.864 272.497 579.071 272.259L580.569 270.266C581.838 268.59 583.601 266.271 585.496 263.686C587.391 261.102 589.083 258.729 590.299 257.01C590.872 256.225 591.357 255.545 591.753 254.99C591.917 254.728 592.112 254.488 592.335 254.275C592.228 254.564 592.083 254.837 591.903 255.087C591.603 255.59 591.145 256.313 590.572 257.195C589.418 258.959 587.77 261.367 585.866 263.96C583.962 266.553 582.164 268.846 580.825 270.469C580.155 271.28 579.6 271.933 579.203 272.374C579.018 272.627 578.798 272.852 578.551 273.044Z" fill="#455A64"/>
<path d="M548.76 153.693L546.945 154.16L547.738 164.665C544.547 181.917 538.166 218.352 538.986 229.404C540.07 244.062 542.635 288.965 542.635 288.965L563.593 285.746L562.024 231.503L566.537 209.294L578.532 169.066C580.566 162.237 579.89 154.885 576.645 148.542L575.544 146.363" fill="#263238"/>
<path d="M563.081 152.052C563.16 152.052 563.204 152.757 563.583 153.816C564.077 155.198 564.94 156.418 566.077 157.344C567.088 158.13 568.273 158.659 569.532 158.887C570.248 159.008 570.975 159.055 571.7 159.028C571.85 159.028 571.912 159.09 571.912 159.117C571.912 159.143 571.833 159.117 571.692 159.117C570.961 159.289 570.204 159.322 569.462 159.214C568.028 159.035 566.678 158.438 565.581 157.497C564.484 156.556 563.688 155.312 563.292 153.922C563.069 153.325 562.997 152.683 563.081 152.052Z" fill="#455A64"/>
<path d="M542.266 284.087C542.521 283.967 542.791 283.878 543.068 283.823C543.588 283.673 544.346 283.488 545.289 283.276C547.166 282.844 549.783 282.306 552.692 281.829C555.6 281.353 558.244 281.018 560.166 280.824C561.126 280.727 561.928 280.665 562.439 280.639C562.732 280.6 563.028 280.6 563.321 280.639C562.307 280.887 561.276 281.061 560.236 281.159C558.332 281.432 555.697 281.821 552.798 282.297C549.898 282.773 547.28 283.249 545.386 283.602C544.357 283.83 543.315 283.992 542.266 284.087Z" fill="#455A64"/>
<path d="M547.738 164.656C547.735 164.873 547.709 165.089 547.659 165.3C547.579 165.768 547.473 166.376 547.35 167.143C547.05 168.784 546.636 171.077 546.125 173.891C545.094 179.597 543.675 187.465 542.379 196.205C541.084 204.946 540.238 212.902 539.735 218.679C539.497 221.563 539.33 223.9 539.224 225.514C539.162 226.29 539.118 226.908 539.083 227.375C539.079 227.592 539.053 227.808 539.004 228.019C538.988 227.802 538.988 227.584 539.004 227.366C539.004 226.899 539.004 226.282 539.057 225.505C539.057 223.883 539.224 221.545 539.427 218.652C539.815 212.866 540.617 204.893 541.912 196.144C543.208 187.394 544.68 179.518 545.79 173.829C546.345 170.989 546.812 168.696 547.156 167.108C547.315 166.35 547.456 165.75 547.553 165.282C547.595 165.068 547.657 164.859 547.738 164.656Z" fill="#455A64"/>
<path d="M566.783 208.482C566.775 208.64 566.752 208.797 566.712 208.95C566.633 209.303 566.545 209.735 566.43 210.273C566.174 211.481 565.831 213.122 565.416 215.124C564.535 219.234 563.478 224.923 562.314 231.203C562.314 231.326 562.314 231.441 562.253 231.547L562.023 231.273C562.059 231.275 562.093 231.284 562.125 231.299C562.157 231.314 562.185 231.335 562.208 231.362C562.213 231.379 562.213 231.397 562.208 231.414V231.485C562.211 231.517 562.211 231.55 562.208 231.582V231.75V232.049L562.261 232.64L562.341 233.805C562.376 234.575 562.411 235.333 562.446 236.08C562.446 237.562 562.535 239 562.579 240.367C562.631 243.083 562.684 245.535 562.72 247.617C562.755 249.698 562.72 251.286 562.764 252.503C562.764 253.032 562.764 253.473 562.764 253.826C562.784 253.981 562.784 254.138 562.764 254.294C562.724 254.144 562.706 253.989 562.711 253.835C562.711 253.473 562.667 253.041 562.64 252.503C562.587 251.286 562.526 249.637 562.455 247.626C562.314 243.454 562.12 237.791 561.909 231.52L561.68 231.467L561.75 231.123C562.914 224.835 564.068 219.155 564.985 215.062C565.443 213.016 565.866 211.358 566.139 210.229C566.289 209.655 566.421 209.223 566.509 208.923C566.576 208.762 566.668 208.614 566.783 208.482Z" fill="#455A64"/>
<path d="M402.917 81.0779C402.995 81.9618 402.951 82.8523 402.784 83.7239C402.682 84.4314 402.455 85.1152 402.115 85.7437C401.619 86.6884 401.066 87.6015 400.458 88.4779C400.458 88.4779 377.904 100.685 373.762 101.964C369.62 103.243 350.574 94.9077 350.574 94.9077C348.804 99.6918 346.435 104.232 343.523 108.42C343.523 108.42 360.524 114.7 373.683 115.785C382.055 116.481 407.57 96.0455 407.596 96.0278C410.208 95.0422 412.764 93.9175 415.255 92.6586C418.675 90.7535 418.507 90.4359 418.216 90.0831C417.432 89.1129 412.047 93.2142 412.717 91.6619C413.387 90.1096 419.856 87.4107 419.001 86.4317C417.882 85.1616 412.356 89.5539 411.853 89.8979C411.351 90.2419 410.857 89.5275 411.316 89.2452C411.985 88.8395 418.878 84.4295 417.793 83.1683C417.194 82.4715 416.031 83.6622 416.031 83.6622C416.031 83.6622 409.861 88.2662 409.394 87.6576C408.927 87.0491 412.409 84.209 413.66 83.3446C414.912 82.4803 415 81.5806 414.162 81.3072C413.59 81.1485 409.694 83.7239 408.469 84.6059C407.244 85.4879 403.948 87.9928 404.573 85.435C405.199 82.8772 404.723 80.681 404.186 80.143C403.648 79.605 402.802 80.2753 402.917 81.0779Z" fill="#B78876"/>
<path d="M504.886 151.506L358.664 113.766L376.335 46.6982L522.486 84.6772L504.886 151.506Z" fill="#E0E0E0"/>
<path d="M501.203 110.017L500.895 109.946L500.013 109.726L496.558 108.844L483.832 105.395L441.889 93.9998C425.496 89.5898 410.646 85.5943 399.885 82.7719L387.141 79.4291L383.677 78.5471L382.796 78.3001L382.496 78.2031C382.601 78.209 382.704 78.2267 382.805 78.256L383.686 78.4589L387.211 79.2968C390.234 80.0201 394.597 81.1225 399.991 82.4896C410.778 85.2415 425.637 89.1576 442.03 93.594C458.423 98.0305 473.185 102.035 483.885 105.042L496.567 108.632L500.004 109.629L500.886 109.902C500.996 109.928 501.102 109.966 501.203 110.017Z" fill="#263238"/>
<path d="M496.69 122.391L496.382 122.329L495.5 122.1L492.037 121.218L479.319 117.769L437.35 106.339C420.957 101.929 406.107 97.942 395.346 95.1107L382.602 91.7768L379.138 90.8948L378.257 90.6478C378.153 90.6258 378.052 90.5902 377.957 90.542C378.061 90.5535 378.164 90.5712 378.266 90.5949L379.147 90.8066L382.672 91.6357C385.695 92.3589 390.058 93.4614 395.452 94.8285C406.239 97.5804 421.098 101.505 437.491 105.933C453.884 110.361 468.699 114.462 479.407 117.461L492.09 121.042L495.527 122.047L496.408 122.32C496.505 122.333 496.599 122.356 496.69 122.391Z" fill="#263238"/>
<path d="M420.201 114.877C420.045 114.874 419.89 114.847 419.742 114.797L418.447 114.498L413.679 113.289L397.956 109.135L382.242 104.857L377.482 103.508L376.196 103.12C376.039 103.083 375.888 103.026 375.746 102.952C375.899 102.954 376.05 102.978 376.196 103.023L377.5 103.331L382.268 104.54L397.991 108.685L413.696 112.972L418.456 114.321L419.751 114.709C419.907 114.749 420.057 114.805 420.201 114.877Z" fill="#263238"/>
<path d="M446.719 83.4418C446.498 83.4229 446.279 83.3815 446.067 83.3184L444.216 82.8774L437.438 81.1663L415.141 75.3715L392.852 69.4445L386.057 67.6364L384.232 67.1072C384.014 67.0576 383.802 66.9867 383.598 66.8955C383.818 66.9194 384.036 66.9607 384.25 67.019L386.101 67.46L392.878 69.1711L415.202 74.9746L437.526 80.8664L444.269 82.7098L446.093 83.239C446.308 83.2844 446.518 83.3524 446.719 83.4418Z" fill="#263238"/>
<path d="M279.135 278.364L284.423 273.434L275.257 263.388L267.422 270.497L267.951 271.158C270.321 274.069 280.236 285.799 282.493 287.14C285.004 288.657 279.135 278.364 279.135 278.364Z" fill="#FF725E"/>
<g opacity="0.4">
<path opacity="0.4" d="M281.849 283.533C281.849 283.533 283.718 287.308 282.889 287.387C282.061 287.467 271.591 275.992 267.422 270.497L267.66 270.303L279.752 283.797C279.752 283.797 281.294 282.968 281.849 283.533Z" fill="white"/>
</g>
<path d="M267.52 270.17C267.562 270.235 267.61 270.297 267.661 270.355L268.084 270.884L269.67 272.781C271.018 274.377 272.922 276.556 275.064 278.955C277.205 281.354 279.197 283.365 280.66 284.899L282.423 286.663L282.899 287.14L283.075 287.29C283.032 287.225 282.982 287.166 282.925 287.113L282.467 286.619L280.766 284.855C279.321 283.338 277.346 281.239 275.205 278.875C273.063 276.512 271.151 274.359 269.776 272.781L268.154 270.92L267.705 270.417L267.52 270.17Z" fill="#263238"/>
<path d="M279.594 283.965C279.97 283.771 280.366 283.617 280.775 283.506C281.196 283.457 281.622 283.457 282.044 283.506C281.643 283.296 281.178 283.243 280.74 283.356C280.294 283.406 279.884 283.624 279.594 283.965Z" fill="#263238"/>
<path d="M278.395 279.625C278.615 279.677 278.844 279.677 279.065 279.625C279.426 279.564 279.717 279.475 279.708 279.431C279.488 279.374 279.258 279.374 279.038 279.431C278.668 279.493 278.386 279.581 278.395 279.625Z" fill="#263238"/>
<path d="M278.078 278.434C278.078 278.434 278.325 278.54 278.642 278.576C278.959 278.611 279.206 278.576 279.215 278.576C279.224 278.576 278.968 278.47 278.651 278.434C278.334 278.399 278.087 278.373 278.078 278.434Z" fill="#263238"/>
<path d="M278.535 277.041C278.535 277.041 278.685 277.332 278.941 277.623C279.196 277.914 279.443 278.126 279.478 278.099C279.513 278.073 279.328 277.808 279.064 277.517C278.8 277.226 278.588 277.006 278.535 277.041Z" fill="#263238"/>
<path d="M279.062 276.247C279.103 276.525 279.23 276.784 279.424 276.988C279.715 277.358 280.032 277.561 280.058 277.526C280.085 277.49 279.829 277.235 279.556 276.891C279.283 276.547 279.107 276.229 279.062 276.247Z" fill="#263238"/>
<path d="M279.576 279.167C279.743 279.41 279.945 279.627 280.176 279.811C280.416 280.017 280.676 280.201 280.951 280.357C281.114 280.46 281.289 280.543 281.471 280.604C281.526 280.628 281.584 280.64 281.643 280.64C281.702 280.64 281.761 280.628 281.815 280.604C281.873 280.572 281.92 280.522 281.95 280.462C281.98 280.403 281.991 280.335 281.982 280.269C281.88 279.913 281.656 279.604 281.351 279.395C281.045 279.186 280.677 279.09 280.308 279.123C280.089 279.142 279.876 279.205 279.682 279.308C279.608 279.34 279.542 279.388 279.488 279.449C279.748 279.335 280.025 279.263 280.308 279.237C280.618 279.225 280.925 279.305 281.189 279.467C281.506 279.644 281.74 279.938 281.841 280.287C281.841 280.454 281.7 280.525 281.524 280.472C281.356 280.413 281.194 280.339 281.039 280.252C280.767 280.104 280.507 279.933 280.264 279.74C279.823 279.396 279.603 279.149 279.576 279.167Z" fill="#263238"/>
<path d="M279.698 279.361C279.698 279.361 279.953 279.361 280.209 279.026C280.364 278.853 280.473 278.644 280.526 278.417C280.58 278.269 280.592 278.108 280.563 277.953C280.533 277.798 280.463 277.654 280.359 277.535C280.285 277.483 280.193 277.462 280.104 277.477C280.015 277.492 279.936 277.542 279.883 277.615C279.793 277.722 279.729 277.849 279.698 277.985C279.63 278.199 279.591 278.422 279.583 278.647C279.551 278.853 279.579 279.064 279.662 279.255C279.662 279.255 279.662 279.017 279.662 278.655C279.689 278.443 279.736 278.233 279.803 278.029C279.856 277.818 280.05 277.535 280.226 277.668C280.294 277.765 280.34 277.877 280.359 277.994C280.379 278.112 280.373 278.232 280.341 278.347C280.299 278.552 280.212 278.745 280.085 278.911C279.9 279.246 279.68 279.317 279.698 279.361Z" fill="#263238"/>
<path d="M270.453 267.851C270.453 267.851 270.744 268.115 271.105 268.618C271.576 269.27 271.856 270.039 271.916 270.841C271.964 271.645 271.79 272.447 271.414 273.16C271.123 273.707 270.841 273.989 270.867 274.042C270.894 274.095 270.947 273.989 271.07 273.857C271.239 273.674 271.387 273.473 271.511 273.257C271.939 272.539 272.138 271.707 272.083 270.872C272.028 270.037 271.721 269.239 271.202 268.583C271.046 268.384 270.872 268.201 270.682 268.036C270.541 267.912 270.462 267.851 270.453 267.851Z" fill="#263238"/>
<path d="M275.583 265.09C274.835 265.635 274.12 266.224 273.441 266.854C272.728 267.451 272.051 268.09 271.414 268.768C272.161 268.221 272.876 267.632 273.556 267.004C274.268 266.406 274.945 265.766 275.583 265.09Z" fill="#263238"/>
<path d="M272.957 274.466C273.281 275.049 273.681 275.585 274.147 276.062C274.573 276.579 275.065 277.038 275.61 277.429C275.61 277.429 275.002 276.768 274.27 275.956C273.539 275.145 272.992 274.439 272.957 274.466Z" fill="#263238"/>
<path d="M271.16 272.49C271.116 272.49 271.072 272.675 270.983 272.878C270.895 273.081 270.798 273.24 270.825 273.275C270.851 273.31 271.036 273.178 271.133 272.94C271.23 272.702 271.204 272.49 271.16 272.49Z" fill="#263238"/>
<path d="M271.405 270.902C271.36 270.902 271.316 271.061 271.308 271.264C271.299 271.467 271.308 271.626 271.369 271.634C271.431 271.643 271.457 271.476 271.475 271.273C271.493 271.07 271.484 270.911 271.405 270.902Z" fill="#263238"/>
<path d="M270.859 269.456C270.859 269.5 270.956 269.633 271.044 269.827C271.133 270.021 271.141 270.197 271.185 270.206C271.23 270.215 271.3 269.994 271.185 269.756C271.071 269.518 270.886 269.421 270.859 269.456Z" fill="#263238"/>
<path d="M270.373 268.521C270.329 268.521 270.329 268.644 270.373 268.75C270.417 268.856 270.487 268.944 270.532 268.927C270.576 268.909 270.532 268.803 270.532 268.697C270.532 268.591 270.417 268.503 270.373 268.521Z" fill="#263238"/>
<g opacity="0.3">
<path opacity="0.3" d="M270.734 267.63L280.059 277.526L281.249 276.406L271.986 266.378L270.734 267.63Z" fill="black"/>
</g>
<path d="M382.857 286.417L379.887 279.784L367.434 285.244L371.655 294.999L372.457 294.708C375.983 293.393 390.26 287.766 392.252 286.055C394.482 284.159 382.857 286.417 382.857 286.417Z" fill="#FF725E"/>
<g opacity="0.4">
<path opacity="0.4" d="M388.615 285.49C388.615 285.49 392.793 284.935 392.599 285.746C392.405 286.558 378.18 292.802 371.667 294.99L371.57 294.698L388.219 287.572C388.219 287.572 387.91 285.843 388.615 285.49Z" fill="white"/>
</g>
<path d="M371.367 294.786C371.446 294.773 371.524 294.75 371.596 294.716L372.222 294.486L374.531 293.604C376.47 292.837 379.141 291.743 382.067 290.464C384.993 289.186 387.601 287.977 389.487 287.069L391.708 285.984L392.308 285.675C392.449 285.605 392.519 285.569 392.51 285.561L392.299 285.649L391.682 285.922L389.435 286.963C387.54 287.845 384.922 289.036 381.996 290.315C379.07 291.593 376.417 292.705 374.487 293.499L372.204 294.442L371.579 294.707C371.505 294.723 371.433 294.749 371.367 294.786Z" fill="#263238"/>
<path d="M388.295 287.784C388.235 287.363 388.22 286.938 388.251 286.514C388.335 286.098 388.465 285.693 388.639 285.306C388.315 285.618 388.117 286.039 388.084 286.488C388.001 286.931 388.076 287.39 388.295 287.784Z" fill="#263238"/>
<path d="M383.813 287.519C383.857 287.519 383.936 287.237 383.998 286.875C384.049 286.652 384.049 286.42 383.998 286.196C383.953 286.196 383.865 286.479 383.813 286.849C383.76 287.069 383.76 287.299 383.813 287.519Z" fill="#263238"/>
<path d="M382.531 287.431C382.531 287.431 382.708 287.237 382.84 286.946C382.972 286.655 383.042 286.408 382.998 286.391C382.954 286.373 382.822 286.593 382.69 286.876C382.558 287.158 382.531 287.414 382.531 287.431Z" fill="#263238"/>
<path d="M381.414 286.531C381.656 286.52 381.892 286.451 382.101 286.328C382.463 286.178 382.736 286.02 382.718 285.976C382.481 285.997 382.25 286.066 382.04 286.178C381.81 286.254 381.597 286.374 381.414 286.531Z" fill="#263238"/>
<path d="M380.832 285.799C381.11 285.851 381.397 285.814 381.652 285.693C381.924 285.626 382.17 285.478 382.357 285.27C382.096 285.331 381.842 285.42 381.599 285.534C381.337 285.603 381.08 285.691 380.832 285.799Z" fill="#263238"/>
<path d="M383.759 286.25C384.041 286.177 384.309 286.058 384.552 285.897C384.827 285.732 385.086 285.544 385.327 285.332C385.475 285.209 385.608 285.07 385.724 284.918C385.795 284.821 385.827 284.701 385.812 284.583C385.798 284.518 385.766 284.458 385.719 284.411C385.672 284.364 385.613 284.332 385.548 284.318C385.177 284.302 384.812 284.415 384.516 284.639C384.22 284.863 384.012 285.183 383.926 285.544C383.879 285.756 383.879 285.976 383.926 286.188C383.933 286.268 383.957 286.347 383.996 286.417C383.97 286.121 383.994 285.823 384.067 285.535C384.154 285.247 384.322 284.989 384.552 284.794C384.685 284.673 384.84 284.579 385.01 284.519C385.179 284.458 385.359 284.432 385.539 284.441C385.706 284.441 385.715 284.653 385.618 284.794C385.509 284.936 385.385 285.066 385.248 285.182C385.019 285.395 384.775 285.589 384.516 285.764C384.049 286.091 383.741 286.223 383.759 286.25Z" fill="#263238"/>
<path d="M383.978 286.196C384 285.987 383.947 285.778 383.828 285.605C383.71 285.405 383.547 285.236 383.352 285.111C383.228 285.015 383.082 284.954 382.927 284.934C382.772 284.914 382.615 284.935 382.471 284.996C382.399 285.051 382.352 285.13 382.337 285.219C382.322 285.307 382.342 285.398 382.391 285.472C382.463 285.594 382.563 285.697 382.682 285.772C382.862 285.906 383.061 286.013 383.273 286.09C383.458 286.182 383.665 286.225 383.872 286.213C383.872 286.213 383.652 286.143 383.317 285.984C383.123 285.892 382.94 285.78 382.77 285.649C382.585 285.534 382.383 285.261 382.568 285.137C382.68 285.103 382.799 285.095 382.915 285.113C383.031 285.131 383.141 285.176 383.237 285.243C383.42 285.349 383.576 285.493 383.696 285.666C383.807 285.833 383.901 286.01 383.978 286.196Z" fill="#263238"/>
<path d="M370.134 291.267C370.134 291.267 370.477 291.073 371.068 290.897C371.838 290.653 372.661 290.634 373.442 290.841C374.222 291.049 374.927 291.475 375.474 292.07C375.897 292.52 376.074 292.872 376.1 292.855C376.079 292.765 376.043 292.678 375.994 292.599C375.868 292.384 375.724 292.18 375.563 291.99C375.022 291.362 374.305 290.911 373.505 290.696C372.705 290.48 371.859 290.51 371.077 290.782C370.841 290.866 370.613 290.972 370.398 291.1C370.195 291.197 370.125 291.258 370.134 291.267Z" fill="#263238"/>
<path d="M369.152 285.49C369.437 286.392 369.775 287.275 370.166 288.136C370.502 289.006 370.89 289.854 371.329 290.676C370.702 288.92 369.975 287.2 369.152 285.526V285.49Z" fill="#263238"/>
<path d="M377.176 291.012C377.835 290.895 378.475 290.69 379.08 290.403C379.706 290.167 380.298 289.849 380.842 289.459C380.842 289.415 380.031 289.821 379.018 290.244C378.004 290.668 377.167 290.968 377.176 291.012Z" fill="#263238"/>
<path d="M374.734 292.079C374.734 292.079 374.875 292.22 375.043 292.379C375.21 292.538 375.325 292.67 375.369 292.653C375.413 292.635 375.369 292.423 375.157 292.256C374.946 292.088 374.752 292.035 374.734 292.079Z" fill="#263238"/>
<path d="M373.312 291.338C373.312 291.382 373.436 291.479 373.621 291.549C373.806 291.62 373.974 291.647 373.982 291.611C373.991 291.576 373.868 291.47 373.683 291.4C373.498 291.329 373.33 291.294 373.312 291.338Z" fill="#263238"/>
<path d="M371.77 291.391C371.77 291.391 371.955 291.391 372.167 291.338C372.378 291.285 372.555 291.338 372.572 291.338C372.59 291.338 372.414 291.171 372.158 291.197C371.903 291.224 371.735 291.356 371.77 291.391Z" fill="#263238"/>
<path d="M370.723 291.558C370.723 291.602 370.828 291.629 370.943 291.629C371.058 291.629 371.163 291.629 371.163 291.532C371.163 291.435 371.058 291.461 370.943 291.461C370.828 291.461 370.723 291.505 370.723 291.558Z" fill="#263238"/>
<g opacity="0.3">
<path opacity="0.3" d="M369.999 290.924L382.355 285.27L381.677 283.771L369.215 289.336L369.999 290.924Z" fill="black"/>
</g>
<path d="M308.976 62.5385C309.329 60.1218 307.786 56.5321 308.439 54.3271C308.641 53.6303 307.875 52.9688 307.778 52.2456C307.704 51.888 307.725 51.5171 307.839 51.1703C307.954 50.8236 308.157 50.513 308.43 50.2699C308.57 50.1676 308.732 50.0975 308.902 50.0647C309.073 50.0319 309.249 50.0371 309.417 50.0801C309.585 50.1231 309.742 50.2027 309.876 50.3132C310.01 50.4238 310.118 50.5626 310.193 50.7197C310.328 49.589 310.643 48.4873 311.127 47.4563C311.372 46.9345 311.741 46.4808 312.202 46.1348C312.663 45.7888 313.202 45.5612 313.771 45.4718C314.334 45.4 314.904 45.549 315.361 45.8876C315.817 46.2261 316.125 46.7281 316.221 47.2887C316.86 46.0942 317.822 45.1039 318.997 44.4311C319.481 44.11 320.033 43.9055 320.61 43.8336C321.186 43.7617 321.771 43.8243 322.32 44.0165C323.377 44.4928 323.968 45.9834 323.201 46.8742C323.874 46.212 324.658 45.6744 325.519 45.2866C325.948 45.1027 326.417 45.0336 326.881 45.0862C327.344 45.1388 327.786 45.3112 328.163 45.5865C328.341 45.737 328.485 45.9234 328.586 46.1334C328.687 46.3435 328.743 46.5725 328.75 46.8055C328.756 47.0386 328.714 47.2704 328.625 47.4859C328.536 47.7014 328.402 47.8957 328.233 48.0561C329.166 47.5968 330.161 47.276 331.186 47.1035C331.699 47.0167 332.224 47.0386 332.728 47.1677C333.232 47.2969 333.704 47.5304 334.112 47.8532C334.509 48.1905 334.778 48.6535 334.876 49.1652C334.974 49.677 334.894 50.2068 334.65 50.6668C334.143 51.2709 333.487 51.7304 332.746 51.9986C332.377 52.1376 332.046 52.3606 331.778 52.6499C331.51 52.9393 331.314 53.287 331.203 53.6656C331.151 54.0713 331.274 54.4947 331.203 54.8916C331.126 55.1565 330.98 55.3962 330.781 55.5867C330.581 55.7772 330.335 55.9116 330.067 55.9764C329.532 56.0972 328.979 56.1211 328.436 56.047C325.678 55.8089 322.937 55.359 320.169 55.3855C317.375 55.304 314.617 56.043 312.237 57.5111" fill="#263238"/>
<path d="M306.403 165.538C306.403 165.538 312.229 196.408 311.163 213.351C310.096 230.295 298.401 237.033 291.421 244.001C284.767 250.66 269.484 263.872 269.484 263.872L283.18 278.637C283.18 278.637 326.533 247.352 330.931 227.199C334.306 211.72 335.628 184.36 335.628 184.36L306.403 165.538Z" fill="#263238"/>
<path d="M307.038 142.395C306.614 142.395 301.899 156.295 306.403 165.521C306.852 166.403 310.387 171.536 310.387 171.536C322.866 186.309 339.303 217.717 340.978 222.41C345.825 236.019 365.47 291.267 365.47 291.267L385.961 282.518L365.064 214.233L337.902 153.684L307.038 142.395Z" fill="#263238"/>
<path d="M332.685 153.685C332.932 154.309 333.022 154.984 332.949 155.651C332.893 157.292 332.302 158.868 331.268 160.142C330.234 161.416 328.813 162.316 327.22 162.707C326.583 162.912 325.905 162.958 325.246 162.84C325.246 162.76 325.995 162.752 327.132 162.39C328.604 161.926 329.913 161.051 330.904 159.867C331.878 158.661 332.49 157.201 332.667 155.66C332.755 154.443 332.614 153.702 332.685 153.685Z" fill="#455A64"/>
<path d="M365.471 291.268L385.962 282.519L384.949 279.193L364.484 288.49L365.471 291.268Z" fill="#455A64"/>
<path d="M316.847 93.7346C317.809 93.8089 318.776 93.6881 319.691 93.3795C320.605 93.0708 321.448 92.5807 322.169 91.9384C322.89 91.2961 323.474 90.5148 323.886 89.6413C324.298 88.7679 324.53 87.8202 324.567 86.855C324.717 82.9478 324.849 79.0052 324.849 79.0052C324.849 79.0052 330.772 78.4496 331.204 72.5931C331.635 66.7366 330.957 53.9388 330.957 53.9388L331.45 53.2067C324.849 49.8728 317.516 50.9665 311.391 55.1119L310.113 57.5462L310.228 86.6522C310.245 88.4476 310.934 90.1714 312.16 91.4828C313.385 92.7942 315.058 93.5978 316.847 93.7346Z" fill="#B78876"/>
<path d="M329.512 63.4731C329.396 63.4044 329.296 63.3097 329.222 63.1964C329.148 63.0831 329.101 62.9542 329.085 62.8197C329.068 62.6852 329.083 62.5487 329.128 62.4209C329.173 62.2931 329.246 62.1773 329.343 62.0826C329.44 61.9878 329.557 61.9167 329.686 61.8746C329.815 61.8326 329.951 61.8207 330.085 61.8401C330.219 61.8594 330.347 61.9094 330.459 61.9861C330.57 62.0628 330.663 62.1642 330.729 62.2824C330.88 62.4455 330.964 62.6598 330.964 62.8822C330.964 63.1046 330.88 63.3189 330.729 63.482C330.564 63.6371 330.345 63.7228 330.119 63.7212C329.892 63.7195 329.675 63.6307 329.512 63.4731Z" fill="#263238"/>
<path d="M330.939 62.5296C330.842 62.6266 330.296 62.1415 329.485 62.0886C328.674 62.0357 328.066 62.415 327.987 62.3091C327.908 62.2033 328.049 62.0798 328.313 61.9034C328.674 61.6773 329.098 61.5725 329.523 61.6042C329.948 61.6359 330.351 61.8025 330.675 62.0798C330.913 62.2915 330.983 62.4855 330.939 62.5296Z" fill="#263238"/>
<path d="M321.861 62.4067C322.008 62.5044 322.122 62.6441 322.189 62.8077C322.256 62.9713 322.272 63.1513 322.236 63.3242C322.199 63.4972 322.112 63.6552 321.984 63.7777C321.857 63.9002 321.696 63.9816 321.522 64.0112C321.347 64.0409 321.168 64.0176 321.008 63.9442C320.847 63.8708 320.712 63.7508 320.62 63.5997C320.529 63.4486 320.484 63.2734 320.493 63.0968C320.502 62.9203 320.564 62.7505 320.671 62.6095C320.806 62.4306 321.004 62.31 321.226 62.2723C321.447 62.2346 321.674 62.2827 321.861 62.4067Z" fill="#263238"/>
<path d="M322.135 62.7059C322.038 62.803 321.491 62.3267 320.68 62.2738C319.87 62.2208 319.261 62.6001 319.182 62.4943C319.103 62.3884 319.244 62.2649 319.508 62.0885C319.865 61.8541 320.291 61.7484 320.716 61.7887C321.14 61.8176 321.545 61.9813 321.87 62.2561C322.108 62.4766 322.188 62.6707 322.135 62.7059Z" fill="#263238"/>
<path d="M325.001 68.9857C325.425 68.8359 325.874 68.7671 326.323 68.7828C326.535 68.7828 326.702 68.7387 326.729 68.6241C326.745 68.4147 326.705 68.2047 326.614 68.0155L326.076 66.3309C325.558 64.9017 325.183 63.4244 324.957 61.9209C325.62 63.2872 326.143 64.7175 326.517 66.1898C326.693 66.7719 326.852 67.3275 327.019 67.8744C327.137 68.1534 327.159 68.4637 327.081 68.7564C327.045 68.8344 326.991 68.9029 326.924 68.9564C326.856 69.01 326.777 69.0472 326.693 69.0651C326.573 69.0814 326.452 69.0814 326.332 69.0651C325.887 69.1136 325.437 69.0868 325.001 68.9857Z" fill="#263238"/>
<path d="M322.319 69.709C322.804 69.9295 324.558 71.0849 326.206 71.1114C325.91 71.5105 325.488 71.7987 325.009 71.9298C324.529 72.061 324.02 72.0274 323.562 71.8346C321.808 71.0849 322.319 69.709 322.319 69.709Z" fill="white"/>
<path d="M324.868 78.9175C322.159 78.7995 319.545 77.8786 317.359 76.2715C317.359 76.2715 318.911 80.6021 324.789 80.4345L324.868 78.9175Z" fill="#A36957"/>
<path d="M310.265 62.3439C310.265 62.11 310.172 61.8857 310.007 61.7202C309.841 61.5548 309.617 61.4619 309.383 61.4619C308.291 61.4619 306.502 61.8676 306.334 64.8841C306.096 69.1971 310.238 68.121 310.256 67.9975C310.274 67.8741 310.265 64.055 310.265 62.3439Z" fill="#B78876"/>
<path d="M309.319 66.3309C309.319 66.3309 309.239 66.3838 309.116 66.4367C308.934 66.5059 308.734 66.5059 308.552 66.4367C308.283 66.2462 308.07 65.987 307.935 65.686C307.8 65.3851 307.748 65.0534 307.785 64.7256C307.794 64.3549 307.885 63.9906 308.05 63.6584C308.099 63.5259 308.178 63.4071 308.283 63.3119C308.387 63.2168 308.513 63.1481 308.649 63.1116C308.736 63.0944 308.827 63.1078 308.906 63.1496C308.984 63.1913 309.046 63.2589 309.081 63.3409C309.134 63.4644 309.081 63.5526 309.081 63.5614C309.081 63.5702 309.178 63.4909 309.151 63.3145C309.13 63.2057 309.075 63.1066 308.993 63.0322C308.88 62.9367 308.735 62.8892 308.587 62.8999C308.409 62.9264 308.24 62.9978 308.097 63.1073C307.953 63.2168 307.84 63.3609 307.768 63.5261C307.561 63.8894 307.449 64.2989 307.442 64.7168C307.399 65.0989 307.47 65.485 307.646 65.8269C307.821 66.1688 308.094 66.4514 308.429 66.6396C308.543 66.6799 308.665 66.6938 308.786 66.68C308.906 66.6663 309.022 66.6253 309.125 66.5602C309.31 66.4367 309.38 66.3397 309.319 66.3309Z" fill="#A36957"/>
<path d="M298.621 112.618C299.335 118.351 301.265 123.379 301.318 132.772L300.877 154.549L341.991 156.868L339.762 130.258L338.281 107.591L347.464 109.972L351.298 94.6519C351.298 94.6519 341.604 89.9685 338.272 88.4779C327.37 83.5211 327.432 85.5585 325.546 85.3203C320.67 86.8575 315.439 86.8575 310.563 85.3203C310.563 85.3203 302.464 83.08 298.321 92.9055C296.162 97.9594 298.621 112.618 298.621 112.618Z" fill="#455A64"/>
<path d="M301.265 88.0898C301.265 88.0898 301.38 88.0898 301.592 88.0898C301.893 88.1302 302.188 88.2042 302.473 88.3103C303.595 88.6911 304.552 89.4442 305.187 90.4448C305.652 91.194 305.931 92.0435 306.002 92.9226C306.072 93.8016 305.932 94.6848 305.593 95.4986C305.151 96.3579 304.953 97.3218 305.02 98.2858C305.214 99.2383 306.113 99.891 306.915 100.676C307.34 101.068 307.677 101.546 307.902 102.078C308.116 102.598 308.221 103.157 308.21 103.719C308.182 104.773 307.848 105.796 307.25 106.665C306.974 107.064 306.652 107.428 306.289 107.75C305.927 108.033 305.534 108.272 305.117 108.464C304.381 108.785 303.613 109.028 302.825 109.187C301.697 109.427 300.55 109.569 299.397 109.611C298.978 109.66 298.555 109.66 298.137 109.611C298.55 109.534 298.968 109.487 299.388 109.47C300.521 109.358 301.646 109.172 302.755 108.914C304.103 108.543 305.901 108.076 306.897 106.462C307.442 105.661 307.747 104.722 307.779 103.754C307.791 103.243 307.693 102.736 307.491 102.267C307.288 101.798 306.987 101.378 306.606 101.038C306.227 100.658 305.804 100.306 305.425 99.891C305.02 99.4815 304.734 98.9693 304.597 98.4092C304.512 97.3627 304.726 96.3137 305.214 95.384C305.496 94.7517 305.647 94.0689 305.659 93.3766C305.671 92.6843 305.543 91.9968 305.283 91.3551C305.023 90.7135 304.636 90.131 304.146 89.6427C303.655 89.1544 303.071 88.7702 302.429 88.5132C301.715 88.1692 301.257 88.1339 301.265 88.0898Z" fill="#FAFAFA"/>
<path d="M349.377 92.5533C349.375 92.7001 349.351 92.8457 349.306 92.9855C349.202 93.3945 349.061 93.7931 348.883 94.1762C348.227 95.6042 347.175 96.8134 345.851 97.6601C344.867 98.2917 343.758 98.7017 342.6 98.8616C341.442 99.0215 340.263 98.9275 339.145 98.5862C337.813 98.2004 336.6 97.4845 335.619 96.5046C334.606 95.5256 333.733 94.2996 332.438 93.7528C331.794 93.4977 331.086 93.4605 330.419 93.647C329.75 93.8389 329.1 94.0959 328.48 94.4143C327.258 95.0638 325.898 95.4087 324.514 95.4198C323.344 95.4304 322.186 95.1766 321.127 94.6772C320.068 94.1779 319.135 93.4458 318.398 92.5356C317.416 91.3078 316.821 89.8159 316.688 88.2491C316.646 87.8268 316.646 87.4013 316.688 86.979C316.699 86.8325 316.725 86.6876 316.767 86.5469C316.82 86.5469 316.706 87.1555 316.847 88.2315C317.039 89.7368 317.65 91.1578 318.609 92.3328C319.332 93.1803 320.233 93.8572 321.248 94.3147C322.263 94.7722 323.366 94.999 324.479 94.9788C325.798 94.959 327.092 94.6201 328.251 93.991C328.896 93.6579 329.572 93.3891 330.27 93.1883C331.028 92.9751 331.836 93.0153 332.57 93.303C334.05 93.938 334.914 95.2169 335.901 96.1607C337.159 97.4237 338.803 98.2289 340.571 98.4479C342.34 98.6669 344.13 98.2871 345.658 97.369C346.949 96.5669 348 95.4302 348.698 94.0791C349.218 93.1354 349.333 92.5356 349.377 92.5533Z" fill="#FAFAFA"/>
<path d="M347.12 109.329C346.669 108.123 345.996 107.014 345.137 106.056C344.202 105.056 342.962 104.395 341.612 104.178C340.788 104.08 339.953 104.176 339.173 104.458C338.393 104.74 337.689 105.199 337.117 105.801C336.529 106.425 336.15 107.217 336.033 108.067C335.981 108.926 335.775 109.769 335.425 110.555C334.994 111.231 334.383 111.775 333.662 112.125C333.036 112.469 332.419 112.724 331.899 113.007C331.052 113.393 330.348 114.038 329.89 114.85C329.765 115.167 329.682 115.499 329.643 115.838C329.608 115.751 329.59 115.658 329.59 115.564C329.585 115.297 329.63 115.031 329.722 114.779C330.143 113.885 330.854 113.161 331.741 112.724C332.278 112.416 332.878 112.151 333.503 111.798C334.145 111.471 334.685 110.974 335.063 110.361C335.375 109.613 335.554 108.816 335.592 108.006C335.724 107.069 336.139 106.195 336.782 105.501C337.4 104.838 338.167 104.333 339.019 104.026C339.871 103.72 340.784 103.62 341.682 103.737C343.129 103.976 344.449 104.708 345.419 105.81C346.07 106.53 346.579 107.368 346.917 108.279C347.049 108.613 347.118 108.969 347.12 109.329Z" fill="#FAFAFA"/>
<path d="M334.132 135.039C334.155 135.176 334.155 135.316 334.132 135.453C334.079 135.852 333.969 136.241 333.806 136.609C333.257 137.754 332.373 138.705 331.271 139.336C330.169 139.966 328.901 140.245 327.637 140.137C326.455 140.027 325.317 139.63 324.323 138.981C323.221 138.278 322.283 137.345 321.573 136.247C320.797 135.109 320.445 133.733 319.634 132.657C319.242 132.135 318.701 131.745 318.083 131.537C317.452 131.36 316.806 131.245 316.153 131.193C314.903 131.118 313.693 130.726 312.636 130.053C311.58 129.38 310.713 128.449 310.116 127.348C309.628 126.436 309.354 125.426 309.314 124.393C309.258 122.901 309.664 121.429 310.477 120.177C310.694 119.843 310.945 119.533 311.226 119.251C311.32 119.147 311.426 119.055 311.543 118.978C311.543 118.978 311.147 119.392 310.662 120.274C309.938 121.515 309.595 122.941 309.675 124.375C309.73 125.354 310.007 126.307 310.486 127.163C311.065 128.196 311.896 129.066 312.9 129.693C313.904 130.321 315.05 130.685 316.232 130.752C316.922 130.795 317.604 130.914 318.268 131.105C318.974 131.338 319.59 131.785 320.031 132.384C320.912 133.566 321.256 134.933 321.987 136C322.653 137.06 323.54 137.962 324.587 138.646C325.522 139.269 326.591 139.659 327.707 139.784C328.682 139.889 329.667 139.746 330.571 139.369C331.903 138.838 333.003 137.85 333.674 136.582C333.864 136.08 334.018 135.564 334.132 135.039Z" fill="#FAFAFA"/>
<path d="M336.176 156.225C336.293 155.68 336.308 155.117 336.22 154.567C336.049 153.831 335.698 153.149 335.2 152.581C334.702 152.013 334.071 151.577 333.364 151.312C332.383 150.955 331.341 150.796 330.297 150.845C329.085 150.902 327.881 151.074 326.701 151.356C325.376 151.683 324.026 151.899 322.665 152C321.16 152.109 319.657 151.768 318.346 151.021C317.128 150.144 316.184 148.939 315.623 147.546C315.072 146.331 314.332 145.211 313.429 144.23C311.871 142.579 309.821 141.478 307.585 141.09C306.075 140.841 304.529 140.91 303.046 141.293C301.998 141.566 301.451 141.84 301.434 141.795C301.553 141.706 301.683 141.632 301.821 141.575C302.204 141.398 302.599 141.248 303.002 141.125C304.502 140.665 306.086 140.544 307.638 140.772C309.962 141.126 312.106 142.236 313.737 143.93C314.678 144.936 315.449 146.089 316.02 147.343C316.552 148.66 317.444 149.8 318.593 150.633C319.83 151.317 321.239 151.623 322.647 151.515C323.984 151.421 325.31 151.217 326.613 150.907C327.82 150.63 329.051 150.468 330.288 150.421C331.382 150.387 332.47 150.576 333.488 150.977C334.332 151.321 335.062 151.895 335.594 152.635C336.003 153.184 336.274 153.822 336.387 154.496C336.457 154.922 336.439 155.357 336.334 155.775C336.313 155.934 336.259 156.087 336.176 156.225Z" fill="#FAFAFA"/>
<path d="M373.986 113.148C373.728 113.997 373.354 114.808 372.875 115.555C372.513 116.171 372.048 116.72 371.5 117.178C370.686 117.865 369.833 118.504 368.944 119.092C368.944 119.092 343.465 121.985 339.138 121.624C334.81 121.262 320.259 106.444 320.259 106.444C316.833 110.221 312.945 113.552 308.688 116.358C308.688 116.358 322.11 128.53 333.911 134.457C341.42 138.232 372.69 128.821 372.743 128.812C375.534 128.873 378.325 128.784 381.107 128.547C384.993 128.053 384.949 127.665 384.817 127.26C384.456 126.069 377.952 127.877 379.124 126.677C380.296 125.478 387.338 125.399 386.906 124.173C386.342 122.567 379.573 124.587 378.974 124.711C378.375 124.834 378.181 123.996 378.718 123.908C379.485 123.784 387.532 122.267 386.994 120.689C386.694 119.807 385.178 120.495 385.178 120.495C385.178 120.495 377.758 122.47 377.528 121.721C377.299 120.971 381.618 119.648 383.099 119.313C384.579 118.978 385.011 118.14 384.324 117.619C383.856 117.258 379.274 118.184 377.811 118.545C376.348 118.907 372.355 119.992 373.889 117.857C375.422 115.723 375.801 113.5 375.484 112.83C375.394 112.69 375.263 112.582 375.11 112.518C374.957 112.454 374.788 112.438 374.625 112.472C374.463 112.507 374.315 112.59 374.201 112.71C374.086 112.831 374.011 112.983 373.986 113.148Z" fill="#B78876"/>
<path d="M309.639 63.3679C309.816 63.6865 310.11 63.9241 310.458 64.031C310.806 64.1379 311.182 64.1057 311.508 63.9412C312.169 63.6149 312.944 63.1033 313.059 62.3801C313.173 61.6568 313.217 60.7307 313.288 59.9987C313.369 59.1689 313.526 58.3482 313.755 57.5467C316.399 58.0759 318.162 57.3438 319.924 55.3241C320.818 56.1719 321.936 56.7442 323.146 56.9725C324.355 57.2009 325.605 57.0757 326.746 56.6118C327.288 56.304 327.888 56.1146 328.509 56.0561C329.443 56.0561 330.271 56.8764 331.153 56.8764C331.632 56.8267 332.076 56.6025 332.401 56.2464C332.726 55.8902 332.909 55.427 332.915 54.9448C332.898 54.4572 332.764 53.981 332.525 53.5559C332.285 53.1308 331.948 52.7693 331.54 52.5017C330.715 51.981 329.791 51.6357 328.826 51.4874C325.452 50.8982 322.006 50.8595 318.62 51.3727C317.014 51.5238 315.436 51.8947 313.931 52.4752C312.419 53.0694 311.139 54.1367 310.283 55.5181C309.066 57.6614 309.34 60.3074 309.657 62.7593" fill="#263238"/>
<path d="M340.977 222.41C340.844 222.228 340.732 222.033 340.642 221.827L339.761 220.125C339.02 218.635 337.901 216.509 336.491 213.898C333.662 208.677 329.537 201.55 324.69 193.921C319.842 186.292 315.312 179.421 312.025 174.455L308.2 168.546C307.777 167.875 307.433 167.337 307.178 166.923C307.052 166.739 306.942 166.544 306.852 166.341C307.004 166.507 307.139 166.687 307.257 166.879L308.341 168.449L312.298 174.27C315.621 179.2 320.23 186.001 325.051 193.674C329.872 201.347 334.058 208.474 336.79 213.748C338.165 216.394 339.241 218.538 339.928 220.046L340.73 221.81C340.833 222.001 340.915 222.202 340.977 222.41Z" fill="#455A64"/>
<path d="M269.484 263.855L284.026 279.193L287.402 277.059L271.917 261.738L269.484 263.855Z" fill="#455A64"/>
<path d="M321.341 104.875C320.825 105.626 320.234 106.323 319.579 106.957C318.442 108.191 316.811 109.849 314.925 111.578C313.039 113.307 311.241 114.789 309.902 115.812C309.214 116.405 308.467 116.925 307.672 117.364C308.307 116.731 308.984 116.142 309.699 115.6C310.977 114.515 312.731 113.007 314.617 111.287C316.503 109.567 318.142 107.953 319.35 106.78C319.966 106.097 320.632 105.46 321.341 104.875Z" fill="#263238"/>
<path d="M307.68 85.127C307.985 85.234 308.269 85.3953 308.517 85.6032C309.211 86.132 309.831 86.752 310.359 87.4466C311.707 89.2106 313.338 91.7243 315.101 94.5555C316.863 97.3868 318.353 99.8476 319.507 101.832L320.856 104.037C321.038 104.298 321.188 104.579 321.305 104.875C321.075 104.654 320.874 104.405 320.706 104.134C320.344 103.64 319.824 102.917 319.234 102.008C318.027 100.183 316.431 97.5984 314.677 94.7937C312.924 91.9889 311.328 89.4046 310.068 87.6406C309.391 86.6972 308.587 85.8514 307.68 85.127Z" fill="#263238"/>
<path d="M299.122 99.1064C299.192 99.1064 299.368 100.2 299.765 101.964C300.293 104.256 301.006 106.5 301.898 108.676C302.805 110.846 303.884 112.94 305.123 114.938C306.084 116.473 306.745 117.373 306.692 117.426C306.639 117.479 306.472 117.232 306.146 116.843C305.82 116.455 305.37 115.864 304.859 115.079C303.517 113.115 302.383 111.016 301.475 108.817C300.57 106.619 299.89 104.335 299.448 101.999C299.289 101.117 299.183 100.368 299.148 99.8562C299.102 99.6089 299.093 99.3563 299.122 99.1064Z" fill="#263238"/>
<path d="M45.5709 147.016C40.5737 147.819 38.344 153.958 38.7758 158.994C39.2077 164.03 41.2876 168.969 40.7324 173.988C40.0273 180.374 35.2064 185.772 34.6424 192.175C33.9814 199.725 39.3134 206.419 40.9086 213.828C41.6842 217.435 41.5785 221.246 42.9181 224.685C44.061 227.609 46.1816 230.045 48.9185 231.579C51.6554 233.112 54.8391 233.649 57.9269 233.096C61.0147 232.544 63.8155 230.937 65.8518 228.549C67.888 226.161 69.0338 223.141 69.0937 220.002C69.2083 214.207 65.6301 208.748 66.0619 202.962C66.388 198.693 68.891 194.644 68.3534 190.393C67.7188 185.331 63.0654 181.741 61.382 176.916C59.6987 172.092 61.3115 166.773 60.7387 161.702C59.7163 152.626 54.6751 146.284 45.5709 147.016Z" fill="#FF725E"/>
<path d="M20.0747 191.037C19.1934 199.46 22.9479 209.374 27.2752 216.615C31.6557 223.951 38.2595 229.698 46.1269 233.02C47.0082 233.391 48.1011 233.699 48.8414 233.1C49.1038 232.81 49.301 232.467 49.4196 232.094C49.5382 231.721 49.5754 231.327 49.5289 230.939C49.5896 221.995 46.7522 213.273 41.4419 206.079C36.1317 198.885 28.6347 193.608 20.0747 191.037Z" fill="#FF725E"/>
<g opacity="0.2">
<path opacity="0.2" d="M20.0747 191.037C19.1934 199.46 22.9479 209.374 27.2752 216.615C31.6557 223.951 38.2595 229.698 46.1269 233.02C47.0082 233.391 48.1011 233.699 48.8414 233.1C49.1038 232.81 49.301 232.467 49.4196 232.094C49.5382 231.721 49.5754 231.327 49.5289 230.939C49.5896 221.995 46.7522 213.273 41.4419 206.079C36.1317 198.885 28.6347 193.608 20.0747 191.037Z" fill="black"/>
</g>
<path d="M56.7472 250.634C56.6459 250.491 56.5657 250.333 56.5093 250.167C56.3506 249.805 56.1479 249.347 55.91 248.791C55.3988 247.583 54.6497 245.854 53.6802 243.728C51.1711 238.192 48.3825 232.787 45.3252 227.535C42.2378 222.285 38.8874 217.196 35.2868 212.285C33.9119 210.406 32.775 208.889 31.973 207.875L31.0916 206.675C30.976 206.545 30.8781 206.399 30.8008 206.243C30.8008 206.243 30.933 206.358 31.1621 206.614C31.3913 206.869 31.7438 207.302 32.1404 207.76C33.0217 208.757 34.1675 210.239 35.5776 212.1C39.2632 216.953 42.6565 222.022 45.7394 227.279C48.8096 232.544 51.5642 237.986 53.9887 243.578C54.87 245.73 55.628 247.486 56.0774 248.711C56.2889 249.285 56.4652 249.752 56.5974 250.123C56.6693 250.286 56.7196 250.458 56.7472 250.634Z" fill="#263238"/>
<path d="M51.3283 170.319C51.3843 170.586 51.4167 170.858 51.4253 171.131C51.4253 171.704 51.5222 172.471 51.5927 173.45L52.1391 181.988C52.5886 189.194 53.232 199.152 54.0076 210.15C54.7831 221.149 55.5411 231.089 56.0963 238.295C56.3695 241.823 56.5899 244.76 56.7485 246.824C56.819 247.794 56.8719 248.588 56.9072 249.144C56.9306 249.414 56.9306 249.685 56.9072 249.955C56.8422 249.692 56.8009 249.423 56.7838 249.152C56.7221 248.579 56.6428 247.812 56.537 246.842L55.735 238.321C55.0916 231.124 54.272 221.175 53.4964 210.177C52.7208 199.178 52.1391 189.221 51.7337 182.006C51.5663 178.434 51.4253 175.523 51.3371 173.459C51.3371 172.48 51.2754 171.695 51.2578 171.14C51.258 170.865 51.2815 170.59 51.3283 170.319Z" fill="#263238"/>
<path d="M43.5898 238.621H64.6713V254.109C64.6725 255.44 64.4114 256.759 63.9029 257.989C63.3944 259.219 62.6485 260.336 61.7079 261.278C60.7674 262.219 59.6506 262.965 58.4214 263.474C57.1923 263.983 55.875 264.244 54.5448 264.243C51.9493 264.242 49.4535 263.242 47.5737 261.451C45.6938 259.66 44.5736 257.215 44.4447 254.621L43.5898 238.621Z" fill="#263238"/>
</svg>
