<svg width="475" height="223" viewBox="0 0 475 223" fill="none" xmlns="http://www.w3.org/2000/svg">
<path d="M1.09375 1.26318C53.7852 4.49579 106.697 9.18419 159.514 9.18419C172.168 9.18419 186.978 7.0672 199.266 10.651C227.79 18.9707 270.749 33.4709 277.742 67.2716C281.102 83.5114 279.153 112.157 257.353 112.157C251.191 112.157 249.304 105.543 255.74 103.65C266.458 100.497 278.75 100.472 289.184 104.53C321.226 116.991 332.347 142.888 346.978 171.418C356.99 190.943 371.052 200.57 390.69 209.996C407.072 217.86 432.778 221.771 450.864 221.771C459.552 221.771 463.5 219 474.5 219" stroke="#ACA9A9" stroke-linecap="round" stroke-dasharray="5 5"/>
</svg>
