<svg width="337" height="325" viewBox="0 0 337 325" fill="none" xmlns="http://www.w3.org/2000/svg">
<path d="M0.5 1C71.4656 1.1684 36.4781 40.1446 102.68 40.5368C117.299 40.6235 138.039 42.6866 152.386 38.4073C161.17 35.7871 159.145 28.3475 151.939 25.6302C139.054 20.7712 113.21 19.2802 106.254 30.8721C91.9023 54.789 119.793 73.0609 144.679 86.7312C171.29 101.349 209.453 120.464 244.538 119.821C257.998 119.574 268.785 116.077 271.449 107.499C273.763 100.046 266.444 97.7065 258.054 97.7065C242.549 97.7065 235.043 100.263 227.337 110.811C198.982 149.622 347.864 205.553 301.974 234.831C261.333 260.76 373.332 318.069 322.492 324" stroke="#ACA9A9" stroke-linecap="round" stroke-linejoin="round" stroke-dasharray="5 5"/>
</svg>
