<svg width="368" height="170" viewBox="0 0 368 170" fill="none" xmlns="http://www.w3.org/2000/svg">
<path d="M367.5 1C325.261 10.4219 331.397 9.00099 290.03 21.8816C262.251 30.5314 235.691 42.3935 209.36 54.6539C191.902 62.7827 173.718 70.7445 161.462 86.2919C151.021 99.5361 135.578 122.5 139.5 140.4C145 165.5 166.5 165 177 164.5C188.671 163.944 199.649 159.966 207 156C214.351 152.034 225.591 143.911 221.5 130C219 121.5 206.418 116.07 194 114C176 111 141.155 116.307 105.497 120.01C96.9738 120.895 70.4749 123.069 50 132C30.7982 140.375 9 160.5 1 169.5" stroke="#ACA9A9" stroke-linecap="round" stroke-linejoin="round" stroke-dasharray="5 5"/>
</svg>
