<svg width="295" height="314" viewBox="0 0 295 314" fill="none" xmlns="http://www.w3.org/2000/svg">
<path d="M59.2564 25.8116C130.16 26.041 58.7349 25.7235 124.878 26.258C139.485 26.376 160.207 29.1872 174.541 23.3563C183.318 19.7861 181.294 9.64896 174.095 5.94639C161.221 -0.674289 135.399 -2.70593 128.45 13.0889C114.111 45.6778 141.977 70.5747 166.841 89.2016C193.429 109.12 231.559 135.165 266.613 134.289C280.061 133.953 290.839 129.188 293.5 117.5C295.812 107.344 288.5 104.156 280.117 104.156C264.625 104.156 257.126 107.64 249.427 122.013C221.097 174.895 187.692 225.193 141.842 265.087C101.236 300.417 51.7961 304.994 1 313.076" stroke="#ACA9A9" stroke-linecap="round" stroke-linejoin="round" stroke-dasharray="5 5"/>
</svg>
