<svg width="133" height="38" fill="none" xmlns="http://www.w3.org/2000/svg"><path d="M37.8 19.34c0 6.915-3.83 13.184-9.994 16.36a1.82 1.82 0 01-.837.206 1.87 1.87 0 01-1.233-.482 1.757 1.757 0 01-.58-1.32 1.78 1.78 0 01.97-1.597 14.775 14.775 0 005.894-5.447 14.712 14.712 0 002.168-7.717c0-8.156-6.658-14.794-14.842-14.794-.12 0-.242 0-.364.005-8.02.192-14.514 6.859-14.478 14.861.009 2.708.765 5.36 2.185 7.669a14.786 14.786 0 005.867 5.416 1.796 1.796 0 01.976 1.6c0 1.12-.937 1.814-1.806 1.814-.28 0-.556-.068-.805-.197C4.707 32.537.863 26.236.886 19.275.922 9.308 9.08 1.083 19.078.943h.265C29.52.943 37.8 9.198 37.8 19.342" fill="#fff"/><path d="M37.8 19.34c0 6.915-3.83 13.184-9.994 16.36a1.82 1.82 0 01-.837.206 1.87 1.87 0 01-1.233-.482 1.757 1.757 0 01-.58-1.32 1.78 1.78 0 01.97-1.597 14.775 14.775 0 005.894-5.447 14.712 14.712 0 002.168-7.717c0-8.156-6.658-14.794-14.842-14.794-.12 0-.242 0-.364.005-8.02.192-14.514 6.859-14.478 14.861.009 2.708.765 5.36 2.185 7.669a14.786 14.786 0 005.867 5.416 1.796 1.796 0 01.976 1.6c0 1.12-.937 1.814-1.806 1.814-.28 0-.556-.068-.805-.197C4.707 32.537.863 26.236.886 19.275.922 9.308 9.08 1.083 19.078.943h.265C29.52.943 37.8 9.198 37.8 19.342" fill="#2D2D2D"/><path d="M21.285 35.911c0 .037 0 .073-.004.11-.005.037-.007.08-.01.119l-.013.093c-.01.058-.023.113-.037.168l-.024.083a1.19 1.19 0 01-.032.096 1.985 1.985 0 01-.225.437c-.025.036-.052.07-.08.104l-.057.071c-.004 0-.006.006-.008.008l-.068.073-.012.013a.847.847 0 01-.066.063h-.006a1.867 1.867 0 01-.604.375c-.037.015-.073.03-.112.041a2.34 2.34 0 01-.23.057 1.24 1.24 0 01-.146.023 2.137 2.137 0 01-.453 0l-.119-.018a1.932 1.932 0 01-.555-.197h-.004a1.909 1.909 0 01-.394-.28l-.03-.028c-.036-.03-.066-.063-.099-.097v-.005c-.018-.02-.039-.04-.057-.063l-.006-.008a2.098 2.098 0 01-.108-.149v-.004l-.056-.086-.014-.024a.203.203 0 00-.016-.029l-.033-.059a.25.25 0 00-.01-.022v-.006a1.507 1.507 0 01-.153-.438 1.297 1.297 0 01-.029-.176 2.707 2.707 0 01-.01-.128v-.011c0-.033-.004-.066-.004-.1a.55.55 0 010-.058.503.503 0 010-.055c0-.04.006-.08.01-.12l.012-.094a1.79 1.79 0 01.094-.347l.031-.082c.036-.087.08-.172.129-.252.02-.035.043-.067.065-.1a2.173 2.173 0 01.225-.27c.02-.022.043-.04.065-.06a1.7 1.7 0 01.394-.28 2.174 2.174 0 01.214-.1c.111-.042.226-.075.343-.097l.119-.019c.052-.006.104-.01.159-.012h.082a2.041 2.041 0 01.7.129 1.877 1.877 0 01.218.1c.143.076.275.17.394.28.008.01.02.018.03.03a.915.915 0 01.082.082c.027.026.052.051.076.08.039.053.078.104.114.156l.045.072c.016.026.032.051.047.081.01.016.018.033.029.049.026.055.051.103.067.147a.366.366 0 01.016.043l.01.028c.017.042.031.085.043.129v.01a1.109 1.109 0 01.04.163c.008.041.014.083.018.125a1.411 1.411 0 01.01.139c0 .032.004.065.004.103M29.057 15.412c0 .487-.193.955-.534 1.3a1.816 1.816 0 01-1.288.54h-6.07v12.227c0 .87-.817 1.578-1.822 1.578-1.005 0-1.822-.708-1.822-1.578V17.252h-5.99c-1.031 0-1.885-.81-1.902-1.808a1.86 1.86 0 01.523-1.321 1.824 1.824 0 011.299-.552h15.784c.483.001.946.195 1.288.54.341.345.534.813.534 1.3z" fill="red"/><path d="M50.158 29.692c-.865 0-1.298-.44-1.298-1.323V14.085h-5.295c-.75 0-1.124-.367-1.124-1.1 0-.715.375-1.072 1.124-1.072h13.16c.766 0 1.149.357 1.15 1.073 0 .733-.384 1.1-1.15 1.099h-5.293v14.284c0 .883-.425 1.324-1.274 1.323zM67.455 29.517c-.647 0-1.055-.253-1.224-.761-.168-.508-.018-1.078.45-1.71l9.34-12.961h-8.764c-.783 0-1.174-.367-1.174-1.1 0-.715.392-1.072 1.174-1.072h10.611c.666 0 1.082.25 1.249.749.167.499.017 1.073-.45 1.723l-9.364 12.96h9.14c.782 0 1.173.358 1.173 1.074 0 .732-.391 1.099-1.174 1.098H67.455zM83.605 29.692c-.5 0-.845-.162-1.037-.485-.192-.324-.179-.72.038-1.188l6.767-15.183c.166-.383.374-.661.624-.836.257-.177.563-.269.875-.262.299 0 .59.091.836.262.258.175.47.453.637.836l6.768 15.183c.216.483.236.883.062 1.199-.175.316-.503.474-.986.474-.367 0-.659-.091-.875-.274-.215-.183-.407-.466-.574-.85l-1.448-3.345h-8.915l-1.424 3.346c-.166.4-.35.687-.55.863-.2.177-.466.264-.798.263v-.003zm7.216-14.906l-3.52 8.339h7.117l-3.546-8.34-.05.001zM103.408 29.692c-.866 0-1.299-.44-1.299-1.323V13.236c0-.883.441-1.324 1.324-1.324h5.968c1.898 0 3.363.454 4.395 1.361 1.033.907 1.549 2.177 1.549 3.809 0 1.315-.35 2.392-1.049 3.233-.7.841-1.69 1.403-2.972 1.686.799.266 1.473.907 2.023 1.923l2.147 3.993c.25.45.3.858.15 1.224s-.491.55-1.025.55c-.367 0-.666-.076-.899-.226-.233-.15-.433-.391-.599-.724L110.5 23.9c-.35-.647-.753-1.084-1.211-1.31-.458-.227-1.044-.34-1.761-.338h-2.822v6.119c0 .882-.432 1.323-1.298 1.323zm1.298-9.39h4.268c2.564 0 3.846-1.057 3.846-3.171 0-2.098-1.282-3.146-3.846-3.147h-4.27l.002 6.318zM125.788 29.742c-2.347 0-4.141-.62-5.381-1.86-1.241-1.241-1.861-3.06-1.861-5.457v-9.39c0-.866.433-1.299 1.299-1.299.865 0 1.298.433 1.298 1.299v9.34c0 3.412 1.549 5.119 4.645 5.119 3.096 0 4.644-1.707 4.645-5.12v-9.338c0-.866.425-1.298 1.273-1.298.849 0 1.274.432 1.274 1.298v9.39c0 2.398-.608 4.216-1.823 5.457-1.215 1.24-3.005 1.86-5.369 1.86" fill="#2D2D2D"/><path d="M63.257 13.194v.073c0 .024-.004.053-.006.077l-.008.062a1.466 1.466 0 01-.082.28 1.217 1.217 0 01-.128.23c-.014.018-.034.047-.054.068-.02.022-.026.032-.038.047-.003 0-.004.004-.005.006l-.045.048-.008.008a.529.529 0 01-.042.042h-.005a1.253 1.253 0 01-.471.274l-.075.022c-.026.007-.054.012-.077.016a.961.961 0 01-.054.009l-.043.005a1.356 1.356 0 01-.299 0l-.077-.012a1.278 1.278 0 01-.366-.129h-.003a1.293 1.293 0 01-.26-.184l-.02-.019a.913.913 0 01-.064-.065v-.002c-.011-.014-.025-.027-.037-.042l-.004-.005a1.733 1.733 0 01-.072-.098v-.003l-.036-.054c-.002-.006-.006-.011-.009-.016a.126.126 0 00-.01-.02l-.022-.038-.007-.015c-.002-.005 0-.003 0-.004a1.135 1.135 0 01-.12-.406c-.002-.028-.005-.054-.006-.083v-.008c0-.022-.003-.043-.003-.066a.217.217 0 010-.038v-.036c0-.027.005-.054.007-.08l.008-.061a1.252 1.252 0 01.04-.165c.006-.017.014-.044.022-.063l.02-.055a1.287 1.287 0 01.276-.41c.013-.014.028-.026.042-.04a1.148 1.148 0 01.33-.219 1.308 1.308 0 01.298-.095l.078-.012a1.67 1.67 0 01.105-.008h.054a1.346 1.346 0 01.46.084 1.426 1.426 0 01.144.066c.094.05.181.112.26.184.005.007.013.012.02.02.019.017.036.035.054.054l.05.054.075.104.03.047a.543.543 0 01.03.054l.019.032a1.803 1.803 0 01.055.125l.007.019c.01.027.02.056.028.085v.006a1.032 1.032 0 01.037.19.864.864 0 01.007.091v.067" fill="red"/><path d="M60.997 29.517h1.961a.305.305 0 00.305-.305V16.43a.309.309 0 00-.089-.216.309.309 0 00-.216-.089h-1.961a.304.304 0 00-.305.305v12.783a.306.306 0 00.305.305z" fill="#2D2D2D"/></svg>