<svg width="38" height="38" fill="none" xmlns="http://www.w3.org/2000/svg"><path d="M37.8 19.34c0 6.915-3.83 13.184-9.994 16.36a1.82 1.82 0 01-.837.206 1.87 1.87 0 01-1.233-.482 1.757 1.757 0 01-.58-1.32 1.78 1.78 0 01.97-1.597 14.775 14.775 0 005.894-5.447 14.712 14.712 0 002.168-7.717c0-8.156-6.658-14.794-14.842-14.794-.12 0-.242 0-.364.005-8.02.192-14.514 6.859-14.478 14.861.009 2.708.765 5.36 2.185 7.669a14.786 14.786 0 005.867 5.416 1.797 1.797 0 01.976 1.6c0 1.12-.937 1.814-1.806 1.814-.28 0-.556-.068-.805-.197C4.707 32.537.863 26.236.886 19.275.922 9.308 9.08 1.083 19.078.943h.265C29.52.943 37.8 9.198 37.8 19.342" fill="#2D2D2D"/><path d="M21.285 35.911c0 .037 0 .073-.004.11-.005.037-.007.08-.01.119l-.013.093c-.01.058-.023.113-.037.168l-.024.083a1.19 1.19 0 01-.032.096 1.985 1.985 0 01-.225.437c-.025.036-.052.07-.08.104l-.057.071c-.004 0-.006.006-.008.008l-.068.073-.012.013a.847.847 0 01-.066.063h-.006a1.867 1.867 0 01-.604.375c-.037.015-.073.03-.112.041a2.34 2.34 0 01-.23.057 1.24 1.24 0 01-.146.023 2.137 2.137 0 01-.453 0l-.119-.018a1.932 1.932 0 01-.555-.197h-.004a1.909 1.909 0 01-.394-.28l-.03-.028c-.036-.03-.066-.063-.099-.097v-.005c-.018-.02-.039-.04-.057-.063l-.006-.008a2.098 2.098 0 01-.108-.149v-.004l-.056-.086-.014-.024a.203.203 0 00-.016-.029l-.033-.059a.25.25 0 00-.01-.022v-.006a1.507 1.507 0 01-.153-.438 1.297 1.297 0 01-.029-.176 2.707 2.707 0 01-.01-.128v-.011c0-.033-.004-.066-.004-.1a.55.55 0 010-.058.503.503 0 010-.055c0-.04.006-.08.01-.12l.012-.094a1.79 1.79 0 01.094-.347l.031-.082c.036-.087.08-.172.129-.252.02-.035.043-.067.065-.1a2.173 2.173 0 01.225-.27c.02-.022.043-.04.065-.06a1.7 1.7 0 01.394-.28 2.174 2.174 0 01.214-.1c.111-.042.226-.075.343-.097l.119-.019c.052-.006.104-.01.159-.012h.082a2.041 2.041 0 01.7.129 1.877 1.877 0 01.218.1c.143.076.275.17.394.28.008.01.02.018.03.03a.915.915 0 01.082.082c.027.026.052.051.076.08.039.053.078.104.114.156l.045.072c.016.026.032.051.047.081.01.016.018.033.029.049.026.055.051.103.067.147a.366.366 0 01.016.043l.01.028c.017.042.031.085.043.129v.01a1.109 1.109 0 01.04.163c.008.041.014.083.018.125a1.411 1.411 0 01.01.139c0 .032.004.065.004.103M29.057 15.412c0 .487-.193.955-.534 1.3a1.816 1.816 0 01-1.288.54h-6.07v12.227c0 .87-.817 1.578-1.822 1.578-1.005 0-1.822-.708-1.822-1.578V17.252h-5.99c-1.031 0-1.885-.81-1.902-1.808a1.86 1.86 0 01.523-1.321 1.824 1.824 0 011.299-.552h15.784c.483.001.946.195 1.288.54.341.345.534.813.534 1.3z" fill="red"/></svg>