<svg width="104" height="104" viewBox="0 0 104 104" fill="none" xmlns="http://www.w3.org/2000/svg">
<path d="M62.8582 67.0545C63.7891 67.0545 64.4873 67.2679 64.9527 67.6945C65.4182 68.1212 65.6509 68.7224 65.6509 69.4982C65.6509 71.1661 64.72 72 62.8582 72H43.4255C41.5248 72 40.5745 71.1661 40.5745 69.4982C40.5745 68.7224 40.8073 68.1212 41.2727 67.6945C41.777 67.2679 42.4945 67.0545 43.4255 67.0545H50.1164V38.0218L44.1236 41.8036C43.7358 42.0364 43.3479 42.1527 42.96 42.1527C42.3006 42.1527 41.7188 41.8618 41.2145 41.28C40.7491 40.6982 40.5164 40.0388 40.5164 39.3018C40.5164 38.4097 40.9042 37.7115 41.68 37.2073L50.64 31.5055C51.5321 30.9624 52.3855 30.6909 53.2 30.6909C54.0533 30.6909 54.7515 30.9624 55.2945 31.5055C55.8376 32.0485 56.1091 32.7855 56.1091 33.7164V67.0545H62.8582Z" fill="#FF1E1E"/>
<mask id="path-2-inside-1" fill="white">
<path d="M72.3679 97.3827C72.8782 98.5196 74.2159 99.032 75.3295 98.473C85.273 93.4815 93.3732 85.4205 98.4096 75.4553C103.786 64.8176 105.344 52.6558 102.825 41.0062C100.305 29.3566 93.8591 18.9262 84.5672 11.4614C75.2752 3.99657 63.7008 -0.0495416 51.7819 0.000457526C39.8629 0.0504567 28.3229 4.19353 19.0939 11.736C9.86485 19.2785 3.50708 29.7626 1.08499 41.433C-1.3371 53.1034 0.323511 65.2516 5.78881 75.8438C10.9086 85.7664 19.0762 93.7592 29.0612 98.667C30.1795 99.2167 31.5129 98.6931 32.0135 97.552C32.5142 96.4109 31.9921 95.0849 30.8761 94.5306C21.8374 90.0416 14.4444 82.778 9.79889 73.7747C4.80785 64.1017 3.29134 53.0076 5.50325 42.35C7.71516 31.6923 13.5212 22.118 21.9494 15.23C30.3775 8.34204 40.9161 4.55849 51.8008 4.51283C62.6855 4.46717 73.2554 8.16217 81.7411 14.9792C90.2267 21.7962 96.1129 31.3215 98.4142 41.9602C100.715 52.5989 99.292 63.7053 94.3823 73.4199C89.8125 82.4618 82.4807 89.7872 73.48 94.3519C72.3687 94.9155 71.8577 96.2459 72.3679 97.3827Z"/>
</mask>
<path d="M72.3679 97.3827C72.8782 98.5196 74.2159 99.032 75.3295 98.473C85.273 93.4815 93.3732 85.4205 98.4096 75.4553C103.786 64.8176 105.344 52.6558 102.825 41.0062C100.305 29.3566 93.8591 18.9262 84.5672 11.4614C75.2752 3.99657 63.7008 -0.0495416 51.7819 0.000457526C39.8629 0.0504567 28.3229 4.19353 19.0939 11.736C9.86485 19.2785 3.50708 29.7626 1.08499 41.433C-1.3371 53.1034 0.323511 65.2516 5.78881 75.8438C10.9086 85.7664 19.0762 93.7592 29.0612 98.667C30.1795 99.2167 31.5129 98.6931 32.0135 97.552C32.5142 96.4109 31.9921 95.0849 30.8761 94.5306C21.8374 90.0416 14.4444 82.778 9.79889 73.7747C4.80785 64.1017 3.29134 53.0076 5.50325 42.35C7.71516 31.6923 13.5212 22.118 21.9494 15.23C30.3775 8.34204 40.9161 4.55849 51.8008 4.51283C62.6855 4.46717 73.2554 8.16217 81.7411 14.9792C90.2267 21.7962 96.1129 31.3215 98.4142 41.9602C100.715 52.5989 99.292 63.7053 94.3823 73.4199C89.8125 82.4618 82.4807 89.7872 73.48 94.3519C72.3687 94.9155 71.8577 96.2459 72.3679 97.3827Z" stroke="#111111" stroke-width="6" stroke-linecap="round" mask="url(#path-2-inside-1)"/>
<circle cx="52" cy="98" r="5" fill="#FF1E1E"/>
</svg>
