<svg width="104" height="104" viewBox="0 0 104 104" fill="none" xmlns="http://www.w3.org/2000/svg">
<path d="M63.2655 68.0545C64.1964 68.0545 64.8945 68.2679 65.36 68.6945C65.8642 69.1212 66.1164 69.7224 66.1164 70.4982C66.1164 72.1661 65.1661 73 63.2655 73H40.8073C39.9539 73 39.2752 72.7673 38.7709 72.3018C38.3055 71.7976 38.0727 71.177 38.0727 70.44C38.0727 69.5479 38.4218 68.7333 39.12 67.9964L52.7927 53.0436C54.6158 51.0655 55.9345 49.2618 56.7491 47.6327C57.5636 46.0036 57.9709 44.3939 57.9709 42.8036C57.9709 40.7479 57.3697 39.177 56.1673 38.0909C55.0036 36.9661 53.3358 36.4036 51.1636 36.4036C47.8667 36.4036 44.5891 37.6642 41.3309 40.1855C40.9042 40.457 40.5358 40.6703 40.2255 40.8255C39.9539 40.9418 39.663 41 39.3527 41C38.8097 41 38.3442 40.7479 37.9564 40.2436C37.5685 39.7394 37.3745 39.1382 37.3745 38.44C37.3745 37.4703 37.7624 36.6945 38.5382 36.1127C40.1673 34.7164 42.1261 33.6109 44.4145 32.7964C46.703 31.943 49.0109 31.5164 51.3382 31.5164C55.1782 31.5164 58.223 32.5055 60.4727 34.4836C62.7612 36.423 63.9055 39.0606 63.9055 42.3964C63.9055 44.7624 63.3818 47.0121 62.3345 49.1455C61.3261 51.2788 59.6194 53.6642 57.2145 56.3018L46.2182 68.0545H63.2655Z" fill="#FF1E1E"/>
<circle cx="52" cy="98" r="5" fill="#FF1E1E"/>
<mask id="path-3-inside-1" fill="white">
<path d="M72.3679 97.3827C72.8782 98.5196 74.2159 99.032 75.3295 98.473C85.273 93.4815 93.3732 85.4205 98.4096 75.4553C103.786 64.8176 105.344 52.6558 102.825 41.0062C100.305 29.3566 93.8591 18.9262 84.5672 11.4614C75.2752 3.99657 63.7008 -0.0495416 51.7819 0.000457526C39.8629 0.0504567 28.3229 4.19353 19.0939 11.736C9.86485 19.2785 3.50708 29.7626 1.08499 41.433C-1.3371 53.1034 0.323511 65.2516 5.78881 75.8438C10.9086 85.7664 19.0762 93.7592 29.0612 98.667C30.1795 99.2167 31.5129 98.6931 32.0135 97.552C32.5142 96.4109 31.9921 95.0849 30.8761 94.5306C21.8374 90.0416 14.4444 82.778 9.79889 73.7747C4.80785 64.1017 3.29134 53.0076 5.50325 42.35C7.71516 31.6923 13.5212 22.118 21.9494 15.23C30.3775 8.34204 40.9161 4.55849 51.8008 4.51283C62.6855 4.46717 73.2554 8.16217 81.7411 14.9792C90.2267 21.7962 96.1129 31.3215 98.4142 41.9602C100.715 52.5989 99.292 63.7053 94.3823 73.4199C89.8125 82.4618 82.4807 89.7872 73.48 94.3519C72.3687 94.9155 71.8577 96.2459 72.3679 97.3827Z"/>
</mask>
<path d="M72.3679 97.3827C72.8782 98.5196 74.2159 99.032 75.3295 98.473C85.273 93.4815 93.3732 85.4205 98.4096 75.4553C103.786 64.8176 105.344 52.6558 102.825 41.0062C100.305 29.3566 93.8591 18.9262 84.5672 11.4614C75.2752 3.99657 63.7008 -0.0495416 51.7819 0.000457526C39.8629 0.0504567 28.3229 4.19353 19.0939 11.736C9.86485 19.2785 3.50708 29.7626 1.08499 41.433C-1.3371 53.1034 0.323511 65.2516 5.78881 75.8438C10.9086 85.7664 19.0762 93.7592 29.0612 98.667C30.1795 99.2167 31.5129 98.6931 32.0135 97.552C32.5142 96.4109 31.9921 95.0849 30.8761 94.5306C21.8374 90.0416 14.4444 82.778 9.79889 73.7747C4.80785 64.1017 3.29134 53.0076 5.50325 42.35C7.71516 31.6923 13.5212 22.118 21.9494 15.23C30.3775 8.34204 40.9161 4.55849 51.8008 4.51283C62.6855 4.46717 73.2554 8.16217 81.7411 14.9792C90.2267 21.7962 96.1129 31.3215 98.4142 41.9602C100.715 52.5989 99.292 63.7053 94.3823 73.4199C89.8125 82.4618 82.4807 89.7872 73.48 94.3519C72.3687 94.9155 71.8577 96.2459 72.3679 97.3827Z" stroke="#111111" stroke-width="6" stroke-linecap="round" mask="url(#path-3-inside-1)"/>
</svg>
