<svg width="140" height="68" viewBox="0 0 140 68" fill="none" xmlns="http://www.w3.org/2000/svg">
<path d="M1.80114 0.711851C1.75365 0.439824 1.49462 0.257806 1.22259 0.305303C0.950566 0.3528 0.768549 0.611825 0.816045 0.883852L1.80114 0.711851ZM138.96 59.2388C139.155 59.0436 139.155 58.727 138.96 58.5317L135.778 55.3497C135.582 55.1545 135.266 55.1545 135.071 55.3497C134.875 55.545 134.875 55.8616 135.071 56.0568L137.899 58.8853L135.071 61.7137C134.875 61.909 134.875 62.2255 135.071 62.4208C135.266 62.6161 135.582 62.6161 135.778 62.4208L138.96 59.2388ZM0.816045 0.883852C4.591 22.504 13.2505 40.4883 26.6482 52.3649C40.0577 64.2519 58.1644 69.9761 80.7274 67.1557L80.6034 66.1634C58.2906 68.9525 40.4807 63.2905 27.3116 51.6166C14.1307 39.9322 5.5497 22.1809 1.80114 0.711851L0.816045 0.883852ZM80.7274 67.1557C90.9445 65.8786 100.22 63.9297 109.514 62.3086C118.818 60.6858 128.17 59.3853 138.606 59.3853V58.3853C128.085 58.3853 118.668 59.6968 109.342 61.3235C100.005 62.952 90.7889 64.8903 80.6034 66.1634L80.7274 67.1557Z" fill="#FF1E1E"/>
</svg>
