<svg width="185" height="110" viewBox="0 0 185 110" fill="none" xmlns="http://www.w3.org/2000/svg">
<path d="M0.955867 0.794609C0.842433 0.542841 0.546378 0.430699 0.294609 0.544133C0.042841 0.657567 -0.0693011 0.953622 0.044133 1.20539L0.955867 0.794609ZM39.0294 100.203L38.8603 100.673L39.0294 100.203ZM184.854 105.864C185.049 105.669 185.049 105.353 184.854 105.157L181.672 101.975C181.476 101.78 181.16 101.78 180.964 101.975C180.769 102.171 180.769 102.487 180.964 102.682L183.793 105.511L180.964 108.339C180.769 108.535 180.769 108.851 180.964 109.046C181.16 109.242 181.476 109.242 181.672 109.046L184.854 105.864ZM0.044133 1.20539C2.92972 7.60998 5.03292 16.3605 7.00169 26.0875C8.96555 35.7902 10.796 46.467 13.1341 56.629C15.4733 66.7958 18.333 76.5077 22.3787 84.3178C26.424 92.1271 31.6865 98.0952 38.8603 100.673L39.1984 99.7322C32.3584 97.2741 27.2536 91.5546 23.2666 83.8578C19.28 76.1617 16.4426 66.5487 14.1086 56.4048C11.7736 46.2561 9.95466 35.6362 7.98181 25.8891C6.01387 16.1662 3.893 7.31361 0.955867 0.794609L0.044133 1.20539ZM38.8603 100.673C51.7595 105.309 66.0362 106.637 80.4075 106.813C87.595 106.9 94.8149 106.7 101.904 106.477C108.996 106.255 115.953 106.011 122.633 106.011V105.011C115.934 105.011 108.957 105.255 101.872 105.478C94.7834 105.7 87.5831 105.9 80.4197 105.813C66.0895 105.638 51.943 104.312 39.1984 99.7322L38.8603 100.673ZM122.633 106.011C122.681 106.011 122.728 106.011 122.776 106.011C122.824 106.011 122.871 106.011 122.919 106.011C122.966 106.011 123.014 106.011 123.062 106.011C123.109 106.011 123.156 106.011 123.204 106.011C123.251 106.011 123.299 106.011 123.346 106.011C123.393 106.011 123.441 106.011 123.488 106.011C123.535 106.011 123.582 106.011 123.629 106.011C123.677 106.011 123.724 106.011 123.771 106.011C123.818 106.011 123.865 106.011 123.912 106.011C123.959 106.011 124.006 106.011 124.053 106.011C124.1 106.011 124.147 106.011 124.193 106.011C124.24 106.011 124.287 106.011 124.334 106.011C124.38 106.011 124.427 106.011 124.474 106.011C124.52 106.011 124.567 106.011 124.614 106.011C124.66 106.011 124.707 106.011 124.753 106.011C124.8 106.011 124.846 106.011 124.893 106.011C124.939 106.011 124.985 106.011 125.032 106.011C125.078 106.011 125.124 106.011 125.17 106.011C125.217 106.011 125.263 106.011 125.309 106.011C125.355 106.011 125.401 106.011 125.447 106.011C125.493 106.011 125.54 106.011 125.586 106.011C125.632 106.011 125.677 106.011 125.723 106.011C125.769 106.011 125.815 106.011 125.861 106.011C125.907 106.011 125.953 106.011 125.998 106.011C126.044 106.011 126.09 106.011 126.136 106.011C126.181 106.011 126.227 106.011 126.272 106.011C126.318 106.011 126.364 106.011 126.409 106.011C126.455 106.011 126.5 106.011 126.546 106.011C126.591 106.011 126.636 106.011 126.682 106.011C126.727 106.011 126.773 106.011 126.818 106.011C126.863 106.011 126.908 106.011 126.954 106.011C126.999 106.011 127.044 106.011 127.089 106.011C127.134 106.011 127.179 106.011 127.224 106.011C127.269 106.011 127.314 106.011 127.359 106.011C127.404 106.011 127.449 106.011 127.494 106.011C127.539 106.011 127.584 106.011 127.629 106.011C127.674 106.011 127.718 106.011 127.763 106.011C127.808 106.011 127.853 106.011 127.897 106.011C127.942 106.011 127.987 106.011 128.031 106.011C128.076 106.011 128.12 106.011 128.165 106.011C128.209 106.011 128.254 106.011 128.298 106.011C128.343 106.011 128.387 106.011 128.432 106.011C128.476 106.011 128.52 106.011 128.565 106.011C128.609 106.011 128.653 106.011 128.698 106.011C128.742 106.011 128.786 106.011 128.83 106.011C128.874 106.011 128.918 106.011 128.963 106.011C129.007 106.011 129.051 106.011 129.095 106.011C129.139 106.011 129.183 106.011 129.227 106.011C129.271 106.011 129.315 106.011 129.358 106.011C129.402 106.011 129.446 106.011 129.49 106.011C129.534 106.011 129.577 106.011 129.621 106.011C129.665 106.011 129.709 106.011 129.752 106.011C129.796 106.011 129.84 106.011 129.883 106.011C129.927 106.011 129.97 106.011 130.014 106.011C130.057 106.011 130.101 106.011 130.144 106.011C130.188 106.011 130.231 106.011 130.275 106.011C130.318 106.011 130.361 106.011 130.405 106.011C130.448 106.011 130.491 106.011 130.535 106.011C130.578 106.011 130.621 106.011 130.664 106.011C130.707 106.011 130.751 106.011 130.794 106.011C130.837 106.011 130.88 106.011 130.923 106.011C130.966 106.011 131.009 106.011 131.052 106.011C131.095 106.011 131.138 106.011 131.181 106.011C131.224 106.011 131.267 106.011 131.309 106.011C131.352 106.011 131.395 106.011 131.438 106.011C131.481 106.011 131.523 106.011 131.566 106.011C131.609 106.011 131.652 106.011 131.694 106.011C131.737 106.011 131.78 106.011 131.822 106.011C131.865 106.011 131.907 106.011 131.95 106.011C131.992 106.011 132.035 106.011 132.077 106.011C132.12 106.011 132.162 106.011 132.205 106.011C132.247 106.011 132.289 106.011 132.332 106.011C132.374 106.011 132.416 106.011 132.459 106.011C132.501 106.011 132.543 106.011 132.585 106.011C132.628 106.011 132.67 106.011 132.712 106.011C132.754 106.011 132.796 106.011 132.838 106.011C132.88 106.011 132.922 106.011 132.964 106.011C133.006 106.011 133.048 106.011 133.09 106.011C133.132 106.011 133.174 106.011 133.216 106.011C133.258 106.011 133.3 106.011 133.342 106.011C133.384 106.011 133.425 106.011 133.467 106.011C133.509 106.011 133.551 106.011 133.592 106.011C133.634 106.011 133.676 106.011 133.718 106.011C133.759 106.011 133.801 106.011 133.842 106.011C133.884 106.011 133.926 106.011 133.967 106.011C134.009 106.011 134.05 106.011 134.092 106.011C134.133 106.011 134.175 106.011 134.216 106.011C134.258 106.011 134.299 106.011 134.34 106.011C134.382 106.011 134.423 106.011 134.464 106.011C134.506 106.011 134.547 106.011 134.588 106.011C134.629 106.011 134.671 106.011 134.712 106.011C134.753 106.011 134.794 106.011 134.835 106.011C134.877 106.011 134.918 106.011 134.959 106.011C135 106.011 135.041 106.011 135.082 106.011C135.123 106.011 135.164 106.011 135.205 106.011C135.246 106.011 135.287 106.011 135.328 106.011C135.369 106.011 135.41 106.011 135.45 106.011C135.491 106.011 135.532 106.011 135.573 106.011C135.614 106.011 135.655 106.011 135.695 106.011C135.736 106.011 135.777 106.011 135.818 106.011C135.858 106.011 135.899 106.011 135.94 106.011C135.98 106.011 136.021 106.011 136.061 106.011C136.102 106.011 136.143 106.011 136.183 106.011C136.224 106.011 136.264 106.011 136.305 106.011C136.345 106.011 136.386 106.011 136.426 106.011C136.467 106.011 136.507 106.011 136.547 106.011C136.588 106.011 136.628 106.011 136.668 106.011C136.709 106.011 136.749 106.011 136.789 106.011C136.83 106.011 136.87 106.011 136.91 106.011C136.95 106.011 136.991 106.011 137.031 106.011C137.071 106.011 137.111 106.011 137.151 106.011C137.191 106.011 137.232 106.011 137.272 106.011C137.312 106.011 137.352 106.011 137.392 106.011C137.432 106.011 137.472 106.011 137.512 106.011C137.552 106.011 137.592 106.011 137.632 106.011C137.672 106.011 137.712 106.011 137.752 106.011C137.791 106.011 137.831 106.011 137.871 106.011C137.911 106.011 137.951 106.011 137.991 106.011C138.03 106.011 138.07 106.011 138.11 106.011C138.15 106.011 138.189 106.011 138.229 106.011C138.269 106.011 138.309 106.011 138.348 106.011C138.388 106.011 138.427 106.011 138.467 106.011C138.507 106.011 138.546 106.011 138.586 106.011C138.625 106.011 138.665 106.011 138.704 106.011C138.744 106.011 138.783 106.011 138.823 106.011C138.862 106.011 138.902 106.011 138.941 106.011C138.981 106.011 139.02 106.011 139.06 106.011C139.099 106.011 139.138 106.011 139.178 106.011C139.217 106.011 139.256 106.011 139.296 106.011C139.335 106.011 139.374 106.011 139.413 106.011C139.453 106.011 139.492 106.011 139.531 106.011C139.57 106.011 139.61 106.011 139.649 106.011C139.688 106.011 139.727 106.011 139.766 106.011C139.805 106.011 139.844 106.011 139.883 106.011C139.923 106.011 139.962 106.011 140.001 106.011C140.04 106.011 140.079 106.011 140.118 106.011C140.157 106.011 140.196 106.011 140.235 106.011C140.274 106.011 140.313 106.011 140.352 106.011C140.39 106.011 140.429 106.011 140.468 106.011C140.507 106.011 140.546 106.011 140.585 106.011C140.624 106.011 140.662 106.011 140.701 106.011C140.74 106.011 140.779 106.011 140.818 106.011C140.856 106.011 140.895 106.011 140.934 106.011C140.973 106.011 141.011 106.011 141.05 106.011C141.089 106.011 141.127 106.011 141.166 106.011C141.205 106.011 141.243 106.011 141.282 106.011C141.32 106.011 141.359 106.011 141.398 106.011C141.436 106.011 141.475 106.011 141.513 106.011C141.552 106.011 141.59 106.011 141.629 106.011C141.667 106.011 141.706 106.011 141.744 106.011C141.783 106.011 141.821 106.011 141.86 106.011C141.898 106.011 141.936 106.011 141.975 106.011C142.013 106.011 142.052 106.011 142.09 106.011C142.128 106.011 142.167 106.011 142.205 106.011C142.243 106.011 142.281 106.011 142.32 106.011C142.358 106.011 142.396 106.011 142.435 106.011C142.473 106.011 142.511 106.011 142.549 106.011C142.587 106.011 142.626 106.011 142.664 106.011C142.702 106.011 142.74 106.011 142.778 106.011C142.817 106.011 142.855 106.011 142.893 106.011C142.931 106.011 142.969 106.011 143.007 106.011C143.045 106.011 143.083 106.011 143.121 106.011C143.159 106.011 143.197 106.011 143.235 106.011C143.273 106.011 143.311 106.011 143.349 106.011C143.387 106.011 143.425 106.011 143.463 106.011C143.501 106.011 143.539 106.011 143.577 106.011C143.615 106.011 143.653 106.011 143.691 106.011C143.729 106.011 143.767 106.011 143.804 106.011C143.842 106.011 143.88 106.011 143.918 106.011C143.956 106.011 143.994 106.011 144.031 106.011C144.069 106.011 144.107 106.011 144.145 106.011C144.183 106.011 144.22 106.011 144.258 106.011C144.296 106.011 144.334 106.011 144.371 106.011C144.409 106.011 144.447 106.011 144.484 106.011C144.522 106.011 144.56 106.011 144.597 106.011C144.635 106.011 144.673 106.011 144.71 106.011C144.748 106.011 144.786 106.011 144.823 106.011C144.861 106.011 144.898 106.011 144.936 106.011C144.973 106.011 145.011 106.011 145.049 106.011C145.086 106.011 145.124 106.011 145.161 106.011C145.199 106.011 145.236 106.011 145.274 106.011C145.311 106.011 145.349 106.011 145.386 106.011C145.424 106.011 145.461 106.011 145.499 106.011C145.536 106.011 145.573 106.011 145.611 106.011C145.648 106.011 145.686 106.011 145.723 106.011C145.761 106.011 145.798 106.011 145.835 106.011C145.873 106.011 145.91 106.011 145.947 106.011C145.985 106.011 146.022 106.011 146.059 106.011C146.097 106.011 146.134 106.011 146.171 106.011C146.209 106.011 146.246 106.011 146.283 106.011C146.321 106.011 146.358 106.011 146.395 106.011C146.432 106.011 146.47 106.011 146.507 106.011C146.544 106.011 146.581 106.011 146.618 106.011C146.656 106.011 146.693 106.011 146.73 106.011C146.767 106.011 146.804 106.011 146.842 106.011C146.879 106.011 146.916 106.011 146.953 106.011C146.99 106.011 147.027 106.011 147.065 106.011C147.102 106.011 147.139 106.011 147.176 106.011C147.213 106.011 147.25 106.011 147.287 106.011C147.324 106.011 147.361 106.011 147.398 106.011C147.436 106.011 147.473 106.011 147.51 106.011C147.547 106.011 147.584 106.011 147.621 106.011C147.658 106.011 147.695 106.011 147.732 106.011C147.769 106.011 147.806 106.011 147.843 106.011C147.88 106.011 147.917 106.011 147.954 106.011C147.991 106.011 148.028 106.011 148.065 106.011C148.102 106.011 148.139 106.011 148.176 106.011C148.213 106.011 148.249 106.011 148.286 106.011C148.323 106.011 148.36 106.011 148.397 106.011C148.434 106.011 148.471 106.011 148.508 106.011C148.545 106.011 148.582 106.011 148.619 106.011C148.655 106.011 148.692 106.011 148.729 106.011C148.766 106.011 148.803 106.011 148.84 106.011C148.877 106.011 148.913 106.011 148.95 106.011C148.987 106.011 149.024 106.011 149.061 106.011C149.098 106.011 149.134 106.011 149.171 106.011C149.208 106.011 149.245 106.011 149.282 106.011C149.318 106.011 149.355 106.011 149.392 106.011C149.429 106.011 149.466 106.011 149.502 106.011C149.539 106.011 149.576 106.011 149.613 106.011C149.649 106.011 149.686 106.011 149.723 106.011C149.76 106.011 149.796 106.011 149.833 106.011C149.87 106.011 149.907 106.011 149.943 106.011C149.98 106.011 150.017 106.011 150.053 106.011C150.09 106.011 150.127 106.011 150.164 106.011C150.2 106.011 150.237 106.011 150.274 106.011C150.31 106.011 150.347 106.011 150.384 106.011C150.42 106.011 150.457 106.011 150.494 106.011C150.53 106.011 150.567 106.011 150.604 106.011C150.64 106.011 150.677 106.011 150.714 106.011C150.75 106.011 150.787 106.011 150.824 106.011C150.86 106.011 150.897 106.011 150.934 106.011C150.97 106.011 151.007 106.011 151.043 106.011C151.08 106.011 151.117 106.011 151.153 106.011C151.19 106.011 151.227 106.011 151.263 106.011C151.3 106.011 151.336 106.011 151.373 106.011C151.41 106.011 151.446 106.011 151.483 106.011C151.519 106.011 151.556 106.011 151.593 106.011C151.629 106.011 151.666 106.011 151.702 106.011C151.739 106.011 151.775 106.011 151.812 106.011C151.849 106.011 151.885 106.011 151.922 106.011C151.958 106.011 151.995 106.011 152.031 106.011C152.068 106.011 152.105 106.011 152.141 106.011C152.178 106.011 152.214 106.011 152.251 106.011C152.287 106.011 152.324 106.011 152.361 106.011C152.397 106.011 152.434 106.011 152.47 106.011C152.507 106.011 152.543 106.011 152.58 106.011C152.616 106.011 152.653 106.011 152.689 106.011C152.726 106.011 152.763 106.011 152.799 106.011C152.836 106.011 152.872 106.011 152.909 106.011C152.945 106.011 152.982 106.011 153.018 106.011C153.055 106.011 153.091 106.011 153.128 106.011C153.165 106.011 153.201 106.011 153.238 106.011C153.274 106.011 153.311 106.011 153.347 106.011C153.384 106.011 153.42 106.011 153.457 106.011C153.493 106.011 153.53 106.011 153.566 106.011C153.603 106.011 153.639 106.011 153.676 106.011C153.713 106.011 153.749 106.011 153.786 106.011C153.822 106.011 153.859 106.011 153.895 106.011C153.932 106.011 153.968 106.011 154.005 106.011C154.041 106.011 154.078 106.011 154.114 106.011C154.151 106.011 154.188 106.011 154.224 106.011C154.261 106.011 154.297 106.011 154.334 106.011C154.37 106.011 154.407 106.011 154.443 106.011C154.48 106.011 154.516 106.011 154.553 106.011C154.59 106.011 154.626 106.011 154.663 106.011C154.699 106.011 154.736 106.011 154.772 106.011C154.809 106.011 154.845 106.011 154.882 106.011C154.919 106.011 154.955 106.011 154.992 106.011C155.028 106.011 155.065 106.011 155.101 106.011C155.138 106.011 155.174 106.011 155.211 106.011C155.248 106.011 155.284 106.011 155.321 106.011C155.357 106.011 155.394 106.011 155.431 106.011C155.467 106.011 155.504 106.011 155.54 106.011C155.577 106.011 155.613 106.011 155.65 106.011C155.687 106.011 155.723 106.011 155.76 106.011C155.796 106.011 155.833 106.011 155.87 106.011C155.906 106.011 155.943 106.011 155.98 106.011C156.016 106.011 156.053 106.011 156.089 106.011C156.126 106.011 156.163 106.011 156.199 106.011C156.236 106.011 156.273 106.011 156.309 106.011C156.346 106.011 156.382 106.011 156.419 106.011C156.456 106.011 156.492 106.011 156.529 106.011C156.566 106.011 156.602 106.011 156.639 106.011C156.676 106.011 156.712 106.011 156.749 106.011C156.786 106.011 156.822 106.011 156.859 106.011C156.896 106.011 156.933 106.011 156.969 106.011C157.006 106.011 157.043 106.011 157.079 106.011C157.116 106.011 157.153 106.011 157.19 106.011C157.226 106.011 157.263 106.011 157.3 106.011C157.336 106.011 157.373 106.011 157.41 106.011C157.447 106.011 157.483 106.011 157.52 106.011C157.557 106.011 157.594 106.011 157.63 106.011C157.667 106.011 157.704 106.011 157.741 106.011C157.778 106.011 157.814 106.011 157.851 106.011C157.888 106.011 157.925 106.011 157.962 106.011C157.998 106.011 158.035 106.011 158.072 106.011C158.109 106.011 158.146 106.011 158.182 106.011C158.219 106.011 158.256 106.011 158.293 106.011C158.33 106.011 158.367 106.011 158.404 106.011C158.44 106.011 158.477 106.011 158.514 106.011C158.551 106.011 158.588 106.011 158.625 106.011C158.662 106.011 158.699 106.011 158.736 106.011C158.773 106.011 158.809 106.011 158.846 106.011C158.883 106.011 158.92 106.011 158.957 106.011C158.994 106.011 159.031 106.011 159.068 106.011C159.105 106.011 159.142 106.011 159.179 106.011C159.216 106.011 159.253 106.011 159.29 106.011C159.327 106.011 159.364 106.011 159.401 106.011C159.438 106.011 159.475 106.011 159.512 106.011C159.549 106.011 159.586 106.011 159.623 106.011C159.66 106.011 159.697 106.011 159.734 106.011C159.771 106.011 159.809 106.011 159.846 106.011C159.883 106.011 159.92 106.011 159.957 106.011C159.994 106.011 160.031 106.011 160.068 106.011C160.105 106.011 160.143 106.011 160.18 106.011C160.217 106.011 160.254 106.011 160.291 106.011C160.328 106.011 160.366 106.011 160.403 106.011C160.44 106.011 160.477 106.011 160.514 106.011C160.552 106.011 160.589 106.011 160.626 106.011C160.663 106.011 160.701 106.011 160.738 106.011C160.775 106.011 160.812 106.011 160.85 106.011C160.887 106.011 160.924 106.011 160.961 106.011C160.999 106.011 161.036 106.011 161.073 106.011C161.111 106.011 161.148 106.011 161.185 106.011C161.223 106.011 161.26 106.011 161.298 106.011C161.335 106.011 161.372 106.011 161.41 106.011C161.447 106.011 161.484 106.011 161.522 106.011C161.559 106.011 161.597 106.011 161.634 106.011C161.672 106.011 161.709 106.011 161.747 106.011C161.784 106.011 161.822 106.011 161.859 106.011C161.897 106.011 161.934 106.011 161.972 106.011C162.009 106.011 162.047 106.011 162.084 106.011C162.122 106.011 162.159 106.011 162.197 106.011C162.234 106.011 162.272 106.011 162.31 106.011C162.347 106.011 162.385 106.011 162.423 106.011C162.46 106.011 162.498 106.011 162.535 106.011C162.573 106.011 162.611 106.011 162.648 106.011C162.686 106.011 162.724 106.011 162.762 106.011C162.799 106.011 162.837 106.011 162.875 106.011C162.913 106.011 162.95 106.011 162.988 106.011C163.026 106.011 163.064 106.011 163.101 106.011C163.139 106.011 163.177 106.011 163.215 106.011C163.253 106.011 163.291 106.011 163.328 106.011C163.366 106.011 163.404 106.011 163.442 106.011C163.48 106.011 163.518 106.011 163.556 106.011C163.594 106.011 163.632 106.011 163.67 106.011C163.708 106.011 163.745 106.011 163.783 106.011C163.821 106.011 163.859 106.011 163.897 106.011C163.935 106.011 163.974 106.011 164.012 106.011C164.05 106.011 164.088 106.011 164.126 106.011C164.164 106.011 164.202 106.011 164.24 106.011C164.278 106.011 164.316 106.011 164.354 106.011C164.393 106.011 164.431 106.011 164.469 106.011C164.507 106.011 164.545 106.011 164.584 106.011C164.622 106.011 164.66 106.011 164.698 106.011C164.736 106.011 164.775 106.011 164.813 106.011C164.851 106.011 164.89 106.011 164.928 106.011C164.966 106.011 165.005 106.011 165.043 106.011C165.081 106.011 165.12 106.011 165.158 106.011C165.196 106.011 165.235 106.011 165.273 106.011C165.312 106.011 165.35 106.011 165.389 106.011C165.427 106.011 165.466 106.011 165.504 106.011C165.543 106.011 165.581 106.011 165.62 106.011C165.658 106.011 165.697 106.011 165.735 106.011C165.774 106.011 165.812 106.011 165.851 106.011C165.89 106.011 165.928 106.011 165.967 106.011C166.006 106.011 166.044 106.011 166.083 106.011C166.122 106.011 166.16 106.011 166.199 106.011C166.238 106.011 166.276 106.011 166.315 106.011C166.354 106.011 166.393 106.011 166.432 106.011C166.47 106.011 166.509 106.011 166.548 106.011C166.587 106.011 166.626 106.011 166.665 106.011C166.703 106.011 166.742 106.011 166.781 106.011C166.82 106.011 166.859 106.011 166.898 106.011C166.937 106.011 166.976 106.011 167.015 106.011C167.054 106.011 167.093 106.011 167.132 106.011C167.171 106.011 167.21 106.011 167.249 106.011C167.288 106.011 167.328 106.011 167.367 106.011C167.406 106.011 167.445 106.011 167.484 106.011C167.523 106.011 167.562 106.011 167.602 106.011C167.641 106.011 167.68 106.011 167.719 106.011C167.759 106.011 167.798 106.011 167.837 106.011C167.876 106.011 167.916 106.011 167.955 106.011C167.995 106.011 168.034 106.011 168.073 106.011C168.113 106.011 168.152 106.011 168.191 106.011C168.231 106.011 168.27 106.011 168.31 106.011C168.349 106.011 168.389 106.011 168.428 106.011C168.468 106.011 168.507 106.011 168.547 106.011C168.587 106.011 168.626 106.011 168.666 106.011C168.705 106.011 168.745 106.011 168.785 106.011C168.824 106.011 168.864 106.011 168.904 106.011C168.943 106.011 168.983 106.011 169.023 106.011C169.063 106.011 169.102 106.011 169.142 106.011C169.182 106.011 169.222 106.011 169.262 106.011C169.301 106.011 169.341 106.011 169.381 106.011C169.421 106.011 169.461 106.011 169.501 106.011C169.541 106.011 169.581 106.011 169.621 106.011C169.661 106.011 169.701 106.011 169.741 106.011C169.781 106.011 169.821 106.011 169.861 106.011C169.901 106.011 169.941 106.011 169.981 106.011C170.022 106.011 170.062 106.011 170.102 106.011C170.142 106.011 170.182 106.011 170.223 106.011C170.263 106.011 170.303 106.011 170.343 106.011C170.384 106.011 170.424 106.011 170.464 106.011C170.505 106.011 170.545 106.011 170.585 106.011C170.626 106.011 170.666 106.011 170.707 106.011C170.747 106.011 170.788 106.011 170.828 106.011C170.869 106.011 170.909 106.011 170.95 106.011C170.99 106.011 171.031 106.011 171.071 106.011C171.112 106.011 171.153 106.011 171.193 106.011C171.234 106.011 171.275 106.011 171.315 106.011C171.356 106.011 171.397 106.011 171.437 106.011C171.478 106.011 171.519 106.011 171.56 106.011C171.601 106.011 171.641 106.011 171.682 106.011C171.723 106.011 171.764 106.011 171.805 106.011C171.846 106.011 171.887 106.011 171.928 106.011C171.969 106.011 172.01 106.011 172.051 106.011C172.092 106.011 172.133 106.011 172.174 106.011C172.215 106.011 172.256 106.011 172.297 106.011C172.339 106.011 172.38 106.011 172.421 106.011C172.462 106.011 172.503 106.011 172.545 106.011C172.586 106.011 172.627 106.011 172.668 106.011C172.71 106.011 172.751 106.011 172.792 106.011C172.834 106.011 172.875 106.011 172.917 106.011C172.958 106.011 173 106.011 173.041 106.011C173.083 106.011 173.124 106.011 173.166 106.011C173.207 106.011 173.249 106.011 173.29 106.011C173.332 106.011 173.374 106.011 173.415 106.011C173.457 106.011 173.499 106.011 173.54 106.011C173.582 106.011 173.624 106.011 173.666 106.011C173.707 106.011 173.749 106.011 173.791 106.011C173.833 106.011 173.875 106.011 173.917 106.011C173.959 106.011 174 106.011 174.042 106.011C174.084 106.011 174.126 106.011 174.168 106.011C174.21 106.011 174.252 106.011 174.295 106.011C174.337 106.011 174.379 106.011 174.421 106.011C174.463 106.011 174.505 106.011 174.547 106.011C174.59 106.011 174.632 106.011 174.674 106.011C174.716 106.011 174.759 106.011 174.801 106.011C174.843 106.011 174.886 106.011 174.928 106.011C174.971 106.011 175.013 106.011 175.055 106.011C175.098 106.011 175.14 106.011 175.183 106.011C175.226 106.011 175.268 106.011 175.311 106.011C175.353 106.011 175.396 106.011 175.439 106.011C175.481 106.011 175.524 106.011 175.567 106.011C175.609 106.011 175.652 106.011 175.695 106.011C175.738 106.011 175.78 106.011 175.823 106.011C175.866 106.011 175.909 106.011 175.952 106.011C175.995 106.011 176.038 106.011 176.081 106.011C176.124 106.011 176.167 106.011 176.21 106.011C176.253 106.011 176.296 106.011 176.339 106.011C176.382 106.011 176.425 106.011 176.469 106.011C176.512 106.011 176.555 106.011 176.598 106.011C176.641 106.011 176.685 106.011 176.728 106.011C176.771 106.011 176.815 106.011 176.858 106.011C176.902 106.011 176.945 106.011 176.988 106.011C177.032 106.011 177.075 106.011 177.119 106.011C177.162 106.011 177.206 106.011 177.25 106.011C177.293 106.011 177.337 106.011 177.38 106.011C177.424 106.011 177.468 106.011 177.512 106.011C177.555 106.011 177.599 106.011 177.643 106.011C177.687 106.011 177.731 106.011 177.774 106.011C177.818 106.011 177.862 106.011 177.906 106.011C177.95 106.011 177.994 106.011 178.038 106.011C178.082 106.011 178.126 106.011 178.17 106.011C178.214 106.011 178.258 106.011 178.303 106.011C178.347 106.011 178.391 106.011 178.435 106.011C178.479 106.011 178.524 106.011 178.568 106.011C178.612 106.011 178.657 106.011 178.701 106.011C178.745 106.011 178.79 106.011 178.834 106.011C178.879 106.011 178.923 106.011 178.968 106.011C179.012 106.011 179.057 106.011 179.102 106.011C179.146 106.011 179.191 106.011 179.235 106.011C179.28 106.011 179.325 106.011 179.37 106.011C179.414 106.011 179.459 106.011 179.504 106.011C179.549 106.011 179.594 106.011 179.639 106.011C179.683 106.011 179.728 106.011 179.773 106.011C179.818 106.011 179.863 106.011 179.908 106.011C179.954 106.011 179.999 106.011 180.044 106.011C180.089 106.011 180.134 106.011 180.179 106.011C180.224 106.011 180.27 106.011 180.315 106.011C180.36 106.011 180.406 106.011 180.451 106.011C180.496 106.011 180.542 106.011 180.587 106.011C180.633 106.011 180.678 106.011 180.724 106.011C180.769 106.011 180.815 106.011 180.86 106.011C180.906 106.011 180.952 106.011 180.997 106.011C181.043 106.011 181.089 106.011 181.134 106.011C181.18 106.011 181.226 106.011 181.272 106.011C181.318 106.011 181.363 106.011 181.409 106.011C181.455 106.011 181.501 106.011 181.547 106.011C181.593 106.011 181.639 106.011 181.685 106.011C181.731 106.011 181.778 106.011 181.824 106.011C181.87 106.011 181.916 106.011 181.962 106.011C182.009 106.011 182.055 106.011 182.101 106.011C182.148 106.011 182.194 106.011 182.24 106.011C182.287 106.011 182.333 106.011 182.38 106.011C182.426 106.011 182.473 106.011 182.519 106.011C182.566 106.011 182.612 106.011 182.659 106.011C182.706 106.011 182.752 106.011 182.799 106.011C182.846 106.011 182.893 106.011 182.939 106.011C182.986 106.011 183.033 106.011 183.08 106.011C183.127 106.011 183.174 106.011 183.221 106.011C183.268 106.011 183.315 106.011 183.362 106.011C183.409 106.011 183.456 106.011 183.503 106.011C183.55 106.011 183.598 106.011 183.645 106.011C183.692 106.011 183.739 106.011 183.787 106.011C183.834 106.011 183.882 106.011 183.929 106.011C183.976 106.011 184.024 106.011 184.071 106.011C184.119 106.011 184.166 106.011 184.214 106.011C184.262 106.011 184.309 106.011 184.357 106.011C184.405 106.011 184.452 106.011 184.5 106.011V105.011C184.452 105.011 184.405 105.011 184.357 105.011C184.309 105.011 184.262 105.011 184.214 105.011C184.166 105.011 184.119 105.011 184.071 105.011C184.024 105.011 183.976 105.011 183.929 105.011C183.882 105.011 183.834 105.011 183.787 105.011C183.739 105.011 183.692 105.011 183.645 105.011C183.598 105.011 183.55 105.011 183.503 105.011C183.456 105.011 183.409 105.011 183.362 105.011C183.315 105.011 183.268 105.011 183.221 105.011C183.174 105.011 183.127 105.011 183.08 105.011C183.033 105.011 182.986 105.011 182.939 105.011C182.893 105.011 182.846 105.011 182.799 105.011C182.752 105.011 182.706 105.011 182.659 105.011C182.612 105.011 182.566 105.011 182.519 105.011C182.473 105.011 182.426 105.011 182.38 105.011C182.333 105.011 182.287 105.011 182.24 105.011C182.194 105.011 182.148 105.011 182.101 105.011C182.055 105.011 182.009 105.011 181.962 105.011C181.916 105.011 181.87 105.011 181.824 105.011C181.778 105.011 181.731 105.011 181.685 105.011C181.639 105.011 181.593 105.011 181.547 105.011C181.501 105.011 181.455 105.011 181.409 105.011C181.363 105.011 181.318 105.011 181.272 105.011C181.226 105.011 181.18 105.011 181.134 105.011C181.089 105.011 181.043 105.011 180.997 105.011C180.952 105.011 180.906 105.011 180.86 105.011C180.815 105.011 180.769 105.011 180.724 105.011C180.678 105.011 180.633 105.011 180.587 105.011C180.542 105.011 180.496 105.011 180.451 105.011C180.406 105.011 180.36 105.011 180.315 105.011C180.27 105.011 180.224 105.011 180.179 105.011C180.134 105.011 180.089 105.011 180.044 105.011C179.999 105.011 179.954 105.011 179.908 105.011C179.863 105.011 179.818 105.011 179.773 105.011C179.728 105.011 179.683 105.011 179.639 105.011C179.594 105.011 179.549 105.011 179.504 105.011C179.459 105.011 179.414 105.011 179.37 105.011C179.325 105.011 179.28 105.011 179.235 105.011C179.191 105.011 179.146 105.011 179.102 105.011C179.057 105.011 179.012 105.011 178.968 105.011C178.923 105.011 178.879 105.011 178.834 105.011C178.79 105.011 178.745 105.011 178.701 105.011C178.657 105.011 178.612 105.011 178.568 105.011C178.524 105.011 178.479 105.011 178.435 105.011C178.391 105.011 178.347 105.011 178.303 105.011C178.258 105.011 178.214 105.011 178.17 105.011C178.126 105.011 178.082 105.011 178.038 105.011C177.994 105.011 177.95 105.011 177.906 105.011C177.862 105.011 177.818 105.011 177.774 105.011C177.731 105.011 177.687 105.011 177.643 105.011C177.599 105.011 177.555 105.011 177.512 105.011C177.468 105.011 177.424 105.011 177.38 105.011C177.337 105.011 177.293 105.011 177.25 105.011C177.206 105.011 177.162 105.011 177.119 105.011C177.075 105.011 177.032 105.011 176.988 105.011C176.945 105.011 176.902 105.011 176.858 105.011C176.815 105.011 176.771 105.011 176.728 105.011C176.685 105.011 176.641 105.011 176.598 105.011C176.555 105.011 176.512 105.011 176.469 105.011C176.425 105.011 176.382 105.011 176.339 105.011C176.296 105.011 176.253 105.011 176.21 105.011C176.167 105.011 176.124 105.011 176.081 105.011C176.038 105.011 175.995 105.011 175.952 105.011C175.909 105.011 175.866 105.011 175.823 105.011C175.78 105.011 175.738 105.011 175.695 105.011C175.652 105.011 175.609 105.011 175.567 105.011C175.524 105.011 175.481 105.011 175.439 105.011C175.396 105.011 175.353 105.011 175.311 105.011C175.268 105.011 175.226 105.011 175.183 105.011C175.14 105.011 175.098 105.011 175.055 105.011C175.013 105.011 174.971 105.011 174.928 105.011C174.886 105.011 174.843 105.011 174.801 105.011C174.759 105.011 174.716 105.011 174.674 105.011C174.632 105.011 174.59 105.011 174.547 105.011C174.505 105.011 174.463 105.011 174.421 105.011C174.379 105.011 174.337 105.011 174.295 105.011C174.252 105.011 174.21 105.011 174.168 105.011C174.126 105.011 174.084 105.011 174.042 105.011C174 105.011 173.959 105.011 173.917 105.011C173.875 105.011 173.833 105.011 173.791 105.011C173.749 105.011 173.707 105.011 173.666 105.011C173.624 105.011 173.582 105.011 173.54 105.011C173.499 105.011 173.457 105.011 173.415 105.011C173.374 105.011 173.332 105.011 173.29 105.011C173.249 105.011 173.207 105.011 173.166 105.011C173.124 105.011 173.083 105.011 173.041 105.011C173 105.011 172.958 105.011 172.917 105.011C172.875 105.011 172.834 105.011 172.792 105.011C172.751 105.011 172.71 105.011 172.668 105.011C172.627 105.011 172.586 105.011 172.545 105.011C172.503 105.011 172.462 105.011 172.421 105.011C172.38 105.011 172.339 105.011 172.297 105.011C172.256 105.011 172.215 105.011 172.174 105.011C172.133 105.011 172.092 105.011 172.051 105.011C172.01 105.011 171.969 105.011 171.928 105.011C171.887 105.011 171.846 105.011 171.805 105.011C171.764 105.011 171.723 105.011 171.682 105.011C171.641 105.011 171.601 105.011 171.56 105.011C171.519 105.011 171.478 105.011 171.437 105.011C171.397 105.011 171.356 105.011 171.315 105.011C171.275 105.011 171.234 105.011 171.193 105.011C171.153 105.011 171.112 105.011 171.071 105.011C171.031 105.011 170.99 105.011 170.95 105.011C170.909 105.011 170.869 105.011 170.828 105.011C170.788 105.011 170.747 105.011 170.707 105.011C170.666 105.011 170.626 105.011 170.585 105.011C170.545 105.011 170.505 105.011 170.464 105.011C170.424 105.011 170.384 105.011 170.343 105.011C170.303 105.011 170.263 105.011 170.223 105.011C170.182 105.011 170.142 105.011 170.102 105.011C170.062 105.011 170.022 105.011 169.981 105.011C169.941 105.011 169.901 105.011 169.861 105.011C169.821 105.011 169.781 105.011 169.741 105.011C169.701 105.011 169.661 105.011 169.621 105.011C169.581 105.011 169.541 105.011 169.501 105.011C169.461 105.011 169.421 105.011 169.381 105.011C169.341 105.011 169.301 105.011 169.262 105.011C169.222 105.011 169.182 105.011 169.142 105.011C169.102 105.011 169.063 105.011 169.023 105.011C168.983 105.011 168.943 105.011 168.904 105.011C168.864 105.011 168.824 105.011 168.785 105.011C168.745 105.011 168.705 105.011 168.666 105.011C168.626 105.011 168.587 105.011 168.547 105.011C168.507 105.011 168.468 105.011 168.428 105.011C168.389 105.011 168.349 105.011 168.31 105.011C168.27 105.011 168.231 105.011 168.191 105.011C168.152 105.011 168.113 105.011 168.073 105.011C168.034 105.011 167.995 105.011 167.955 105.011C167.916 105.011 167.876 105.011 167.837 105.011C167.798 105.011 167.759 105.011 167.719 105.011C167.68 105.011 167.641 105.011 167.602 105.011C167.562 105.011 167.523 105.011 167.484 105.011C167.445 105.011 167.406 105.011 167.367 105.011C167.328 105.011 167.288 105.011 167.249 105.011C167.21 105.011 167.171 105.011 167.132 105.011C167.093 105.011 167.054 105.011 167.015 105.011C166.976 105.011 166.937 105.011 166.898 105.011C166.859 105.011 166.82 105.011 166.781 105.011C166.742 105.011 166.703 105.011 166.665 105.011C166.626 105.011 166.587 105.011 166.548 105.011C166.509 105.011 166.47 105.011 166.432 105.011C166.393 105.011 166.354 105.011 166.315 105.011C166.276 105.011 166.238 105.011 166.199 105.011C166.16 105.011 166.122 105.011 166.083 105.011C166.044 105.011 166.006 105.011 165.967 105.011C165.928 105.011 165.89 105.011 165.851 105.011C165.812 105.011 165.774 105.011 165.735 105.011C165.697 105.011 165.658 105.011 165.62 105.011C165.581 105.011 165.543 105.011 165.504 105.011C165.466 105.011 165.427 105.011 165.389 105.011C165.35 105.011 165.312 105.011 165.273 105.011C165.235 105.011 165.196 105.011 165.158 105.011C165.12 105.011 165.081 105.011 165.043 105.011C165.005 105.011 164.966 105.011 164.928 105.011C164.89 105.011 164.851 105.011 164.813 105.011C164.775 105.011 164.736 105.011 164.698 105.011C164.66 105.011 164.622 105.011 164.584 105.011C164.545 105.011 164.507 105.011 164.469 105.011C164.431 105.011 164.393 105.011 164.354 105.011C164.316 105.011 164.278 105.011 164.24 105.011C164.202 105.011 164.164 105.011 164.126 105.011C164.088 105.011 164.05 105.011 164.012 105.011C163.974 105.011 163.935 105.011 163.897 105.011C163.859 105.011 163.821 105.011 163.783 105.011C163.745 105.011 163.708 105.011 163.67 105.011C163.632 105.011 163.594 105.011 163.556 105.011C163.518 105.011 163.48 105.011 163.442 105.011C163.404 105.011 163.366 105.011 163.328 105.011C163.291 105.011 163.253 105.011 163.215 105.011C163.177 105.011 163.139 105.011 163.101 105.011C163.064 105.011 163.026 105.011 162.988 105.011C162.95 105.011 162.913 105.011 162.875 105.011C162.837 105.011 162.799 105.011 162.762 105.011C162.724 105.011 162.686 105.011 162.648 105.011C162.611 105.011 162.573 105.011 162.535 105.011C162.498 105.011 162.46 105.011 162.423 105.011C162.385 105.011 162.347 105.011 162.31 105.011C162.272 105.011 162.234 105.011 162.197 105.011C162.159 105.011 162.122 105.011 162.084 105.011C162.047 105.011 162.009 105.011 161.972 105.011C161.934 105.011 161.897 105.011 161.859 105.011C161.822 105.011 161.784 105.011 161.747 105.011C161.709 105.011 161.672 105.011 161.634 105.011C161.597 105.011 161.559 105.011 161.522 105.011C161.484 105.011 161.447 105.011 161.41 105.011C161.372 105.011 161.335 105.011 161.298 105.011C161.26 105.011 161.223 105.011 161.185 105.011C161.148 105.011 161.111 105.011 161.073 105.011C161.036 105.011 160.999 105.011 160.961 105.011C160.924 105.011 160.887 105.011 160.85 105.011C160.812 105.011 160.775 105.011 160.738 105.011C160.701 105.011 160.663 105.011 160.626 105.011C160.589 105.011 160.552 105.011 160.514 105.011C160.477 105.011 160.44 105.011 160.403 105.011C160.366 105.011 160.328 105.011 160.291 105.011C160.254 105.011 160.217 105.011 160.18 105.011C160.143 105.011 160.105 105.011 160.068 105.011C160.031 105.011 159.994 105.011 159.957 105.011C159.92 105.011 159.883 105.011 159.846 105.011C159.809 105.011 159.771 105.011 159.734 105.011C159.697 105.011 159.66 105.011 159.623 105.011C159.586 105.011 159.549 105.011 159.512 105.011C159.475 105.011 159.438 105.011 159.401 105.011C159.364 105.011 159.327 105.011 159.29 105.011C159.253 105.011 159.216 105.011 159.179 105.011C159.142 105.011 159.105 105.011 159.068 105.011C159.031 105.011 158.994 105.011 158.957 105.011C158.92 105.011 158.883 105.011 158.846 105.011C158.809 105.011 158.773 105.011 158.736 105.011C158.699 105.011 158.662 105.011 158.625 105.011C158.588 105.011 158.551 105.011 158.514 105.011C158.477 105.011 158.44 105.011 158.404 105.011C158.367 105.011 158.33 105.011 158.293 105.011C158.256 105.011 158.219 105.011 158.182 105.011C158.146 105.011 158.109 105.011 158.072 105.011C158.035 105.011 157.998 105.011 157.962 105.011C157.925 105.011 157.888 105.011 157.851 105.011C157.814 105.011 157.778 105.011 157.741 105.011C157.704 105.011 157.667 105.011 157.63 105.011C157.594 105.011 157.557 105.011 157.52 105.011C157.483 105.011 157.447 105.011 157.41 105.011C157.373 105.011 157.336 105.011 157.3 105.011C157.263 105.011 157.226 105.011 157.19 105.011C157.153 105.011 157.116 105.011 157.079 105.011C157.043 105.011 157.006 105.011 156.969 105.011C156.933 105.011 156.896 105.011 156.859 105.011C156.822 105.011 156.786 105.011 156.749 105.011C156.712 105.011 156.676 105.011 156.639 105.011C156.602 105.011 156.566 105.011 156.529 105.011C156.492 105.011 156.456 105.011 156.419 105.011C156.382 105.011 156.346 105.011 156.309 105.011C156.273 105.011 156.236 105.011 156.199 105.011C156.163 105.011 156.126 105.011 156.089 105.011C156.053 105.011 156.016 105.011 155.98 105.011C155.943 105.011 155.906 105.011 155.87 105.011C155.833 105.011 155.796 105.011 155.76 105.011C155.723 105.011 155.687 105.011 155.65 105.011C155.613 105.011 155.577 105.011 155.54 105.011C155.504 105.011 155.467 105.011 155.431 105.011C155.394 105.011 155.357 105.011 155.321 105.011C155.284 105.011 155.248 105.011 155.211 105.011C155.174 105.011 155.138 105.011 155.101 105.011C155.065 105.011 155.028 105.011 154.992 105.011C154.955 105.011 154.919 105.011 154.882 105.011C154.845 105.011 154.809 105.011 154.772 105.011C154.736 105.011 154.699 105.011 154.663 105.011C154.626 105.011 154.59 105.011 154.553 105.011C154.516 105.011 154.48 105.011 154.443 105.011C154.407 105.011 154.37 105.011 154.334 105.011C154.297 105.011 154.261 105.011 154.224 105.011C154.188 105.011 154.151 105.011 154.114 105.011C154.078 105.011 154.041 105.011 154.005 105.011C153.968 105.011 153.932 105.011 153.895 105.011C153.859 105.011 153.822 105.011 153.786 105.011C153.749 105.011 153.713 105.011 153.676 105.011C153.639 105.011 153.603 105.011 153.566 105.011C153.53 105.011 153.493 105.011 153.457 105.011C153.42 105.011 153.384 105.011 153.347 105.011C153.311 105.011 153.274 105.011 153.238 105.011C153.201 105.011 153.165 105.011 153.128 105.011C153.091 105.011 153.055 105.011 153.018 105.011C152.982 105.011 152.945 105.011 152.909 105.011C152.872 105.011 152.836 105.011 152.799 105.011C152.763 105.011 152.726 105.011 152.689 105.011C152.653 105.011 152.616 105.011 152.58 105.011C152.543 105.011 152.507 105.011 152.47 105.011C152.434 105.011 152.397 105.011 152.361 105.011C152.324 105.011 152.287 105.011 152.251 105.011C152.214 105.011 152.178 105.011 152.141 105.011C152.105 105.011 152.068 105.011 152.031 105.011C151.995 105.011 151.958 105.011 151.922 105.011C151.885 105.011 151.849 105.011 151.812 105.011C151.775 105.011 151.739 105.011 151.702 105.011C151.666 105.011 151.629 105.011 151.593 105.011C151.556 105.011 151.519 105.011 151.483 105.011C151.446 105.011 151.41 105.011 151.373 105.011C151.336 105.011 151.3 105.011 151.263 105.011C151.227 105.011 151.19 105.011 151.153 105.011C151.117 105.011 151.08 105.011 151.043 105.011C151.007 105.011 150.97 105.011 150.934 105.011C150.897 105.011 150.86 105.011 150.824 105.011C150.787 105.011 150.75 105.011 150.714 105.011C150.677 105.011 150.64 105.011 150.604 105.011C150.567 105.011 150.53 105.011 150.494 105.011C150.457 105.011 150.42 105.011 150.384 105.011C150.347 105.011 150.31 105.011 150.274 105.011C150.237 105.011 150.2 105.011 150.164 105.011C150.127 105.011 150.09 105.011 150.053 105.011C150.017 105.011 149.98 105.011 149.943 105.011C149.907 105.011 149.87 105.011 149.833 105.011C149.796 105.011 149.76 105.011 149.723 105.011C149.686 105.011 149.649 105.011 149.613 105.011C149.576 105.011 149.539 105.011 149.502 105.011C149.466 105.011 149.429 105.011 149.392 105.011C149.355 105.011 149.318 105.011 149.282 105.011C149.245 105.011 149.208 105.011 149.171 105.011C149.134 105.011 149.098 105.011 149.061 105.011C149.024 105.011 148.987 105.011 148.95 105.011C148.913 105.011 148.877 105.011 148.84 105.011C148.803 105.011 148.766 105.011 148.729 105.011C148.692 105.011 148.655 105.011 148.619 105.011C148.582 105.011 148.545 105.011 148.508 105.011C148.471 105.011 148.434 105.011 148.397 105.011C148.36 105.011 148.323 105.011 148.286 105.011C148.249 105.011 148.213 105.011 148.176 105.011C148.139 105.011 148.102 105.011 148.065 105.011C148.028 105.011 147.991 105.011 147.954 105.011C147.917 105.011 147.88 105.011 147.843 105.011C147.806 105.011 147.769 105.011 147.732 105.011C147.695 105.011 147.658 105.011 147.621 105.011C147.584 105.011 147.547 105.011 147.51 105.011C147.473 105.011 147.436 105.011 147.398 105.011C147.361 105.011 147.324 105.011 147.287 105.011C147.25 105.011 147.213 105.011 147.176 105.011C147.139 105.011 147.102 105.011 147.065 105.011C147.027 105.011 146.99 105.011 146.953 105.011C146.916 105.011 146.879 105.011 146.842 105.011C146.804 105.011 146.767 105.011 146.73 105.011C146.693 105.011 146.656 105.011 146.618 105.011C146.581 105.011 146.544 105.011 146.507 105.011C146.47 105.011 146.432 105.011 146.395 105.011C146.358 105.011 146.321 105.011 146.283 105.011C146.246 105.011 146.209 105.011 146.171 105.011C146.134 105.011 146.097 105.011 146.059 105.011C146.022 105.011 145.985 105.011 145.947 105.011C145.91 105.011 145.873 105.011 145.835 105.011C145.798 105.011 145.761 105.011 145.723 105.011C145.686 105.011 145.648 105.011 145.611 105.011C145.573 105.011 145.536 105.011 145.499 105.011C145.461 105.011 145.424 105.011 145.386 105.011C145.349 105.011 145.311 105.011 145.274 105.011C145.236 105.011 145.199 105.011 145.161 105.011C145.124 105.011 145.086 105.011 145.049 105.011C145.011 105.011 144.973 105.011 144.936 105.011C144.898 105.011 144.861 105.011 144.823 105.011C144.786 105.011 144.748 105.011 144.71 105.011C144.673 105.011 144.635 105.011 144.597 105.011C144.56 105.011 144.522 105.011 144.484 105.011C144.447 105.011 144.409 105.011 144.371 105.011C144.334 105.011 144.296 105.011 144.258 105.011C144.22 105.011 144.183 105.011 144.145 105.011C144.107 105.011 144.069 105.011 144.031 105.011C143.994 105.011 143.956 105.011 143.918 105.011C143.88 105.011 143.842 105.011 143.804 105.011C143.767 105.011 143.729 105.011 143.691 105.011C143.653 105.011 143.615 105.011 143.577 105.011C143.539 105.011 143.501 105.011 143.463 105.011C143.425 105.011 143.387 105.011 143.349 105.011C143.311 105.011 143.273 105.011 143.235 105.011C143.197 105.011 143.159 105.011 143.121 105.011C143.083 105.011 143.045 105.011 143.007 105.011C142.969 105.011 142.931 105.011 142.893 105.011C142.855 105.011 142.817 105.011 142.778 105.011C142.74 105.011 142.702 105.011 142.664 105.011C142.626 105.011 142.587 105.011 142.549 105.011C142.511 105.011 142.473 105.011 142.435 105.011C142.396 105.011 142.358 105.011 142.32 105.011C142.281 105.011 142.243 105.011 142.205 105.011C142.167 105.011 142.128 105.011 142.09 105.011C142.052 105.011 142.013 105.011 141.975 105.011C141.936 105.011 141.898 105.011 141.86 105.011C141.821 105.011 141.783 105.011 141.744 105.011C141.706 105.011 141.667 105.011 141.629 105.011C141.59 105.011 141.552 105.011 141.513 105.011C141.475 105.011 141.436 105.011 141.398 105.011C141.359 105.011 141.32 105.011 141.282 105.011C141.243 105.011 141.205 105.011 141.166 105.011C141.127 105.011 141.089 105.011 141.05 105.011C141.011 105.011 140.973 105.011 140.934 105.011C140.895 105.011 140.856 105.011 140.818 105.011C140.779 105.011 140.74 105.011 140.701 105.011C140.662 105.011 140.624 105.011 140.585 105.011C140.546 105.011 140.507 105.011 140.468 105.011C140.429 105.011 140.39 105.011 140.352 105.011C140.313 105.011 140.274 105.011 140.235 105.011C140.196 105.011 140.157 105.011 140.118 105.011C140.079 105.011 140.04 105.011 140.001 105.011C139.962 105.011 139.923 105.011 139.883 105.011C139.844 105.011 139.805 105.011 139.766 105.011C139.727 105.011 139.688 105.011 139.649 105.011C139.61 105.011 139.57 105.011 139.531 105.011C139.492 105.011 139.453 105.011 139.413 105.011C139.374 105.011 139.335 105.011 139.296 105.011C139.256 105.011 139.217 105.011 139.178 105.011C139.138 105.011 139.099 105.011 139.06 105.011C139.02 105.011 138.981 105.011 138.941 105.011C138.902 105.011 138.862 105.011 138.823 105.011C138.783 105.011 138.744 105.011 138.704 105.011C138.665 105.011 138.625 105.011 138.586 105.011C138.546 105.011 138.507 105.011 138.467 105.011C138.427 105.011 138.388 105.011 138.348 105.011C138.309 105.011 138.269 105.011 138.229 105.011C138.189 105.011 138.15 105.011 138.11 105.011C138.07 105.011 138.03 105.011 137.991 105.011C137.951 105.011 137.911 105.011 137.871 105.011C137.831 105.011 137.791 105.011 137.752 105.011C137.712 105.011 137.672 105.011 137.632 105.011C137.592 105.011 137.552 105.011 137.512 105.011C137.472 105.011 137.432 105.011 137.392 105.011C137.352 105.011 137.312 105.011 137.272 105.011C137.232 105.011 137.191 105.011 137.151 105.011C137.111 105.011 137.071 105.011 137.031 105.011C136.991 105.011 136.95 105.011 136.91 105.011C136.87 105.011 136.83 105.011 136.789 105.011C136.749 105.011 136.709 105.011 136.668 105.011C136.628 105.011 136.588 105.011 136.547 105.011C136.507 105.011 136.467 105.011 136.426 105.011C136.386 105.011 136.345 105.011 136.305 105.011C136.264 105.011 136.224 105.011 136.183 105.011C136.143 105.011 136.102 105.011 136.061 105.011C136.021 105.011 135.98 105.011 135.94 105.011C135.899 105.011 135.858 105.011 135.818 105.011C135.777 105.011 135.736 105.011 135.695 105.011C135.655 105.011 135.614 105.011 135.573 105.011C135.532 105.011 135.491 105.011 135.45 105.011C135.41 105.011 135.369 105.011 135.328 105.011C135.287 105.011 135.246 105.011 135.205 105.011C135.164 105.011 135.123 105.011 135.082 105.011C135.041 105.011 135 105.011 134.959 105.011C134.918 105.011 134.877 105.011 134.835 105.011C134.794 105.011 134.753 105.011 134.712 105.011C134.671 105.011 134.629 105.011 134.588 105.011C134.547 105.011 134.506 105.011 134.464 105.011C134.423 105.011 134.382 105.011 134.34 105.011C134.299 105.011 134.258 105.011 134.216 105.011C134.175 105.011 134.133 105.011 134.092 105.011C134.05 105.011 134.009 105.011 133.967 105.011C133.926 105.011 133.884 105.011 133.842 105.011C133.801 105.011 133.759 105.011 133.718 105.011C133.676 105.011 133.634 105.011 133.592 105.011C133.551 105.011 133.509 105.011 133.467 105.011C133.425 105.011 133.384 105.011 133.342 105.011C133.3 105.011 133.258 105.011 133.216 105.011C133.174 105.011 133.132 105.011 133.09 105.011C133.048 105.011 133.006 105.011 132.964 105.011C132.922 105.011 132.88 105.011 132.838 105.011C132.796 105.011 132.754 105.011 132.712 105.011C132.67 105.011 132.628 105.011 132.585 105.011C132.543 105.011 132.501 105.011 132.459 105.011C132.416 105.011 132.374 105.011 132.332 105.011C132.289 105.011 132.247 105.011 132.205 105.011C132.162 105.011 132.12 105.011 132.077 105.011C132.035 105.011 131.992 105.011 131.95 105.011C131.907 105.011 131.865 105.011 131.822 105.011C131.78 105.011 131.737 105.011 131.694 105.011C131.652 105.011 131.609 105.011 131.566 105.011C131.523 105.011 131.481 105.011 131.438 105.011C131.395 105.011 131.352 105.011 131.309 105.011C131.267 105.011 131.224 105.011 131.181 105.011C131.138 105.011 131.095 105.011 131.052 105.011C131.009 105.011 130.966 105.011 130.923 105.011C130.88 105.011 130.837 105.011 130.794 105.011C130.751 105.011 130.707 105.011 130.664 105.011C130.621 105.011 130.578 105.011 130.535 105.011C130.491 105.011 130.448 105.011 130.405 105.011C130.361 105.011 130.318 105.011 130.275 105.011C130.231 105.011 130.188 105.011 130.144 105.011C130.101 105.011 130.057 105.011 130.014 105.011C129.97 105.011 129.927 105.011 129.883 105.011C129.84 105.011 129.796 105.011 129.752 105.011C129.709 105.011 129.665 105.011 129.621 105.011C129.577 105.011 129.534 105.011 129.49 105.011C129.446 105.011 129.402 105.011 129.358 105.011C129.315 105.011 129.271 105.011 129.227 105.011C129.183 105.011 129.139 105.011 129.095 105.011C129.051 105.011 129.007 105.011 128.963 105.011C128.918 105.011 128.874 105.011 128.83 105.011C128.786 105.011 128.742 105.011 128.698 105.011C128.653 105.011 128.609 105.011 128.565 105.011C128.52 105.011 128.476 105.011 128.432 105.011C128.387 105.011 128.343 105.011 128.298 105.011C128.254 105.011 128.209 105.011 128.165 105.011C128.12 105.011 128.076 105.011 128.031 105.011C127.987 105.011 127.942 105.011 127.897 105.011C127.853 105.011 127.808 105.011 127.763 105.011C127.718 105.011 127.674 105.011 127.629 105.011C127.584 105.011 127.539 105.011 127.494 105.011C127.449 105.011 127.404 105.011 127.359 105.011C127.314 105.011 127.269 105.011 127.224 105.011C127.179 105.011 127.134 105.011 127.089 105.011C127.044 105.011 126.999 105.011 126.954 105.011C126.908 105.011 126.863 105.011 126.818 105.011C126.773 105.011 126.727 105.011 126.682 105.011C126.636 105.011 126.591 105.011 126.546 105.011C126.5 105.011 126.455 105.011 126.409 105.011C126.364 105.011 126.318 105.011 126.272 105.011C126.227 105.011 126.181 105.011 126.136 105.011C126.09 105.011 126.044 105.011 125.998 105.011C125.953 105.011 125.907 105.011 125.861 105.011C125.815 105.011 125.769 105.011 125.723 105.011C125.677 105.011 125.632 105.011 125.586 105.011C125.54 105.011 125.493 105.011 125.447 105.011C125.401 105.011 125.355 105.011 125.309 105.011C125.263 105.011 125.217 105.011 125.17 105.011C125.124 105.011 125.078 105.011 125.032 105.011C124.985 105.011 124.939 105.011 124.893 105.011C124.846 105.011 124.8 105.011 124.753 105.011C124.707 105.011 124.66 105.011 124.614 105.011C124.567 105.011 124.52 105.011 124.474 105.011C124.427 105.011 124.38 105.011 124.334 105.011C124.287 105.011 124.24 105.011 124.193 105.011C124.147 105.011 124.1 105.011 124.053 105.011C124.006 105.011 123.959 105.011 123.912 105.011C123.865 105.011 123.818 105.011 123.771 105.011C123.724 105.011 123.677 105.011 123.629 105.011C123.582 105.011 123.535 105.011 123.488 105.011C123.441 105.011 123.393 105.011 123.346 105.011C123.299 105.011 123.251 105.011 123.204 105.011C123.156 105.011 123.109 105.011 123.062 105.011C123.014 105.011 122.966 105.011 122.919 105.011C122.871 105.011 122.824 105.011 122.776 105.011C122.728 105.011 122.681 105.011 122.633 105.011V106.011Z" fill="#FF1E1E"/>
</svg>
