<svg width="198" height="332" viewBox="0 0 198 332" fill="none" xmlns="http://www.w3.org/2000/svg">
<g filter="url(#filter0_d)">
<path d="M174.127 302.491C174.674 302.419 175.06 301.917 174.989 301.37L173.825 292.445C173.754 291.898 173.252 291.512 172.704 291.583C172.156 291.654 171.77 292.156 171.842 292.704L172.876 300.637L164.944 301.671C164.396 301.743 164.01 302.245 164.081 302.792C164.153 303.34 164.654 303.726 165.202 303.654L174.127 302.491ZM122.619 153.521C104.218 187.336 108.776 218.317 122.013 243.935C135.226 269.506 157.088 289.753 173.388 302.292L174.607 300.706C158.409 288.246 136.809 268.212 123.79 243.017C110.795 217.868 106.351 187.599 124.376 154.477L122.619 153.521ZM73.0005 13.0018C72.4136 12.1922 72.4131 12.1925 72.4124 12.1931C72.4117 12.1935 72.4107 12.1943 72.4094 12.1952C72.4067 12.1971 72.4029 12.1999 72.3979 12.2036C72.3878 12.2109 72.373 12.2217 72.3534 12.236C72.3144 12.2645 72.2565 12.3068 72.1806 12.3625C72.0287 12.4739 71.8047 12.639 71.5146 12.8547C70.9344 13.286 70.0896 13.9199 69.0285 14.732C66.9065 16.356 63.9184 18.6935 60.4506 21.5499C53.5194 27.2591 44.653 35.0567 36.9536 43.3844C29.283 51.681 22.6552 60.6242 20.3594 68.6233C19.2048 72.6465 19.1199 76.5215 20.6456 79.9674C22.1748 83.4214 25.2511 86.2843 30.0977 88.4171L30.9033 86.5865C26.3747 84.5937 23.7479 82.0342 22.4743 79.1577C21.1972 76.2731 21.21 72.9097 22.2818 69.175C24.4392 61.6582 30.7801 53.0078 38.4221 44.7422C46.0353 36.5077 54.8253 28.7746 61.7222 23.0936C65.1685 20.2549 68.1375 17.9324 70.244 16.3202C71.2972 15.5142 72.1345 14.8859 72.7079 14.4597C72.9945 14.2466 73.2152 14.084 73.3638 13.9749C73.4381 13.9204 73.4944 13.8792 73.5319 13.8519C73.5507 13.8382 73.5648 13.8279 73.5741 13.8212C73.5787 13.8178 73.5822 13.8153 73.5844 13.8137C73.5855 13.8129 73.5863 13.8123 73.5868 13.8119C73.5873 13.8116 73.5875 13.8114 73.0005 13.0018ZM30.0977 88.4171C39.6237 92.6092 52.5424 94.6571 65.8418 96.4323C79.208 98.2165 92.9854 99.728 104.462 102.804C115.975 105.889 124.839 110.467 128.714 118.141C132.569 125.774 131.677 136.876 122.619 153.521L124.376 154.477C133.531 137.654 134.808 125.772 130.5 117.24C126.212 108.749 116.583 103.981 104.98 100.872C93.3421 97.753 79.3842 96.2222 66.1064 94.4499C52.7617 92.6686 40.1274 90.6458 30.9033 86.5865L30.0977 88.4171Z" fill="#FF1E1E"/>
</g>
<defs>
<filter id="filter0_d" x="0.261719" y="0.348633" width="196.782" height="330.864" filterUnits="userSpaceOnUse" color-interpolation-filters="sRGB">
<feFlood flood-opacity="0" result="BackgroundImageFix"/>
<feColorMatrix in="SourceAlpha" type="matrix" values="0 0 0 0 0 0 0 0 0 0 0 0 0 0 0 0 0 0 127 0"/>
<feOffset/>
<feGaussianBlur stdDeviation="2.5"/>
<feColorMatrix type="matrix" values="0 0 0 0 1 0 0 0 0 0.117647 0 0 0 0 0.117647 0 0 0 1 0"/>
<feBlend mode="normal" in2="BackgroundImageFix" result="effect1_dropShadow"/>
<feBlend mode="normal" in="SourceGraphic" in2="effect1_dropShadow" result="shape"/>
</filter>
</defs>
</svg>
