<svg width="108" height="111" viewBox="0 0 108 111" fill="none" xmlns="http://www.w3.org/2000/svg">
<path d="M59.2521 104.798C59.2521 104.9 59.2521 105 59.2409 105.103C59.2296 105.205 59.224 105.324 59.2128 105.432C59.2016 105.54 59.1918 105.608 59.1805 105.692C59.1525 105.852 59.1188 106.005 59.081 106.159L59.015 106.39C58.987 106.487 58.9589 106.572 58.9267 106.656C58.9047 106.734 58.8766 106.81 58.8425 106.884C58.7432 107.128 58.627 107.365 58.4946 107.593C58.4892 107.607 58.4816 107.62 58.4722 107.632C58.4231 107.711 58.3726 107.792 58.3179 107.871C58.2509 107.97 58.1788 108.066 58.1019 108.158C58.0528 108.226 57.9967 108.294 57.9476 108.357C57.9364 108.357 57.9308 108.374 57.9251 108.38L57.7428 108.583L57.7091 108.617C57.6534 108.679 57.5944 108.738 57.5324 108.793H57.5156C57.199 109.093 56.8464 109.35 56.4663 109.558C56.2775 109.665 56.0815 109.757 55.88 109.836C55.7804 109.876 55.6808 109.916 55.5756 109.95C55.4704 109.983 55.3708 110.013 55.2656 110.04C55.1621 110.069 55.0573 110.092 54.9514 110.109C54.8785 110.125 54.8112 110.137 54.7354 110.148C54.6597 110.16 54.619 110.165 54.5587 110.171C54.3658 110.193 54.172 110.204 53.978 110.206C53.7676 110.206 53.5572 110.188 53.365 110.171C53.3539 110.174 53.3424 110.174 53.3313 110.171L53.0101 110.121C52.7475 110.069 52.4891 109.997 52.2372 109.905C51.986 109.814 51.7417 109.704 51.5064 109.575C51.5064 109.575 51.5064 109.575 51.4966 109.575C51.1101 109.364 50.7514 109.103 50.4292 108.799L50.3464 108.719C50.2524 108.635 50.1697 108.544 50.0813 108.448C50.0813 108.448 50.0813 108.448 50.0813 108.436C50.0308 108.38 49.9761 108.322 49.9256 108.261C49.9256 108.261 49.9144 108.243 49.9088 108.237C49.8148 108.112 49.7264 107.989 49.6437 107.858C49.6327 107.848 49.6237 107.836 49.617 107.823C49.617 107.823 49.617 107.823 49.617 107.812L49.4669 107.574C49.4557 107.551 49.4389 107.528 49.4291 107.507C49.4162 107.479 49.4012 107.452 49.3842 107.426C49.3617 107.376 49.3295 107.325 49.2958 107.262C49.2875 107.241 49.2782 107.22 49.2678 107.2C49.2678 107.2 49.2678 107.189 49.2678 107.183C49.2522 107.161 49.2413 107.136 49.2355 107.11C49.1906 107.019 49.1527 106.934 49.1191 106.853C49.0901 106.791 49.0662 106.727 49.0475 106.661C49.0026 106.543 48.9648 106.423 48.9311 106.304C48.9289 106.294 48.9289 106.285 48.9311 106.275C48.9031 106.173 48.8764 106.067 48.854 105.964C48.8416 105.917 48.8322 105.869 48.8259 105.821C48.8035 105.707 48.788 105.589 48.7768 105.475C48.7656 105.362 48.7544 105.236 48.7488 105.123C48.7488 105.113 48.7488 105.101 48.7488 105.09C48.7488 104.999 48.7375 104.908 48.7375 104.812C48.7347 104.759 48.7347 104.706 48.7375 104.652C48.7346 104.602 48.7346 104.551 48.7375 104.5C48.7375 104.386 48.7544 104.278 48.7656 104.165C48.7768 104.08 48.7866 103.989 48.7979 103.904C48.825 103.74 48.8601 103.577 48.9031 103.417C48.9199 103.349 48.9423 103.273 48.9648 103.206C48.9894 103.116 49.0189 103.027 49.0531 102.94C49.0798 102.861 49.1078 102.788 49.1359 102.713C49.2337 102.47 49.35 102.235 49.4838 102.011C49.5385 101.915 49.6002 101.824 49.6605 101.733C49.7208 101.643 49.7825 101.556 49.8485 101.471C49.9801 101.301 50.1206 101.138 50.2693 100.984C50.324 100.922 50.3857 100.87 50.446 100.814C50.7639 100.504 51.1234 100.243 51.5135 100.037C51.606 99.9867 51.7056 99.9349 51.794 99.8932C51.8824 99.8515 51.9932 99.8026 52.0928 99.7623C52.3934 99.6424 52.7043 99.5514 53.0213 99.4904L53.3426 99.4386C53.4828 99.4213 53.6231 99.4113 53.7732 99.4055C53.8461 99.4055 53.9233 99.4055 53.9948 99.4055C54.4267 99.4067 54.857 99.4598 55.2769 99.5638C55.3821 99.5925 55.4817 99.6199 55.5869 99.6544C55.6921 99.6889 55.7917 99.722 55.8912 99.7623C56.0833 99.8394 56.2707 99.9282 56.4523 100.028C56.4635 100.028 56.4692 100.028 56.4804 100.04C56.8664 100.251 57.2247 100.513 57.5464 100.817C57.5689 100.846 57.6025 100.869 57.6292 100.902C57.7075 100.973 57.7816 101.049 57.8508 101.129C57.9223 101.202 57.9911 101.273 58.0556 101.355C58.1608 101.499 58.266 101.643 58.3656 101.787C58.4035 101.848 58.4427 101.912 58.4862 101.985C58.5297 102.058 58.5746 102.129 58.6139 102.212C58.6419 102.257 58.663 102.303 58.691 102.348C58.7625 102.502 58.8313 102.635 58.8734 102.756C58.8908 102.795 58.9057 102.835 58.9182 102.876L58.9449 102.955C58.9902 103.071 59.0291 103.19 59.0613 103.312C59.0619 103.321 59.0619 103.331 59.0613 103.34C59.0953 103.454 59.1229 103.569 59.1441 103.686C59.1546 103.721 59.1622 103.757 59.1665 103.793C59.1892 103.908 59.2061 104.024 59.217 104.14C59.2324 104.252 59.2381 104.372 59.2437 104.491C59.2464 104.503 59.2464 104.514 59.2437 104.526C59.2437 104.616 59.2549 104.707 59.2549 104.813" fill="#FF0000"/>
<path d="M107.599 54.9969C107.599 75.6646 96.4697 94.4046 78.563 103.897C77.8123 104.3 76.978 104.512 76.1307 104.514C74.8052 104.5 73.5307 103.988 72.5482 103.075C72.0115 102.577 71.584 101.968 71.2938 101.287C71.0036 100.607 70.8575 99.8716 70.865 99.1291C70.8587 98.1446 71.1182 97.1775 71.6149 96.335C72.1115 95.4925 72.8259 94.8074 73.6788 94.3557C80.7442 90.653 86.6725 85.0168 90.8071 78.0712C94.9416 71.1256 97.1209 63.1418 97.1037 55.0041C97.1037 30.6232 77.7592 10.7784 53.9822 10.7784C53.6343 10.7784 53.2809 10.7784 52.926 10.7942C29.6245 11.3697 10.7555 31.2979 10.8607 55.2199C10.8866 63.3133 13.0829 71.2433 17.209 78.1422C21.3352 85.041 27.2323 90.6427 34.2548 94.3341C35.1113 94.7862 35.8294 95.4724 36.3297 96.3168C36.83 97.1612 37.0929 98.131 37.0896 99.119C37.0896 102.465 34.3698 104.54 31.8435 104.54C31.0293 104.538 30.2273 104.336 29.5052 103.95C11.4498 94.442 0.282997 75.6085 0.348923 54.8013C0.454125 25.0053 24.1596 0.420087 53.2051 0C53.4604 0 53.7199 0 53.9738 0C83.5453 0 107.599 24.6773 107.599 54.9998" fill="#2D2D2D"/>
<path d="M82.0926 43.7052C82.0908 45.1393 81.5345 46.5141 80.5458 47.5281C79.5572 48.5422 78.2167 49.1127 76.8185 49.1146H59.2456V85.0608C59.2456 87.6173 56.8807 89.699 53.9729 89.699C51.0652 89.699 48.6988 87.6173 48.6988 85.0608V49.1146H31.3588C28.3739 49.1146 25.9023 46.7336 25.8532 43.8016C25.8419 43.0835 25.9699 42.3702 26.2297 41.7033C26.4896 41.0364 26.8762 40.4291 27.3669 39.9168C27.8577 39.4044 28.4429 38.9973 29.0884 38.719C29.734 38.4408 30.4271 38.2969 31.1273 38.2959H76.8185C78.2167 38.2978 79.5572 38.8683 80.5458 39.8824C81.5345 40.8964 82.0908 42.2712 82.0926 43.7052Z" fill="#FF0000"/>
</svg>
