<svg width="194" height="153" viewBox="0 0 194 153" fill="none" xmlns="http://www.w3.org/2000/svg">
<path d="M140.986 45.1181C140.986 62.0733 131.856 77.4471 117.166 85.2343C116.55 85.565 115.866 85.7387 115.171 85.7406C114.083 85.729 113.038 85.3091 112.232 84.5603C111.791 84.1516 111.441 83.6516 111.203 83.0936C110.965 82.5355 110.845 81.9321 110.851 81.323C110.846 80.5153 111.059 79.7219 111.466 79.0307C111.873 78.3396 112.459 77.7775 113.159 77.4069C118.955 74.3694 123.819 69.7456 127.211 64.0476C130.603 58.3496 132.39 51.7999 132.376 45.124C132.376 25.1225 116.507 8.84232 97.0006 8.84232C96.7152 8.84232 96.4252 8.84233 96.1341 8.85531C77.0181 9.3274 61.5385 25.676 61.6248 45.301C61.6461 51.9406 63.4478 58.4462 66.8328 64.1058C70.2178 69.7654 75.0556 74.3609 80.8167 77.3892C81.5194 77.7601 82.1085 78.3231 82.5189 79.0158C82.9293 79.7085 83.1451 80.5041 83.1423 81.3147C83.1423 84.0599 80.911 85.7618 78.8386 85.7618C78.1706 85.7607 77.5126 85.5947 76.9203 85.2779C62.1081 77.4778 52.9471 62.0273 53.0012 44.9575C53.0875 20.5137 72.5349 0.344629 96.3631 0C96.5725 0 96.7854 0 96.9937 0C121.253 0 140.986 20.2446 140.986 45.1204" fill="white"/>
<path d="M140.986 45.1181C140.986 62.0733 131.856 77.4471 117.166 85.2343C116.55 85.565 115.866 85.7387 115.171 85.7406C114.083 85.729 113.038 85.3091 112.232 84.5603C111.791 84.1516 111.441 83.6516 111.203 83.0936C110.965 82.5355 110.845 81.9321 110.851 81.323C110.846 80.5153 111.059 79.7219 111.466 79.0307C111.873 78.3396 112.459 77.7775 113.159 77.4069C118.955 74.3694 123.819 69.7456 127.211 64.0476C130.603 58.3496 132.39 51.7999 132.376 45.124C132.376 25.1225 116.507 8.84232 97.0006 8.84232C96.7152 8.84232 96.4252 8.84233 96.1341 8.85531C77.0181 9.3274 61.5385 25.676 61.6248 45.301C61.6461 51.9406 63.4478 58.4462 66.8328 64.1058C70.2178 69.7654 75.0556 74.3609 80.8167 77.3892C81.5194 77.7601 82.1085 78.3231 82.5189 79.0158C82.9293 79.7085 83.1451 80.5041 83.1423 81.3147C83.1423 84.0599 80.911 85.7618 78.8386 85.7618C78.1706 85.7607 77.5126 85.5947 76.9203 85.2779C62.1081 77.4778 52.9471 62.0273 53.0012 44.9575C53.0875 20.5137 72.5349 0.344629 96.3631 0C96.5725 0 96.7854 0 96.9937 0C121.253 0 140.986 20.2446 140.986 45.1204" fill="white"/>
<path d="M94.0802 82.7002C94.0227 82.7498 93.9709 82.8052 93.918 82.8595L93.9352 82.8395C93.981 82.7903 94.0294 82.7439 94.0802 82.7002Z" fill="white"/>
<path d="M93.9129 82.8535C93.7973 82.9743 93.6878 83.1011 93.585 83.2336C93.6847 83.0985 93.7943 82.9715 93.9129 82.8535Z" fill="white"/>
<path d="M96.8103 81.5364C96.6952 81.5364 96.5802 81.5494 96.457 81.5635C96.4762 81.5581 96.4959 81.5549 96.5157 81.5541C96.602 81.5458 96.7067 81.5411 96.8103 81.5364Z" fill="white"/>
<path d="M93.9129 82.8535C93.7973 82.9743 93.6878 83.1011 93.585 83.2336C93.6847 83.0985 93.7943 82.9715 93.9129 82.8535Z" fill="white"/>
<path d="M94.0802 82.7002C94.0227 82.7498 93.9709 82.8052 93.918 82.8595L93.9352 82.8395C93.981 82.7903 94.0294 82.7439 94.0802 82.7002Z" fill="white"/>
<path d="M96.8103 81.5364C96.6952 81.5364 96.5802 81.5494 96.457 81.5635C96.4762 81.5581 96.4959 81.5549 96.5157 81.5541C96.602 81.5458 96.7067 81.5411 96.8103 81.5364Z" fill="white"/>
<path d="M93.9129 82.8535C93.7973 82.9743 93.6878 83.1011 93.585 83.2336C93.6847 83.0985 93.7943 82.9715 93.9129 82.8535Z" fill="white"/>
<path d="M94.0802 82.7002C94.0227 82.7498 93.9709 82.8052 93.918 82.8595L93.9352 82.8395C93.981 82.7903 94.0294 82.7439 94.0802 82.7002Z" fill="white"/>
<path d="M96.8103 81.5364C96.6952 81.5364 96.5802 81.5494 96.457 81.5635C96.4762 81.5581 96.4959 81.5549 96.5157 81.5541C96.602 81.5458 96.7067 81.5411 96.8103 81.5364Z" fill="white"/>
<path d="M93.9129 82.8535C93.7973 82.9743 93.6878 83.1011 93.585 83.2336C93.6847 83.0985 93.7943 82.9715 93.9129 82.8535Z" fill="white"/>
<path d="M94.0802 82.7002C94.0227 82.7498 93.9709 82.8052 93.918 82.8595L93.9352 82.8395C93.981 82.7903 94.0294 82.7439 94.0802 82.7002Z" fill="white"/>
<path d="M96.8103 81.5364C96.6952 81.5364 96.5802 81.5494 96.457 81.5635C96.4762 81.5581 96.4959 81.5549 96.5157 81.5541C96.602 81.5458 96.7067 81.5411 96.8103 81.5364Z" fill="white"/>
<path d="M93.9129 82.8535C93.7973 82.9743 93.6878 83.1011 93.585 83.2336C93.6847 83.0985 93.7943 82.9715 93.9129 82.8535Z" fill="white"/>
<path d="M94.0802 82.7002C94.0227 82.7498 93.9709 82.8052 93.918 82.8595L93.9352 82.8395C93.981 82.7903 94.0294 82.7439 94.0802 82.7002Z" fill="white"/>
<path d="M96.8103 81.5364C96.6952 81.5364 96.5802 81.5494 96.457 81.5635C96.4762 81.5581 96.4959 81.5549 96.5157 81.5541C96.602 81.5458 96.7067 81.5411 96.8103 81.5364Z" fill="white"/>
<path d="M101.323 85.9695C101.323 86.0533 101.323 86.1359 101.314 86.2197C101.305 86.3035 101.3 86.4014 101.291 86.4899C101.282 86.5785 101.273 86.6339 101.264 86.7036C101.241 86.8346 101.214 86.9597 101.183 87.086L101.128 87.276C101.105 87.3551 101.082 87.4247 101.056 87.4943C101.038 87.5583 101.015 87.6207 100.987 87.6808C100.906 87.8815 100.81 88.076 100.702 88.2627C100.697 88.2742 100.691 88.285 100.683 88.2945C100.643 88.3595 100.601 88.4256 100.557 88.4905C100.502 88.5723 100.442 88.6511 100.379 88.7265C100.339 88.782 100.293 88.8375 100.253 88.8894C100.244 88.8894 100.239 88.9035 100.234 88.9083L100.085 89.0747L100.057 89.103C100.011 89.1537 99.963 89.2017 99.9122 89.247H99.8984C99.6387 89.4931 99.3494 89.7041 99.0376 89.8749C98.8827 89.9623 98.7219 90.0384 98.5566 90.1027C98.4749 90.1357 98.3932 90.1688 98.3069 90.1959C98.2206 90.2231 98.1389 90.2479 98.0526 90.2703C97.9677 90.2937 97.8816 90.3126 97.7948 90.3269C97.735 90.3399 97.6798 90.3494 97.6176 90.3588C97.5555 90.3682 97.5221 90.373 97.4726 90.3777C97.3144 90.3953 97.1554 90.4047 96.9962 90.406C96.8236 90.406 96.651 90.3918 96.4934 90.3777C96.4843 90.3799 96.4748 90.3799 96.4657 90.3777L96.2022 90.3364C95.9868 90.2941 95.7748 90.2349 95.5682 90.1593C95.362 90.0847 95.1616 89.9944 94.9686 89.8891C94.9686 89.8891 94.9686 89.8891 94.9606 89.8891C94.6435 89.7156 94.3492 89.5014 94.0849 89.2517L94.017 89.1868C93.9399 89.1172 93.872 89.0428 93.7995 88.9637C93.7995 88.9637 93.7995 88.9637 93.7995 88.9543C93.7581 88.9083 93.7132 88.8611 93.6718 88.8103C93.6718 88.8103 93.6626 88.7961 93.658 88.7914C93.5809 88.6887 93.5084 88.5872 93.4405 88.4798C93.4315 88.4719 93.4241 88.4623 93.4186 88.4515C93.4186 88.4515 93.4186 88.4515 93.4186 88.4421L93.2955 88.2473C93.2863 88.2285 93.2725 88.2096 93.2644 88.1919C93.2539 88.1689 93.2416 88.1467 93.2276 88.1258C93.2092 88.0845 93.1827 88.0431 93.1551 87.9912C93.1483 87.9739 93.1406 87.957 93.1321 87.9405C93.1321 87.9405 93.1321 87.931 93.1321 87.9263C93.1193 87.9083 93.1103 87.8878 93.1056 87.8661C93.0688 87.7918 93.0377 87.7221 93.0101 87.656C92.9864 87.605 92.9667 87.5522 92.9514 87.4979C92.9146 87.4011 92.8835 87.3031 92.8559 87.2052C92.8541 87.1974 92.8541 87.1893 92.8559 87.1816C92.8329 87.0978 92.811 87.0104 92.7926 86.9266C92.7825 86.8879 92.7748 86.8484 92.7696 86.8086C92.7512 86.7154 92.7385 86.6186 92.7293 86.5254C92.7201 86.4321 92.7109 86.3294 92.7063 86.2362C92.7063 86.2279 92.7063 86.2185 92.7063 86.209C92.7063 86.1347 92.6971 86.0603 92.6971 85.9813C92.6948 85.9376 92.6948 85.8939 92.6971 85.8503C92.6947 85.8086 92.6947 85.7668 92.6971 85.7252C92.6971 85.6319 92.7109 85.5434 92.7201 85.4502C92.7293 85.3805 92.7374 85.3062 92.7466 85.2365C92.7688 85.1018 92.7976 84.9682 92.8329 84.8364C92.8467 84.781 92.8651 84.7184 92.8835 84.6641C92.9037 84.59 92.9279 84.5171 92.956 84.4458C92.9779 84.3808 93.0009 84.3207 93.0239 84.2593C93.1042 84.0599 93.1996 83.8673 93.3093 83.6833C93.3542 83.6043 93.4048 83.5299 93.4543 83.4555C93.5038 83.3812 93.5544 83.3104 93.6085 83.2407C93.7165 83.1011 93.8317 82.9675 93.9537 82.8406C93.9986 82.7899 94.0492 82.7474 94.0987 82.7014C94.3595 82.4472 94.6544 82.2326 94.9744 82.064C95.0503 82.0227 95.132 81.9802 95.2045 81.946C95.277 81.9118 95.3679 81.8717 95.4497 81.8386C95.6963 81.7402 95.9513 81.6656 96.2114 81.6155L96.4749 81.573C96.59 81.5589 96.7051 81.5506 96.8282 81.5459C96.8881 81.5459 96.9514 81.5459 97.01 81.5459C97.3644 81.5469 97.7174 81.5905 98.0618 81.6757C98.1481 81.6993 98.2298 81.7218 98.3161 81.7501C98.4024 81.7784 98.4841 81.8056 98.5658 81.8386C98.7234 81.9018 98.8771 81.9747 99.0261 82.0569C99.0353 82.0569 99.0399 82.0569 99.0491 82.0664C99.3658 82.2399 99.6597 82.4541 99.9237 82.7037C99.9421 82.7273 99.9697 82.7462 99.9916 82.7734C100.056 82.8316 100.117 82.8939 100.173 82.9598C100.232 83.02 100.288 83.0779 100.341 83.1451C100.428 83.2632 100.514 83.3812 100.596 83.4992C100.627 83.55 100.659 83.6019 100.695 83.6621C100.73 83.7223 100.767 83.7801 100.799 83.8486C100.822 83.8851 100.84 83.9229 100.863 83.9595C100.921 84.0858 100.978 84.1956 101.012 84.2947C101.027 84.3265 101.039 84.3592 101.049 84.3927L101.071 84.4576C101.108 84.5532 101.14 84.6509 101.166 84.7503C101.167 84.7581 101.167 84.766 101.166 84.7739C101.194 84.8669 101.217 84.9615 101.234 85.0571C101.243 85.086 101.249 85.1156 101.253 85.1456C101.271 85.2397 101.285 85.3346 101.294 85.4301C101.307 85.5221 101.311 85.6201 101.316 85.7181C101.318 85.7274 101.318 85.7371 101.316 85.7464C101.316 85.8208 101.325 85.8951 101.325 85.9824" fill="white"/>
<path d="M93.9352 82.8336C93.9801 82.7828 94.0307 82.7404 94.0802 82.6943C94.0227 82.7439 93.9709 82.7994 93.918 82.8537L93.9352 82.8336Z" fill="white"/>
<path d="M93.9129 82.8535C93.7973 82.9743 93.6878 83.1011 93.585 83.2336C93.6847 83.0985 93.7943 82.9715 93.9129 82.8535Z" fill="white"/>
<path d="M96.5157 81.5541C96.602 81.5446 96.7067 81.5411 96.8103 81.5364C96.6952 81.5364 96.5802 81.5494 96.457 81.5635C96.4762 81.5581 96.4959 81.5549 96.5157 81.5541Z" fill="white"/>
<path d="M97.4962 81.5542C97.6812 81.5759 97.8643 81.6118 98.044 81.6616C97.6996 81.5763 97.3465 81.5327 96.9922 81.5317C97.1648 81.5317 97.3374 81.5412 97.4962 81.5542Z" fill="white"/>
<path d="M98.5518 81.8247C98.7117 81.882 98.8659 81.9551 99.0121 82.043C98.8631 81.9608 98.7094 81.8879 98.5518 81.8247Z" fill="white"/>
<path d="M100.053 82.829C100.09 82.866 100.125 82.9054 100.157 82.947C100.101 82.881 100.04 82.8188 99.9756 82.7605C100.003 82.7841 100.026 82.8077 100.053 82.8301" fill="white"/>
<path d="M120.067 35.8566C120.065 37.0331 119.609 38.1609 118.798 38.9928C117.987 39.8247 116.887 40.2928 115.74 40.2943H101.324V69.7837C101.324 71.881 99.3834 73.5888 96.998 73.5888C94.6125 73.5888 92.6712 71.881 92.6712 69.7837V40.2943H78.4459C75.9971 40.2943 73.9696 38.341 73.9293 35.9357C73.92 35.3466 74.025 34.7614 74.2382 34.2143C74.4513 33.6672 74.7685 33.169 75.1711 32.7487C75.5737 32.3284 76.0538 31.9944 76.5834 31.7661C77.113 31.5378 77.6816 31.4198 78.256 31.4189H115.74C116.887 31.4205 117.987 31.8885 118.798 32.7204C119.609 33.5523 120.065 34.6802 120.067 35.8566Z" fill="white"/>
<path d="M16.923 152.846C15.0773 152.846 14.1544 151.882 14.1544 149.952V118.714H2.86457C1.26736 118.714 0.46875 117.913 0.46875 116.311C0.46875 114.746 1.26736 113.963 2.86457 113.963H30.9263C32.5588 113.963 33.3754 114.746 33.3762 116.311C33.3762 117.914 32.5595 118.715 30.9263 118.714H19.6388V149.952C19.6388 151.882 18.7335 152.847 16.923 152.846Z" fill="white"/>
<path d="M53.8041 152.464C52.4232 152.464 51.5532 151.909 51.1942 150.799C50.8352 149.688 51.1547 148.441 52.1528 147.057L72.0673 118.714H53.3817C51.7124 118.714 50.8781 117.913 50.8789 116.311C50.8789 114.746 51.7132 113.963 53.3817 113.963H76.0074C77.4274 113.963 78.315 114.509 78.6702 115.602C79.0254 116.694 78.7058 117.95 77.7116 119.37L57.7442 147.713H77.2318C78.9003 147.713 79.7346 148.496 79.7346 150.061C79.7346 151.664 78.9003 152.465 77.2318 152.464H53.8041Z" fill="white"/>
<path d="M88.236 152.847C87.1705 152.847 86.4336 152.492 86.0255 151.784C85.6174 151.076 85.6442 150.211 86.106 149.188L100.535 115.983C100.889 115.147 101.333 114.537 101.866 114.155C102.414 113.768 103.066 113.567 103.731 113.581C104.368 113.581 104.991 113.781 105.514 114.155C106.064 114.537 106.517 115.147 106.872 115.983L121.302 149.188C121.763 150.244 121.807 151.118 121.435 151.809C121.063 152.501 120.362 152.847 119.332 152.847C118.55 152.847 117.928 152.646 117.468 152.246C117.008 151.845 116.6 151.226 116.244 150.389L113.155 143.072H94.1462L91.1106 150.389C90.7561 151.263 90.3657 151.892 89.9391 152.278C89.5126 152.663 88.9449 152.854 88.236 152.851V152.847ZM103.624 120.248L96.1162 138.484H111.292L103.731 120.244L103.624 120.248Z" fill="white"/>
<path d="M130.467 152.846C128.621 152.846 127.698 151.882 127.698 149.952V116.857C127.698 114.927 128.639 113.963 130.52 113.963H143.246C147.292 113.963 150.416 114.955 152.617 116.939C154.818 118.922 155.919 121.699 155.919 125.268C155.919 128.144 155.173 130.501 153.682 132.34C152.19 134.178 150.078 135.407 147.346 136.027C149.05 136.608 150.487 138.009 151.659 140.231L156.237 148.964C156.771 149.947 156.877 150.839 156.557 151.64C156.237 152.441 155.509 152.842 154.371 152.842C153.59 152.842 152.951 152.677 152.454 152.349C151.957 152.021 151.531 151.494 151.177 150.767L145.589 140.178C144.843 138.761 143.982 137.806 143.006 137.311C142.031 136.816 140.779 136.57 139.253 136.573H133.236V149.953C133.236 151.884 132.313 152.848 130.467 152.847V152.846ZM133.236 132.311H142.335C147.802 132.311 150.536 129.999 150.536 125.375C150.536 120.789 147.802 118.495 142.335 118.494H133.231L133.236 132.311Z" fill="white"/>
<path d="M178.182 152.956C173.177 152.956 169.352 151.6 166.708 148.887C164.063 146.174 162.741 142.196 162.741 136.955V116.419C162.741 114.525 163.664 113.579 165.51 113.579C167.356 113.579 168.279 114.525 168.279 116.419V136.844C168.279 144.307 171.58 148.038 178.182 148.038C184.784 148.038 188.085 144.307 188.086 136.844V116.421C188.086 114.528 188.991 113.581 190.802 113.581C192.612 113.581 193.517 114.528 193.517 116.421V136.957C193.517 142.2 192.222 146.177 189.63 148.889C187.039 151.601 183.223 152.958 178.182 152.959" fill="white"/>
<path d="M44.8496 116.767C44.8496 116.818 44.8496 116.872 44.8496 116.925C44.8496 116.978 44.8416 117.043 44.8358 117.095C44.8301 117.147 44.8243 117.187 44.8185 117.23C44.8036 117.313 44.7863 117.392 44.7668 117.466C44.7552 117.508 44.7437 117.549 44.7322 117.584C44.7195 117.631 44.7041 117.677 44.6862 117.723C44.675 117.763 44.6607 117.802 44.6436 117.841C44.5925 117.967 44.5321 118.09 44.463 118.208C44.46 118.215 44.4562 118.222 44.4515 118.229C44.4261 118.269 44.3997 118.31 44.3709 118.347C44.3421 118.383 44.2996 118.447 44.2558 118.494C44.2121 118.542 44.2017 118.564 44.1764 118.597C44.1695 118.597 44.1672 118.605 44.1638 118.609L44.0694 118.714L44.0522 118.732C44.0236 118.764 43.9932 118.795 43.9612 118.824H43.952C43.7876 118.979 43.6047 119.112 43.4077 119.22C43.31 119.276 43.2084 119.324 43.1039 119.364C43.0522 119.385 43.0015 119.406 42.9463 119.423C42.8911 119.441 42.8404 119.455 42.7864 119.47C42.7323 119.486 42.6713 119.496 42.6229 119.506C42.5746 119.515 42.5481 119.52 42.5079 119.526C42.4676 119.532 42.4469 119.535 42.4158 119.538C42.3161 119.549 42.2158 119.555 42.1155 119.555C42.0062 119.555 41.9003 119.547 41.7967 119.538C41.791 119.539 41.7852 119.539 41.7795 119.538L41.6138 119.511C41.4773 119.484 41.3431 119.447 41.2122 119.4C41.082 119.352 40.9555 119.295 40.8336 119.229C40.8336 119.229 40.8336 119.229 40.8278 119.229C40.6278 119.118 40.4419 118.983 40.2743 118.826L40.2317 118.785C40.1838 118.74 40.1381 118.693 40.0948 118.643C40.0948 118.643 40.0948 118.643 40.0948 118.637C40.0695 118.608 40.0407 118.578 40.0142 118.546L40.0062 118.535C39.9579 118.47 39.9118 118.405 39.8681 118.337C39.8625 118.332 39.8578 118.326 39.8543 118.32C39.8543 118.32 39.8543 118.32 39.8543 118.314L39.7772 118.196C39.7714 118.184 39.7634 118.172 39.7576 118.16C39.7511 118.146 39.7434 118.132 39.7346 118.119C39.7231 118.093 39.7058 118.066 39.6886 118.034C39.6828 118.022 39.6805 118.01 39.6748 118.001C39.669 117.992 39.6748 117.995 39.6748 117.993C39.6667 117.981 39.6609 117.969 39.6575 117.955C39.6345 117.908 39.6149 117.863 39.5977 117.822C39.5824 117.79 39.5701 117.757 39.5608 117.723C39.5378 117.661 39.5171 117.604 39.4999 117.537C39.499 117.533 39.499 117.528 39.4999 117.523C39.4849 117.47 39.4711 117.413 39.4596 117.36C39.4532 117.335 39.4482 117.31 39.4446 117.285C39.4331 117.226 39.4251 117.167 39.4193 117.105C39.4136 117.044 39.4078 116.987 39.4055 116.923C39.4055 116.923 39.4055 116.912 39.4055 116.906C39.4055 116.859 39.3997 116.811 39.3997 116.762C39.398 116.734 39.398 116.707 39.3997 116.679C39.3997 116.652 39.3997 116.623 39.3997 116.6C39.3997 116.541 39.409 116.482 39.4147 116.427C39.4205 116.371 39.4251 116.335 39.4308 116.291C39.4458 116.206 39.463 116.121 39.4861 116.038C39.4941 116.003 39.5056 115.965 39.5171 115.93C39.5286 115.894 39.5459 115.835 39.5632 115.792C39.5804 115.748 39.5919 115.713 39.6057 115.674C39.6571 115.548 39.7175 115.426 39.7864 115.309C39.8152 115.259 39.8462 115.212 39.8785 115.165C39.9107 115.118 39.9417 115.074 39.9763 115.03C40.0438 114.942 40.1164 114.858 40.1938 114.778C40.2225 114.745 40.2536 114.719 40.2847 114.689C40.4499 114.529 40.6362 114.394 40.8382 114.287C40.8865 114.26 40.9383 114.234 40.9878 114.21C41.038 114.185 41.0895 114.163 41.142 114.143C41.2979 114.081 41.4588 114.034 41.623 114.001L41.7898 113.975C41.8646 113.967 41.9383 113.961 42.0131 113.958C42.0499 113.958 42.0902 113.958 42.1281 113.958C42.3518 113.958 42.5747 113.985 42.7921 114.039C42.8473 114.054 42.898 114.068 42.9532 114.086C43.0084 114.104 43.0591 114.122 43.1109 114.142C43.2106 114.182 43.3082 114.228 43.4031 114.28C43.4031 114.28 43.4112 114.28 43.417 114.286C43.6169 114.396 43.8028 114.532 43.9705 114.689C43.982 114.703 43.9992 114.715 44.013 114.733C44.0533 114.768 44.0901 114.81 44.1281 114.851C44.1661 114.892 44.1994 114.928 44.234 114.969C44.2881 115.042 44.3421 115.119 44.3939 115.196C44.4146 115.227 44.4342 115.261 44.4572 115.298C44.4811 115.336 44.503 115.376 44.5228 115.416C44.5378 115.44 44.5493 115.462 44.5631 115.486C44.6011 115.566 44.6321 115.636 44.6574 115.698C44.6666 115.718 44.6743 115.739 44.6805 115.76L44.6954 115.801C44.7185 115.862 44.7384 115.924 44.7553 115.986C44.7557 115.991 44.7557 115.996 44.7553 116.001C44.7714 116.06 44.7863 116.119 44.7978 116.18C44.803 116.198 44.8068 116.217 44.8093 116.235C44.8208 116.295 44.8292 116.355 44.8347 116.415C44.8426 116.475 44.8476 116.537 44.8496 116.598C44.8507 116.604 44.8507 116.61 44.8496 116.615C44.8496 116.661 44.8496 116.709 44.8496 116.762" fill="white"/>
<path d="M40.033 152.464H44.2159C44.3883 152.464 44.5537 152.394 44.6756 152.269C44.7975 152.144 44.866 151.974 44.866 151.797V123.841C44.866 123.753 44.8492 123.667 44.8166 123.586C44.7839 123.505 44.736 123.431 44.6756 123.369C44.6152 123.307 44.5436 123.258 44.4647 123.225C44.3858 123.191 44.3013 123.174 44.2159 123.174H40.033C39.9476 123.174 39.863 123.191 39.7842 123.225C39.7053 123.258 39.6336 123.307 39.5732 123.369C39.5129 123.431 39.465 123.505 39.4323 123.586C39.3996 123.667 39.3828 123.753 39.3828 123.841V151.797C39.3828 151.974 39.4513 152.144 39.5732 152.269C39.6952 152.394 39.8605 152.464 40.033 152.464Z" fill="white"/>
</svg>
