<svg width="100" height="16" viewBox="0 0 100 16" fill="none" xmlns="http://www.w3.org/2000/svg">
<path d="M30.3977 14.7199C27.5017 13.8087 25.6502 11.3418 25.4867 8.32698C25.419 7.08012 25.4922 5.85347 25.9396 4.6736C27.101 1.6105 29.7521 0.239138 32.454 0.0359583C33.8636 -0.0701023 35.2615 0.0420111 36.5851 0.594324C39.3883 1.76402 40.8282 3.91756 41.0723 6.89042C41.1782 8.17938 41.0599 9.45472 40.5463 10.6653C39.3485 13.4889 37.1291 14.8492 34.1373 15.1264C32.7231 15.2572 31.3048 15.0052 30.3977 14.7199ZM28.736 7.6162C28.7441 7.75115 28.7541 8.00302 28.7754 8.25394C28.955 10.371 30.5217 12.0164 32.5805 12.2532C34.9798 12.529 36.9776 11.3568 37.5766 9.20436C37.7863 8.45106 37.8343 7.61193 37.7602 6.83058C37.6235 5.39044 36.9301 4.21304 35.629 3.48657C32.9445 1.98756 28.799 3.24556 28.736 7.6162Z" fill="#C21620"/>
<path d="M81.5735 8.71848C82.7861 10.7325 83.9635 12.6883 85.1871 14.7206C83.8846 14.7206 82.6962 14.7206 81.4247 14.7206C80.4297 12.8331 79.4187 10.9152 78.4036 8.98934C77.8674 8.98934 77.3703 8.98934 76.7881 8.98934C76.7881 10.8898 76.7881 12.7585 76.7881 14.6919C75.7097 14.6919 74.7137 14.6919 73.6602 14.6919C73.6602 9.92119 73.6602 0.306812 73.6602 0.306812C73.6602 0.306812 77.508 0.276686 79.1173 0.317679C79.9167 0.338039 80.7303 0.41191 81.5072 0.591291C84.0213 1.17194 84.9019 3.10497 84.6497 5.27158C84.4538 6.95259 83.5937 8.12187 81.8856 8.5662C81.8005 8.58807 81.7242 8.64365 81.5735 8.71848ZM76.8185 3.04994C76.8185 4.15883 76.8185 6.30715 76.8185 6.30715C76.8185 6.30715 79.0446 6.33961 80.1067 6.19407C81.1982 6.0444 81.7061 5.01819 81.2928 4.01481C81.0477 3.41985 80.5373 3.10676 79.9534 3.06865C78.9282 3.00166 77.8953 3.04994 76.8185 3.04994Z" fill="#C21620"/>
<path d="M15.9218 8.99246C15.9218 10.934 15.9218 12.8036 15.9218 14.7109C14.8572 14.7109 13.8607 14.7109 12.8242 14.7109C12.8242 9.90917 12.8242 0.308005 12.8242 0.308005C12.8242 0.308005 16.7912 0.294386 18.539 0.314333C19.5307 0.325613 20.5115 0.449281 21.4385 0.836244C22.9516 1.46779 23.7264 2.63047 23.8112 4.23582C23.8411 4.79997 23.8016 5.38763 23.6722 5.9361C23.3718 7.2091 22.5723 8.07299 21.3144 8.49421C21.1444 8.55116 20.9744 8.60797 20.7131 8.69532C21.9266 10.7095 23.1114 12.6761 24.3422 14.7189C23.0219 14.7189 21.813 14.7189 20.5728 14.7189C19.5695 12.8128 18.5687 10.9116 17.5584 8.99246C17.0349 8.99246 16.5386 8.99246 15.9218 8.99246ZM15.9766 6.38372C15.9766 6.38372 17.9963 6.37299 19.0449 6.37299C20.0306 6.37299 20.5945 5.4776 20.5467 4.53213C20.5077 3.75724 20.0525 3.1737 19.1585 3.08553C18.1212 2.98318 17.0659 3.06173 15.9766 3.06173C15.9766 4.11573 15.9766 6.38372 15.9766 6.38372Z" fill="#C21620"/>
<path d="M86.811 0.343143H89.9496C89.9496 0.343143 89.9403 6.28556 89.9584 8.87394C89.9617 9.34811 90.0063 9.84403 90.1522 10.291C90.571 11.5739 91.8316 12.3676 93.1453 12.2445C94.5333 12.1145 95.6279 11.0665 95.7982 9.68212C95.8428 9.31978 95.8428 8.9507 95.8433 8.58464C95.8469 6.08775 95.8453 0.332275 95.8453 0.332275H98.9963C98.9963 0.332275 99.0159 6.30001 98.9866 8.91108C98.9782 9.66024 98.9251 10.4317 98.7353 11.1518C98.127 13.459 96.1844 14.9513 93.6747 15.1113C92.6384 15.1775 91.606 15.1345 90.6034 14.8201C88.4344 14.1397 86.9066 12.2841 86.8454 9.97994C86.7624 6.84393 86.811 0.343143 86.811 0.343143Z" fill="#C21620"/>
<path d="M3.10086 14.7185C2.00247 14.7185 1.02216 14.7185 0 14.7185C0 9.92262 0 0.307967 0 0.307967C0 0.307967 3.8518 0.28183 5.55337 0.323099C6.2836 0.340844 7.02405 0.438238 7.73633 0.601387C9.45226 0.994403 10.5141 2.12805 10.7248 3.86409C10.814 4.59909 10.7777 5.38209 10.6243 6.10664C10.3283 7.50399 9.39123 8.41865 8.01873 8.75801C7.11533 8.98141 6.16112 9.02089 5.22568 9.08844C4.5453 9.13755 3.85857 9.09807 3.10086 9.09807C3.10086 11.0017 3.10086 12.8231 3.10086 14.7185ZM3.1137 6.45646C3.1137 6.45646 5.23521 6.46664 6.24273 6.31986C7.05526 6.20142 7.51262 5.5535 7.53941 4.76898C7.5651 4.015 7.16505 3.41825 6.38262 3.17807C5.31765 2.85108 3.1137 2.97695 3.1137 2.97695V6.45646Z" fill="#C21620"/>
<path d="M46.6057 14.7233C45.5089 14.7233 44.5268 14.7233 43.4961 14.7233C43.4961 9.93225 43.4961 5.17575 43.4961 0.362305C46.6614 0.362305 49.8423 0.362305 53.0793 0.362305C53.0793 1.25797 53.0793 2.16121 53.0793 3.18013C50.9491 3.18013 48.8064 3.18013 46.6319 3.18013C46.6319 4.22795 46.6319 5.16172 46.6319 6.18353C48.6098 6.18353 50.5951 6.18353 52.6236 6.18353C52.6236 7.17426 52.6236 8.07859 52.6236 9.08637C50.6399 9.08637 48.6569 9.08637 46.6057 9.08637C46.6057 11.0098 46.6057 12.8321 46.6057 14.7233Z" fill="#C21620"/>
<path d="M55.5234 0.339478C56.5475 0.339478 57.5469 0.339478 58.584 0.339478C58.584 5.13105 58.584 9.88837 58.584 14.702C57.5694 14.702 56.5716 14.702 55.5234 14.702C55.5234 9.92414 55.5234 5.14893 55.5234 0.339478Z" fill="#C21620"/>
<path d="M70.6076 14.686C67.5965 14.686 64.6387 14.686 61.625 14.686C61.625 13.7623 61.625 12.8427 61.625 11.8822C64.6141 11.8822 67.5874 11.8822 70.6076 11.8822C70.6076 12.8065 70.6076 13.7094 70.6076 14.686Z" fill="#C21620"/>
<path d="M66.049 10.7411C64.7567 10.7251 63.8105 9.74528 63.8365 8.44944C63.862 7.17478 64.8775 6.19603 66.1416 6.2278C67.4106 6.25958 68.3998 7.2891 68.3656 8.54229C68.3305 9.83332 67.3571 10.7572 66.049 10.7411Z" fill="#C21620"/>
</svg>
