<svg width="23" height="23" viewBox="0 0 23 23" fill="none" xmlns="http://www.w3.org/2000/svg">
<path d="M11.5 22.2812C17.4543 22.2812 22.2812 17.4543 22.2812 11.5C22.2812 5.54568 17.4543 0.71875 11.5 0.71875C5.54568 0.71875 0.71875 5.54568 0.71875 11.5C0.71875 17.4543 5.54568 22.2812 11.5 22.2812Z" fill="#ED4C5C"/>
<path d="M7.90625 10.2062L10.7812 12.2188L9.70312 8.9125L12.5781 6.82812H9.02031L7.90625 3.59375L6.82812 6.82812H3.23438L6.10938 8.9125L5.03125 12.2188L7.90625 10.2062Z" fill="#FFE62E"/>
<path d="M12.6859 12.6859L11.8594 12.8656L12.65 13.1891V14.0156L13.1891 13.4047L13.9797 13.6922L13.5125 13.0094L14.0156 12.3625L13.1891 12.5422L12.6859 11.8594V12.6859Z" fill="#FFE62E"/>
<path d="M13.9078 10.2422L13.2969 10.7812L14.1234 10.7094L14.4828 11.5L14.6266 10.6734L15.4531 10.6016L14.7344 10.1703L14.9141 9.34375L14.3031 9.88281L13.5844 9.45156L13.9078 10.2422Z" fill="#FFE62E"/>
<path d="M14.1234 7.43906L14.375 8.26562L14.6266 7.475H15.4531L14.8063 6.97187L15.0578 6.14531L14.375 6.64844L13.7281 6.10938L13.9797 6.93594L13.2969 7.40313L14.1234 7.43906Z" fill="#FFE62E"/>
<path d="M12.6859 4.56406V5.39062L13.1891 4.70781L14.0156 4.8875L13.5125 4.24063L13.9797 3.55781L13.1891 3.88125L12.65 3.23438V4.06094L11.8594 4.38437L12.6859 4.56406Z" fill="#FFE62E"/>
</svg>
