<svg width="23" height="23" viewBox="0 0 23 23" fill="none" xmlns="http://www.w3.org/2000/svg">
<path d="M6.10938 20.8438V2.15625C2.875 4.025 0.71875 7.51094 0.71875 11.5C0.71875 15.4891 2.875 18.975 6.10938 20.8438Z" fill="#699635"/>
<path d="M11.5 0.71875C9.52344 0.71875 7.69063 1.25781 6.10938 2.15625V20.8438C7.69063 21.7781 9.52344 22.2812 11.5 22.2812C17.4656 22.2812 22.2812 17.4656 22.2812 11.5C22.2812 5.53437 17.4656 0.71875 11.5 0.71875Z" fill="#ED4C5C"/>
<path d="M6.10938 7.1875C3.7375 7.1875 1.79688 9.12813 1.79688 11.5C1.79688 13.8719 3.7375 15.8125 6.10938 15.8125C8.48125 15.8125 10.4219 13.8719 10.4219 11.5C10.4219 9.12813 8.48125 7.1875 6.10938 7.1875ZM6.10938 15.2734C4.025 15.2734 2.33594 13.5844 2.33594 11.5C2.33594 9.41562 4.025 7.72656 6.10938 7.72656C8.19375 7.72656 9.88281 9.41562 9.88281 11.5C9.88281 13.5844 8.19375 15.2734 6.10938 15.2734Z" fill="#FFE62E"/>
<path d="M7.58291 15.7048C7.51104 15.7767 7.40322 15.7767 7.33135 15.7048L2.40791 9.20015C2.33604 9.12827 2.33604 9.02046 2.40791 8.94858L2.51572 8.84077C2.5876 8.7689 2.69541 8.7689 2.76729 8.84077L7.69072 15.3455C7.7626 15.4173 7.7626 15.5251 7.69072 15.597L7.58291 15.7048Z" fill="#FFE62E"/>
<path d="M6.18115 7.00781C6.28896 7.00781 6.36084 7.07969 6.36084 7.1875V15.8125C6.36084 15.9203 6.28896 15.9922 6.18115 15.9922H6.00146C5.89365 15.9922 5.82178 15.9203 5.82178 15.8125V7.1875C5.82178 7.07969 5.89365 7.00781 6.00146 7.00781H6.18115Z" fill="#FFE62E"/>
<path d="M10.3859 11.9673L6.10938 11.2126V11.7517L10.3141 12.5064C10.4219 12.5064 10.4938 12.4705 10.5297 12.3626L10.5656 12.183C10.5656 12.1111 10.4938 12.0033 10.3859 11.9673Z" fill="#FFE62E"/>
<path d="M6.10968 11.1767L2.73156 8.8048C2.65969 8.73293 2.55187 8.76887 2.48 8.84074L2.37219 8.98449C2.30031 9.05637 2.33625 9.16418 2.40812 9.23605L6.10968 11.8236V11.1767Z" fill="#FFE62E"/>
<path d="M5.96572 10.7812L2.5876 14.1594C2.51572 14.2312 2.51572 14.3391 2.5876 14.4109L2.73135 14.5547C2.80322 14.6266 2.91104 14.6266 2.98291 14.5547L5.96572 11.5719V10.7812Z" fill="#FFE62E"/>
<path d="M6.10946 9.16406L1.61727 11.2844C1.5454 11.3203 1.47352 11.4281 1.5454 11.5359L1.61727 11.7156C1.65321 11.7875 1.76102 11.8594 1.86883 11.7875L6.10946 9.775V9.16406Z" fill="#FFE62E"/>
<path d="M10.0983 9.77495L5.82178 9.02026V9.55933L10.0265 10.314C10.1343 10.314 10.2062 10.2781 10.2421 10.1703L10.278 9.99058C10.2421 9.88276 10.1702 9.77495 10.0983 9.77495Z" fill="#FFE62E"/>
<path d="M6.07333 13.9795C6.00145 14.0155 5.92958 14.1233 6.00145 14.2311L6.07333 14.4108C6.10926 14.4827 6.21708 14.5545 6.32489 14.4827L9.91864 12.8295L10.0983 12.1467L6.07333 13.9795Z" fill="#FFE62E"/>
<path d="M6.07334 12.7579L2.04834 11.2844V11.8594L6.07334 13.3329V12.7579Z" fill="#FFE62E"/>
<path d="M3.27051 13.9436V14.4827L8.58926 14.842C8.80488 14.6983 8.98457 14.5186 9.16426 14.3389L3.27051 13.9436Z" fill="#FFE62E"/>
<path d="M4.3125 9.70312V12.2188C4.3125 13.225 5.10313 14.0156 6.10938 14.0156C7.11562 14.0156 7.90625 13.225 7.90625 12.2188V9.70312H4.3125Z" fill="white"/>
<path d="M6.10938 14.7344C4.70781 14.7344 3.59375 13.6203 3.59375 12.2188V8.98438H8.625V12.2188C8.625 13.6203 7.51094 14.7344 6.10938 14.7344ZM5.03125 10.4219V12.2188C5.03125 12.8297 5.49844 13.2969 6.10938 13.2969C6.72031 13.2969 7.1875 12.8297 7.1875 12.2188V10.4219H5.03125Z" fill="#ED4C5C"/>
<path d="M5.78613 10.5655V11.1405C5.78613 11.2483 5.85801 11.3202 5.96582 11.3202H6.25332C6.36113 11.3202 6.43301 11.2483 6.43301 11.1405V10.5295H5.78613V10.5655Z" fill="#0071BC"/>
<path d="M5.78613 11.4639V12.0748C5.78613 12.1826 5.85801 12.2545 5.96582 12.2545H6.25332C6.36113 12.2545 6.43301 12.1826 6.43301 12.0748V11.4639H5.78613Z" fill="#0071BC"/>
<path d="M5.06738 11.4639V12.0748C5.06738 12.1826 5.13926 12.2545 5.24707 12.2545H5.53457C5.64238 12.2545 5.71426 12.1826 5.71426 12.0748V11.4639H5.06738Z" fill="#0071BC"/>
<path d="M6.50488 11.4639V12.0748C6.50488 12.1826 6.57676 12.2545 6.68457 12.2545H6.97207C7.07988 12.2545 7.15176 12.1826 7.15176 12.0748V11.4639H6.50488Z" fill="#0071BC"/>
<path d="M5.78613 12.3264V12.9374C5.78613 13.0452 5.85801 13.117 5.96582 13.117H6.25332C6.36113 13.117 6.43301 13.0452 6.43301 12.9374V12.3264H5.78613Z" fill="#0071BC"/>
<path d="M6.10898 11.8955C6.14868 11.8955 6.18086 11.8633 6.18086 11.8236C6.18086 11.7839 6.14868 11.7517 6.10898 11.7517C6.06929 11.7517 6.03711 11.7839 6.03711 11.8236C6.03711 11.8633 6.06929 11.8955 6.10898 11.8955Z" fill="white"/>
<path d="M5.96543 12.0751C6.00513 12.0751 6.0373 12.043 6.0373 12.0033C6.0373 11.9636 6.00513 11.9314 5.96543 11.9314C5.92573 11.9314 5.89355 11.9636 5.89355 12.0033C5.89355 12.043 5.92573 12.0751 5.96543 12.0751Z" fill="white"/>
<path d="M6.25303 12.0751C6.29272 12.0751 6.3249 12.043 6.3249 12.0033C6.3249 11.9636 6.29272 11.9314 6.25303 11.9314C6.21333 11.9314 6.18115 11.9636 6.18115 12.0033C6.18115 12.043 6.21333 12.0751 6.25303 12.0751Z" fill="white"/>
<path d="M5.96543 11.7158C6.00513 11.7158 6.0373 11.6836 6.0373 11.6439C6.0373 11.6042 6.00513 11.572 5.96543 11.572C5.92573 11.572 5.89355 11.6042 5.89355 11.6439C5.89355 11.6836 5.92573 11.7158 5.96543 11.7158Z" fill="white"/>
<path d="M6.25303 11.7158C6.29272 11.7158 6.3249 11.6836 6.3249 11.6439C6.3249 11.6042 6.29272 11.572 6.25303 11.572C6.21333 11.572 6.18115 11.6042 6.18115 11.6439C6.18115 11.6836 6.21333 11.7158 6.25303 11.7158Z" fill="white"/>
<path d="M6.10898 10.997C6.14868 10.997 6.18086 10.9648 6.18086 10.9251C6.18086 10.8855 6.14868 10.8533 6.10898 10.8533C6.06929 10.8533 6.03711 10.8855 6.03711 10.9251C6.03711 10.9648 6.06929 10.997 6.10898 10.997Z" fill="white"/>
<path d="M5.96543 11.1767C6.00513 11.1767 6.0373 11.1445 6.0373 11.1048C6.0373 11.0651 6.00513 11.033 5.96543 11.033C5.92573 11.033 5.89355 11.0651 5.89355 11.1048C5.89355 11.1445 5.92573 11.1767 5.96543 11.1767Z" fill="white"/>
<path d="M6.25303 11.1767C6.29272 11.1767 6.3249 11.1445 6.3249 11.1048C6.3249 11.0651 6.29272 11.033 6.25303 11.033C6.21333 11.033 6.18115 11.0651 6.18115 11.1048C6.18115 11.1445 6.21333 11.1767 6.25303 11.1767Z" fill="white"/>
<path d="M5.96543 10.8173C6.00513 10.8173 6.0373 10.7852 6.0373 10.7455C6.0373 10.7058 6.00513 10.6736 5.96543 10.6736C5.92573 10.6736 5.89355 10.7058 5.89355 10.7455C5.89355 10.7852 5.92573 10.8173 5.96543 10.8173Z" fill="white"/>
<path d="M6.25303 10.8173C6.29272 10.8173 6.3249 10.7852 6.3249 10.7455C6.3249 10.7058 6.29272 10.6736 6.25303 10.6736C6.21333 10.6736 6.18115 10.7058 6.18115 10.7455C6.18115 10.7852 6.21333 10.8173 6.25303 10.8173Z" fill="white"/>
<path d="M6.82773 11.8955C6.86743 11.8955 6.89961 11.8633 6.89961 11.8236C6.89961 11.7839 6.86743 11.7517 6.82773 11.7517C6.78804 11.7517 6.75586 11.7839 6.75586 11.8236C6.75586 11.8633 6.78804 11.8955 6.82773 11.8955Z" fill="white"/>
<path d="M6.68418 12.0751C6.72388 12.0751 6.75605 12.043 6.75605 12.0033C6.75605 11.9636 6.72388 11.9314 6.68418 11.9314C6.64448 11.9314 6.6123 11.9636 6.6123 12.0033C6.6123 12.043 6.64448 12.0751 6.68418 12.0751Z" fill="white"/>
<path d="M6.97178 12.0751C7.01147 12.0751 7.04365 12.043 7.04365 12.0033C7.04365 11.9636 7.01147 11.9314 6.97178 11.9314C6.93208 11.9314 6.8999 11.9636 6.8999 12.0033C6.8999 12.043 6.93208 12.0751 6.97178 12.0751Z" fill="white"/>
<path d="M6.68418 11.7158C6.72388 11.7158 6.75605 11.6836 6.75605 11.6439C6.75605 11.6042 6.72388 11.572 6.68418 11.572C6.64448 11.572 6.6123 11.6042 6.6123 11.6439C6.6123 11.6836 6.64448 11.7158 6.68418 11.7158Z" fill="white"/>
<path d="M6.97178 11.7158C7.01147 11.7158 7.04365 11.6836 7.04365 11.6439C7.04365 11.6042 7.01147 11.572 6.97178 11.572C6.93208 11.572 6.8999 11.6042 6.8999 11.6439C6.8999 11.6836 6.93208 11.7158 6.97178 11.7158Z" fill="white"/>
<path d="M5.39023 11.8955C5.42993 11.8955 5.46211 11.8633 5.46211 11.8236C5.46211 11.7839 5.42993 11.7517 5.39023 11.7517C5.35054 11.7517 5.31836 11.7839 5.31836 11.8236C5.31836 11.8633 5.35054 11.8955 5.39023 11.8955Z" fill="white"/>
<path d="M5.24668 12.0751C5.28638 12.0751 5.31855 12.043 5.31855 12.0033C5.31855 11.9636 5.28638 11.9314 5.24668 11.9314C5.20698 11.9314 5.1748 11.9636 5.1748 12.0033C5.1748 12.043 5.20698 12.0751 5.24668 12.0751Z" fill="white"/>
<path d="M5.53428 12.0751C5.57397 12.0751 5.60615 12.043 5.60615 12.0033C5.60615 11.9636 5.57397 11.9314 5.53428 11.9314C5.49458 11.9314 5.4624 11.9636 5.4624 12.0033C5.4624 12.043 5.49458 12.0751 5.53428 12.0751Z" fill="white"/>
<path d="M5.24668 11.7158C5.28638 11.7158 5.31855 11.6836 5.31855 11.6439C5.31855 11.6042 5.28638 11.572 5.24668 11.572C5.20698 11.572 5.1748 11.6042 5.1748 11.6439C5.1748 11.6836 5.20698 11.7158 5.24668 11.7158Z" fill="white"/>
<path d="M5.53428 11.7158C5.57397 11.7158 5.60615 11.6836 5.60615 11.6439C5.60615 11.6042 5.57397 11.572 5.53428 11.572C5.49458 11.572 5.4624 11.6042 5.4624 11.6439C5.4624 11.6836 5.49458 11.7158 5.53428 11.7158Z" fill="white"/>
<path d="M6.10898 12.7939C6.14868 12.7939 6.18086 12.7617 6.18086 12.722C6.18086 12.6823 6.14868 12.6501 6.10898 12.6501C6.06929 12.6501 6.03711 12.6823 6.03711 12.722C6.03711 12.7617 6.06929 12.7939 6.10898 12.7939Z" fill="white"/>
<path d="M5.96543 12.9736C6.00513 12.9736 6.0373 12.9414 6.0373 12.9017C6.0373 12.862 6.00513 12.8298 5.96543 12.8298C5.92573 12.8298 5.89355 12.862 5.89355 12.9017C5.89355 12.9414 5.92573 12.9736 5.96543 12.9736Z" fill="white"/>
<path d="M6.25303 12.9736C6.29272 12.9736 6.3249 12.9414 6.3249 12.9017C6.3249 12.862 6.29272 12.8298 6.25303 12.8298C6.21333 12.8298 6.18115 12.862 6.18115 12.9017C6.18115 12.9414 6.21333 12.9736 6.25303 12.9736Z" fill="white"/>
<path d="M5.96543 12.6142C6.00513 12.6142 6.0373 12.582 6.0373 12.5423C6.0373 12.5026 6.00513 12.4705 5.96543 12.4705C5.92573 12.4705 5.89355 12.5026 5.89355 12.5423C5.89355 12.582 5.92573 12.6142 5.96543 12.6142Z" fill="white"/>
<path d="M6.25303 12.6142C6.29272 12.6142 6.3249 12.582 6.3249 12.5423C6.3249 12.5026 6.29272 12.4705 6.25303 12.4705C6.21333 12.4705 6.18115 12.5026 6.18115 12.5423C6.18115 12.582 6.21333 12.6142 6.25303 12.6142Z" fill="white"/>
<path d="M5.75 10.0625H6.46875L6.39687 9.70312V9.34375H6.46875V9.16406H6.36094V9.27187H6.325V9.16406H6.21719V9.27187H6.14531V9.16406H6.07344V9.27187H6.00156V9.16406H5.89375V9.27187H5.82188V9.16406H5.75V9.34375H5.82188V9.70312L5.75 10.0625Z" fill="#FFE62E"/>
<path d="M6.21709 10.0626H6.18115V9.91885C6.18115 9.88291 6.14521 9.84697 6.10928 9.84697C6.07334 9.84697 6.0374 9.88291 6.0374 9.91885V10.0626H6.00146V9.91885C6.00146 9.84697 6.0374 9.81104 6.10928 9.81104C6.18115 9.81104 6.21709 9.84697 6.21709 9.91885V10.0626Z" fill="#3E4347"/>
<path d="M6.10918 9.66714H5.89355V9.48745C5.89355 9.41558 5.92949 9.37964 6.00137 9.37964C6.07324 9.37964 6.10918 9.41558 6.10918 9.48745V9.66714ZM5.92949 9.6312H6.07324V9.48745C6.07324 9.45151 6.03731 9.41558 6.00137 9.41558C5.96543 9.41558 5.92949 9.45151 5.92949 9.48745V9.6312Z" fill="#3E4347"/>
<path d="M6.325 9.66714H6.10938V9.48745C6.10938 9.41558 6.14531 9.37964 6.21719 9.37964C6.28906 9.37964 6.325 9.41558 6.325 9.48745V9.66714ZM6.14531 9.6312H6.28906V9.48745C6.28906 9.45151 6.25312 9.41558 6.21719 9.41558C6.18125 9.41558 6.14531 9.45151 6.14531 9.48745V9.6312Z" fill="#3E4347"/>
<path d="M3.95312 10.0625H4.67188L4.6 9.70312V9.34375H4.67188V9.16406H4.56406V9.27187H4.52813V9.16406H4.42031V9.27187H4.34844V9.16406H4.27656V9.27187H4.20469V9.16406H4.09687V9.27187H4.025V9.16406H3.95312V9.34375H4.025V9.70312L3.95312 10.0625Z" fill="#FFE62E"/>
<path d="M4.42022 10.0626H4.38428V9.91885C4.38428 9.88291 4.34834 9.84697 4.3124 9.84697C4.27646 9.84697 4.24053 9.88291 4.24053 9.91885V10.0626H4.20459V9.91885C4.20459 9.84697 4.24053 9.81104 4.3124 9.81104C4.38428 9.81104 4.42022 9.84697 4.42022 9.91885V10.0626Z" fill="#3E4347"/>
<path d="M4.3123 9.66714H4.09668V9.48745C4.09668 9.41558 4.13262 9.37964 4.20449 9.37964C4.27637 9.37964 4.3123 9.41558 4.3123 9.48745V9.66714ZM4.13262 9.6312H4.27637V9.48745C4.27637 9.45151 4.24043 9.41558 4.20449 9.41558C4.16855 9.41558 4.13262 9.45151 4.13262 9.48745V9.6312Z" fill="#3E4347"/>
<path d="M4.52813 9.66714H4.3125V9.48745C4.3125 9.41558 4.34844 9.37964 4.42031 9.37964C4.49219 9.37964 4.52813 9.41558 4.52813 9.48745V9.66714ZM4.34844 9.6312H4.49219V9.48745C4.49219 9.45151 4.45625 9.41558 4.42031 9.41558C4.38438 9.41558 4.34844 9.45151 4.34844 9.48745V9.6312Z" fill="#3E4347"/>
<path d="M3.95312 12.1829H4.67188L4.6 11.8235V11.4641H4.67188V11.2844H4.6V11.3922H4.52813V11.2844H4.45625V11.3922H4.34844V11.2844H4.27656V11.3922H4.20469V11.2844H4.13281V11.3922H4.06094V11.2844H3.95312V11.4641H4.06094V11.8235L3.95312 12.1829Z" fill="#FFE62E"/>
<path d="M4.42022 12.183H4.38428V12.0392C4.38428 12.0033 4.34834 11.9673 4.3124 11.9673C4.27646 11.9673 4.24053 12.0033 4.24053 12.0392V12.183H4.20459V12.0392C4.20459 11.9673 4.24053 11.9314 4.3124 11.9314C4.38428 11.9314 4.42022 11.9673 4.42022 12.0392V12.183Z" fill="#3E4347"/>
<path d="M4.3123 11.7875H4.09668V11.6078C4.09668 11.5359 4.13262 11.5 4.20449 11.5C4.27637 11.5 4.3123 11.5359 4.3123 11.6078V11.7875ZM4.13262 11.7516H4.27637V11.6078C4.27637 11.5719 4.24043 11.5359 4.20449 11.5359C4.16855 11.5359 4.13262 11.5719 4.13262 11.6078V11.7516Z" fill="#3E4347"/>
<path d="M4.56377 11.7875H4.34814V11.6078C4.34814 11.5359 4.38408 11.5 4.45596 11.5C4.52783 11.5 4.56377 11.5359 4.56377 11.6078V11.7875ZM4.38408 11.7516H4.52783V11.6078C4.52783 11.5719 4.49189 11.5359 4.45596 11.5359C4.42002 11.5359 4.38408 11.5719 4.38408 11.6078V11.7516Z" fill="#3E4347"/>
<path d="M7.54688 12.2187H8.26562L8.19375 11.8593V11.5H8.26562V11.3562H8.15781V11.4281H8.12188V11.3562H8.01406V11.4281H7.94219V11.3562H7.87031V11.4281H7.79844V11.3562H7.69062V11.4281H7.61875V11.3562H7.54688V11.5H7.61875V11.8593L7.54688 12.2187Z" fill="#FFE62E"/>
<path d="M8.01396 12.2188H7.97803V12.0751C7.97803 12.0392 7.94209 12.0032 7.90615 12.0032C7.87021 12.0032 7.83428 12.0392 7.83428 12.0751V12.2188H7.79834V12.0751C7.79834 12.0032 7.83428 11.9673 7.90615 11.9673C7.97803 11.9673 8.01396 12.0032 8.01396 12.0751V12.2188Z" fill="#3E4347"/>
<path d="M7.90605 11.8234H7.69043V11.6437C7.69043 11.5718 7.72637 11.5359 7.79824 11.5359C7.87012 11.5359 7.90605 11.5718 7.90605 11.6437V11.8234ZM7.72637 11.7875H7.87012V11.6437C7.87012 11.6078 7.83418 11.5718 7.79824 11.5718C7.76231 11.5718 7.72637 11.6078 7.72637 11.6437V11.7875Z" fill="#3E4347"/>
<path d="M8.12187 11.8234H7.90625V11.6437C7.90625 11.5718 7.94219 11.5359 8.01406 11.5359C8.08594 11.5359 8.12187 11.5718 8.12187 11.6437V11.8234ZM7.94219 11.7875H8.08594V11.6437C8.08594 11.6078 8.05 11.5718 8.01406 11.5718C7.97812 11.5718 7.94219 11.6078 7.94219 11.6437V11.7875Z" fill="#3E4347"/>
<path d="M7.54688 10.0625H8.26562L8.19375 9.70312V9.34375H8.26562V9.16406H8.15781V9.27187H8.12188V9.16406H8.01406V9.27187H7.94219V9.16406H7.87031V9.27187H7.79844V9.16406H7.69062V9.27187H7.61875V9.16406H7.54688V9.34375H7.61875V9.70312L7.54688 10.0625Z" fill="#FFE62E"/>
<path d="M8.01396 10.0626H7.97803V9.91885C7.97803 9.88291 7.94209 9.84697 7.90615 9.84697C7.87021 9.84697 7.83428 9.88291 7.83428 9.91885V10.0626H7.79834V9.91885C7.79834 9.84697 7.83428 9.81104 7.90615 9.81104C7.97803 9.81104 8.01396 9.84697 8.01396 9.91885V10.0626Z" fill="#3E4347"/>
<path d="M7.90605 9.66714H7.69043V9.48745C7.69043 9.41558 7.72637 9.37964 7.79824 9.37964C7.87012 9.37964 7.90605 9.41558 7.90605 9.48745V9.66714ZM7.72637 9.6312H7.87012V9.48745C7.87012 9.45151 7.83418 9.41558 7.79824 9.41558C7.76231 9.41558 7.72637 9.45151 7.72637 9.48745V9.6312Z" fill="#3E4347"/>
<path d="M8.12187 9.66714H7.90625V9.48745C7.90625 9.41558 7.94219 9.37964 8.01406 9.37964C8.08594 9.37964 8.12187 9.41558 8.12187 9.48745V9.66714ZM7.94219 9.6312H8.08594V9.48745C8.08594 9.45151 8.05 9.41558 8.01406 9.41558C7.97812 9.41558 7.94219 9.45151 7.94219 9.48745V9.6312Z" fill="#3E4347"/>
<path d="M5.10313 14.2313L5.60625 13.6922L5.28281 13.5125L5.03125 13.261L5.10313 13.1891L4.99531 13.0813L4.92344 13.1532L4.99531 13.225L4.95938 13.261L4.8875 13.1891L4.81562 13.261L4.8875 13.2969L4.81562 13.3688L4.77969 13.2969L4.70781 13.3688L4.77969 13.4407L4.70781 13.4766L4.67188 13.4047L4.6 13.4766L4.63594 13.5485L4.6 13.5844L4.56406 13.5125L4.49219 13.5844L4.6 13.6922H4.63594L4.67188 13.6563L4.92344 13.9079L5.10313 14.2313Z" fill="#FFE62E"/>
<path d="M5.42627 13.8718L5.28252 13.7999C5.24658 13.764 5.21064 13.764 5.17471 13.7999C5.13877 13.8358 5.13877 13.8718 5.17471 13.9077L5.28252 14.0155L5.24658 14.0515L5.13877 13.9437C5.10283 13.9077 5.10283 13.8358 5.13877 13.7999C5.17471 13.764 5.24658 13.764 5.28252 13.7999L5.42627 13.8718Z" fill="#3E4347"/>
<path d="M5.06709 13.6921L4.92334 13.8359L4.81553 13.7281C4.77959 13.6921 4.77959 13.6203 4.81553 13.5843C4.85146 13.5484 4.92334 13.5484 4.95928 13.5843L5.06709 13.6921ZM4.92334 13.8L5.03115 13.6921L4.92334 13.5843C4.8874 13.5484 4.85146 13.5484 4.81553 13.5843C4.77959 13.6203 4.77959 13.6562 4.81553 13.6921L4.92334 13.8Z" fill="#3E4347"/>
<path d="M5.24678 13.5125L5.10303 13.6562L4.99521 13.5484C4.95928 13.5125 4.95928 13.4406 4.99521 13.4046C5.03115 13.3687 5.10303 13.3687 5.13896 13.4046L5.24678 13.5125ZM5.10303 13.6203L5.21084 13.5125L5.10303 13.4046C5.06709 13.3687 5.03115 13.3687 4.99521 13.4046C4.95928 13.4406 4.95928 13.4765 4.99521 13.5125L5.10303 13.6203Z" fill="#3E4347"/>
<path d="M7.11543 14.2313L6.6123 13.6922L6.89981 13.5125L7.15137 13.261L7.11543 13.1891L7.22324 13.0813L7.29512 13.1532L7.22324 13.225L7.25918 13.261L7.33105 13.1891L7.40293 13.261L7.33105 13.2969L7.40293 13.3688L7.43887 13.2969L7.51074 13.3688L7.43887 13.4407L7.51074 13.4766L7.54668 13.4047L7.61856 13.4766L7.54668 13.5485L7.61856 13.5844L7.65449 13.5125L7.72637 13.5844L7.61856 13.6922H7.58262L7.54668 13.6563L7.29512 13.9079L7.11543 14.2313Z" fill="#FFE62E"/>
<path d="M6.79199 13.8718L6.93574 13.7999C6.97168 13.764 7.00762 13.764 7.04355 13.7999C7.07949 13.8358 7.07949 13.8718 7.04355 13.9077L6.8998 14.0155L6.93574 14.0515L7.04355 13.9437C7.07949 13.9077 7.07949 13.8358 7.04355 13.7999C7.00762 13.764 6.93574 13.764 6.8998 13.7999L6.79199 13.8718Z" fill="#3E4347"/>
<path d="M7.25918 13.5843C7.29512 13.5484 7.36699 13.5484 7.40293 13.5843C7.43887 13.6203 7.43887 13.6921 7.40293 13.7281L7.29512 13.8359L7.15137 13.6921L7.25918 13.5843ZM7.36699 13.6921C7.40293 13.6562 7.40293 13.6203 7.36699 13.5843C7.33105 13.5484 7.29512 13.5484 7.25918 13.5843L7.1873 13.6921L7.29512 13.8L7.36699 13.6921Z" fill="#3E4347"/>
<path d="M7.07949 13.4046C7.11543 13.3687 7.1873 13.3687 7.22324 13.4046C7.25918 13.4406 7.25918 13.5125 7.22324 13.5484L7.11543 13.6562L6.97168 13.5125L7.07949 13.4046ZM7.22324 13.5125C7.25918 13.4765 7.25918 13.4406 7.22324 13.4046C7.1873 13.3687 7.15137 13.3687 7.11543 13.4046L7.00762 13.5125L7.11543 13.6203L7.22324 13.5125Z" fill="#3E4347"/>
</svg>
