<svg width="23" height="23" viewBox="0 0 23 23" fill="none" xmlns="http://www.w3.org/2000/svg">
<path d="M11.5 22.2812C17.4543 22.2812 22.2812 17.4543 22.2812 11.5C22.2812 5.54568 17.4543 0.71875 11.5 0.71875C5.54568 0.71875 0.71875 5.54568 0.71875 11.5C0.71875 17.4543 5.54568 22.2812 11.5 22.2812Z" fill="#ED4C5C"/>
<path d="M14.8422 14.0156L14.8781 12.075L12.9375 11.5L14.8781 10.925L14.8422 8.98438L16.0281 10.5297L17.9688 9.95469L16.7828 11.5L17.9688 13.0453L16.0281 12.4703L14.8422 14.0156Z" fill="white"/>
<path d="M11.9313 15.8125C9.55938 15.8125 7.65469 13.8719 7.65469 11.5C7.65469 9.12812 9.55938 7.1875 11.9313 7.1875C12.8297 7.1875 13.6562 7.475 14.375 7.94219C13.4047 6.82813 11.9672 6.10938 10.35 6.10938C7.40312 6.10938 5.03125 8.51719 5.03125 11.5C5.03125 14.4828 7.40312 16.8906 10.35 16.8906C11.9672 16.8906 13.4047 16.1719 14.375 15.0578C13.6922 15.525 12.8656 15.8125 11.9313 15.8125Z" fill="white"/>
</svg>
