<svg width="434" height="721" viewBox="0 0 434 721" fill="none" xmlns="http://www.w3.org/2000/svg">
<g filter="url(#filter0_d)">
<rect x="14" y="13.4443" width="400" height="686.222" rx="5" fill="white"/>
<rect x="14.5" y="13.9443" width="399" height="685.222" rx="4.5" stroke="#F5F5F5"/>
</g>
<rect x="40.6641" y="38.3333" width="346.667" height="17.7778" fill="#F5F5F5"/>
<rect x="39.7773" y="64.9999" width="253.333" height="16.8889" fill="#F5F5F5"/>
<rect x="39.7773" y="95.2221" width="253.333" height="27.5556" fill="#F5F5F5"/>
<rect x="62.8867" y="133.444" width="208" height="16.8889" fill="#ACA9A9" fill-opacity="0.4"/>
<rect x="62.8906" y="280.111" width="208" height="8.88889" fill="#ACA9A9" fill-opacity="0.4"/>
<rect x="62.8906" y="297" width="196.444" height="8.88889" fill="#ACA9A9" fill-opacity="0.4"/>
<rect x="62.8906" y="314.778" width="208" height="8.88889" fill="#ACA9A9" fill-opacity="0.4"/>
<rect x="62.8906" y="332.556" width="184.889" height="8.88889" fill="#ACA9A9" fill-opacity="0.4"/>
<rect x="62.8906" y="440.111" width="149.333" height="8.88889" fill="#ACA9A9" fill-opacity="0.4"/>
<rect x="62.8906" y="457" width="208" height="8.88889" fill="#ACA9A9" fill-opacity="0.4"/>
<rect x="62.8906" y="474.778" width="208" height="8.88889" fill="#ACA9A9" fill-opacity="0.4"/>
<rect x="62.8906" y="492.556" width="200" height="8.88889" fill="#ACA9A9" fill-opacity="0.4"/>
<rect x="62.8906" y="159.222" width="208" height="111.999" fill="#F5F5F5"/>
<line x1="0.25" y1="-0.25" x2="235.987" y2="-0.25" transform="matrix(0.880472 0.474098 -0.247617 0.968858 62.8906 159.222)" stroke="#ACA9A9" stroke-width="0.5" stroke-linecap="round"/>
<line x1="0.25" y1="-0.25" x2="235.987" y2="-0.25" transform="matrix(0.880472 -0.474098 0.247617 0.968858 62.8906 271.222)" stroke="#ACA9A9" stroke-width="0.5" stroke-linecap="round"/>
<rect x="62.8906" y="354.778" width="208" height="76.444" fill="#F5F5F5"/>
<line x1="0.25" y1="-0.25" x2="221.353" y2="-0.25" transform="matrix(0.938617 0.34496 -0.350671 0.936499 62.8906 354.778)" stroke="#ACA9A9" stroke-width="0.5" stroke-linecap="round"/>
<line x1="0.25" y1="-0.25" x2="221.353" y2="-0.25" transform="matrix(0.938617 -0.34496 0.350671 0.936499 62.8906 431.222)" stroke="#ACA9A9" stroke-width="0.5" stroke-linecap="round"/>
<rect x="319.777" y="62.3333" width="66.6667" height="49.7778" fill="#F5F5F5"/>
<rect x="320.664" y="125.444" width="66.6667" height="49.7778" fill="#F5F5F5"/>
<rect x="319.777" y="314.778" width="66.6667" height="49.7778" fill="#F5F5F5"/>
<rect x="320.664" y="377.889" width="66.6667" height="49.7778" fill="#F5F5F5"/>
<rect x="319.777" y="449" width="66.6667" height="49.7778" fill="#F5F5F5"/>
<rect x="320.664" y="512.111" width="66.6667" height="49.7778" fill="#F5F5F5"/>
<rect x="320.664" y="188.556" width="66.6667" height="49.7778" fill="#FF1E1E"/>
<rect x="320.664" y="251.667" width="66.6667" height="49.7778" fill="#FF1E1E"/>
<rect x="62.8867" y="520.111" width="208" height="40" fill="#F5F5F5"/>
<rect x="65.5547" y="576.111" width="35.5556" height="5.33333" rx="2" fill="#ACA9A9" fill-opacity="0.4"/>
<rect x="65.5547" y="585" width="227.556" height="5.33333" fill="#ACA9A9" fill-opacity="0.4"/>
<rect x="65.5547" y="593.889" width="227.556" height="5.33333" fill="#ACA9A9" fill-opacity="0.4"/>
<circle cx="50.8885" cy="588.111" r="10.6111" fill="#F5F5F5" stroke="#ACA9A9"/>
<rect x="96.6641" y="613.444" width="35.5556" height="5.33333" rx="2" fill="#ACA9A9" fill-opacity="0.4"/>
<rect x="96.6641" y="622.333" width="196.444" height="5.33333" fill="#ACA9A9" fill-opacity="0.4"/>
<rect x="96.6641" y="631.222" width="196.444" height="5.33333" fill="#ACA9A9" fill-opacity="0.4"/>
<circle cx="82.0017" cy="625.444" r="10.6111" fill="#F5F5F5" stroke="#ACA9A9"/>
<rect x="96.6641" y="649" width="35.5556" height="5.33333" rx="2" fill="#ACA9A9" fill-opacity="0.4"/>
<rect x="96.6641" y="657.889" width="196.444" height="5.33333" fill="#ACA9A9" fill-opacity="0.4"/>
<rect x="96.6641" y="666.778" width="196.444" height="5.33333" fill="#ACA9A9" fill-opacity="0.4"/>
<circle cx="82.0017" cy="661" r="10.6111" fill="#F5F5F5" stroke="#ACA9A9"/>
<line x1="65.0547" y1="681.049" x2="65.0547" y2="609" stroke="#ACA9A9"/>
<defs>
<filter id="filter0_d" x="0" y="0.444336" width="434" height="720.222" filterUnits="userSpaceOnUse" color-interpolation-filters="sRGB">
<feFlood flood-opacity="0" result="BackgroundImageFix"/>
<feColorMatrix in="SourceAlpha" type="matrix" values="0 0 0 0 0 0 0 0 0 0 0 0 0 0 0 0 0 0 127 0" result="hardAlpha"/>
<feOffset dx="3" dy="4"/>
<feGaussianBlur stdDeviation="8.5"/>
<feColorMatrix type="matrix" values="0 0 0 0 0.729167 0 0 0 0 0.729167 0 0 0 0 0.729167 0 0 0 0.25 0"/>
<feBlend mode="normal" in2="BackgroundImageFix" result="effect1_dropShadow"/>
<feBlend mode="normal" in="SourceGraphic" in2="effect1_dropShadow" result="shape"/>
</filter>
</defs>
</svg>
