<svg width="484" height="807" viewBox="0 0 484 807" fill="none" xmlns="http://www.w3.org/2000/svg">
<g filter="url(#filter0_d)">
<rect x="14" y="13.3225" width="450" height="772" rx="5" fill="white"/>
<rect x="14.5" y="13.8225" width="449" height="771" rx="4.5" stroke="#F5F5F5"/>
</g>
<rect x="44" y="41.3225" width="390" height="20" fill="#F5F5F5"/>
<rect x="44" y="146.351" width="390" height="20" fill="#F5F5F5"/>
<rect x="44" y="146.351" width="56.7113" height="20.0287" fill="#ACA9A9"/>
<rect x="377" y="146.351" width="56.7113" height="20.0287" fill="#ACA9A9"/>
<rect x="44" y="111.351" width="20" height="25" fill="#F5F5F5"/>
<rect x="85" y="111.351" width="20" height="25" fill="#F5F5F5"/>
<rect x="126" y="111.351" width="20" height="25" fill="#F5F5F5"/>
<rect x="167" y="111.351" width="20" height="25" fill="#F5F5F5"/>
<rect x="208" y="111.351" width="20" height="25" fill="#F5F5F5"/>
<rect x="249" y="111.351" width="20" height="25" fill="#F5F5F5"/>
<rect x="290" y="111.351" width="20" height="25" fill="#F5F5F5"/>
<rect x="331" y="111.351" width="20" height="25" fill="#F5F5F5"/>
<rect x="372" y="111.351" width="20" height="25" fill="#F5F5F5"/>
<rect x="413" y="111.351" width="20" height="25" fill="#F5F5F5"/>
<rect x="218" y="76.3225" width="41.2844" height="20.0287" fill="#F5F5F5"/>
<line x1="0.25" y1="-0.25" x2="45.6363" y2="-0.25" transform="matrix(0.899711 0.436485 -0.272898 0.962043 218 76.3225)" stroke="#ACA9A9" stroke-width="0.5" stroke-linecap="round"/>
<line x1="0.25" y1="-0.25" x2="45.6363" y2="-0.25" transform="matrix(0.899711 -0.436485 0.272898 0.962043 218 96.3513)" stroke="#ACA9A9" stroke-width="0.5" stroke-linecap="round"/>
<rect x="44" y="193.323" width="120" height="130" fill="#F5F5F5"/>
<rect x="179" y="193.323" width="120" height="130" fill="#F5F5F5"/>
<rect x="314" y="193.323" width="120" height="130" fill="#F5F5F5"/>
<rect x="44" y="338.323" width="120" height="130" fill="#FF1E1E"/>
<rect x="179" y="338.323" width="120" height="130" fill="#F5F5F5"/>
<rect x="314" y="338.323" width="120" height="130" fill="#F5F5F5"/>
<rect x="43" y="483.323" width="120" height="130" fill="#F5F5F5"/>
<rect x="178" y="483.323" width="120" height="130" fill="#F5F5F5"/>
<rect x="313" y="483.323" width="120" height="130" fill="#F5F5F5"/>
<rect x="43" y="628.323" width="391" height="130" fill="#F5F5F5"/>
<defs>
<filter id="filter0_d" x="0" y="0.32251" width="484" height="806" filterUnits="userSpaceOnUse" color-interpolation-filters="sRGB">
<feFlood flood-opacity="0" result="BackgroundImageFix"/>
<feColorMatrix in="SourceAlpha" type="matrix" values="0 0 0 0 0 0 0 0 0 0 0 0 0 0 0 0 0 0 127 0" result="hardAlpha"/>
<feOffset dx="3" dy="4"/>
<feGaussianBlur stdDeviation="8.5"/>
<feColorMatrix type="matrix" values="0 0 0 0 0.729167 0 0 0 0 0.729167 0 0 0 0 0.729167 0 0 0 0.25 0"/>
<feBlend mode="normal" in2="BackgroundImageFix" result="effect1_dropShadow"/>
<feBlend mode="normal" in="SourceGraphic" in2="effect1_dropShadow" result="shape"/>
</filter>
</defs>
</svg>
