<svg width="400" height="401" viewBox="0 0 400 401" fill="none" xmlns="http://www.w3.org/2000/svg">
<path d="M360.985 69.9729V122.517H285.505L282.785 70.3409L360.985 69.9729Z" fill="#E0E0E0"/>
<path d="M282.785 70.3328V122.405H358.265V70.3328H282.785Z" fill="white"/>
<path d="M358.614 122.765H282.398V69.9648H358.59L358.614 122.765ZM283.142 122.053H357.902V70.7248H283.142V122.053Z" fill="#E0E0E0"/>
<path d="M350.089 76.8047H290.961V115.941H350.089V76.8047Z" fill="white"/>
<path d="M350.087 76.8047H349.791H348.951H345.703L333.519 76.8527L290.959 76.9407L291.127 76.7647C291.127 88.7647 291.127 101.973 291.127 115.893L290.943 115.709H350.071L349.919 115.861C349.919 103.949 349.983 94.1887 349.999 87.3887C349.999 83.9887 349.999 81.3327 350.039 79.5167C350.039 78.6127 350.039 77.9167 350.039 77.4447C350.039 76.9727 350.039 76.7247 350.039 76.7247C350.039 76.7247 350.039 76.9567 350.039 77.4127C350.039 77.8687 350.039 78.5647 350.039 79.4527C350.039 81.2687 350.039 83.9087 350.079 87.2927C350.079 94.1167 350.119 103.909 350.151 115.861V116.005H350.007L290.879 116.045H290.695V115.861C290.695 101.941 290.695 88.6607 290.695 76.7327V76.5647H290.871L333.543 76.6447L345.687 76.6927H348.887H349.983L350.087 76.8047Z" fill="#E0E0E0"/>
<path d="M282.785 70.1887C283.247 70.4041 283.682 70.6726 284.081 70.9887C284.881 71.5487 285.905 72.3407 287.041 73.2447C288.177 74.1487 289.177 75.0127 289.881 75.6447C290.288 75.9641 290.651 76.3352 290.961 76.7487C289.524 75.7524 288.139 74.6844 286.809 73.5487C285.396 72.5173 284.052 71.3949 282.785 70.1887Z" fill="#E0E0E0"/>
<path d="M358.262 70.3408C357.01 71.5588 355.674 72.6869 354.262 73.7168C352.937 74.8436 351.533 75.8755 350.062 76.8048C351.313 75.5853 352.65 74.4571 354.062 73.4288C355.383 72.2949 356.787 71.2626 358.262 70.3408Z" fill="#E0E0E0"/>
<path d="M358.197 122.413L349.781 115.597L358.197 122.413Z" fill="white"/>
<path d="M349.781 115.597C351.295 116.587 352.741 117.677 354.109 118.861C355.549 119.953 356.915 121.14 358.197 122.413C356.681 121.426 355.235 120.336 353.869 119.149C352.427 118.06 351.061 116.873 349.781 115.597Z" fill="#E0E0E0"/>
<path d="M282.785 122.413C284.01 121.2 285.323 120.079 286.713 119.061C288.025 117.946 289.415 116.928 290.873 116.013C289.645 117.219 288.332 118.337 286.945 119.357C285.634 120.474 284.243 121.495 282.785 122.413Z" fill="#E0E0E0"/>
<path d="M302.969 88.9968V102.101H340.169V88.9968H302.969Z" fill="#E0E0E0"/>
<path d="M152.328 40.5168C152.328 40.5168 152.264 40.5168 152.144 40.4608L151.608 40.2528L149.592 39.4528L142.2 36.2528L117.872 25.6528L117.032 25.2848H117.208L93.3679 35.4768L86.1679 38.5008L84.1999 39.3008C83.9756 39.4038 83.7427 39.4868 83.5039 39.5488C83.7173 39.4241 83.9392 39.3145 84.1679 39.2208L86.0959 38.3408L93.2959 35.1408L117.08 24.8288L117.168 24.7888L117.256 24.8288L118.096 25.1968L142.368 35.9168L149.712 39.2128L151.696 40.1248L152.208 40.3728C152.251 40.418 152.291 40.4661 152.328 40.5168Z" fill="#E0E0E0"/>
<path d="M190.271 37.0288H34.0391V154.013H190.271V37.0288Z" fill="#E0E0E0"/>
<path d="M185.4 42.4688H39.5039V149.205H185.4V42.4688Z" fill="#FAFAFA"/>
<path d="M71.7266 89.1248C71.7266 89.1248 71.8786 107.045 72.7906 112.509L95.2626 111.445C95.2626 111.445 93.2866 93.8448 94.0466 89.1248H71.7266Z" fill="#E0E0E0"/>
<path d="M82.7902 91.6368C82.7902 91.6368 82.7902 91.6368 82.8782 91.6368H83.1182C83.431 91.6251 83.7443 91.6411 84.0542 91.6848C84.549 91.7588 85.0309 91.9015 85.4862 92.1088C86.0836 92.407 86.6122 92.8266 87.0382 93.3408C87.5557 93.9737 87.9247 94.7145 88.1182 95.5088C88.2906 96.4388 88.2077 97.3981 87.8782 98.2848C87.7092 98.764 87.4977 99.2272 87.2462 99.6688C86.9982 100.125 86.7422 100.573 86.5262 101.069C86.0772 102.088 85.7729 103.165 85.6222 104.269V104.341H85.5502L83.3342 104.381H81.0062H80.9262V104.325C80.8292 103.228 80.4608 102.172 79.8542 101.253C79.5822 100.797 79.2862 100.365 79.0062 99.9248C78.7262 99.4848 78.4382 99.1248 78.2062 98.6368C77.7913 97.7883 77.6676 96.8267 77.8542 95.9008C77.9822 95.1018 78.2765 94.3387 78.7182 93.6608C79.1024 93.1177 79.6024 92.6668 80.1822 92.3408C80.615 92.1036 81.0779 91.926 81.5582 91.8128C81.8604 91.738 82.1681 91.6872 82.4782 91.6608H82.7182C82.7742 91.6608 82.7982 91.6608 82.7982 91.6608H82.7182H82.4782C82.1731 91.6976 81.8709 91.7565 81.5742 91.8368C81.1012 91.9602 80.6465 92.1459 80.2222 92.3888C79.6606 92.7117 79.1792 93.1575 78.8142 93.6928C78.3979 94.3627 78.1255 95.1119 78.0142 95.8928C77.8397 96.7902 77.9633 97.7201 78.3662 98.5408C78.6114 98.9779 78.8784 99.4024 79.1662 99.8128C79.4382 100.237 79.7422 100.677 80.0142 101.141C80.6398 102.083 81.0193 103.166 81.1182 104.293L81.0382 104.205H83.3662H85.5822L85.5022 104.285C85.6595 103.167 85.9718 102.076 86.4302 101.045C86.6462 100.549 86.9102 100.077 87.1582 99.6288C87.4129 99.1983 87.622 98.7425 87.7822 98.2688C88.1083 97.392 88.1831 96.4417 87.9982 95.5248C87.8174 94.7497 87.4647 94.0252 86.9662 93.4048C86.5545 92.8976 86.0425 92.4808 85.4622 92.1808C85.0186 91.9688 84.5473 91.8207 84.0622 91.7408C83.755 91.6937 83.445 91.667 83.1342 91.6608H82.8062L82.7902 91.6368Z" fill="white"/>
<path d="M83.9507 104.117C83.949 104.093 83.949 104.069 83.9507 104.045V103.837C83.9507 103.653 83.8787 103.381 83.8227 103.037C83.7267 102.341 83.5747 101.325 83.4707 100.069C83.4707 99.7568 83.4707 99.4288 83.4147 99.0848C83.3587 98.7408 83.4147 98.3808 83.4147 98.0048C83.426 97.6184 83.513 97.2379 83.6707 96.8848C83.8377 96.5017 84.1435 96.1959 84.5267 96.0288C84.7309 95.943 84.9559 95.9193 85.1736 95.9605C85.3913 96.0018 85.592 96.1062 85.7507 96.2608C85.8331 96.341 85.8989 96.4367 85.9442 96.5425C85.9895 96.6482 86.0135 96.7618 86.0147 96.8768C86.0072 97.1094 85.926 97.3335 85.7827 97.5168C85.6415 97.7072 85.4543 97.8586 85.2387 97.9568C85.0277 98.0574 84.8044 98.13 84.5747 98.1728C84.109 98.273 83.6349 98.3293 83.1587 98.3408C82.6801 98.3572 82.2011 98.3331 81.7267 98.2688C81.4945 98.238 81.2681 98.1733 81.0547 98.0768C80.8409 97.982 80.648 97.8461 80.4867 97.6768C80.3259 97.5096 80.2127 97.3025 80.1587 97.0768C80.1121 96.8501 80.1401 96.6143 80.2387 96.4048C80.3333 96.1991 80.5018 96.0363 80.7107 95.9488C80.9156 95.8644 81.1457 95.8644 81.3507 95.9488C81.5446 96.039 81.7104 96.18 81.8307 96.3568C81.943 96.527 82.0217 96.7171 82.0627 96.9168C82.1374 97.2937 82.1775 97.6766 82.1827 98.0608C82.1827 98.7968 82.2547 99.4848 82.2867 100.117C82.3507 101.373 82.3987 102.389 82.4387 103.101C82.4387 103.445 82.4387 103.717 82.4387 103.901V104.109C82.4404 104.133 82.4404 104.157 82.4387 104.181C82.4352 104.157 82.4352 104.133 82.4387 104.109C82.4387 104.061 82.4387 103.989 82.4387 103.901C82.4387 103.813 82.4387 103.445 82.3827 103.101C82.3827 102.397 82.2867 101.373 82.2147 100.117C82.2147 99.4928 82.1427 98.8048 82.0947 98.0608C82.0883 97.6798 82.0509 97.2998 81.9827 96.9248C81.9372 96.734 81.8587 96.5526 81.7507 96.3888C81.6349 96.2262 81.4811 96.0944 81.3027 96.0048C81.1126 95.9291 80.9007 95.9291 80.7107 96.0048C80.5167 96.0841 80.3616 96.2364 80.2787 96.4288C80.1801 96.6212 80.1519 96.8419 80.1987 97.0528C80.2508 97.2663 80.3585 97.4623 80.5107 97.6208C80.8385 97.9412 81.2634 98.1437 81.7187 98.1968C82.6565 98.3142 83.607 98.2818 84.5347 98.1008C84.7615 98.0568 84.982 97.9842 85.1907 97.8848C85.3911 97.7874 85.5663 97.6451 85.7027 97.4688C85.8382 97.2978 85.9141 97.0871 85.9187 96.8688C85.9211 96.7626 85.9009 96.657 85.8596 96.5591C85.8182 96.4612 85.7565 96.3732 85.6787 96.3008C85.5287 96.1564 85.3401 96.0585 85.1357 96.0187C84.9314 95.979 84.7198 95.9992 84.5267 96.0768C84.1743 96.2413 83.8911 96.5245 83.7267 96.8768C83.572 97.2252 83.4851 97.5999 83.4707 97.9808C83.4707 98.3488 83.4707 98.7088 83.4707 99.0448C83.4707 99.3808 83.4707 99.7168 83.5187 100.037C83.6147 101.293 83.7587 102.301 83.8547 102.997C83.8547 103.349 83.9347 103.613 83.9587 103.797V104.005C83.9475 104.041 83.9447 104.079 83.9507 104.117Z" fill="white"/>
<path d="M80.9922 104.237C80.9922 104.237 80.9922 104.517 81.0482 104.981C81.1042 105.445 81.1122 106.173 81.1522 106.925V106.877L82.6642 108.621H82.5922L84.3362 108.525H84.2642L85.1362 107.461L85.5682 106.925V106.997C85.5682 105.973 85.5202 104.997 85.4962 104.117L85.5922 104.205H82.3282H81.0322C81.1359 104.195 81.2404 104.195 81.3442 104.205L82.2642 104.157L85.5922 104.029H85.6802V104.125C85.6802 105.013 85.7362 105.981 85.7602 107.005L85.3282 107.533L84.4562 108.597L82.7042 108.685H82.6562L81.1762 106.917C81.1762 106.117 81.1762 105.477 81.1762 104.917C81.0967 104.695 81.0352 104.468 80.9922 104.237Z" fill="white"/>
<path d="M85.5014 106.765L85.3334 106.693C85.1851 106.625 85.0328 106.566 84.8774 106.517C84.3639 106.337 83.8211 106.255 83.2774 106.277C82.7412 106.293 82.2125 106.407 81.7174 106.613C81.5666 106.673 81.4197 106.743 81.2774 106.821L81.1094 106.901C81.1527 106.857 81.2044 106.821 81.2614 106.797C81.4003 106.71 81.5446 106.633 81.6934 106.565C82.1986 106.343 82.7419 106.221 83.2934 106.205C83.8384 106.193 84.3809 106.283 84.8934 106.469C85.047 106.526 85.1966 106.592 85.3414 106.669C85.3976 106.696 85.4511 106.728 85.5014 106.765Z" fill="white"/>
<path d="M85.5047 106.069L85.3367 105.997C85.2327 105.949 85.0807 105.885 84.8807 105.813C83.8589 105.46 82.7431 105.494 81.7447 105.909C81.5527 105.989 81.4007 106.061 81.2967 106.117C81.1927 106.173 81.1447 106.205 81.1367 106.197L81.2887 106.093C81.4271 106.008 81.5715 105.933 81.7207 105.869C82.2247 105.643 82.7687 105.521 83.3207 105.509C83.8665 105.487 84.411 105.577 84.9207 105.773C85.0774 105.828 85.2298 105.895 85.3767 105.973C85.4225 106.001 85.4654 106.033 85.5047 106.069Z" fill="white"/>
<path d="M85.4632 105.397C85.4632 105.397 85.3993 105.397 85.2952 105.333C85.1912 105.269 85.0393 105.221 84.8393 105.149C84.3246 104.974 83.7827 104.892 83.2393 104.909C82.6895 104.919 82.1466 105.033 81.6393 105.245C81.4473 105.325 81.2952 105.397 81.1912 105.453C81.1424 105.488 81.0884 105.515 81.0312 105.533L81.1833 105.429C81.3199 105.341 81.4645 105.266 81.6152 105.205C82.1195 104.979 82.663 104.854 83.2152 104.837C83.7604 104.824 84.3031 104.914 84.8152 105.101C84.9692 105.16 85.1189 105.229 85.2632 105.309L85.4632 105.397Z" fill="white"/>
<path d="M46.6953 59.8047C46.6953 59.8047 46.8473 77.7247 47.7593 83.1887L70.2313 82.1327C70.2313 82.1327 68.2553 64.5327 69.0153 59.8047H46.6953Z" fill="#EBEBEB"/>
<path d="M65.5995 67.3329C63.1054 67.7032 60.5918 67.9276 58.0715 68.0049C55.561 68.2317 53.0394 68.3119 50.5195 68.2449C53.0132 67.8693 55.5269 67.6423 58.0475 67.5649C60.5583 67.3428 63.0798 67.2654 65.5995 67.3329Z" fill="white"/>
<path d="M65.6386 71.1329C63.1439 71.4979 60.6305 71.7223 58.1106 71.8049C55.5998 72.0269 53.0783 72.1044 50.5586 72.0369C53.0527 71.6666 55.5663 71.4423 58.0866 71.3649C60.5971 71.138 63.1189 71.0605 65.6386 71.1329Z" fill="white"/>
<path d="M61.8147 74.8529C60.4086 75.1613 58.9741 75.3222 57.5347 75.3329C56.101 75.4786 54.6563 75.4786 53.2227 75.3329C54.6322 75.0289 56.0688 74.8681 57.5107 74.8529C58.9416 74.7072 60.3837 74.7072 61.8147 74.8529Z" fill="white"/>
<path d="M45.5977 112.525C45.5977 112.525 45.7497 130.437 46.6617 135.909L69.1337 134.845C69.1337 134.845 67.1577 117.245 67.9177 112.525H45.5977Z" fill="#EBEBEB"/>
<path d="M64.5683 120.053C62.0736 120.418 59.5603 120.643 57.0403 120.725C54.5295 120.947 52.008 121.024 49.4883 120.957C51.9824 120.587 54.496 120.362 57.0163 120.285C59.5265 120.053 62.0486 119.976 64.5683 120.053Z" fill="white"/>
<path d="M64.5761 123.845C62.0819 124.215 59.5683 124.439 57.0481 124.517C54.5376 124.744 52.0158 124.821 49.4961 124.749C51.9902 124.379 54.5038 124.154 57.0241 124.077C59.5349 123.855 62.0564 123.777 64.5761 123.845Z" fill="white"/>
<path d="M60.7522 127.573C59.3453 127.876 57.9113 128.037 56.4722 128.053C55.0384 128.196 53.5939 128.196 52.1602 128.053C53.5696 127.749 55.0064 127.591 56.4482 127.581C57.8789 127.433 59.3209 127.43 60.7522 127.573Z" fill="white"/>
<path d="M107.047 64.5569L109.271 116.237L173.791 117.013L170.895 65.2369L107.047 64.5569Z" fill="#EBEBEB"/>
<path d="M170.393 64.1887H106.305V112.581H170.393V64.1887Z" fill="#F5F5F5"/>
<path d="M170.4 112.581C170.4 112.581 170.4 112.269 170.4 111.677C170.4 111.085 170.4 110.221 170.4 109.101C170.4 106.829 170.4 103.501 170.36 99.3088C170.36 90.8688 170.304 78.7968 170.264 64.1888L170.44 64.3648H106.36L106.576 64.1488C106.576 81.5488 106.576 98.0288 106.576 112.541L106.376 112.341L152.6 112.437L165.744 112.493H169.24H170.144H170.456H170.168H169.288H165.832L152.728 112.541L106.376 112.637H106.176V112.437C106.176 97.9248 106.176 81.4448 106.176 64.0448V63.8208H106.4H170.48H170.664V64.0048C170.624 78.6608 170.592 90.7728 170.568 99.2048C170.568 103.405 170.568 106.693 170.52 108.957C170.52 110.061 170.52 110.909 170.52 111.501C170.52 112.093 170.4 112.581 170.4 112.581Z" fill="#E0E0E0"/>
<path d="M140.007 74.4368H114.031V107.133H140.007V74.4368Z" fill="#F5F5F5"/>
<path d="M139.998 107.133C139.994 107.077 139.994 107.021 139.998 106.965V106.501C139.998 106.069 139.998 105.477 139.998 104.717C139.998 103.117 139.998 100.869 139.942 98.0048C139.942 92.2528 139.886 84.1088 139.846 74.4368L140.038 74.6368H114.062C114.014 74.6848 114.478 74.2208 114.286 74.4208V76.6608C114.286 77.4128 114.286 78.1568 114.286 78.9008V83.3088C114.286 86.2128 114.286 89.0448 114.286 91.7888C114.286 97.2848 114.286 102.429 114.286 107.101L114.102 106.917L132.91 107.013L138.19 107.061H139.59C139.91 107.061 140.078 107.061 140.078 107.061C139.929 107.072 139.779 107.072 139.63 107.061H138.262L133.03 107.109L114.102 107.205H113.918V107.021C113.918 102.349 113.918 97.2048 113.918 91.7088C113.918 88.9648 113.918 86.1088 113.918 83.2288V74.4528L114.142 74.2288H140.118H140.318V74.4208C140.318 84.1488 140.246 92.3328 140.222 98.1168C140.222 100.965 140.222 103.213 140.166 104.781C140.166 105.527 140.166 106.111 140.166 106.533C140.166 106.709 140.166 106.861 140.166 106.973C140.166 107.085 139.998 107.141 139.998 107.133Z" fill="#E0E0E0"/>
<path d="M164.807 66.9568H115.023V71.6688H164.807V66.9568Z" fill="#F5F5F5"/>
<path d="M164.801 71.6688C164.789 71.5625 164.789 71.4552 164.801 71.3488C164.801 71.1168 164.801 70.8128 164.801 70.4288C164.801 69.6288 164.801 68.4528 164.753 66.9568L164.841 67.0448C156.441 67.1248 137.305 67.1808 115.057 67.1808L115.281 66.9568V71.6528L115.057 71.4288L150.321 71.5248L160.913 71.5888H163.793H164.545H164.817H164.577H163.849H161.017L150.481 71.6528L115.025 71.7408H114.809V66.9728L115.025 66.7568C137.273 66.7568 156.409 66.8048 164.809 66.8848H164.897V66.9728C164.897 68.4928 164.881 69.6688 164.849 70.5008C164.849 70.8768 164.849 71.1648 164.849 71.3968C164.849 71.6288 164.801 71.6768 164.801 71.6688Z" fill="#E0E0E0"/>
<path d="M164.815 74.4368H143.191V94.1408H164.815V74.4368Z" fill="#F5F5F5"/>
<path d="M164.8 94.1407C164.79 94.0155 164.79 93.8899 164.8 93.7647V92.6927C164.8 91.7327 164.8 90.3807 164.752 88.6927C164.752 85.2287 164.696 80.3327 164.656 74.4527L164.848 74.6447H143.248L143.464 74.4287V84.8287C143.464 88.1327 143.464 91.2287 143.464 94.1567L143.2 93.9247L158.8 94.0207L163.224 94.0767H164.4H164.824C164.699 94.0882 164.573 94.0882 164.448 94.0767H163.304L158.92 94.1247L143.2 94.2287H143.008V94.0287C143.008 91.1407 143.008 88.0047 143.008 84.7007V79.7327C143.008 78.8687 143.008 77.9887 143.008 77.1087V74.4447L143.232 74.2207H164.832H165.016V74.4047C164.976 80.3327 164.944 85.2687 164.92 88.8047C164.92 90.4847 164.92 91.8207 164.872 92.8047C164.872 93.2314 164.872 93.5754 164.872 93.8367C164.859 93.9404 164.835 94.0424 164.8 94.1407Z" fill="#E0E0E0"/>
<path d="M164.815 97.2288H143.191V107.133H164.815V97.2288Z" fill="#F5F5F5"/>
<path d="M164.798 107.133C164.78 106.893 164.78 106.652 164.798 106.413V104.429C164.798 102.677 164.742 100.237 164.71 97.2288L164.87 97.3888L143.27 97.4528C143.07 97.6528 143.534 97.1808 143.486 97.2368V102.317C143.486 103.973 143.486 105.581 143.486 107.117L143.278 106.909L158.742 107.005L163.246 107.069H164.462H164.902C164.771 107.08 164.64 107.08 164.51 107.069H163.342L158.878 107.125L143.278 107.221H143.07V107.013C143.07 105.477 143.07 103.869 143.07 102.213C143.07 101.413 143.07 100.549 143.07 99.6928V97.1328C143.022 97.1328 143.494 96.7088 143.294 96.9088L164.894 96.9648H165.054V97.1168C165.014 100.165 164.99 102.645 164.966 104.413C164.966 105.213 164.966 105.877 164.926 106.365C164.904 106.624 164.861 106.881 164.798 107.133Z" fill="#E0E0E0"/>
<path d="M139.367 74.4929C131.327 85.6049 122.071 96.0289 114.031 107.133L139.367 74.4929Z" fill="white"/>
<path d="M114.031 107.133C114.084 107.002 114.157 106.881 114.247 106.773L114.919 105.773C115.519 104.909 116.407 103.685 117.519 102.189C119.759 99.1808 122.951 95.1168 126.527 90.6768C130.103 86.2368 133.335 82.2048 135.631 79.2528L138.335 75.7568L139.079 74.8048C139.255 74.5968 139.351 74.4848 139.367 74.4928C139.314 74.6253 139.241 74.7493 139.151 74.8608C138.967 75.1328 138.751 75.4608 138.479 75.8528C137.879 76.7168 136.991 77.9408 135.879 79.4448C133.647 82.4448 130.447 86.5088 126.871 90.9568C123.295 95.4048 120.063 99.4208 117.767 102.373L115.063 105.877C114.759 106.253 114.519 106.565 114.319 106.821C114.119 107.077 114.047 107.141 114.031 107.133Z" fill="#E0E0E0"/>
<path d="M140.001 107.133C139.905 107.213 134.017 99.9329 126.841 90.9249C119.665 81.9169 113.929 74.5169 114.041 74.4369C114.153 74.3569 120.025 81.6369 127.201 90.6529C134.377 99.6689 140.105 107.061 140.001 107.133Z" fill="#E0E0E0"/>
<path d="M109.273 74.5088C109.273 75.3126 109.034 76.0983 108.588 76.7667C108.141 77.435 107.506 77.9559 106.764 78.2635C106.021 78.5711 105.204 78.6515 104.416 78.4947C103.627 78.3379 102.903 77.9509 102.335 77.3825C101.766 76.8141 101.379 76.09 101.223 75.3017C101.066 74.5133 101.146 73.6962 101.454 72.9536C101.761 72.211 102.282 71.5763 102.951 71.1297C103.619 70.6832 104.405 70.4448 105.209 70.4448C106.286 70.4448 107.32 70.873 108.082 71.6351C108.844 72.3973 109.273 73.431 109.273 74.5088Z" fill="#E0E0E0"/>
<path d="M175.741 64.6448C175.741 65.4486 175.503 66.2343 175.056 66.9027C174.61 67.571 173.975 68.0919 173.233 68.3995C172.49 68.7071 171.673 68.7875 170.884 68.6307C170.096 68.4739 169.372 68.0869 168.804 67.5185C168.235 66.9501 167.848 66.226 167.691 65.4377C167.535 64.6493 167.615 63.8322 167.923 63.0896C168.23 62.347 168.751 61.7123 169.419 61.2657C170.088 60.8192 170.874 60.5808 171.677 60.5808C172.755 60.5808 173.789 61.009 174.551 61.7711C175.313 62.5333 175.741 63.567 175.741 64.6448Z" fill="#E0E0E0"/>
<path d="M293.681 346.453V364.669H290.641V366.653H293.681V378.845H350.537V367.749H346.329V365.349H350.537V361.725H352.409V360.077H350.185V346.477L293.681 346.453Z" fill="#F5F5F5"/>
<path d="M335.438 346.509V378.637H350.534V367.541H346.326V365.333L350.534 365.405V361.781H352.445L352.406 359.909L350.182 359.853V346.453L335.438 346.509Z" fill="#E0E0E0"/>
<path d="M336.511 366.389C336.511 366.501 326.223 366.589 313.535 366.589C300.847 366.589 290.559 366.501 290.559 366.389C290.559 366.277 300.847 366.189 313.535 366.189C326.223 366.189 336.511 366.277 336.511 366.389Z" fill="#E0E0E0"/>
<path d="M336.511 364.541C336.511 364.653 326.223 364.741 313.535 364.741C300.847 364.741 290.559 364.653 290.559 364.541C290.559 364.429 300.847 364.333 313.535 364.333C326.223 364.333 336.511 364.429 336.511 364.541Z" fill="#E0E0E0"/>
<path d="M339.464 359.525C339.464 359.637 329.176 359.725 316.488 359.725C303.8 359.725 293.512 359.637 293.512 359.525C293.512 359.413 303.8 359.325 316.488 359.325C329.176 359.325 339.464 359.445 339.464 359.525Z" fill="#E0E0E0"/>
<path d="M339.749 373.125C339.749 373.237 329.461 373.333 316.773 373.333C304.085 373.333 293.789 373.237 293.789 373.125C293.789 373.013 304.077 372.925 316.773 372.925C329.469 372.925 339.749 373.021 339.749 373.125Z" fill="#E0E0E0"/>
<path d="M122.016 288.653H165.392C166.856 288.653 168.26 288.071 169.295 287.036C170.33 286.001 170.912 284.597 170.912 283.133V269.765C170.912 268.542 170.671 267.331 170.203 266.201C169.735 265.072 169.049 264.045 168.184 263.18C167.319 262.316 166.293 261.63 165.163 261.162C164.033 260.694 162.822 260.453 161.6 260.453H121.688L122.016 288.653Z" fill="#EBEBEB"/>
<path d="M164.663 297.061H79.3752C78.2661 297.052 77.2052 296.606 76.4232 295.82C75.6412 295.033 75.2013 293.97 75.1992 292.861C75.2013 291.745 75.6454 290.676 76.4341 289.888C77.2227 289.099 78.2918 288.655 79.4072 288.653H164.663C165.778 288.655 166.846 289.099 167.634 289.888C168.421 290.677 168.863 291.746 168.863 292.861C168.863 293.975 168.421 295.043 167.633 295.831C166.845 296.618 165.777 297.061 164.663 297.061Z" fill="#EBEBEB"/>
<path d="M61.9903 176.677L108.91 175.877L138.694 288.445L75.1983 289.045L51.1983 190.373C50.8 188.74 50.7786 187.039 51.1355 185.397C51.4924 183.755 52.2183 182.216 53.2582 180.896C54.2982 179.576 55.6248 178.51 57.1377 177.779C58.6506 177.048 60.31 176.671 61.9903 176.677Z" fill="#E0E0E0"/>
<path d="M85.3681 297.061L71.3281 378.645H75.1761L93.6321 297.061H85.3681Z" fill="#EBEBEB"/>
<path d="M118.463 297.061L103.543 378.645H107.391L126.727 297.061H118.463Z" fill="#E0E0E0"/>
<path d="M155.073 297.061L171.713 378.645H167.865L146.801 297.061H155.073Z" fill="#EBEBEB"/>
<path d="M103.543 175.845L126.743 288.533H144.551L125.951 188.965C125.269 185.28 123.319 181.951 120.438 179.555C117.558 177.158 113.93 175.846 110.183 175.845H103.543Z" fill="#EBEBEB"/>
<path d="M365.295 379.093C365.295 379.205 291.287 379.301 200.007 379.301C108.727 379.301 34.7031 379.205 34.7031 379.093C34.7031 378.981 108.695 378.885 200.007 378.885C291.319 378.885 365.295 378.973 365.295 379.093Z" fill="#263238"/>
<path d="M155.625 379.325H94.457L99.081 334.797L155.625 334.429V379.325Z" fill="#FF725E"/>
<g opacity="0.4">
<path opacity="0.4" d="M155.625 379.325H94.457L99.081 334.797L155.625 334.429V379.325Z" fill="black"/>
</g>
<path d="M164.547 334.429H103.379V379.317H164.547V334.429Z" fill="#FF725E"/>
<g opacity="0.2">
<path opacity="0.2" d="M164.547 334.429H103.379V379.317H164.547V334.429Z" fill="black"/>
</g>
<path d="M165.056 356.165C165.056 356.277 151.296 356.373 134.328 356.373C117.36 356.373 103.584 356.277 103.584 356.165C103.584 356.053 117.344 355.949 134.328 355.949C151.312 355.949 165.056 356.045 165.056 356.165Z" fill="#263238"/>
<path d="M114.274 360.485C113.997 358.251 113.997 355.991 114.274 353.757C114.552 355.991 114.552 358.251 114.274 360.485Z" fill="#263238"/>
<path d="M156.802 360.245C156.524 358.252 156.524 356.23 156.802 354.237C157.079 356.23 157.079 358.252 156.802 360.245Z" fill="#263238"/>
<path d="M143.33 334.661C143.33 334.661 143.33 334.173 143.186 333.333C142.972 332.142 142.509 331.011 141.826 330.013C140.817 328.531 139.419 327.357 137.786 326.621C135.772 325.735 133.583 325.321 131.386 325.413C129.175 325.431 126.993 325.919 124.986 326.845C123.36 327.604 121.954 328.763 120.897 330.213C120.189 331.192 119.681 332.301 119.402 333.477C119.21 334.317 119.202 334.797 119.162 334.797C119.149 334.68 119.149 334.562 119.162 334.445C119.163 334.109 119.195 333.774 119.258 333.445C119.482 332.223 119.965 331.064 120.674 330.045C121.728 328.521 123.162 327.3 124.833 326.501C126.872 325.534 129.097 325.021 131.354 324.997C133.613 324.903 135.863 325.342 137.922 326.277C139.603 327.058 141.031 328.298 142.042 329.853C142.726 330.891 143.161 332.074 143.314 333.309C143.343 333.641 143.343 333.976 143.314 334.309C143.339 334.424 143.344 334.543 143.33 334.661Z" fill="#263238"/>
<path d="M120.383 161.285C123.306 159.912 126.593 159.514 129.759 160.149C131.463 160.429 133.239 160.949 134.391 162.213C135.543 163.477 135.767 165.741 134.439 166.837C133.582 167.417 132.55 167.68 131.519 167.581C129.039 167.581 126.295 167.117 124.319 168.605C123.191 169.453 122.439 170.869 121.119 171.285C120.444 171.44 119.736 171.372 119.103 171.091C118.47 170.809 117.945 170.33 117.607 169.725C116.967 168.492 116.823 167.06 117.207 165.725C117.359 164.79 117.725 163.903 118.276 163.133C118.827 162.363 119.548 161.73 120.383 161.285Z" fill="#FF725E"/>
<path d="M113.859 148.669C115.603 151.165 118.987 150.341 120.563 148.821C122.139 147.301 122.795 145.093 123.403 142.997C124.779 138.197 126.171 133.157 125.147 128.269C124.898 126.788 124.248 125.405 123.267 124.269C122.769 123.71 122.133 123.291 121.423 123.055C120.712 122.819 119.952 122.774 119.219 122.925C117.507 123.373 116.443 125.045 115.675 126.645C113.414 131.346 112.231 136.492 112.211 141.709C112.211 144.109 112.483 146.677 113.859 148.677" fill="#FF725E"/>
<path d="M109.065 152.245C109.962 151.075 110.559 149.704 110.804 148.251C111.05 146.798 110.936 145.307 110.473 143.909C109.525 141.099 107.816 138.606 105.537 136.709C102.954 134.42 99.9479 132.659 96.6889 131.525C95.4216 131.007 94.056 130.775 92.6889 130.844C92.0098 130.883 91.3505 131.088 90.7689 131.441C90.1873 131.794 89.7011 132.284 89.353 132.868C88.417 134.644 89.3529 136.797 90.2729 138.549C91.9768 141.646 93.9215 144.604 96.0889 147.397C97.8249 149.645 99.8249 151.861 102.489 152.869C105.153 153.877 107.905 153.765 109.313 151.925" fill="#FF725E"/>
<path d="M113.737 186.245C113.826 185.872 113.879 185.491 113.897 185.109C113.977 184.309 114.073 183.253 114.193 182.021C114.348 180.5 114.581 178.989 114.889 177.493C115.292 175.669 115.843 173.882 116.537 172.149C117.212 170.414 118.131 168.784 119.265 167.309C120.189 166.106 121.37 165.125 122.721 164.437C123.627 163.984 124.599 163.676 125.601 163.525C125.981 163.511 126.359 163.457 126.729 163.365C126.346 163.323 125.96 163.323 125.577 163.365C124.53 163.453 123.507 163.724 122.553 164.165C121.13 164.836 119.881 165.827 118.905 167.061C117.723 168.556 116.771 170.22 116.081 171.997C115.392 173.758 114.857 175.575 114.481 177.429C114.188 178.946 113.988 180.479 113.881 182.021C113.785 183.333 113.745 184.421 113.729 185.125C113.692 185.497 113.695 185.873 113.737 186.245Z" fill="#263238"/>
<path d="M113.944 183.868C113.968 183.693 113.968 183.516 113.944 183.341V181.837C113.944 180.541 113.944 178.637 114.008 176.325C114.12 171.661 114.528 166.653 115.296 159.581C116.032 152.941 117.016 145.18 118.056 140.172C118.28 139.028 118.504 138.005 118.712 137.101C118.92 136.197 119.088 135.421 119.256 134.789C119.424 134.157 119.512 133.716 119.608 133.332C119.657 133.163 119.687 132.989 119.696 132.812C119.613 132.969 119.552 133.136 119.512 133.308L119.08 134.741C118.888 135.365 118.688 136.14 118.464 137.044C118.24 137.948 117.976 138.964 117.736 140.108C116.445 146.055 115.476 152.066 114.832 158.117C114.032 165.197 113.712 171.645 113.68 176.317C113.68 178.653 113.68 180.541 113.76 181.844C113.76 182.452 113.824 182.949 113.848 183.349C113.863 183.524 113.895 183.699 113.944 183.868Z" fill="#263238"/>
<path d="M113.977 171.429C114.022 170.896 114.022 170.361 113.977 169.829C113.921 168.821 113.777 167.365 113.497 165.581C113.153 163.492 112.691 161.425 112.113 159.389C111.438 156.883 110.571 154.433 109.521 152.061C107.727 147.685 105.152 143.673 101.921 140.221C101.361 139.627 100.762 139.071 100.129 138.557C99.8565 138.325 99.6165 138.093 99.3285 137.909L98.6325 137.429C98.2157 137.125 97.7742 136.858 97.3125 136.629C98.8359 137.82 100.282 139.108 101.641 140.485C104.766 143.967 107.274 147.958 109.057 152.285C110.084 154.645 110.952 157.072 111.657 159.549C112.252 161.565 112.743 163.61 113.129 165.677C113.457 167.445 113.641 168.877 113.753 169.885C113.789 170.404 113.864 170.92 113.977 171.429Z" fill="#263238"/>
<path d="M101.961 193.373L103.201 210.445H125.137L126.385 193.373H101.961Z" fill="#263238"/>
<path d="M129 186.637H99.8398V193.365H129V186.637Z" fill="#263238"/>
<path d="M99.8398 209.789V211.653H101.208H128.52V209.789H99.8398Z" fill="#455A64"/>
<path d="M102.555 214.941L101.211 211.653H127.475L125.907 214.941H102.555Z" fill="#455A64"/>
<path d="M125.976 198.949C125.976 198.949 125.976 199.005 125.872 199.109L125.544 199.541L124.272 201.141L124.208 201.221L124.16 201.141L121.016 196.797H121.2L118.104 201.173L118.008 201.317L117.904 201.181C116.76 199.829 115.504 198.357 114.24 196.821H114.448L114.248 197.077L110.968 201.181L110.856 201.317L110.76 201.173L107.664 196.805H107.848L104.04 201.141L103.968 201.221L103.92 201.133L102.728 199.125L102.424 198.597C102.384 198.537 102.351 198.473 102.328 198.405C102.376 198.456 102.419 198.513 102.456 198.573L102.792 199.085L104.048 201.053H103.928L107.672 196.661L107.768 196.549L107.856 196.669C108.8 197.989 109.848 199.461 110.976 201.021H110.76L114.032 196.901L114.232 196.653L114.336 196.517L114.448 196.645C115.728 198.181 116.96 199.661 118.104 201.021H117.896L121.016 196.661L121.112 196.533L121.2 196.661L124.272 201.053H124.16C124.72 200.389 125.168 199.853 125.488 199.453L125.848 199.045C125.887 199.008 125.93 198.975 125.976 198.949Z" fill="#E0E0E0"/>
<path d="M126.689 193.261C126.689 193.333 121.193 193.397 114.417 193.397C107.641 193.397 102.137 193.333 102.137 193.261C102.137 193.189 107.633 193.125 114.401 193.125C121.169 193.125 126.689 193.181 126.689 193.261Z" fill="#455A64"/>
<path d="M127.801 211.837C127.801 211.917 121.825 211.973 114.457 211.973C107.089 211.973 101.121 211.917 101.121 211.837C101.121 211.757 107.089 211.701 114.457 211.701C121.825 211.701 127.801 211.765 127.801 211.837Z" fill="#263238"/>
<path d="M241.28 215.317H305.504V212.197H241.28V215.317Z" fill="#263238"/>
<path d="M315.457 215.317L327.505 170.181H277.353L266.449 215.317H315.457Z" fill="#263238"/>
<path d="M269.457 211.901H314.249L324.681 172.269H279.649L269.457 211.901Z" fill="#455A64"/>
<path d="M314.561 212.325H268.961L279.361 171.885H325.217L314.561 212.325ZM269.969 211.525H313.969L324.185 172.685H280.001L269.969 211.525Z" fill="#263238"/>
<path d="M112.162 224.085H108.922V378.933H112.162V224.085Z" fill="#455A64"/>
<path d="M115.408 224.525H112.168V378.925H115.408V224.525Z" fill="#263238"/>
<path d="M311.974 224.085H308.734V378.933H311.974V224.085Z" fill="#455A64"/>
<path d="M315.217 224.525H311.977V378.925H315.217V224.525Z" fill="#263238"/>
<path d="M360.472 215.085H71.3281V227.789H360.472V215.085Z" fill="#455A64"/>
<path d="M310.358 227.789H201.902V248.813H310.358V227.789Z" fill="#455A64"/>
<path d="M260.968 236.845C260.968 237.319 260.827 237.783 260.563 238.178C260.3 238.573 259.925 238.88 259.486 239.062C259.048 239.244 258.565 239.291 258.1 239.198C257.634 239.106 257.207 238.877 256.871 238.542C256.535 238.206 256.307 237.778 256.214 237.313C256.121 236.847 256.169 236.365 256.351 235.926C256.532 235.488 256.84 235.113 257.235 234.849C257.629 234.585 258.093 234.445 258.568 234.445C259.204 234.445 259.815 234.697 260.265 235.148C260.715 235.598 260.968 236.208 260.968 236.845Z" fill="#263238"/>
<path d="M333.985 227.789C333.985 227.901 296.385 227.997 250.065 227.997C203.745 227.997 166.145 227.901 166.145 227.789C166.145 227.677 203.745 227.581 250.065 227.581C296.385 227.581 333.985 227.677 333.985 227.789Z" fill="#263238"/>
<path d="M233.906 78.3406C234.338 78.3406 240.186 79.3166 240.186 79.3166L248.098 89.2846L249.29 91.1726L238.618 97.9966L233.906 91.0206L229.906 88.4206C230.502 87.9657 231.211 87.6839 231.956 87.6063C232.702 87.5287 233.454 87.6582 234.13 87.9806C235.707 88.6436 237.404 88.9758 239.114 88.9566L237.706 84.9566L233.37 84.0926L233.906 78.3406Z" fill="#EB996E"/>
<path d="M234.403 71.3646C234.569 71.3212 234.742 71.3131 234.912 71.3409C235.081 71.3688 235.242 71.4319 235.386 71.5262C235.529 71.6204 235.651 71.7438 235.744 71.8883C235.836 72.0327 235.897 72.195 235.923 72.3646C236.571 76.4526 238.531 88.7566 239.123 92.3646C239.173 92.6519 239.114 92.9474 238.957 93.1931C238.8 93.4389 238.557 93.617 238.275 93.6926L228.859 96.3246C228.697 96.3709 228.526 96.3815 228.359 96.3555C228.192 96.3295 228.033 96.2676 227.892 96.174C227.751 96.0805 227.633 95.9575 227.544 95.8136C227.456 95.6697 227.399 95.5083 227.379 95.3406L224.803 74.9166C224.765 74.6177 224.837 74.3151 225.006 74.0659C225.176 73.8168 225.431 73.6384 225.723 73.5646L234.403 71.3646Z" fill="#263238"/>
<path d="M228.082 93.8046L237.682 91.1246L235.138 74.1326C235.105 73.9037 235.023 73.6846 234.898 73.4896C234.774 73.2947 234.609 73.1282 234.416 73.0013C234.222 72.8744 234.004 72.7898 233.776 72.7531C233.547 72.7165 233.314 72.7286 233.09 72.7886L225.402 74.8286L228.082 93.8046Z" fill="#EBEBEB"/>
<path d="M237.48 81.3726L233.168 84.5726C233.168 84.5726 233.528 85.7086 234.184 85.7886C235.581 85.6059 236.962 85.3116 238.312 84.9086L237.48 81.3726Z" fill="#EB996E"/>
<path d="M236.96 78.7886L232.44 80.7726C232.44 80.7726 232.152 82.2446 233.84 82.0366L232.328 83.1246C232.328 83.1246 232.704 83.7806 234.592 83.8606C236.48 83.9406 238.312 81.3166 238.312 81.3166L236.96 78.7886Z" fill="#EB996E"/>
<path d="M241.45 83.8206C241.45 83.8766 240.898 83.7726 240.298 83.2126C239.968 82.9032 239.621 82.6121 239.258 82.3406C239.055 82.1908 238.816 82.096 238.565 82.0651C238.314 82.0343 238.06 82.0686 237.826 82.1646C236.571 82.8872 235.261 83.5079 233.906 84.0206C235.076 83.1318 236.343 82.3777 237.682 81.7726C237.989 81.6478 238.323 81.6091 238.65 81.6606C238.939 81.7285 239.211 81.8537 239.45 82.0286C239.825 82.3173 240.168 82.6444 240.474 83.0046C240.78 83.2989 241.106 83.5716 241.45 83.8206Z" fill="#D1734A"/>
<path d="M240.563 95.0847C239.789 94.1489 239.307 93.0054 239.179 91.7973C239.051 90.5892 239.282 89.3702 239.843 88.2927C239.624 89.4309 239.541 90.591 239.595 91.7487C239.783 92.8954 240.108 94.0154 240.563 95.0847Z" fill="#D1734A"/>
<path d="M240.002 80.7807C239.946 80.8287 239.706 80.4847 239.13 80.3007C238.359 80.0856 237.535 80.1803 236.834 80.5647C235.986 80.9727 235.234 81.4927 234.634 81.7407C234.034 81.9887 233.61 82.0447 233.602 81.9967C233.594 81.9487 233.954 81.8047 234.498 81.4767C235.042 81.1487 235.746 80.6207 236.666 80.1887C237.1 79.9714 237.573 79.8435 238.058 79.8127C238.461 79.789 238.865 79.8631 239.234 80.0287C239.834 80.3247 240.002 80.7647 240.002 80.7807Z" fill="#D1734A"/>
<path d="M239.625 109.125L263.137 124.221L256.905 142.045C256.905 142.045 240.817 137.077 241.113 136.557C241.409 136.037 239.625 109.125 239.625 109.125Z" fill="#FF725E"/>
<path d="M233.546 350.389L229.842 367.421C229.842 367.421 245.914 376.901 245.538 380.109L212.258 374.125L216.93 347.349L233.546 350.389Z" fill="#263238"/>
<path d="M212.258 374.125L212.834 371.445L244.53 378.189C244.53 378.189 245.89 379.101 245.538 380.109L212.258 374.125Z" fill="#455A64"/>
<path d="M195.689 352.261L195.137 369.677C195.137 369.677 212.665 376.077 212.873 379.317L179.057 379.469L178.801 352.269L195.689 352.261Z" fill="#263238"/>
<g opacity="0.6">
<path opacity="0.6" d="M179.059 379.469L179.139 376.725L211.531 377.613C211.531 377.613 213.043 378.261 212.875 379.317L179.059 379.469Z" fill="#455A64"/>
</g>
<path d="M200.595 66.6128L204.043 106.613L224.042 105.013C224.162 102.677 223.994 93.6368 223.994 93.6368C223.994 93.6368 232.323 92.3408 232.427 84.0368C232.475 79.9888 231.898 71.6368 231.29 64.1088C230.977 60.0901 229.101 56.3544 226.065 53.7028C223.029 51.0512 219.075 49.6949 215.051 49.9248C212.996 50.0445 210.986 50.5746 209.14 51.4838C207.294 52.3929 205.648 53.6627 204.301 55.2182C202.954 56.7737 201.931 58.5834 201.295 60.5404C200.658 62.4975 200.42 64.5622 200.595 66.6128Z" fill="#EB996E"/>
<path d="M224.001 93.4847C220.156 93.5545 216.377 92.4797 213.145 90.3967C213.145 90.3967 215.713 96.3887 224.017 95.6367L224.001 93.4847Z" fill="#D1734A"/>
<path d="M228.083 69.9247C228.085 70.2354 227.966 70.5347 227.751 70.7588C227.536 70.983 227.242 71.1143 226.931 71.1247C226.78 71.1366 226.628 71.1182 226.484 71.0705C226.34 71.0228 226.207 70.9467 226.093 70.8468C225.979 70.7469 225.886 70.6252 225.82 70.4888C225.753 70.3524 225.715 70.2041 225.707 70.0527C225.705 69.7433 225.823 69.4451 226.036 69.2212C226.25 68.9973 226.542 68.8651 226.851 68.8527C227.003 68.8407 227.155 68.8591 227.299 68.9067C227.444 68.9543 227.577 69.0303 227.692 69.1301C227.807 69.2299 227.9 69.3516 227.968 69.488C228.035 69.6244 228.074 69.7729 228.083 69.9247Z" fill="#263238"/>
<path d="M229.521 68.2446C229.377 68.4046 228.473 67.7326 227.193 67.7406C225.913 67.7486 224.977 68.3806 224.841 68.2286C224.705 68.0766 224.921 67.8766 225.329 67.5806C225.884 67.1979 226.543 66.9941 227.217 66.9966C227.884 66.9942 228.534 67.2044 229.073 67.5966C229.465 67.8926 229.601 68.1806 229.521 68.2446Z" fill="#263238"/>
<path d="M215.794 69.9246C215.798 70.2345 215.681 70.5338 215.467 70.7582C215.253 70.9826 214.96 71.1141 214.65 71.1246C214.498 71.1365 214.346 71.1182 214.202 71.0705C214.057 71.0229 213.924 70.947 213.809 70.8471C213.694 70.7473 213.601 70.6256 213.533 70.4892C213.466 70.3528 213.427 70.2043 213.418 70.0526C213.418 69.7424 213.538 69.4443 213.752 69.2206C213.967 68.9968 214.26 68.865 214.57 68.8526C214.721 68.8417 214.873 68.8609 215.016 68.909C215.159 68.9572 215.292 69.0333 215.406 69.133C215.52 69.2327 215.613 69.354 215.679 69.4899C215.746 69.6258 215.785 69.7735 215.794 69.9246Z" fill="#263238"/>
<path d="M216.947 68.4846C216.803 68.6366 215.899 67.9726 214.619 67.9806C213.339 67.9886 212.403 68.6206 212.267 68.4606C212.131 68.3006 212.347 68.1166 212.755 67.8206C213.307 67.4317 213.968 67.2272 214.643 67.2366C215.31 67.2314 215.961 67.4419 216.499 67.8366C216.891 68.1326 217.019 68.4126 216.947 68.4846Z" fill="#263238"/>
<path d="M221.602 77.9725C222.277 77.7618 222.976 77.6355 223.682 77.5965C224.002 77.5965 224.314 77.5005 224.37 77.2765C224.396 76.9395 224.321 76.6025 224.154 76.3085C223.842 75.5085 223.522 74.7085 223.186 73.8205C221.842 70.2765 220.874 67.3645 221.018 67.3165C221.162 67.2685 222.362 70.0925 223.706 73.6285C224.026 74.5085 224.338 75.3405 224.626 76.1325C224.833 76.5283 224.895 76.9838 224.802 77.4205C224.755 77.5363 224.681 77.6392 224.586 77.7212C224.492 77.8032 224.379 77.8619 224.258 77.8925C224.078 77.9432 223.893 77.9701 223.706 77.9725C223.008 78.0639 222.3 78.0639 221.602 77.9725Z" fill="#263238"/>
<path d="M217.826 78.8607C218.034 78.8607 218.034 80.2367 219.226 81.2607C220.418 82.2847 221.89 82.0607 221.906 82.2927C221.922 82.5247 221.578 82.5567 220.946 82.5727C220.13 82.5776 219.34 82.2943 218.714 81.7727C218.093 81.2798 217.693 80.5604 217.602 79.7727C217.602 79.1967 217.73 78.8527 217.826 78.8607Z" fill="#263238"/>
<path d="M217.281 63.4685C217.153 63.8205 215.873 63.6525 214.369 63.8365C212.865 64.0205 211.657 64.4285 211.457 64.1165C211.369 63.9645 211.577 63.6365 212.073 63.3165C212.725 62.9013 213.464 62.6413 214.232 62.5567C215.001 62.4721 215.778 62.5651 216.505 62.8285C217.057 63.0285 217.329 63.3085 217.281 63.4685Z" fill="#263238"/>
<path d="M229.056 64.5407C228.832 64.8367 227.944 64.5407 226.888 64.5407C225.832 64.5407 224.928 64.7407 224.72 64.4367C224.632 64.2847 224.776 63.9967 225.168 63.7167C225.696 63.3887 226.308 63.2244 226.929 63.2443C227.55 63.2642 228.151 63.4676 228.656 63.8287C229.032 64.1007 229.152 64.4047 229.056 64.5407Z" fill="#263238"/>
<path d="M209.603 57.4846H209.555C208.239 58.5369 207.38 60.0553 207.155 61.7246V61.8926C206.827 64.2926 206.891 66.6926 206.539 69.0926C206.187 71.4926 205.371 73.8926 203.611 75.4926C202.891 76.1646 201.619 76.6286 201.027 75.8446C200.824 75.5186 200.721 75.1404 200.731 74.7566C200.283 69.0206 198.715 63.9326 198.731 57.9566C198.722 57.1532 198.906 56.3594 199.266 55.6413C199.626 54.9232 200.153 54.3017 200.803 53.8286C202.059 52.9326 203.587 51.9966 204.987 52.6606C206.387 53.3246 208.187 55.9326 209.267 57.0366" fill="#263238"/>
<path d="M203.4 70.3806C203.256 70.3166 197.68 68.6846 197.856 74.3806C198.032 80.0766 203.72 78.7166 203.72 78.5566C203.72 78.3966 203.4 70.3806 203.4 70.3806Z" fill="#EB996E"/>
<path d="M201.912 76.4525C201.912 76.4525 201.816 76.5245 201.656 76.6045C201.423 76.714 201.156 76.7284 200.912 76.6445C200.538 76.4236 200.229 76.1073 200.016 75.7278C199.804 75.3483 199.697 74.9193 199.704 74.4845C199.675 73.9959 199.754 73.5068 199.936 73.0525C199.982 72.8706 200.072 72.7027 200.197 72.5633C200.323 72.4238 200.48 72.3172 200.656 72.2525C200.77 72.2197 200.891 72.2263 201 72.2714C201.109 72.3164 201.199 72.3973 201.256 72.5005C201.336 72.6605 201.304 72.7725 201.336 72.7805C201.368 72.7885 201.448 72.6845 201.4 72.4525C201.364 72.311 201.279 72.1865 201.16 72.1005C200.998 71.9919 200.802 71.9464 200.608 71.9725C200.377 72.0292 200.163 72.1432 199.987 72.3039C199.811 72.4646 199.678 72.667 199.6 72.8925C199.374 73.3939 199.275 73.9436 199.312 74.4925C199.384 75.6445 200.008 76.6925 200.832 76.8925C200.987 76.9317 201.149 76.9354 201.305 76.9036C201.462 76.8717 201.609 76.8051 201.736 76.7085C201.912 76.5885 201.936 76.4605 201.912 76.4525Z" fill="#D1734A"/>
<path d="M204.802 53.5406C203.402 51.2606 207.242 47.9886 210.05 47.1406C212.858 46.2926 216.562 47.6206 219.354 48.5486C221.122 49.1326 222.874 49.9486 224.738 49.8766C225.978 49.7445 227.193 49.4346 228.346 48.9566C229.497 48.4697 230.736 48.2247 231.986 48.2366C232.61 48.2499 233.218 48.4335 233.746 48.7677C234.273 49.1019 234.699 49.5739 234.978 50.1326C235.45 51.2846 234.778 52.8686 233.538 53.0366C233.933 52.8218 234.374 52.7057 234.824 52.6982C235.274 52.6907 235.719 52.792 236.121 52.9936C236.524 53.1951 236.871 53.4909 237.135 53.8558C237.398 54.2206 237.569 54.6437 237.634 55.089C237.698 55.5343 237.654 55.9886 237.506 56.4132C237.357 56.8378 237.108 57.2202 236.779 57.5277C236.451 57.8353 236.053 58.0589 235.619 58.1796C235.186 58.3002 234.73 58.3143 234.29 58.2206C235.09 57.6046 236.338 58.6206 236.234 59.6286C236.125 60.1264 235.888 60.5873 235.547 60.966C235.207 61.3447 234.773 61.6282 234.29 61.7886C231.89 62.8286 229.146 62.4926 226.69 61.6686C224.234 60.8446 221.954 59.5566 219.49 58.6686C217.026 57.7806 212.97 56.1806 210.53 57.0686C208.73 57.7086 207.474 59.8766 206.458 59.3966C205.978 59.1406 205.565 58.7756 205.253 58.3309C204.94 57.8863 204.736 57.3745 204.658 56.8366C204.523 55.7709 204.561 54.6904 204.77 53.6366" fill="#263238"/>
<path d="M234.218 52.8528C234.17 52.8528 233.93 53.2688 233.314 53.9328C232.442 54.8603 231.358 55.5607 230.154 55.9727C228.384 56.6091 226.435 56.5316 224.722 55.7568C222.786 54.8848 221.13 53.1248 219.202 51.5248C217.434 49.8685 215.2 48.796 212.802 48.4528C211.812 48.3314 210.807 48.4376 209.864 48.7634C208.921 49.0892 208.065 49.626 207.362 50.3328C206.908 50.8264 206.559 51.4072 206.336 52.0397C206.113 52.6723 206.021 53.3436 206.066 54.0128C206.097 54.3723 206.181 54.7253 206.314 55.0608C206.418 55.2847 206.482 55.3968 206.498 55.3888C206.39 54.9337 206.317 54.471 206.282 54.0048C206.283 52.7375 206.773 51.5196 207.65 50.6048C208.33 49.9616 209.146 49.4796 210.038 49.1943C210.93 48.9091 211.874 48.8279 212.802 48.9568C215.082 49.3193 217.2 50.3589 218.882 51.9408C220.754 53.5408 222.466 55.3247 224.538 56.2287C226.065 56.8816 227.762 57.0248 229.378 56.6372C230.993 56.2495 232.441 55.3517 233.506 54.0768C233.733 53.8049 233.932 53.51 234.098 53.1968C234.186 52.9808 234.234 52.8608 234.218 52.8528Z" fill="#455A64"/>
<path d="M201.944 70.1326C201.944 70.1326 202.192 69.9726 202.408 69.5246C202.689 68.8753 202.788 68.162 202.696 67.4606C202.568 65.6286 200.944 63.6606 200.736 61.1246C200.591 59.9532 200.812 58.7658 201.368 57.7246C201.854 56.902 202.595 56.2613 203.48 55.9006C204.08 55.6473 204.737 55.5563 205.384 55.6366C205.84 55.7166 206.088 55.8206 206.112 55.7726C205.921 55.5973 205.686 55.4782 205.432 55.4286C204.742 55.249 204.014 55.2824 203.344 55.5246C202.346 55.8763 201.499 56.5597 200.944 57.4606C200.305 58.5895 200.045 59.893 200.2 61.1806C200.348 62.4312 200.719 63.6452 201.296 64.7646C201.753 65.635 202.089 66.5635 202.296 67.5246C202.453 68.4094 202.33 69.3212 201.944 70.1326Z" fill="#455A64"/>
<path d="M235.362 364.997C235.362 364.997 252.698 279.957 252.714 278.261L221.746 261.925L209.746 361.725L235.362 364.997Z" fill="#263238"/>
<path d="M196.368 367.845L220.312 220.461V188.669L185.64 191.149C185.224 192.389 176.48 368.037 176.48 368.037L179.856 367.845H196.368Z" fill="#263238"/>
<path d="M239.136 186.421L252.712 278.261L222.36 270.901L209.992 189.413L239.136 186.421Z" fill="#263238"/>
<path d="M244.368 225.981C244.368 225.981 249.648 221.445 250.168 218.029C250.688 214.613 243.84 159.629 243.84 159.629L240.344 114.173C240.344 114.973 240.44 108.445 239.384 108.053C236.184 106.845 229.608 104.653 229.608 104.653L225.848 101.277C225.848 101.277 232.6 130.141 233.912 138.029L244.368 225.981Z" fill="#FF725E"/>
<path d="M201.018 98.1406L195.338 101.925L174.034 110.301L183.498 145.989L182.226 166.725L181.018 179.885C181.018 179.885 174.674 212.469 169.074 232.269C169.074 232.269 175.322 244.109 180.458 245.757L182.594 247.029L190.21 191.261L196.746 182.461C197.378 181.613 197.962 180.741 198.514 179.845C200.114 177.229 203.778 171.285 206.698 166.701C210.554 160.645 215.498 146.885 214.034 141.013C212.57 135.141 201.018 98.1406 201.018 98.1406Z" fill="#FF725E"/>
<path d="M186.547 221.173C191.535 217.136 195.678 212.156 198.739 206.517L186.547 221.173Z" fill="#263238"/>
<path d="M201.018 98.1406L206.146 131.045C206.007 135.251 205.31 139.421 204.074 143.445L194.922 173.045C194.922 173.045 187.722 189.181 190.21 191.245C192.698 193.309 212.05 191.245 212.05 191.245L238.242 187.445C238.827 187.359 239.356 187.052 239.721 186.588C240.085 186.123 240.258 185.537 240.202 184.949L236.314 144.773C235.002 141.997 234.466 136.317 233.914 134.301L225.85 101.285L224.202 101.069L220.618 103.525L218.73 103.677L202.882 96.0046L201.018 98.1406Z" fill="#EBEBEB"/>
<path d="M196.241 168.749C200.473 155.557 205.953 134.109 205.953 134.109C207.657 145.309 205.793 156.789 201.625 167.349C198.217 175.957 194.097 182.469 191.265 191.293L191.177 191.653C191.177 191.653 189.577 191.741 189.689 189.381C189.801 187.021 192.089 179.997 193.617 176.109C195.145 172.221 196.241 168.749 196.241 168.749Z" fill="#E0E0E0"/>
<path d="M221.53 106.317H217.97L216.906 111.189L220.018 114.957L223.154 114.645L224.178 111.149L223.338 109.197L221.53 106.317Z" fill="#FF725E"/>
<path d="M242.291 134.765C243.411 134.989 255.779 143.309 260.275 142.413C264.771 141.517 268.411 137.277 268.891 136.709C271.443 133.685 269.843 127.405 269.107 125.037C268.928 124.459 268.684 123.903 268.379 123.381L249.283 90.5806L238.027 97.4206L249.707 118.725L242.291 134.765Z" fill="#FF725E"/>
<path d="M150.186 174.421C149.446 172.486 149.124 170.415 149.243 168.347C149.361 166.278 149.917 164.259 150.874 162.421C153.466 157.293 157.578 149.013 158.442 146.293C159.722 142.253 171.69 111.253 174.034 110.293L184.434 145.405L172.354 170.845L186.514 197.525L174.714 210.245C174.714 210.245 152.386 179.109 150.546 175.261C150.418 174.983 150.298 174.703 150.186 174.421Z" fill="#FF725E"/>
<path d="M187.074 218.341C189.307 216.251 191.291 213.91 192.986 211.365C192.97 211.331 192.962 211.294 192.962 211.257C192.962 211.219 192.97 211.182 192.986 211.149C193.013 211.109 193.049 211.075 193.09 211.05C193.131 211.026 193.178 211.01 193.226 211.005C193.903 209.954 194.523 208.867 195.082 207.749C193.106 206.461 190.522 204.549 193.33 204.117C196.794 203.621 199.266 201.941 199.618 201.021C199.97 200.101 198.818 199.277 197.906 199.861C196.856 200.399 195.736 200.787 194.578 201.013C193.653 201.231 192.698 201.29 191.754 201.189C190.658 201.069 186.154 199.117 185.354 198.973L176.93 207.837C176.93 207.837 183.402 214.725 187.074 218.341Z" fill="#EB996E"/>
<path d="M242.208 135.741C242.07 135.426 241.971 135.095 241.912 134.757C241.744 134.117 241.536 133.157 241.304 132.013C240.712 128.984 240.277 125.926 240 122.853C239.725 119.778 239.613 116.691 239.664 113.605C239.664 112.421 239.728 111.469 239.776 110.805C239.783 110.461 239.821 110.118 239.888 109.781C239.945 110.121 239.961 110.468 239.936 110.813C239.936 111.557 239.936 112.493 239.936 113.605C239.936 116.005 240.072 119.205 240.392 122.821C240.712 126.437 241.192 129.637 241.576 131.965C241.76 133.061 241.92 133.989 242.048 134.725C242.134 135.057 242.187 135.398 242.208 135.741Z" fill="#263238"/>
<path d="M252 137.637C252 137.637 251.904 137.637 251.728 137.573C251.481 137.483 251.242 137.37 251.016 137.237C250.183 136.721 249.486 136.013 248.984 135.173C248.281 133.929 247.789 132.577 247.528 131.173C247.118 129.476 246.8 127.759 246.576 126.029C246.24 122.333 245.96 119.013 245.776 116.597C245.696 115.453 245.632 114.493 245.576 113.733C245.537 113.382 245.537 113.028 245.576 112.677C245.666 113.017 245.724 113.365 245.752 113.717C245.832 114.517 245.944 115.429 246.072 116.565C246.336 118.965 246.664 122.317 246.992 125.981C247.224 127.805 247.568 129.533 247.912 131.085C248.143 132.479 248.591 133.829 249.24 135.085C249.706 135.905 250.345 136.615 251.112 137.165C251.688 137.477 252.04 137.605 252 137.637Z" fill="#263238"/>
<g opacity="0.3">
<path opacity="0.3" d="M245.555 112.709C244.58 116.395 243.906 120.154 243.539 123.949C243.201 126.214 243.321 128.523 243.891 130.741C244.579 132.917 246.187 134.925 248.395 135.541C247.387 128.117 246.499 120.679 245.731 113.229" fill="black"/>
</g>
<g opacity="0.3">
<path opacity="0.3" d="M180.051 184.637C180.051 184.637 183.795 192.309 185.867 196.325C190.187 178.477 184.707 159.693 186.491 141.421L183.371 147.717L182.491 162.285L181.819 170.829C181.819 170.829 181.179 180.021 180.051 184.637Z" fill="black"/>
</g>
<path d="M183.074 110.629C183.316 110.938 183.528 111.271 183.706 111.621C183.906 111.949 184.13 112.357 184.37 112.837C184.61 113.317 184.906 113.869 185.17 114.493C185.823 115.951 186.386 117.447 186.858 118.973C187.997 122.723 188.568 126.622 188.554 130.541C188.55 132.146 188.44 133.75 188.226 135.341C188.162 136.021 188.034 136.629 187.938 137.157C187.842 137.685 187.746 138.149 187.658 138.517C187.587 138.905 187.477 139.286 187.33 139.653C187.352 139.259 187.408 138.868 187.498 138.485C187.562 138.109 187.642 137.685 187.714 137.117C187.786 136.549 187.882 135.981 187.938 135.309C188.103 133.733 188.18 132.149 188.17 130.565C188.145 128.629 187.998 126.697 187.73 124.781C187.435 122.866 187.021 120.972 186.49 119.109C186.043 117.589 185.509 116.095 184.89 114.637C184.65 114.005 184.37 113.461 184.154 112.965C183.938 112.469 183.73 112.061 183.554 111.725C183.358 111.376 183.197 111.009 183.074 110.629Z" fill="#263238"/>
<path d="M172.242 171.061C172.186 171.101 171.65 170.261 170.642 168.941C169.297 167.277 167.702 165.833 165.914 164.661C164.956 164.013 163.798 163.73 162.65 163.861C161.717 164.033 160.835 164.41 160.066 164.965C158.714 165.893 157.978 166.621 157.922 166.565C158.052 166.357 158.214 166.17 158.402 166.013C158.869 165.546 159.369 165.113 159.898 164.717C160.684 164.122 161.595 163.715 162.562 163.525C163.799 163.348 165.057 163.633 166.098 164.325C167.931 165.516 169.538 167.025 170.842 168.781C171.237 169.308 171.6 169.858 171.93 170.429C172.066 170.622 172.171 170.835 172.242 171.061Z" fill="#263238"/>
<path d="M169.6 162.653C171.188 165.076 172.1 167.879 172.24 170.773C172.112 170.773 171.8 168.901 171.064 166.669C170.328 164.437 169.512 162.725 169.6 162.653Z" fill="#263238"/>
<path d="M179.8 184.141C180.03 184.464 180.231 184.806 180.4 185.165L181.92 188.037C183.192 190.477 184.928 193.877 186.856 197.693L186.928 197.829L186.824 197.933L186.024 198.733C182.88 202.005 180.024 204.957 177.936 207.069L175.448 209.565C175.155 209.884 174.837 210.178 174.496 210.445C174.735 210.092 175.002 209.761 175.296 209.453L177.696 206.869C179.728 204.693 182.56 201.717 185.696 198.445L186.496 197.645V197.885C184.576 194.061 182.88 190.685 181.696 188.165L180.296 185.237C180.095 184.888 179.929 184.521 179.8 184.141Z" fill="#263238"/>
<path d="M195.384 168.045C195.363 167.813 195.363 167.58 195.384 167.349C195.384 166.861 195.384 166.205 195.384 165.373C195.424 163.621 195.48 161.141 195.552 158.101C195.624 155.061 195.704 151.381 195.872 147.325C195.974 142.903 196.575 138.507 197.664 134.221C198.269 132.024 199.116 129.902 200.192 127.893L200.344 128.197C199.348 128.026 198.443 127.514 197.784 126.749C197.156 126.031 196.699 125.181 196.448 124.261C196.081 122.559 195.942 120.816 196.032 119.077C196.032 115.821 196.032 112.909 196.032 110.477C196.032 108.045 196.032 106.149 196.032 104.773C196.032 104.133 196.032 103.621 196.032 103.237C196.013 103.061 196.013 102.884 196.032 102.709C196.062 102.883 196.075 103.06 196.072 103.237C196.072 103.621 196.072 104.133 196.112 104.773C196.112 106.149 196.16 108.077 196.2 110.469C196.24 112.861 196.256 115.813 196.288 119.077C196.208 120.782 196.353 122.49 196.72 124.157C196.959 125.015 197.388 125.808 197.976 126.477C198.572 127.172 199.393 127.636 200.296 127.789L200.584 127.837L200.448 128.093C199.388 130.073 198.553 132.166 197.96 134.333C196.883 138.59 196.277 142.952 196.152 147.341C195.968 151.389 195.864 155.045 195.736 158.117C195.608 161.189 195.512 163.621 195.44 165.381L195.344 167.357C195.369 167.585 195.382 167.815 195.384 168.045Z" fill="#263238"/>
<path d="M229.664 105.125C229.744 105.264 229.808 105.412 229.856 105.565C229.968 105.901 230.128 106.365 230.312 106.853L231.968 111.653C232.656 113.709 233.48 116.149 234.368 118.853C234.808 120.237 235.352 121.645 235.76 123.205C235.979 124.016 236.015 124.866 235.864 125.693C235.786 126.134 235.62 126.555 235.375 126.93C235.13 127.305 234.812 127.627 234.44 127.877L234.504 127.581C235.176 128.581 235.888 129.645 236.552 130.781C237.55 132.389 238.305 134.136 238.792 135.965C239.166 137.687 239.287 139.455 239.152 141.213C238.96 144.533 238.744 147.517 238.568 150.013C238.392 152.509 238.24 154.509 238.128 155.957C238.072 156.621 238.024 157.157 237.992 157.557C237.984 157.746 237.957 157.933 237.912 158.117C237.893 157.928 237.893 157.738 237.912 157.549C237.912 157.141 237.952 156.597 237.976 155.949C238.048 154.493 238.152 152.469 238.28 149.997C238.408 147.525 238.592 144.485 238.784 141.197C238.895 139.478 238.768 137.753 238.408 136.069C237.922 134.282 237.178 132.576 236.2 131.005C235.544 129.901 234.84 128.845 234.168 127.805L234.048 127.629L234.232 127.517C234.557 127.298 234.834 127.016 235.047 126.687C235.261 126.359 235.405 125.991 235.472 125.605C235.615 124.834 235.585 124.042 235.384 123.285C235 121.781 234.456 120.333 234.024 118.965C233.144 116.221 232.352 113.773 231.68 111.709C231.008 109.645 230.52 108.053 230.152 106.909C229.984 106.373 229.856 105.933 229.752 105.597C229.711 105.442 229.682 105.284 229.664 105.125Z" fill="#263238"/>
<path d="M198.528 204.533C198.44 204.769 198.316 204.99 198.16 205.189C197.904 205.597 197.52 206.173 197.032 206.877C196.048 208.285 194.632 210.197 193.032 212.261C191.432 214.325 189.88 216.133 188.744 217.413C188.176 218.053 187.704 218.565 187.368 218.909C187.032 219.253 186.84 219.437 186.816 219.421C187.335 218.651 187.905 217.916 188.52 217.221C189.6 215.893 191.088 214.021 192.704 212.005C194.32 209.989 195.752 208.069 196.792 206.701C197.323 205.941 197.903 205.217 198.528 204.533Z" fill="#455A64"/>
<path d="M211.067 194.213C211.067 194.213 211.067 194.365 211.067 194.661C211.067 194.957 210.987 195.413 210.923 195.981C210.795 197.149 210.595 198.853 210.347 201.037C209.827 205.429 209.051 211.789 208.027 219.629C206.003 235.317 202.931 256.957 199.627 280.861C197.979 292.821 196.427 304.213 195.179 314.597C194.851 317.189 194.587 319.725 194.219 322.181C193.851 324.637 193.475 326.981 193.123 329.301L191.187 342.101C190.011 349.925 189.083 356.253 188.475 360.637C188.171 362.821 187.947 364.525 187.811 365.685C187.747 366.261 187.699 366.701 187.683 366.997C187.676 367.109 187.676 367.221 187.683 367.333C187.683 367.429 187.739 367.333 187.739 367.333C187.739 367.333 187.675 367.333 187.683 367.293C187.668 367.181 187.668 367.068 187.683 366.957C187.683 366.661 187.723 366.213 187.779 365.637C187.883 364.477 188.083 362.765 188.363 360.573C188.923 356.181 189.803 349.845 190.939 342.021C191.523 338.101 192.155 333.821 192.827 329.221C193.179 326.917 193.531 324.541 193.899 322.093C194.267 319.645 194.523 317.109 194.851 314.517C196.115 304.117 197.619 292.733 199.259 280.773C202.563 256.861 205.659 235.237 207.787 219.557C208.819 211.733 209.651 205.389 210.235 200.989C210.515 198.805 210.739 197.109 210.891 195.933C210.971 195.373 211.027 194.933 211.067 194.621C211.107 194.309 211.067 194.213 211.067 194.213Z" fill="#455A64"/>
<path d="M229.32 364.205C229.331 364.06 229.35 363.916 229.376 363.773C229.424 363.469 229.488 363.045 229.576 362.493C229.776 361.357 230.056 359.717 230.376 357.605C231.12 353.341 232.2 347.205 233.528 339.629L244.12 280.325C244.428 278.917 244.515 277.471 244.376 276.037C244.192 274.613 243.952 273.173 243.744 271.765C243.312 268.933 242.883 266.146 242.456 263.405C241.592 257.933 240.736 252.653 239.904 247.629C238.232 237.581 236.616 228.549 235.176 220.981C233.736 213.413 232.464 207.309 231.504 203.109C231.048 201.005 230.632 199.381 230.376 198.309C230.256 197.773 230.16 197.349 230.088 197.053C230.016 196.757 230 196.621 230 196.621C230.05 196.76 230.093 196.901 230.128 197.045L230.464 198.293C230.744 199.389 231.184 201.005 231.664 203.093C232.672 207.277 233.984 213.381 235.464 220.941C236.944 228.501 238.584 237.533 240.264 247.581C241.112 252.605 241.968 257.885 242.84 263.357C243.267 266.103 243.699 268.89 244.136 271.717C244.352 273.141 244.584 274.549 244.776 276.005C244.917 277.484 244.828 278.976 244.512 280.429C240.344 303.557 236.576 324.501 233.84 339.677C232.456 347.245 231.336 353.373 230.56 357.629C230.168 359.741 229.856 361.381 229.648 362.509C229.544 363.053 229.456 363.477 229.4 363.773C229.344 364.069 229.32 364.205 229.32 364.205Z" fill="#455A64"/>
<path d="M220.314 219.421C220.434 219.421 219.018 228.957 217.154 240.685C215.29 252.413 213.698 261.925 213.602 261.925C213.506 261.925 214.906 252.389 216.762 240.661C218.618 228.933 220.202 219.405 220.314 219.421Z" fill="#455A64"/>
<path d="M196.656 367.581C196.396 367.657 196.127 367.702 195.856 367.717C195.352 367.773 194.616 367.845 193.704 367.917C191.888 368.061 189.368 368.197 186.584 368.237C183.8 368.277 181.272 368.237 179.448 368.149C178.536 368.149 177.8 368.069 177.296 368.021C177.025 368.025 176.755 367.987 176.496 367.909C177.478 367.833 178.464 367.817 179.448 367.861C181.272 367.861 183.784 367.861 186.568 367.821C189.352 367.781 191.856 367.693 193.68 367.621C194.67 367.541 195.664 367.527 196.656 367.581Z" fill="#455A64"/>
<path d="M235.362 364.997C235.022 365.012 234.682 364.993 234.346 364.941L231.594 364.653C229.274 364.389 226.074 363.989 222.538 363.533C219.002 363.077 215.802 362.637 213.49 362.301L210.754 361.885C210.416 361.844 210.082 361.777 209.754 361.685C210.095 361.652 210.44 361.666 210.778 361.725C211.426 361.781 212.378 361.877 213.53 362.005C215.85 362.269 219.058 362.661 222.594 363.117C226.13 363.573 229.322 364.021 231.634 364.357L234.37 364.781C234.708 364.813 235.041 364.886 235.362 364.997Z" fill="#455A64"/>
<path d="M201.602 103.461C201.913 103.621 202.207 103.811 202.482 104.029L204.834 105.629C206.834 106.997 209.634 108.829 212.834 110.653C214.034 111.341 215.234 111.981 216.29 112.557L216.002 112.685C216.674 110.029 217.266 107.749 217.698 106.141C217.906 105.389 218.082 104.765 218.226 104.253C218.277 104.023 218.354 103.8 218.458 103.589C218.452 103.824 218.417 104.058 218.354 104.285C218.242 104.805 218.106 105.437 217.946 106.197C217.57 107.797 217.034 110.117 216.346 112.781L216.29 113.021L216.066 112.909C214.97 112.341 213.786 111.701 212.586 111.013C209.842 109.446 207.187 107.729 204.634 105.869C203.658 105.157 202.882 104.549 202.354 104.125C202.079 103.932 201.827 103.709 201.602 103.461Z" fill="#263238"/>
<path d="M228.001 109.349C226.887 110.24 225.705 111.043 224.465 111.749L224.289 111.861L224.193 111.669L223.113 109.565C222.313 107.965 221.553 106.445 221.049 105.357C220.735 104.785 220.483 104.182 220.297 103.557C220.693 104.076 221.031 104.636 221.305 105.229C221.881 106.277 222.657 107.741 223.481 109.373L224.561 111.525L224.289 111.445C225.474 110.657 226.714 109.957 228.001 109.349Z" fill="#263238"/>
<path d="M222.787 108.565C222.573 108.774 222.337 108.96 222.083 109.117C221.643 109.445 221.018 109.917 220.322 110.357C219.626 110.797 218.994 111.253 218.53 111.557C218.277 111.731 218.01 111.884 217.73 112.013C217.944 111.801 218.18 111.614 218.434 111.453C218.882 111.133 219.506 110.693 220.194 110.221L221.987 109.021C222.24 108.846 222.507 108.693 222.787 108.565Z" fill="#263238"/>
<path d="M220.387 110.221C219.817 109.772 219.282 109.28 218.787 108.749C218.271 108.252 217.792 107.717 217.355 107.149C217.911 107.598 218.43 108.09 218.907 108.621C219.441 109.115 219.936 109.65 220.387 110.221Z" fill="#263238"/>
<path d="M205.314 181.189C205.551 183.188 206.11 185.136 206.97 186.957C207.948 188.715 209.207 190.302 210.698 191.653C210.15 191.396 209.654 191.041 209.234 190.605C207.062 188.614 205.672 185.913 205.314 182.989C205.208 182.393 205.208 181.784 205.314 181.189Z" fill="#263238"/>
<path d="M209.97 191.733C207.306 191.506 204.812 190.334 202.938 188.429C203.018 188.333 204.394 189.429 206.33 190.333C208.266 191.237 209.994 191.605 209.97 191.733Z" fill="#263238"/>
<path d="M225.602 166.125C225.739 166.395 225.839 166.683 225.898 166.981C226.066 167.541 226.282 168.357 226.522 169.381C227.018 171.405 227.602 174.229 228.066 177.381C228.53 180.533 228.794 183.397 228.914 185.485C228.97 186.525 229.002 187.365 229.002 187.949C229.041 188.249 229.041 188.553 229.002 188.853C228.927 188.559 228.884 188.259 228.874 187.957C228.81 187.285 228.738 186.469 228.65 185.501C228.458 183.437 228.154 180.581 227.69 177.445C227.226 174.309 226.682 171.485 226.266 169.445C226.074 168.493 225.906 167.685 225.77 167.045C225.68 166.745 225.623 166.437 225.602 166.125Z" fill="#263238"/>
<path d="M220.275 115.773C219.235 124.085 218.467 142.173 218.179 150.565C217.939 157.573 217.963 164.589 217.987 171.605C217.987 173.869 217.987 176.205 218.955 178.261C220.627 181.965 224.715 183.861 228.467 185.365L220.275 115.773Z" fill="#E0E0E0"/>
<path d="M229.6 184.165L233.896 173.637L223.152 114.645L220.016 114.957C220.016 114.957 220.456 176.269 220.312 176.821L229.6 184.165Z" fill="#FF725E"/>
<path d="M223.043 114.645C222.559 114.798 222.055 114.881 221.547 114.893C221.048 114.958 220.542 114.958 220.043 114.893C220.537 114.807 221.037 114.759 221.539 114.749C222.038 114.682 222.54 114.648 223.043 114.645Z" fill="#263238"/>
<path d="M104.155 395.325V385.372H106.965C107.831 385.372 108.596 385.563 109.262 385.946C109.927 386.329 110.44 386.873 110.8 387.58C111.164 388.286 111.349 389.097 111.354 390.013V390.649C111.354 391.588 111.171 392.41 110.807 393.117C110.447 393.823 109.929 394.365 109.255 394.744C108.585 395.122 107.803 395.316 106.91 395.325H104.155ZM105.468 386.452V394.251H106.849C107.86 394.251 108.646 393.937 109.207 393.308C109.772 392.679 110.055 391.784 110.055 390.622V390.041C110.055 388.91 109.788 388.033 109.255 387.409C108.726 386.78 107.974 386.461 106.999 386.452H105.468ZM116.214 395.461C115.211 395.461 114.396 395.133 113.767 394.477C113.138 393.816 112.823 392.934 112.823 391.832V391.599C112.823 390.865 112.962 390.211 113.24 389.637C113.523 389.058 113.915 388.607 114.416 388.284C114.922 387.956 115.469 387.792 116.057 387.792C117.018 387.792 117.766 388.108 118.299 388.742C118.832 389.375 119.099 390.282 119.099 391.462V391.989H114.088C114.106 392.718 114.318 393.308 114.724 393.759C115.134 394.206 115.653 394.429 116.282 394.429C116.729 394.429 117.107 394.338 117.417 394.156C117.727 393.973 117.998 393.732 118.23 393.431L119.003 394.033C118.383 394.985 117.453 395.461 116.214 395.461ZM116.057 388.831C115.546 388.831 115.118 389.017 114.771 389.391C114.425 389.76 114.211 390.28 114.129 390.95H117.834V390.854C117.798 390.211 117.624 389.715 117.314 389.364C117.005 389.008 116.585 388.831 116.057 388.831ZM124.875 393.363C124.875 393.021 124.745 392.757 124.485 392.57C124.23 392.378 123.781 392.214 123.139 392.078C122.501 391.941 121.993 391.777 121.614 391.585C121.241 391.394 120.963 391.166 120.78 390.902C120.603 390.638 120.514 390.323 120.514 389.958C120.514 389.352 120.769 388.84 121.279 388.42C121.794 388.001 122.451 387.792 123.248 387.792C124.087 387.792 124.766 388.008 125.285 388.441C125.809 388.874 126.071 389.428 126.071 390.102H124.8C124.8 389.756 124.652 389.457 124.355 389.207C124.064 388.956 123.695 388.831 123.248 388.831C122.788 388.831 122.428 388.931 122.168 389.131C121.908 389.332 121.778 389.594 121.778 389.917C121.778 390.223 121.899 390.453 122.141 390.608C122.382 390.763 122.817 390.911 123.446 391.052C124.08 391.194 124.592 391.362 124.984 391.558C125.376 391.754 125.666 391.991 125.853 392.269C126.044 392.542 126.14 392.877 126.14 393.274C126.14 393.935 125.875 394.466 125.347 394.867C124.818 395.263 124.132 395.461 123.289 395.461C122.697 395.461 122.173 395.357 121.717 395.147C121.261 394.937 120.903 394.646 120.644 394.272C120.388 393.894 120.261 393.486 120.261 393.048H121.525C121.548 393.472 121.717 393.809 122.031 394.06C122.35 394.306 122.77 394.429 123.289 394.429C123.768 394.429 124.15 394.333 124.438 394.142C124.729 393.946 124.875 393.686 124.875 393.363ZM129.161 395.325H127.896V387.928H129.161V395.325ZM127.794 385.966C127.794 385.761 127.855 385.588 127.979 385.447C128.106 385.306 128.293 385.235 128.539 385.235C128.785 385.235 128.972 385.306 129.1 385.447C129.227 385.588 129.291 385.761 129.291 385.966C129.291 386.171 129.227 386.342 129.1 386.479C128.972 386.616 128.785 386.684 128.539 386.684C128.293 386.684 128.106 386.616 127.979 386.479C127.855 386.342 127.794 386.171 127.794 385.966ZM130.891 391.565C130.891 390.412 131.157 389.496 131.69 388.817C132.224 388.133 132.93 387.792 133.81 387.792C134.712 387.792 135.416 388.111 135.922 388.749L135.983 387.928H137.139V395.147C137.139 396.104 136.854 396.858 136.284 397.41C135.719 397.961 134.958 398.237 134.001 398.237C133.468 398.237 132.946 398.123 132.436 397.895C131.925 397.667 131.535 397.355 131.267 396.958L131.923 396.2C132.465 396.87 133.128 397.205 133.912 397.205C134.527 397.205 135.006 397.031 135.348 396.685C135.694 396.339 135.867 395.851 135.867 395.222V394.586C135.361 395.17 134.671 395.461 133.796 395.461C132.93 395.461 132.228 395.113 131.69 394.416C131.157 393.718 130.891 392.768 130.891 391.565ZM132.162 391.708C132.162 392.542 132.333 393.199 132.675 393.677C133.017 394.151 133.495 394.388 134.11 394.388C134.908 394.388 135.493 394.026 135.867 393.301V389.924C135.48 389.218 134.899 388.865 134.124 388.865C133.509 388.865 133.028 389.104 132.682 389.583C132.335 390.061 132.162 390.77 132.162 391.708ZM140.249 387.928L140.29 388.858C140.855 388.147 141.593 387.792 142.505 387.792C144.068 387.792 144.856 388.673 144.87 390.437V395.325H143.605V390.43C143.601 389.897 143.478 389.503 143.236 389.248C142.999 388.992 142.628 388.865 142.122 388.865C141.712 388.865 141.352 388.974 141.042 389.193C140.732 389.412 140.491 389.699 140.317 390.054V395.325H139.053V387.928H140.249ZM149.847 395.461C148.844 395.461 148.028 395.133 147.399 394.477C146.771 393.816 146.456 392.934 146.456 391.832V391.599C146.456 390.865 146.595 390.211 146.873 389.637C147.156 389.058 147.548 388.607 148.049 388.284C148.555 387.956 149.102 387.792 149.689 387.792C150.651 387.792 151.398 388.108 151.932 388.742C152.465 389.375 152.731 390.282 152.731 391.462V391.989H147.721C147.739 392.718 147.951 393.308 148.356 393.759C148.767 394.206 149.286 394.429 149.915 394.429C150.362 394.429 150.74 394.338 151.05 394.156C151.36 393.973 151.631 393.732 151.863 393.431L152.636 394.033C152.016 394.985 151.086 395.461 149.847 395.461ZM149.689 388.831C149.179 388.831 148.751 389.017 148.404 389.391C148.058 389.76 147.844 390.28 147.762 390.95H151.467V390.854C151.43 390.211 151.257 389.715 150.947 389.364C150.637 389.008 150.218 388.831 149.689 388.831ZM153.894 391.565C153.894 390.43 154.162 389.519 154.7 388.831C155.238 388.138 155.942 387.792 156.812 387.792C157.678 387.792 158.364 388.088 158.87 388.68V384.825H160.135V395.325H158.973L158.911 394.532C158.405 395.152 157.701 395.461 156.799 395.461C155.942 395.461 155.243 395.111 154.7 394.409C154.162 393.707 153.894 392.791 153.894 391.661V391.565ZM155.158 391.708C155.158 392.547 155.331 393.203 155.678 393.677C156.024 394.151 156.503 394.388 157.113 394.388C157.915 394.388 158.501 394.028 158.87 393.308V389.911C158.492 389.213 157.911 388.865 157.127 388.865C156.507 388.865 156.024 389.104 155.678 389.583C155.331 390.061 155.158 390.77 155.158 391.708ZM171.838 391.708C171.838 392.839 171.578 393.748 171.059 394.436C170.539 395.12 169.842 395.461 168.967 395.461C168.033 395.461 167.31 395.131 166.8 394.47L166.738 395.325H165.576V384.825H166.841V388.742C167.351 388.108 168.055 387.792 168.953 387.792C169.851 387.792 170.555 388.131 171.065 388.81C171.58 389.489 171.838 390.419 171.838 391.599V391.708ZM170.573 391.565C170.573 390.704 170.407 390.038 170.074 389.569C169.742 389.099 169.263 388.865 168.639 388.865C167.805 388.865 167.205 389.252 166.841 390.027V393.226C167.228 394.001 167.832 394.388 168.652 394.388C169.258 394.388 169.73 394.153 170.067 393.684C170.405 393.215 170.573 392.508 170.573 391.565ZM175.775 393.472L177.498 387.928H178.852L175.878 396.466C175.418 397.697 174.686 398.312 173.684 398.312L173.444 398.292L172.973 398.203V397.177L173.314 397.205C173.743 397.205 174.076 397.118 174.312 396.945C174.554 396.772 174.752 396.455 174.907 395.995L175.188 395.243L172.549 387.928H173.93L175.775 393.472ZM187.766 393.363C187.766 393.021 187.636 392.757 187.376 392.57C187.121 392.378 186.672 392.214 186.029 392.078C185.391 391.941 184.883 391.777 184.505 391.585C184.131 391.394 183.853 391.166 183.671 390.902C183.493 390.638 183.404 390.323 183.404 389.958C183.404 389.352 183.66 388.84 184.17 388.42C184.685 388.001 185.341 387.792 186.139 387.792C186.977 387.792 187.656 388.008 188.176 388.441C188.7 388.874 188.962 389.428 188.962 390.102H187.69C187.69 389.756 187.542 389.457 187.246 389.207C186.954 388.956 186.585 388.831 186.139 388.831C185.678 388.831 185.318 388.931 185.059 389.131C184.799 389.332 184.669 389.594 184.669 389.917C184.669 390.223 184.79 390.453 185.031 390.608C185.273 390.763 185.708 390.911 186.337 391.052C186.97 391.194 187.483 391.362 187.875 391.558C188.267 391.754 188.556 391.991 188.743 392.269C188.935 392.542 189.03 392.877 189.03 393.274C189.03 393.935 188.766 394.466 188.237 394.867C187.709 395.263 187.023 395.461 186.18 395.461C185.587 395.461 185.063 395.357 184.607 395.147C184.152 394.937 183.794 394.646 183.534 394.272C183.279 393.894 183.151 393.486 183.151 393.048H184.416C184.439 393.472 184.607 393.809 184.922 394.06C185.241 394.306 185.66 394.429 186.18 394.429C186.658 394.429 187.041 394.333 187.328 394.142C187.62 393.946 187.766 393.686 187.766 393.363ZM192.394 386.137V387.928H193.774V388.906H192.394V393.493C192.394 393.789 192.455 394.012 192.578 394.163C192.701 394.308 192.911 394.381 193.207 394.381C193.353 394.381 193.553 394.354 193.809 394.299V395.325C193.476 395.416 193.152 395.461 192.838 395.461C192.273 395.461 191.847 395.291 191.56 394.949C191.272 394.607 191.129 394.122 191.129 393.493V388.906H189.782V387.928H191.129V386.137H192.394ZM194.786 391.558C194.786 390.833 194.927 390.182 195.21 389.603C195.497 389.024 195.894 388.578 196.399 388.263C196.91 387.949 197.491 387.792 198.143 387.792C199.15 387.792 199.963 388.14 200.583 388.837C201.207 389.535 201.52 390.462 201.52 391.62V391.708C201.52 392.429 201.381 393.076 201.103 393.65C200.829 394.22 200.435 394.664 199.92 394.983C199.41 395.302 198.822 395.461 198.156 395.461C197.154 395.461 196.34 395.113 195.716 394.416C195.096 393.718 194.786 392.795 194.786 391.647V391.558ZM196.058 391.708C196.058 392.529 196.247 393.187 196.625 393.684C197.008 394.181 197.518 394.429 198.156 394.429C198.799 394.429 199.309 394.179 199.688 393.677C200.066 393.171 200.255 392.465 200.255 391.558C200.255 390.747 200.061 390.091 199.674 389.589C199.291 389.083 198.781 388.831 198.143 388.831C197.518 388.831 197.015 389.079 196.632 389.576C196.249 390.072 196.058 390.783 196.058 391.708ZM206.681 389.063C206.489 389.031 206.282 389.015 206.059 389.015C205.229 389.015 204.666 389.368 204.37 390.075V395.325H203.105V387.928H204.336L204.356 388.783C204.771 388.122 205.359 387.792 206.12 387.792C206.366 387.792 206.553 387.823 206.681 387.887V389.063ZM209.224 395.325H207.959V387.928H209.224V395.325ZM207.856 385.966C207.856 385.761 207.918 385.588 208.041 385.447C208.169 385.306 208.355 385.235 208.602 385.235C208.848 385.235 209.035 385.306 209.162 385.447C209.29 385.588 209.354 385.761 209.354 385.966C209.354 386.171 209.29 386.342 209.162 386.479C209.035 386.616 208.848 386.684 208.602 386.684C208.355 386.684 208.169 386.616 208.041 386.479C207.918 386.342 207.856 386.171 207.856 385.966ZM214.323 395.461C213.321 395.461 212.505 395.133 211.876 394.477C211.247 393.816 210.933 392.934 210.933 391.832V391.599C210.933 390.865 211.072 390.211 211.35 389.637C211.632 389.058 212.024 388.607 212.525 388.284C213.031 387.956 213.578 387.792 214.166 387.792C215.128 387.792 215.875 388.108 216.408 388.742C216.941 389.375 217.208 390.282 217.208 391.462V391.989H212.197C212.215 392.718 212.427 393.308 212.833 393.759C213.243 394.206 213.763 394.429 214.392 394.429C214.838 394.429 215.216 394.338 215.526 394.156C215.836 393.973 216.107 393.732 216.34 393.431L217.112 394.033C216.493 394.985 215.563 395.461 214.323 395.461ZM214.166 388.831C213.656 388.831 213.227 389.017 212.881 389.391C212.535 389.76 212.32 390.28 212.238 390.95H215.943V390.854C215.907 390.211 215.734 389.715 215.424 389.364C215.114 389.008 214.695 388.831 214.166 388.831ZM222.984 393.363C222.984 393.021 222.854 392.757 222.595 392.57C222.34 392.378 221.891 392.214 221.248 392.078C220.61 391.941 220.102 391.777 219.724 391.585C219.35 391.394 219.072 391.166 218.89 390.902C218.712 390.638 218.623 390.323 218.623 389.958C218.623 389.352 218.878 388.84 219.389 388.42C219.904 388.001 220.56 387.792 221.357 387.792C222.196 387.792 222.875 388.008 223.395 388.441C223.919 388.874 224.181 389.428 224.181 390.102H222.909C222.909 389.756 222.761 389.457 222.465 389.207C222.173 388.956 221.804 388.831 221.357 388.831C220.897 388.831 220.537 388.931 220.277 389.131C220.018 389.332 219.888 389.594 219.888 389.917C219.888 390.223 220.008 390.453 220.25 390.608C220.492 390.763 220.927 390.911 221.556 391.052C222.189 391.194 222.702 391.362 223.094 391.558C223.486 391.754 223.775 391.991 223.962 392.269C224.153 392.542 224.249 392.877 224.249 393.274C224.249 393.935 223.985 394.466 223.456 394.867C222.927 395.263 222.242 395.461 221.398 395.461C220.806 395.461 220.282 395.357 219.826 395.147C219.37 394.937 219.013 394.646 218.753 394.272C218.498 393.894 218.37 393.486 218.37 393.048H219.635C219.658 393.472 219.826 393.809 220.141 394.06C220.46 394.306 220.879 394.429 221.398 394.429C221.877 394.429 222.26 394.333 222.547 394.142C222.839 393.946 222.984 393.686 222.984 393.363ZM229.622 396.179H228.535L232.691 385.372H233.771L229.622 396.179ZM244.299 390.929H240.122V395.325H238.81V385.372H244.976V386.452H240.122V389.856H244.299V390.929ZM249.747 389.063C249.556 389.031 249.348 389.015 249.125 389.015C248.296 389.015 247.733 389.368 247.437 390.075V395.325H246.172V387.928H247.402L247.423 388.783C247.838 388.122 248.425 387.792 249.187 387.792C249.433 387.792 249.619 387.823 249.747 387.887V389.063ZM253.849 395.461C252.846 395.461 252.03 395.133 251.401 394.477C250.772 393.816 250.458 392.934 250.458 391.832V391.599C250.458 390.865 250.597 390.211 250.875 389.637C251.158 389.058 251.549 388.607 252.051 388.284C252.557 387.956 253.104 387.792 253.691 387.792C254.653 387.792 255.4 388.108 255.934 388.742C256.467 389.375 256.733 390.282 256.733 391.462V391.989H251.723C251.741 392.718 251.953 393.308 252.358 393.759C252.769 394.206 253.288 394.429 253.917 394.429C254.364 394.429 254.742 394.338 255.052 394.156C255.362 393.973 255.633 393.732 255.865 393.431L256.638 394.033C256.018 394.985 255.088 395.461 253.849 395.461ZM253.691 388.831C253.181 388.831 252.753 389.017 252.406 389.391C252.06 389.76 251.846 390.28 251.764 390.95H255.469V390.854C255.432 390.211 255.259 389.715 254.949 389.364C254.639 389.008 254.22 388.831 253.691 388.831ZM261.272 395.461C260.27 395.461 259.454 395.133 258.825 394.477C258.196 393.816 257.882 392.934 257.882 391.832V391.599C257.882 390.865 258.021 390.211 258.299 389.637C258.581 389.058 258.973 388.607 259.475 388.284C259.98 387.956 260.527 387.792 261.115 387.792C262.077 387.792 262.824 388.108 263.357 388.742C263.891 389.375 264.157 390.282 264.157 391.462V391.989H259.146C259.165 392.718 259.377 393.308 259.782 393.759C260.192 394.206 260.712 394.429 261.341 394.429C261.787 394.429 262.166 394.338 262.476 394.156C262.785 393.973 263.057 393.732 263.289 393.431L264.062 394.033C263.442 394.985 262.512 395.461 261.272 395.461ZM261.115 388.831C260.605 388.831 260.176 389.017 259.83 389.391C259.484 389.76 259.27 390.28 259.188 390.95H262.893V390.854C262.856 390.211 262.683 389.715 262.373 389.364C262.063 389.008 261.644 388.831 261.115 388.831ZM271.875 391.708C271.875 392.834 271.618 393.741 271.103 394.429C270.588 395.117 269.89 395.461 269.011 395.461C268.113 395.461 267.407 395.177 266.892 394.607V398.168H265.627V387.928H266.782L266.844 388.749C267.359 388.111 268.074 387.792 268.99 387.792C269.879 387.792 270.581 388.126 271.096 388.796C271.615 389.466 271.875 390.398 271.875 391.592V391.708ZM270.61 391.565C270.61 390.731 270.433 390.072 270.077 389.589C269.722 389.106 269.234 388.865 268.614 388.865C267.849 388.865 267.274 389.204 266.892 389.883V393.417C267.27 394.092 267.849 394.429 268.628 394.429C269.234 394.429 269.715 394.19 270.07 393.711C270.43 393.228 270.61 392.513 270.61 391.565ZM274.862 395.325H273.598V387.928H274.862V395.325ZM273.495 385.966C273.495 385.761 273.557 385.588 273.68 385.447C273.807 385.306 273.994 385.235 274.24 385.235C274.486 385.235 274.673 385.306 274.801 385.447C274.928 385.588 274.992 385.761 274.992 385.966C274.992 386.171 274.928 386.342 274.801 386.479C274.673 386.616 274.486 386.684 274.24 386.684C273.994 386.684 273.807 386.616 273.68 386.479C273.557 386.342 273.495 386.171 273.495 385.966ZM278.957 391.9L278.164 392.727V395.325H276.899V384.825H278.164V391.175L278.841 390.362L281.145 387.928H282.683L279.805 391.018L283.018 395.325H281.534L278.957 391.9Z" fill="#ACA9A9"/>
</svg>
