<svg width="488" height="450" viewBox="0 0 488 450" fill="none" xmlns="http://www.w3.org/2000/svg">
<path d="M115.414 19.3442H46.2578V123.828H115.414V19.3442Z" fill="white"/>
<path d="M115.762 123.497C119.2 128.964 123.245 134.026 127.82 138.584L115.762 123.497Z" fill="white"/>
<path d="M127.82 138.585C127.052 138.011 126.347 137.358 125.716 136.637C122.505 133.369 119.639 129.778 117.164 125.922C116.609 125.151 116.139 124.321 115.762 123.448C116.383 124.165 116.949 124.926 117.457 125.727C118.431 127.15 119.892 129.098 121.557 131.172C123.223 133.247 124.81 135.068 125.979 136.383C126.649 137.069 127.264 137.805 127.82 138.585Z" fill="#E0E0E0"/>
<path d="M34.8125 138.175L46.8612 123.302L34.8125 138.175Z" fill="white"/>
<path d="M450.409 123.964H392.824V210.964H450.409V123.964Z" fill="white"/>
<path d="M450.691 210.682C453.548 215.234 456.911 219.449 460.714 223.247L450.691 210.682Z" fill="white"/>
<path d="M383.289 222.906L393.322 210.526L383.289 222.906Z" fill="white"/>
<path d="M393.322 210.526C391.811 212.718 390.185 214.828 388.451 216.848C386.828 218.953 385.098 220.975 383.27 222.906C384.78 220.714 386.406 218.604 388.14 216.585C389.759 214.475 391.488 212.453 393.322 210.526Z" fill="#E0E0E0"/>
<path d="M383.297 111.935C385.028 113.79 386.654 115.742 388.167 117.779C389.789 119.724 391.307 121.753 392.716 123.857C390.985 122.001 389.359 120.05 387.846 118.013C386.221 116.07 384.703 114.041 383.297 111.935Z" fill="#E0E0E0"/>
<path d="M59.8042 325.568C54.9703 322.538 49.5052 320.659 43.8301 320.075C41.2295 319.802 38.3756 319.88 36.2912 321.458C36.05 321.598 35.8506 321.8 35.7136 322.044C35.5767 322.287 35.507 322.562 35.512 322.841C35.6271 323.247 35.8915 323.595 36.2522 323.815C42.7392 328.763 52.5574 329.386 59.7847 325.597" fill="#E0E0E0"/>
<path d="M59.414 325.11C55.7174 322.402 52.2687 319.371 49.1088 316.052C45.9384 312.709 43.7102 308.585 42.651 304.101C42.4459 303.437 42.3849 302.738 42.4723 302.049C42.5597 301.36 42.7933 300.698 43.1575 300.107C51.3685 306.526 57.8263 314.815 59.414 325.11Z" fill="#E0E0E0"/>
<path d="M59.7158 325.5C58.9486 321.02 59.0114 316.438 59.9008 311.981C60.8176 307.487 63.3904 303.503 67.1086 300.818C68.5307 304.13 67.9171 307.958 66.9138 311.426C65.3645 316.792 62.9532 321.871 59.7742 326.464" fill="#E0E0E0"/>
<path d="M67.764 339.935C62.8939 340.529 58.6277 343.101 54.9751 346.412C51.305 349.747 48.7509 354.13 47.6602 358.968C52.4524 358.675 56.5141 355.295 59.4653 351.506C62.4166 347.718 64.4621 343.558 67.6959 340.013" fill="#E0E0E0"/>
<path d="M69.519 342.234C67.595 337.349 66.9205 332.061 67.5567 326.85C68.1928 321.639 70.1194 316.669 73.1618 312.39C75.9378 322.296 74.9248 333.478 69.519 342.234Z" fill="#E0E0E0"/>
<path d="M80.1499 354.896C75.6829 354.62 71.2333 355.663 67.3542 357.895C63.475 360.127 60.3375 363.45 58.3317 367.451C58.0687 367.997 57.8252 368.679 58.1856 369.166C58.3756 369.348 58.6069 369.481 58.8597 369.554C59.1125 369.627 59.3792 369.637 59.6369 369.584C63.9324 369.312 67.7408 366.721 70.8869 363.74C74.033 360.76 76.7311 357.39 80.2473 354.847" fill="#E0E0E0"/>
<path d="M79.8137 354.204C77.5225 346.836 77.3806 338.966 79.4046 331.519C80.2033 328.597 81.5475 325.519 84.2747 324.146C84.3836 324.077 84.5051 324.03 84.6322 324.009C84.7592 323.987 84.8894 323.991 85.015 324.019C85.2346 324.135 85.4019 324.33 85.4825 324.565C86.3932 326.607 86.7879 328.841 86.6319 331.071C86.4865 333.292 86.1607 335.498 85.6578 337.666C84.8104 341.688 84.3526 346.023 82.1416 349.49C81.6245 350.329 81.1562 351.198 80.739 352.091C80.3202 352.977 80.3202 353.289 79.9403 353.99" fill="#E0E0E0"/>
<path d="M107.961 358.442C105.877 350.503 108.088 340.909 113.094 334.383C113.455 333.906 113.951 333.409 114.546 333.409C115.52 333.497 115.705 334.724 115.666 335.64C115.294 343.814 112.624 351.717 107.961 358.442Z" fill="#E0E0E0"/>
<path d="M110.504 360.136C120.137 362.649 131.202 360.205 139.218 354.292C134.4 351.872 128.892 351.201 123.634 352.393C118.442 353.572 113.699 355.899 110.465 360.136" fill="#E0E0E0"/>
<path d="M112.645 354.857C118.041 346.091 128.385 340.305 138.7 339.789C137.511 343.977 134.063 347.24 130.177 349.208C126.291 351.175 121.946 352.033 117.67 352.87C116.005 353.192 113.716 353.542 112.645 354.818" fill="#E0E0E0"/>
<path d="M108.495 329.221C109.956 324.214 111.417 319.159 111.826 313.958C112.236 308.756 111.486 303.321 108.787 298.86C103.752 308.601 103.236 320.016 108.349 329.747" fill="#E0E0E0"/>
<path d="M125.477 320.64C131.379 309.926 143.408 301.364 155.584 300.185C150.889 311.874 138.051 320.922 125.477 320.64Z" fill="#E0E0E0"/>
<path d="M121.754 322.743C130.52 324.078 138.049 329.698 146.26 333.097C147.983 333.93 149.894 334.296 151.803 334.159C152.689 334.148 153.55 333.865 154.271 333.349C154.991 332.833 155.537 332.109 155.833 331.273C156.129 330.438 156.162 329.532 155.927 328.677C155.692 327.823 155.201 327.06 154.52 326.493C153.359 325.414 151.99 324.582 150.497 324.049C141.546 320.318 131.942 320.23 122.514 322.49" fill="#E0E0E0"/>
<path d="M116.68 328.909C118.628 329.474 119.349 330.506 120.926 331.831C126.303 336.403 132.663 339.67 139.511 341.377C140.222 341.552 141.147 341.62 141.508 340.987C141.868 340.354 141.42 339.74 141.021 339.244C138.035 335.739 134.158 333.108 129.8 331.627C125.514 330.029 121.793 328.11 116.68 328.519" fill="#E0E0E0"/>
<path d="M110.932 291.653C114.54 294.977 118.803 297.51 123.448 299.09C128.092 300.67 133.016 301.262 137.902 300.828C138.35 300.827 138.783 300.672 139.13 300.39C139.802 299.649 138.993 298.51 138.156 297.886C130.237 291.711 120.623 289.12 110.883 291.653" fill="#E0E0E0"/>
<path d="M117.738 289.159C122.513 285.647 128.05 283.313 133.899 282.348C139.747 281.383 145.741 281.814 151.391 283.607C147.154 287.786 141.271 290.026 135.358 290.65C129.443 291.188 123.479 290.683 117.738 289.159Z" fill="#E0E0E0"/>
<path d="M115.034 272.036C114.265 264.127 114.761 257.883 114.216 249.935C114.216 249.292 114.041 248.533 113.447 248.309C112.619 247.987 111.927 249 111.654 249.848C110.5 253.532 110.203 257.432 110.788 261.249C111.372 265.066 112.821 268.699 115.024 271.87" fill="#E0E0E0"/>
<path d="M114.469 272.913C119.836 269.601 123.858 265.266 127.579 260.172C130.16 256.637 132.352 252.38 131.758 248.046C128.125 247.968 124.667 249.994 122.3 252.74C120.042 255.603 118.403 258.903 117.488 262.432C116.436 265.919 115.696 269.494 114.469 272.913Z" fill="#E0E0E0"/>
<path d="M127.345 269.338C139.144 264.971 150.069 258.532 159.605 250.325C155.709 248.776 151.336 249.701 147.488 251.299C138.722 254.854 131.495 260.844 127.18 269.299" fill="#E0E0E0"/>
<path d="M118.09 277.247C124.041 277.89 130.09 278.318 136.002 277.335C141.915 276.351 147.291 274.062 152.716 271.773C153.191 271.641 153.598 271.335 153.856 270.916C153.943 270.664 153.951 270.391 153.878 270.135C153.805 269.879 153.654 269.652 153.447 269.484C153.031 269.153 152.545 268.923 152.025 268.812C146.122 267.166 139.762 267.935 133.957 269.893C128.426 271.784 123.108 274.249 118.09 277.247Z" fill="#E0E0E0"/>
<path d="M84.0857 291.925C80.0241 283.724 80.287 274.149 83.7935 265.705C86.2676 269.464 86.5695 274.257 86.1215 278.737C85.6734 283.218 84.3 287.825 84.1734 292.373" fill="#E0E0E0"/>
<path d="M67.8589 283.734C62.7727 283.667 57.7284 284.662 53.049 286.656C48.3695 288.651 44.1579 291.6 40.6836 295.315C45.7388 296.114 50.9596 294.809 55.557 292.559C60.1544 290.309 64.255 287.153 68.3167 284.016" fill="#E0E0E0"/>
<path d="M56.951 280.091C51.9835 279.682 47.2107 279.068 42.438 280.529C37.6653 281.99 33.3309 285.312 31.3828 289.909C36.0768 290.294 40.7877 289.406 45.0192 287.338C49.2162 285.282 53.2222 282.856 56.99 280.091" fill="#E0E0E0"/>
<path d="M73.1 280.257C68.639 277.335 64.0513 274.354 58.8598 273.136C53.6682 271.919 47.639 272.825 44.0156 276.74C48.2234 279.214 53.3273 279.497 58.1974 279.497C63.0676 279.497 69.0578 279.438 73.6552 281.065" fill="#E0E0E0"/>
<path d="M73.128 280.52C65.4917 273.029 62.5988 259.568 65.6767 249.351C71.6891 258.567 74.3223 269.581 73.128 280.52Z" fill="#E0E0E0"/>
<path d="M94.1094 259.257C95.5509 255.916 96.5639 252.439 97.8594 248.991C99.0359 245.536 100.842 242.329 103.187 239.533C105.581 236.735 108.977 234.986 112.645 234.663C111.472 239.826 109.235 244.688 106.077 248.937C102.919 253.187 98.9094 256.732 94.3042 259.344" fill="#E0E0E0"/>
<path d="M90.308 263.679C87.9314 260.406 85.1749 255.955 81.9508 253.51C78.7268 251.065 74.5093 249.614 70.5742 250.519C72.6136 254.096 75.4593 257.148 78.885 259.433C82.3107 261.717 86.2219 263.171 90.308 263.679Z" fill="#E0E0E0"/>
<path d="M91.0691 259.53C89.3617 255.619 88.1005 251.528 87.3093 247.335C86.6762 243.127 87.0658 238.617 89.2574 234.945C93.4457 242.864 94.7898 251.357 91.3223 259.617" fill="#E0E0E0"/>
<path d="M94.1523 234.945C96.529 227.094 103.717 221.308 111.48 218.659C112.439 218.267 113.478 218.11 114.509 218.201C115.026 218.257 115.514 218.464 115.913 218.797C116.311 219.13 116.603 219.573 116.75 220.071C117.032 221.406 115.932 222.604 114.889 223.49C108.824 228.674 101.769 232.571 94.1523 234.945Z" fill="#E0E0E0"/>
<path d="M94.236 228.526C94.5379 223.461 94.8496 218.328 96.4957 213.526C98.1418 208.724 101.366 204.234 105.934 202.14C106.723 207.253 104.463 212.338 101.746 216.75C99.0282 221.162 95.7457 225.302 94.1094 230.211" fill="#E0E0E0"/>
<path d="M94.1109 232.003C92.1628 226.286 91.9485 219.02 88.52 214.033C86.1336 210.546 82.2959 208.188 80.231 204.487C78.9823 208.027 79.1569 211.914 80.718 215.328C82.275 218.702 84.4186 221.772 87.0492 224.396C89.5914 227.104 91.7537 229.14 94.1109 232.003Z" fill="#E0E0E0"/>
<path d="M94.1522 400.481C94.006 400.481 93.8697 362.318 93.8599 315.253C93.8502 268.188 93.9671 230.016 94.1132 230.016C94.2593 230.016 94.4054 268.169 94.4151 315.253C94.4249 362.338 94.308 400.481 94.1522 400.481Z" fill="#E0E0E0"/>
<path d="M127.501 286.159C127.044 286.39 126.564 286.573 126.069 286.705L122.124 288.039C118.793 289.169 114.215 290.815 109.248 292.851C104.28 294.886 99.7021 296.669 97.0625 298.958C96.009 299.835 95.1695 300.941 94.608 302.192C94.2281 303.088 94.1599 303.643 94.1112 303.633C94.0879 303.501 94.0879 303.366 94.1112 303.234C94.1655 302.851 94.2602 302.476 94.3937 302.114C94.8925 300.785 95.7123 299.601 96.7801 298.666C98.3724 297.315 100.154 296.206 102.069 295.373C104.192 294.399 106.53 293.357 109.024 292.334C114.001 290.299 118.608 288.701 121.978 287.659C123.663 287.143 125.037 286.753 125.991 286.5C126.484 286.345 126.989 286.23 127.501 286.159Z" fill="#E0E0E0"/>
<path d="M138.438 259.315C138.317 259.471 138.18 259.615 138.029 259.744L136.812 260.893L132.234 265.042L117.019 278.572C111.078 283.861 105.945 288.916 102.409 292.714C100.627 294.614 99.224 296.192 98.2695 297.292L97.1591 298.549C96.9058 298.841 96.7597 298.987 96.75 298.968C96.8363 298.792 96.9443 298.629 97.0714 298.481C97.3052 298.179 97.6461 297.721 98.1039 297.156C99.0097 296.007 100.373 294.39 102.117 292.451C106.715 287.438 111.572 282.668 116.669 278.162C122.63 272.883 128.055 268.149 132 264.731L136.685 260.708L137.981 259.637C138.312 259.412 138.419 259.296 138.438 259.315Z" fill="#E0E0E0"/>
<path d="M110.611 283.968C110.455 283.9 111.692 281.046 112.929 277.413C114.166 273.779 114.76 270.731 114.877 270.76C114.737 273.094 114.241 275.394 113.406 277.578C112.873 279.14 112.255 280.671 111.556 282.166C111.325 282.807 111.007 283.413 110.611 283.968Z" fill="#E0E0E0"/>
<path d="M94.1865 307.072C93.8467 306.749 93.54 306.393 93.271 306.01L90.9235 303C88.9755 300.458 86.2287 296.942 83.18 293.094C80.1313 289.247 77.3359 285.799 75.2904 283.305L72.8943 280.334C72.5791 279.988 72.3015 279.609 72.0664 279.205C72.4237 279.495 72.7501 279.821 73.0404 280.179C73.6443 280.841 74.5112 281.815 75.5632 283.033C77.6768 285.468 80.5307 288.877 83.5891 292.773C86.6476 296.669 89.3261 300.175 91.2158 302.786C92.1898 304.091 92.9203 305.153 93.4268 305.903C93.7215 306.264 93.9763 306.656 94.1865 307.072Z" fill="#E0E0E0"/>
<path d="M86.8732 297.682C85.4022 296.047 84.3524 294.077 83.8147 291.945C83.2377 290.074 83.0001 288.114 83.1134 286.159H83.3569C83.2498 286.607 83.1719 286.841 83.1232 286.831C83.0744 286.821 83.1232 286.578 83.1232 286.12H83.3667C83.4925 288.026 83.8189 289.913 84.3407 291.75C85.0333 293.789 85.8799 295.772 86.8732 297.682Z" fill="#E0E0E0"/>
<path d="M77.4335 285.809C76.7753 285.303 76.0552 284.884 75.2907 284.562C73.3687 283.989 71.347 283.829 69.3589 284.094C67.3414 284.25 65.3408 284.575 63.3783 285.068C62.5717 285.321 61.7482 285.516 60.9141 285.653C61.6491 285.217 62.4429 284.889 63.2712 284.679C65.2352 284.074 67.2609 283.692 69.3102 283.539C71.3759 283.265 73.4773 283.492 75.4368 284.201C76.2701 284.487 76.9767 285.055 77.4335 285.809Z" fill="#E0E0E0"/>
<path d="M75.1915 282.925C75.1915 283.013 73.9448 282.429 71.9188 281.737C69.2723 280.837 66.5237 280.271 63.737 280.052C60.9511 279.848 58.1507 279.989 55.3993 280.471C53.2857 280.851 52.0097 281.25 51.9805 281.162C52.2493 280.996 52.5415 280.871 52.8474 280.792C53.6571 280.509 54.4833 280.274 55.3214 280.091C60.9096 278.858 66.7376 279.302 72.0746 281.367C72.8682 281.688 73.6422 282.056 74.3928 282.468C74.6794 282.581 74.9484 282.736 75.1915 282.925Z" fill="#E0E0E0"/>
<path d="M94.112 270.779C93.1406 268.063 92.3435 265.288 91.7256 262.471C90.9253 259.703 90.3071 256.885 89.875 254.036C90.8411 256.753 91.6381 259.528 92.2614 262.344C93.0562 265.114 93.6743 267.931 94.112 270.779Z" fill="#E0E0E0"/>
<path d="M94.2642 270.779C93.4976 269.061 92.6123 267.398 91.6149 265.802C90.487 264.306 89.1783 262.954 87.7188 261.779C88.2723 261.92 88.7857 262.186 89.2188 262.559C90.3258 263.364 91.2876 264.352 92.0629 265.481C93.2551 267.019 94.015 268.849 94.2642 270.779Z" fill="#E0E0E0"/>
<path d="M94.1492 380.143C94.0908 380.143 93.9836 379.218 93.5453 377.601C92.9192 375.321 92.0676 373.108 91.0031 370.997C88.3635 365.601 83.5615 358.773 77.4641 351.935C74.4447 348.477 71.5128 345.224 69.0291 342.107C66.7966 339.363 64.7777 336.452 62.9901 333.4C61.7915 331.339 60.7747 329.179 59.9511 326.942C59.6687 326.143 59.4641 325.529 59.3473 325.091C59.2728 324.88 59.2206 324.661 59.1914 324.438C59.1914 324.438 59.5226 325.305 60.1654 326.864C61.0574 329.052 62.1089 331.171 63.3115 333.205C65.134 336.209 67.1718 339.077 69.4089 341.786C71.9024 344.874 74.8343 348.107 77.8635 351.526C83.9804 358.393 88.7628 365.309 91.3343 370.783C92.3731 372.934 93.1796 375.191 93.7401 377.513C93.9154 378.341 94.0323 378.984 94.081 379.461C94.1277 379.685 94.1505 379.914 94.1492 380.143Z" fill="#E0E0E0"/>
<path d="M124.287 346.101C123.78 346.43 123.253 346.726 122.709 346.987C121.281 347.788 119.913 348.693 118.618 349.695C116.697 351.174 114.896 352.802 113.231 354.565C111.342 356.562 109.404 358.87 107.387 361.383C103.413 366.37 99.7023 370.773 97.4815 374.289C96.3516 376.032 95.5334 377.503 94.9977 378.536C94.7412 379.087 94.4483 379.621 94.1211 380.133C94.1475 379.977 94.1967 379.826 94.2672 379.685C94.3841 379.393 94.5497 378.974 94.8029 378.448C95.4932 376.946 96.2772 375.488 97.1503 374.084C99.3127 370.48 102.994 366.01 106.959 361.042C108.907 358.549 110.913 356.23 112.803 354.224C114.497 352.445 116.342 350.816 118.316 349.354C119.648 348.371 121.062 347.504 122.543 346.763C123.069 346.5 123.517 346.344 123.78 346.217C123.94 346.146 124.112 346.106 124.287 346.101Z" fill="#E0E0E0"/>
<path d="M124.88 357.146C123.78 357.386 122.663 357.546 121.539 357.623C118.858 357.906 116.208 358.427 113.62 359.182C111.067 360.02 108.67 361.278 106.53 362.903C104.903 364.169 104.133 365.211 104.056 365.153C103.978 365.094 104.182 364.851 104.552 364.383C105.068 363.732 105.649 363.135 106.286 362.601C108.406 360.858 110.839 359.535 113.455 358.705C116.073 357.922 118.773 357.445 121.5 357.282C122.62 357.127 123.752 357.081 124.88 357.146Z" fill="#E0E0E0"/>
<path d="M105.026 363.945C104.85 363.838 106.35 361.539 107.519 358.452C108.688 355.364 108.873 352.607 109.068 352.607C109.149 353.204 109.129 353.81 109.01 354.4C108.851 355.839 108.524 357.254 108.036 358.617C107.529 359.983 106.876 361.289 106.087 362.513C105.809 363.042 105.451 363.525 105.026 363.945Z" fill="#E0E0E0"/>
<path d="M134.047 316.451C133.885 316.569 133.708 316.664 133.521 316.734L131.953 317.445C131.261 317.747 130.423 318.117 129.488 318.614C128.553 319.11 127.443 319.588 126.293 320.289L124.472 321.322C123.849 321.692 123.215 322.12 122.524 322.539C121.18 323.348 119.836 324.351 118.404 325.373C115.348 327.681 112.47 330.214 109.793 332.951C107.155 335.721 104.723 338.68 102.517 341.805C101.543 343.276 100.569 344.659 99.8194 346.033C99.4298 346.705 99.0207 347.348 98.6798 347.981L97.7058 349.831C97.0532 351 96.5954 352.12 96.1376 353.085C95.6798 354.049 95.3291 354.886 95.0564 355.578L94.4817 357.185C94.4134 357.373 94.3252 357.552 94.2188 357.721C94.2421 357.523 94.2946 357.329 94.3746 357.146C94.5207 356.718 94.7058 356.172 94.9395 355.51C95.1733 354.847 95.4947 353.942 95.9136 352.968C96.3324 351.994 96.7902 350.854 97.4136 349.666C97.7155 349.072 98.0369 348.438 98.3876 347.786C98.7382 347.133 99.1278 346.481 99.5174 345.838C100.267 344.445 101.222 343.052 102.196 341.562C104.389 338.391 106.825 335.395 109.482 332.601C112.186 329.85 115.097 327.31 118.19 325.003C119.641 324.029 121.004 322.987 122.368 322.188C123.04 321.779 123.673 321.351 124.316 321L126.167 320.026C127.336 319.354 128.456 318.877 129.41 318.409C130.365 317.942 131.222 317.591 131.923 317.328L133.53 316.714C133.692 316.608 133.865 316.52 134.047 316.451Z" fill="#E0E0E0"/>
<path d="M110.203 332.435C110.424 331.665 110.881 330.984 111.508 330.487C112.98 329.214 114.852 328.497 116.797 328.461C118.705 328.454 120.595 328.825 122.359 329.552C123.107 329.786 123.816 330.131 124.463 330.575C123.702 330.416 122.956 330.194 122.232 329.912C120.487 329.323 118.659 329.02 116.817 329.016C114.985 329.051 113.213 329.672 111.762 330.789C111.199 331.296 110.678 331.846 110.203 332.435Z" fill="#E0E0E0"/>
<path d="M106.637 336.107C107.34 334.553 107.844 332.917 108.137 331.237C108.243 329.531 108.129 327.819 107.796 326.143C108.114 326.56 108.328 327.048 108.419 327.565C109.066 330.024 108.76 332.637 107.562 334.88C107.143 335.717 106.685 336.146 106.637 336.107Z" fill="#E0E0E0"/>
<path d="M67.7891 385.607C68.617 400.218 73.0098 415.023 79.7696 430.023H109.166C115.614 415.179 119.705 400.364 120.435 385.607H67.7891Z" fill="#E0E0E0"/>
<path d="M115.665 409.208C115.665 409.364 105.993 409.48 94.0511 409.48C82.1096 409.48 72.4375 409.364 72.4375 409.208C72.4375 409.052 82.1096 408.935 94.0511 408.935C105.993 408.935 115.665 409.091 115.665 409.208Z" fill="#FAFAFA"/>
<path d="M115.014 414.497C115.014 414.643 105.936 414.77 94.7441 414.77C83.5526 414.77 74.4844 414.643 74.4844 414.497C74.4844 414.351 83.5526 414.214 94.7441 414.214C105.936 414.214 115.014 414.341 115.014 414.497Z" fill="#FAFAFA"/>
<path d="M80.2376 395.182C80.6142 399.691 80.6142 404.222 80.2376 408.731C79.8739 404.222 79.8739 399.691 80.2376 395.182Z" fill="#FAFAFA"/>
<path d="M96.0012 395.182C96.3649 399.85 96.3649 404.54 96.0012 409.208C95.6246 404.54 95.6246 399.85 96.0012 395.182Z" fill="#FAFAFA"/>
<path d="M110.786 395.065C111.15 399.827 111.15 404.611 110.786 409.373C110.41 404.611 110.41 399.827 110.786 395.065Z" fill="#FAFAFA"/>
<path d="M119.501 395.182C119.501 395.338 108.144 395.464 94.1762 395.464C80.2087 395.464 68.8516 395.338 68.8516 395.182C68.8516 395.026 80.199 394.909 94.1762 394.909C108.154 394.909 119.501 395.036 119.501 395.182Z" fill="#FAFAFA"/>
<path d="M446.482 430.451C446.482 430.597 355.596 430.714 243.514 430.714C131.433 430.714 40.5273 430.597 40.5273 430.451C40.5273 430.305 131.394 430.198 243.514 430.198C355.634 430.198 446.482 430.315 446.482 430.451Z" fill="#263238"/>
<path d="M389.22 16.7727H123.594C117.381 16.7727 112.344 21.8095 112.344 28.0227V419.006C112.344 425.22 117.381 430.256 123.594 430.256H389.22C395.434 430.256 400.47 425.22 400.47 419.006V28.0227C400.47 21.8095 395.434 16.7727 389.22 16.7727Z" fill="#263238"/>
<path d="M390.838 46.2759H120.887V391.588H390.838V46.2759Z" fill="white"/>
<path d="M268.411 410.425C268.314 409.442 268.154 408.466 267.933 407.503C267.518 405.904 266.772 404.41 265.745 403.116C264.718 401.822 263.432 400.758 261.969 399.99C260.506 399.222 258.899 398.769 257.251 398.659C255.603 398.549 253.949 398.784 252.398 399.351C251.332 399.734 250.331 400.276 249.427 400.958C248.47 401.653 247.631 402.499 246.943 403.461C245.458 405.472 244.656 407.906 244.656 410.406C244.656 412.906 245.458 415.34 246.943 417.351C247.634 418.308 248.472 419.149 249.427 419.844C250.329 420.529 251.331 421.071 252.398 421.451C254.376 422.174 256.511 422.355 258.583 421.977C260.391 421.654 262.097 420.906 263.56 419.795C265.707 418.188 267.248 415.902 267.933 413.308C268.154 412.345 268.314 411.369 268.411 410.386C268.434 410.642 268.434 410.9 268.411 411.156C268.412 411.466 268.39 411.775 268.342 412.081C268.297 412.505 268.222 412.925 268.118 413.338C267.57 415.592 266.387 417.642 264.709 419.244C263.031 420.846 260.928 421.934 258.651 422.377C256.504 422.785 254.288 422.61 252.232 421.87C249.957 421.045 247.975 419.568 246.534 417.623C244.985 415.527 244.148 412.988 244.148 410.381C244.148 407.774 244.985 405.236 246.534 403.14C247.975 401.195 249.957 399.718 252.232 398.893C254.289 398.157 256.504 397.982 258.651 398.386C260.928 398.829 263.031 399.917 264.709 401.519C266.387 403.121 267.57 405.171 268.118 407.425C268.222 407.839 268.296 408.258 268.342 408.682C268.392 409.004 268.415 409.33 268.411 409.656C268.434 409.912 268.434 410.169 268.411 410.425Z" fill="#455A64"/>
<path d="M298.607 28.6851H214.208C213.552 28.6851 213.02 29.2171 213.02 29.8734V32.0649C213.02 32.7212 213.552 33.2532 214.208 33.2532H298.607C299.263 33.2532 299.796 32.7212 299.796 32.0649V29.8734C299.796 29.2171 299.263 28.6851 298.607 28.6851Z" fill="#455A64"/>
<path d="M301.654 98.4155H235.469V178.48H301.654V98.4155Z" fill="#FAFAFA"/>
<path d="M301.655 178.48C301.655 178.48 301.655 178.344 301.655 178.091C301.655 177.838 301.655 177.458 301.655 176.971C301.655 175.997 301.655 174.516 301.655 172.627C301.655 168.828 301.655 163.286 301.597 156.253C301.597 142.198 301.529 122.211 301.48 98.4155L301.704 98.6395H235.529L235.714 98.3765C235.714 127.977 235.714 155.513 235.714 178.441L235.499 178.237L283.49 178.344L296.912 178.393H300.457H301.685C301.685 178.393 301.295 178.393 300.506 178.393H296.999L283.626 178.451L235.499 178.558H235.285V178.344C235.285 155.415 235.285 127.88 235.285 98.2791V98.0259H235.548H301.723H301.947V98.3765C301.947 122.23 301.87 142.266 301.84 156.36C301.84 163.364 301.792 168.896 301.782 172.685C301.782 174.555 301.782 175.997 301.782 176.98C301.782 177.458 301.782 177.818 301.782 178.081C301.782 178.344 301.655 178.48 301.655 178.48Z" fill="#EBEBEB"/>
<path d="M390.838 46.2759H120.887V71.7564H390.838V46.2759Z" fill="#E0E0E0"/>
<path d="M137.834 59.4643C137.8 60.0764 137.587 60.665 137.222 61.1574C136.857 61.6498 136.355 62.0243 135.779 62.2348C135.203 62.4452 134.579 62.4823 133.982 62.3414C133.385 62.2005 132.843 61.8878 132.422 61.4421C132.001 60.9963 131.72 60.4369 131.614 59.8332C131.508 59.2294 131.581 58.6078 131.824 58.045C132.067 57.4822 132.47 57.003 132.982 56.6667C133.495 56.3304 134.095 56.1516 134.708 56.1526C135.131 56.1639 135.547 56.2587 135.933 56.4314C136.32 56.6041 136.668 56.8514 136.959 57.1591C137.249 57.4668 137.476 57.8288 137.626 58.2244C137.777 58.62 137.847 59.0413 137.834 59.4643Z" fill="#263238"/>
<path d="M149.463 59.4643C149.429 60.0764 149.216 60.665 148.851 61.1574C148.486 61.6498 147.984 62.0243 147.408 62.2348C146.832 62.4452 146.208 62.4823 145.611 62.3414C145.014 62.2005 144.472 61.8878 144.051 61.4421C143.63 60.9963 143.349 60.4369 143.243 59.8332C143.137 59.2294 143.209 58.6078 143.453 58.045C143.696 57.4822 144.098 57.003 144.611 56.6667C145.124 56.3304 145.723 56.1516 146.337 56.1526C147.19 56.1781 147.998 56.541 148.585 57.1619C149.171 57.7827 149.487 58.6108 149.463 59.4643Z" fill="#263238"/>
<path d="M161.092 59.4643C161.058 60.0764 160.845 60.665 160.48 61.1574C160.114 61.6498 159.613 62.0243 159.037 62.2348C158.461 62.4452 157.836 62.4823 157.24 62.3414C156.643 62.2005 156.101 61.8878 155.68 61.4421C155.259 60.9963 154.978 60.4369 154.872 59.8332C154.765 59.2294 154.838 58.6078 155.081 58.045C155.325 57.4822 155.727 57.003 156.24 56.6667C156.752 56.3304 157.352 56.1516 157.965 56.1526C158.819 56.1781 159.627 56.541 160.214 57.1619C160.8 57.7827 161.116 58.6108 161.092 59.4643Z" fill="#263238"/>
<path d="M299.326 80.8538H237.797C236.511 80.8538 235.469 81.896 235.469 83.1817V97.0129C235.469 98.2985 236.511 99.3408 237.797 99.3408H299.326C300.612 99.3408 301.654 98.2985 301.654 97.0129V83.1817C301.654 81.896 300.612 80.8538 299.326 80.8538Z" fill="#FF725E"/>
<path d="M299.336 99.3505C299.89 99.3089 300.416 99.0904 300.836 98.7272C301.08 98.5026 301.273 98.2278 301.4 97.9218C301.528 97.6158 301.588 97.2858 301.576 96.9544C301.576 96.146 301.576 95.2207 301.576 94.1785C301.576 92.0746 301.576 89.5129 301.576 86.5518C301.576 85.8116 301.576 85.0421 301.576 84.2434C301.576 83.8538 301.576 83.435 301.576 83.0454C301.55 82.6588 301.422 82.2859 301.206 81.9642C300.973 81.6254 300.653 81.3559 300.279 81.1844C299.905 81.013 299.492 80.9458 299.083 80.9902H296.346L237.904 81.0681C237.586 81.0684 237.273 81.1414 236.988 81.2815C236.702 81.4217 236.453 81.6252 236.258 81.8765C236.07 82.1321 235.938 82.424 235.869 82.7337C235.844 83.0579 235.844 83.3835 235.869 83.7077V96.1168C235.78 96.7429 235.871 97.3815 236.132 97.9577C236.276 98.2168 236.474 98.442 236.713 98.6184C236.951 98.7947 237.225 98.9182 237.515 98.9804C237.838 99.0185 238.165 99.0185 238.489 98.9804H249.028L275.326 99.0291L293.044 99.1168H297.856H299.112C299.255 99.1042 299.398 99.1042 299.541 99.1168H299.112H297.856L293.044 99.1655L275.326 99.2434L249.028 99.3018H238.304C237.958 99.3148 237.613 99.2952 237.271 99.2434C236.911 99.1683 236.571 99.0175 236.274 98.8008C235.977 98.5842 235.729 98.3067 235.547 97.9869C235.372 97.6615 235.266 97.3034 235.236 96.935C235.236 96.5551 235.236 96.2531 235.236 95.9025C235.236 93.2142 235.236 90.4772 235.236 87.6915V83.7661C235.203 83.4 235.203 83.0316 235.236 82.6655C235.313 82.2784 235.479 81.9147 235.723 81.6038C235.967 81.2966 236.278 81.0492 236.633 80.8804C236.987 80.7116 237.375 80.6259 237.768 80.6298L296.21 80.6979H299.024C299.484 80.653 299.948 80.7312 300.367 80.9247C300.786 81.1181 301.147 81.4198 301.411 81.7986C301.664 82.1639 301.813 82.5918 301.839 83.0356C301.839 83.4642 301.839 83.8538 301.839 84.2531C301.839 85.0518 301.839 85.8213 301.839 86.5616C301.839 89.4837 301.839 92.0843 301.791 94.1882C301.791 95.2304 301.791 96.1363 301.791 96.9642C301.794 97.3141 301.722 97.6607 301.579 97.9802C301.436 98.2996 301.226 98.5843 300.963 98.8148C300.638 99.0908 300.244 99.2726 299.823 99.3408C299.663 99.3746 299.498 99.3779 299.336 99.3505Z" fill="#F5F5F5"/>
<path d="M376.22 80.854H314.691C313.406 80.854 312.363 81.8962 312.363 83.1819V97.0131C312.363 98.2988 313.406 99.341 314.691 99.341H376.22C377.506 99.341 378.548 98.2988 378.548 97.0131V83.1819C378.548 81.8962 377.506 80.854 376.22 80.854Z" fill="#F5F5F5"/>
<path d="M376.228 99.3505C376.782 99.3089 377.308 99.0904 377.728 98.7272C377.973 98.503 378.167 98.2286 378.297 97.9227C378.426 97.6168 378.488 97.2865 378.478 96.9544C378.478 96.1427 378.478 95.2174 378.478 94.1785C378.478 92.0746 378.478 89.5129 378.478 86.5518C378.478 85.8116 378.478 85.0421 378.478 84.2434C378.478 83.8538 378.478 83.435 378.478 83.0454C378.456 82.6579 378.328 82.284 378.108 81.9642C377.875 81.6254 377.554 81.3559 377.18 81.1844C376.807 81.013 376.393 80.9458 375.985 80.9902H373.15L314.709 81.0681C314.391 81.0684 314.077 81.1414 313.792 81.2815C313.506 81.4217 313.257 81.6252 313.062 81.8765C312.875 82.1321 312.742 82.424 312.673 82.7337C312.649 83.0579 312.649 83.3835 312.673 83.7077V96.1168C312.584 96.7429 312.675 97.3815 312.936 97.9577C313.081 98.216 313.28 98.4406 313.518 98.6169C313.756 98.7931 314.029 98.917 314.319 98.9804C314.642 99.0185 314.969 99.0185 315.293 98.9804H325.832L352.131 99.0291L369.848 99.1168H374.66H375.916C376.059 99.1042 376.202 99.1042 376.345 99.1168H375.916H374.66L369.848 99.1655L352.131 99.2434L325.832 99.3018H315.196C314.85 99.3148 314.505 99.2952 314.163 99.2434C313.803 99.1683 313.463 99.0175 313.166 98.8008C312.868 98.5842 312.621 98.3067 312.439 97.9869C312.264 97.6615 312.158 97.3034 312.127 96.935C312.127 96.5551 312.127 96.2531 312.127 95.9025C312.127 93.2142 312.127 90.4772 312.127 87.6915V83.7661C312.111 83.3985 312.127 83.0302 312.176 82.6655C312.257 82.2797 312.423 81.9169 312.663 81.6038C312.908 81.2966 313.219 81.0492 313.573 80.8804C313.928 80.7116 314.316 80.6259 314.709 80.6298L373.15 80.6979H375.887C376.347 80.653 376.81 80.7312 377.23 80.9247C377.649 81.1181 378.009 81.4198 378.273 81.7986C378.527 82.1639 378.675 82.5918 378.702 83.0356C378.702 83.4642 378.702 83.8538 378.702 84.2531C378.702 85.0518 378.702 85.8213 378.702 86.5616C378.702 89.4837 378.702 92.0843 378.653 94.1882C378.653 95.2304 378.653 96.1363 378.653 96.9642C378.657 97.3141 378.585 97.6607 378.442 97.9802C378.299 98.2996 378.089 98.5844 377.825 98.8148C377.501 99.0908 377.107 99.2726 376.686 99.3408C376.535 99.371 376.38 99.3743 376.228 99.3505Z" fill="#263238"/>
<path d="M173.262 148.437C185.315 144.826 192.158 132.127 188.546 120.074C184.935 108.021 172.236 101.178 160.183 104.79C148.13 108.401 141.287 121.1 144.899 133.153C148.51 145.206 161.209 152.049 173.262 148.437Z" fill="#E0E0E0"/>
<path d="M196.878 178.247C196.878 178.383 183.378 178.5 166.683 178.5C149.988 178.5 136.488 178.383 136.488 178.247C136.488 178.11 149.988 177.993 166.683 177.993C183.378 177.993 196.878 178.101 196.878 178.247Z" fill="#263238"/>
<path d="M196.878 193.734C196.878 193.88 183.378 193.987 166.683 193.987C149.988 193.987 136.488 193.88 136.488 193.734C136.488 193.588 149.988 193.48 166.683 193.48C183.378 193.48 196.878 193.597 196.878 193.734Z" fill="#263238"/>
<path d="M196.878 209.231C196.878 209.377 183.378 209.484 166.683 209.484C149.988 209.484 136.488 209.377 136.488 209.231C136.488 209.084 149.988 208.977 166.683 208.977C183.378 208.977 196.878 209.094 196.878 209.231Z" fill="#263238"/>
<path d="M196.878 224.727C196.878 224.864 183.378 224.981 166.683 224.981C149.988 224.981 136.488 224.864 136.488 224.727C136.488 224.591 149.988 224.474 166.683 224.474C183.378 224.474 196.878 224.591 196.878 224.727Z" fill="#263238"/>
<path d="M150.161 262.173C154.233 260.476 156.158 255.8 154.462 251.728C152.765 247.656 148.089 245.731 144.017 247.428C139.945 249.124 138.02 253.8 139.716 257.872C141.413 261.944 146.089 263.869 150.161 262.173Z" fill="#E0E0E0"/>
<path d="M150.157 295.692C154.229 293.995 156.154 289.319 154.458 285.247C152.761 281.176 148.085 279.25 144.013 280.947C139.941 282.643 138.016 287.319 139.713 291.391C141.409 295.463 146.085 297.388 150.157 295.692Z" fill="#E0E0E0"/>
<path d="M147.085 329.825C151.496 329.825 155.072 326.249 155.072 321.838C155.072 317.427 151.496 313.851 147.085 313.851C142.674 313.851 139.098 317.427 139.098 321.838C139.098 326.249 142.674 329.825 147.085 329.825Z" fill="#E0E0E0"/>
<path d="M147.085 363.351C151.496 363.351 155.072 359.775 155.072 355.363C155.072 350.952 151.496 347.376 147.085 347.376C142.674 347.376 139.098 350.952 139.098 355.363C139.098 359.775 142.674 363.351 147.085 363.351Z" fill="#E0E0E0"/>
<path d="M194.074 254.805C194.074 254.942 186.467 255.058 177.096 255.058C167.726 255.058 160.109 254.942 160.109 254.805C160.109 254.669 167.707 254.552 177.096 254.552C186.486 254.552 194.074 254.669 194.074 254.805Z" fill="#263238"/>
<path d="M194.074 288.312C194.074 288.458 186.467 288.565 177.096 288.565C167.726 288.565 160.109 288.458 160.109 288.312C160.109 288.165 167.707 288.058 177.096 288.058C186.486 288.058 194.074 288.185 194.074 288.312Z" fill="#263238"/>
<path d="M194.074 321.838C194.074 321.984 186.467 322.101 177.096 322.101C167.726 322.101 160.109 321.984 160.109 321.838C160.109 321.692 167.707 321.584 177.096 321.584C186.486 321.584 194.074 321.701 194.074 321.838Z" fill="#263238"/>
<path d="M194.074 355.364C194.074 355.5 186.467 355.617 177.096 355.617C167.726 355.617 160.109 355.5 160.109 355.364C160.109 355.227 167.707 355.11 177.096 355.11C186.486 355.11 194.074 355.218 194.074 355.364Z" fill="#263238"/>
<path d="M280.927 90.0975C280.927 90.2339 272.648 90.3507 262.421 90.3507C252.193 90.3507 243.914 90.2339 243.914 90.0975C243.914 89.9611 252.193 89.8442 262.421 89.8442C272.648 89.8442 280.927 89.9514 280.927 90.0975Z" fill="white"/>
<path d="M287.822 89.2209L289.244 91.1689C289.289 91.2415 289.351 91.3014 289.425 91.343C289.499 91.3845 289.583 91.4064 289.668 91.4064C289.753 91.4064 289.837 91.3845 289.911 91.343C289.985 91.3014 290.047 91.2415 290.092 91.1689L291.27 89.2209C291.317 89.1429 291.341 89.0542 291.342 88.9636C291.343 88.873 291.321 88.7837 291.276 88.7048C291.232 88.6258 291.167 88.5599 291.089 88.5137C291.011 88.4675 290.923 88.4427 290.832 88.4417H288.241C288.152 88.446 288.066 88.4732 287.991 88.5207C287.915 88.5683 287.854 88.6344 287.812 88.7129C287.769 88.7913 287.748 88.8793 287.75 88.9683C287.752 89.0573 287.777 89.1443 287.822 89.2209Z" fill="white"/>
<path d="M366.932 89.1138L368.344 91.0619C368.39 91.1343 368.453 91.194 368.528 91.2354C368.603 91.2767 368.687 91.2984 368.773 91.2984C368.858 91.2984 368.942 91.2767 369.017 91.2354C369.092 91.194 369.156 91.1343 369.201 91.0619L370.37 89.1138C370.42 89.0364 370.447 88.9471 370.45 88.8553C370.452 88.7635 370.43 88.6727 370.385 88.5926C370.34 88.5126 370.274 88.4463 370.194 88.4009C370.114 88.3554 370.024 88.3325 369.932 88.3346H367.351C367.262 88.3389 367.175 88.3662 367.1 88.4137C367.025 88.4612 366.963 88.5274 366.921 88.6058C366.879 88.6842 366.858 88.7722 366.859 88.8612C366.861 88.9503 366.886 89.0373 366.932 89.1138Z" fill="#263238"/>
<path d="M301.657 115.003C301.657 115.14 286.969 115.256 268.842 115.256C250.716 115.256 236.027 115.14 236.027 115.003C236.027 114.867 250.716 114.75 268.842 114.75C286.969 114.75 301.657 114.857 301.657 115.003Z" fill="#EBEBEB"/>
<path d="M301.657 135.886C301.657 136.023 286.969 136.14 268.842 136.14C250.716 136.14 236.027 136.023 236.027 135.886C236.027 135.75 250.716 135.633 268.842 135.633C286.969 135.633 301.657 135.75 301.657 135.886Z" fill="#EBEBEB"/>
<path d="M301.657 156.818C301.657 156.964 286.969 157.071 268.842 157.071C250.716 157.071 236.027 156.964 236.027 156.818C236.027 156.672 250.716 156.565 268.842 156.565C286.969 156.565 301.657 156.633 301.657 156.818Z" fill="#EBEBEB"/>
<path d="M301.653 115.003H235.215V135.887H301.653V115.003Z" fill="#FF725E"/>
<path d="M291.826 108.429C291.826 108.565 281.745 108.682 269.316 108.682C256.888 108.682 246.797 108.565 246.797 108.429C246.797 108.292 256.878 108.175 269.316 108.175C281.755 108.175 291.826 108.282 291.826 108.429Z" fill="#263238"/>
<path d="M284.638 126.438C284.638 126.575 276.164 126.692 265.722 126.692C255.281 126.692 246.797 126.575 246.797 126.438C246.797 126.302 255.271 126.185 265.722 126.185C276.173 126.185 284.638 126.302 284.638 126.438Z" fill="white"/>
<path d="M291.826 146.328C291.826 146.474 281.745 146.581 269.316 146.581C256.888 146.581 246.797 146.474 246.797 146.328C246.797 146.182 256.878 146.075 269.316 146.075C281.755 146.075 291.826 146.192 291.826 146.328Z" fill="#263238"/>
<path d="M291.826 167.591C291.826 167.727 281.745 167.844 269.316 167.844C256.888 167.844 246.797 167.727 246.797 167.591C246.797 167.455 256.878 167.338 269.316 167.338C281.755 167.338 291.826 167.445 291.826 167.591Z" fill="#263238"/>
<path d="M290.408 128.153L292.356 126.731C292.426 126.685 292.484 126.622 292.524 126.548C292.564 126.474 292.585 126.391 292.585 126.307C292.585 126.223 292.564 126.14 292.524 126.066C292.484 125.992 292.426 125.929 292.356 125.883L290.408 124.705C290.33 124.658 290.241 124.634 290.151 124.633C290.06 124.632 289.971 124.654 289.892 124.699C289.813 124.743 289.747 124.808 289.701 124.886C289.655 124.964 289.63 125.052 289.629 125.143V127.734C289.633 127.823 289.66 127.909 289.708 127.984C289.755 128.06 289.822 128.121 289.9 128.163C289.979 128.206 290.067 128.227 290.156 128.225C290.245 128.223 290.332 128.198 290.408 128.153Z" fill="white"/>
<path d="M367.9 115.003H301.715V198.341H367.9V115.003Z" fill="#FAFAFA"/>
<path d="M367.909 198.331C367.909 198.331 367.909 198.195 367.909 197.932C367.909 197.669 367.909 197.269 367.909 196.763C367.909 195.721 367.909 194.201 367.909 192.234C367.909 188.26 367.909 182.493 367.851 175.159C367.851 160.549 367.783 139.724 367.734 115.003L367.968 115.227H301.734L301.987 114.974C301.987 145.831 301.987 174.506 301.987 198.302L301.773 198.097L349.782 198.204L363.195 198.263H366.731H367.968H366.779H363.283L349.909 198.321L301.773 198.429H301.568V198.214C301.568 174.419 301.568 145.743 301.52 114.886V114.633H301.783H368.016H368.182V114.867C368.133 139.646 368.094 160.5 368.065 175.179C368.065 182.474 368.016 188.24 368.007 192.185C368.007 194.133 368.007 195.643 368.007 196.675C368.007 197.172 368.007 197.552 368.007 197.815C368.007 198.078 367.909 198.331 367.909 198.331Z" fill="#EBEBEB"/>
<path d="M367.905 156.818C367.905 156.964 353.207 157.071 335.081 157.071C316.954 157.071 302.266 156.964 302.266 156.818C302.266 156.672 316.954 156.565 335.081 156.565C353.207 156.565 367.905 156.633 367.905 156.818Z" fill="#EBEBEB"/>
<path d="M367.905 178.481C367.905 178.627 353.207 178.734 335.081 178.734C316.954 178.734 302.266 178.627 302.266 178.481C302.266 178.334 316.954 178.247 335.061 178.247C353.168 178.247 367.905 178.344 367.905 178.481Z" fill="#EBEBEB"/>
<path d="M367.905 135.886C367.905 136.023 353.207 136.14 335.081 136.14C316.954 136.14 302.266 136.023 302.266 135.886C302.266 135.75 316.954 135.633 335.081 135.633C353.207 135.633 367.905 135.75 367.905 135.886Z" fill="#EBEBEB"/>
<path d="M358.07 126.438C358.07 126.575 347.989 126.692 335.561 126.692C323.132 126.692 313.051 126.575 313.051 126.438C313.051 126.302 323.122 126.185 335.561 126.185C347.999 126.185 358.07 126.302 358.07 126.438Z" fill="#263238"/>
<path d="M358.07 146.328C358.07 146.474 347.989 146.581 335.561 146.581C323.132 146.581 313.051 146.474 313.051 146.328C313.051 146.182 323.122 146.075 335.561 146.075C347.999 146.075 358.07 146.192 358.07 146.328Z" fill="#263238"/>
<path d="M368.024 177.195H301.586V198.906H368.024V177.195Z" fill="#FF725E"/>
<path d="M354.34 189.175C354.34 189.312 345.096 189.429 333.69 189.429C322.285 189.429 313.051 189.312 313.051 189.175C313.051 189.039 322.294 188.922 333.69 188.922C345.086 188.922 354.34 189.029 354.34 189.175Z" fill="white"/>
<path d="M358.07 167.591C358.07 167.727 347.989 167.844 335.561 167.844C323.132 167.844 313.051 167.727 313.051 167.591C313.051 167.455 323.122 167.338 335.561 167.338C347.999 167.338 358.07 167.445 358.07 167.591Z" fill="#263238"/>
<path d="M364.004 194.708L365.426 207.497L368.241 205.549L371.377 209.562L374.738 207.156L371.835 203.474L374.903 201.458L364.004 194.708Z" fill="#263238"/>
<path d="M364.773 192.672C364.845 191.913 365.081 191.178 365.465 190.519C365.981 189.389 366.497 188.571 366.624 188.571C366.552 189.33 366.316 190.065 365.933 190.724C365.416 191.883 364.9 192.73 364.773 192.672Z" fill="#263238"/>
<path d="M362.639 193.734C361.71 192.659 360.915 191.475 360.272 190.208C359.479 189.024 358.826 187.752 358.324 186.419C360.031 188.683 361.47 191.137 362.61 193.734H362.639Z" fill="#263238"/>
<path d="M361.059 195.497C360.36 195.603 359.648 195.584 358.955 195.438C358.246 195.458 357.539 195.345 356.871 195.107C357.549 194.84 358.291 194.779 359.004 194.932C359.729 194.921 360.442 195.117 361.059 195.497Z" fill="#263238"/>
<path d="M214.226 394.529C214.08 394.529 213.973 322.266 213.973 233.143C213.973 144.02 214.08 71.7371 214.226 71.7371C214.372 71.7371 214.479 143.99 214.479 233.143C214.479 322.295 214.362 394.529 214.226 394.529Z" fill="#263238"/>
<path d="M371.853 253.753C371.853 253.899 341.921 254.006 305.015 254.006C268.11 254.006 238.168 253.899 238.168 253.753C238.168 253.607 268.09 253.5 305.015 253.5C341.941 253.5 371.853 253.617 371.853 253.753Z" fill="#E0E0E0"/>
<path d="M371.853 223.519C371.853 223.656 341.921 223.773 305.015 223.773C268.11 223.773 238.168 223.656 238.168 223.519C238.168 223.383 268.09 223.266 305.015 223.266C341.941 223.266 371.853 223.373 371.853 223.519Z" fill="#E0E0E0"/>
<path d="M371.853 280.344C371.853 280.48 341.921 280.597 305.015 280.597C268.11 280.597 238.168 280.48 238.168 280.344C238.168 280.208 268.09 280.091 305.015 280.091C341.941 280.091 371.853 280.198 371.853 280.344Z" fill="#E0E0E0"/>
<path d="M371.853 308.981C371.853 309.127 341.921 309.234 305.015 309.234C268.11 309.234 238.168 309.127 238.168 308.981C238.168 308.834 268.09 308.727 305.015 308.727C341.941 308.727 371.853 308.844 371.853 308.981Z" fill="#E0E0E0"/>
<path d="M371.853 337.627C371.853 337.763 341.921 337.88 305.015 337.88C268.11 337.88 238.168 337.763 238.168 337.627C238.168 337.49 268.09 337.373 305.015 337.373C341.941 337.373 371.853 337.49 371.853 337.627Z" fill="#E0E0E0"/>
<path d="M362.222 89.7857C362.222 89.9221 353.281 90.039 342.264 90.039C331.248 90.039 322.297 89.9221 322.297 89.7857C322.297 89.6494 331.229 89.5325 342.264 89.5325C353.3 89.5325 362.222 89.6104 362.222 89.7857Z" fill="#263238"/>
<path d="M163.819 445.468V435.514H166.629C167.495 435.514 168.26 435.706 168.926 436.089C169.591 436.471 170.104 437.016 170.464 437.722C170.828 438.429 171.013 439.24 171.018 440.156V440.792C171.018 441.731 170.835 442.553 170.471 443.26C170.111 443.966 169.593 444.508 168.919 444.886C168.249 445.265 167.467 445.458 166.574 445.468H163.819ZM165.132 436.594V444.394H166.513C167.524 444.394 168.311 444.08 168.871 443.451C169.436 442.822 169.719 441.927 169.719 440.764V440.183C169.719 439.053 169.452 438.176 168.919 437.552C168.39 436.923 167.638 436.604 166.663 436.594H165.132ZM175.878 445.604C174.875 445.604 174.06 445.276 173.431 444.62C172.802 443.959 172.487 443.077 172.487 441.974V441.742C172.487 441.008 172.626 440.354 172.904 439.78C173.187 439.201 173.579 438.75 174.08 438.427C174.586 438.098 175.133 437.934 175.721 437.934C176.682 437.934 177.43 438.251 177.963 438.885C178.496 439.518 178.763 440.425 178.763 441.605V442.132H173.752C173.77 442.861 173.982 443.451 174.388 443.902C174.798 444.349 175.317 444.572 175.946 444.572C176.393 444.572 176.771 444.481 177.081 444.299C177.391 444.116 177.662 443.875 177.895 443.574L178.667 444.176C178.047 445.128 177.118 445.604 175.878 445.604ZM175.721 438.973C175.21 438.973 174.782 439.16 174.436 439.534C174.089 439.903 173.875 440.423 173.793 441.093H177.498V440.997C177.462 440.354 177.288 439.858 176.979 439.507C176.669 439.151 176.249 438.973 175.721 438.973ZM184.539 443.506C184.539 443.164 184.409 442.899 184.149 442.713C183.894 442.521 183.445 442.357 182.803 442.22C182.165 442.084 181.657 441.92 181.278 441.728C180.905 441.537 180.627 441.309 180.444 441.045C180.267 440.78 180.178 440.466 180.178 440.101C180.178 439.495 180.433 438.983 180.943 438.563C181.458 438.144 182.115 437.934 182.912 437.934C183.751 437.934 184.43 438.151 184.949 438.584C185.473 439.017 185.735 439.57 185.735 440.245H184.464C184.464 439.899 184.316 439.6 184.02 439.349C183.728 439.099 183.359 438.973 182.912 438.973C182.452 438.973 182.092 439.074 181.832 439.274C181.572 439.475 181.442 439.737 181.442 440.06C181.442 440.366 181.563 440.596 181.805 440.751C182.046 440.906 182.481 441.054 183.11 441.195C183.744 441.336 184.257 441.505 184.648 441.701C185.04 441.897 185.33 442.134 185.517 442.412C185.708 442.685 185.804 443.02 185.804 443.417C185.804 444.078 185.539 444.608 185.011 445.01C184.482 445.406 183.796 445.604 182.953 445.604C182.361 445.604 181.837 445.499 181.381 445.29C180.925 445.08 180.567 444.788 180.308 444.415C180.052 444.037 179.925 443.629 179.925 443.191H181.189C181.212 443.615 181.381 443.952 181.695 444.203C182.014 444.449 182.434 444.572 182.953 444.572C183.432 444.572 183.814 444.476 184.102 444.285C184.393 444.089 184.539 443.829 184.539 443.506ZM188.825 445.468H187.561V438.071H188.825V445.468ZM187.458 436.109C187.458 435.904 187.52 435.731 187.643 435.59C187.77 435.448 187.957 435.378 188.203 435.378C188.449 435.378 188.636 435.448 188.764 435.59C188.891 435.731 188.955 435.904 188.955 436.109C188.955 436.314 188.891 436.485 188.764 436.622C188.636 436.759 188.449 436.827 188.203 436.827C187.957 436.827 187.77 436.759 187.643 436.622C187.52 436.485 187.458 436.314 187.458 436.109ZM190.555 441.708C190.555 440.555 190.821 439.639 191.354 438.96C191.888 438.276 192.594 437.934 193.474 437.934C194.376 437.934 195.08 438.253 195.586 438.891L195.647 438.071H196.803V445.29C196.803 446.247 196.518 447.001 195.948 447.552C195.383 448.104 194.622 448.38 193.665 448.38C193.132 448.38 192.61 448.266 192.1 448.038C191.589 447.81 191.2 447.498 190.931 447.101L191.587 446.343C192.129 447.012 192.792 447.347 193.576 447.347C194.191 447.347 194.67 447.174 195.012 446.828C195.358 446.482 195.531 445.994 195.531 445.365V444.729C195.025 445.313 194.335 445.604 193.46 445.604C192.594 445.604 191.892 445.256 191.354 444.558C190.821 443.861 190.555 442.911 190.555 441.708ZM191.826 441.851C191.826 442.685 191.997 443.342 192.339 443.82C192.681 444.294 193.159 444.531 193.774 444.531C194.572 444.531 195.158 444.169 195.531 443.444V440.067C195.144 439.361 194.563 439.008 193.788 439.008C193.173 439.008 192.692 439.247 192.346 439.725C191.999 440.204 191.826 440.913 191.826 441.851ZM199.913 438.071L199.954 439.001C200.519 438.29 201.257 437.934 202.169 437.934C203.732 437.934 204.521 438.816 204.534 440.58V445.468H203.27V440.573C203.265 440.04 203.142 439.646 202.9 439.39C202.663 439.135 202.292 439.008 201.786 439.008C201.376 439.008 201.016 439.117 200.706 439.336C200.396 439.554 200.155 439.842 199.981 440.197V445.468H198.717V438.071H199.913ZM209.511 445.604C208.508 445.604 207.692 445.276 207.063 444.62C206.435 443.959 206.12 443.077 206.12 441.974V441.742C206.12 441.008 206.259 440.354 206.537 439.78C206.82 439.201 207.212 438.75 207.713 438.427C208.219 438.098 208.766 437.934 209.354 437.934C210.315 437.934 211.062 438.251 211.596 438.885C212.129 439.518 212.396 440.425 212.396 441.605V442.132H207.385C207.403 442.861 207.615 443.451 208.021 443.902C208.431 444.349 208.95 444.572 209.579 444.572C210.026 444.572 210.404 444.481 210.714 444.299C211.024 444.116 211.295 443.875 211.527 443.574L212.3 444.176C211.68 445.128 210.75 445.604 209.511 445.604ZM209.354 438.973C208.843 438.973 208.415 439.16 208.068 439.534C207.722 439.903 207.508 440.423 207.426 441.093H211.131V440.997C211.094 440.354 210.921 439.858 210.611 439.507C210.301 439.151 209.882 438.973 209.354 438.973ZM213.558 441.708C213.558 440.573 213.826 439.662 214.364 438.973C214.902 438.281 215.606 437.934 216.477 437.934C217.342 437.934 218.028 438.231 218.534 438.823V434.968H219.799V445.468H218.637L218.575 444.675C218.069 445.294 217.365 445.604 216.463 445.604C215.606 445.604 214.907 445.253 214.364 444.552C213.826 443.85 213.558 442.934 213.558 441.803V441.708ZM214.822 441.851C214.822 442.69 214.995 443.346 215.342 443.82C215.688 444.294 216.167 444.531 216.777 444.531C217.579 444.531 218.165 444.171 218.534 443.451V440.053C218.156 439.356 217.575 439.008 216.791 439.008C216.171 439.008 215.688 439.247 215.342 439.725C214.995 440.204 214.822 440.913 214.822 441.851ZM231.502 441.851C231.502 442.982 231.242 443.891 230.723 444.579C230.203 445.262 229.506 445.604 228.631 445.604C227.697 445.604 226.974 445.274 226.464 444.613L226.402 445.468H225.24V434.968H226.505V438.885C227.015 438.251 227.719 437.934 228.617 437.934C229.515 437.934 230.219 438.274 230.729 438.953C231.244 439.632 231.502 440.562 231.502 441.742V441.851ZM230.237 441.708C230.237 440.846 230.071 440.181 229.738 439.712C229.406 439.242 228.927 439.008 228.303 439.008C227.469 439.008 226.869 439.395 226.505 440.17V443.369C226.892 444.144 227.496 444.531 228.316 444.531C228.923 444.531 229.394 444.296 229.731 443.827C230.069 443.358 230.237 442.651 230.237 441.708ZM235.439 443.615L237.162 438.071H238.516L235.542 446.609C235.082 447.84 234.35 448.455 233.348 448.455L233.108 448.434L232.637 448.345V447.32L232.979 447.347C233.407 447.347 233.74 447.261 233.977 447.088C234.218 446.914 234.416 446.598 234.571 446.137L234.852 445.385L232.213 438.071H233.594L235.439 443.615ZM247.43 443.506C247.43 443.164 247.3 442.899 247.04 442.713C246.785 442.521 246.336 442.357 245.693 442.22C245.055 442.084 244.547 441.92 244.169 441.728C243.795 441.537 243.517 441.309 243.335 441.045C243.157 440.78 243.068 440.466 243.068 440.101C243.068 439.495 243.324 438.983 243.834 438.563C244.349 438.144 245.005 437.934 245.803 437.934C246.641 437.934 247.32 438.151 247.84 438.584C248.364 439.017 248.626 439.57 248.626 440.245H247.354C247.354 439.899 247.206 439.6 246.91 439.349C246.618 439.099 246.249 438.973 245.803 438.973C245.342 438.973 244.982 439.074 244.723 439.274C244.463 439.475 244.333 439.737 244.333 440.06C244.333 440.366 244.454 440.596 244.695 440.751C244.937 440.906 245.372 441.054 246.001 441.195C246.634 441.336 247.147 441.505 247.539 441.701C247.931 441.897 248.22 442.134 248.407 442.412C248.599 442.685 248.694 443.02 248.694 443.417C248.694 444.078 248.43 444.608 247.901 445.01C247.373 445.406 246.687 445.604 245.844 445.604C245.251 445.604 244.727 445.499 244.271 445.29C243.816 445.08 243.458 444.788 243.198 444.415C242.943 444.037 242.815 443.629 242.815 443.191H244.08C244.103 443.615 244.271 443.952 244.586 444.203C244.905 444.449 245.324 444.572 245.844 444.572C246.322 444.572 246.705 444.476 246.992 444.285C247.284 444.089 247.43 443.829 247.43 443.506ZM252.058 436.28V438.071H253.438V439.049H252.058V443.635C252.058 443.932 252.119 444.155 252.242 444.305C252.365 444.451 252.575 444.524 252.871 444.524C253.017 444.524 253.217 444.497 253.473 444.442V445.468C253.14 445.559 252.816 445.604 252.502 445.604C251.937 445.604 251.511 445.433 251.224 445.092C250.937 444.75 250.793 444.264 250.793 443.635V439.049H249.446V438.071H250.793V436.28H252.058ZM254.45 441.701C254.45 440.976 254.591 440.325 254.874 439.746C255.161 439.167 255.558 438.72 256.063 438.406C256.574 438.092 257.155 437.934 257.807 437.934C258.814 437.934 259.627 438.283 260.247 438.98C260.871 439.677 261.184 440.605 261.184 441.762V441.851C261.184 442.571 261.045 443.219 260.767 443.793C260.493 444.362 260.099 444.807 259.584 445.126C259.074 445.445 258.486 445.604 257.82 445.604C256.818 445.604 256.004 445.256 255.38 444.558C254.76 443.861 254.45 442.938 254.45 441.79V441.701ZM255.722 441.851C255.722 442.672 255.911 443.33 256.289 443.827C256.672 444.324 257.182 444.572 257.82 444.572C258.463 444.572 258.973 444.321 259.352 443.82C259.73 443.314 259.919 442.608 259.919 441.701C259.919 440.89 259.725 440.233 259.338 439.732C258.955 439.226 258.445 438.973 257.807 438.973C257.182 438.973 256.679 439.222 256.296 439.719C255.913 440.215 255.722 440.926 255.722 441.851ZM266.345 439.206C266.153 439.174 265.946 439.158 265.723 439.158C264.893 439.158 264.33 439.511 264.034 440.218V445.468H262.77V438.071H264L264.021 438.926C264.435 438.265 265.023 437.934 265.784 437.934C266.03 437.934 266.217 437.966 266.345 438.03V439.206ZM268.888 445.468H267.623V438.071H268.888V445.468ZM267.521 436.109C267.521 435.904 267.582 435.731 267.705 435.59C267.833 435.448 268.02 435.378 268.266 435.378C268.512 435.378 268.699 435.448 268.826 435.59C268.954 435.731 269.018 435.904 269.018 436.109C269.018 436.314 268.954 436.485 268.826 436.622C268.699 436.759 268.512 436.827 268.266 436.827C268.02 436.827 267.833 436.759 267.705 436.622C267.582 436.485 267.521 436.314 267.521 436.109ZM273.987 445.604C272.985 445.604 272.169 445.276 271.54 444.62C270.911 443.959 270.597 443.077 270.597 441.974V441.742C270.597 441.008 270.736 440.354 271.014 439.78C271.296 439.201 271.688 438.75 272.189 438.427C272.695 438.098 273.242 437.934 273.83 437.934C274.792 437.934 275.539 438.251 276.072 438.885C276.605 439.518 276.872 440.425 276.872 441.605V442.132H271.861C271.88 442.861 272.091 443.451 272.497 443.902C272.907 444.349 273.427 444.572 274.056 444.572C274.502 444.572 274.881 444.481 275.19 444.299C275.5 444.116 275.771 443.875 276.004 443.574L276.776 444.176C276.157 445.128 275.227 445.604 273.987 445.604ZM273.83 438.973C273.32 438.973 272.891 439.16 272.545 439.534C272.199 439.903 271.984 440.423 271.902 441.093H275.607V440.997C275.571 440.354 275.398 439.858 275.088 439.507C274.778 439.151 274.359 438.973 273.83 438.973ZM282.648 443.506C282.648 443.164 282.519 442.899 282.259 442.713C282.004 442.521 281.555 442.357 280.912 442.22C280.274 442.084 279.766 441.92 279.388 441.728C279.014 441.537 278.736 441.309 278.554 441.045C278.376 440.78 278.287 440.466 278.287 440.101C278.287 439.495 278.542 438.983 279.053 438.563C279.568 438.144 280.224 437.934 281.021 437.934C281.86 437.934 282.539 438.151 283.059 438.584C283.583 439.017 283.845 439.57 283.845 440.245H282.573C282.573 439.899 282.425 439.6 282.129 439.349C281.837 439.099 281.468 438.973 281.021 438.973C280.561 438.973 280.201 439.074 279.941 439.274C279.682 439.475 279.552 439.737 279.552 440.06C279.552 440.366 279.673 440.596 279.914 440.751C280.156 440.906 280.591 441.054 281.22 441.195C281.853 441.336 282.366 441.505 282.758 441.701C283.15 441.897 283.439 442.134 283.626 442.412C283.817 442.685 283.913 443.02 283.913 443.417C283.913 444.078 283.649 444.608 283.12 445.01C282.591 445.406 281.906 445.604 281.062 445.604C280.47 445.604 279.946 445.499 279.49 445.29C279.035 445.08 278.677 444.788 278.417 444.415C278.162 444.037 278.034 443.629 278.034 443.191H279.299C279.322 443.615 279.49 443.952 279.805 444.203C280.124 444.449 280.543 444.572 281.062 444.572C281.541 444.572 281.924 444.476 282.211 444.285C282.503 444.089 282.648 443.829 282.648 443.506ZM289.286 446.322H288.199L292.355 435.514H293.436L289.286 446.322ZM303.963 441.072H299.786V445.468H298.474V435.514H304.64V436.594H299.786V439.999H303.963V441.072ZM309.411 439.206C309.22 439.174 309.012 439.158 308.789 439.158C307.96 439.158 307.397 439.511 307.101 440.218V445.468H305.836V438.071H307.066L307.087 438.926C307.502 438.265 308.09 437.934 308.851 437.934C309.097 437.934 309.284 437.966 309.411 438.03V439.206ZM313.513 445.604C312.51 445.604 311.694 445.276 311.065 444.62C310.437 443.959 310.122 443.077 310.122 441.974V441.742C310.122 441.008 310.261 440.354 310.539 439.78C310.822 439.201 311.214 438.75 311.715 438.427C312.221 438.098 312.768 437.934 313.355 437.934C314.317 437.934 315.064 438.251 315.598 438.885C316.131 439.518 316.397 440.425 316.397 441.605V442.132H311.387C311.405 442.861 311.617 443.451 312.022 443.902C312.433 444.349 312.952 444.572 313.581 444.572C314.028 444.572 314.406 444.481 314.716 444.299C315.026 444.116 315.297 443.875 315.529 443.574L316.302 444.176C315.682 445.128 314.752 445.604 313.513 445.604ZM313.355 438.973C312.845 438.973 312.417 439.16 312.07 439.534C311.724 439.903 311.51 440.423 311.428 441.093H315.133V440.997C315.096 440.354 314.923 439.858 314.613 439.507C314.303 439.151 313.884 438.973 313.355 438.973ZM320.937 445.604C319.934 445.604 319.118 445.276 318.489 444.62C317.86 443.959 317.546 443.077 317.546 441.974V441.742C317.546 441.008 317.685 440.354 317.963 439.78C318.245 439.201 318.637 438.75 319.139 438.427C319.645 438.098 320.191 437.934 320.779 437.934C321.741 437.934 322.488 438.251 323.021 438.885C323.555 439.518 323.821 440.425 323.821 441.605V442.132H318.811C318.829 442.861 319.041 443.451 319.446 443.902C319.856 444.349 320.376 444.572 321.005 444.572C321.451 444.572 321.83 444.481 322.14 444.299C322.45 444.116 322.721 443.875 322.953 443.574L323.726 444.176C323.106 445.128 322.176 445.604 320.937 445.604ZM320.779 438.973C320.269 438.973 319.84 439.16 319.494 439.534C319.148 439.903 318.934 440.423 318.852 441.093H322.557V440.997C322.52 440.354 322.347 439.858 322.037 439.507C321.727 439.151 321.308 438.973 320.779 438.973ZM331.539 441.851C331.539 442.977 331.282 443.884 330.767 444.572C330.252 445.26 329.554 445.604 328.675 445.604C327.777 445.604 327.071 445.319 326.556 444.75V448.311H325.291V438.071H326.446L326.508 438.891C327.023 438.253 327.738 437.934 328.654 437.934C329.543 437.934 330.245 438.269 330.76 438.939C331.279 439.609 331.539 440.541 331.539 441.735V441.851ZM330.274 441.708C330.274 440.874 330.097 440.215 329.741 439.732C329.386 439.249 328.898 439.008 328.278 439.008C327.513 439.008 326.938 439.347 326.556 440.026V443.56C326.934 444.235 327.513 444.572 328.292 444.572C328.898 444.572 329.379 444.333 329.734 443.854C330.094 443.371 330.274 442.656 330.274 441.708ZM334.526 445.468H333.262V438.071H334.526V445.468ZM333.159 436.109C333.159 435.904 333.221 435.731 333.344 435.59C333.471 435.448 333.658 435.378 333.904 435.378C334.15 435.378 334.337 435.448 334.465 435.59C334.592 435.731 334.656 435.904 334.656 436.109C334.656 436.314 334.592 436.485 334.465 436.622C334.337 436.759 334.15 436.827 333.904 436.827C333.658 436.827 333.471 436.759 333.344 436.622C333.221 436.485 333.159 436.314 333.159 436.109ZM338.621 442.043L337.828 442.87V445.468H336.563V434.968H337.828V441.318L338.505 440.505L340.809 438.071H342.347L339.469 441.161L342.682 445.468H341.198L338.621 442.043Z" fill="#ACA9A9"/>
<path d="M402.037 367.763C402.885 364.841 404.687 362.016 407.482 360.809C410.278 359.601 413.755 360.273 416.726 361.354C419.696 362.435 422.618 363.877 425.774 364.072C428.93 364.266 432.495 362.776 433.44 359.757C434.336 356.913 432.622 353.912 430.518 351.828C428.254 349.651 425.479 348.079 422.449 347.255C419.418 346.432 416.229 346.384 413.175 347.117C410.121 347.849 407.3 349.338 404.973 351.447C402.645 353.555 400.885 356.215 399.855 359.182" fill="#FF725E"/>
<g opacity="0.3">
<path opacity="0.3" d="M430.518 351.828C428.254 349.651 425.479 348.079 422.449 347.255C419.418 346.432 416.229 346.384 413.175 347.117C410.121 347.849 407.3 349.338 404.973 351.447C402.645 353.555 400.885 356.215 399.855 359.182L402.076 367.763C402.924 364.841 404.726 362.016 407.521 360.809C410.317 359.601 413.794 360.273 416.765 361.354C419.735 362.435 422.657 363.877 425.813 364.072C428.969 364.266 432.534 362.776 433.479 359.757C434.336 356.913 432.622 353.883 430.518 351.828Z" fill="#111111"/>
</g>
<path d="M377.014 380.455C372.388 376.052 372.612 368.386 374.93 362.425C377.248 356.464 382.284 351.896 387.914 348.877C393.416 345.991 399.499 344.389 405.709 344.19C411.918 343.991 418.092 345.2 423.768 347.727C420.989 347.847 418.281 348.646 415.884 350.056C413.486 351.465 411.47 353.442 410.014 355.812C407.472 360.02 406.907 365.143 404.813 369.594C402.446 374.615 398.246 378.539 393.077 380.561C387.907 382.582 382.16 382.548 377.014 380.464" fill="#FF725E"/>
<path d="M374.794 354.01C369.661 347.951 368.95 338.231 369.729 330.331C370.508 322.432 372.32 314.484 371.073 306.643C370.333 301.997 368.531 297.565 367.927 292.909C367.323 288.253 368.18 282.974 371.823 279.964C375.972 276.507 382.537 277.325 386.833 280.568C391.128 283.812 393.651 288.916 395.482 294C399.495 305.172 400.976 317.562 397.674 328.968C394.372 340.374 386.628 350.562 375.271 354.01" fill="#FF725E"/>
<path d="M372.329 403.685C372.307 403.455 372.307 403.224 372.329 402.993C372.329 402.536 372.329 401.854 372.329 400.987C372.397 399.253 372.562 396.74 372.952 393.653C373.399 390.047 374.049 386.47 374.9 382.938C375.955 378.591 377.593 374.407 379.77 370.5C381.968 366.599 384.659 362.998 387.777 359.786C390.32 357.167 393.134 354.826 396.173 352.802C397.458 351.916 398.695 351.243 399.767 350.62C400.838 349.997 401.812 349.578 402.592 349.198L404.442 348.419C404.655 348.325 404.873 348.243 405.095 348.175C404.896 348.302 404.688 348.412 404.471 348.506L402.669 349.344C401.9 349.743 400.955 350.24 399.874 350.834C398.793 351.429 397.605 352.159 396.338 353.055C389.659 357.617 384.118 363.652 380.14 370.695C375.426 378.945 374.13 387.623 373.195 393.701C372.767 396.779 372.562 399.273 372.445 401.006L372.329 403.003C372.345 403.23 372.345 403.458 372.329 403.685Z" fill="#263238"/>
<path d="M328.078 330.117C318.591 335.844 318.62 341.055 320.208 345.974C321.796 350.893 327.62 354.312 332.442 352.471C335.179 351.429 337.156 349.062 338.841 346.675C340.526 344.289 342.114 341.737 344.481 340.023C346.848 338.308 350.325 337.656 352.663 339.36" fill="#FF725E"/>
<g opacity="0.3">
<path opacity="0.3" d="M328.078 330.117C318.591 335.844 318.62 341.055 320.208 345.974C321.796 350.893 327.62 354.312 332.442 352.471C335.179 351.429 337.156 349.062 338.841 346.675C340.526 344.289 342.114 341.737 344.481 340.023C346.134 338.801 348.182 338.238 350.228 338.445L328.078 330.117Z" fill="#111111"/>
</g>
<path d="M350.23 338.445L352.666 339.361C351.942 338.859 351.105 338.544 350.23 338.445Z" fill="#111111"/>
<path d="M320.977 336.4C323.46 332.971 329.587 331.977 333.464 333.692C337.34 335.406 340.165 338.796 342.707 342.176C345.249 345.555 347.714 349.14 351.23 351.497C354.746 353.854 359.655 354.711 363.162 352.335C364.278 351.502 365.213 350.451 365.909 349.245C366.606 348.039 367.05 346.704 367.214 345.322C367.521 342.551 367.333 339.747 366.658 337.042C365.821 333.059 364.447 328.909 361.262 326.377C357.717 323.552 352.788 323.455 348.259 323.572C343.058 323.737 337.788 324.137 332.908 325.939C328.029 327.74 323.051 331.627 320.977 336.4Z" fill="#FF725E"/>
<path d="M364.439 396.088C364.439 396.088 364.439 396.02 364.439 395.874C364.439 395.728 364.439 395.513 364.439 395.27C364.439 394.695 364.391 393.906 364.361 392.913C364.303 390.828 364.215 387.877 364.108 384.244C364.001 380.611 363.845 376.237 363.582 371.406C363.319 366.575 362.949 361.276 362.219 355.744C361.909 353.057 361.385 350.399 360.65 347.796C359.894 345.389 358.916 343.058 357.728 340.831C356.673 338.81 355.444 336.884 354.056 335.075C352.841 333.506 351.502 332.037 350.053 330.682C347.938 328.719 345.546 327.078 342.952 325.812C342.485 325.607 342.085 325.393 341.715 325.247L340.79 324.887L340.225 324.653C340.098 324.604 340.03 324.575 340.04 324.565L340.235 324.614L340.819 324.809L341.793 325.13C342.163 325.266 342.582 325.461 343.05 325.666C345.691 326.878 348.132 328.488 350.287 330.439C351.762 331.795 353.127 333.268 354.368 334.841C355.778 336.663 357.029 338.602 358.108 340.637C359.294 342.88 360.272 345.228 361.03 347.65C361.778 350.277 362.309 352.961 362.618 355.676C363.358 361.218 363.699 366.536 363.952 371.367C364.206 376.198 364.313 380.562 364.391 384.224C364.469 387.887 364.498 390.838 364.508 392.883V395.24C364.508 395.494 364.508 395.698 364.508 395.854C364.496 395.935 364.473 396.014 364.439 396.088Z" fill="#263238"/>
<path d="M367.857 400.373C367.404 399.046 367.055 397.684 366.815 396.302C366.157 392.521 366.009 388.668 366.377 384.848C366.96 379.191 368.175 373.617 370 368.231C371.948 362.133 374.588 355.568 376.818 348.585C379.007 341.997 380.384 335.168 380.919 328.247C381.353 322.602 381.454 316.936 381.221 311.279C381.055 306.409 380.802 302.513 380.636 299.844C380.558 298.51 380.5 297.468 380.451 296.727C380.451 296.396 380.451 296.124 380.451 295.919C380.438 295.829 380.438 295.737 380.451 295.646C380.462 295.737 380.462 295.828 380.451 295.919C380.451 296.124 380.5 296.387 380.529 296.727C380.597 297.458 380.685 298.5 380.792 299.825C381.006 302.523 381.308 306.429 381.513 311.27C381.789 316.941 381.717 322.623 381.299 328.286C381.038 331.629 380.596 334.955 379.974 338.25C379.278 341.786 378.367 345.276 377.247 348.701C374.987 355.744 372.328 362.26 370.37 368.348C368.534 373.714 367.296 379.267 366.679 384.906C366.283 388.702 366.384 392.533 366.98 396.302C367.214 397.627 367.419 398.659 367.614 399.341C367.692 399.672 367.75 399.935 367.799 400.13C367.824 400.21 367.843 400.291 367.857 400.373Z" fill="#263238"/>
<path d="M396.366 399.156H340.028L338.742 388.315H396.366V399.156Z" fill="#455A64"/>
<path d="M346.078 397.919L353.12 430.451H383.734L390.328 397.919H346.078Z" fill="#455A64"/>
<path d="M396.368 399.156C396.368 399.302 383.988 399.39 368.705 399.351C353.423 399.312 341.043 399.146 341.043 399C341.043 398.854 353.433 398.766 368.705 398.815C383.978 398.864 396.368 399.01 396.368 399.156Z" fill="#455A64"/>
<path d="M386.687 415.218C385.156 414.067 383.487 413.111 381.719 412.374C379.797 411.617 377.756 411.205 375.69 411.156C373.154 411.165 370.641 411.627 368.268 412.52C365.706 413.386 363.3 414.399 360.972 414.955C358.898 415.401 356.759 415.467 354.661 415.149C353.263 414.937 351.908 414.503 350.648 413.864C350.309 413.679 349.984 413.47 349.674 413.24C349.459 413.085 349.362 412.987 349.372 412.977C349.381 412.968 349.849 413.25 350.745 413.669C352.021 414.233 353.373 414.604 354.758 414.77C356.808 415.032 358.888 414.933 360.904 414.477C363.164 413.912 365.56 412.89 368.151 412.013C370.579 411.1 373.154 410.641 375.748 410.659C377.87 410.733 379.959 411.195 381.914 412.023C383.226 412.57 384.461 413.287 385.586 414.156C385.893 414.392 386.186 414.645 386.463 414.916C386.618 415.101 386.687 415.198 386.687 415.218Z" fill="#263238"/>
<path d="M386.277 417.39C384.8 416.279 383.202 415.338 381.514 414.585C379.658 413.825 377.676 413.416 375.67 413.377C373.223 413.386 370.797 413.824 368.501 414.672C366.018 415.5 363.69 416.464 361.459 417.059C359.494 417.634 357.445 417.865 355.401 417.74C353.628 417.7 351.91 417.122 350.472 416.085C350.271 415.929 350.173 415.841 350.18 415.822C350.18 415.822 350.648 416.094 351.514 416.494C352.748 417.021 354.069 417.315 355.411 417.361C357.41 417.422 359.406 417.162 361.323 416.591C363.495 415.977 365.813 415.003 368.316 414.166C370.669 413.296 373.162 412.863 375.67 412.89C379.121 412.99 382.447 414.207 385.148 416.357C385.441 416.588 385.72 416.835 385.985 417.098C386.193 417.273 386.29 417.37 386.277 417.39Z" fill="white"/>
<path d="M387.263 413.055C385.68 411.872 383.972 410.866 382.169 410.055C380.207 409.212 378.115 408.708 375.984 408.565C373.368 408.513 370.767 408.973 368.328 409.919C365.858 410.886 363.335 411.709 360.77 412.383C358.614 412.76 356.409 412.76 354.253 412.383C352.798 412.158 351.385 411.712 350.065 411.059C349.727 410.873 349.401 410.664 349.091 410.435C348.97 410.361 348.862 410.269 348.77 410.163C348.77 410.114 349.266 410.445 350.192 410.874C351.521 411.438 352.919 411.822 354.351 412.013C356.464 412.318 358.612 412.275 360.711 411.887C363.246 411.19 365.743 410.361 368.192 409.403C370.674 408.46 373.32 408.023 375.974 408.117C378.158 408.28 380.295 408.831 382.286 409.744C383.624 410.344 384.883 411.107 386.036 412.013C386.354 412.253 386.657 412.513 386.942 412.792C387.061 412.865 387.169 412.953 387.263 413.055Z" fill="white"/>
<path d="M396.369 399.156C396.369 399.273 383.706 399.37 368.18 399.37C352.655 399.37 339.992 399.273 339.992 399.156C339.992 399.039 352.606 398.942 368.18 398.942C383.755 398.942 396.369 399.039 396.369 399.156Z" fill="#263238"/>
<path d="M219.503 402.487L218.052 420.925C218.052 420.925 236.237 428.211 236.296 431.64L200.52 430.52L201.601 401.688L219.503 402.487Z" fill="#FF725E"/>
<path d="M207.27 418.977C206.919 419.067 206.612 419.284 206.411 419.586C206.21 419.888 206.127 420.254 206.179 420.614C206.255 420.97 206.465 421.284 206.766 421.489C207.068 421.694 207.437 421.775 207.796 421.714C208.169 421.617 208.492 421.385 208.703 421.063C208.914 420.74 208.997 420.351 208.936 419.971C208.821 419.606 208.569 419.3 208.232 419.119C207.896 418.937 207.502 418.893 207.134 418.997" fill="#E0E0E0"/>
<path d="M200.52 430.52L200.607 428.221L235.312 430.033C235.621 430.241 235.884 430.512 236.083 430.827C236.283 431.142 236.415 431.495 236.471 431.864L200.52 430.52Z" fill="#F5F5F5"/>
<path d="M218.373 421.062C218.373 421.237 217.477 421.276 216.581 421.812C215.685 422.347 215.198 423.058 215.042 422.98C214.886 422.903 215.188 421.899 216.279 421.276C217.37 420.653 218.422 420.896 218.373 421.062Z" fill="#263238"/>
<path d="M222.079 422.786C222.079 422.961 221.339 423.224 220.706 423.945C220.073 424.666 219.868 425.445 219.732 425.435C219.595 425.425 219.488 424.461 220.287 423.536C221.086 422.61 222.079 422.62 222.079 422.786Z" fill="#263238"/>
<path d="M224.026 427.412C223.87 427.412 223.656 426.555 224.153 425.601C224.65 424.646 225.487 424.305 225.555 424.461C225.624 424.617 225.088 425.104 224.698 425.883C224.309 426.662 224.231 427.403 224.026 427.412Z" fill="#263238"/>
<path d="M218.24 416.786C218.162 416.942 217.363 416.669 216.36 416.698C215.357 416.727 214.568 417 214.49 416.844C214.412 416.688 215.172 416.094 216.35 416.075C217.529 416.055 218.337 416.649 218.24 416.786Z" fill="#263238"/>
<path d="M219.059 412.841C218.457 412.969 217.833 412.939 217.247 412.753C216.6 412.606 215.972 412.384 215.377 412.091C215.041 411.911 214.716 411.713 214.403 411.497C214.206 411.374 214.029 411.223 213.877 411.049C213.764 410.911 213.703 410.739 213.703 410.562C213.703 410.384 213.764 410.212 213.877 410.075C213.971 409.956 214.091 409.861 214.228 409.797C214.365 409.732 214.515 409.701 214.666 409.705C214.894 409.714 215.12 409.753 215.338 409.822C215.72 409.936 216.091 410.083 216.448 410.26C217.047 410.559 217.593 410.954 218.065 411.429C218.874 412.237 219.127 412.909 219.039 412.938C218.952 412.968 218.572 412.422 217.744 411.75C217.265 411.359 216.738 411.031 216.176 410.776C215.841 410.631 215.496 410.511 215.143 410.416C214.773 410.299 214.442 410.279 214.335 410.416C214.228 410.552 214.335 410.503 214.335 410.62C214.446 410.747 214.574 410.858 214.715 410.951C215.025 411.169 215.351 411.364 215.689 411.536C216.237 411.841 216.815 412.093 217.413 412.286C217.974 412.431 218.524 412.617 219.059 412.841Z" fill="#263238"/>
<path d="M174.351 402.487L172.9 420.925C172.9 420.925 191.075 428.211 191.143 431.64L155.348 430.52L156.429 401.688L174.351 402.487Z" fill="#FF725E"/>
<path d="M162.096 418.977C161.747 419.071 161.443 419.289 161.242 419.59C161.042 419.891 160.957 420.255 161.005 420.614C161.074 420.984 161.287 421.312 161.597 421.526C161.908 421.74 162.29 421.822 162.661 421.753C163.035 421.656 163.359 421.425 163.571 421.103C163.783 420.78 163.869 420.391 163.81 420.01C163.694 419.644 163.439 419.338 163.101 419.157C162.763 418.975 162.368 418.932 161.999 419.036" fill="#E0E0E0"/>
<path d="M155.348 430.519L155.435 428.221L190.15 430.032C190.457 430.243 190.719 430.513 190.918 430.828C191.117 431.143 191.25 431.495 191.309 431.864L155.348 430.519Z" fill="#F5F5F5"/>
<path d="M173.211 421.062C173.211 421.237 172.315 421.276 171.418 421.812C170.522 422.348 170.035 423.059 169.87 422.981C169.704 422.903 170.016 421.9 171.107 421.276C172.198 420.653 173.25 420.896 173.211 421.062Z" fill="#263238"/>
<path d="M176.931 422.786C176.931 422.961 176.181 423.224 175.557 423.945C174.934 424.666 174.72 425.445 174.583 425.435C174.447 425.425 174.34 424.461 175.138 423.536C175.937 422.61 176.931 422.62 176.931 422.786Z" fill="#263238"/>
<path d="M178.889 427.412C178.723 427.412 178.519 426.555 179.016 425.601C179.512 424.646 180.35 424.305 180.418 424.461C180.486 424.617 179.951 425.104 179.561 425.883C179.172 426.662 179.064 427.403 178.889 427.412Z" fill="#263238"/>
<path d="M173.071 416.786C172.983 416.942 172.185 416.669 171.191 416.698C170.198 416.727 169.399 417 169.311 416.844C169.224 416.688 170.003 416.094 171.182 416.075C172.36 416.055 173.159 416.649 173.071 416.786Z" fill="#263238"/>
<path d="M173.885 412.841C173.287 412.969 172.666 412.939 172.083 412.753C171.436 412.606 170.809 412.384 170.213 412.091C169.875 411.915 169.55 411.717 169.239 411.497C169.039 411.375 168.859 411.224 168.703 411.049C168.594 410.91 168.535 410.738 168.535 410.562C168.535 410.385 168.594 410.214 168.703 410.075C168.797 409.956 168.917 409.861 169.054 409.797C169.191 409.732 169.341 409.701 169.492 409.705C169.724 409.713 169.953 409.752 170.174 409.822C170.553 409.936 170.921 410.083 171.275 410.26C171.878 410.557 172.428 410.952 172.901 411.429C173.7 412.237 173.963 412.909 173.875 412.938C173.788 412.968 173.418 412.422 172.59 411.75C172.108 411.359 171.578 411.031 171.012 410.776C170.696 410.633 170.371 410.513 170.038 410.416C169.658 410.299 169.337 410.279 169.229 410.416C169.122 410.552 169.229 410.503 169.229 410.62C169.345 410.747 169.476 410.858 169.619 410.951C169.93 411.169 170.255 411.364 170.593 411.536C171.139 411.839 171.713 412.091 172.307 412.286C172.846 412.433 173.373 412.619 173.885 412.841Z" fill="#263238"/>
<path d="M200.845 242.61C202.53 244.714 236.611 324.234 236.611 332.221C236.611 340.208 223.871 414.779 223.871 414.779L200.494 413.971C200.494 413.971 198.76 373.88 200.864 362.094C202.968 350.308 204.507 334.539 204.507 334.539L171 275.425C171 275.425 167.211 252.711 171 245.981C174.789 239.25 200.845 242.61 200.845 242.61Z" fill="#455A64"/>
<path d="M202.946 304.033C202.946 304.88 190.771 338.903 188.784 349.422C186.797 359.942 177.865 415.656 177.865 415.656L154.566 413.961C154.566 413.961 156.67 354.935 160.459 338.961C164.248 322.987 167.19 309.507 167.19 300.253C167.19 291 164.268 290.971 165.544 277.734C166.82 264.497 180.651 260.279 180.651 260.279L202.946 304.033Z" fill="#455A64"/>
<path d="M186.289 299.24C186.377 299.757 186.521 300.264 186.718 300.75C187.02 301.724 187.516 303.078 188.169 304.753C189.87 309.128 191.821 313.401 194.013 317.552C196.212 321.7 198.651 325.717 201.318 329.581C202.351 331.062 203.208 332.24 203.822 333.039C204.112 333.465 204.438 333.865 204.796 334.237C204.577 333.758 204.302 333.307 203.977 332.893L201.64 329.347C199.692 326.328 197.091 322.101 194.52 317.26C191.948 312.419 189.903 307.899 188.51 304.597C187.857 303.019 187.312 301.675 186.873 300.701C186.727 300.196 186.532 299.707 186.289 299.24Z" fill="#263238"/>
<path d="M161.047 111.73C160.95 115.998 161.76 120.238 163.422 124.17C165.084 128.103 167.561 131.638 170.69 134.542L174.995 122.055" fill="#263238"/>
<path d="M193.541 86.8929C189.733 84.9865 185.38 84.4632 181.229 85.4124C177.116 86.3706 173.187 87.996 169.599 90.2241C167.49 91.3077 165.603 92.778 164.037 94.5585C161.349 97.9384 158.69 103.49 158.437 107.795C158.223 111.283 159.557 120.01 161.037 123.175C162.382 126.097 168.713 128.289 171.83 129.02L200.486 95.6981C199.968 93.8438 199.088 92.1106 197.896 90.5991C196.704 89.0876 195.223 87.8279 193.541 86.8929Z" fill="#263238"/>
<path d="M198.476 91.3928L191.609 90.1558C195.359 99.0973 196.382 119.552 198.525 129.01C201.057 125.338 206.941 114.146 206.619 109.695C206.298 105.243 206.639 90.633 198.476 91.3928Z" fill="#263238"/>
<path d="M202.403 105.964C201.955 99.1462 197.387 90.6916 190.549 91.4319L174.741 95.4546C172.302 96.0658 170.126 97.4467 168.535 99.3926C166.943 101.338 166.021 103.745 165.906 106.257C165.906 106.51 165.906 106.198 165.906 106.393L169.442 147.351L181.315 170.912L191.796 146.201V140.26C191.796 140.26 200.562 138.779 202.354 127.344C203.202 121.636 202.9 113.591 202.403 105.964Z" fill="#FFBE9D"/>
<path d="M199.676 114.604C199.681 114.987 199.537 115.358 199.273 115.636C199.009 115.915 198.647 116.079 198.264 116.094C198.077 116.107 197.89 116.084 197.713 116.024C197.536 115.964 197.373 115.87 197.232 115.747C197.092 115.624 196.977 115.474 196.895 115.306C196.813 115.138 196.765 114.956 196.754 114.77C196.749 114.387 196.894 114.018 197.158 113.741C197.422 113.464 197.784 113.302 198.166 113.289C198.352 113.273 198.54 113.295 198.717 113.353C198.895 113.411 199.059 113.504 199.2 113.626C199.341 113.749 199.456 113.899 199.537 114.067C199.619 114.235 199.666 114.417 199.676 114.604Z" fill="#263238"/>
<path d="M200.648 110.445C200.463 110.64 199.353 109.821 197.775 109.821C196.197 109.821 195.038 110.63 194.853 110.435C194.668 110.24 194.96 110.007 195.457 109.636C196.138 109.157 196.952 108.905 197.785 108.916C198.606 108.912 199.407 109.168 200.074 109.646C200.648 110.065 200.775 110.357 200.648 110.445Z" fill="#263238"/>
<path d="M185.942 114.604C185.947 114.987 185.802 115.358 185.539 115.636C185.275 115.915 184.913 116.079 184.529 116.094C184.343 116.109 184.155 116.086 183.978 116.027C183.8 115.968 183.636 115.874 183.495 115.75C183.355 115.627 183.24 115.476 183.158 115.308C183.077 115.14 183.03 114.956 183.02 114.77C183.014 114.389 183.158 114.021 183.42 113.744C183.682 113.468 184.042 113.304 184.422 113.289C184.609 113.273 184.797 113.295 184.975 113.353C185.153 113.41 185.318 113.503 185.459 113.626C185.601 113.748 185.717 113.898 185.8 114.066C185.882 114.234 185.931 114.417 185.942 114.604Z" fill="#263238"/>
<path d="M185.698 110.445C185.513 110.64 184.393 109.821 182.776 109.831C181.159 109.841 180.049 110.63 179.854 110.435C179.659 110.24 179.951 110.007 180.458 109.636C181.138 109.157 181.953 108.905 182.786 108.916C183.607 108.912 184.408 109.168 185.075 109.646C185.62 110.065 185.786 110.357 185.698 110.445Z" fill="#263238"/>
<path d="M190.627 122.844C191.459 122.582 192.319 122.425 193.189 122.377C193.598 122.377 193.978 122.25 194.046 121.977C194.074 121.56 193.979 121.143 193.774 120.779L192.576 117.721C190.91 113.347 189.653 109.763 189.877 109.695C190.101 109.627 191.543 113.114 193.209 117.487C193.618 118.568 193.998 119.591 194.358 120.575C194.614 121.059 194.69 121.618 194.572 122.153C194.517 122.297 194.428 122.426 194.313 122.53C194.198 122.633 194.06 122.707 193.91 122.747C193.688 122.809 193.459 122.841 193.228 122.844C192.365 122.951 191.491 122.951 190.627 122.844Z" fill="#263238"/>
<path d="M176.594 136.169C176.594 136.169 180.315 144.029 191.759 142.929V140.26C186.423 140.329 181.172 138.912 176.594 136.169Z" fill="#EB996E"/>
<path d="M185.202 104.747C185.047 105.175 183.469 104.971 181.618 105.204C179.767 105.438 178.267 105.935 178.024 105.555C177.917 105.37 178.17 104.961 178.774 104.581C179.571 104.051 180.482 103.717 181.433 103.607C182.38 103.488 183.342 103.598 184.238 103.928C184.92 104.221 185.261 104.542 185.202 104.747Z" fill="#263238"/>
<path d="M200.171 105.623C199.888 105.974 198.807 105.623 197.492 105.623C196.177 105.623 195.077 105.867 194.823 105.497C194.716 105.312 194.891 104.951 195.369 104.61C196.015 104.194 196.773 103.986 197.541 104.016C198.309 104.029 199.055 104.281 199.674 104.737C200.142 105.078 200.288 105.448 200.171 105.623Z" fill="#263238"/>
<path d="M199.294 95.5227C198.889 94.6832 198.26 93.9722 197.476 93.4684C196.692 92.9647 195.784 92.6879 194.852 92.6688C192.982 92.6706 191.151 93.2043 189.573 94.2077C182.755 98.1038 179.258 107.659 172.527 111.74C170.872 112.714 168.719 111.828 167.307 113.153C165.894 114.477 164.988 116.601 165.768 118.373C164.803 117.174 164.016 115.842 163.43 114.419C163.145 113.704 163.015 112.936 163.048 112.167C163.082 111.398 163.278 110.645 163.625 109.958C164.209 108.984 165.232 108.185 165.514 107.036C165.797 105.886 165.368 105 165.417 103.977C165.531 102.935 165.888 101.934 166.459 101.055C169.001 96.3196 172.782 92.3637 177.398 89.6103C180.442 87.8458 183.912 86.9497 187.43 87.0194C190.966 87.099 194.356 88.4433 196.985 90.8084C198.495 92.211 200.073 93.6623 199.294 95.5714" fill="#263238"/>
<path d="M167.475 114.555C167.358 114.234 161.387 112.081 161.309 118.451C161.231 124.607 167.455 123.399 167.465 123.224C167.475 123.049 167.475 114.555 167.475 114.555Z" fill="#FFBE9D"/>
<path d="M165.581 120.838C165.581 120.838 165.474 120.916 165.288 120.994C165.033 121.099 164.746 121.099 164.49 120.994C164.093 120.738 163.772 120.381 163.56 119.96C163.348 119.539 163.252 119.068 163.282 118.597C163.27 118.071 163.377 117.548 163.594 117.068C163.654 116.876 163.761 116.702 163.903 116.559C164.045 116.417 164.22 116.311 164.412 116.25C164.536 116.22 164.667 116.233 164.782 116.288C164.897 116.343 164.99 116.437 165.045 116.552C165.123 116.727 165.045 116.844 165.113 116.854C165.181 116.864 165.249 116.757 165.201 116.503C165.17 116.35 165.088 116.213 164.967 116.114C164.798 115.984 164.585 115.925 164.373 115.948C164.116 115.998 163.876 116.114 163.678 116.285C163.48 116.456 163.33 116.675 163.243 116.922C162.974 117.453 162.84 118.042 162.853 118.636C162.818 119.185 162.946 119.731 163.219 120.208C163.493 120.684 163.901 121.069 164.392 121.315C164.556 121.364 164.728 121.375 164.897 121.348C165.066 121.321 165.226 121.256 165.366 121.159C165.581 120.984 165.581 120.847 165.581 120.838Z" fill="#EB996E"/>
<path d="M165.027 111.39C165.157 111.333 165.28 111.264 165.397 111.185C165.631 111.039 165.992 110.834 166.43 110.532C167.64 109.641 168.753 108.626 169.751 107.503C171.209 105.82 172.568 104.054 173.823 102.214C175.339 99.9667 177.04 97.849 178.907 95.8832C179.903 94.9013 181.004 94.0324 182.19 93.2922C183.301 92.6138 184.492 92.0741 185.735 91.6851C187.841 91.012 190.055 90.7411 192.261 90.8864C193.751 90.9765 195.221 91.2648 196.634 91.7435C197.141 91.8994 197.511 92.065 197.774 92.1624C197.902 92.225 198.036 92.274 198.173 92.3085C198.055 92.2292 197.927 92.1638 197.794 92.1137C197.426 91.9336 197.049 91.7743 196.664 91.6364C195.252 91.1071 193.774 90.7792 192.271 90.6624C190.038 90.4887 187.793 90.7467 185.657 91.4221C184.39 91.8073 183.176 92.3506 182.044 93.039C180.839 93.7891 179.722 94.6712 178.712 95.6689C176.826 97.641 175.119 99.7759 173.609 102.049C172.374 103.889 171.038 105.658 169.605 107.347C168.629 108.478 167.542 109.509 166.362 110.425C165.943 110.737 165.592 110.951 165.388 111.117C165.259 111.195 165.138 111.287 165.027 111.39Z" fill="#455A64"/>
<path d="M166.557 113.133C166.311 114.81 166.52 116.522 167.161 118.091C167.94 119.591 169.898 120.604 171.359 119.766C172.557 119.085 172.908 117.555 173.112 116.201C173.697 112.305 173.96 108.302 174.583 104.386L166.557 113.133Z" fill="#263238"/>
<path d="M186.75 125.844C186.45 126.234 186.248 126.69 186.163 127.174C186.078 127.658 186.112 128.156 186.261 128.624C186.41 129.093 186.671 129.518 187.021 129.863C187.371 130.208 187.799 130.464 188.269 130.607C188.642 130.733 189.046 130.733 189.419 130.607C189.72 130.439 189.983 130.211 190.194 129.939C190.405 129.666 190.559 129.353 190.646 129.02C190.851 128.484 191.065 127.958 191.279 127.422C191.326 127.339 191.356 127.246 191.366 127.151C191.376 127.055 191.366 126.959 191.338 126.867C191.279 126.782 191.202 126.711 191.113 126.659C191.024 126.607 190.924 126.575 190.821 126.565L186.867 125.591" fill="#EB996E"/>
<path d="M189.328 130.432C188.721 130.518 188.103 130.441 187.536 130.208C186.87 129.994 186.307 129.539 185.958 128.932C185.758 128.556 185.677 128.128 185.724 127.705C185.743 127.266 185.849 126.836 186.036 126.438C186.208 126.05 186.46 125.701 186.776 125.416L186.883 125.318H187.01C189.63 126.292 191.675 126.711 191.656 126.828C190.013 126.725 188.396 126.367 186.864 125.766H187.098C186.833 126.02 186.618 126.32 186.464 126.653C186.298 126.972 186.202 127.323 186.182 127.682C186.162 128.042 186.218 128.401 186.348 128.737C186.637 129.268 187.102 129.681 187.662 129.906C188.636 130.296 189.348 130.344 189.328 130.432Z" fill="#263238"/>
<path d="M197.775 92.5909C197.775 92.5909 197.229 92.4837 196.245 92.4545C194.85 92.4313 193.463 92.6828 192.164 93.1948C191.271 93.5455 190.416 93.9861 189.612 94.5097C188.695 95.1275 187.817 95.8009 186.982 96.5259C185.042 98.1638 183.309 100.031 181.82 102.088C181.041 103.188 180.339 104.318 179.589 105.36C178.882 106.381 178.055 107.313 177.125 108.136C175.526 109.493 173.778 110.663 171.914 111.623C170.336 112.461 168.992 113.036 168.115 113.445L167.063 113.893C166.941 113.95 166.814 113.995 166.684 114.029C166.793 113.949 166.911 113.88 167.034 113.825L168.008 113.318C168.895 112.88 170.2 112.266 171.749 111.37C173.577 110.393 175.292 109.217 176.862 107.864C177.783 107.074 178.607 106.178 179.317 105.195C180.057 104.162 180.749 103.032 181.537 101.912C183.047 99.8399 184.804 97.9592 186.768 96.3116C187.62 95.5856 188.518 94.9153 189.456 94.3051C190.279 93.7756 191.158 93.3379 192.076 92.9999C193.406 92.495 194.825 92.2727 196.245 92.3473C196.632 92.3728 197.016 92.4249 197.395 92.5032C197.524 92.5209 197.651 92.5502 197.775 92.5909Z" fill="#455A64"/>
<path d="M166.402 109.335C166.238 109.48 166.054 109.601 165.857 109.695L164.298 110.611L163.772 110.912C163.567 111.036 163.338 111.112 163.1 111.136C162.953 111.155 162.805 111.12 162.681 111.039C162.614 110.993 162.559 110.932 162.52 110.861C162.481 110.79 162.46 110.711 162.457 110.63C162.469 110.347 162.567 110.075 162.74 109.851L164.551 106.929L164.795 107.153C164.207 107.588 163.548 107.918 162.847 108.127C162.135 108.348 161.389 108.437 160.645 108.39C160.453 108.39 160.262 108.357 160.081 108.292C159.976 108.263 159.879 108.211 159.797 108.14C159.715 108.07 159.648 107.982 159.603 107.883C159.569 107.778 159.562 107.667 159.58 107.558C159.599 107.45 159.644 107.347 159.71 107.26C159.812 107.117 159.93 106.987 160.061 106.87C160.871 106.082 161.575 105.191 162.155 104.221C162.673 103.312 163.119 102.364 163.49 101.386C163.464 101.67 163.399 101.949 163.295 102.214C163.048 102.958 162.721 103.674 162.321 104.348C161.758 105.356 161.056 106.281 160.236 107.094C160.003 107.318 159.779 107.572 159.866 107.757C159.954 107.942 160.285 108.049 160.616 108.049C161.321 108.089 162.026 108.003 162.701 107.796C163.378 107.58 164.014 107.25 164.581 106.822L165.311 106.286L164.824 107.046L162.973 109.968C162.829 110.135 162.737 110.342 162.71 110.562C162.713 110.604 162.726 110.645 162.746 110.682C162.767 110.72 162.795 110.752 162.83 110.777C162.864 110.802 162.903 110.819 162.945 110.827C162.987 110.836 163.03 110.835 163.071 110.825C163.462 110.745 163.836 110.593 164.171 110.377L165.779 109.549C165.975 109.448 166.185 109.376 166.402 109.335Z" fill="#455A64"/>
<path d="M244.949 147.195C245.617 144.189 246.948 141.37 248.845 138.945C251.894 135.175 259.803 129.477 259.803 129.477C259.803 129.477 270.069 124.607 270.878 125.26C271.686 125.912 271.754 127.033 270.313 127.822C268.871 128.611 262.988 133.023 262.988 133.023C262.988 133.023 264.79 134.211 264.488 135.575C264.38 136.278 264.068 136.935 263.592 137.464C264.414 138.095 265.05 138.937 265.433 139.899C265.562 140.582 265.562 141.282 265.433 141.964C265.757 142.122 266.019 142.382 266.177 142.705C266.336 143.028 266.383 143.395 266.31 143.747C266.208 144.623 265.968 145.478 265.599 146.279C265.599 146.279 261.439 149.328 259.978 149.484C258.517 149.64 256.589 149.757 256.589 149.757L255.05 151.091L254.076 155.445L244.949 147.195Z" fill="#FFBE9D"/>
<path d="M155.045 190.685C155.736 183.214 155.357 180.847 156.506 171.721C157.538 163.588 161.756 149.922 167.22 143.805L191.698 146.873C192.113 148.42 192.607 149.945 193.178 151.442C194.337 154.536 195.768 157.522 197.454 160.364C201.545 167.182 207.642 175.042 208.723 179.026C208.84 179.474 209.97 214.617 209.97 214.617C209.97 214.617 212.746 240.974 215.279 249.945C217.811 258.916 220.538 266.903 220.149 269.825C219.759 272.747 215.279 275.493 215.279 275.493L206.99 264.429C206.738 264.092 206.41 263.819 206.034 263.63C205.658 263.442 205.243 263.344 204.823 263.344C204.402 263.344 203.987 263.442 203.611 263.63C203.235 263.819 202.907 264.092 202.655 264.429C200.583 267.171 198.88 270.174 197.59 273.36C194.454 281.075 188.103 296.016 184.256 300.438C178.996 306.477 176.464 302.776 176.464 302.776C176.464 302.776 158.678 280.013 156.944 270.779V270.867C154.022 266.805 154.324 198.458 155.045 190.685Z" fill="#FF725E"/>
<path d="M244.596 145.13C244.596 145.13 222.495 176.727 221.735 176.727C220.975 176.727 195.134 158.532 195.134 158.532C195.134 158.532 182.248 149.133 176.745 153.497C165.699 162.263 175.518 177.185 175.518 177.185C175.518 177.185 214.284 203.571 226.225 204.545C238.167 205.519 253.547 157.851 253.547 157.851L255.573 155.123L244.596 145.13Z" fill="#FF725E"/>
<path d="M222.543 188.367C223.655 184.48 223.38 180.327 221.764 176.62C221.599 176.62 222.417 179.211 222.621 182.464C222.826 185.718 222.378 188.338 222.543 188.367Z" fill="#263238"/>
<path d="M227.442 186.555C227.357 184.578 226.741 182.661 225.66 181.003C224.738 179.268 223.399 177.788 221.764 176.698C221.637 176.835 223.614 178.559 225.212 181.286C226.809 184.013 227.267 186.594 227.442 186.555Z" fill="#263238"/>
<path d="M192.778 150.117L192.573 151.968L165.105 146.63L165.592 138.926C165.592 138.926 165.592 136.783 168.183 136.783C169.469 136.783 191.706 142.364 192.534 142.939C194.735 144.37 192.778 150.117 192.778 150.117Z" fill="#FF725E"/>
<path d="M185.133 152.045C185.651 152.303 186.149 152.599 186.623 152.932L190.578 155.493C193.909 157.675 198.487 160.714 203.503 164.133C208.519 167.552 213.009 170.737 216.165 173.114C217.763 174.302 219.039 175.276 219.915 175.967C220.384 176.308 220.827 176.682 221.24 177.088C220.74 176.793 220.258 176.468 219.798 176.114L215.951 173.386C212.707 171.088 208.159 167.951 203.182 164.532L190.344 155.766L186.448 153.068C185.986 152.758 185.547 152.416 185.133 152.045Z" fill="#263238"/>
<path d="M177.918 179.425C178.365 179.617 178.792 179.852 179.194 180.127L182.593 182.182C185.457 183.925 189.411 186.341 193.824 188.912C198.236 191.484 202.288 193.782 205.23 195.341L208.717 197.24C209.159 197.448 209.58 197.699 209.973 197.99C209.509 197.84 209.059 197.647 208.629 197.416C207.782 197.016 206.564 196.442 205.064 195.662C202.074 194.143 197.993 191.942 193.571 189.351C189.148 186.76 185.213 184.315 182.398 182.484C180.996 181.578 179.856 180.818 179.087 180.292C178.673 180.037 178.282 179.747 177.918 179.425Z" fill="#263238"/>
<path d="M170.901 171.058C170.726 170.798 170.591 170.512 170.502 170.211C170.203 169.401 169.987 168.562 169.859 167.708C169.412 164.86 169.843 161.943 171.094 159.345C172.345 156.747 174.357 154.592 176.862 153.166C177.609 152.731 178.399 152.375 179.219 152.104C179.514 151.983 179.827 151.91 180.145 151.89C180.145 151.987 178.869 152.338 177.047 153.477C174.676 154.944 172.774 157.059 171.566 159.572C170.358 162.085 169.894 164.891 170.229 167.659C170.453 169.783 170.999 171.029 170.901 171.058Z" fill="#263238"/>
<path d="M165.078 146.494C165.394 146.29 165.739 146.136 166.101 146.036C167.083 145.724 168.101 145.537 169.13 145.481C170.655 145.404 172.183 145.519 173.679 145.822C175.495 146.202 177.282 146.709 179.026 147.341C180.887 147.984 182.64 148.627 184.266 149.104C185.696 149.546 187.158 149.872 188.64 150.078C190.016 150.21 191.4 150.233 192.779 150.146C192.427 150.283 192.056 150.365 191.679 150.39C190.659 150.497 189.63 150.497 188.611 150.39C187.097 150.246 185.601 149.962 184.14 149.542C182.484 149.085 180.721 148.451 178.861 147.809C177.136 147.183 175.372 146.669 173.581 146.27C170.776 145.605 167.846 145.679 165.078 146.484V146.494Z" fill="#263238"/>
<path d="M249.907 151.072C249.907 151.072 249.907 151.169 249.839 151.364L249.605 152.201C249.391 152.942 249.069 154.013 248.631 155.406C247.764 158.182 246.439 162.175 244.628 167.046C242.816 171.916 240.488 177.662 237.615 183.916C236.916 185.538 236.129 187.122 235.258 188.659C234.345 190.324 232.958 191.68 231.274 192.555C229.462 193.333 227.441 193.477 225.537 192.964C223.615 192.477 221.767 191.734 220.043 190.753C213.564 187.042 207.345 182.892 201.43 178.335C195.917 174.244 190.92 170.542 186.498 167.883C183.035 165.694 179.4 163.792 175.628 162.195C174.303 161.591 173.212 161.279 172.511 160.977L171.702 160.666C171.608 160.636 171.517 160.597 171.43 160.549C171.527 160.557 171.622 160.58 171.712 160.617L172.54 160.88C173.261 161.153 174.362 161.435 175.696 162.01C179.511 163.53 183.187 165.378 186.683 167.533C191.154 170.221 196.18 173.844 201.712 177.916C207.621 182.443 213.826 186.569 220.287 190.266C221.967 191.226 223.769 191.953 225.644 192.429C227.441 192.925 229.354 192.798 231.069 192.068C232.666 191.242 233.979 189.956 234.839 188.377C235.708 186.858 236.494 185.294 237.196 183.692C240.118 177.458 242.426 171.74 244.287 166.89C246.147 162.039 247.521 158.065 248.446 155.318C248.894 153.964 249.254 152.903 249.508 152.143C249.625 151.802 249.712 151.529 249.79 151.315C249.82 151.23 249.859 151.148 249.907 151.072Z" fill="white"/>
<path d="M165.06 286.081C165.06 286.081 165.011 286.023 164.943 285.906L164.612 285.39C164.349 284.883 163.911 284.163 163.443 283.179C162.203 280.302 161.225 277.319 160.521 274.266C158.651 266.474 157.326 255.107 157.404 241.812C156.985 234.273 156.683 225.984 156.645 217.325C156.645 212.455 156.645 207.789 156.771 203.24C156.898 198.692 156.985 194.309 157.268 190.13C157.71 182.73 158.716 175.374 160.278 168.127C161.33 163.24 162.723 158.433 164.446 153.74C165.07 152.085 165.576 150.818 165.956 149.961C166.132 149.552 166.278 149.231 166.385 148.987C166.427 148.872 166.479 148.762 166.541 148.656C166.518 148.777 166.482 148.894 166.433 149.007L166.054 149.981C165.703 150.848 165.226 152.124 164.632 153.789C162.983 158.495 161.646 163.304 160.628 168.185C159.111 175.421 158.134 182.759 157.706 190.14C157.433 194.309 157.346 198.692 157.239 203.24C157.132 207.789 157.093 212.484 157.122 217.305C157.122 225.955 157.453 234.224 157.852 241.763C157.735 255.01 158.992 266.348 160.774 274.14C161.449 277.185 162.384 280.167 163.57 283.052C164.008 284.026 164.417 284.776 164.661 285.292C164.768 285.536 164.865 285.721 164.933 285.877L165.06 286.081Z" fill="white"/>
<path d="M172.4 238.724C172.35 238.528 172.311 238.33 172.284 238.13C172.225 237.692 172.147 237.156 172.04 236.416L171.884 235.179C171.836 234.721 171.816 234.205 171.777 233.698C171.709 232.627 171.592 231.419 171.612 230.075C171.612 229.393 171.612 228.692 171.612 227.961C171.612 227.231 171.66 226.461 171.68 225.672C171.68 224.094 171.865 222.409 171.991 220.636C172.313 217.101 172.81 213.224 173.413 209.172C174.017 205.12 174.612 201.273 175.147 197.766C175.683 194.26 176.014 191.085 176.228 188.416C176.375 187.081 176.413 185.873 176.482 184.812C176.55 183.75 176.589 182.864 176.599 182.085C176.608 181.305 176.599 180.799 176.647 180.351C176.642 180.151 176.661 179.951 176.706 179.757C176.727 179.954 176.727 180.153 176.706 180.351C176.706 180.799 176.706 181.373 176.706 182.085C176.706 182.796 176.706 183.75 176.706 184.822C176.706 185.893 176.647 187.101 176.53 188.445C176.365 191.123 176.014 194.289 175.556 197.825C175.099 201.36 174.485 205.198 173.871 209.25C173.258 213.302 172.761 217.159 172.41 220.675C172.274 222.438 172.099 224.114 172.05 225.692C172.05 226.481 171.972 227.24 171.952 227.971C171.933 228.701 171.952 229.393 171.952 230.065C171.952 231.409 172.011 232.617 172.05 233.679C172.05 234.205 172.05 234.653 172.118 235.159C172.186 235.666 172.196 236.016 172.235 236.396C172.293 237.098 172.342 237.672 172.381 238.12C172.415 238.32 172.422 238.523 172.4 238.724Z" fill="white"/>
<path d="M181.277 297.653C181.156 297.497 181.055 297.327 180.975 297.146L180.186 295.646C179.836 294.994 179.436 294.185 179.027 293.221C178.618 292.257 178.053 291.185 177.654 289.948C177.255 288.711 176.68 287.367 176.222 285.877C175.764 284.387 175.316 282.799 174.868 281.114C173.054 273.751 172.397 266.15 172.92 258.585C173.076 256.851 173.193 255.195 173.436 253.656C173.68 252.117 173.894 250.734 174.157 249.409C174.42 248.085 174.703 246.955 174.946 245.942C175.19 244.929 175.443 244.062 175.667 243.361C175.891 242.659 176.057 242.163 176.183 241.744C176.24 241.553 176.311 241.368 176.398 241.188C176.386 241.388 176.346 241.584 176.281 241.773C176.173 242.201 176.037 242.747 175.862 243.409C175.686 244.072 175.433 244.987 175.219 246.01C175.005 247.033 174.703 248.182 174.508 249.477C174.313 250.773 174.021 252.185 173.855 253.714C173.69 255.244 173.524 256.89 173.388 258.585C173.183 262.34 173.228 266.105 173.524 269.854C173.871 273.608 174.473 277.334 175.326 281.007C175.755 282.682 176.135 284.289 176.622 285.75C177.109 287.211 177.537 288.585 177.985 289.822C178.433 291.059 178.901 292.14 179.29 293.114C179.68 294.088 180.04 294.896 180.362 295.559L181.063 297.107C181.15 297.283 181.222 297.465 181.277 297.653Z" fill="white"/>
<path d="M200.967 253.471C200.923 253.26 200.903 253.044 200.908 252.828C200.908 252.36 200.908 251.747 200.84 250.987C200.84 249.331 200.723 247.042 200.645 244.237C200.47 238.529 200.168 230.659 199.671 221.971C199.175 213.283 198.473 205.412 197.938 199.744C197.675 196.948 197.46 194.659 197.304 193.013C197.236 192.263 197.178 191.649 197.139 191.182C197.115 190.968 197.115 190.753 197.139 190.539C197.203 190.745 197.245 190.957 197.265 191.172C197.324 191.64 197.412 192.244 197.519 192.994C197.733 194.572 198.006 196.89 198.317 199.705C198.941 205.383 199.662 213.234 200.197 221.932C200.733 230.63 200.986 238.49 201.064 244.227C201.064 247.081 201.064 249.39 201.064 250.987C201.064 251.747 201.064 252.351 201.064 252.828C201.048 253.045 201.016 253.259 200.967 253.471Z" fill="white"/>
<path d="M198.964 269.639C198.465 268.925 198.074 268.141 197.805 267.312C197.036 265.347 196.506 263.296 196.227 261.204C195.951 259.114 195.931 256.998 196.168 254.903C196.218 254.028 196.392 253.166 196.685 252.341C196.677 253.207 196.621 254.072 196.519 254.932C196.26 259.082 196.809 263.244 198.136 267.185C198.455 267.988 198.731 268.807 198.964 269.639Z" fill="white"/>
<g opacity="0.3">
<path opacity="0.3" d="M209.418 197.727C202.658 197.123 197.389 196.471 191.194 193.685C184.999 190.899 179.165 186.117 177.918 179.445C188.963 185.377 198.363 191.757 209.418 197.727Z" fill="#111111"/>
</g>
<path d="M176.62 153.175C176.274 152.068 175.984 150.943 175.753 149.805C175.237 147.974 174.565 146.562 174.701 146.494C175.463 147.412 175.991 148.502 176.24 149.669C176.644 150.791 176.774 151.993 176.62 153.175Z" fill="white"/>
<g opacity="0.3">
<path opacity="0.3" d="M192.466 151.071C192.174 150.282 191.083 150.273 190.235 150.331C186.057 150.604 182.034 148.958 178.089 147.545C174.144 146.133 169.849 144.935 165.836 146.133V146.406C169.677 148.353 173.838 149.591 178.118 150.058C181.781 150.458 185.618 150.312 188.95 151.89C189.62 152.306 190.383 152.554 191.17 152.61C191.93 152.571 192.739 151.812 192.466 151.071Z" fill="#111111"/>
</g>
<g opacity="0.3">
<path opacity="0.3" d="M227.659 181.169C226.407 179.058 224.419 177.483 222.078 176.747L221.922 177C225.075 179.834 227.069 183.733 227.523 187.948C227.523 188.406 227.766 189.01 228.214 188.922C228.662 188.835 228.711 188.494 228.789 188.162C229.278 185.771 228.876 183.284 227.659 181.169Z" fill="#111111"/>
</g>
<path d="M205.664 258.117C205.2 257.828 204.76 257.502 204.349 257.143C203.949 256.783 203.443 256.373 202.839 255.886C202.235 255.399 201.573 254.854 200.803 254.279C199.284 253.091 197.404 251.776 195.3 250.383C193.196 248.99 190.79 247.52 188.229 246.078C185.667 244.636 183.154 243.399 180.855 242.318C178.556 241.237 176.423 240.37 174.612 239.698C173.725 239.338 172.897 239.055 172.177 238.802C171.456 238.549 170.832 238.335 170.316 238.179C169.777 238.03 169.25 237.841 168.738 237.614C169.293 237.69 169.841 237.814 170.375 237.984C170.901 238.11 171.534 238.305 172.264 238.539C172.995 238.773 173.832 239.026 174.738 239.357C176.569 239.981 178.703 240.867 181.05 241.89C183.397 242.912 185.92 244.198 188.482 245.63C191.043 247.062 193.44 248.552 195.563 249.994C197.686 251.435 199.527 252.809 201.027 254.036C201.787 254.63 202.449 255.205 203.024 255.711C203.599 256.218 204.095 256.685 204.485 257.036C204.903 257.368 205.297 257.729 205.664 258.117Z" fill="#263238"/>
<g opacity="0.3">
<path opacity="0.3" d="M169.48 237.662C169.316 237.524 169.185 237.352 169.094 237.158C169.004 236.963 168.957 236.752 168.957 236.537C168.957 236.323 169.004 236.111 169.094 235.917C169.185 235.723 169.316 235.55 169.48 235.412C169.834 235.156 170.249 234.998 170.683 234.954C171.118 234.909 171.556 234.98 171.954 235.159C172.743 235.534 173.471 236.023 174.117 236.61C181.081 242.221 190.11 244.724 197.318 250.013C199.266 251.474 201.214 253.169 203.62 253.724C204.438 253.919 205.471 254.133 205.656 254.951C205.841 255.77 204.925 256.422 204.127 256.354C203.33 256.207 202.597 255.824 202.023 255.253C192.438 247.306 181.38 241.328 169.48 237.662Z" fill="#111111"/>
</g>
</svg>
