<svg width="176" height="250" viewBox="0 0 176 250" fill="none" xmlns="http://www.w3.org/2000/svg">
<path d="M54.1506 212.049C56.7573 219.006 56.4937 226.713 53.4179 233.476C50.342 240.238 44.7059 245.502 37.7492 248.109C36.2062 248.689 34.6155 249.134 32.9953 249.438C27.761 250.391 22.3635 249.832 17.4356 247.826C12.5077 245.821 8.25354 242.452 5.17195 238.115C2.09035 233.778 0.308993 228.653 0.0366852 223.339C-0.235622 218.026 1.01242 212.745 3.63449 208.116C6.25657 203.487 10.144 199.701 14.8411 197.202C19.5382 194.703 24.8502 193.596 30.1545 194.008C35.4588 194.421 40.5355 196.338 44.7894 199.533C49.0434 202.728 52.2983 207.07 54.1726 212.049H54.1506Z" fill="#FF725E"/>
<path d="M48.723 214.422C50.2233 218.375 50.5169 222.685 49.5668 226.805C48.6167 230.925 46.4655 234.671 43.3856 237.568C40.3056 240.465 36.4354 242.383 32.2649 243.079C28.0943 243.775 23.8109 243.219 19.9569 241.479C16.1029 239.74 12.8515 236.897 10.6144 233.309C8.37736 229.721 7.25511 225.549 7.38975 221.323C7.52438 217.097 8.90988 213.006 11.3708 209.568C13.8318 206.129 17.2575 203.498 21.2144 202.008C26.5086 200.008 32.3805 200.192 37.539 202.52C42.6975 204.848 46.7203 209.129 48.723 214.422Z" fill="#FF725E"/>
<path d="M47.9018 214.422C47.8411 214.325 47.7898 214.222 47.7485 214.116C47.639 213.889 47.5002 213.582 47.3177 213.195C47.23 212.991 47.1278 212.765 47.0109 212.516C46.8868 212.268 46.7262 212.012 46.5655 211.728C46.2143 211.068 45.814 210.436 45.3679 209.836C44.1976 208.148 42.7768 206.649 41.1543 205.389C37.2973 202.328 32.494 200.706 27.5707 200.804C22.6474 200.901 17.9119 202.711 14.1788 205.922C13.4128 206.572 12.693 207.275 12.0246 208.025C11.6887 208.405 11.3893 208.821 11.068 209.223C10.7415 209.625 10.4438 210.05 10.1771 210.493C9.6127 211.377 9.10299 212.294 8.65083 213.239C8.22549 214.223 7.86449 215.232 7.57007 216.262C6.95789 218.375 6.69156 220.572 6.7814 222.769C6.94673 227.329 8.59532 231.711 11.4769 235.249C12.858 236.961 14.5049 238.441 16.355 239.631C17.2548 240.21 18.1915 240.729 19.1592 241.186C20.1227 241.605 21.1132 241.958 22.124 242.245C24.0754 242.825 26.1058 243.096 28.1412 243.048C33.0626 242.99 37.8112 241.225 41.5763 238.056C45.3413 234.886 47.8894 230.508 48.7855 225.668C49.175 223.652 49.2563 221.589 49.0264 219.549C48.9635 218.811 48.8463 218.079 48.6759 217.358C48.6102 217.044 48.5591 216.744 48.4934 216.482L48.2743 215.751C48.1574 215.342 48.0625 215.021 47.9895 214.78C47.9498 214.669 47.9205 214.554 47.9018 214.437C47.9532 214.541 47.9972 214.648 48.0333 214.758L48.3619 215.722L48.6029 216.452C48.6759 216.715 48.7344 217.015 48.8074 217.329C48.9954 218.06 49.1272 218.805 49.2017 219.556C49.4637 221.614 49.4071 223.7 49.0338 225.741C48.4993 228.743 47.3337 231.597 45.6141 234.115C43.8945 236.632 41.6601 238.756 39.0585 240.346C34.8635 242.874 29.9426 243.923 25.0815 243.326C24.0431 243.182 23.0159 242.968 22.0071 242.683C20.9772 242.388 19.9674 242.027 18.9839 241.602C17.9946 241.14 17.0381 240.611 16.1213 240.018C14.2268 238.809 12.5422 237.299 11.1337 235.548C9.68814 233.744 8.52587 231.73 7.6869 229.575C6.89926 227.402 6.44382 225.122 6.33594 222.813C6.24934 220.569 6.52301 218.325 7.14652 216.168C7.71154 214.073 8.61429 212.085 9.81924 210.282C10.0934 209.832 10.3958 209.4 10.7248 208.989C11.0534 208.58 11.3674 208.157 11.7033 207.77C12.3841 207.008 13.1161 206.293 13.8941 205.63C16.8277 203.133 20.3746 201.464 24.1687 200.796C27.1743 200.277 30.2557 200.403 33.209 201.165C36.1623 201.927 38.9203 203.307 41.3004 205.214C42.924 206.504 44.3401 208.036 45.4993 209.756C45.9391 210.369 46.3298 211.016 46.6677 211.691C46.8284 211.976 46.9818 212.239 47.0986 212.487C47.2154 212.735 47.3031 212.969 47.3907 213.181L47.7704 214.123C47.8236 214.218 47.8676 214.319 47.9018 214.422Z" fill="#263238"/>
<g opacity="0.3">
<path opacity="0.3" d="M47.8249 214.692C47.708 214.743 47.2918 213.896 46.3644 212.502C45.1144 210.518 43.565 208.739 41.7711 207.229C40.5443 206.201 39.2071 205.312 37.7839 204.578C36.1653 203.751 34.4474 203.135 32.6722 202.745C31.7103 202.532 30.734 202.39 29.7511 202.322C28.7304 202.242 27.7049 202.242 26.6841 202.322C25.6287 202.403 24.5812 202.567 23.5513 202.811C22.4903 203.065 21.4504 203.399 20.4404 203.812C19.433 204.228 18.4568 204.716 17.5194 205.272C16.6177 205.828 15.7584 206.451 14.9489 207.134C14.1621 207.806 13.4296 208.538 12.7582 209.325C12.1064 210.061 11.5131 210.848 10.9837 211.676C9.9919 213.212 9.20162 214.869 8.63226 216.606C8.13971 218.131 7.81646 219.705 7.66833 221.301C7.46164 223.636 7.61681 225.988 8.12838 228.275C8.48621 229.911 8.7856 230.802 8.66876 230.853C8.55192 230.904 8.07727 230.079 7.51497 228.443C6.74397 226.117 6.40732 223.669 6.52183 221.221C6.59506 219.522 6.87211 217.837 7.34702 216.204C7.89207 214.325 8.6905 212.529 9.72033 210.866C10.2713 209.963 10.894 209.106 11.5825 208.303C12.2881 207.454 13.0624 206.665 13.8974 205.944C14.762 205.195 15.6851 204.516 16.6577 203.914C17.661 203.297 18.7109 202.76 19.7978 202.307C20.8871 201.867 22.0074 201.508 23.1497 201.234C24.2636 200.974 25.3968 200.806 26.538 200.73C27.6365 200.642 28.7403 200.642 29.8388 200.73C30.8923 200.819 31.9373 200.99 32.9642 201.241C34.867 201.692 36.6997 202.4 38.4119 203.344C39.8946 204.176 41.2766 205.176 42.5305 206.324C44.3377 207.985 45.823 209.966 46.9121 212.166C47.6934 213.728 47.9125 214.656 47.8249 214.692Z" fill="black"/>
</g>
<g opacity="0.3">
<path opacity="0.3" d="M34.6462 233.029L36.0044 236.498L32.8863 237.71L31.5645 234.337C28.4317 235.352 25.1164 235.549 22.8891 234.892L23.1082 230.444C25.3673 230.993 27.7302 230.945 29.9653 230.306L27.9352 225.143C24.1744 225.654 19.9024 226.019 18.1498 221.594C16.8645 218.315 18.1498 214.561 22.8088 212.1L21.4578 208.668L24.5541 207.449L25.8758 210.822C28.1389 210.077 30.5465 209.88 32.9009 210.246L32.8498 214.627C31.062 214.351 29.2371 214.436 27.4824 214.875L29.549 220.133C33.2952 219.593 37.5234 219.257 39.2321 223.616C40.5247 226.83 39.2687 230.532 34.6462 233.029ZM26.1826 220.571L24.4519 216.19C22.9914 217.205 22.6627 218.381 23.0644 219.381C23.466 220.381 24.649 220.674 26.1826 220.571ZM34.4271 225.924C34.0035 224.836 32.879 224.602 31.36 224.661L33.0396 228.933C34.4563 227.998 34.8214 226.925 34.4271 225.924Z" fill="black"/>
</g>
<path d="M103.269 169.862H41.0586V181.159H103.269V169.862Z" fill="#FF725E"/>
<path d="M47.1501 181.24C47.0114 181.24 46.8945 178.728 46.8945 175.639C46.8945 172.55 47.0114 170.03 47.1501 170.03C47.2888 170.03 47.413 172.542 47.413 175.639C47.413 178.735 47.2962 181.24 47.1501 181.24Z" fill="#263238"/>
<path d="M43.7439 181.24C43.6051 181.24 43.4883 178.728 43.4883 175.639C43.4883 172.55 43.6051 170.03 43.7439 170.03C43.8826 170.03 44.0068 172.542 44.0068 175.639C44.0068 178.735 43.8899 181.24 43.7439 181.24Z" fill="#263238"/>
<path d="M54.6301 181.24C54.484 181.24 54.3672 178.728 54.3672 175.639C54.3672 172.55 54.484 170.03 54.6301 170.03C54.7761 170.03 54.8857 172.542 54.8857 175.639C54.8857 178.735 54.8054 181.24 54.6301 181.24Z" fill="#263238"/>
<path d="M51.2243 181.24C51.0783 181.24 50.9688 178.728 50.9688 175.639C50.9688 172.55 51.0783 170.03 51.2243 170.03C51.3704 170.03 51.4799 172.542 51.4799 175.639C51.4799 178.735 51.3704 181.24 51.2243 181.24Z" fill="#263238"/>
<path d="M62.1032 181.24C61.9645 181.24 61.8477 178.728 61.8477 175.639C61.8477 172.55 61.9645 170.03 62.1032 170.03C62.242 170.03 62.3661 172.542 62.3661 175.639C62.3661 178.735 62.242 181.24 62.1032 181.24Z" fill="#263238"/>
<path d="M58.7004 181.24C58.5543 181.24 58.4375 178.728 58.4375 175.639C58.4375 172.55 58.5543 170.03 58.7004 170.03C58.8464 170.03 58.956 172.542 58.956 175.639C58.956 178.735 58.8391 181.24 58.7004 181.24Z" fill="#263238"/>
<path d="M69.572 181.24C69.4259 181.24 69.3164 178.728 69.3164 175.639C69.3164 172.55 69.4259 170.03 69.572 170.03C69.718 170.03 69.8349 172.542 69.8349 175.639C69.8349 178.735 69.718 181.24 69.572 181.24Z" fill="#263238"/>
<path d="M66.1697 181.24C66.0309 181.24 65.9141 178.728 65.9141 175.639C65.9141 172.55 66.0309 170.03 66.1697 170.03C66.3084 170.03 66.4325 172.542 66.4325 175.639C66.4325 178.735 66.3157 181.24 66.1697 181.24Z" fill="#263238"/>
<path d="M77.052 181.24C76.9059 181.24 76.7891 178.728 76.7891 175.639C76.7891 172.55 76.9059 170.03 77.052 170.03C77.198 170.03 77.3076 172.542 77.3076 175.639C77.3076 178.735 77.1907 181.24 77.052 181.24Z" fill="#263238"/>
<path d="M73.6535 181.24C73.5075 181.24 73.3906 178.728 73.3906 175.639C73.3906 172.55 73.5075 170.03 73.6535 170.03C73.7996 170.03 73.9091 172.542 73.9091 175.639C73.9091 178.735 73.7923 181.24 73.6535 181.24Z" fill="#263238"/>
<path d="M84.5251 181.24C84.3864 181.24 84.2695 178.728 84.2695 175.639C84.2695 172.55 84.3864 170.03 84.5251 170.03C84.6639 170.03 84.788 172.542 84.788 175.639C84.788 178.735 84.6712 181.24 84.5251 181.24Z" fill="#263238"/>
<path d="M81.0915 181.24C80.9528 181.24 80.8359 178.728 80.8359 175.639C80.8359 172.55 80.9528 170.03 81.0915 170.03C81.2303 170.03 81.3544 172.542 81.3544 175.639C81.3544 178.735 81.2668 181.24 81.0915 181.24Z" fill="#263238"/>
<path d="M92.0012 181.24C91.8551 181.24 91.7383 178.728 91.7383 175.639C91.7383 172.55 91.8551 170.03 92.0012 170.03C92.1472 170.03 92.2568 172.542 92.2568 175.639C92.2568 178.735 92.1399 181.24 92.0012 181.24Z" fill="#263238"/>
<path d="M88.5949 181.24C88.4489 181.24 88.332 178.728 88.332 175.639C88.332 172.55 88.4489 170.03 88.5949 170.03C88.741 170.03 88.8505 172.542 88.8505 175.639C88.8505 178.735 88.7337 181.24 88.5949 181.24Z" fill="#263238"/>
<path d="M99.4704 181.24C99.3317 181.24 99.2148 178.728 99.2148 175.639C99.2148 172.55 99.3317 170.03 99.4704 170.03C99.6092 170.03 99.7333 172.542 99.7333 175.639C99.7333 178.735 99.6165 181.24 99.4704 181.24Z" fill="#263238"/>
<path d="M96.0681 181.24C95.9293 181.24 95.8125 178.728 95.8125 175.639C95.8125 172.55 95.9293 170.03 96.0681 170.03C96.2068 170.03 96.331 172.542 96.331 175.639C96.331 178.735 96.2141 181.24 96.0681 181.24Z" fill="#263238"/>
<path d="M103.261 169.862C103.261 170.008 89.2689 170.125 72.0131 170.125C54.7573 170.125 40.7656 170.008 40.7656 169.862C40.7656 169.716 54.7573 169.607 72.0131 169.607C89.2689 169.607 103.261 169.694 103.261 169.862Z" fill="#263238"/>
<path d="M99.1945 181.342H36.9844V192.639H99.1945V181.342Z" fill="#FF725E"/>
<path d="M43.1183 192.712C42.9723 192.712 42.8555 190.207 42.8555 187.111C42.8555 184.014 42.9723 181.51 43.1183 181.51C43.2644 181.51 43.3739 184.014 43.3739 187.111C43.3739 190.207 43.2206 192.712 43.1183 192.712Z" fill="#263238"/>
<path d="M39.677 192.712C39.5309 192.712 39.4141 190.207 39.4141 187.111C39.4141 184.014 39.5309 181.51 39.677 181.51C39.823 181.51 39.9326 184.014 39.9326 187.111C39.9326 190.207 39.8157 192.712 39.677 192.712Z" fill="#263238"/>
<path d="M50.5525 192.712C50.4137 192.712 50.2969 190.207 50.2969 187.111C50.2969 184.014 50.4137 181.51 50.5525 181.51C50.6912 181.51 50.8154 184.014 50.8154 187.111C50.8154 190.207 50.6985 192.712 50.5525 192.712Z" fill="#263238"/>
<path d="M47.1501 192.712C47.0114 192.712 46.8945 190.207 46.8945 187.111C46.8945 184.014 47.0114 181.51 47.1501 181.51C47.2888 181.51 47.413 184.014 47.413 187.111C47.413 190.207 47.2962 192.712 47.1501 192.712Z" fill="#263238"/>
<path d="M58.0285 192.712C57.8825 192.712 57.7656 190.207 57.7656 187.111C57.7656 184.015 57.8825 181.51 58.0285 181.51C58.1746 181.51 58.2841 184.015 58.2841 187.111C58.2841 190.207 58.1673 192.712 58.0285 192.712Z" fill="#263238"/>
<path d="M54.6301 192.712C54.484 192.712 54.3672 190.207 54.3672 187.111C54.3672 184.015 54.484 181.51 54.6301 181.51C54.7761 181.51 54.8857 184.015 54.8857 187.111C54.8857 190.207 54.8054 192.712 54.6301 192.712Z" fill="#263238"/>
<path d="M65.5017 192.712C65.3629 192.712 65.2461 190.207 65.2461 187.111C65.2461 184.015 65.3629 181.51 65.5017 181.51C65.6404 181.51 65.7646 184.015 65.7646 187.111C65.7646 190.207 65.6477 192.712 65.5017 192.712Z" fill="#263238"/>
<path d="M62.1032 192.712C61.9645 192.712 61.8477 190.207 61.8477 187.111C61.8477 184.015 61.9645 181.51 62.1032 181.51C62.242 181.51 62.3661 184.015 62.3661 187.111C62.3661 190.207 62.242 192.712 62.1032 192.712Z" fill="#263238"/>
<path d="M72.9822 192.712C72.8361 192.712 72.7266 190.207 72.7266 187.111C72.7266 184.015 72.8361 181.51 72.9822 181.51C73.1282 181.51 73.2377 184.015 73.2377 187.111C73.2377 190.207 73.1282 192.712 72.9822 192.712Z" fill="#263238"/>
<path d="M69.572 192.712C69.4259 192.712 69.3164 190.207 69.3164 187.111C69.3164 184.014 69.4259 181.51 69.572 181.51C69.718 181.51 69.8349 184.014 69.8349 187.111C69.8349 190.207 69.718 192.712 69.572 192.712Z" fill="#263238"/>
<path d="M80.4543 192.712C80.3083 192.712 80.1914 190.207 80.1914 187.111C80.1914 184.014 80.3083 181.51 80.4543 181.51C80.6004 181.51 80.7099 184.014 80.7099 187.111C80.7099 190.207 80.5931 192.712 80.4543 192.712Z" fill="#263238"/>
<path d="M77.052 192.712C76.9059 192.712 76.7891 190.207 76.7891 187.111C76.7891 184.015 76.9059 181.51 77.052 181.51C77.198 181.51 77.3076 184.015 77.3076 187.111C77.3076 190.207 77.1907 192.712 77.052 192.712Z" fill="#263238"/>
<path d="M87.9235 192.712C87.7848 192.712 87.668 190.207 87.668 187.111C87.668 184.015 87.7848 181.51 87.9235 181.51C88.0623 181.51 88.1864 184.015 88.1864 187.111C88.1864 190.207 88.0696 192.712 87.9235 192.712Z" fill="#263238"/>
<path d="M84.5251 192.712C84.3864 192.712 84.2695 190.207 84.2695 187.111C84.2695 184.015 84.3864 181.51 84.5251 181.51C84.6639 181.51 84.788 184.015 84.788 187.111C84.788 190.207 84.6712 192.712 84.5251 192.712Z" fill="#263238"/>
<path d="M95.4035 192.712C95.2575 192.712 95.1406 190.207 95.1406 187.111C95.1406 184.014 95.2575 181.51 95.4035 181.51C95.5496 181.51 95.6591 184.014 95.6591 187.111C95.6591 190.207 95.5423 192.712 95.4035 192.712Z" fill="#263238"/>
<path d="M92.0012 192.712C91.8551 192.712 91.7383 190.207 91.7383 187.111C91.7383 184.014 91.8551 181.51 92.0012 181.51C92.1472 181.51 92.2568 184.014 92.2568 187.111C92.2568 190.207 92.1399 192.712 92.0012 192.712Z" fill="#263238"/>
<path d="M99.1936 181.378C99.1936 181.517 85.202 181.634 67.9462 181.634C50.6903 181.634 36.6914 181.517 36.6914 181.378C36.6914 181.24 50.683 181.115 67.9462 181.115C85.2093 181.115 99.1936 181.196 99.1936 181.378Z" fill="#263238"/>
<path d="M104.273 192.712H42.0625V204.009H104.273V192.712Z" fill="#FF725E"/>
<path d="M48.1652 204.089C48.0192 204.089 47.9023 201.577 47.9023 198.488C47.9023 195.399 48.0192 192.88 48.1652 192.88C48.3113 192.88 48.4208 195.392 48.4208 198.488C48.4208 201.584 48.304 204.089 48.1652 204.089Z" fill="#263238"/>
<path d="M44.759 204.089C44.6129 204.089 44.4961 201.577 44.4961 198.488C44.4961 195.399 44.6129 192.88 44.759 192.88C44.905 192.88 45.0146 195.392 45.0146 198.488C45.0146 201.584 44.905 204.089 44.759 204.089Z" fill="#263238"/>
<path d="M55.6384 204.089C55.4997 204.089 55.3828 201.577 55.3828 198.488C55.3828 195.399 55.4997 192.88 55.6384 192.88C55.7772 192.88 55.9013 195.392 55.9013 198.488C55.9013 201.584 55.7845 204.089 55.6384 204.089Z" fill="#263238"/>
<path d="M52.2355 204.089C52.0895 204.089 51.9727 201.577 51.9727 198.488C51.9727 195.399 52.0895 192.88 52.2355 192.88C52.3816 192.88 52.4911 195.392 52.4911 198.488C52.4911 201.584 52.3743 204.089 52.2355 204.089Z" fill="#263238"/>
<path d="M63.1111 204.089C62.965 204.089 62.8555 201.577 62.8555 198.488C62.8555 195.399 62.965 192.88 63.1111 192.88C63.2571 192.88 63.3667 195.392 63.3667 198.488C63.3667 201.584 63.2571 204.089 63.1111 204.089Z" fill="#263238"/>
<path d="M59.7087 204.089C59.5627 204.089 59.4531 201.577 59.4531 198.488C59.4531 195.399 59.5627 192.88 59.7087 192.88C59.8548 192.88 59.9716 195.392 59.9716 198.488C59.9716 201.584 59.8548 204.089 59.7087 204.089Z" fill="#263238"/>
<path d="M70.5871 204.089C70.441 204.089 70.3242 201.577 70.3242 198.488C70.3242 195.399 70.441 192.88 70.5871 192.88C70.7331 192.88 70.8427 195.392 70.8427 198.488C70.8427 201.584 70.7258 204.089 70.5871 204.089Z" fill="#263238"/>
<path d="M67.216 204.089C67.07 204.089 66.9531 201.577 66.9531 198.488C66.9531 195.399 67.07 192.88 67.216 192.88C67.3621 192.88 67.4716 195.392 67.4716 198.488C67.4716 201.584 67.3255 204.089 67.216 204.089Z" fill="#263238"/>
<path d="M78.0603 204.089C77.9215 204.089 77.8047 201.577 77.8047 198.488C77.8047 195.399 77.9215 192.88 78.0603 192.88C78.199 192.88 78.3232 195.392 78.3232 198.488C78.3232 201.584 78.2063 204.089 78.0603 204.089Z" fill="#263238"/>
<path d="M74.6618 204.089C74.5231 204.089 74.4062 201.577 74.4062 198.488C74.4062 195.399 74.5231 192.88 74.6618 192.88C74.8006 192.88 74.9247 195.392 74.9247 198.488C74.9247 201.584 74.8079 204.089 74.6618 204.089Z" fill="#263238"/>
<path d="M85.5363 204.089C85.3903 204.089 85.2734 201.577 85.2734 198.488C85.2734 195.399 85.3903 192.88 85.5363 192.88C85.6824 192.88 85.7919 195.392 85.7919 198.488C85.7919 201.584 85.6751 204.089 85.5363 204.089Z" fill="#263238"/>
<path d="M82.134 204.089C81.9879 204.089 81.8711 201.577 81.8711 198.488C81.8711 195.399 81.9879 192.88 82.134 192.88C82.28 192.88 82.3896 195.392 82.3896 198.488C82.3896 201.584 82.2727 204.089 82.134 204.089Z" fill="#263238"/>
<path d="M93.0056 204.089C92.8668 204.089 92.75 201.577 92.75 198.488C92.75 195.399 92.8668 192.88 93.0056 192.88C93.1443 192.88 93.2685 195.392 93.2685 198.488C93.2685 201.584 93.1516 204.089 93.0056 204.089Z" fill="#263238"/>
<path d="M89.6032 204.089C89.4645 204.089 89.3477 201.577 89.3477 198.488C89.3477 195.399 89.4645 192.88 89.6032 192.88C89.742 192.88 89.8661 195.392 89.8661 198.488C89.8661 201.584 89.7493 204.089 89.6032 204.089Z" fill="#263238"/>
<path d="M100.489 204.089C100.343 204.089 100.227 201.577 100.227 198.488C100.227 195.399 100.343 192.88 100.489 192.88C100.635 192.88 100.745 195.392 100.745 198.488C100.745 201.584 100.628 204.089 100.489 204.089Z" fill="#263238"/>
<path d="M97.0832 204.089C96.9371 204.089 96.8203 201.577 96.8203 198.488C96.8203 195.399 96.9371 192.88 97.0832 192.88C97.2292 192.88 97.3388 195.392 97.3388 198.488C97.3388 201.584 97.2219 204.089 97.0832 204.089Z" fill="#263238"/>
<path d="M104.281 192.712C104.281 192.858 90.253 192.975 72.9606 192.975C55.6682 192.975 41.6328 192.858 41.6328 192.712C41.6328 192.566 55.6536 192.456 72.9606 192.456C90.2676 192.456 104.281 192.573 104.281 192.712Z" fill="#263238"/>
<path d="M99.3937 203.922H37.1836V215.219H99.3937V203.922Z" fill="#FF725E"/>
<path d="M43.2829 215.298C43.1442 215.298 43.0273 212.786 43.0273 209.69C43.0273 206.594 43.1442 204.089 43.2829 204.089C43.4217 204.089 43.5458 206.594 43.5458 209.69C43.5458 212.786 43.429 215.298 43.2829 215.298Z" fill="#263238"/>
<path d="M39.8806 215.298C39.7418 215.298 39.625 212.786 39.625 209.69C39.625 206.594 39.7418 204.089 39.8806 204.089C40.0193 204.089 40.1435 206.594 40.1435 209.69C40.1435 212.786 40.0266 215.298 39.8806 215.298Z" fill="#263238"/>
<path d="M50.7629 215.298C50.6169 215.298 50.5 212.786 50.5 209.69C50.5 206.594 50.6169 204.089 50.7629 204.089C50.909 204.089 51.0185 206.594 51.0185 209.69C51.0185 212.786 50.9017 215.298 50.7629 215.298Z" fill="#263238"/>
<path d="M47.3644 215.298C47.2184 215.298 47.1016 212.786 47.1016 209.69C47.1016 206.594 47.2184 204.089 47.3644 204.089C47.5105 204.089 47.62 206.594 47.62 209.69C47.62 212.786 47.5032 215.298 47.3644 215.298Z" fill="#263238"/>
<path d="M58.2361 215.298C58.0973 215.298 57.9805 212.786 57.9805 209.69C57.9805 206.594 58.0973 204.089 58.2361 204.089C58.3748 204.089 58.4989 206.594 58.4989 209.69C58.4989 212.786 58.3821 215.298 58.2361 215.298Z" fill="#263238"/>
<path d="M54.8025 215.298C54.6637 215.298 54.5469 212.786 54.5469 209.69C54.5469 206.594 54.6637 204.089 54.8025 204.089C54.9412 204.089 55.0653 206.594 55.0653 209.69C55.0653 212.786 54.9777 215.298 54.8025 215.298Z" fill="#263238"/>
<path d="M65.7121 215.298C65.5661 215.298 65.4492 212.786 65.4492 209.69C65.4492 206.594 65.5661 204.089 65.7121 204.089C65.8582 204.089 65.9677 206.594 65.9677 209.69C65.9677 212.786 65.8509 215.298 65.7121 215.298Z" fill="#263238"/>
<path d="M62.3058 215.298C62.1598 215.298 62.043 212.786 62.043 209.69C62.043 206.594 62.1598 204.089 62.3058 204.089C62.4519 204.089 62.5614 206.594 62.5614 209.69C62.5614 212.786 62.4446 215.298 62.3058 215.298Z" fill="#263238"/>
<path d="M73.1814 215.298C73.0426 215.298 72.9258 212.786 72.9258 209.69C72.9258 206.594 73.0426 204.089 73.1814 204.089C73.3201 204.089 73.4443 206.594 73.4443 209.69C73.4443 212.786 73.3274 215.298 73.1814 215.298Z" fill="#263238"/>
<path d="M69.779 215.298C69.6403 215.298 69.5234 212.786 69.5234 209.69C69.5234 206.594 69.6403 204.089 69.779 204.089C69.9178 204.089 70.0419 206.594 70.0419 209.69C70.0419 212.786 69.9251 215.298 69.779 215.298Z" fill="#263238"/>
<path d="M80.6652 215.298C80.5192 215.298 80.4023 212.786 80.4023 209.69C80.4023 206.594 80.5192 204.089 80.6652 204.089C80.8113 204.089 80.9208 206.594 80.9208 209.69C80.9208 212.786 80.8113 215.298 80.6652 215.298Z" fill="#263238"/>
<path d="M77.2595 215.298C77.1134 215.298 77.0039 212.786 77.0039 209.69C77.0039 206.594 77.1134 204.089 77.2595 204.089C77.4055 204.089 77.5151 206.594 77.5151 209.69C77.5151 212.786 77.4421 215.298 77.2595 215.298Z" fill="#263238"/>
<path d="M88.1267 215.298C87.9879 215.298 87.8711 212.786 87.8711 209.69C87.8711 206.594 87.9879 204.089 88.1267 204.089C88.2654 204.089 88.3896 206.594 88.3896 209.69C88.3896 212.786 88.2727 215.298 88.1267 215.298Z" fill="#263238"/>
<path d="M84.7473 215.298C84.6012 215.298 84.4844 212.786 84.4844 209.69C84.4844 206.594 84.6012 204.089 84.7473 204.089C84.8933 204.089 85.0028 206.594 85.0028 209.69C85.0028 212.786 84.8787 215.298 84.7473 215.298Z" fill="#263238"/>
<path d="M95.6072 215.298C95.4611 215.298 95.3516 212.786 95.3516 209.69C95.3516 206.594 95.4611 204.089 95.6072 204.089C95.7532 204.089 95.87 206.594 95.87 209.69C95.87 212.786 95.7532 215.298 95.6072 215.298Z" fill="#263238"/>
<path d="M92.2048 215.298C92.0661 215.298 91.9492 212.786 91.9492 209.69C91.9492 206.594 92.0661 204.089 92.2048 204.089C92.3436 204.089 92.4677 206.594 92.4677 209.69C92.4677 212.786 92.3509 215.298 92.2048 215.298Z" fill="#263238"/>
<path d="M99.4012 203.921C99.4012 204.067 85.4096 204.177 68.1537 204.177C50.8979 204.177 36.9062 204.067 36.9062 203.921C36.9062 203.775 50.8906 203.666 68.1537 203.666C85.4169 203.666 99.4012 203.775 99.4012 203.921Z" fill="#263238"/>
<path d="M105.64 215.379H43.4297V226.676H105.64V215.379Z" fill="#FF725E"/>
<path d="M49.5207 226.756C49.3746 226.756 49.2578 224.244 49.2578 221.148C49.2578 218.051 49.3746 215.547 49.5207 215.547C49.6667 215.547 49.7763 218.059 49.7763 221.148C49.7763 224.237 49.6887 226.756 49.5207 226.756Z" fill="#263238"/>
<path d="M46.1183 226.756C45.9723 226.756 45.8555 224.244 45.8555 221.148C45.8555 218.051 45.9723 215.547 46.1183 215.547C46.2644 215.547 46.3739 218.059 46.3739 221.148C46.3739 224.237 46.2571 226.756 46.1183 226.756Z" fill="#263238"/>
<path d="M56.9939 226.756C56.8551 226.756 56.7383 224.244 56.7383 221.148C56.7383 218.051 56.8551 215.547 56.9939 215.547C57.1326 215.547 57.2568 218.059 57.2568 221.148C57.2568 224.237 57.1399 226.756 56.9939 226.756Z" fill="#263238"/>
<path d="M53.5876 226.756C53.4489 226.756 53.332 224.244 53.332 221.148C53.332 218.051 53.4489 215.547 53.5876 215.547C53.7264 215.547 53.8505 218.059 53.8505 221.148C53.8505 224.237 53.7337 226.756 53.5876 226.756Z" fill="#263238"/>
<path d="M64.4665 226.756C64.3205 226.756 64.2109 224.244 64.2109 221.148C64.2109 218.051 64.3205 215.547 64.4665 215.547C64.6126 215.547 64.7221 218.059 64.7221 221.148C64.7221 224.237 64.6126 226.756 64.4665 226.756Z" fill="#263238"/>
<path d="M61.0681 226.756C60.922 226.756 60.8125 224.244 60.8125 221.148C60.8125 218.051 60.922 215.547 61.0681 215.547C61.2141 215.547 61.3237 218.059 61.3237 221.148C61.3237 224.237 61.2141 226.756 61.0681 226.756Z" fill="#263238"/>
<path d="M71.9465 226.756C71.8004 226.756 71.6836 224.244 71.6836 221.148C71.6836 218.051 71.8004 215.547 71.9465 215.547C72.0925 215.547 72.2021 218.059 72.2021 221.148C72.2021 224.237 72.0852 226.756 71.9465 226.756Z" fill="#263238"/>
<path d="M68.5442 226.756C68.3981 226.756 68.2812 224.244 68.2812 221.148C68.2812 218.051 68.3981 215.547 68.5442 215.547C68.6902 215.547 68.7997 218.059 68.7997 221.148C68.7997 224.237 68.6756 226.756 68.5442 226.756Z" fill="#263238"/>
<path d="M79.4157 226.756C79.277 226.756 79.1602 224.244 79.1602 221.148C79.1602 218.051 79.277 215.547 79.4157 215.547C79.5545 215.547 79.6787 218.059 79.6787 221.148C79.6787 224.237 79.5618 226.756 79.4157 226.756Z" fill="#263238"/>
<path d="M76.0134 226.756C75.8746 226.756 75.7578 224.244 75.7578 221.148C75.7578 218.051 75.8746 215.547 76.0134 215.547C76.1521 215.547 76.2763 218.059 76.2763 221.148C76.2763 224.237 76.1594 226.756 76.0134 226.756Z" fill="#263238"/>
<path d="M86.9348 226.756C86.7887 226.756 86.6719 224.244 86.6719 221.148C86.6719 218.051 86.7887 215.547 86.9348 215.547C87.0808 215.547 87.1903 218.059 87.1903 221.148C87.1903 224.237 87.037 226.756 86.9348 226.756Z" fill="#263238"/>
<path d="M83.4973 226.756C83.3512 226.756 83.2344 224.244 83.2344 221.148C83.2344 218.051 83.3512 215.547 83.4973 215.547C83.6433 215.547 83.7529 218.059 83.7529 221.148C83.7529 224.237 83.636 226.756 83.4973 226.756Z" fill="#263238"/>
<path d="M94.3689 226.756C94.2301 226.756 94.1133 224.244 94.1133 221.148C94.1133 218.051 94.2301 215.547 94.3689 215.547C94.5076 215.547 94.6318 218.059 94.6318 221.148C94.6318 224.237 94.5149 226.756 94.3689 226.756Z" fill="#263238"/>
<path d="M90.9704 226.756C90.8317 226.756 90.7148 224.244 90.7148 221.148C90.7148 218.051 90.8317 215.547 90.9704 215.547C91.1092 215.547 91.2333 218.059 91.2333 221.148C91.2333 224.237 91.1165 226.756 90.9704 226.756Z" fill="#263238"/>
<path d="M101.841 226.756C101.695 226.756 101.578 224.244 101.578 221.148C101.578 218.051 101.695 215.547 101.841 215.547C101.987 215.547 102.097 218.059 102.097 221.148C102.097 224.237 101.98 226.756 101.841 226.756Z" fill="#263238"/>
<path d="M98.4426 226.756C98.2965 226.756 98.1797 224.244 98.1797 221.148C98.1797 218.051 98.2965 215.547 98.4426 215.547C98.5886 215.547 98.6982 218.059 98.6982 221.148C98.6982 224.237 98.6179 226.756 98.4426 226.756Z" fill="#263238"/>
<path d="M105.632 215.379C105.632 215.525 91.64 215.642 74.3842 215.642C57.1283 215.642 43.1367 215.525 43.1367 215.379C43.1367 215.233 57.121 215.123 74.3842 215.123C91.6473 215.123 105.632 215.24 105.632 215.379Z" fill="#263238"/>
<path d="M101.734 226.808H39.5234V238.105H101.734V226.808Z" fill="#FF725E"/>
<path d="M45.6262 238.177C45.4801 238.177 45.3633 235.672 45.3633 232.576C45.3633 229.48 45.4801 226.975 45.6262 226.975C45.7722 226.975 45.8818 229.48 45.8818 232.576C45.8818 235.672 45.7649 238.177 45.6262 238.177Z" fill="#263238"/>
<path d="M42.2199 238.177C42.0739 238.177 41.957 235.672 41.957 232.576C41.957 229.48 42.0739 226.975 42.2199 226.975C42.366 226.975 42.4755 229.48 42.4755 232.576C42.4755 235.672 42.3879 238.177 42.2199 238.177Z" fill="#263238"/>
<path d="M53.0915 238.177C52.9528 238.177 52.8359 235.672 52.8359 232.576C52.8359 229.48 52.9528 226.975 53.0915 226.975C53.2303 226.975 53.3544 229.48 53.3544 232.576C53.3544 235.672 53.2376 238.177 53.0915 238.177Z" fill="#263238"/>
<path d="M49.6892 238.177C49.5504 238.177 49.4336 235.672 49.4336 232.576C49.4336 229.48 49.5504 226.975 49.6892 226.975C49.8279 226.975 49.9521 229.48 49.9521 232.576C49.9521 235.672 49.8352 238.177 49.6892 238.177Z" fill="#263238"/>
<path d="M60.5676 238.177C60.4215 238.177 60.3047 235.672 60.3047 232.576C60.3047 229.48 60.4215 226.975 60.5676 226.975C60.7136 226.975 60.8232 229.48 60.8232 232.576C60.8232 235.672 60.7063 238.177 60.5676 238.177Z" fill="#263238"/>
<path d="M57.1691 238.177C57.0231 238.177 56.9062 235.672 56.9062 232.576C56.9062 229.48 57.0231 226.975 57.1691 226.975C57.3152 226.975 57.4247 229.48 57.4247 232.576C57.4247 235.672 57.3079 238.177 57.1691 238.177Z" fill="#263238"/>
<path d="M68.0407 238.177C67.902 238.177 67.7852 235.672 67.7852 232.576C67.7852 229.48 67.902 226.975 68.0407 226.975C68.1795 226.975 68.3036 229.48 68.3036 232.576C68.3036 235.672 68.1868 238.177 68.0407 238.177Z" fill="#263238"/>
<path d="M64.6423 238.177C64.5036 238.177 64.3867 235.672 64.3867 232.576C64.3867 229.48 64.5036 226.975 64.6423 226.975C64.7811 226.975 64.9052 229.48 64.9052 232.576C64.9052 235.672 64.7884 238.177 64.6423 238.177Z" fill="#263238"/>
<path d="M75.5207 238.177C75.3746 238.177 75.2578 235.672 75.2578 232.576C75.2578 229.48 75.3746 226.975 75.5207 226.975C75.6667 226.975 75.7763 229.48 75.7763 232.576C75.7763 235.672 75.6667 238.177 75.5207 238.177Z" fill="#263238"/>
<path d="M72.115 238.177C71.9689 238.177 71.8594 235.672 71.8594 232.576C71.8594 229.48 71.9689 226.975 72.115 226.975C72.261 226.975 72.3706 229.48 72.3706 232.576C72.3706 235.672 72.261 238.177 72.115 238.177Z" fill="#263238"/>
<path d="M82.9933 238.177C82.8473 238.177 82.7305 235.672 82.7305 232.576C82.7305 229.48 82.8473 226.975 82.9933 226.975C83.1394 226.975 83.2489 229.48 83.2489 232.576C83.2489 235.672 83.1321 238.177 82.9933 238.177Z" fill="#263238"/>
<path d="M79.6301 238.177C79.484 238.177 79.3672 235.672 79.3672 232.576C79.3672 229.48 79.484 226.975 79.6301 226.975C79.7761 226.975 79.8857 229.48 79.8857 232.576C79.8857 235.672 79.7323 238.177 79.6301 238.177Z" fill="#263238"/>
<path d="M90.4665 238.177C90.3205 238.177 90.2109 235.672 90.2109 232.576C90.2109 229.48 90.3205 226.975 90.4665 226.975C90.6126 226.975 90.7294 229.48 90.7294 232.576C90.7294 235.672 90.5834 238.177 90.4665 238.177Z" fill="#263238"/>
<path d="M87.0642 238.177C86.9254 238.177 86.8086 235.672 86.8086 232.576C86.8086 229.48 86.9254 226.975 87.0642 226.975C87.2029 226.975 87.3271 229.48 87.3271 232.576C87.3271 235.672 87.2102 238.177 87.0642 238.177Z" fill="#263238"/>
<path d="M97.9426 238.177C97.7965 238.177 97.6797 235.672 97.6797 232.576C97.6797 229.48 97.7965 226.975 97.9426 226.975C98.0886 226.975 98.1982 229.48 98.1982 232.576C98.1982 235.672 98.0813 238.177 97.9426 238.177Z" fill="#263238"/>
<path d="M94.5402 238.177C94.3942 238.177 94.2773 235.672 94.2773 232.576C94.2773 229.48 94.3942 226.975 94.5402 226.975C94.6863 226.975 94.7958 229.48 94.7958 232.576C94.7958 235.672 94.679 238.177 94.5402 238.177Z" fill="#263238"/>
<path d="M101.734 226.807C101.734 226.946 87.7061 227.063 70.4064 227.063C53.1068 227.063 39.0859 226.946 39.0859 226.807C39.0859 226.669 53.1068 226.544 70.4064 226.544C87.7061 226.544 101.734 226.654 101.734 226.807Z" fill="#263238"/>
<path d="M96.8586 238.009H34.6484V249.306H96.8586V238.009Z" fill="#FF725E"/>
<path d="M40.7433 249.387C40.5973 249.387 40.4805 246.875 40.4805 243.786C40.4805 240.697 40.5973 238.177 40.7433 238.177C40.8894 238.177 40.9989 240.689 40.9989 243.786C40.9989 246.882 40.9259 249.387 40.7433 249.387Z" fill="#263238"/>
<path d="M37.3415 249.387C37.1955 249.387 37.0859 246.874 37.0859 243.786C37.0859 240.697 37.1955 238.177 37.3415 238.177C37.4876 238.177 37.5971 240.689 37.5971 243.786C37.5971 246.882 37.4876 249.387 37.3415 249.387Z" fill="#263238"/>
<path d="M48.2361 249.387C48.0973 249.387 47.9805 246.875 47.9805 243.786C47.9805 240.697 48.0973 238.177 48.2361 238.177C48.3748 238.177 48.4989 240.689 48.4989 243.786C48.4989 246.882 48.3675 249.387 48.2361 249.387Z" fill="#263238"/>
<path d="M44.8176 249.387C44.6715 249.387 44.5547 246.874 44.5547 243.786C44.5547 240.697 44.6715 238.177 44.8176 238.177C44.9636 238.177 45.0732 240.689 45.0732 243.786C45.0732 246.882 44.9563 249.387 44.8176 249.387Z" fill="#263238"/>
<path d="M55.697 249.387C55.5509 249.387 55.4414 246.875 55.4414 243.786C55.4414 240.697 55.5509 238.177 55.697 238.177C55.843 238.177 55.9599 240.689 55.9599 243.786C55.9599 246.882 55.843 249.387 55.697 249.387Z" fill="#263238"/>
<path d="M52.2907 249.387C52.152 249.387 52.0352 246.874 52.0352 243.786C52.0352 240.697 52.152 238.177 52.2907 238.177C52.4295 238.177 52.5537 240.689 52.5537 243.786C52.5537 246.882 52.4368 249.387 52.2907 249.387Z" fill="#263238"/>
<path d="M63.1691 249.387C63.0231 249.387 62.9062 246.874 62.9062 243.786C62.9062 240.697 63.0231 238.177 63.1691 238.177C63.3152 238.177 63.4247 240.689 63.4247 243.786C63.4247 246.882 63.3079 249.387 63.1691 249.387Z" fill="#263238"/>
<path d="M59.7668 249.387C59.6207 249.387 59.5039 246.875 59.5039 243.786C59.5039 240.697 59.6207 238.177 59.7668 238.177C59.9128 238.177 60.0224 240.689 60.0224 243.786C60.0224 246.882 59.9128 249.387 59.7668 249.387Z" fill="#263238"/>
<path d="M70.6384 249.387C70.4997 249.387 70.3828 246.875 70.3828 243.786C70.3828 240.697 70.4997 238.177 70.6384 238.177C70.7772 238.177 70.9013 240.689 70.9013 243.786C70.9013 246.882 70.7845 249.387 70.6384 249.387Z" fill="#263238"/>
<path d="M67.2204 249.387C67.0817 249.387 66.9648 246.875 66.9648 243.786C66.9648 240.697 67.0817 238.177 67.2204 238.177C67.3592 238.177 67.4833 240.689 67.4833 243.786C67.4833 246.882 67.3884 249.387 67.2204 249.387Z" fill="#263238"/>
<path d="M78.1183 249.387C77.9723 249.387 77.8555 246.874 77.8555 243.786C77.8555 240.697 77.9723 238.177 78.1183 238.177C78.2644 238.177 78.3739 240.689 78.3739 243.786C78.3739 246.882 78.2571 249.387 78.1183 249.387Z" fill="#263238"/>
<path d="M74.7121 249.387C74.566 249.387 74.4492 246.874 74.4492 243.786C74.4492 240.697 74.566 238.177 74.7121 238.177C74.8581 238.177 74.9677 240.689 74.9677 243.786C74.9677 246.882 74.8508 249.387 74.7121 249.387Z" fill="#263238"/>
<path d="M85.5876 249.387C85.4489 249.387 85.332 246.874 85.332 243.786C85.332 240.697 85.4489 238.177 85.5876 238.177C85.7264 238.177 85.8505 240.689 85.8505 243.786C85.8505 246.882 85.7337 249.387 85.5876 249.387Z" fill="#263238"/>
<path d="M82.1853 249.387C82.0465 249.387 81.9297 246.874 81.9297 243.786C81.9297 240.697 82.0465 238.177 82.1853 238.177C82.324 238.177 82.4482 240.689 82.4482 243.786C82.4482 246.882 82.3313 249.387 82.1853 249.387Z" fill="#263238"/>
<path d="M93.0676 249.387C92.9215 249.387 92.8047 246.875 92.8047 243.786C92.8047 240.697 92.9215 238.177 93.0676 238.177C93.2136 238.177 93.3232 240.689 93.3232 243.786C93.3232 246.882 93.2063 249.387 93.0676 249.387Z" fill="#263238"/>
<path d="M89.6613 249.387C89.5153 249.387 89.3984 246.874 89.3984 243.786C89.3984 240.697 89.5153 238.177 89.6613 238.177C89.8074 238.177 89.9169 240.689 89.9169 243.786C89.9169 246.882 89.8074 249.387 89.6613 249.387Z" fill="#263238"/>
<path d="M96.8621 238.009C96.8621 238.156 82.8705 238.272 65.6146 238.272C48.3588 238.272 34.3672 238.156 34.3672 238.009C34.3672 237.863 48.3515 237.754 65.6146 237.754C82.8778 237.754 96.8621 237.871 96.8621 238.009Z" fill="#263238"/>
<g opacity="0.3">
<path opacity="0.3" d="M42.0664 192.712C51.3552 194.997 61.2574 195.436 70.8018 194.808C80.3462 194.18 89.9928 192.763 99.5591 192.88L42.0664 192.712Z" fill="black"/>
</g>
<g opacity="0.3">
<path opacity="0.3" d="M42.6328 181.466C51.9216 183.752 61.8238 184.197 71.3682 183.562C80.9126 182.927 90.5519 181.524 100.118 181.634L42.6328 181.466Z" fill="black"/>
</g>
<g opacity="0.3">
<path opacity="0.3" d="M45.6289 204.016C54.925 206.294 64.8199 206.74 74.3716 206.105C83.9233 205.469 93.5553 204.067 103.122 204.184L45.6289 204.016Z" fill="black"/>
</g>
<g opacity="0.3">
<path opacity="0.3" d="M43.1992 215.313C52.4953 217.599 62.3902 218.037 71.9346 217.402C81.479 216.766 91.1256 215.364 100.692 215.481L43.1992 215.313Z" fill="black"/>
</g>
<g opacity="0.3">
<path opacity="0.3" d="M43.9414 226.544C53.2302 228.83 63.1324 229.268 72.6768 228.633C82.2212 227.998 91.8605 226.596 101.427 226.712L43.9414 226.544Z" fill="black"/>
</g>
<g opacity="0.3">
<path opacity="0.3" d="M40.9219 237.995C50.2107 240.273 60.1056 240.719 69.6573 240.084C79.209 239.448 88.841 238.046 98.4073 238.163L40.9219 237.995Z" fill="black"/>
</g>
<path d="M42.1965 177.589C42.0504 177.589 41.9336 176.209 41.9336 174.5C41.9336 172.791 42.0504 171.404 42.1965 171.404C42.3425 171.404 42.4521 172.791 42.4521 174.5C42.4521 176.209 42.3352 177.589 42.1965 177.589Z" fill="white"/>
<path d="M38.2824 189.659C38.1364 189.659 38.0195 188.199 38.0195 186.344C38.0195 184.489 38.1364 183.021 38.2824 183.021C38.4285 183.021 38.538 184.482 38.538 186.344C38.538 188.206 38.4212 189.659 38.2824 189.659Z" fill="white"/>
<path d="M43.8493 201.277C43.7106 201.277 43.5938 199.963 43.5938 198.356C43.5938 196.75 43.7106 195.435 43.8493 195.435C43.9881 195.435 44.1122 196.757 44.1122 198.356C44.1122 199.956 44.0027 201.277 43.8493 201.277Z" fill="white"/>
<path d="M38.1189 211.991C37.9728 211.991 37.8633 210.808 37.8633 209.354C37.8633 207.901 37.9728 206.711 38.1189 206.711C38.2649 206.711 38.3745 207.894 38.3745 209.354C38.3745 210.815 38.2649 211.991 38.1189 211.991Z" fill="white"/>
<path d="M60.9068 182.269C60.9068 182.415 56.3135 182.525 50.6467 182.525C44.98 182.525 40.3867 182.415 40.3867 182.269C40.3867 182.123 44.98 182.007 50.6467 182.007C56.3135 182.007 60.9068 182.109 60.9068 182.269Z" fill="white"/>
<path d="M67.5445 171.403C67.5445 171.549 62.9147 171.666 57.2114 171.666C51.5082 171.666 46.8711 171.549 46.8711 171.403C46.8711 171.257 51.5009 171.147 57.2114 171.147C62.922 171.147 67.5445 171.264 67.5445 171.403Z" fill="white"/>
<path d="M77.5062 171.557C77.5062 171.703 75.98 171.812 74.1105 171.812C72.2411 171.812 70.7148 171.703 70.7148 171.557C70.7148 171.411 72.2338 171.301 74.1105 171.301C75.9873 171.301 77.5062 171.411 77.5062 171.557Z" fill="white"/>
<path d="M44.3071 226.267C44.0539 223.393 44.0539 220.502 44.3071 217.628C44.5602 220.502 44.5602 223.393 44.3071 226.267Z" fill="white"/>
<path d="M91.5769 214.042C91.5769 214.152 80.2653 214.232 66.3175 214.232C52.3697 214.232 41.0508 214.152 41.0508 214.042C41.0508 213.933 52.3624 213.853 66.3175 213.853C80.2726 213.853 91.5769 213.94 91.5769 214.042Z" fill="white"/>
<path d="M81.4692 236.877C81.4692 236.987 72.5309 237.067 61.5041 237.067C50.4773 237.067 41.5391 236.987 41.5391 236.877C41.5391 236.768 50.4773 236.688 61.5041 236.688C72.5309 236.688 81.4692 236.761 81.4692 236.877Z" fill="white"/>
<path d="M35.5062 247.101C35.2531 245.482 35.2531 243.834 35.5062 242.216C35.7594 243.834 35.7594 245.482 35.5062 247.101Z" fill="white"/>
<path d="M79.5225 248.109C79.5225 248.218 70.2483 248.299 58.8198 248.299C47.3914 248.299 38.1172 248.218 38.1172 248.109C38.1172 247.999 47.3841 247.919 58.8198 247.919C70.2556 247.919 79.5225 248.007 79.5225 248.109Z" fill="white"/>
<path d="M34.6478 249.292C34.6382 249.224 34.6382 249.155 34.6478 249.087C34.6478 248.927 34.6478 248.737 34.6478 248.496C34.6478 247.933 34.6478 247.174 34.6478 246.21C34.6478 244.195 34.6039 241.354 34.582 237.892V237.746H34.7281H39.168L39 237.914C39 234.519 39 230.692 39 226.632V226.442H43.3012L43.1114 226.632C43.1114 222.543 43.1114 218.665 43.1114 215.174L43.2793 215.35H37.2694H37.1233V215.204C37.1233 211.771 37.1744 208.953 37.189 206.959C37.189 206.01 37.189 205.25 37.2255 204.695V204.111C37.2009 204.106 37.1792 204.091 37.1645 204.071C37.1497 204.05 37.1431 204.025 37.1458 204C37.1485 203.975 37.1604 203.952 37.1792 203.935C37.1979 203.918 37.2222 203.909 37.2474 203.909C37.2727 203.909 37.297 203.918 37.3157 203.935C37.3345 203.952 37.3464 203.975 37.3491 204C37.3518 204.025 37.3452 204.05 37.3305 204.071C37.3157 204.091 37.294 204.106 37.2694 204.111V204.695C37.2694 205.25 37.2694 206.01 37.3132 206.959C37.3132 208.953 37.3497 211.771 37.3789 215.204L37.2255 215.058H43.2355H43.4108V215.233C43.4108 218.723 43.4108 222.601 43.4108 226.69V226.88H39.1096L39.2995 226.69C39.2995 230.751 39.2995 234.577 39.2995 237.973V238.141H39.1315L34.6916 238.075L34.8449 237.922C34.8449 241.383 34.7938 244.224 34.7792 246.239C34.7792 247.203 34.7792 247.963 34.7354 248.525C34.7354 248.766 34.7354 248.956 34.7354 249.116C34.7142 249.179 34.6847 249.237 34.6478 249.292Z" fill="#263238"/>
<g opacity="0.3">
<path opacity="0.3" d="M102.413 168.891L53.3398 169.695C64.4282 176.467 77.0244 180.382 89.9985 181.087C89.1003 197.97 97.0454 214.087 98.4183 230.933C98.4276 231.746 98.5937 232.55 98.9075 233.299C99.0706 233.67 99.342 233.983 99.6861 234.197C100.03 234.41 100.431 234.515 100.835 234.497C102.128 234.315 102.544 232.679 102.654 231.379C104.4 210.583 104.319 189.673 102.413 168.891Z" fill="black"/>
</g>
<path d="M50.557 30.3551C49.4936 29.4692 48.7039 28.2994 48.2798 26.9819C47.8558 25.6645 47.8148 24.2536 48.1618 22.9138C48.2442 22.7874 48.296 22.6436 48.3132 22.4937C48.3304 22.3438 48.3124 22.1919 48.2606 22.0502C48.2089 21.9084 48.1249 21.7807 48.0152 21.6771C47.9055 21.5735 47.7731 21.4969 47.6287 21.4533C47.0007 21.0778 46.4556 20.5787 46.0263 19.9862C45.597 19.3937 45.2925 18.7202 45.1312 18.0065C44.9816 17.2868 45.0236 16.5404 45.253 15.8419C45.4824 15.1435 45.8912 14.5176 46.4384 14.0267C44.3571 13.1577 43.6196 10.2439 44.7296 8.27227C45.3402 7.31772 46.2239 6.56903 47.2659 6.1236C48.3078 5.67818 49.4596 5.55664 50.5716 5.77481C50.2658 5.15514 50.1675 4.45356 50.2911 3.77371C50.4147 3.09385 50.7537 2.47179 51.258 1.99941C52.2973 1.08188 53.6073 0.528121 54.9896 0.422065C56.8225 0.188385 58.9914 0.524299 59.948 2.10894C60.1087 0.984357 61.2844 0.283321 62.3944 0.0715477C63.9003 -0.159211 65.4385 0.172589 66.7153 1.00364C67.9922 1.83469 68.9184 3.1068 69.3172 4.5772C70.2566 3.87971 71.3897 3.49178 72.5595 3.46721C73.1438 3.47109 73.7105 3.66795 74.1714 4.02716C74.6323 4.38637 74.9616 4.88781 75.108 5.4535C75.6484 4.43845 76.9264 4.08062 78.0656 4.03681C78.8956 3.96456 79.7281 4.14532 80.4535 4.55529C80.8126 4.76613 81.0979 5.08267 81.2704 5.46169C81.443 5.84071 81.4943 6.26373 81.4174 6.67302C82.1882 6.45339 83.0122 6.51847 83.739 6.85636C84.4657 7.19425 85.0466 7.78238 85.3754 8.51326C85.6621 9.26233 85.6726 10.0891 85.405 10.8452C85.1373 11.6013 84.609 12.2373 83.9149 12.6392C84.5095 13.0167 84.9975 13.5401 85.3326 14.1595C85.6677 14.779 85.8386 15.474 85.8291 16.1782C85.8195 16.8824 85.6299 17.5725 85.2782 18.1827C84.9265 18.7929 84.4245 19.3029 83.8199 19.6642C83.9835 19.7144 84.1336 19.801 84.2589 19.9176C84.3842 20.0342 84.4814 20.1776 84.5433 20.3372C84.6052 20.4967 84.63 20.6682 84.616 20.8388C84.6021 21.0093 84.5496 21.1745 84.4626 21.3219C84.2634 21.6091 83.9984 21.8444 83.6897 22.0083C83.381 22.1722 83.0375 22.2598 82.6881 22.2639C82.8341 24.6737 82.9729 27.0763 83.1189 29.4788C83.2928 31.0281 83.2238 32.5951 82.9144 34.1232C82.7514 34.8842 82.413 35.5966 81.9262 36.2039C81.4394 36.8111 80.8176 37.2964 80.1103 37.6211" fill="#263238"/>
<path d="M50.1877 23.4102C50.1439 17.5682 55.9713 11.3246 61.7841 11.5291L80.7269 13.7709L80.8875 16.9037L80.3617 59.6599L62.3683 70.6794L61.3314 52.854C61.3314 52.854 53.8536 52.1237 51.6482 42.5648C50.5456 37.8108 50.2316 29.8949 50.1877 23.4102Z" fill="#FFBE9D"/>
<path d="M52.3557 30.7128C52.3745 31.0356 52.5186 31.3384 52.7573 31.5566C52.996 31.7748 53.3104 31.8913 53.6336 31.8812C53.7924 31.8822 53.9498 31.8514 54.0965 31.7907C54.2432 31.7299 54.3763 31.6404 54.4879 31.5275C54.5995 31.4145 54.6874 31.2804 54.7463 31.1329C54.8053 30.9855 54.8342 30.8278 54.8312 30.669C54.8142 30.3455 54.6707 30.0417 54.4316 29.8231C54.1925 29.6045 53.877 29.4886 53.5533 29.5006C53.3945 29.4996 53.2371 29.5304 53.0904 29.5911C52.9437 29.6519 52.8106 29.7414 52.699 29.8543C52.5874 29.9673 52.4995 30.1014 52.4406 30.2489C52.3816 30.3963 52.3527 30.554 52.3557 30.7128Z" fill="#263238"/>
<path d="M52.1841 27.3974C52.3448 27.5508 53.2357 26.784 54.5647 26.6672C55.8938 26.5503 56.9234 27.171 57.0549 26.9958C57.1863 26.8205 56.9454 26.638 56.4926 26.3605C55.8905 26.0004 55.191 25.8371 54.4917 25.8931C53.8018 25.9291 53.1416 26.185 52.6077 26.6234C52.2206 27.025 52.1038 27.3317 52.1841 27.3974Z" fill="#263238"/>
<path d="M65.0236 30.7129C65.0425 31.0358 65.1866 31.3385 65.4253 31.5567C65.6639 31.7749 65.9783 31.8914 66.3016 31.8813C66.4604 31.8823 66.6178 31.8516 66.7645 31.7908C66.9112 31.7301 67.0443 31.6406 67.1559 31.5276C67.2674 31.4146 67.3553 31.2805 67.4143 31.1331C67.4732 30.9856 67.5021 30.8279 67.4992 30.6691C67.4822 30.3456 67.3386 30.0418 67.0995 29.8232C66.8604 29.6046 66.545 29.4888 66.2213 29.5007C66.0625 29.4997 65.9051 29.5305 65.7584 29.5912C65.6117 29.652 65.4786 29.7415 65.367 29.8544C65.2554 29.9674 65.1675 30.1016 65.1085 30.249C65.0496 30.3964 65.0207 30.5542 65.0236 30.7129Z" fill="#263238"/>
<path d="M65.2701 27.0034C65.4307 27.1567 66.3216 26.3973 67.6507 26.2731C68.9797 26.149 70.0021 26.7843 70.1408 26.609C70.2796 26.4338 70.0313 26.2512 69.5786 25.9664C68.975 25.6099 68.2767 25.4468 67.5776 25.499C66.8882 25.5371 66.2286 25.7927 65.6936 26.2293C65.3066 26.6382 65.1897 26.9376 65.2701 27.0034Z" fill="#263238"/>
<path d="M61.1442 36.9711C60.4267 36.8014 59.6906 36.7229 58.9535 36.7375C58.6102 36.7375 58.2816 36.679 58.2232 36.4527C58.1729 36.1018 58.2262 35.744 58.3766 35.423C58.6395 34.5759 58.917 33.685 59.2018 32.7503C60.3409 28.953 61.1369 25.8348 60.9836 25.791C60.8302 25.7472 59.786 28.7923 58.6468 32.5896C58.3766 33.5317 58.1137 34.4226 57.8654 35.277C57.6866 35.7052 57.6583 36.1815 57.7851 36.6279C57.8427 36.7442 57.9258 36.846 58.0282 36.9256C58.1306 37.0053 58.2497 37.0608 58.3766 37.088C58.5686 37.1275 58.7653 37.1398 58.9608 37.1245C59.6922 37.1699 60.4263 37.1183 61.1442 36.9711Z" fill="#263238"/>
<path d="M61.3281 52.8538C65.8786 52.5983 70.2682 51.0812 74.0053 48.4723C74.0053 48.4723 71.2157 55.9793 61.4961 55.7748L61.3281 52.8538Z" fill="#EB996E"/>
<path d="M61.9267 40.1548C62.1573 39.8176 62.4701 39.5447 62.8355 39.3619C63.201 39.1792 63.607 39.0927 64.0152 39.1106C64.3128 39.1192 64.6055 39.1885 64.8755 39.314C65.1454 39.4396 65.3869 39.6188 65.5852 39.8408C65.779 40.0511 65.9038 40.3156 65.943 40.5989C65.9821 40.8821 65.9338 41.1705 65.8043 41.4255C65.6076 41.6804 65.3388 41.8703 65.0328 41.9706C64.7268 42.0708 64.3977 42.0768 64.0882 41.9878C63.4411 41.814 62.8369 41.5082 62.3137 41.0896C62.1562 40.9939 62.0176 40.8702 61.9048 40.7244C61.8573 40.6503 61.832 40.5642 61.832 40.4762C61.832 40.3881 61.8573 40.302 61.9048 40.2279" fill="#EB996E"/>
<path d="M65.1273 37.621C64.9082 37.621 65.0032 39.0816 63.8421 40.1915C62.681 41.3015 61.1255 41.2577 61.1328 41.4622C61.1328 41.5571 61.4906 41.7251 62.1479 41.6958C62.9931 41.6421 63.7934 41.2962 64.4117 40.7173C65.0051 40.1528 65.3582 39.3812 65.3975 38.5631C65.4121 37.957 65.2222 37.6064 65.1273 37.621Z" fill="#263238"/>
<path d="M64.5333 22.2566C64.6867 22.6144 65.9938 22.3442 67.5785 22.4246C69.1631 22.5049 70.4484 22.8408 70.6309 22.4976C70.7113 22.3369 70.4703 22.0083 69.9372 21.6943C69.2279 21.3126 68.4409 21.0977 67.6361 21.0661C66.8313 21.0345 66.0298 21.1869 65.2928 21.5117C64.7305 21.7819 64.4676 22.0886 64.5333 22.2566Z" fill="#263238"/>
<path d="M52.4007 23.4906C52.6563 23.7827 53.5472 23.403 54.6499 23.3081C55.7526 23.2131 56.7019 23.3665 56.8917 23.0306C56.9794 22.8699 56.8114 22.5778 56.3806 22.3003C55.8062 21.9842 55.1491 21.8505 54.4968 21.9171C53.8446 21.9836 53.2281 22.2472 52.7293 22.6727C52.3934 23.0306 52.2839 23.3519 52.4007 23.4906Z" fill="#263238"/>
<path d="M53.3757 11.96C53.1418 12.8709 53.1766 13.83 53.476 14.7215C53.7753 15.6131 54.3263 16.3989 55.0625 16.9841C55.819 17.5389 56.7214 17.8601 57.6583 17.9081C58.5952 17.9562 59.5257 17.7289 60.335 17.2543C60.071 17.6135 59.9475 18.0568 59.9879 18.5007C60.0283 18.9446 60.2296 19.3584 60.554 19.6641C61.2343 20.2514 62.1182 20.5478 63.015 20.4893C63.9524 20.4746 64.8756 20.2576 65.7213 19.853C66.567 19.4484 67.3153 18.8659 67.915 18.1452C68.0602 18.8821 68.378 19.5741 68.8422 20.1645C69.3065 20.7548 69.904 21.2268 70.5859 21.5418C71.2677 21.8567 72.0145 22.0056 72.765 21.9762C73.5154 21.9469 74.2483 21.7401 74.9035 21.3729C74.4296 21.8726 74.0802 22.4769 73.8836 23.1369C73.687 23.7969 73.6487 24.4939 73.7718 25.1714C73.895 25.849 74.1761 26.488 74.5924 27.0365C75.0087 27.5851 75.5484 28.0278 76.1678 28.3288C76.7872 28.6298 77.4688 28.7805 78.1573 28.7688C78.8459 28.757 79.5219 28.5832 80.1307 28.2613C80.7395 27.9394 81.2638 27.4785 81.6612 26.9161C82.0586 26.3537 82.3178 25.7055 82.4178 25.0242C83.0857 24.6786 83.6654 24.1843 84.1122 23.5794C84.5591 22.9745 84.8611 22.2752 84.9952 21.5352C85.1292 20.7952 85.0916 20.0343 84.8853 19.3111C84.679 18.5879 84.3095 17.9217 83.8052 17.3638C84.2718 17.1507 84.674 16.8185 84.9714 16.4006C85.2688 15.9827 85.4509 15.4938 85.4994 14.9832C85.5903 13.9571 85.4115 12.925 84.9809 11.9892C84.5427 10.8143 83.8728 9.73961 83.0109 8.82885C82.1491 7.91809 81.113 7.1899 79.9641 6.68754C78.8044 6.21343 77.5289 6.09918 76.3034 6.35965C75.0779 6.62012 73.9591 7.24325 73.0924 8.14804C72.9353 8.38455 72.708 8.56588 72.4425 8.66652C72.0701 8.76146 71.7123 8.47666 71.4348 8.22107C70.1714 7.05997 68.857 5.80393 67.1774 5.46802C66.1567 5.29044 65.1059 5.46373 64.1962 5.95967C63.2865 6.45561 62.5716 7.24498 62.1679 8.19916C60.8826 6.29321 58.3268 5.21243 56.1725 6.00841C54.0183 6.80438 52.7623 9.65966 53.938 11.624" fill="#263238"/>
<path d="M77.7656 27.2514C78.004 29.2131 78.5203 31.131 79.2991 32.9473C79.6277 33.7214 80.1243 34.5612 80.9422 34.6853C81.3233 34.7074 81.7015 34.6065 82.021 34.3975C82.3405 34.1885 82.5844 33.8823 82.7167 33.5242C82.9675 32.7999 83.0377 32.0253 82.9212 31.2677C82.6287 28.5746 82.1604 25.9035 81.5191 23.2715" fill="#263238"/>
<path d="M79.9922 28.6388C80.1017 28.5731 84.7388 26.5868 85.1624 31.5233C85.5859 36.4598 80.5691 35.9048 80.5472 35.7296C80.5253 35.5543 79.9922 28.6388 79.9922 28.6388Z" fill="#FFBE9D"/>
<path d="M81.878 33.7287C81.878 33.7287 81.973 33.7872 82.119 33.8383C82.331 33.9058 82.5608 33.8901 82.7616 33.7944C83.0621 33.5642 83.2962 33.2584 83.4398 32.9081C83.5835 32.5579 83.6317 32.1758 83.5795 31.8009C83.5524 31.3761 83.4327 30.9623 83.229 30.5886C83.1681 30.4343 83.0692 30.2979 82.9416 30.1919C82.8139 30.086 82.6616 30.014 82.4987 29.9825C82.3978 29.9663 82.2944 29.9859 82.2063 30.0379C82.1183 30.0899 82.0512 30.1711 82.0168 30.2673C81.9656 30.4061 82.0168 30.5083 81.9803 30.5156C81.9437 30.5229 81.8634 30.4426 81.8853 30.2381C81.9016 30.1125 81.961 29.9963 82.0533 29.9095C82.1146 29.8518 82.187 29.8071 82.266 29.7782C82.3451 29.7494 82.4293 29.7369 82.5133 29.7416C82.7193 29.7641 82.916 29.839 83.0847 29.9592C83.2535 30.0793 83.3886 30.2407 83.4773 30.428C83.7226 30.8383 83.8654 31.3017 83.8935 31.779C83.9554 32.216 83.8873 32.6617 83.6977 33.0603C83.5081 33.459 83.2055 33.793 82.8274 34.0208C82.6987 34.0726 82.5598 34.0936 82.4216 34.0822C82.2834 34.0708 82.1498 34.0272 82.0314 33.9551C81.8999 33.8675 81.8634 33.7433 81.878 33.7287Z" fill="#EB996E"/>
<path d="M68.0964 17.1522L67.943 17.1961C67.7939 17.2378 67.6428 17.272 67.4902 17.2983C66.916 17.4128 66.3293 17.4521 65.7449 17.4151C65.3251 17.3917 64.9102 17.3131 64.5108 17.1814C63.9971 17.0203 63.5275 16.7427 63.1387 16.3703C62.7498 15.9979 62.4522 15.5408 62.2689 15.0345C62.0391 14.425 62.0391 13.7527 62.2689 13.1432L62.4369 13.2746C61.3482 14.1641 60.0004 14.6765 58.5958 14.7351C57.8268 14.7757 57.0569 14.6742 56.3247 14.4357C55.94 14.3159 55.5757 14.1386 55.2439 13.9099C54.8985 13.6679 54.6278 13.334 54.4625 12.946C54.2816 12.4816 54.2068 11.9826 54.2435 11.4855C54.2705 11.024 54.3316 10.5651 54.426 10.1126C54.5039 9.66587 54.6466 9.2329 54.8496 8.82738C54.9468 8.61809 55.0898 8.43331 55.268 8.28669C55.4462 8.14007 55.6551 8.03536 55.8792 7.98028L55.945 8.20666C55.1323 8.51421 54.24 8.53993 53.411 8.27969C52.6528 8.05819 51.9721 7.62801 51.4466 7.03825C50.9791 6.51025 50.6814 5.85375 50.5922 5.1542C50.5155 4.56048 50.5704 3.95716 50.7529 3.387C51.0029 2.5777 51.501 1.86751 52.1769 1.3569C52.4148 1.17352 52.6812 1.03044 52.9655 0.93335C52.7132 1.08005 52.4694 1.24097 52.2353 1.41532C51.5985 1.9386 51.1331 2.64059 50.8989 3.43082C50.7371 3.98271 50.6947 4.56276 50.7748 5.1323C50.8676 5.79187 51.1578 6.40793 51.6073 6.89952C52.1092 7.45573 52.7568 7.86043 53.4767 8.06791C54.26 8.30736 55.101 8.2765 55.8646 7.98028L55.9376 8.20666C55.7485 8.25805 55.5728 8.34999 55.4227 8.47609C55.2727 8.60219 55.1518 8.75944 55.0686 8.93691C54.8819 9.32341 54.7492 9.73377 54.6743 10.1564C54.4222 11.022 54.4222 11.9416 54.6743 12.8072C54.8424 13.1449 55.0826 13.4415 55.3779 13.6762C55.6731 13.9109 56.0163 14.0779 56.3831 14.1655C57.0892 14.3965 57.8319 14.4955 58.5739 14.4576C59.9309 14.4058 61.2347 13.9165 62.2908 13.0628L62.6341 12.778L62.4588 13.187C62.2474 13.747 62.2474 14.3649 62.4588 14.925C62.6291 15.4067 62.907 15.8432 63.2715 16.2014C63.6359 16.5595 64.0773 16.8298 64.5619 16.9916C64.9485 17.1279 65.351 17.2138 65.7595 17.2472C66.3344 17.2933 66.9125 17.2737 67.4829 17.1888C67.8773 17.1815 68.089 17.1376 68.0964 17.1522Z" fill="white"/>
<path d="M52.7291 16.0641C52.7291 16.0641 52.6342 16.1517 52.4151 16.2393C52.1011 16.3622 51.7665 16.4241 51.4293 16.4219C50.9086 16.4248 50.3992 16.2694 49.9688 15.9764C49.7026 15.793 49.5191 15.5124 49.4576 15.1951C49.4241 15.0174 49.4428 14.8339 49.5115 14.6667C49.5802 14.4995 49.6959 14.3558 49.8446 14.253L49.9541 14.4794H49.8665C49.3302 14.6695 48.7587 14.7398 48.1923 14.6856C47.6259 14.6314 47.0782 14.4538 46.5877 14.1654C46.2911 13.9963 46.0246 13.7791 45.799 13.5228C45.6384 13.3475 45.5653 13.2307 45.58 13.2234C45.9199 13.5195 46.2866 13.7836 46.6753 14.0121C47.1487 14.2629 47.669 14.4126 48.2033 14.4516C48.7376 14.4905 49.2742 14.418 49.7789 14.2384H49.8592L51.013 13.8295L49.9688 14.4575C49.8657 14.5383 49.7862 14.6453 49.7386 14.7674C49.6911 14.8894 49.6773 15.022 49.6986 15.1513C49.7501 15.4069 49.8962 15.6338 50.1075 15.7866C50.4882 16.0595 50.9395 16.2167 51.4074 16.2393C51.8541 16.2452 52.2993 16.1862 52.7291 16.0641Z" fill="white"/>
<path d="M85.1325 34.9267C85.444 35.0378 85.7279 35.2147 85.965 35.4451C86.6669 36.0246 87.2013 36.7808 87.5131 37.6359C87.7422 38.2826 87.8237 38.9724 87.7517 39.6547C87.6797 40.337 87.456 40.9946 87.0969 41.5792C86.6393 42.3037 85.9828 42.8811 85.2058 43.2424C84.4289 43.6037 83.5643 43.7336 82.7154 43.6167C81.8351 43.5023 81.0167 43.1021 80.3859 42.4775C79.8028 41.9121 79.358 41.2199 79.0861 40.4547C78.8432 39.8139 78.7454 39.1272 78.7997 38.4441C78.854 37.761 79.0591 37.0984 79.4001 36.504C79.8742 35.7156 80.6033 35.1128 81.4667 34.7952C81.771 34.6582 82.1057 34.6028 82.4379 34.6346C82.4379 34.6857 82.0947 34.7149 81.5397 34.9778C80.7622 35.3367 80.1181 35.9322 79.6995 36.6793C79.4046 37.2377 79.2355 37.8539 79.204 38.4847C79.1725 39.1154 79.2793 39.7454 79.5169 40.3305C79.7548 41.0526 80.184 41.6967 80.7587 42.1943C81.3335 42.692 82.0324 43.0245 82.7811 43.1566C83.5325 43.2552 84.2965 43.1396 84.9851 42.8231C85.6737 42.5065 86.2589 42.002 86.6734 41.3675C87.0091 40.8392 87.2256 40.244 87.3076 39.6235C87.3895 39.0029 87.3351 38.372 87.148 37.7746C86.8789 36.9577 86.4153 36.2184 85.7971 35.6204C85.4027 35.153 85.1106 34.9632 85.1325 34.9267Z" fill="#455A64"/>
<path d="M57.5088 33.5174C57.4958 33.0477 57.4519 32.5793 57.3773 32.1153C57.2299 31.3382 56.9215 30.6005 56.4719 29.9497C56.0222 29.299 55.4413 28.7496 54.7665 28.3369C54.0917 27.9241 53.338 27.6573 52.5539 27.5534C51.7697 27.4495 50.9725 27.511 50.2135 27.7338C49.1592 28.0464 48.2164 28.6546 47.497 29.4864C46.7225 30.4014 46.2619 31.5407 46.183 32.7369C46.1041 33.933 46.4111 35.123 47.0589 36.1317C47.3537 36.6132 47.7263 37.0426 48.1615 37.4023C48.5727 37.7577 49.0357 38.0483 49.5344 38.264C50.3982 38.6467 51.3443 38.8065 52.2859 38.7286C53.2274 38.6508 54.1344 38.3379 54.9237 37.8186C55.9878 37.1247 56.7917 36.0974 57.2093 34.8976C57.3482 34.4484 57.4531 33.9895 57.5234 33.5247C57.518 33.7945 57.4887 34.0633 57.4357 34.328C57.4062 34.5294 57.3573 34.7275 57.2897 34.9195C56.9057 36.1756 56.0979 37.2595 55.004 37.9865C54.2532 38.4901 53.3958 38.8126 52.4992 38.9286C51.4627 39.0514 50.412 38.8977 49.4541 38.4831C48.9242 38.2664 48.4314 37.9683 47.9936 37.5995C47.5381 37.2262 47.1482 36.7794 46.8398 36.2777C46.1652 35.2337 45.845 34 45.9265 32.7597C46.0081 31.5193 46.4871 30.3382 47.2925 29.3915C48.0381 28.5073 49.0292 27.8643 50.1405 27.5439C51.1433 27.255 52.2055 27.2424 53.2149 27.5074C54.2866 27.788 55.2551 28.371 56.0047 29.1867C56.7544 30.0024 57.2537 31.0164 57.443 32.108C57.477 32.3061 57.499 32.5061 57.5088 32.7068C57.5193 32.8551 57.5193 33.004 57.5088 33.1523C57.516 33.2739 57.516 33.3958 57.5088 33.5174Z" fill="#263238"/>
<path d="M72.3258 33.5097C72.3129 33.0399 72.269 32.5716 72.1944 32.1076C71.9482 30.846 71.2845 29.7039 70.3103 28.8653C69.6454 28.2896 68.8552 27.877 68.0027 27.6604C67.0238 27.4212 65.9994 27.4414 65.0306 27.7188C63.9634 28.0365 63.0119 28.6582 62.2922 29.5079C61.5218 30.425 61.064 31.5638 60.9852 32.7588C60.9064 33.9539 61.2108 35.1429 61.854 36.1532C62.4546 37.0921 63.318 37.8337 64.3369 38.2855C65.1994 38.6682 66.1443 38.828 67.0847 38.7502C68.0252 38.6723 68.9309 38.3594 69.7188 37.8401C70.7933 37.1394 71.6009 36.0977 72.0118 34.8826C72.1424 34.4312 72.2472 33.9729 72.3258 33.5097C72.3205 33.7795 72.2912 34.0483 72.2382 34.313C72.2052 34.5137 72.1563 34.7115 72.0921 34.9045C71.7055 36.1592 70.8983 37.2423 69.8064 37.9715C68.9988 38.5169 68.0661 38.8485 67.0955 38.9353C66.1249 39.0222 65.1481 38.8614 64.2566 38.4681C63.7378 38.2515 63.257 37.9532 62.8326 37.5845C62.379 37.212 61.9893 36.768 61.6788 36.27C61.0047 35.2244 60.6848 33.9898 60.7664 32.7485C60.8479 31.5071 61.3265 30.3249 62.1315 29.3765C62.503 28.9219 62.9471 28.5321 63.446 28.2227C63.914 27.9021 64.4289 27.6557 64.9722 27.4924C65.9783 27.2154 67.0405 27.2154 68.0466 27.4924C69.12 27.7697 70.0903 28.3516 70.8405 29.1679C71.5907 29.9842 72.0888 31 72.2747 32.093C72.3144 32.2904 72.3388 32.4906 72.3477 32.6918C72.3625 32.8399 72.3625 32.9891 72.3477 33.1373C72.3496 33.2618 72.3423 33.3863 72.3258 33.5097Z" fill="#263238"/>
<path d="M61.1447 31.5597C61.1447 31.5597 60.9476 31.4209 60.6262 31.2457C60.2018 31.0181 59.7277 30.899 59.2461 30.899C58.7645 30.899 58.2903 31.0181 57.8659 31.2457C57.5446 31.4282 57.3766 31.5962 57.3474 31.567C57.3182 31.5378 57.4642 31.3406 57.7856 31.1142C58.2178 30.8259 58.7264 30.6733 59.2461 30.6761C59.7645 30.6667 60.2736 30.8144 60.7066 31.0996C61.0279 31.3406 61.1666 31.5524 61.1447 31.5597Z" fill="#263238"/>
<path d="M80.4838 28.9606C80.4838 29.019 78.629 29.479 76.3068 29.9975C73.9846 30.516 72.0932 30.8811 72.0859 30.8227C74.8523 30.0617 77.6551 29.4402 80.4838 28.9606Z" fill="#263238"/>
<path d="M51.0644 37.2923C50.9701 37.3069 50.874 37.3069 50.7796 37.2923C50.5285 37.241 50.2837 37.1626 50.0494 37.0586C49.2484 36.707 48.5789 36.1116 48.1361 35.3571C47.8483 34.8709 47.6675 34.3289 47.6058 33.7673C47.5441 33.2057 47.6029 32.6373 47.7783 32.1002C47.844 31.9323 47.8878 31.8373 47.9024 31.8446C47.917 31.8519 47.8002 32.239 47.7637 32.8743C47.7123 33.7046 47.9073 34.5315 48.3244 35.2513C48.7414 35.9711 49.3619 36.5516 50.1078 36.9199C50.6774 37.1828 51.079 37.2485 51.0644 37.2923Z" fill="white"/>
<path d="M62.4522 36.5987C62.4522 36.5987 62.3573 36.5184 62.2331 36.3431C62.0541 36.0922 61.9023 35.8229 61.7804 35.5398C61.3682 34.6001 61.229 33.5633 61.3788 32.5482C61.5287 31.533 61.9614 30.5806 62.6275 29.8C62.8253 29.5626 63.0481 29.3472 63.292 29.1574C63.3759 29.0808 63.4722 29.0191 63.5768 28.9749C63.5768 28.9749 63.2117 29.2962 62.7516 29.895C62.1357 30.6717 61.7351 31.5969 61.5902 32.5776C61.4454 33.5582 61.5613 34.5598 61.9264 35.4814C62.1966 36.1897 62.4814 36.5768 62.4522 36.5987Z" fill="white"/>
<path d="M64.2929 37.789C64.2929 37.8401 64.0665 37.789 63.8475 37.6503C63.6284 37.5115 63.4823 37.3801 63.5115 37.329C63.5407 37.2779 63.7452 37.329 63.957 37.4677C64.1688 37.6065 64.3294 37.7379 64.2929 37.789Z" fill="white"/>
<path d="M98.858 141.945C97.675 135.847 93.8923 115.312 93.8996 111.165C93.8996 110.478 94.9658 108.346 95.163 107.689C96.2656 103.979 100.107 90.3452 99.2451 83.1595C98.5513 77.4197 93.6952 70.0661 92.2347 66.1373C91.5482 64.2898 86.0933 62.3839 84.2676 61.6317L80.3973 56.1621C80.3973 56.1621 81.2371 58.7034 77.8195 60.9818C75.9693 62.1814 73.7846 62.7596 71.5832 62.6321C69.402 62.5332 67.2649 61.9846 65.3058 61.0208C63.3467 60.0569 61.6079 58.6986 60.1985 57.0311L59.5632 57.5277C47.0613 61.5587 47.1927 61.5806 44.7975 62.5883C41.7012 63.8955 51.4939 95.603 51.4939 95.603C51.4939 95.603 57.2775 117.014 54.1593 123.652C52.4067 127.384 46.4917 133.561 44.9947 137.03C44.9947 137.03 42.395 140.681 42.3439 141.587C42.2928 142.492 57.723 149.16 69.9255 149.831C92.4756 151.08 98.858 141.945 98.858 141.945Z" fill="#F5F5F5"/>
<path d="M94.1842 103.117C94.1985 102.744 94.2474 102.372 94.3303 102.007C94.4617 101.277 94.6078 100.277 94.7465 99.006C94.9151 97.5171 95.0053 96.0205 95.0167 94.5222C95.0221 92.6901 94.9246 90.8592 94.7246 89.038C94.4999 87.2169 94.1708 85.4102 93.7388 83.6269C93.3813 82.1721 92.9499 80.7365 92.4462 79.3257C92.0154 78.1208 91.6356 77.1349 91.3508 76.4996C91.1861 76.1667 91.0517 75.8197 90.9492 75.4626C91.1561 75.7721 91.3345 76.0996 91.4823 76.4412C91.8109 77.0765 92.2125 78.0331 92.7018 79.2307C93.2431 80.6421 93.7039 82.083 94.082 83.5465C95.0025 87.1231 95.4348 90.8078 95.3672 94.5003C95.3365 96.0076 95.2195 97.512 95.0167 99.006C94.8887 100.015 94.7083 101.017 94.4763 102.007C94.4082 102.384 94.3106 102.756 94.1842 103.117Z" fill="#263238"/>
<path d="M80.4023 56.133L80.4389 53.3362L83.7177 58.6889L90.4068 61.1499C92.5026 63.5743 99.3159 90.8346 97.9357 95.3403L95.5624 122.002L102.339 132.189L90.1731 133.489C90.1731 133.489 87.5661 130.911 88.216 124.083C89.8664 106.791 88.1576 87.0665 87.9093 82.6996C87.5369 76.12 80.4023 56.133 80.4023 56.133Z" fill="#FF725E"/>
<path d="M83.7109 58.696C83.7109 58.696 94.6647 62.2816 96.1252 64.3482C100.039 69.9638 123.583 108.412 112.023 119.847C104.45 127.354 93.8249 111.508 93.8249 111.508L83.7109 58.696Z" fill="#FF725E"/>
<path d="M110.608 104.592C110.271 104.561 109.936 104.503 109.608 104.417L106.869 103.826C104.547 103.336 101.29 102.65 97.5587 102.088L97.7559 101.971C97.3907 102.898 97.0256 103.862 96.6386 104.841C95.6746 107.272 94.7691 109.573 93.9732 111.596V111.428L98.0991 116.576L99.2455 118.036C99.3903 118.206 99.5176 118.389 99.6253 118.584C99.456 118.437 99.2996 118.276 99.1579 118.102C98.8439 117.73 98.4277 117.262 97.9384 116.685L93.7103 111.625L93.6445 111.552V111.457L96.2807 104.702C96.6678 103.723 97.011 102.76 97.4053 101.832L97.4638 101.693H97.6098C101.363 102.278 104.613 103.015 106.928 103.57C108.082 103.848 109.002 104.089 109.637 104.264C109.969 104.347 110.294 104.457 110.608 104.592Z" fill="#263238"/>
<path d="M99.3494 101.518C99.3506 101.107 99.3872 100.696 99.4589 100.291C99.5612 99.4367 99.6999 98.3194 99.8679 96.9612C100.369 93.3176 100.488 89.6319 100.226 85.9636C99.8478 82.3157 98.8085 78.7672 97.1587 75.4918C96.5452 74.2211 95.9829 73.2207 95.5959 72.5708C95.3747 72.2255 95.1794 71.8642 95.0117 71.49C95.089 71.5629 95.1554 71.6465 95.2089 71.7383C95.333 71.9062 95.5083 72.1618 95.7201 72.4685C96.3285 73.4134 96.8891 74.3883 97.3996 75.3895C99.1373 78.6814 100.216 82.2806 100.576 85.9855C100.849 89.6816 100.69 93.3969 100.102 97.0561C99.9044 98.4582 99.7145 99.5901 99.5758 100.371C99.5269 100.758 99.4512 101.141 99.3494 101.518Z" fill="#263238"/>
<path d="M89.4499 96.9467C89.4292 96.799 89.4292 96.649 89.4499 96.5013C89.4499 96.1727 89.501 95.771 89.5375 95.2452C89.6397 94.1061 89.7785 92.5433 89.9537 90.6301C90.129 88.7168 90.3627 86.3508 90.611 83.7876C90.7351 82.5024 90.8738 81.1514 91.0126 79.7493C91.1004 79.0494 91.137 78.3441 91.1221 77.6389C91.1177 76.9315 90.9181 76.2391 90.5452 75.638C90.3468 75.3014 90.0654 75.0213 89.7279 74.8244C89.3904 74.6275 89.008 74.5204 88.6174 74.5134L87.9236 74.5572L88.5005 74.1702L91.4215 72.2204L91.3631 72.4687L85.7329 62.8002C85.061 61.6245 84.528 60.6751 84.1263 59.9814L83.7101 59.2511C83.6608 59.1649 83.6193 59.0745 83.5859 58.981C83.6593 59.051 83.7209 59.1324 83.7685 59.2219L84.2358 59.9522C84.6521 60.6386 85.2217 61.5733 85.93 62.7198C87.3905 65.137 89.3768 68.4669 91.6771 72.3153L91.7647 72.4614L91.626 72.5636L88.7488 74.5207L88.632 74.1775C89.0894 74.1769 89.5391 74.2951 89.9372 74.5204C90.3352 74.7456 90.668 75.0703 90.9031 75.4627C91.3122 76.1207 91.532 76.8787 91.5384 77.6535C91.5527 78.3856 91.5137 79.1178 91.4215 79.8443C91.2682 81.239 91.1294 82.59 90.998 83.8752C90.7205 86.4384 90.4649 88.746 90.2677 90.7104C90.0706 92.6748 89.8661 94.1718 89.7346 95.311C89.6689 95.8222 89.6178 96.2384 89.574 96.5597C89.5443 96.6922 89.5028 96.8217 89.4499 96.9467Z" fill="#263238"/>
<path d="M148.274 197.276L155.577 213.115C155.577 213.115 173.899 210.691 175.542 213.488L145.602 229.1L133.188 204.893L148.274 197.276Z" fill="#455A64"/>
<path d="M145.817 216.503C145.571 216.74 145.42 217.06 145.395 217.401C145.369 217.742 145.47 218.08 145.679 218.351C145.906 218.606 146.224 218.765 146.565 218.793C146.906 218.822 147.245 218.718 147.512 218.504C147.774 218.253 147.933 217.914 147.959 217.552C147.984 217.191 147.874 216.832 147.65 216.547C147.385 216.304 147.036 216.174 146.676 216.183C146.316 216.193 145.975 216.341 145.723 216.598" fill="#E0E0E0"/>
<path d="M145.6 229.1L144.621 227.172L174.006 212.567C174.357 212.598 174.698 212.7 175.009 212.867C175.319 213.034 175.592 213.262 175.81 213.539L145.6 229.1Z" fill="#263238"/>
<path d="M155.919 213.072C155.992 213.225 155.283 213.67 154.794 214.532C154.305 215.394 154.232 216.204 154.064 216.212C153.896 216.219 153.684 215.255 154.29 214.24C154.896 213.225 155.882 212.918 155.919 213.072Z" fill="#263238"/>
<path d="M159.781 212.779C159.883 212.911 159.372 213.509 159.182 214.371C158.992 215.233 159.182 215.992 159.036 216.065C158.89 216.138 158.364 215.335 158.62 214.247C158.875 213.159 159.701 212.633 159.781 212.779Z" fill="#263238"/>
<path d="M163.527 215.7C163.41 215.802 162.797 215.167 162.797 214.159C162.797 213.152 163.293 212.472 163.418 212.567C163.542 212.662 163.337 213.298 163.374 214.137C163.41 214.977 163.666 215.583 163.527 215.7Z" fill="#263238"/>
<path d="M153.833 209.625C153.833 209.793 153.052 209.931 152.241 210.413C151.43 210.895 150.912 211.494 150.78 211.406C150.649 211.319 151 210.472 151.956 209.946C152.913 209.42 153.848 209.471 153.833 209.625Z" fill="#263238"/>
<path d="M152.654 205.995C152.691 206.061 152.15 206.448 151.128 206.762C150.531 206.946 149.912 207.054 149.288 207.083C148.918 207.108 148.547 207.108 148.178 207.083C147.959 207.072 147.744 207.022 147.542 206.937C147.395 206.883 147.27 206.782 147.184 206.65C147.099 206.519 147.058 206.363 147.068 206.207C147.091 206.065 147.147 205.931 147.23 205.815C147.314 205.698 147.423 205.603 147.55 205.535C147.742 205.433 147.949 205.362 148.163 205.323C148.528 205.238 148.899 205.187 149.273 205.17C149.906 205.136 150.54 205.205 151.15 205.374C152.187 205.674 152.705 206.105 152.669 206.156C152.632 206.207 152.048 205.951 151.055 205.776C150.479 205.675 149.892 205.651 149.31 205.703C148.967 205.732 148.628 205.789 148.295 205.871C147.93 205.951 147.659 206.09 147.645 206.273C147.63 206.455 147.645 206.367 147.769 206.426C147.92 206.479 148.077 206.511 148.236 206.521C148.581 206.555 148.927 206.573 149.273 206.572C149.864 206.563 150.453 206.502 151.033 206.389C151.564 206.22 152.105 206.088 152.654 205.995Z" fill="#263238"/>
<path d="M119.741 222.733L118.814 240.164C118.814 240.164 136.143 246.597 136.289 249.832L102.5 249.613L102.829 222.39L119.741 222.733Z" fill="#455A64"/>
<path d="M108.603 238.579C108.272 238.673 107.988 238.886 107.804 239.177C107.621 239.468 107.552 239.817 107.61 240.156C107.692 240.489 107.898 240.777 108.186 240.962C108.474 241.146 108.822 241.214 109.158 241.149C109.51 241.051 109.812 240.826 110.005 240.516C110.198 240.207 110.269 239.836 110.202 239.477C110.08 239.139 109.831 238.861 109.509 238.702C109.186 238.543 108.815 238.515 108.472 238.623" fill="#E0E0E0"/>
<path d="M102.5 249.613V247.422L135.288 248.298C135.584 248.489 135.838 248.739 136.034 249.031C136.23 249.324 136.364 249.654 136.427 250L102.5 249.613Z" fill="#263238"/>
<path d="M119.124 240.28C119.124 240.448 118.284 240.507 117.452 241.011C116.619 241.514 116.181 242.23 115.991 242.157C115.801 242.084 116.101 241.135 117.116 240.521C118.131 239.908 119.168 240.127 119.124 240.28Z" fill="#263238"/>
<path d="M122.719 241.821C122.755 241.982 122.025 242.252 121.448 242.946C120.871 243.639 120.718 244.406 120.528 244.406C120.338 244.406 120.272 243.45 121.01 242.603C121.747 241.755 122.719 241.661 122.719 241.821Z" fill="#263238"/>
<path d="M124.637 246.137C124.483 246.173 124.264 245.334 124.71 244.428C125.155 243.523 125.936 243.172 126.009 243.318C126.082 243.464 125.586 243.932 125.228 244.684C124.87 245.436 124.804 246.122 124.637 246.137Z" fill="#263238"/>
<path d="M118.892 236.257C118.819 236.403 118.059 236.162 117.117 236.213C116.175 236.264 115.43 236.542 115.35 236.396C115.27 236.249 115.978 235.665 117.088 235.665C118.198 235.665 118.972 236.147 118.892 236.257Z" fill="#263238"/>
<path d="M119.567 232.496C119.005 232.641 118.413 232.628 117.858 232.46C117.242 232.344 116.643 232.15 116.076 231.883C115.741 231.724 115.417 231.543 115.105 231.342C114.916 231.234 114.746 231.096 114.601 230.933C114.493 230.813 114.428 230.66 114.416 230.499C114.404 230.338 114.446 230.177 114.535 230.043C114.621 229.93 114.731 229.838 114.858 229.775C114.984 229.711 115.124 229.678 115.266 229.677C115.484 229.678 115.701 229.713 115.908 229.78C116.27 229.872 116.622 229.999 116.96 230.159C117.531 230.429 118.055 230.786 118.515 231.218C119.297 231.949 119.559 232.591 119.501 232.628C119.443 232.664 119.048 232.153 118.252 231.532C117.789 231.173 117.281 230.876 116.741 230.649C116.427 230.512 116.102 230.405 115.769 230.327C115.404 230.225 115.098 230.218 115.003 230.378C114.908 230.539 114.966 230.466 115.039 230.568C115.147 230.687 115.272 230.788 115.412 230.868C115.699 231.064 115.999 231.242 116.31 231.401C116.833 231.673 117.381 231.896 117.946 232.065C118.495 232.172 119.037 232.316 119.567 232.496Z" fill="#263238"/>
<path d="M42.4805 139.024C42.4805 139.024 111.664 130.83 115.652 130.83C125.013 130.83 129.402 137.687 130.804 143.194C131.841 147.268 152.654 206.134 152.654 206.134L137.318 214.108L114.68 173.944L103.157 153.899L43.7876 163.071L42.4805 139.024Z" fill="#263238"/>
<path d="M105.984 152.037C105.984 152.037 115.259 152.037 120.268 159.464C123.189 163.845 122.181 171.622 122.24 177.508C122.32 185.541 120.385 234.329 120.385 234.329L101.398 234.65L97.4258 183.774L97.6595 174.368L59.7668 171.286C59.7668 171.286 56.32 159.807 64.8055 150.744C65.9009 149.576 105.984 152.037 105.984 152.037Z" fill="#263238"/>
<path d="M42.5067 139.973C42.5067 139.973 36.599 153.629 44.5806 165.313C49.853 173.017 59.9597 171.25 59.9597 171.25L73.3817 154.454L62.6689 137.717L42.5067 139.973Z" fill="#263238"/>
<path d="M59.9531 171.228C60.0323 171.177 60.1153 171.133 60.2014 171.096L60.9317 170.746L63.8527 169.424L74.6239 164.626L90.6091 157.557L100.059 153.395C100.884 153.045 101.68 152.665 102.563 152.336C103.44 152.029 104.341 151.799 105.258 151.65C107.133 151.37 109.038 151.352 110.917 151.599C112.801 151.824 114.637 152.347 116.358 153.147C117.208 153.541 117.997 154.055 118.702 154.673C119.383 155.297 119.962 156.024 120.418 156.827C121.312 158.38 121.853 160.11 122.003 161.895C122.076 162.779 122.003 163.619 122.003 164.466C122.003 165.313 122.003 166.138 122.003 166.963C121.93 173.535 121.857 179.465 121.805 184.445C121.754 189.426 121.674 193.427 121.637 196.232C121.637 197.604 121.586 198.678 121.572 199.43V200.27C121.581 200.362 121.581 200.455 121.572 200.547C121.561 200.453 121.561 200.357 121.572 200.263C121.572 200.058 121.572 199.781 121.572 199.43C121.572 198.7 121.572 197.604 121.572 196.232C121.572 193.427 121.572 189.404 121.623 184.445C121.674 179.487 121.696 173.535 121.74 166.963V164.466C121.74 163.626 121.784 162.764 121.74 161.924C121.59 160.195 121.061 158.52 120.192 157.017C119.757 156.246 119.199 155.55 118.541 154.958C117.869 154.361 117.111 153.869 116.292 153.497C114.607 152.714 112.807 152.204 110.961 151.986C109.118 151.744 107.25 151.759 105.411 152.029C104.517 152.177 103.638 152.402 102.782 152.701C101.935 152.986 101.117 153.432 100.3 153.746L90.8428 157.886L74.8211 164.882L64.0133 169.57C62.7427 170.103 61.7568 170.527 61.0923 170.826L60.3183 171.14C60.2019 171.188 60.0787 171.218 59.9531 171.228Z" fill="#455A64"/>
<path d="M61.3744 53.9862L58.0955 57.506L45.9149 61.3763C46.3261 70.3145 47.2895 79.2186 48.7994 88.0378C51.4795 103.052 52.918 118.358 52.9911 118.599C53.5826 117.482 46.8716 126.697 43.1692 135.745C40.2482 142.858 38.6562 157.697 38.6562 157.697L69.3268 167.088L74.5189 111.53L73.1606 85.8325L61.3744 53.9862Z" fill="#FF725E"/>
<g opacity="0.3">
<path opacity="0.3" d="M47.7773 126.237C48.2082 127.179 49.5226 127.508 50.5377 127.332C57.8037 126.069 68.5165 120.585 74.1175 115.787C74.1686 115.546 74.5192 111.26 74.5192 111.26V109.069L47.7773 126.237Z" fill="black"/>
</g>
<path d="M45.9333 61.3765C44.1578 62.1637 42.583 63.3415 41.3262 64.8221C40.0694 66.3028 39.163 68.048 38.6746 69.9277C38.6746 69.9277 37.3747 73.9441 36.4108 78.4424C34.0594 89.3962 28.9988 109.887 28.7943 115.32C28.4292 125.157 35.8266 127.946 39.8211 128.808C43.8155 129.67 71.5943 114.488 71.5943 114.488L66.9864 100.657L48.8762 105.33C48.8762 105.33 52.7465 92.697 53.8638 87.5268C54.9811 82.3566 45.9333 61.3765 45.9333 61.3765Z" fill="#FF725E"/>
<path d="M42.9632 128.246L43.1092 128.173L43.54 127.997C43.9198 127.844 44.4748 127.625 45.1977 127.318C46.6582 126.719 48.7248 125.814 51.288 124.602C56.3998 122.185 63.4759 118.548 71.4795 114.32L71.3919 114.546C70.6616 112.275 69.8437 109.916 69.0404 107.499C68.2372 105.082 67.5069 102.913 66.7767 100.715L67.003 100.832L48.0676 105.944C46.3641 106.124 44.7236 106.688 43.2699 107.594C42.161 108.262 41.1277 109.048 40.1882 109.938C39.5913 110.504 39.0303 111.106 38.5086 111.742L38.107 112.246C38.0194 112.355 37.9682 112.414 37.9609 112.406C38.5582 111.463 39.2695 110.598 40.0787 109.829C41.011 108.907 42.0448 108.093 43.1603 107.404C44.6317 106.455 46.3047 105.862 48.0457 105.674L66.9592 100.445L67.1272 100.401L67.1856 100.569L69.4494 107.353C70.2527 109.763 71.0413 112.122 71.7935 114.4L71.8446 114.546L71.7059 114.619C63.6731 118.833 56.6116 122.433 51.4414 124.792C48.8563 125.975 46.7605 126.851 45.3 127.413C44.5697 127.698 44.0001 127.902 43.6131 128.034L43.1676 128.18C43.0216 128.238 42.9705 128.253 42.9632 128.246Z" fill="#263238"/>
<path d="M54.5239 85.0581C54.6262 85.0581 53.4431 89.6514 51.8731 95.2816C50.3031 100.912 48.9521 105.396 48.8499 105.366C48.7476 105.337 49.9379 100.78 51.508 95.1794C53.078 89.5784 54.429 85.0289 54.5239 85.0581Z" fill="#263238"/>
<path d="M73.1695 99.5904C73.0738 99.4468 72.9954 99.2924 72.9359 99.1303C72.7849 98.7944 72.5878 98.349 72.3444 97.794C71.8259 96.6329 71.081 94.946 70.1536 92.8867C67.6446 87.5212 64.8661 82.2859 61.8287 77.2009L60.9889 75.8134L60.8721 75.6235L61.0766 75.5432L64.5307 74.0827L64.4795 74.3967C63.3627 73.4804 62.0515 72.831 60.6457 72.4981H60.5216V72.3739C60.3099 70.3208 59.9511 68.2854 59.4481 66.2836C59.0173 64.4726 58.6521 62.866 58.4404 61.5224C58.2632 60.4768 58.1582 59.4203 58.1264 58.3604C58.1264 57.988 58.1264 57.7032 58.1264 57.5133C58.1141 57.4163 58.1141 57.3182 58.1264 57.2212C58.1725 57.5969 58.1993 57.9747 58.2067 58.3531C58.2799 59.4046 58.4164 60.4508 58.6156 61.4859C58.8566 62.8149 59.2437 64.4069 59.6964 66.2179C60.2338 68.2277 60.6146 70.2761 60.8356 72.3447L60.7041 72.1913C62.1691 72.5317 63.5344 73.2093 64.6913 74.1703L64.925 74.3675L64.6402 74.4843L61.1934 75.9448L61.281 75.6674L62.1281 77.0621C65.1786 82.1526 67.929 87.417 70.3654 92.8283C71.3001 94.9022 72.0157 96.6037 72.4831 97.7867C72.7022 98.349 72.8774 98.809 73.0162 99.1522C73.0783 99.2942 73.1296 99.4407 73.1695 99.5904Z" fill="#263238"/>
<path d="M48.0103 137.688C47.9335 137.825 47.8403 137.953 47.7328 138.068C47.521 138.33 47.2581 138.674 46.9222 139.09L43.9281 142.741L43.8478 142.522L58.409 145.261L58.2192 145.334L58.4455 145.012L62.513 139.36L62.6372 139.645L52.1581 138.294L49.1202 137.87L48.3024 137.746L48.0103 137.681C48.0999 137.669 48.1908 137.669 48.2804 137.681L49.0764 137.746L52.107 138.068L62.681 139.287L62.9804 139.324L62.8051 139.572L58.7596 145.231L58.5259 145.553L58.4528 145.655H58.336L43.7967 142.807L43.5703 142.763L43.7237 142.588L46.8491 138.937C47.1997 138.542 47.4845 138.206 47.7035 137.973C47.9226 137.739 48.003 137.673 48.0103 137.688Z" fill="#263238"/>
<path d="M53.3407 74.0312C53.275 74.0312 53.1582 73.301 52.7711 72.2494C52.266 70.842 51.5252 69.5308 50.5804 68.3718C49.6276 67.2158 48.4871 66.2284 47.2066 65.4508C46.2208 64.8593 45.5489 64.6037 45.5708 64.538C45.7424 64.5498 45.9105 64.5918 46.0674 64.6621C46.5062 64.8101 46.9313 64.9958 47.3381 65.2171C50.0772 66.6861 52.1227 69.1806 53.0267 72.1545C53.167 72.5969 53.2648 73.0517 53.3188 73.5128C53.3407 73.8487 53.3407 74.0312 53.3407 74.0312Z" fill="#263238"/>
<g opacity="0.3">
<path opacity="0.3" d="M45.6944 143.026L44.7305 144.91L58.3935 147.845L61.8111 140.667L58.3716 145.458L45.6944 143.026Z" fill="black"/>
</g>
<path d="M97.2671 101.489C96.9242 99.9543 96.8722 98.369 97.1138 96.8153C97.3019 95.885 97.334 94.9299 97.2087 93.9892C97.0334 93.0544 96.1717 92.0759 95.2297 92.1562L93.8203 98.9622L97.2671 101.489Z" fill="#FFBE9D"/>
<path d="M96.6063 85.5112L91.6113 109.609L79.7812 108.879L83.2865 85.073C83.332 84.7685 83.4852 84.4905 83.7184 84.2894C83.9516 84.0884 84.2492 83.9778 84.5571 83.9777H95.3575C95.5467 83.9782 95.7335 84.0207 95.9043 84.1021C96.075 84.1836 96.2256 84.302 96.3451 84.4487C96.4646 84.5954 96.55 84.7668 96.5951 84.9506C96.6403 85.1343 96.6441 85.3258 96.6063 85.5112Z" fill="#263238"/>
<path d="M83.2812 91.7617C83.362 91.5237 83.423 91.2794 83.4638 91.0314L83.8582 89.0817C84.0188 88.2419 84.2087 87.2706 84.4204 86.1607C84.4403 86.0273 84.4696 85.8956 84.5081 85.7663C84.55 85.6509 84.6203 85.548 84.7125 85.4669C84.8071 85.38 84.923 85.3195 85.0485 85.2917C85.1892 85.2764 85.3312 85.2764 85.472 85.2917H87.3414C89.8973 85.2917 92.2195 85.2917 93.9137 85.2259L95.9073 85.1748C96.1516 85.1748 96.3956 85.1578 96.6376 85.1237C96.3966 85.0811 96.1516 85.0664 95.9073 85.0799H93.921C92.2487 85.0799 89.9265 85.0799 87.3488 85.0799H85.472C85.3141 85.0658 85.1553 85.0658 84.9973 85.0799C84.8337 85.1148 84.6823 85.1929 84.5592 85.3063C84.4369 85.4154 84.344 85.5535 84.289 85.7079C84.2458 85.8487 84.214 85.9928 84.1941 86.1388C84.0042 87.2195 83.8362 88.2054 83.6902 89.0598C83.5441 89.9142 83.4492 90.5203 83.3689 91.0168C83.3182 91.2621 83.2889 91.5113 83.2812 91.7617Z" fill="#455A64"/>
<path d="M89.6296 86.5112C89.6824 86.3698 89.788 86.2542 89.9241 86.1889C90.0603 86.1235 90.2165 86.1134 90.3599 86.1607C90.4673 86.1895 90.564 86.2491 90.6379 86.3321C90.7119 86.4152 90.76 86.5181 90.7761 86.6281C90.7839 86.748 90.7579 86.8676 90.7011 86.9734C90.6443 87.0793 90.559 87.1671 90.4548 87.2269C90.3496 87.2848 90.2296 87.3102 90.11 87.2998C89.9904 87.2894 89.8766 87.2437 89.783 87.1685C89.6897 87.0903 89.6244 86.9839 89.5967 86.8654C89.5691 86.7469 89.5806 86.6226 89.6296 86.5112Z" fill="#FAFAFA"/>
<path d="M89.956 93.7481C90.2262 93.8211 96.4917 97.0488 96.4917 97.0488L99.7559 100.496C100.127 101.291 100.337 102.153 100.375 103.03C100.412 103.907 100.276 104.783 99.975 105.607C99.0184 108.718 97.4629 109.806 93.8628 110.719L87.0569 109.646L83.6247 106.827C83.2927 106.555 83.0499 106.19 82.9276 105.778C82.8052 105.367 82.8089 104.929 82.9382 104.519L82.9894 104.381L82.595 103.731C82.4754 103.53 82.4172 103.298 82.4275 103.065C82.4379 102.831 82.5165 102.606 82.6534 102.416C82.8398 102.165 83.1181 101.998 83.4274 101.951C83.7366 101.905 84.0518 101.983 84.3038 102.168L88.1814 105.001L90.8468 105.352L91.2485 104.475L87.3416 102.445L82.3686 98.6043C82.2122 98.4834 82.0818 98.3321 81.9856 98.1594C81.8893 97.9867 81.8291 97.7963 81.8086 97.5996C81.7882 97.403 81.8078 97.2042 81.8664 97.0154C81.925 96.8266 82.0214 96.6516 82.1496 96.5011C82.3722 96.2386 82.6803 96.0632 83.0197 96.0057C83.359 95.9483 83.7078 96.0125 84.0044 96.1871L88.6196 98.9037L93.4392 101.029L92.709 99.1155L87.0422 94.9238C87.0422 94.9238 86.5676 92.9083 89.956 93.7481Z" fill="#FFBE9D"/>
<path d="M89.36 90.4695C89.36 90.4695 88.0528 89.7392 85.884 90.6228C83.7151 91.5064 80.9548 92.872 80.9548 92.872L76.807 94.0623L77.2962 93.0327C77.2962 93.0327 81.3929 93.4489 81.1958 90.4695L78.7275 90.579L76.6025 89.4836L72.4328 93.5511L70.87 99.2909L67.2188 101.518L70.4684 111.53L76.3104 107.879L84.4381 107.718L87.4175 105.315L87.7461 102.256L90.6671 99.2909C90.6671 99.2909 91.0396 97.8304 89.6959 97.6552C88.3522 97.4799 85.1172 100.73 85.1172 100.73L81.8749 100.81C81.8749 100.81 81.3126 100.299 81.7727 100.007C82.2327 99.7145 91.7917 95.0262 92.2153 93.9674C92.6388 92.9085 93.0697 92.2294 92.1203 91.93C91.2705 91.8057 90.4031 91.8909 89.5937 92.1783C89.5937 92.1783 90.0829 90.7032 89.36 90.4695Z" fill="#FFBE9D"/>
<path d="M81.4457 96.3407C82.9035 95.7596 84.3273 95.0964 85.7103 94.3544C87.1304 93.6974 88.5149 92.9661 89.8582 92.1637C88.4054 92.7511 86.9843 93.4141 85.6008 94.15C83.2786 95.2965 81.4164 96.2823 81.4457 96.3407Z" fill="#EB996E"/>
<path d="M79.5234 103.972C79.68 104.042 79.8442 104.093 80.0127 104.125C80.334 104.213 80.7941 104.329 81.371 104.432C82.0551 104.554 82.7506 104.601 83.4449 104.57C84.3047 104.525 85.1444 104.293 85.9058 103.891C87.2584 103.136 88.4316 102.097 89.3453 100.846C89.7031 100.379 89.9806 99.9918 90.1632 99.7216C90.2746 99.5898 90.3657 99.4421 90.4334 99.2834C90.4334 99.2834 89.9587 99.8384 89.2066 100.744C88.2714 101.931 87.1128 102.923 85.7963 103.665C85.0623 104.049 84.2568 104.278 83.4303 104.337C82.7524 104.377 82.0721 104.348 81.4002 104.249C80.2464 104.096 79.5307 103.972 79.5234 103.972Z" fill="#EB996E"/>
</svg>
