<svg width="157" height="336" viewBox="0 0 157 336" fill="none" xmlns="http://www.w3.org/2000/svg">
<path d="M91.4186 304.122L90.8086 333.202L129.089 334.102C128.959 330.642 109.339 323.232 109.339 323.232L110.539 304.622L91.4186 304.122Z" fill="#455A64"/>
<g opacity="0.6">
<path opacity="0.6" d="M97.5389 321.392C97.1781 321.478 96.8629 321.696 96.6555 322.004C96.4481 322.311 96.3636 322.685 96.4189 323.052C96.52 323.415 96.7542 323.727 97.0748 323.925C97.3953 324.123 97.7788 324.194 98.1489 324.122C98.3488 324.095 98.5407 324.026 98.7117 323.919C98.8826 323.812 99.0285 323.669 99.1396 323.501C99.2507 323.332 99.3244 323.142 99.3557 322.943C99.387 322.744 99.3751 322.54 99.3209 322.346C99.2668 322.151 99.1715 321.971 99.0416 321.816C98.9118 321.662 98.7503 321.537 98.5681 321.451C98.3859 321.364 98.1872 321.318 97.9855 321.314C97.7838 321.311 97.5838 321.351 97.3989 321.432" fill="white"/>
</g>
<g opacity="0.6">
<path opacity="0.6" d="M90.8086 333.202L90.9986 330.272L127.629 332.272C127.629 332.272 129.309 333.012 129.089 334.142L90.8086 333.202Z" fill="white"/>
</g>
<path d="M109.96 323.062C109.96 323.242 109.02 323.302 108.08 323.852C107.14 324.402 106.64 325.122 106.47 325.052C106.3 324.982 106.6 323.962 107.75 323.322C108.9 322.682 110.01 322.902 109.96 323.062Z" fill="#263238"/>
<path d="M113.941 324.732C113.941 324.902 113.161 325.182 112.501 325.912C111.841 326.642 111.641 327.432 111.501 327.422C111.361 327.412 111.221 326.422 112.051 325.512C112.881 324.602 113.941 324.562 113.941 324.732Z" fill="#263238"/>
<path d="M116.1 329.322C115.93 329.322 115.69 328.472 116.19 327.512C116.69 326.552 117.58 326.192 117.66 326.342C117.74 326.492 117.18 326.992 116.78 327.782C116.38 328.572 116.28 329.312 116.1 329.322Z" fill="#263238"/>
<path d="M109.721 318.792C109.641 318.952 108.781 318.692 107.721 318.732C106.661 318.772 105.831 319.072 105.721 318.922C105.611 318.772 106.441 318.152 107.721 318.122C109.001 318.092 109.831 318.662 109.721 318.792Z" fill="#263238"/>
<path d="M108.941 314.482C108.308 314.63 107.646 314.613 107.021 314.432C106.333 314.299 105.662 314.088 105.021 313.802C104.649 313.632 104.288 313.438 103.941 313.222C103.73 313.105 103.538 312.957 103.371 312.782C103.252 312.657 103.18 312.495 103.169 312.323C103.158 312.151 103.209 311.98 103.311 311.842C103.409 311.715 103.535 311.614 103.679 311.546C103.823 311.478 103.982 311.446 104.141 311.452C104.382 311.458 104.62 311.495 104.851 311.562C105.26 311.666 105.658 311.806 106.041 311.982C106.675 312.268 107.259 312.653 107.771 313.122C108.641 313.912 108.931 314.582 108.861 314.612C108.791 314.642 108.361 314.112 107.471 313.442C106.952 313.058 106.388 312.739 105.791 312.492C105.433 312.353 105.065 312.24 104.691 312.152C104.291 312.042 103.951 312.032 103.841 312.152C103.731 312.272 103.841 312.242 103.841 312.362C103.963 312.487 104.1 312.595 104.251 312.682C104.575 312.888 104.909 313.079 105.251 313.252C105.84 313.548 106.456 313.786 107.091 313.962C107.72 314.089 108.338 314.263 108.941 314.482Z" fill="#263238"/>
<path d="M108.718 314.732C108.372 314.213 108.211 313.594 108.258 312.972C108.237 312.292 108.342 311.614 108.568 310.972C108.704 310.592 108.879 310.227 109.088 309.882C109.206 309.641 109.382 309.434 109.6 309.278C109.819 309.123 110.072 309.025 110.338 308.992C110.506 309 110.668 309.054 110.807 309.147C110.946 309.24 111.057 309.37 111.128 309.522C111.222 309.734 111.28 309.961 111.298 310.192C111.364 310.596 111.364 311.008 111.298 311.412C111.17 312.091 110.875 312.727 110.438 313.262C109.658 314.182 108.878 314.372 108.858 314.312C108.838 314.252 109.458 313.902 110.058 313.012C110.398 312.504 110.62 311.927 110.708 311.322C110.763 310.974 110.763 310.62 110.708 310.272C110.708 309.892 110.518 309.572 110.368 309.612C110.218 309.652 109.838 309.882 109.678 310.192C109.481 310.509 109.313 310.844 109.178 311.192C108.948 311.767 108.806 312.374 108.758 312.992C108.608 314.042 108.788 314.702 108.718 314.732Z" fill="#263238"/>
<path d="M62.4088 306.542L58.7188 335.392L20.7188 330.672C21.3587 327.272 41.8487 322.822 41.8487 322.822L43.3887 304.232L62.4088 306.542Z" fill="#455A64"/>
<g opacity="0.6">
<path opacity="0.6" d="M53.8288 322.722C54.1749 322.859 54.4566 323.121 54.6178 323.457C54.779 323.792 54.808 324.176 54.6989 324.532C54.5428 324.874 54.2646 325.146 53.9187 325.294C53.5729 325.442 53.1842 325.455 52.8288 325.332C52.4611 325.188 52.1622 324.909 51.9931 324.552C51.824 324.196 51.7974 323.788 51.9188 323.412C52.119 323.082 52.4323 322.836 52.8003 322.72C53.1682 322.605 53.5658 322.626 53.9188 322.782" fill="white"/>
</g>
<g opacity="0.6">
<path opacity="0.6" d="M58.7188 335.392L58.9688 332.462L22.4487 329.042C22.4487 329.042 20.7188 329.482 20.7188 330.672L58.7188 335.392Z" fill="white"/>
</g>
<path d="M41.301 322.562C41.301 322.742 42.201 322.932 43.051 323.612C43.901 324.292 44.291 325.082 44.471 325.032C44.651 324.982 44.471 323.942 43.471 323.142C42.471 322.342 41.281 322.392 41.301 322.562Z" fill="#263238"/>
<path d="M37.1295 323.622C37.0595 323.792 37.8295 324.192 38.3695 325.012C38.9095 325.832 38.9995 326.632 39.1795 326.652C39.3595 326.672 39.6095 325.652 38.9195 324.652C38.2295 323.652 37.1495 323.482 37.1295 323.622Z" fill="#263238"/>
<path d="M34.3205 327.852C34.4805 327.912 34.8405 327.072 34.4805 326.052C34.1205 325.032 33.3005 324.542 33.2105 324.672C33.1205 324.802 33.5905 325.392 33.8705 326.232C34.1505 327.072 34.1305 327.812 34.3205 327.852Z" fill="#263238"/>
<path d="M42.1492 318.372C42.2092 318.542 43.0892 318.372 44.1492 318.602C45.2092 318.832 45.9692 319.212 46.0792 319.072C46.1892 318.932 45.4892 318.212 44.2592 317.992C43.0292 317.772 42.0692 318.222 42.1492 318.372Z" fill="#263238"/>
<path d="M43.5703 314.222C44.1745 314.456 44.8286 314.532 45.4703 314.442C46.1681 314.418 46.8601 314.308 47.5303 314.112C47.9269 314.005 48.3147 313.868 48.6903 313.702C48.9169 313.618 49.1293 313.5 49.3203 313.352C49.4552 313.246 49.549 313.096 49.5855 312.928C49.622 312.76 49.5989 312.585 49.5203 312.432C49.4388 312.294 49.3271 312.177 49.1938 312.089C49.0604 312 48.9088 311.943 48.7503 311.922C48.5113 311.891 48.2693 311.891 48.0303 311.922C47.6136 311.962 47.2017 312.043 46.8003 312.162C46.1286 312.351 45.4908 312.645 44.9103 313.032C43.9103 313.692 43.5603 314.312 43.6203 314.352C43.6803 314.392 44.1903 313.922 45.1603 313.402C46.0671 312.904 47.0691 312.604 48.1003 312.522C48.5203 312.472 48.8603 312.522 48.9403 312.692C49.0203 312.862 48.9403 312.792 48.8703 312.892C48.7303 312.998 48.5753 313.082 48.4103 313.142C48.0636 313.306 47.7061 313.446 47.3403 313.562C46.7144 313.765 46.072 313.912 45.4203 314.002C44.799 314.028 44.1805 314.102 43.5703 314.222Z" fill="#263238"/>
<path d="M43.7814 314.482C44.199 314.017 44.4489 313.425 44.4914 312.802C44.611 312.141 44.611 311.463 44.4914 310.802C44.4182 310.407 44.3008 310.021 44.1414 309.652C44.0626 309.397 43.9204 309.165 43.728 308.98C43.5357 308.795 43.2994 308.661 43.0414 308.592C42.8752 308.573 42.7069 308.6 42.5552 308.671C42.4035 308.742 42.2741 308.853 42.1814 308.992C42.0631 309.192 41.9723 309.407 41.9114 309.632C41.7939 310.024 41.7432 310.433 41.7614 310.842C41.7748 311.548 41.9749 312.238 42.3414 312.842C42.9714 313.842 43.7214 314.172 43.7514 314.112C43.7814 314.052 43.2114 313.612 42.7514 312.652C42.492 312.098 42.3588 311.493 42.3614 310.882C42.3638 310.542 42.4177 310.205 42.5214 309.882C42.6214 309.502 42.8114 309.212 42.9614 309.272C43.1114 309.332 43.4314 309.622 43.5514 309.942C43.6988 310.265 43.8192 310.599 43.9114 310.942C44.0452 311.545 44.0957 312.165 44.0614 312.782C43.9614 313.832 43.7214 314.482 43.7814 314.482Z" fill="#263238"/>
<path d="M121.109 149.792L61.5192 151.702C61.5192 151.702 47.4692 245.482 47.8592 252.012L39.1992 320.012L64.3992 320.902C64.3992 320.902 68.3992 298.832 71.1292 283.732C72.9692 273.732 76.3292 258.952 77.2392 250.562C78.1492 242.172 92.8892 183.562 92.8892 183.562C92.8892 183.562 91.7992 251.562 91.8292 254.362C91.8592 257.162 88.9092 320.822 88.9092 320.822H113.909C115.199 309.332 118.269 263.352 118.909 254.062C120.109 237.282 123.909 189.882 124.419 177.772C124.929 165.662 121.109 149.792 121.109 149.792Z" fill="#263238"/>
<path d="M117.178 150.252C116.899 148.842 116.899 147.392 117.178 145.982C117.471 147.39 117.471 148.844 117.178 150.252Z" fill="#455A64"/>
<path d="M119.659 151.382C119.184 149.584 119.343 147.677 120.109 145.982C120.081 146.887 119.995 147.789 119.849 148.682C119.846 149.585 119.782 150.487 119.659 151.382Z" fill="#455A64"/>
<path d="M97.4 146.912C96.9163 147.011 96.4758 147.26 96.14 147.622C95.9724 147.812 95.8489 148.038 95.778 148.281C95.7071 148.525 95.6908 148.781 95.73 149.032C95.8148 149.319 95.9773 149.578 96.1996 149.779C96.4219 149.981 96.6954 150.117 96.9901 150.172C97.2847 150.228 97.589 150.202 97.8695 150.096C98.15 149.99 98.3959 149.809 98.58 149.572C98.7063 149.353 98.7842 149.109 98.8084 148.857C98.8325 148.605 98.8024 148.351 98.72 148.112C98.5446 147.648 98.2213 147.254 97.8 146.992C97.8 146.992 97.97 146.992 98.22 147.102C98.5751 147.304 98.8504 147.622 99 148.002C99.1252 148.285 99.1831 148.592 99.1692 148.901C99.1553 149.21 99.07 149.512 98.92 149.782C98.6997 150.1 98.3921 150.347 98.0344 150.493C97.6766 150.64 97.2841 150.679 96.9043 150.607C96.5244 150.535 96.1736 150.355 95.8942 150.088C95.6148 149.821 95.4189 149.478 95.33 149.102C95.2891 148.794 95.3201 148.482 95.4208 148.189C95.5215 147.895 95.6889 147.629 95.91 147.412C96.1924 147.116 96.5654 146.922 96.97 146.862C97.25 146.832 97.4 146.892 97.4 146.912Z" fill="#455A64"/>
<path d="M69.9281 250.402C67.7525 249.743 65.6214 248.944 63.5481 248.012C61.4176 247.215 59.34 246.283 57.3281 245.222C59.5059 245.884 61.6401 246.683 63.7181 247.612C65.8443 248.412 67.9183 249.343 69.9281 250.402Z" fill="#455A64"/>
<path d="M66.7178 8.8419C66.9078 5.3719 69.0478 3.2319 72.0378 1.4619C73.5452 0.587056 75.2416 0.0892884 76.9826 0.0109399C78.7237 -0.0674087 80.458 0.275984 82.0378 1.0119C84.1378 2.0119 85.9778 3.7119 88.2778 4.0119C92.0778 4.5019 95.6678 1.01191 99.3878 1.86191C100.498 2.12802 101.481 2.77024 102.171 3.67946C102.861 4.58867 103.215 5.70876 103.173 6.84935C103.13 7.98994 102.694 9.08066 101.939 9.93611C101.183 10.7916 100.154 11.359 99.0278 11.5419C101.518 11.9019 102.918 15.0519 102.028 17.3819C101.138 19.7119 98.5078 21.0819 96.0278 21.1319C93.5018 21.0518 91.046 20.2805 88.9278 18.9019C86.7578 17.6419 84.7278 16.1219 82.4578 15.0419C80.2295 13.8384 77.648 13.4595 75.1678 13.9719C71.8778 14.8419 69.5478 17.9719 68.6978 21.2319C67.8478 24.4919 68.2078 28.0019 68.6978 31.3619C69.1878 34.7219 69.8578 38.1119 69.5378 41.5019C69.5402 41.6943 69.4981 41.8846 69.4148 42.0581C69.3316 42.2315 69.2094 42.3834 69.0578 42.5019C68.5578 42.7819 67.9778 42.3119 67.6078 41.8719C63.3965 36.8752 60.2093 31.0989 58.2278 24.8719C57.0778 21.2719 56.4478 17.7619 57.8178 14.2419C59.1878 10.7219 63.8178 7.37191 66.7578 8.80191" fill="#263238"/>
<path d="M63.4887 25.6019L69.0387 59.8719C70.0387 66.2719 74.2387 72.4619 84.2787 70.3619C92.8587 67.8819 92.2187 61.7119 91.0987 54.1019C91.0987 54.1019 100.539 51.6519 99.6887 42.0519C99.2887 37.4119 97.6887 27.9319 96.0987 19.3719C95.2871 14.9394 92.8363 10.9749 89.234 8.26763C85.6317 5.56034 81.1421 4.30873 76.6587 4.7619L75.7287 4.8519C65.8187 6.4819 61.6287 15.7419 63.4887 25.6019Z" fill="#FFBE9D"/>
<path d="M91.0978 54.1019C86.6736 54.5344 82.218 53.6912 78.2578 51.6719C78.2578 51.6719 82.0178 58.7919 91.4878 56.9719L91.0978 54.1019Z" fill="#EB996E"/>
<path d="M94.2185 27.7619C94.2582 28.1179 94.157 28.4753 93.9364 28.7576C93.7159 29.0398 93.3935 29.2244 93.0385 29.2719C92.866 29.3048 92.6887 29.3024 92.5172 29.2649C92.3457 29.2274 92.1836 29.1556 92.0407 29.0537C91.8977 28.9518 91.7768 28.8221 91.6854 28.6723C91.5939 28.5224 91.5337 28.3556 91.5085 28.1819C91.4687 27.8259 91.57 27.4685 91.7905 27.1863C92.0111 26.904 92.3334 26.7194 92.6885 26.6719C92.8608 26.6405 93.0376 26.6439 93.2086 26.682C93.3795 26.7201 93.5411 26.7921 93.6837 26.8937C93.8264 26.9953 93.9472 27.1245 94.039 27.2736C94.1309 27.4228 94.1919 27.5888 94.2185 27.7619Z" fill="#263238"/>
<path d="M94.5189 24.2819C94.3689 24.4819 93.2489 23.8119 91.7789 23.9719C90.3089 24.1319 89.2989 24.9719 89.1189 24.8019C88.9389 24.6319 89.1789 24.3919 89.6089 24.0019C90.2037 23.4948 90.9407 23.1839 91.7189 23.1119C92.485 23.0274 93.2577 23.196 93.9189 23.5919C94.4089 23.8919 94.5889 24.1919 94.5189 24.2819Z" fill="#263238"/>
<path d="M80.8083 29.8819C80.8481 30.2379 80.7468 30.5953 80.5263 30.8776C80.3057 31.1598 79.9834 31.3445 79.6283 31.3919C79.4559 31.4248 79.2786 31.4224 79.1071 31.3849C78.9356 31.3474 78.7735 31.2756 78.6305 31.1737C78.4875 31.0719 78.3667 30.9421 78.2752 30.7923C78.1837 30.6424 78.1236 30.4756 78.0983 30.3019C78.0586 29.9459 78.1598 29.5885 78.3804 29.3063C78.6009 29.024 78.9233 28.8394 79.2783 28.7919C79.4506 28.7605 79.6275 28.7639 79.7984 28.802C79.9694 28.8401 80.1309 28.9121 80.2736 29.0137C80.4162 29.1153 80.537 29.2445 80.6289 29.3936C80.7207 29.5428 80.7817 29.7088 80.8083 29.8819Z" fill="#263238"/>
<path d="M80.351 26.0119C80.191 26.2019 79.081 25.5419 77.611 25.6919C76.141 25.8419 75.131 26.6919 74.951 26.5319C74.771 26.3719 75.011 26.1219 75.441 25.7319C76.0357 25.2248 76.7727 24.9139 77.551 24.8419C78.3156 24.7609 79.0862 24.9256 79.751 25.3119C80.241 25.6119 80.421 25.9219 80.351 26.0119Z" fill="#263238"/>
<path d="M86.51 36.4019C87.2606 36.0744 88.0505 35.8458 88.86 35.7219C89.23 35.6519 89.58 35.5419 89.62 35.2719C89.6091 34.8812 89.484 34.5022 89.26 34.1819C88.81 33.3119 88.34 32.3919 87.86 31.4319C85.86 27.5119 84.45 24.2719 84.61 24.1919C86.0637 26.4222 87.3409 28.7626 88.43 31.1919L89.79 33.9719C90.0662 34.402 90.1862 34.9139 90.13 35.4219C90.0908 35.5614 90.0198 35.69 89.9227 35.7975C89.8255 35.9051 89.7048 35.9887 89.57 36.0419C89.3658 36.1135 89.1546 36.1638 88.94 36.1919C88.1416 36.3608 87.3256 36.4313 86.51 36.4019Z" fill="#263238"/>
<path d="M79.8685 20.2019C79.7685 20.6219 78.2785 20.5819 76.5685 20.9619C74.8585 21.3419 73.5085 21.9619 73.2485 21.6219C73.1285 21.4519 73.3285 21.0519 73.8585 20.6219C74.5575 20.0782 75.3698 19.6988 76.2354 19.5118C77.101 19.3249 77.9975 19.3352 78.8585 19.5419C79.5585 19.7219 79.9085 20.0119 79.8685 20.2019Z" fill="#263238"/>
<path d="M93.5479 20.0719C93.3179 20.4419 92.2679 20.1919 91.0479 20.3019C89.8279 20.4119 88.8179 20.7519 88.5479 20.4219C88.4279 20.2619 88.5479 19.9119 88.9779 19.5519C89.5434 19.1175 90.2243 18.8593 90.9357 18.8095C91.6471 18.7597 92.3573 18.9205 92.9779 19.2719C93.4679 19.5719 93.6479 19.9019 93.5479 20.0719Z" fill="#263238"/>
<path d="M64.9811 32.6219C64.8111 32.5619 58.2011 31.3319 59.0711 37.8619C59.9411 44.3919 66.3211 42.1819 66.3011 41.9919C66.2811 41.8019 64.9811 32.6219 64.9811 32.6219Z" fill="#FFBE9D"/>
<path d="M63.979 39.7819C63.979 39.7819 63.879 39.8719 63.699 39.9919C63.4421 40.1406 63.1386 40.187 62.849 40.1219C62.3911 39.9091 61.9979 39.5784 61.7098 39.1638C61.4216 38.7491 61.2488 38.2653 61.209 37.7619C61.1144 37.2049 61.1486 36.6336 61.309 36.0919C61.3398 35.8769 61.4236 35.673 61.5527 35.4985C61.6819 35.3239 61.8524 35.1842 62.049 35.0919C62.1741 35.0376 62.3145 35.0299 62.4448 35.0703C62.5751 35.1106 62.6865 35.1964 62.759 35.3119C62.879 35.4819 62.849 35.6219 62.889 35.6219C62.929 35.6219 63.009 35.4919 62.889 35.2319C62.8328 35.0757 62.7229 34.9446 62.579 34.8619C62.382 34.7492 62.1492 34.717 61.929 34.7719C61.6784 34.8687 61.4557 35.0263 61.2812 35.2306C61.1066 35.4348 60.9856 35.6793 60.929 35.9419C60.7263 36.5469 60.6749 37.1924 60.779 37.8219C60.824 38.4027 61.037 38.9578 61.3922 39.4195C61.7473 39.8812 62.2292 40.2295 62.779 40.4219C62.959 40.4457 63.142 40.4293 63.3149 40.374C63.4878 40.3186 63.6463 40.2257 63.779 40.1019C63.989 39.9419 63.999 39.7919 63.979 39.7819Z" fill="#EB996E"/>
<path d="M95.3205 10.4819C94.201 8.71867 92.6573 7.26432 90.8305 6.25191C86.9981 3.86886 82.5128 2.75277 78.0105 3.06191C73.4912 3.41399 69.2853 5.50793 66.2805 8.9019C63.9828 11.6856 62.5537 15.0829 62.1705 18.6719C61.7969 22.2465 62.1368 25.8597 63.1705 29.3019C63.4906 30.8523 64.2591 32.2745 65.3805 33.3919C66.1305 34.0319 67.3805 34.3919 68.0505 33.7119C68.4245 33.2642 68.6391 32.7049 68.6605 32.1219C69.4105 26.9419 70.1105 21.3719 67.7705 16.6919C68.8051 14.8952 70.1971 13.3296 71.8605 12.0919C72.6961 11.4786 73.6457 11.0381 74.6535 10.796C75.6614 10.5539 76.7074 10.5151 77.7305 10.6819C80.7305 11.2819 82.8305 13.9419 85.3605 15.6819C87.1845 16.9149 89.2755 17.6966 91.461 17.9626C93.6465 18.2287 95.864 17.9713 97.9305 17.2119L95.3205 10.4819Z" fill="#263238"/>
<path d="M87.8095 40.3719C87.7337 40.9924 87.5687 41.5986 87.3195 42.1719C87.1918 42.4581 87.0058 42.7144 86.7733 42.9245C86.5409 43.1345 86.2671 43.2938 85.9695 43.3919C85.6428 43.4602 85.3042 43.4457 84.9846 43.3496C84.6649 43.2535 84.3744 43.079 84.1395 42.8419C83.6808 42.3546 83.3869 41.7354 83.2995 41.0719C83.1995 40.4719 83.2995 39.7219 83.8895 39.5219C84.1331 39.4669 84.3859 39.4669 84.6295 39.5219L87.9695 40.1319" fill="#EB996E"/>
<path d="M87.1097 43.1619C86.5626 43.3086 85.9936 43.356 85.4297 43.3019C84.8483 43.2056 84.3239 42.8953 83.9597 42.4319C83.7459 42.15 83.5943 41.826 83.515 41.4813C83.4357 41.1365 83.4305 40.7788 83.4997 40.4319C83.5332 40.255 83.5904 40.0835 83.6697 39.9219C83.7597 39.7619 83.7397 39.7719 83.8797 39.7719C84.058 39.7913 84.235 39.8214 84.4097 39.8619L84.9597 39.9619L86.8597 40.2819C87.439 40.4194 88.0356 40.47 88.6297 40.4319C88.1006 40.1586 87.5293 39.976 86.9397 39.8919C86.3997 39.7519 85.7697 39.6119 85.0597 39.4519L84.5197 39.3319C84.3197 39.3319 84.1697 39.2419 83.9097 39.2219C83.7486 39.2087 83.5875 39.2472 83.4497 39.3319C83.3323 39.423 83.2366 39.5392 83.1697 39.6719C83.0667 39.8774 82.9927 40.0961 82.9497 40.3219C82.8624 40.7483 82.8719 41.1889 82.9775 41.6112C83.0831 42.0335 83.282 42.4267 83.5597 42.7619C84.0204 43.2993 84.6743 43.6334 85.3797 43.6919C85.8372 43.7478 86.3013 43.675 86.7197 43.4819C87.0097 43.3219 87.1297 43.1919 87.1097 43.1619Z" fill="#263238"/>
<path d="M111.461 26.2819L113.011 25.8619L137.141 49.3119L156.721 51.6719C156.721 51.6719 156.521 45.7619 149.171 38.2219C142.571 31.4819 127.221 23.4819 122.021 19.3419C121.35 18.7747 120.589 18.3219 119.771 18.0019L111.461 26.2819Z" fill="#FFBE9D"/>
<path d="M111.451 15.1219L108.981 14.4219L103.161 11.6619L96.5408 14.1319C96.5408 14.1319 96.6908 16.3919 98.4308 15.7719L91.4908 18.0619C91.4908 18.0619 92.0608 19.7119 92.3708 19.8219C92.6808 19.9319 88.3008 20.2919 88.3008 20.2919C88.3008 20.2919 88.3008 22.5219 92.4508 22.4819C96.6008 22.4419 98.2108 21.7319 98.2108 21.7319L101.541 22.6219L101.411 24.6219L96.8708 24.5519L97.0808 27.0919C99.0094 27.4991 100.959 27.7996 102.921 27.9919C102.921 27.9919 109.921 28.0919 111.821 27.1719C113.721 26.2519 116.141 24.9419 116.141 24.9419L119.771 18.0219L111.451 15.1219Z" fill="#FFBE9D"/>
<path d="M105.199 16.2919C105.199 16.3519 104.809 16.1619 104.199 15.8819C103.383 15.5312 102.596 15.1131 101.849 14.6319H102.149L101.879 14.8019C101.053 15.3299 100.121 15.6712 99.1492 15.8019C98.4092 15.9019 97.9492 15.8019 97.9492 15.8019C99.2252 15.4973 100.456 15.0266 101.609 14.4019L101.859 14.2419L102.009 14.1419L102.159 14.2519C102.969 14.8119 103.819 15.2519 104.379 15.6019C104.939 15.9519 105.249 16.2419 105.199 16.2919Z" fill="#EB996E"/>
<path d="M103.07 19.8219C103.07 19.8219 102.62 19.9819 101.95 19.6919C101.28 19.4019 100.53 18.6919 99.5802 18.2919H99.8202C99.3937 18.5793 98.9457 18.8334 98.4802 19.0519C97.3095 19.611 96.0366 19.9241 94.7402 19.9719C94.2074 20.0401 93.6662 19.9818 93.1602 19.8019C94.913 19.6614 96.6335 19.2499 98.2602 18.5819C98.7032 18.3761 99.131 18.1388 99.5402 17.8719L99.6702 17.8019H99.7802C100.86 18.3519 101.49 19.0819 102.08 19.3819C102.67 19.6819 103.07 19.7419 103.07 19.8219Z" fill="#EB996E"/>
<path d="M109.271 21.9919C109.271 22.0719 108.761 21.9219 107.971 21.9319C106.948 21.9449 105.95 22.2464 105.091 22.8019C104.522 23.1688 104.036 23.6488 103.661 24.2119L103.601 24.3019H103.511C102.741 24.5214 101.941 24.6192 101.141 24.5919C101.857 24.2287 102.627 23.9823 103.421 23.8619L103.271 23.9619C103.646 23.3116 104.17 22.7598 104.801 22.3519C105.741 21.7353 106.861 21.4535 107.981 21.5519C108.841 21.6519 109.301 21.9419 109.271 21.9919Z" fill="#EB996E"/>
<path d="M116.138 24.9219C116.078 24.9748 116.011 25.0186 115.938 25.0519L115.308 25.4119L112.888 26.7219C112.316 27.073 111.701 27.3486 111.058 27.5419C110.284 27.7218 109.499 27.8488 108.708 27.9219C107.008 28.0919 105.068 28.1619 102.918 28.1619L100.308 27.8919C99.3424 27.8113 98.3856 27.6474 97.4481 27.4019H97.3481V27.2719C97.2081 26.4019 97.0581 25.4519 96.8981 24.4819L96.8481 24.2019H97.1281L101.448 24.3819L101.188 24.6019C101.188 23.9919 101.278 23.3119 101.318 22.6019L101.508 22.8619L98.1681 21.9719H98.3381C96.7168 22.4651 95.0327 22.721 93.3381 22.7319C92.4594 22.7875 91.5771 22.7439 90.7081 22.6019C90.2337 22.5431 89.7772 22.3844 89.3686 22.1362C88.9601 21.8879 88.6089 21.5559 88.3381 21.1619C88.1874 20.8987 88.0984 20.6046 88.0781 20.3019V20.0719H88.3281C89.3281 19.9819 90.3981 19.8919 91.4081 19.7819L92.1481 19.6819H92.3081V19.7319C92.278 19.7589 92.2563 19.794 92.2457 19.8331C92.235 19.8721 92.2359 19.9134 92.2481 19.9519C92.2481 20.0419 92.4281 20.1619 92.3881 20.1219C92.3294 20.0981 92.2753 20.0642 92.2281 20.0219C92.1199 19.9092 92.029 19.7812 91.9581 19.6419C91.7269 19.1824 91.5264 18.708 91.3581 18.2219L91.2681 17.9719L91.5181 17.8919L98.5181 15.6119L98.6781 16.0719C98.3971 16.1756 98.0952 16.2099 97.7981 16.1719C97.4934 16.118 97.2173 15.9587 97.0181 15.7219C96.6839 15.2864 96.4887 14.7601 96.4581 14.2119V14.0419L96.6381 13.9719L103.268 11.5319H103.348H103.428L109.238 14.3219L111.668 15.0219L113.788 15.7719L117.148 16.9919L119.258 17.7719C119.508 17.8467 119.749 17.9473 119.978 18.0719C119.724 18.0159 119.474 17.9458 119.228 17.8619L117.088 17.1719L113.698 16.0419L111.578 15.3319L109.138 14.6719L103.298 11.9419H103.468L96.8481 14.4319L97.0081 14.1919C97.034 14.6372 97.1905 15.065 97.4581 15.4219C97.6024 15.5651 97.7868 15.661 97.9869 15.6967C98.187 15.7324 98.3932 15.7064 98.5781 15.6219L98.7381 16.0919L91.8081 18.3919L91.9681 18.0619C92.1209 18.5235 92.3116 18.9717 92.5381 19.4019C92.581 19.4915 92.6347 19.5755 92.6981 19.6519C92.6701 19.6874 92.6497 19.7282 92.6381 19.7719C92.7381 19.5119 92.6381 19.7019 92.7081 19.6519H92.7781C92.8239 19.6905 92.8556 19.7433 92.8681 19.8019C92.8776 19.8446 92.8761 19.8889 92.8639 19.9309C92.8516 19.9728 92.829 20.011 92.7981 20.0419C92.7181 20.1219 92.7381 20.0919 92.7181 20.1019H92.6281H92.4181L91.6481 20.2019C90.6481 20.3219 89.6481 20.4119 88.5581 20.5019L88.7881 20.2519C88.8114 20.4593 88.876 20.6599 88.9781 20.8419C89.2104 21.1685 89.5082 21.443 89.8526 21.6479C90.197 21.8528 90.5803 21.9836 90.9781 22.0319C91.8109 22.1673 92.6563 22.2076 93.4981 22.1519C95.1265 22.1468 96.7459 21.9111 98.3081 21.4519H98.4081H98.4781L101.808 22.3519H102.008V22.5519C102.008 23.2419 101.918 23.9219 101.878 24.5519V24.7919H101.638L97.3281 24.5919L97.5681 24.3219C97.7181 25.3219 97.8681 26.2519 97.9981 27.1219L97.8781 26.9619C98.7719 27.1857 99.6811 27.3428 100.598 27.4319L103.188 27.7219C105.318 27.7219 107.248 27.7219 108.938 27.5619C109.718 27.5091 110.493 27.4022 111.258 27.2419C111.887 27.0631 112.491 26.8078 113.058 26.4819L115.518 25.2619L116.168 24.9619C116.058 24.9419 116.128 24.9119 116.138 24.9219Z" fill="#EB996E"/>
<path d="M107.78 17.3919C107.146 18.4559 106.264 19.3513 105.21 20.0019C104.247 20.7825 103.113 21.324 101.9 21.5819C101.84 21.4419 103.3 20.7319 104.9 19.5819C106.5 18.4319 107.66 17.2919 107.78 17.3919Z" fill="#EB996E"/>
<path d="M156.511 50.9419L137.141 49.3119L114.301 58.0019L109.301 61.0619L116.421 85.4819C116.421 85.4819 152.211 64.3919 153.731 62.5919C155.094 61.0152 156.059 59.1337 156.542 57.1061C157.026 55.0786 157.015 52.9644 156.511 50.9419Z" fill="#FF725E"/>
<path d="M53.1092 68.8919L46.4492 73.0219L61.8292 133.572L59.0392 168.482C63.0392 171.942 73.0392 174.912 92.0392 173.832C111.039 172.752 123.719 164.482 123.719 164.482L121.899 128.572L117.569 88.0519L112.719 60.3419L98.0792 61.4019L92.3692 58.0219L89.8092 59.3019L86.5292 68.4019L77.9892 62.2219L67.9892 57.4119L64.3392 64.2219L53.1092 68.8919Z" fill="#FF725E"/>
<path d="M112.719 67.3919C112.932 67.8221 113.106 68.2705 113.239 68.7319C113.559 69.6119 113.959 70.8919 114.439 72.4919C115.661 76.6561 116.663 80.882 117.439 85.1519C118.191 89.4212 118.719 93.7272 119.019 98.0519C119.129 99.7119 119.179 101.052 119.189 101.982C119.24 102.464 119.24 102.95 119.189 103.432C119.094 102.957 119.037 102.476 119.019 101.992C118.929 100.992 118.819 99.6619 118.679 98.0819C118.369 94.7819 117.839 90.2219 116.949 85.2419C116.059 80.2619 114.999 75.8019 114.149 72.5919C113.739 71.0619 113.389 69.7819 113.149 68.7919C112.954 68.3426 112.81 67.873 112.719 67.3919Z" fill="#263238"/>
<path d="M83.7981 67.8719C83.3106 67.7887 82.8426 67.6158 82.4181 67.3619C81.234 66.7382 80.2079 65.8524 79.4181 64.7719L79.7781 64.6719C79.57 67.6548 78.9681 70.5969 77.9881 73.4219L77.8781 73.7419L77.5981 73.5519L76.8981 73.0619C73.4481 70.6919 70.3481 68.5219 68.1181 66.9219L65.4981 65.0119C65.1637 64.7941 64.8551 64.5392 64.5781 64.2519C64.9327 64.4101 65.2682 64.608 65.5781 64.8419L68.2881 66.6219C70.5781 68.1319 73.7081 70.2619 77.1481 72.6219L77.8581 73.1019L77.4581 73.2319C78.429 70.448 79.0603 67.5571 79.3381 64.6219V64.0819L79.6481 64.5219C80.3918 65.5843 81.3489 66.4801 82.4581 67.1519C83.3281 67.6419 83.8181 67.8219 83.7981 67.8719Z" fill="#263238"/>
<path d="M97.4892 62.4819C96.5025 63.7937 95.4159 65.0274 94.2392 66.1719L94.0592 66.3619L93.8792 66.1619C93.2077 65.376 92.4826 64.6376 91.7092 63.9519C91.2892 63.5919 90.8792 63.2519 90.4692 62.9519L89.8592 62.5019C89.8134 62.4904 89.7664 62.4837 89.7192 62.4819C89.7192 62.4819 89.7192 62.4819 89.6292 62.6319L88.6992 65.0119C88.4457 65.763 88.1104 66.484 87.6992 67.1619C87.8234 66.3796 88.0382 65.6145 88.3392 64.8819C88.5992 64.1319 88.8792 63.3219 89.1692 62.4619C89.1957 62.3704 89.2404 62.2852 89.3005 62.2113C89.3606 62.1374 89.435 62.0764 89.5192 62.0319C89.6161 61.9995 89.7192 61.9908 89.8201 62.0065C89.921 62.0221 90.0167 62.0617 90.0992 62.1219L90.7392 62.5819C91.1692 62.8919 91.5992 63.2419 92.0192 63.5819C92.8162 64.2814 93.5522 65.0475 94.2192 65.8719H93.8592C94.9796 64.6495 96.1932 63.5161 97.4892 62.4819Z" fill="#263238"/>
<path d="M93.5282 171.212C99.9393 170.008 106.544 170.335 112.805 172.166C119.066 173.998 124.805 177.282 129.556 181.752C134.307 186.222 137.936 191.751 140.145 197.888C142.355 204.026 143.084 210.599 142.273 217.071C141.462 223.544 139.133 229.733 135.477 235.135C131.821 240.538 126.94 245 121.233 248.159C115.526 251.318 109.153 253.084 102.634 253.314C96.1151 253.544 89.6338 252.231 83.7182 249.482C75.7654 245.779 69.1936 239.647 64.95 231.969C60.7063 224.291 59.01 215.464 60.1055 206.76C61.201 198.056 65.0317 189.925 71.0456 183.538C77.0595 177.151 84.9459 172.839 93.5682 171.222L93.5282 171.212ZM108.298 249.892C117.342 248.183 125.478 243.3 131.239 236.123C137.001 228.946 140.009 219.947 139.722 210.748C139.434 201.549 135.871 192.755 129.673 185.951C123.475 179.148 115.05 174.782 105.917 173.641C96.7849 172.5 87.5451 174.659 79.8636 179.728C72.182 184.797 66.564 192.444 64.0222 201.29C61.4804 210.135 62.1819 219.598 66.0004 227.972C69.8188 236.346 76.5031 243.081 84.8482 246.962C92.1665 250.366 100.367 251.39 108.298 249.892Z" fill="#455A64"/>
<path d="M101.102 255.352C90.192 255.367 79.673 251.293 71.6191 243.934C63.5652 236.576 58.5611 226.466 57.5938 215.6C56.6265 204.733 59.7662 193.898 66.3937 185.233C73.0212 176.567 82.6553 170.7 93.3959 168.787C104.136 166.875 115.204 169.057 124.415 174.902C133.626 180.748 140.312 189.833 143.155 200.366C145.998 210.898 144.791 222.114 139.771 231.8C134.752 241.487 126.286 248.94 116.042 252.692C111.257 254.451 106.199 255.351 101.102 255.352ZM101.192 175.242C96.0896 175.238 91.0431 176.299 86.3748 178.358C81.7064 180.416 77.5191 183.426 74.0807 187.195C70.6423 190.964 68.0285 195.41 66.4065 200.247C64.7844 205.084 64.1899 210.206 64.661 215.287C65.132 220.367 66.6582 225.293 69.142 229.749C71.6257 234.206 75.0124 238.095 79.0852 241.167C83.158 244.24 87.8273 246.429 92.7945 247.594C97.7617 248.758 102.917 248.874 107.932 247.932C113.655 246.846 119.04 244.417 123.641 240.845C128.243 237.272 131.931 232.658 134.401 227.382C136.997 221.797 138.145 215.647 137.739 209.502C137.332 203.356 135.385 197.411 132.076 192.217C128.767 187.022 124.204 182.744 118.806 179.777C113.408 176.81 107.351 175.251 101.192 175.242Z" fill="#455A64"/>
<path d="M0.389633 171.482L0.759634 170.582C1.53963 168.652 3.25963 167.522 4.59963 168.072L65.1396 192.702C65.4396 192.822 65.5396 193.272 65.3696 193.702L62.7896 200.042C62.6096 200.472 62.2296 200.722 61.9296 200.602L1.38963 175.922C0.0496329 175.372 -0.400367 173.372 0.389633 171.482Z" fill="#455A64"/>
<path d="M56.9296 101.722L49.6496 125.812L53.2996 174.912L42.5596 176.262C42.5596 176.262 30.2596 134.482 31.4796 126.922C32.6996 119.362 37.7196 97.3419 37.7196 97.3419L56.9296 101.722Z" fill="#FFBE9D"/>
<path d="M53.2709 174.562L58.2709 183.102L61.3909 191.102L56.7209 189.272C56.7209 189.272 54.7209 198.932 53.9109 199.182C53.1009 199.432 50.8509 198.652 51.0809 196.802C50.7477 197.127 50.3448 197.371 49.903 197.517C49.4611 197.662 48.9919 197.705 48.5309 197.642C47.1109 197.352 46.7709 196.432 46.9309 194.642C46.9309 194.642 45.2809 195.982 44.2909 195.152C43.9881 194.854 43.7521 194.494 43.5987 194.098C43.4452 193.701 43.3778 193.276 43.4009 192.852C43.4009 192.852 41.2509 193.032 40.9509 191.922C40.6353 190.098 40.5949 188.238 40.8309 186.402C41.0809 185.182 42.1209 180.222 42.1209 180.222L42.6009 176.222L53.2709 174.562Z" fill="#FFBE9D"/>
<path d="M52.1002 191.232C51.7101 192.101 51.4571 193.025 51.3502 193.972C51.103 194.894 50.9985 195.848 51.0402 196.802C51.4321 195.934 51.6852 195.009 51.7902 194.062C52.0374 193.14 52.1419 192.186 52.1002 191.232Z" fill="#EB996E"/>
<path d="M47.7181 190.122C47.351 190.796 47.1231 191.538 47.0481 192.302C46.8257 193.04 46.7476 193.814 46.8181 194.582C47.1773 193.901 47.4046 193.158 47.4881 192.392C47.7048 191.656 47.7828 190.886 47.7181 190.122Z" fill="#EB996E"/>
<path d="M44.0592 189.092C43.842 189.699 43.7271 190.337 43.7192 190.982C43.5492 191.982 43.2792 192.832 43.4092 192.882C43.8536 192.371 44.1172 191.728 44.1592 191.052C44.3108 190.402 44.2761 189.723 44.0592 189.092Z" fill="#EB996E"/>
<path d="M57.0505 186.482C56.6638 187.335 56.3946 188.237 56.2505 189.162C55.9607 190.053 55.786 190.977 55.7305 191.912C56.2133 191.101 56.5358 190.205 56.6805 189.272C56.9753 188.373 57.1007 187.427 57.0505 186.482Z" fill="#EB996E"/>
<path d="M30.8882 143.142C30.8882 142.322 27.5282 130.882 28.5482 124.952C29.5682 119.022 41.7682 78.9519 43.4082 76.0919C44.7003 74.1629 46.5045 72.6323 48.6182 71.6719C50.9723 72.9477 53.0452 74.6846 54.7135 76.779C56.3817 78.8733 57.6111 81.2822 58.3282 83.8619C60.7782 92.6519 60.7782 103.682 60.7782 103.682L50.9682 128.012L52.1382 141.832L30.8882 143.142Z" fill="#FF725E"/>
<path d="M60.1608 102.882C60.0608 102.882 60.2508 101.082 60.1608 98.2019C60.0995 96.5268 59.9358 94.8571 59.6708 93.2019C59.0352 89.119 57.7808 85.1568 55.9508 81.4519C55.2073 79.9392 54.3724 78.4732 53.4508 77.0619C51.8708 74.6419 50.6908 73.2919 50.7608 73.2319C51.0864 73.5023 51.3815 73.8074 51.6408 74.1419C52.3888 74.9915 53.0835 75.8865 53.7208 76.8219C54.6933 78.2202 55.5687 79.6837 56.3408 81.2019C58.2344 84.9379 59.5077 88.9571 60.1108 93.1019C60.3504 94.7916 60.4774 96.4954 60.4908 98.2019C60.5065 99.3477 60.4497 100.493 60.3208 101.632C60.3075 102.053 60.2539 102.471 60.1608 102.882Z" fill="#263238"/>
<path d="M59.5278 107.972C59.2831 108.999 58.9485 110.003 58.5278 110.972C57.8178 112.822 56.7478 115.332 55.5278 118.072L52.3678 125.072C51.9833 126.066 51.5288 127.032 51.0078 127.962C51.2525 126.935 51.5871 125.931 52.0078 124.962C52.7178 123.112 53.7878 120.602 55.0078 117.862L58.1678 110.862C58.5523 109.868 59.0068 108.902 59.5278 107.972Z" fill="#263238"/>
<path d="M51.5416 128.952C49.3833 127.8 47.1361 126.824 44.8216 126.032C42.4533 125.414 40.0387 124.989 37.6016 124.762C38.3171 124.606 39.0532 124.565 39.7816 124.642C41.5414 124.725 43.2844 125.024 44.9716 125.532C46.661 126.038 48.2803 126.753 49.7916 127.662C50.4401 127.996 51.031 128.431 51.5416 128.952Z" fill="#263238"/>
<path d="M115.398 197.862C115.488 197.972 107.608 204.862 97.7884 213.272C87.9684 221.682 79.9384 228.392 79.8484 228.272C79.7584 228.152 87.6384 221.272 97.4584 212.872C107.278 204.472 115.308 197.752 115.398 197.862Z" fill="white"/>
<path d="M125.54 197.862C125.64 197.972 119 203.862 110.71 210.952C102.42 218.042 95.6402 223.762 95.5402 223.652C95.4402 223.542 102.09 217.652 110.37 210.562C118.65 203.472 125.45 197.752 125.54 197.862Z" fill="white"/>
<path d="M140.469 211.912C140.469 211.912 140.469 211.702 140.409 211.282C140.349 210.862 140.349 210.222 140.289 209.412C140.289 209.002 140.289 208.542 140.209 208.042C140.129 207.542 140.049 206.992 139.959 206.392C139.869 205.792 139.769 205.162 139.659 204.482C139.549 203.802 139.319 203.102 139.149 202.342C138.226 198.666 136.757 195.151 134.789 191.912C132.214 187.609 128.836 183.84 124.839 180.812L123.149 179.552C122.549 179.162 121.929 178.812 121.309 178.432C120.689 178.052 120.079 177.632 119.399 177.322L117.399 176.322L116.399 175.832L115.309 175.442L113.109 174.642C112.359 174.392 111.579 174.232 110.809 174.022C110.03 173.795 109.239 173.615 108.439 173.482C106.807 173.179 105.157 172.989 103.499 172.912C102.659 172.912 101.809 172.802 100.949 172.812L98.3691 172.952C97.9291 172.952 97.489 172.952 97.059 173.032L95.7591 173.232C94.8891 173.382 93.9991 173.482 93.1291 173.662C91.3606 174.057 89.6202 174.568 87.919 175.192C86.1734 175.822 84.4728 176.57 82.8291 177.432C81.9991 177.882 81.209 178.432 80.389 178.882C79.989 179.142 79.5691 179.362 79.1891 179.642L78.0391 180.512C74.8233 182.804 72.0116 185.616 69.7191 188.832L68.819 190.032L68.029 191.322L67.249 192.612C66.9724 193.036 66.7284 193.481 66.5191 193.942L65.1991 196.692C64.8391 197.692 64.489 198.622 64.139 199.592C61.4523 207.586 61.4523 216.238 64.139 224.232C64.499 225.232 64.8491 226.162 65.1991 227.122C65.5491 228.082 66.089 228.962 66.529 229.882L66.8591 230.562L67.2591 231.212L68.0391 232.502L68.8291 233.792L69.7291 234.992C70.8997 236.57 72.1724 238.07 73.5391 239.482C74.9347 240.831 76.4143 242.09 77.9691 243.252L79.1191 244.112C79.5091 244.402 79.9291 244.612 80.3291 244.872C81.1491 245.352 81.9391 245.872 82.7591 246.322C84.4051 247.186 86.1092 247.934 87.8591 248.562C89.5602 249.186 91.3006 249.697 93.069 250.092C93.939 250.272 94.8291 250.372 95.6991 250.522L96.9991 250.722C97.439 250.782 97.869 250.772 98.309 250.802L100.889 250.942C101.749 250.942 102.599 250.872 103.439 250.842C105.097 250.765 106.747 250.575 108.379 250.272C109.18 250.144 109.972 249.964 110.749 249.732C111.519 249.522 112.309 249.362 113.049 249.122L115.249 248.312L116.339 247.922L117.339 247.432L119.339 246.432C120.019 246.122 120.619 245.682 121.249 245.322C121.879 244.962 122.489 244.592 123.089 244.202L124.779 242.942C128.779 239.916 132.157 236.147 134.729 231.842C136.711 228.628 138.201 225.136 139.149 221.482C139.319 220.722 139.579 220.032 139.659 219.342C139.739 218.652 139.869 218.022 139.959 217.432C140.049 216.842 140.159 216.292 140.209 215.792C140.259 215.292 140.269 214.792 140.289 214.412C140.349 213.612 140.389 212.992 140.409 212.552C140.409 212.132 140.469 211.912 140.469 211.912C140.469 211.912 140.469 212.132 140.469 212.552C140.469 212.972 140.469 213.612 140.399 214.422C140.399 214.835 140.379 215.295 140.339 215.802C140.339 216.302 140.199 216.852 140.119 217.452L139.839 219.372C139.709 220.1 139.542 220.821 139.339 221.532C138.457 225.243 137.007 228.794 135.039 232.062C132.462 236.419 129.067 240.236 125.039 243.302L123.339 244.582C122.739 244.972 122.109 245.342 121.489 245.722C120.869 246.102 120.249 246.532 119.569 246.852L117.519 247.852L116.519 248.342L115.419 248.752L113.199 249.562C112.449 249.822 111.659 249.982 110.869 250.192C110.086 250.432 109.288 250.615 108.479 250.742C106.828 251.057 105.158 251.254 103.479 251.332C102.619 251.332 101.769 251.452 100.899 251.442L98.279 251.312C97.849 251.312 97.399 251.312 96.959 251.232L95.639 251.032C94.759 250.882 93.8691 250.782 92.9791 250.602C91.19 250.207 89.4293 249.692 87.709 249.062C85.9336 248.434 84.2058 247.679 82.5391 246.802C81.7091 246.352 80.9091 245.802 80.0791 245.342C79.6691 245.082 79.239 244.862 78.849 244.572L77.7191 243.682C76.1381 242.515 74.638 241.242 73.2291 239.872C71.8298 238.438 70.5332 236.908 69.349 235.292L68.429 234.082L67.639 232.772L66.8391 231.462L66.4391 230.812L66.099 230.112L64.7191 227.322L63.639 224.392C60.912 216.282 60.912 207.502 63.639 199.392L64.7191 196.482C65.1691 195.552 65.619 194.622 66.059 193.692C66.2761 193.226 66.5233 192.775 66.7991 192.342L67.599 191.032L68.3991 189.732L69.309 188.522C70.4992 186.911 71.7954 185.381 73.1891 183.942C74.598 182.572 76.0981 181.299 77.6791 180.132L78.849 179.262C79.242 178.981 79.6492 178.721 80.069 178.482C80.899 178.002 81.699 177.482 82.529 177.022C84.1978 176.149 85.9253 175.394 87.6991 174.762C89.4193 174.131 91.1799 173.617 92.9691 173.222C93.8591 173.042 94.7491 172.942 95.6291 172.792L96.9491 172.592C97.3891 172.542 97.8291 172.542 98.2691 172.512L100.889 172.382C101.749 172.382 102.609 172.462 103.459 172.492C105.138 172.57 106.809 172.767 108.459 173.082C109.266 173.219 110.064 173.403 110.849 173.632C111.629 173.842 112.419 174.012 113.179 174.262L115.399 175.072L116.489 175.482L117.489 175.982L119.489 176.982C120.151 177.322 120.795 177.696 121.419 178.102C122.039 178.482 122.669 178.852 123.269 179.242L124.969 180.522C128.997 183.588 132.392 187.405 134.969 191.762C136.937 195.029 138.387 198.581 139.269 202.292C139.439 203.052 139.689 203.762 139.769 204.452C139.849 205.142 139.959 205.782 140.049 206.372C140.139 206.962 140.229 207.522 140.269 208.022C140.309 208.522 140.269 209.022 140.329 209.402C140.329 210.212 140.329 210.832 140.399 211.272C140.469 211.712 140.469 211.912 140.469 211.912Z" fill="#263238"/>
<path d="M125.961 232.782C126.267 232.316 126.601 231.868 126.961 231.442C127.87 230.244 128.705 228.992 129.461 227.692C131.991 223.418 133.569 218.649 134.086 213.71C134.604 208.77 134.05 203.777 132.461 199.072C131.982 197.646 131.424 196.247 130.791 194.882C130.523 194.397 130.293 193.892 130.101 193.372C130.101 193.372 130.201 193.482 130.351 193.722C130.501 193.962 130.721 194.312 130.971 194.792C131.684 196.131 132.296 197.522 132.801 198.952C134.515 203.688 135.135 208.751 134.615 213.761C134.096 218.771 132.45 223.598 129.801 227.882C129.004 229.174 128.115 230.407 127.141 231.572C126.801 231.982 126.501 232.282 126.311 232.492C126.121 232.702 125.981 232.792 125.961 232.782Z" fill="#263238"/>
<path d="M123.888 236.372C123.958 236.502 123.648 236.812 123.198 237.072C122.748 237.332 122.318 237.432 122.248 237.312C122.178 237.192 122.488 236.872 122.938 236.612C123.388 236.352 123.818 236.252 123.888 236.372Z" fill="#263238"/>
<path d="M72.3284 228.742C72.2279 228.597 72.1472 228.438 72.0884 228.272C71.9484 227.962 71.7284 227.502 71.4984 226.882C70.8325 225.145 70.301 223.36 69.9084 221.542C68.592 215.507 68.7462 209.245 70.3578 203.282C71.9694 197.319 74.9912 191.832 79.1683 187.282C80.4169 185.902 81.7746 184.624 83.2284 183.462C83.7284 183.042 84.1584 182.762 84.4384 182.552C84.7184 182.342 84.8683 182.252 84.8883 182.272C84.9083 182.292 84.3484 182.762 83.3584 183.622C81.9657 184.833 80.6561 186.135 79.4384 187.522C75.3826 192.084 72.4436 197.528 70.8539 203.422C69.2641 209.316 69.0671 215.499 70.2783 221.482C70.6409 223.288 71.122 225.069 71.7184 226.812C72.1084 228.052 72.3684 228.732 72.3284 228.742Z" fill="white"/>
<path d="M95.5411 179.732C94.0315 180.201 92.4376 180.334 90.8711 180.122C91.5975 179.799 92.3865 179.642 93.1811 179.662C93.9635 179.514 94.7689 179.537 95.5411 179.732Z" fill="white"/>
</svg>
