<svg width="130" height="251" viewBox="0 0 130 251" fill="none" xmlns="http://www.w3.org/2000/svg">
<path d="M16.2747 224.811L16.5812 241.035C16.5812 241.035 0.296941 245.436 0.0585938 248.441L31.4353 250.322L31.9886 225.032L16.2747 224.811Z" fill="#FF725E"/>
<path d="M26.3339 239.835C26.6326 239.935 26.8843 240.141 27.0412 240.414C27.1981 240.687 27.2493 241.008 27.1851 241.316C27.0939 241.617 26.8922 241.872 26.6205 242.03C26.3489 242.188 26.0274 242.237 25.721 242.168C25.4033 242.062 25.1357 241.843 24.9693 241.552C24.8029 241.262 24.7492 240.92 24.8187 240.593C24.939 240.283 25.1752 240.033 25.4772 239.895C25.7791 239.756 26.1231 239.741 26.436 239.852" fill="#EBEBEB"/>
<path d="M31.4363 250.322L31.4959 247.769L1.75356 246.56C1.75356 246.56 0 247.496 0 248.475L31.4363 250.322Z" fill="#EBEBEB"/>
<path d="M16.0795 240.865C16.0795 241.018 16.8456 241.104 17.5947 241.606C18.3438 242.108 18.7354 242.764 18.8801 242.704C19.0248 242.644 18.8035 241.759 17.8927 241.163C16.9818 240.567 16.0369 240.721 16.0795 240.865Z" fill="#263238"/>
<path d="M12.7539 242.219C12.7539 242.363 13.3838 242.636 13.8946 243.3C14.4053 243.964 14.5415 244.645 14.6947 244.645C14.848 244.645 14.9586 243.794 14.3117 242.942C13.6647 242.091 12.7624 242.031 12.7539 242.219Z" fill="#263238"/>
<path d="M10.8217 246.092C10.9579 246.092 11.1792 245.368 10.8217 244.517C10.4641 243.666 9.72355 243.325 9.65546 243.444C9.58736 243.564 10.03 244.032 10.3279 244.73C10.6259 245.428 10.6684 246.075 10.8217 246.092Z" fill="#263238"/>
<path d="M16.4196 237.162C16.4791 237.299 17.1857 237.103 18.0539 237.162C18.9222 237.222 19.5947 237.528 19.6798 237.392C19.7649 237.256 19.118 236.703 18.0965 236.635C17.075 236.566 16.343 237.035 16.4196 237.162Z" fill="#263238"/>
<path d="M16.4102 233.885C16.9277 234.032 17.4759 234.032 17.9935 233.885C18.5621 233.798 19.1172 233.638 19.6449 233.408C19.9592 233.277 20.2636 233.124 20.5557 232.949C20.7355 232.853 20.8992 232.729 21.0409 232.583C21.1517 232.473 21.2207 232.328 21.2363 232.172C21.2518 232.017 21.2128 231.861 21.126 231.731C21.0512 231.623 20.9523 231.534 20.837 231.47C20.7218 231.407 20.5935 231.371 20.4621 231.365C20.2607 231.361 20.0599 231.387 19.8662 231.442C19.5283 231.517 19.1979 231.623 18.8788 231.757C18.3436 231.988 17.8492 232.305 17.4146 232.693C16.674 233.357 16.4102 233.928 16.4612 233.953C16.5123 233.979 16.8954 233.528 17.6445 232.983C18.0846 232.669 18.5621 232.412 19.066 232.217C19.3618 232.104 19.6664 232.015 19.9769 231.953C20.3088 231.868 20.5983 231.876 20.6749 232.021C20.7515 232.166 20.6749 232.106 20.6749 232.2C20.5661 232.301 20.4462 232.389 20.3174 232.464C20.0439 232.635 19.7595 232.789 19.4661 232.923C18.971 233.158 18.4552 233.346 17.9254 233.485C17.4117 233.583 16.9055 233.717 16.4102 233.885Z" fill="#263238"/>
<path d="M16.6069 234.115C16.9157 233.672 17.0711 233.14 17.0495 232.6C17.0816 232.026 17.0183 231.451 16.8622 230.897C16.7702 230.564 16.6418 230.241 16.4792 229.935C16.3985 229.727 16.2652 229.543 16.0921 229.401C15.919 229.259 15.7122 229.165 15.4917 229.127C15.351 229.127 15.2132 229.168 15.0943 229.243C14.9754 229.318 14.88 229.425 14.8193 229.552C14.7387 229.737 14.6815 229.932 14.649 230.131C14.4944 231.079 14.7209 232.049 15.2789 232.83C15.8833 233.681 16.5217 233.851 16.5303 233.8C16.5388 233.749 16.0536 233.417 15.5939 232.625C15.3337 232.168 15.1741 231.66 15.1257 231.136C15.0836 230.833 15.0836 230.527 15.1257 230.225C15.1768 229.893 15.3045 229.62 15.4322 229.663C15.5598 229.706 15.8493 229.918 15.9769 230.182C16.1247 230.455 16.2499 230.74 16.3515 231.033C16.5173 231.546 16.6118 232.079 16.6324 232.617C16.7005 233.511 16.5303 234.089 16.6069 234.115Z" fill="#263238"/>
<path d="M111.376 125.982L34.0745 140.07C29.7258 140.816 25.6887 142.814 22.4567 145.818C19.2247 148.821 16.9376 152.702 15.875 156.984C15.7842 157.376 15.6991 157.776 15.6196 158.184C13.0659 171.268 12.9297 231.076 12.9297 231.076L33.9128 230.787L37.7008 163.249L97.2876 155.103C101.392 154.566 105.176 152.598 107.971 149.544C113.01 143.926 114.576 136.324 111.376 125.982Z" fill="#263238"/>
<path d="M25.0328 193.102L26.4543 209.276C26.4543 209.276 10.5106 214.792 10.4766 217.788L41.9129 217.533L40.7211 192.242L25.0328 193.102Z" fill="#FF725E"/>
<path d="M36.1094 207.394C36.4158 207.473 36.6828 207.661 36.86 207.923C37.0372 208.185 37.1124 208.502 37.0713 208.816C37.0074 209.125 36.8265 209.398 36.5664 209.577C36.3063 209.756 35.9871 209.828 35.6753 209.778C35.3497 209.697 35.0659 209.498 34.8787 209.22C34.6915 208.941 34.6144 208.603 34.6623 208.271C34.7608 207.953 34.9797 207.686 35.2723 207.527C35.5649 207.368 35.9081 207.33 36.2286 207.42" fill="#EBEBEB"/>
<path d="M41.913 217.533L41.7938 214.979L12.043 215.83C12.043 215.83 10.4597 217.099 10.4767 217.788L41.913 217.533Z" fill="#EBEBEB"/>
<path d="M25.9428 209.131C25.9428 209.284 26.726 209.31 27.5006 209.769C28.2752 210.229 28.7179 210.842 28.8626 210.774C29.0073 210.706 28.7179 209.837 27.7645 209.301C26.8111 208.765 25.9003 209.02 25.9428 209.131Z" fill="#263238"/>
<path d="M22.7188 210.663C22.7188 210.816 23.3658 211.046 23.9191 211.668C24.4724 212.289 24.6596 212.962 24.7703 212.953C24.881 212.945 24.9746 212.059 24.2766 211.302C23.5786 210.544 22.7103 210.519 22.7188 210.663Z" fill="#263238"/>
<path d="M21.05 214.707C21.1862 214.707 21.365 213.958 20.9224 213.14C20.4797 212.323 19.7562 212.017 19.6966 212.153C19.637 212.289 20.1052 212.706 20.4542 213.387C20.8032 214.068 20.8968 214.698 21.05 214.707Z" fill="#263238"/>
<path d="M26.0214 205.411C26.098 205.547 26.7875 205.3 27.6557 205.317C28.524 205.334 29.222 205.564 29.2901 205.428C29.3582 205.292 28.6857 204.781 27.6643 204.781C26.6428 204.781 25.9448 205.292 26.0214 205.411Z" fill="#263238"/>
<path d="M25.8015 202.151C26.3257 202.256 26.8683 202.224 27.3763 202.057C27.9374 201.924 28.4804 201.724 28.9937 201.461C29.2881 201.306 29.5724 201.133 29.8449 200.942C30.0187 200.834 30.1739 200.699 30.3046 200.542C30.4043 200.423 30.459 200.272 30.459 200.116C30.459 199.961 30.4043 199.81 30.3046 199.691C30.2218 199.589 30.1165 199.507 29.9968 199.452C29.8772 199.398 29.7465 199.371 29.6151 199.376C29.4148 199.382 29.2167 199.42 29.0277 199.486C28.6969 199.587 28.3751 199.715 28.0658 199.869C27.5482 200.14 27.0747 200.487 26.6613 200.899C25.9718 201.615 25.7505 202.202 25.81 202.227C25.8696 202.253 26.2186 201.776 26.9252 201.18C27.3432 200.838 27.8039 200.552 28.2957 200.329C28.5699 200.198 28.8546 200.089 29.1469 200.006C29.4789 199.904 29.7598 199.887 29.8534 200.006C29.9471 200.125 29.8534 200.082 29.8534 200.176C29.757 200.291 29.6419 200.389 29.5129 200.465C29.2582 200.656 28.9909 200.83 28.7128 200.985C28.237 201.256 27.7351 201.478 27.2146 201.649C26.7313 201.779 26.2589 201.947 25.8015 202.151Z" fill="#263238"/>
<path d="M26.0031 202.355C26.0627 202.355 26.3351 201.81 26.3436 200.814C26.3378 200.234 26.2342 199.658 26.0371 199.112C25.9199 198.785 25.7687 198.471 25.586 198.176C25.4916 197.971 25.3452 197.795 25.1614 197.665C24.9777 197.535 24.763 197.456 24.539 197.435C24.4 197.444 24.2667 197.493 24.155 197.576C24.0433 197.659 23.9579 197.773 23.909 197.903C23.8401 198.093 23.7944 198.29 23.7728 198.49C23.7404 198.846 23.7605 199.205 23.8324 199.555C23.9478 200.14 24.2083 200.687 24.59 201.146C25.2455 201.929 25.8924 202.074 25.9009 201.998C25.9094 201.921 25.3987 201.649 24.888 200.891C24.5935 200.453 24.3988 199.956 24.3176 199.435C24.2705 199.134 24.2705 198.826 24.3176 198.525C24.3176 198.193 24.4538 197.912 24.5815 197.946C24.7092 197.98 25.0156 198.167 25.1604 198.431C25.3343 198.699 25.4798 198.984 25.5945 199.282C25.7965 199.778 25.9283 200.299 25.9861 200.831C26.0542 201.751 25.9265 202.338 26.0031 202.355Z" fill="#263238"/>
<path d="M110.073 126.339L38.1179 110.472C35.8635 109.694 33.4563 109.463 31.0952 109.8C27.1884 110.356 23.658 112.429 21.2682 115.569C18.8784 118.709 17.8216 122.664 18.3266 126.578L19.3395 197.954L44.6469 196.303L43.6765 138.282L110.073 126.339Z" fill="#263238"/>
<path d="M18.4758 137.269C18.4869 137.371 18.4869 137.474 18.4758 137.576C18.4758 137.789 18.4758 138.086 18.4758 138.427C18.4758 139.227 18.4757 140.376 18.5609 141.832C18.6205 144.837 18.7056 149.17 18.8077 154.601C18.978 165.471 19.2248 180.631 19.5058 197.929L19.2759 197.716L34.2067 196.933L44.9834 196.413L44.7706 196.635C44.3194 178.282 43.9193 162.074 43.6214 150.429C43.5022 144.632 43.4001 139.968 43.332 136.733C43.332 135.141 43.2809 133.907 43.2724 133.039C43.2724 132.638 43.2724 132.324 43.2724 132.085C43.2595 131.978 43.2595 131.869 43.2724 131.762V132.085C43.2724 132.315 43.2724 132.638 43.3149 133.039C43.3149 133.89 43.3916 135.141 43.4511 136.733C43.5533 139.959 43.698 144.624 43.8853 150.421C44.2087 162.066 44.6599 178.273 45.1792 196.626V196.839H44.9578L34.2152 197.401L19.2844 198.176H19.0546V197.954C18.8333 180.657 18.646 165.488 18.5098 154.626C18.4587 149.212 18.4162 144.879 18.3906 141.857C18.3906 140.376 18.3906 139.227 18.3906 138.452C18.3906 138.078 18.3906 137.789 18.3906 137.601C18.4105 137.489 18.4389 137.378 18.4758 137.269Z" fill="#455A64"/>
<path d="M43.5352 137.516C43.5352 137.397 49.5534 135.992 57.0188 134.384C64.4842 132.775 70.5706 131.557 70.6387 131.677C70.7068 131.796 64.6289 133.2 57.155 134.818C49.6811 136.435 43.5692 137.644 43.5352 137.516Z" fill="#455A64"/>
<path d="M46.837 130.647C47.0185 131.019 47.0978 131.433 47.0668 131.847C47.0806 132.839 46.8704 133.821 46.4518 134.72C46.0332 135.619 45.4171 136.412 44.6493 137.039C44.3533 137.324 43.9902 137.529 43.5938 137.635C44.5932 136.759 45.4266 135.709 46.0538 134.537C46.554 133.3 46.8196 131.981 46.837 130.647Z" fill="#455A64"/>
<path d="M96.7923 51.1578L80.4655 49.8384C80.3634 47.9316 80.4655 40.5598 80.4655 40.5598C80.4655 40.5598 73.6556 39.5043 73.596 32.7199C73.5364 25.9355 74.6856 10.3408 74.6856 10.3408C78.5443 8.68066 82.7765 8.0815 86.9444 8.6053C91.1123 9.1291 95.0647 10.7568 98.3926 13.3201L99.4567 14.0863L96.7923 51.1578Z" fill="#FFBE9D"/>
<path d="M80.4897 40.4746C83.629 40.5229 86.7113 39.6338 89.3426 37.9209C89.3426 37.9209 87.2485 42.807 80.4727 42.1771L80.4897 40.4746Z" fill="#EB996E"/>
<path d="M98.6078 21.143C98.727 21.0919 103.273 19.764 103.128 24.4033C102.983 29.0425 98.3525 27.9359 98.3439 27.8082C98.3354 27.6805 98.6078 21.143 98.6078 21.143Z" fill="#FFBE9D"/>
<path d="M99.8065 26.0972C99.8065 26.0972 99.8916 26.1483 100.028 26.2164C100.123 26.2564 100.226 26.277 100.33 26.277C100.434 26.277 100.536 26.2564 100.632 26.2164C100.937 26.0356 101.188 25.7773 101.36 25.4677C101.532 25.1581 101.618 24.8084 101.611 24.4543C101.635 24.0566 101.571 23.6584 101.424 23.2881C101.384 23.1425 101.31 23.0086 101.208 22.8975C101.106 22.7864 100.978 22.7015 100.836 22.6497C100.744 22.6211 100.645 22.6259 100.557 22.6633C100.468 22.7007 100.395 22.7682 100.351 22.854C100.283 22.9817 100.309 23.0753 100.283 23.0838C100.258 23.0923 100.19 22.9987 100.232 22.8114C100.257 22.6953 100.324 22.5923 100.419 22.522C100.551 22.4312 100.713 22.3946 100.871 22.4199C101.066 22.4589 101.247 22.5486 101.397 22.6802C101.546 22.8117 101.658 22.9803 101.722 23.169C101.904 23.5779 101.986 24.0244 101.96 24.4713C101.969 24.885 101.856 25.2923 101.635 25.6421C101.414 25.9918 101.095 26.2686 100.717 26.4377C100.591 26.4721 100.459 26.477 100.33 26.4519C100.202 26.4268 100.081 26.3724 99.9767 26.293C99.815 26.2079 99.7979 26.0972 99.8065 26.0972Z" fill="#EB996E"/>
<path d="M77.5547 20.8961C77.5544 21.1485 77.6517 21.3913 77.8262 21.5737C78.0007 21.7561 78.2389 21.8641 78.4911 21.875C78.7368 21.8939 78.9801 21.8151 79.1682 21.6558C79.3562 21.4964 79.4738 21.2693 79.4955 21.0238C79.4958 20.7714 79.3985 20.5286 79.224 20.3462C79.0495 20.1638 78.8113 20.0558 78.5592 20.0449C78.3134 20.026 78.0701 20.1048 77.882 20.2641C77.694 20.4235 77.5764 20.6506 77.5547 20.8961Z" fill="#263238"/>
<path d="M76.0076 19.9087C76.1268 20.0364 76.8589 19.4916 77.9059 19.4916C78.9529 19.4916 79.719 20.0194 79.8297 19.8917C79.9403 19.764 79.7616 19.6022 79.4296 19.3639C78.9781 19.0486 78.4395 18.882 77.8889 18.8872C77.3479 18.8853 76.8203 19.0552 76.3822 19.3724C76.0587 19.6193 75.948 19.8491 76.0076 19.9087Z" fill="#263238"/>
<path d="M87.9493 21.2452C87.9469 21.4974 88.0438 21.7404 88.2189 21.9219C88.3941 22.1034 88.6335 22.2089 88.8856 22.2156C89.0071 22.2261 89.1294 22.2122 89.2455 22.175C89.3616 22.1377 89.4691 22.0777 89.5618 21.9985C89.6545 21.9193 89.7305 21.8224 89.7854 21.7135C89.8403 21.6047 89.873 21.486 89.8816 21.3644C89.884 21.1113 89.7874 20.8673 89.6125 20.6845C89.4376 20.5016 89.1981 20.3943 88.9452 20.3854C88.8231 20.375 88.7001 20.3891 88.5834 20.4269C88.4668 20.4647 88.3589 20.5254 88.2661 20.6055C88.1733 20.6856 88.0975 20.7835 88.0431 20.8933C87.9887 21.0032 87.9568 21.1228 87.9493 21.2452Z" fill="#263238"/>
<path d="M86.2655 20.1045C86.3846 20.2237 87.1167 19.6874 88.1637 19.6874C89.2108 19.6874 89.9684 20.2152 90.0875 20.0875C90.2067 19.9598 90.0194 19.798 89.6875 19.5597C89.2352 19.246 88.6971 19.0795 88.1467 19.083C87.6029 19.0793 87.072 19.2493 86.6315 19.5682C86.3165 19.8151 86.2059 20.0449 86.2655 20.1045Z" fill="#263238"/>
<path d="M82.4769 27.8423C81.9259 27.6634 81.3532 27.5603 80.7744 27.5359C80.5105 27.5359 80.2552 27.4507 80.2126 27.272C80.1919 26.9962 80.2542 26.7205 80.3914 26.4803L81.1745 24.4544C81.9085 22.735 82.5007 20.9585 82.9451 19.1426C82.0679 20.7989 81.3277 22.5242 80.7318 24.3012L79.9742 26.3356C79.8069 26.6577 79.7587 27.0285 79.838 27.3826C79.8768 27.4761 79.9359 27.5597 80.011 27.6274C80.086 27.6951 80.1753 27.7453 80.2722 27.7742C80.4196 27.8123 80.5711 27.8323 80.7233 27.8338C81.3054 27.9065 81.8941 27.9093 82.4769 27.8423Z" fill="#263238"/>
<path d="M85.5512 28.5573C85.3809 28.5573 85.381 29.681 84.4105 30.4896C83.4401 31.2983 82.2314 31.1621 82.2228 31.3409C82.2143 31.5196 82.4952 31.5622 83.006 31.5707C83.6685 31.5821 84.3137 31.359 84.8276 30.9408C85.3058 30.5288 85.61 29.9508 85.6789 29.3234C85.7555 28.8297 85.6278 28.5573 85.5512 28.5573Z" fill="#263238"/>
<path d="M85.9894 16.01C86.0915 16.2994 87.1386 16.1632 88.3644 16.3079C89.5901 16.4526 90.5776 16.7931 90.7393 16.5378C90.8074 16.4101 90.6372 16.1462 90.2371 15.8738C89.7073 15.5299 89.1033 15.3169 88.475 15.2524C87.8477 15.1812 87.2123 15.257 86.6193 15.4737C86.1767 15.6525 85.9468 15.8738 85.9894 16.01Z" fill="#263238"/>
<path d="M76.3916 16.8869C76.5789 17.1252 77.294 16.8869 78.1622 16.8869C79.0305 16.8869 79.754 17.0401 79.9243 16.7933C80.0009 16.6741 79.8817 16.4357 79.5668 16.2144C79.1369 15.9432 78.636 15.8065 78.128 15.8216C77.6199 15.8368 77.128 16.0032 76.7151 16.2995C76.4172 16.5294 76.315 16.7677 76.3916 16.8869Z" fill="#263238"/>
<path d="M71.4186 6.06756C71.3774 5.65393 71.4398 5.23656 71.6004 4.85313C71.7609 4.4697 72.0143 4.13228 72.3379 3.87135C72.6802 3.62177 73.1001 3.50188 73.5226 3.53307C73.9451 3.56425 74.3428 3.74447 74.6448 4.0416C74.5738 3.75493 74.5651 3.4564 74.6191 3.16607C74.6732 2.87574 74.7888 2.60035 74.9581 2.35841C75.1275 2.11648 75.3467 1.91361 75.601 1.76346C75.8552 1.6133 76.1387 1.51933 76.4324 1.48788C77.539 1.41978 78.4839 2.254 79.5479 2.54342C80.6179 2.77169 81.7331 2.64312 82.723 2.17739C83.7275 1.7773 84.6639 1.21548 85.6769 0.849448C87.8278 0.0638515 90.202 0.159788 92.2826 1.11637C94.3632 2.07295 95.9816 3.81272 96.7855 5.95689C97.5425 5.77059 98.3382 5.81811 99.0676 6.09316C99.7971 6.36822 100.426 6.85791 100.872 7.49764C101.738 8.81215 102.084 10.4024 101.842 11.9581C101.695 12.9962 101.435 14.0151 101.067 14.9971C101.067 15.0907 101.067 15.1758 101.067 15.261C100.999 18.9979 100.582 23.3818 98.9817 23.3988C96.2067 23.3988 96.8707 18.2148 96.8707 18.2148C93.4657 16.8953 94.7341 11.7964 93.8828 11.0218C93.0316 10.2471 91.244 8.46806 84.1191 12.0943C81.4621 13.2819 78.498 13.6007 75.6492 13.0052H75.479H75.4194C74.7715 12.8475 74.1534 12.5859 73.5892 12.2305C72.9159 11.8411 72.3872 11.2437 72.0825 10.5281C71.9344 10.175 71.8925 9.78635 71.962 9.40983C72.0316 9.0333 72.2096 8.68528 72.4741 8.40847C71.8938 7.75275 71.5258 6.93659 71.4186 6.06756Z" fill="#263238"/>
<path d="M128.759 99.338C129.3 101.384 129.126 103.554 128.265 105.487C127.404 107.421 125.909 109.002 124.026 109.97H123.958C121.107 111.392 117.148 111.06 114.407 109.825L112.067 108.77L112.858 128.348C101.315 135.865 69.4449 130.187 63.2309 116.882C63.2309 113.477 61.8178 85.9224 61.8178 85.9224L61.2305 55.3288C66.6529 49.9916 69.5556 48.3912 77.1146 47.4974L80.0344 47.174C85.6995 48.9604 91.7771 48.9604 97.4422 47.174C100.124 47.2846 102.354 48.1103 104.644 48.553C111.845 49.932 117.029 55.1756 118.476 60.0277C119.66 64.0115 127.27 93.5836 127.27 93.5836L128.759 99.338Z" fill="#FF725E"/>
<path d="M69.0091 49.5064C69.0091 49.5064 61.8161 51.958 58.7942 58.8701C56.8278 63.3816 53.9251 85.1138 53.9251 85.1138L50.2733 92.1621C49.3988 93.8509 48.9433 95.7252 48.9453 97.627V98.7081C48.943 101.44 49.8841 104.089 51.6097 106.208C52.6134 107.437 53.8525 108.453 55.2543 109.198C56.6561 109.942 58.1924 110.398 59.7731 110.54C63.4164 110.864 67.8343 111.009 68.7707 109.936C70.4732 108.038 72.9333 102.93 72.9333 102.93L62.2928 97.278L66.8724 88.7656L69.0091 49.5064Z" fill="#FF725E"/>
<path d="M108.105 91.6258C108.233 91.6258 108.343 87.0716 108.343 81.462C108.343 75.8523 108.233 71.2982 108.105 71.2982C107.977 71.2982 107.875 75.8438 107.875 81.462C107.875 87.0801 107.969 91.6258 108.105 91.6258Z" fill="#263238"/>
<path d="M66.5789 83.9305C66.8141 82.002 66.8938 80.0578 66.8172 78.1165C66.8938 76.1753 66.8141 74.231 66.5789 72.3026C66.3492 74.2315 66.2724 76.1755 66.349 78.1165C66.2724 80.0575 66.3492 82.0016 66.5789 83.9305Z" fill="#263238"/>
<path d="M112.809 126.961C113.66 126.825 114.129 128.093 113.66 128.816C113.096 129.47 112.344 129.933 111.507 130.144C108.783 131.225 106.553 133.243 103.973 134.647C98.4914 137.627 91.8857 137.601 85.6887 136.835C82.1586 136.517 78.6987 135.655 75.4312 134.281C72.1519 132.882 69.449 130.404 67.7701 127.259C66.9188 125.514 66.4677 123.556 65.3611 121.955C64.6375 120.9 63.6586 120.049 62.8755 119.027C62.4557 118.54 62.15 117.966 61.9807 117.346C61.8113 116.726 61.7825 116.076 61.8965 115.443C62.237 114.209 63.7863 113.307 64.8759 113.988" fill="#FF725E"/>
<g opacity="0.3">
<path opacity="0.3" d="M90.7007 133.703C86.4781 133.174 82.541 131.289 79.4814 128.331C76.4494 125.369 73.9398 121.915 72.0585 118.116C71.7861 117.606 71.2073 117.001 70.7391 117.367C70.6033 117.499 70.5087 117.668 70.4667 117.852C70.0773 119.394 70.0586 121.007 70.4122 122.557C70.7659 124.108 71.4817 125.553 72.5012 126.773C74.5744 129.208 77.3143 130.984 80.3837 131.881C83.4381 132.769 86.5759 133.339 89.7473 133.583" fill="black"/>
</g>
<path d="M115.724 55.5417C115.724 55.5417 115.724 55.5928 115.681 55.6779C115.623 55.8133 115.555 55.9442 115.477 56.0695C115.185 56.556 114.814 56.9904 114.379 57.3549C113.684 57.9265 112.883 58.3547 112.021 58.6147C110.873 58.9395 109.671 59.0264 108.488 58.8701C107.068 58.6718 105.677 58.3061 104.343 57.7805C102.904 57.2442 101.406 56.5802 99.7887 56.078C96.2531 54.9452 92.4605 54.8889 88.8929 55.9163C87.0636 56.4995 85.2982 57.2667 83.6237 58.2061C82.0352 59.0967 80.3089 59.7153 78.5162 60.0363C76.8613 60.2161 75.1873 60.0032 73.6301 59.4149C72.2948 58.9134 70.9951 58.3219 69.7399 57.6443C67.9656 56.6201 66.0988 55.765 64.1643 55.0906C62.7768 54.6735 61.9681 54.6224 61.9766 54.5713C62.1691 54.5524 62.363 54.5524 62.5555 54.5713C63.1308 54.6284 63.7003 54.7338 64.258 54.8863C66.2246 55.5055 68.1239 56.3211 69.9272 57.3208C71.1761 57.9737 72.4672 58.5424 73.7918 59.0233C75.2978 59.5785 76.9128 59.7739 78.5077 59.5936C80.2574 59.2677 81.9405 58.652 83.4875 57.772C85.1828 56.8175 86.9711 56.0388 88.8247 55.4481C92.4784 54.3975 96.3633 54.4687 99.976 55.6524C101.619 56.1972 103.109 56.8782 104.53 57.423C105.832 57.9522 107.192 58.3264 108.582 58.5381C109.718 58.705 110.875 58.6443 111.987 58.3593C112.829 58.1278 113.619 57.7346 114.311 57.2016C114.875 56.7345 115.353 56.1728 115.724 55.5417Z" fill="#E0E0E0"/>
<path d="M107.664 76.3034C107.664 76.3545 107.076 76.3886 106.021 76.6184C104.528 76.9428 103.055 77.355 101.611 77.8527C99.4683 78.6378 97.2527 79.2081 94.9971 79.5552C93.6418 79.7186 92.2686 79.6495 90.9367 79.3509C89.5255 78.9825 88.171 78.4241 86.9103 77.691C84.3566 76.2439 81.9901 74.618 79.5556 73.9029C77.3865 73.3161 75.1174 73.1971 72.8989 73.5539C71.3924 73.7831 69.9024 74.1101 68.4384 74.5329L67.2381 74.8648C67.0999 74.9108 66.9573 74.9422 66.8125 74.9585C66.8125 74.9585 66.9402 74.8819 67.2041 74.7797C67.468 74.6776 67.868 74.5329 68.3873 74.3626C69.843 73.876 71.3343 73.5032 72.8478 73.2475C75.1097 72.8362 77.4344 72.9263 79.6577 73.5114C82.2114 74.2349 84.5524 75.8778 87.1061 77.3079C88.335 78.0159 89.6515 78.5596 91.0218 78.9253C92.3049 79.2214 93.6292 79.2962 94.9375 79.1466C97.1712 78.8278 99.369 78.2947 101.501 77.5548C102.964 77.0884 104.457 76.7215 105.97 76.4567C106.38 76.3824 106.795 76.3369 107.212 76.3205C107.361 76.2882 107.513 76.2824 107.664 76.3034Z" fill="#E0E0E0"/>
<path d="M125.244 85.6586C124.393 85.5624 123.532 85.594 122.69 85.7522C121.774 85.9698 120.888 86.2986 120.052 86.7311C119.09 87.1993 118.068 87.8037 116.91 88.323C115.827 88.8446 114.647 89.1346 113.446 89.1742C112.463 89.1934 111.485 89.0318 110.56 88.6975C109.954 88.4725 109.381 88.166 108.858 87.7867C108.483 87.5143 108.304 87.327 108.321 87.31C109.082 87.7308 109.873 88.095 110.688 88.3996C111.582 88.6823 112.518 88.8062 113.454 88.7656C114.601 88.7064 115.725 88.4169 116.757 87.9144C117.881 87.4121 118.911 86.8248 119.898 86.3566C120.774 85.9331 121.701 85.6269 122.656 85.4458C123.307 85.3293 123.972 85.3293 124.623 85.4458C124.842 85.4744 125.053 85.5467 125.244 85.6586Z" fill="#E0E0E0"/>
<path d="M66.4461 78.7124C65.8963 78.529 65.3229 78.4257 64.7436 78.406C64.1088 78.4208 63.4789 78.521 62.8709 78.7039C62.104 78.9419 61.3255 79.1408 60.5385 79.2998C59.798 79.4283 59.0391 79.4056 58.3076 79.233C57.5761 79.0604 56.8872 78.7414 56.2823 78.2953C55.7592 77.9629 55.3426 77.4872 55.082 76.9248C55.1501 76.8738 55.5502 77.4526 56.461 78.0314C57.6419 78.8039 59.0688 79.1075 60.4619 78.8827C61.3131 78.7465 62.0367 78.4911 62.7602 78.3294C63.4069 78.1586 64.0752 78.084 64.7436 78.1081C65.3686 78.0774 65.9804 78.2946 66.4461 78.7124Z" fill="#E0E0E0"/>
<path d="M111.715 112.89C111.715 112.941 111 112.745 109.689 112.685C107.831 112.648 105.982 112.936 104.224 113.537C101.623 114.449 99.0935 115.553 96.6564 116.84C95.1844 117.568 93.6725 118.213 92.1278 118.772C90.4622 119.385 88.7155 119.749 86.9437 119.853C85.1512 119.939 83.3621 119.622 81.7086 118.925C80.2096 118.252 78.7834 117.428 77.4524 116.465C76.1585 115.614 74.9582 114.711 73.792 113.979C72.7246 113.286 71.5824 112.715 70.3871 112.277C68.6629 111.601 66.7814 111.433 64.9647 111.792C64.3116 111.983 63.6764 112.231 63.0664 112.532C63.6192 112.112 64.25 111.805 64.9221 111.63C66.7713 111.191 68.7093 111.313 70.4892 111.979C71.7236 112.396 72.906 112.953 74.0134 113.639C75.2051 114.371 76.4139 115.231 77.7077 116.107C79.0311 117.04 80.4423 117.841 81.9214 118.499C83.5171 119.154 85.2386 119.445 86.9607 119.351C90.5274 119.163 93.7196 117.725 96.5202 116.414C98.9829 115.132 101.545 114.05 104.181 113.179C105.205 112.869 106.253 112.647 107.314 112.515C108.119 112.424 108.931 112.407 109.74 112.464C110.248 112.495 110.752 112.571 111.247 112.694C111.411 112.738 111.568 112.804 111.715 112.89Z" fill="#E0E0E0"/>
<path d="M70.5925 122.194C69.7331 121.7 68.7891 121.371 67.809 121.223C66.8161 121.216 65.831 121.398 64.9062 121.76C64.9062 121.717 65.1191 121.453 65.6383 121.189C66.3243 120.861 67.0856 120.723 67.843 120.789C68.5985 120.845 69.3263 121.097 69.9541 121.521C70.4308 121.836 70.6266 122.134 70.5925 122.194Z" fill="#E0E0E0"/>
<path d="M107.122 132.775C107.071 132.775 107.029 132.366 106.731 131.694C106.284 130.755 105.604 129.946 104.756 129.344C103.502 128.456 102.031 127.923 100.5 127.803C98.6061 127.742 96.7201 128.069 94.958 128.765C93.0512 129.455 91.3062 130.315 89.6718 131.004C88.2249 131.643 86.7159 132.131 85.1688 132.46C84.119 132.673 83.0442 132.736 81.9766 132.647C81.6906 132.613 81.4064 132.565 81.1254 132.502C80.9381 132.46 80.8359 132.426 80.8359 132.409C82.2594 132.541 83.6947 132.455 85.0921 132.153C86.6061 131.784 88.0823 131.273 89.5016 130.63C91.1104 129.932 92.864 129.055 94.7963 128.348C96.6161 127.626 98.5694 127.301 100.525 127.395C102.134 127.533 103.672 128.123 104.96 129.097C105.834 129.749 106.507 130.634 106.901 131.651C107.007 131.925 107.081 132.211 107.122 132.502C107.122 132.673 107.165 132.775 107.122 132.775Z" fill="#E0E0E0"/>
<path d="M70.5156 123.249C70.5582 123.249 70.7199 123.854 71.2562 124.858C72.0235 126.263 73.0554 127.506 74.2951 128.519C77.3766 131.2 82.9948 132.877 89.1578 133.311C92.0541 133.5 94.9613 133.194 97.7553 132.409C100.044 131.743 102.273 130.889 104.421 129.855C106.268 129.004 107.732 128.212 108.745 127.693L109.92 127.097C110.054 127.019 110.197 126.956 110.345 126.91C110.345 126.91 110.226 127.012 109.962 127.174L108.83 127.838C107.834 128.408 106.395 129.225 104.574 130.136C102.428 131.225 100.189 132.119 97.883 132.809C95.0398 133.644 92.073 133.978 89.1152 133.796C86.1677 133.61 83.2528 133.073 80.4326 132.196C78.1045 131.503 75.9413 130.344 74.0738 128.791C72.8242 127.737 71.8068 126.436 71.086 124.969C70.889 124.572 70.7267 124.159 70.6007 123.735C70.5471 123.578 70.5184 123.415 70.5156 123.249Z" fill="#263238"/>
<g opacity="0.3">
<path opacity="0.3" d="M112.071 109.059C110.139 109.357 108.087 108.327 106.291 107.535C104.495 106.744 102.324 106.182 100.665 107.22C99.9177 107.825 99.2177 108.485 98.5705 109.195C96.6041 110.898 93.7269 110.847 91.1562 110.549C85.0783 109.851 79.1622 108.225 73.2801 106.599C72.7013 106.437 70.3008 105.535 70.3008 105.535L72.9396 104.939L75.3572 104.182L77.2043 103.781L95.3783 106.565C95.3783 106.565 96.6211 105.254 96.6211 105.22L92.5011 100.223C98.4598 102.871 111.705 108.846 112.08 108.804" fill="black"/>
</g>
<path d="M72.6356 86.3565L73.1889 85.9394C74.6072 84.88 76.2303 84.1271 77.9551 83.7285C79.6799 83.3299 81.4687 83.2943 83.208 83.624C86.0735 84.1772 88.7561 85.4352 91.0139 87.2844L95.3722 90.8766L90.733 99.2102L87.5408 94.7753C87.5408 94.7753 84.5955 98.7676 84.0763 98.3505C83.6063 97.8449 83.216 97.2709 82.9186 96.648L85.0212 93.7027L79.9733 94.7582L72.6016 91.3533L75.7597 87.361L72.6016 88.408L72.6356 86.3565Z" fill="#FFBE9D"/>
<path d="M112.631 109.059C112.503 108.968 112.366 108.891 112.222 108.829L111.005 108.242L106.434 106.105L90.8305 98.9804L90.9411 99.3039C91.903 97.6014 92.899 95.7883 93.929 93.9581L95.7762 90.6383L95.5549 90.7489L114.206 92.5876L119.747 93.0814L121.245 93.192C121.421 93.2102 121.598 93.2102 121.773 93.192C121.604 93.1436 121.43 93.1122 121.254 93.0984L119.764 92.9026L114.24 92.2642L95.6059 90.2808H95.4527L95.3761 90.4085C94.7802 91.4725 94.1503 92.5961 93.5204 93.7368L90.541 99.0826L90.4219 99.2954L90.6432 99.3976L106.315 106.369L110.937 108.387L112.188 108.906C112.329 108.975 112.478 109.026 112.631 109.059Z" fill="#263238"/>
<path d="M64.2937 98.4187C64.0428 98.3411 63.7818 98.3009 63.5191 98.2995C62.7988 98.2372 62.0733 98.2802 61.3655 98.4272C60.8487 98.5372 60.3788 98.8049 60.0205 99.1933C59.6539 99.6651 59.411 100.221 59.314 100.811C59.2052 101.462 59.2668 102.131 59.4928 102.751C59.7501 103.416 60.197 103.99 60.7781 104.403C61.9033 105.091 63.1579 105.54 64.464 105.722C65.5051 105.921 66.5622 106.023 67.6221 106.029C68.6057 106.112 69.5941 105.939 70.4908 105.527C69.5451 105.676 68.5873 105.733 67.6306 105.697C66.5943 105.648 65.5637 105.514 64.5491 105.297C63.3121 105.103 62.1241 104.673 61.0505 104.028C60.3507 103.513 59.8817 102.743 59.7447 101.884C59.6078 101.026 59.8138 100.148 60.3185 99.4401C60.6224 99.1011 61.0189 98.8585 61.4591 98.7421C62.1302 98.5737 62.8188 98.4851 63.5106 98.4782C63.7731 98.4932 64.0365 98.4732 64.2937 98.4187Z" fill="#263238"/>
<path d="M60.0742 110.728C60.6633 110.91 61.2803 110.985 61.8959 110.949C63.3961 110.987 64.8897 110.739 66.2968 110.217C67.0737 109.925 67.8092 109.533 68.4845 109.051C69.0309 108.636 69.4908 108.118 69.8379 107.527C70.1806 107.015 70.4046 106.434 70.4934 105.824C70.4168 105.824 70.1784 106.463 69.557 107.382C69.2006 107.911 68.7506 108.369 68.2291 108.736C67.5728 109.177 66.8672 109.54 66.1265 109.817C64.7624 110.326 63.3254 110.614 61.8703 110.668C61.271 110.641 60.6704 110.661 60.0742 110.728Z" fill="#263238"/>
<path d="M54.9805 88.6719C55.3414 89.2232 55.7641 89.7316 56.2403 90.1871C57.0915 91.0383 58.2067 92.2982 59.5006 93.592C60.7944 94.8859 61.9777 96.0947 62.8544 96.9374C63.2992 97.425 63.7991 97.8592 64.3441 98.2313C63.9901 97.6747 63.5699 97.1631 63.0928 96.7076C62.2415 95.8563 61.1264 94.588 59.8325 93.3026C58.3337 91.6394 56.7118 90.0915 54.9805 88.6719Z" fill="#263238"/>
<path d="M80.4179 85.5905L96.617 105.22L95.3742 106.565L69.0794 102.556L56.0469 82.9346L57.2556 81.845L80.4179 85.5905Z" fill="#263238"/>
<path d="M63.2344 90.7745C63.7385 90.773 64.2312 90.9244 64.6475 91.2085C65.0639 91.4927 65.3844 91.8964 65.5668 92.3663C65.9583 93.3878 66.5287 94.571 67.1586 94.92C68.3333 95.5585 70.3507 96.0692 71.4148 95.5499C72.4788 95.0307 76.7265 91.2086 77.4671 91.6342C78.2077 92.0599 78.8461 93.0133 78.1055 93.8645C77.365 94.7157 73.4322 97.2695 74.1728 98.1207C74.9134 98.9719 83.2045 95.2265 84.4813 95.567C85.7582 95.9075 86.4988 96.6821 85.7497 97.1928C85.0006 97.7036 79.3824 99.8317 79.0589 100.598C79.0589 100.598 87.5713 98.3676 87.8778 98.8953C88.1842 99.4231 88.729 100.274 87.8778 100.598C87.0265 100.921 79.6974 102.828 79.0589 103.152C78.006 103.594 76.9067 103.917 75.7817 104.113C74.6292 104.416 73.4928 104.777 72.3767 105.195C70.6561 105.789 68.7782 105.741 67.0905 105.058L66.2393 104.701C65.5903 104.431 65.0406 103.967 64.6657 103.373C64.2908 102.779 64.109 102.083 64.1452 101.381L64.324 98.4782L63.3961 96.0862L63.2344 90.7745Z" fill="#FFBE9D"/>
<path d="M56.0469 83.0367C56.2027 83.0975 56.3658 83.1375 56.5321 83.1559L57.9451 83.4113L63.1207 84.2625L70.7818 85.4372L75.3275 86.1267C76.931 86.3003 78.4547 86.9163 79.7284 87.9058C80.8948 89.0444 81.9653 90.2772 82.9291 91.5917L85.8062 95.1754L90.7009 101.236C92.0714 102.939 93.195 104.284 94.0292 105.288L94.9486 106.378C95.0541 106.51 95.1709 106.632 95.2976 106.744C95.2218 106.593 95.1305 106.45 95.0252 106.318L94.1739 105.177L90.9477 100.998L86.1382 94.8775L83.2866 91.2767C82.3103 89.9336 81.2195 88.6776 80.0263 87.5228C78.6931 86.4736 77.091 85.8216 75.4041 85.6415L70.8499 84.9776L63.1292 83.888L57.9281 83.1985L56.5065 83.0367C56.3539 83.0179 56.1995 83.0179 56.0469 83.0367Z" fill="#455A64"/>
<path d="M68.2994 87.293C68.5842 87.4355 68.8341 87.6389 69.0315 87.8888C69.1168 88.0144 69.1623 88.1627 69.1623 88.3145C69.1623 88.4662 69.1168 88.6145 69.0315 88.7401C68.8785 88.8675 68.6858 88.9373 68.4867 88.9373C68.2876 88.9373 68.0949 88.8675 67.9419 88.7401C67.7343 88.5845 67.587 88.362 67.5248 88.1102C67.4973 87.9833 67.5033 87.8515 67.5421 87.7277C67.5809 87.6038 67.6512 87.4921 67.7461 87.4036C67.8487 87.325 67.9744 87.2823 68.1036 87.2823C68.2329 87.2823 68.3586 87.325 68.4612 87.4036" fill="#FAFAFA"/>
<g opacity="0.3">
<path opacity="0.3" d="M63.8641 97.8738C60.9189 95.1328 58.5013 92.3493 55.556 89.6168C54.9602 89.055 54.3047 88.2208 54.7048 87.5057C54.8344 87.3131 55.0159 87.1613 55.2284 87.0679C55.4409 86.9744 55.6755 86.9433 55.905 86.9779C56.3637 87.0498 56.8002 87.2244 57.1819 87.4887C60.7316 89.6764 62.0425 94.205 63.8641 97.8738Z" fill="black"/>
</g>
<path d="M110.961 107.927C110.961 107.927 110.961 107.672 111.148 107.272C111.435 106.729 111.809 106.237 112.255 105.816C113.697 104.488 114.582 102.663 114.732 100.708C114.86 98.7548 114.635 96.794 114.068 94.9201C113.811 94.1379 113.609 93.3386 113.464 92.5281C113.846 93.2598 114.148 94.0303 114.366 94.8264C115.06 96.732 115.35 98.7613 115.217 100.785C115.11 101.903 114.78 102.989 114.247 103.977C113.801 104.764 113.226 105.469 112.544 106.063C112.098 106.453 111.701 106.896 111.361 107.382C111.237 107.571 111.104 107.753 110.961 107.927Z" fill="#E0E0E0"/>
<path d="M101.605 91.6598C101.794 92.2354 101.855 92.8456 101.783 93.4474C101.709 94.9203 101.261 96.35 100.481 97.6014C99.7004 98.8519 98.6172 99.8854 97.3314 100.606C96.8166 100.938 96.2356 101.153 95.6289 101.236C95.6289 101.168 96.2418 100.93 97.1526 100.334C98.3432 99.5796 99.348 98.5663 100.092 97.3694C100.837 96.1726 101.301 94.8232 101.451 93.4219C101.596 92.3493 101.528 91.6683 101.605 91.6598Z" fill="#E0E0E0"/>
<path d="M60.299 95.0988C60.299 95.0988 60.4011 95.3031 60.4011 95.7032C60.3993 96.2693 60.2621 96.8268 60.001 97.3291C59.6083 98.0775 58.9801 98.6758 58.2134 99.0315C57.2539 99.3541 56.2462 99.5096 55.2341 99.4912C54.2977 99.6025 53.4121 99.9774 52.6804 100.572C52.0713 101.067 51.57 101.681 51.2077 102.377C50.9104 103.044 50.6933 103.744 50.5608 104.462C50.5162 104.261 50.5162 104.051 50.5608 103.85C50.5963 103.293 50.7348 102.747 50.9694 102.241C51.3124 101.475 51.8246 100.797 52.4676 100.257C53.2549 99.5832 54.2287 99.1646 55.2596 99.0571C56.225 99.0702 57.1867 98.9353 58.1113 98.657C58.8224 98.3411 59.4174 97.8115 59.8138 97.1418C60.1152 96.5018 60.2805 95.8061 60.299 95.0988Z" fill="#E0E0E0"/>
</svg>
