<svg width="350" height="399" viewBox="0 0 350 399" fill="none" xmlns="http://www.w3.org/2000/svg">
<g clip-path="url(#clip0)">
<path d="M414.8 376.677C414.8 376.808 323.603 376.921 211.181 376.921C98.7588 376.921 7.49609 376.808 7.49609 376.677C7.49609 376.545 98.6744 376.433 211.181 376.433C323.688 376.433 414.8 376.536 414.8 376.677Z" fill="#263238"/>
<path d="M155.427 264.03H52.942C50.1436 264.03 47.875 266.298 47.875 269.097V371.582C47.875 374.38 50.1436 376.649 52.942 376.649H155.427C158.226 376.649 160.494 374.38 160.494 371.582V269.097C160.494 266.298 158.226 264.03 155.427 264.03Z" fill="#FF725E"/>
<g opacity="0.3">
<path opacity="0.3" d="M47.5664 333.448C52.6053 327.696 55.683 320.424 57.2407 312.936C59.1173 304.125 58.8921 294.985 58.2728 286.033C58.0755 283.715 58.3566 281.38 59.0986 279.174C62.2702 270.232 70.7903 271.208 77.9592 271.977C98.2043 274.13 118.67 271.391 137.637 263.992H52.7554C51.458 263.992 50.2135 264.507 49.2952 265.423C48.3769 266.34 47.8598 267.583 47.8573 268.881L47.5664 333.448Z" fill="black"/>
</g>
<path d="M107.019 127.07C105.143 131.527 99.569 133.891 98.5744 138.611C97.7487 142.515 100.404 146.953 98.3304 150.369C96.4537 153.521 91.762 153.578 89.069 156.139C87.38 157.772 86.7419 160.193 86.4792 162.52C86.1696 165.335 86.3572 168.319 88.0181 170.58C88.8354 171.597 89.8596 172.428 91.0228 173.019C92.1861 173.609 93.4616 173.946 94.7647 174.005C97.372 174.111 99.9736 173.686 102.412 172.757C109.262 170.449 115.633 166.339 119.922 160.512C124.21 154.685 126.227 147.037 124.613 139.991C122.999 132.944 117.407 126.76 110.36 125.118" fill="#263238"/>
<path d="M91.2707 170.702C91.2707 170.702 91.2144 170.58 91.1769 170.327C91.1 169.966 91.0529 169.598 91.0361 169.229C90.9268 167.871 91.0217 166.505 91.3176 165.176C91.7348 163.187 92.5313 161.298 93.6635 159.611C94.3372 158.616 95.128 157.706 96.0187 156.899C96.9791 156.051 98.0192 155.296 99.1246 154.647C100.202 154.022 101.177 153.234 102.015 152.311C102.792 151.46 103.221 150.348 103.216 149.196C103.127 148.149 102.929 147.114 102.625 146.109C102.375 145.191 102.337 144.228 102.512 143.293C102.799 141.928 103.565 140.71 104.67 139.859C104.961 139.635 105.276 139.443 105.609 139.287C105.728 139.23 105.854 139.189 105.984 139.165C105.565 139.424 105.161 139.705 104.773 140.009C103.768 140.874 103.086 142.056 102.84 143.359C102.695 144.258 102.752 145.178 103.009 146.052C103.338 147.086 103.555 148.153 103.657 149.233C103.662 150.482 103.204 151.689 102.371 152.621C101.507 153.585 100.497 154.408 99.378 155.06C97.2596 156.243 95.4322 157.885 94.0294 159.865C92.9042 161.495 92.0957 163.322 91.6461 165.251C91.3285 166.549 91.1834 167.884 91.2144 169.22C91.2426 170.177 91.3176 170.693 91.2707 170.702Z" fill="#455A64"/>
<path d="M108.473 113.267C107.37 112.494 106.542 111.389 106.111 110.114C105.679 108.838 105.666 107.458 106.074 106.174C106.481 104.891 107.287 103.771 108.375 102.977C109.463 102.184 110.776 101.758 112.123 101.763C115.079 101.763 117.622 103.799 120.484 104.512C122.736 105.075 125.091 104.812 127.408 104.869C129.726 104.925 132.203 105.403 133.799 107.083C135.788 109.176 135.854 112.525 137.693 114.759C138.997 116.354 141.024 117.142 142.675 118.381C143.937 119.328 144.98 120.537 145.731 121.925C146.482 123.312 146.925 124.846 147.028 126.421C147.131 127.996 146.893 129.574 146.33 131.048C145.766 132.522 144.891 133.857 143.764 134.961C142.666 136.04 141.296 136.941 140.648 138.339C139.71 140.469 140.648 143.294 139.11 145.105C137.571 146.916 134.418 146.756 133.329 148.792C132.879 149.609 132.766 150.753 131.903 151.119C131.547 151.201 131.176 151.201 130.82 151.118C130.464 151.035 130.132 150.872 129.848 150.641L121.244 145.546" fill="#263238"/>
<path d="M119.422 154.647L110.583 155.83C107.244 156.925 104.225 158.822 101.791 161.356L77.3286 186.842L71.1262 149.064L58.4492 150.688L62.2589 195.728C62.5129 199.229 64.0435 202.515 66.5602 204.963C69.0769 207.41 72.4046 208.849 75.9117 209.005C76.2495 209.005 76.5873 209.005 76.9251 209.005C80.7252 208.787 84.3005 207.133 86.9278 204.379L102.964 190.398" fill="#FF725E"/>
<path d="M60.8904 154.047C60.6118 153.459 60.4585 152.82 60.44 152.17C60.3065 151.527 60.3065 150.862 60.44 150.219C60.7248 150.804 60.8785 151.444 60.8904 152.095C61.0292 152.738 61.0292 153.404 60.8904 154.047Z" fill="#263238"/>
<path d="M64.6122 154.009C64.2142 152.685 64.0866 151.293 64.2369 149.918C64.5008 150.561 64.6347 151.25 64.631 151.945C64.7709 152.627 64.7645 153.33 64.6122 154.009Z" fill="#263238"/>
<path d="M68.3103 153.625C68.0283 152.904 67.8819 152.137 67.8787 151.363C67.7436 150.603 67.7436 149.825 67.8787 149.064C68.1635 149.784 68.31 150.551 68.3103 151.326C68.4455 152.086 68.4455 152.864 68.3103 153.625Z" fill="#263238"/>
<path d="M77.9673 119.995C78.2112 120.436 85.5303 151.288 85.5303 151.288L71.3145 152.536L64.7461 126.019L77.9673 119.995Z" fill="#455A64"/>
<path d="M85.5296 151.288L87.1341 150.528L79.7119 120.126L77.7695 120.079L85.5296 151.288Z" fill="#263238"/>
<path d="M72.5076 127.023C72.5376 127.217 72.4906 127.415 72.3766 127.574C72.2626 127.734 72.0907 127.842 71.8977 127.877C71.8021 127.893 71.7043 127.89 71.6099 127.868C71.5156 127.846 71.4265 127.805 71.3479 127.748C71.2694 127.692 71.2029 127.62 71.1523 127.537C71.1017 127.454 71.068 127.363 71.0532 127.267C71.0371 127.171 71.0401 127.072 71.062 126.977C71.0839 126.882 71.1244 126.793 71.181 126.713C71.2377 126.634 71.3094 126.567 71.3921 126.515C71.4749 126.464 71.5669 126.429 71.6631 126.413C71.7587 126.397 71.8565 126.4 71.9508 126.422C72.0452 126.444 72.1342 126.485 72.2128 126.541C72.2914 126.598 72.3579 126.67 72.4085 126.753C72.4591 126.835 72.4928 126.927 72.5076 127.023Z" fill="#263238"/>
<path d="M70.49 149.28L70.0771 144.908L76.0731 142.149L73.4645 136.603C73.1649 135.992 72.7419 135.45 72.2222 135.01C71.7025 134.571 71.0974 134.244 70.445 134.05C69.7926 133.856 69.107 133.799 68.4316 133.883C67.7562 133.968 67.1056 134.191 66.5208 134.539L64.1374 135.965C63.2886 136.47 62.5568 137.149 61.9906 137.958C61.4244 138.767 61.0367 139.687 60.8532 140.657C60.3331 143.97 59.9947 147.309 59.8398 150.66" fill="#FFBE9D"/>
<path d="M116.354 154.235C105.037 155.501 101.34 163.956 96.0857 171.519L88.457 185.594L103.001 190.417L101.96 215.818L95.2788 236.461L147.413 233.383L143.19 213.819L146.155 191.487L148.97 172.861C149.466 169.778 148.907 166.618 147.383 163.893C145.858 161.168 143.459 159.038 140.572 157.847C133.554 155.107 133.366 154.591 127.783 154.347C126.009 154.272 117.789 153.925 116.354 154.281" fill="#FF725E"/>
<path d="M101.979 215.227C102.06 214.721 102.107 214.21 102.12 213.697C102.12 212.618 102.242 211.211 102.326 209.503C102.476 205.965 102.645 201.058 102.814 195.681C102.983 190.304 103.096 185.359 103.161 181.85C103.161 180.142 103.161 178.735 103.208 177.656C103.237 177.142 103.221 176.627 103.161 176.117C103.068 176.621 103.021 177.133 103.02 177.646C102.964 178.716 102.899 180.133 102.814 181.831C102.664 185.369 102.486 190.276 102.326 195.662C102.167 201.048 102.035 205.984 101.979 209.493C101.979 211.201 101.979 212.618 101.932 213.688C101.897 214.201 101.913 214.716 101.979 215.227Z" fill="#263238"/>
<path d="M20.9341 341.489L20.7464 332.2L38.5749 325.875L39.3161 338.806L38.3121 339.284C33.7799 341.396 15.4073 349.719 11.973 350C8.14456 350.385 20.9341 341.489 20.9341 341.489Z" fill="#FF725E"/>
<g opacity="0.4">
<path opacity="0.4" d="M14.7885 346.078C14.7885 346.078 10.4253 349.512 11.373 350.075C12.3207 350.638 31.247 342.934 39.2979 338.815L39.1196 338.449L17.1156 347.626C17.1156 347.626 15.7644 345.721 14.7885 346.078Z" fill="white"/>
</g>
<path d="M39.411 338.327L39.1389 338.468L38.3413 338.853L35.3856 340.213C32.8708 341.339 29.3896 342.85 25.5049 344.436C21.6202 346.022 18.0732 347.373 15.4928 348.32L12.4245 349.428L11.5893 349.709C11.4939 349.752 11.3927 349.78 11.2891 349.794L11.5799 349.672L12.3963 349.343L15.4365 348.18C18.0076 347.194 21.5451 345.815 25.4204 344.229C29.2958 342.643 32.7958 341.161 35.3199 340.072L38.2663 338.74L39.0826 338.393L39.411 338.327Z" fill="#263238"/>
<path d="M17.2281 347.87C16.8933 347.425 16.5092 347.019 16.0834 346.659C15.6132 346.358 15.1093 346.112 14.582 345.927C15.174 345.909 15.7522 346.109 16.2054 346.491C16.7065 346.807 17.0713 347.299 17.2281 347.87Z" fill="#263238"/>
<path d="M21.111 343.432C21.111 343.432 20.7263 343.291 20.3228 343C19.9194 342.709 19.6378 342.456 19.666 342.409C19.6941 342.362 20.0507 342.54 20.4542 342.831C20.8577 343.122 21.1392 343.347 21.111 343.432Z" fill="#263238"/>
<path d="M22.1638 342.146C22.1638 342.202 21.8072 342.146 21.4225 341.987C21.0378 341.827 20.7281 341.696 20.7469 341.639C20.7657 341.583 21.1035 341.639 21.4976 341.789C21.8917 341.94 22.1826 342.09 22.1638 342.146Z" fill="#263238"/>
<path d="M22.368 340.232C22.368 340.288 22.0302 340.495 21.5516 340.692C21.2652 340.855 20.9429 340.945 20.6133 340.954C20.6133 340.898 20.9511 340.692 21.4296 340.495C21.7184 340.337 22.0393 340.247 22.368 340.232Z" fill="#263238"/>
<path d="M22.2173 339.012C22.0057 339.317 21.7086 339.552 21.3634 339.688C21.049 339.883 20.6823 339.978 20.3125 339.96C20.6107 339.776 20.9248 339.619 21.2508 339.491C21.5569 339.301 21.8806 339.14 22.2173 339.012Z" fill="#263238"/>
<path d="M19.9618 342.184C19.6315 342.384 19.2699 342.526 18.8921 342.606C18.4901 342.716 18.0785 342.789 17.6629 342.822C17.4103 342.85 17.1554 342.85 16.9028 342.822C16.7455 342.798 16.6021 342.718 16.4994 342.597C16.4538 342.522 16.4297 342.436 16.4297 342.348C16.4297 342.26 16.4538 342.174 16.4994 342.099C16.8256 341.737 17.267 341.498 17.749 341.422C18.231 341.347 18.7242 341.44 19.1455 341.686C19.3957 341.831 19.613 342.026 19.7835 342.259C19.9055 342.428 19.9431 342.531 19.9337 342.54C19.689 342.255 19.397 342.014 19.0704 341.827C18.7179 341.645 18.3209 341.567 17.9256 341.602C17.4503 341.641 17.0074 341.859 16.687 342.212C16.5744 342.4 16.687 342.578 16.9498 342.606C17.1838 342.629 17.4195 342.629 17.6535 342.606C18.0608 342.581 18.4655 342.525 18.864 342.437C19.5396 342.315 19.9524 342.146 19.9618 342.184Z" fill="#263238"/>
<path d="M19.7074 342.343C19.485 342.176 19.3341 341.932 19.2852 341.658C19.2018 341.351 19.2018 341.027 19.2852 340.72C19.3044 340.519 19.3761 340.326 19.493 340.162C19.6099 339.997 19.7679 339.866 19.9514 339.781C20.0683 339.759 20.1892 339.785 20.2876 339.851C20.3861 339.918 20.4541 340.021 20.4768 340.138C20.5137 340.321 20.5137 340.509 20.4768 340.692C20.427 340.981 20.3452 341.265 20.2329 341.536C20.1428 341.794 19.9952 342.029 19.8012 342.221C19.8012 342.221 19.9326 341.94 20.0921 341.48C20.1827 341.215 20.2425 340.942 20.2704 340.663C20.3267 340.382 20.2704 339.932 19.9795 339.997C19.6886 340.063 19.5385 340.457 19.4634 340.729C19.4035 340.998 19.4035 341.277 19.4634 341.546C19.5133 341.82 19.5952 342.088 19.7074 342.343Z" fill="#263238"/>
<path d="M37.1895 333.926C37.1895 333.926 36.7016 334.076 35.9884 334.471C35.0654 334.981 34.3021 335.738 33.7833 336.657C33.2707 337.585 33.024 338.637 33.0702 339.697C33.0702 340.513 33.2766 341.001 33.2391 341.011C33.1769 340.905 33.1295 340.791 33.0984 340.673C33.009 340.367 32.9493 340.052 32.9201 339.735C32.8222 338.64 33.0577 337.541 33.5957 336.582C34.1409 335.628 34.9531 334.855 35.9321 334.358C36.233 334.212 36.5472 334.096 36.8705 334.011C36.9721 333.967 37.0796 333.939 37.1895 333.926Z" fill="#263238"/>
<path d="M32.6641 327.733C33.2412 328.815 33.752 329.93 34.1935 331.074C34.704 332.192 35.1489 333.338 35.526 334.508C34.95 333.423 34.4393 332.304 33.9965 331.158C33.487 330.043 33.0421 328.899 32.6641 327.733Z" fill="#263238"/>
<path d="M30.4903 340.344C29.7666 340.847 28.9814 341.253 28.1538 341.555C27.3569 341.926 26.5145 342.191 25.6484 342.343C25.6484 342.287 26.7369 341.911 28.0693 341.348C29.4018 340.785 30.4621 340.288 30.4903 340.344Z" fill="#263238"/>
<path d="M33.7802 339.021C33.8365 339.021 33.7802 339.284 33.7802 339.575C33.7802 339.866 33.7802 340.119 33.7802 340.138C33.7802 340.157 33.5925 339.913 33.6019 339.566C33.6113 339.218 33.677 338.993 33.7802 339.021Z" fill="#263238"/>
<path d="M34.3339 336.995C34.3902 336.995 34.3339 337.239 34.2589 337.483C34.1838 337.727 34.0243 337.905 33.968 337.877C33.9117 337.849 33.968 337.642 34.0524 337.398C34.1369 337.154 34.2776 336.976 34.3339 336.995Z" fill="#263238"/>
<path d="M35.8075 335.587C35.8075 335.653 35.5917 335.737 35.3853 335.925C35.1788 336.113 35.0568 336.31 35.0005 336.291C34.9442 336.272 35.0005 335.981 35.2445 335.756C35.4885 335.531 35.7981 335.531 35.8075 335.587Z" fill="#263238"/>
<path d="M36.9149 334.752C36.9149 334.799 36.9149 334.921 36.7836 335.033C36.6522 335.146 36.5396 335.193 36.5021 335.146C36.4645 335.099 36.5021 334.977 36.6334 334.874C36.7648 334.771 36.8774 334.705 36.9149 334.752Z" fill="#263238"/>
<path d="M92.4143 237.24L40.1301 238.178C36.0858 238.254 32.2048 239.787 29.2001 242.495C26.1955 245.203 24.2691 248.905 23.7749 252.92L13.4062 337.182H41.8004L50.48 264.395H91.7105L92.4143 237.24Z" fill="#263238"/>
<path d="M13.7656 331.862C13.7656 331.993 19.9868 332.144 27.653 332.19C35.3192 332.237 41.4184 332.05 41.5498 332.031C42.4318 331.946 35.338 331.749 27.6624 331.703C19.9868 331.656 13.7656 331.731 13.7656 331.862Z" fill="#455A64"/>
<path d="M141.502 264.433C162.371 257.527 147.413 233.346 147.413 233.346L67.8142 237.99C66.0738 237.978 64.3481 238.31 62.7366 238.968C61.1251 239.625 59.6597 240.595 58.4246 241.821C57.1896 243.048 56.2094 244.506 55.5405 246.113C54.8716 247.72 54.5273 249.443 54.5273 251.184L54.8182 253.304C54.8182 260.595 60.4483 264.386 67.7298 264.386L141.502 264.433Z" fill="#263238"/>
<path d="M129.161 234.584H128.898H128.138L125.192 234.697L114.382 235.213L78.7255 237.09C76.9802 237.165 75.263 237.306 73.574 237.334C71.885 237.362 70.196 237.428 68.5539 237.521C66.9118 237.615 65.2885 237.728 63.7121 237.887C62.1487 238.002 60.6065 238.317 59.1236 238.826C57.7025 239.328 56.3995 240.117 55.2952 241.143C54.2752 242.133 53.4841 243.334 52.9775 244.662C52.5142 245.89 52.1992 247.169 52.0392 248.472C51.8695 249.662 51.7849 250.863 51.7858 252.066C51.7662 254.122 52.1819 256.159 53.0057 258.043C53.6427 259.507 54.6247 260.794 55.8676 261.796C56.638 262.422 57.5199 262.897 58.4668 263.194C59.1142 263.382 59.1236 263.326 58.4668 263.101C57.5487 262.774 56.6968 262.284 55.952 261.656C54.7685 260.669 53.8332 259.419 53.2215 258.005C52.4292 256.121 52.0454 254.09 52.0955 252.047C52.1093 250.86 52.2034 249.675 52.377 248.5C52.5462 247.217 52.861 245.958 53.3153 244.747C53.8058 243.475 54.5716 242.328 55.5579 241.387C56.6219 240.408 57.8732 239.655 59.2362 239.173C60.7167 238.697 62.2529 238.417 63.8059 238.338C65.373 238.178 66.9869 238.075 68.6196 237.981C70.2523 237.887 71.9319 237.822 73.6209 237.803C75.3099 237.784 77.0459 237.634 78.7818 237.559L114.439 235.57L125.239 234.913L128.176 234.706L128.945 234.641C129.02 234.634 129.093 234.615 129.161 234.584Z" fill="#455A64"/>
<path d="M130.823 112.704C131.584 112.784 132.286 113.146 132.792 113.72C133.298 114.293 133.57 115.036 133.554 115.8L131.827 157.087C131.761 161.957 122.913 167.719 117.696 167.615C112.432 167.503 113.539 161.891 113.942 157.294C114.17 153.758 114.126 150.21 113.811 146.681C113.811 146.681 107.158 145.574 105.779 136.894C105.094 132.568 105.31 125.484 105.676 119.694C105.752 118.459 106.078 117.253 106.634 116.147C107.189 115.041 107.963 114.059 108.908 113.261C109.853 112.462 110.95 111.863 112.133 111.499C113.316 111.136 114.56 111.016 115.791 111.146L130.823 112.704Z" fill="#FFBE9D"/>
<path d="M107.91 125.287C107.908 125.577 108.019 125.857 108.221 126.066C108.423 126.275 108.699 126.396 108.989 126.403C109.131 126.415 109.273 126.398 109.408 126.353C109.543 126.309 109.667 126.237 109.774 126.144C109.881 126.05 109.968 125.936 110.03 125.808C110.091 125.68 110.127 125.541 110.134 125.399C110.134 125.11 110.024 124.832 109.824 124.623C109.625 124.413 109.353 124.288 109.064 124.273C108.922 124.262 108.778 124.279 108.642 124.324C108.506 124.369 108.38 124.441 108.273 124.536C108.165 124.63 108.078 124.746 108.015 124.875C107.953 125.004 107.917 125.144 107.91 125.287Z" fill="#263238"/>
<path d="M107.169 123.345C107.31 123.495 108.108 122.866 109.356 122.866C110.604 122.866 111.429 123.476 111.561 123.326C111.692 123.176 111.486 122.997 111.101 122.716C110.581 122.361 109.966 122.171 109.337 122.172C108.713 122.171 108.105 122.368 107.601 122.735C107.226 123.016 107.104 123.279 107.169 123.345Z" fill="#263238"/>
<path d="M119.609 125.287C119.607 125.577 119.719 125.857 119.92 126.066C120.122 126.275 120.398 126.396 120.688 126.403C120.83 126.415 120.972 126.398 121.107 126.353C121.242 126.309 121.367 126.237 121.473 126.144C121.58 126.05 121.667 125.936 121.729 125.808C121.791 125.68 121.826 125.541 121.833 125.399C121.834 125.11 121.723 124.832 121.524 124.623C121.324 124.413 121.052 124.288 120.764 124.273C120.621 124.262 120.477 124.279 120.341 124.324C120.205 124.369 120.08 124.441 119.972 124.536C119.864 124.63 119.777 124.746 119.715 124.875C119.652 125.004 119.616 125.144 119.609 125.287Z" fill="#263238"/>
<path d="M118.954 123.57C119.095 123.71 119.893 123.091 121.141 123.091C122.389 123.091 123.214 123.692 123.346 123.551C123.477 123.41 123.271 123.222 122.886 122.941C122.366 122.586 121.751 122.396 121.122 122.397C120.498 122.396 119.891 122.593 119.386 122.96C119.011 123.241 118.889 123.504 118.954 123.57Z" fill="#263238"/>
<path d="M114.612 132.456C113.978 132.26 113.323 132.144 112.66 132.108C112.351 132.108 112.069 132.015 112.013 131.808C111.979 131.481 112.051 131.152 112.219 130.87C112.501 130.129 112.81 129.35 113.158 128.543C113.996 126.566 114.676 124.527 115.194 122.444C114.196 124.347 113.352 126.327 112.67 128.365C112.369 129.181 112.079 129.96 111.806 130.71C111.614 131.08 111.557 131.505 111.647 131.911C111.692 132.019 111.761 132.114 111.849 132.191C111.937 132.267 112.041 132.323 112.154 132.352C112.321 132.401 112.495 132.427 112.67 132.428C113.313 132.522 113.966 132.532 114.612 132.456Z" fill="#263238"/>
<path d="M113.773 146.643C117.865 146.705 121.893 145.63 125.409 143.538C125.409 143.538 122.594 149.505 113.895 148.698L113.773 146.643Z" fill="#AA6550"/>
<path d="M115.115 135.346C115.342 135.058 115.639 134.833 115.977 134.694C116.316 134.554 116.685 134.504 117.048 134.548C117.313 134.571 117.57 134.648 117.804 134.774C118.038 134.9 118.244 135.072 118.409 135.28C118.57 135.479 118.665 135.723 118.682 135.978C118.699 136.234 118.636 136.488 118.503 136.706C118.311 136.922 118.059 137.075 117.78 137.145C117.5 137.215 117.206 137.2 116.936 137.101C116.365 136.894 115.841 136.575 115.397 136.162C115.266 136.062 115.152 135.942 115.059 135.806C115.013 135.74 114.988 135.661 114.988 135.58C114.988 135.5 115.013 135.421 115.059 135.355" fill="#AA6550"/>
<path d="M118.128 133.291C117.94 133.291 117.931 134.576 116.824 135.505C115.716 136.434 114.318 136.284 114.309 136.444C114.299 136.603 114.618 136.697 115.247 136.716C116.009 136.723 116.749 136.464 117.34 135.984C117.91 135.515 118.274 134.841 118.353 134.107C118.362 133.6 118.231 133.244 118.128 133.291Z" fill="#263238"/>
<path d="M118.418 121.468C118.53 121.796 119.731 121.637 121.139 121.815C122.546 121.993 123.682 122.359 123.869 122.068C123.954 121.928 123.757 121.627 123.297 121.308C122.685 120.92 121.991 120.679 121.27 120.604C120.551 120.516 119.821 120.6 119.14 120.848C118.624 121.046 118.361 121.318 118.418 121.468Z" fill="#263238"/>
<path d="M107.609 119.873C107.824 120.145 108.65 119.873 109.645 119.873C110.639 119.873 111.522 120.051 111.672 119.769C111.822 119.488 111.672 119.357 111.249 119.103C110.763 118.784 110.188 118.626 109.607 118.653C109.023 118.661 108.455 118.852 107.984 119.197C107.637 119.46 107.515 119.741 107.609 119.873Z" fill="#263238"/>
<path d="M105.638 119.657C106.886 115.472 107.89 114.196 112.206 112.769C114.336 122.153 122.743 119.019 127.482 119.788C127.977 119.826 128.456 119.981 128.88 120.239C129.612 120.774 129.668 121.834 129.659 122.744C129.57 125.319 129.784 127.895 130.297 130.42C130.822 132.956 132.117 135.27 134.004 137.044C136.875 131.001 137.156 123.983 135.88 117.424C135.364 114.74 134.473 111.934 132.343 110.236C130.729 109.117 128.868 108.409 126.919 108.172C122.171 107.299 114.786 101.059 110.151 102.41C108.774 102.727 107.507 103.404 106.478 104.372C105.449 105.339 104.696 106.563 104.296 107.918C103.269 111.22 103.492 114.783 104.924 117.93L105.638 119.657Z" fill="#263238"/>
<path d="M141.257 245.901C141.043 246.068 140.797 246.189 140.534 246.257C139.841 246.512 139.113 246.661 138.376 246.698C137.145 246.791 135.909 246.613 134.755 246.176C133.6 245.74 132.556 245.056 131.694 244.172C130.833 243.288 130.176 242.226 129.769 241.061C129.362 239.896 129.216 238.655 129.34 237.428C129.398 236.692 129.563 235.968 129.828 235.279C129.912 235.022 130.039 234.781 130.203 234.566C129.946 235.512 129.77 236.479 129.678 237.456C129.603 238.625 129.775 239.797 130.182 240.895C130.589 241.994 131.222 242.994 132.04 243.833C132.858 244.671 133.843 245.329 134.931 245.763C136.019 246.196 137.187 246.397 138.357 246.351C139.336 246.298 140.308 246.147 141.257 245.901Z" fill="#455A64"/>
<path d="M111.664 156.196V150.932C111.664 150.322 111.901 149.737 112.324 149.299C112.748 148.861 113.326 148.605 113.935 148.586L132.242 148.004C132.549 147.994 132.856 148.045 133.144 148.154C133.432 148.262 133.695 148.427 133.92 148.638C134.144 148.849 134.324 149.102 134.45 149.383C134.576 149.664 134.645 149.967 134.653 150.275L134.916 158.823L124.219 168.638L113.822 169.717L112.049 163.956L111.664 156.196Z" fill="#FF725E"/>
<path d="M135.394 156.778C132.703 159.033 130.606 161.913 129.285 165.166L116.796 195.249L107.91 166.405L96.4525 168.685C95.7959 168.815 95.1737 169.081 94.6259 169.466C94.078 169.85 93.6166 170.345 93.2712 170.919C92.9257 171.492 92.7039 172.131 92.62 172.795C92.536 173.459 92.5918 174.134 92.7836 174.775L103.959 212.627C107.197 219.111 116.158 221.579 122.97 219.036L123.908 218.67C127.356 217.058 130.062 214.198 131.481 210.666L141.192 191.731L147.676 176.924C147.808 176.614 147.93 176.304 148.052 175.985C151.12 167.437 145.237 158.251 136.21 156.9L135.45 156.778" fill="#FF725E"/>
<path d="M118.04 201.593C117.655 200.533 117.403 199.43 117.289 198.308C117.046 197.209 116.936 196.084 116.96 194.958" fill="#263238"/>
<path d="M95.9443 168.807C95.9443 168.807 95.569 168.891 94.9216 169.201C94.4602 169.441 94.0511 169.771 93.7177 170.17C93.3843 170.57 93.1333 171.031 92.9792 171.528C92.7384 172.24 92.6489 172.994 92.7165 173.743C92.8476 174.632 93.0677 175.506 93.3733 176.351C93.9363 178.228 94.5744 180.358 95.25 182.704C96.6575 187.395 98.3277 193.025 100.186 199.256L103.104 209.033C104.196 212.493 106.412 215.488 109.4 217.544C112.391 219.608 116.047 220.475 119.647 219.974C122.994 219.463 126.017 217.686 128.092 215.011C129.001 213.73 129.792 212.371 130.456 210.948C131.16 209.578 131.855 208.255 132.521 206.969C133.863 204.407 135.111 202.024 136.274 199.838L141.688 189.544L143.19 186.729L143.584 186.007C143.678 185.847 143.734 185.763 143.743 185.772L143.631 186.025C143.537 186.222 143.424 186.466 143.274 186.767C142.936 187.452 142.458 188.399 141.857 189.582C140.6 192.068 138.798 195.606 136.574 199.96L132.905 207.119L130.851 211.126C130.188 212.577 129.39 213.963 128.467 215.264C126.331 218.041 123.211 219.891 119.75 220.434C116.032 220.959 112.253 220.064 109.166 217.929C106.086 215.81 103.803 212.722 102.682 209.155C101.681 205.759 100.717 202.496 99.7915 199.369L94.9497 182.788C94.2647 180.433 93.6548 178.293 93.073 176.407C92.7691 175.544 92.5584 174.651 92.4443 173.743C92.3875 172.965 92.4963 172.185 92.7634 171.453C92.9309 170.939 93.2022 170.464 93.5605 170.059C93.9188 169.654 94.3565 169.327 94.8465 169.098C95.1938 168.941 95.5648 168.842 95.9443 168.807Z" fill="#263238"/>
<path d="M107.91 166.405C108.009 166.575 108.085 166.758 108.135 166.949C108.285 167.362 108.464 167.887 108.689 168.544C109.177 169.999 109.834 171.997 110.65 174.446L116.918 193.964C117.021 194.273 117.125 194.592 117.209 194.902H116.759L124.406 176.576C125.391 174.296 126.189 172.429 126.771 171.078C127.033 170.468 127.259 169.98 127.428 169.595C127.497 169.418 127.585 169.248 127.69 169.088C127.65 169.274 127.593 169.456 127.521 169.633L126.94 171.153L124.725 176.708C122.783 181.446 120.146 187.902 117.218 195.09L116.965 195.709L116.759 195.071C116.665 194.78 116.562 194.461 116.468 194.133C114.075 186.523 111.917 179.635 110.322 174.568C109.571 172.1 108.961 170.092 108.52 168.629C108.323 167.962 108.173 167.428 108.051 167.005C107.979 166.812 107.932 166.61 107.91 166.405Z" fill="#263238"/>
<path d="M140.002 159.517C140.002 159.602 139.223 159.517 138.003 159.649C136.418 159.81 134.889 160.32 133.524 161.143C132.16 161.965 130.994 163.08 130.112 164.406C129.427 165.429 129.174 166.152 129.07 166.114C129.174 165.439 129.431 164.798 129.821 164.237C130.657 162.798 131.843 161.592 133.268 160.731C134.693 159.87 136.312 159.382 137.975 159.311C138.658 159.234 139.349 159.304 140.002 159.517Z" fill="#263238"/>
<path d="M115.219 156.299C115.034 155.012 115.009 153.707 115.144 152.414C115.128 151.11 115.27 149.809 115.567 148.539C115.751 149.829 115.773 151.137 115.632 152.433C115.654 153.734 115.515 155.032 115.219 156.299Z" fill="#263238"/>
<path d="M120.105 155.83C119.757 154.64 119.614 153.399 119.683 152.161C119.586 150.926 119.694 149.683 120.002 148.483C120.181 149.697 120.237 150.926 120.171 152.152C120.261 153.377 120.239 154.608 120.105 155.83Z" fill="#263238"/>
<path d="M124.97 155.764C124.659 154.539 124.548 153.271 124.641 152.011C124.564 150.747 124.694 149.479 125.026 148.257C125.192 149.501 125.227 150.759 125.129 152.011C125.204 153.264 125.15 154.522 124.97 155.764Z" fill="#263238"/>
<path d="M130.13 155.52C129.884 154.31 129.799 153.074 129.876 151.842C129.793 150.614 129.869 149.381 130.101 148.173C130.35 149.379 130.438 150.613 130.364 151.842C130.443 153.073 130.364 154.309 130.13 155.52Z" fill="#263238"/>
<path d="M76.4546 196.272C75.8757 194.624 75.6598 192.87 75.8217 191.131C75.9837 189.391 76.5197 187.707 77.3929 186.194C76.9078 187.827 76.5409 189.492 76.2951 191.177C76.2266 192.877 76.2799 194.58 76.4546 196.272Z" fill="#263238"/>
<path d="M106.466 166.893C106.466 166.893 105.819 159.705 105.34 155.999C104.862 152.292 102.591 152.724 102.385 150.716C102.178 148.708 101.259 148.839 101.259 148.839C100.161 148.445 100.414 151.429 100.414 151.429C100.414 151.429 91.5656 149.289 90.8994 149.017C90.6993 148.961 90.4876 148.962 90.2879 149.019C90.0883 149.077 89.9086 149.189 89.7692 149.343C89.6298 149.497 89.5361 149.687 89.4987 149.891C89.4613 150.096 89.4817 150.307 89.5575 150.5C89.6983 150.847 94.6339 152.911 94.6339 152.911C94.6339 152.911 90.5803 156.815 90.4959 158.466C90.4114 160.118 95.835 163.956 95.835 163.956L95.9476 168.844L106.466 166.893Z" fill="#FFBE9D"/>
<path d="M98.6202 155.041C98.5545 155.041 98.4419 154.844 98.0853 154.685C97.7288 154.525 97.147 154.328 96.5652 154.066C95.3735 153.54 94.454 153.015 94.5103 152.883C95.3023 152.974 96.068 153.223 96.7623 153.615C97.2894 153.826 97.7953 154.087 98.273 154.394C98.6671 154.676 98.6953 155.041 98.6202 155.041Z" fill="#AA6550"/>
<path d="M96.5447 157.059C96.4508 157.162 95.6908 156.562 94.668 155.942C93.6452 155.323 92.8945 154.826 92.8945 154.732C93.6439 154.786 94.3598 155.064 94.9495 155.53C96.0004 156.186 96.6479 156.965 96.5447 157.059Z" fill="#AA6550"/>
<path d="M95.1969 158.626C94.4694 158.53 93.7715 158.277 93.1513 157.885C92.0816 157.35 91.2746 156.815 91.3309 156.693C92.0582 156.796 92.7554 157.052 93.3765 157.444C94.4462 157.979 95.2625 158.504 95.1969 158.626Z" fill="#AA6550"/>
<path d="M106.462 166.686C106.256 165.817 106.124 164.932 106.068 164.04C105.871 162.408 105.646 160.137 105.214 157.669C105.027 156.518 104.712 155.391 104.276 154.31C104.102 153.862 103.806 153.472 103.422 153.184C103.065 152.926 102.692 152.69 102.306 152.48C100.851 151.748 99.8658 151.429 99.9034 151.345C99.9409 151.26 100.166 151.345 100.607 151.495C101.248 151.674 101.876 151.899 102.484 152.17C102.903 152.364 103.305 152.593 103.685 152.855C104.139 153.174 104.496 153.613 104.717 154.122C105.17 155.234 105.485 156.396 105.655 157.584C106.013 159.712 106.254 161.858 106.378 164.012C106.489 164.899 106.517 165.794 106.462 166.686Z" fill="#FFBE9D"/>
<path d="M139.407 138.217C139.437 138.007 139.493 137.802 139.576 137.607L140.12 135.881C140.827 133.782 141.329 131.62 141.622 129.425C141.81 127.915 141.787 126.387 141.556 124.883C141.275 123.168 140.635 121.531 139.679 120.079C138.659 118.458 137.136 117.216 135.344 116.542C133.467 115.875 131.366 115.932 129.217 115.819C127.052 115.844 124.94 115.158 123.202 113.867C122.425 113.175 121.859 112.277 121.569 111.278C121.26 110.339 121.072 109.401 120.734 108.556C120.415 107.767 119.905 107.069 119.25 106.525C118.595 105.982 117.815 105.609 116.981 105.441C115.514 105.081 113.976 105.126 112.533 105.572C111.336 105.903 110.279 106.615 109.521 107.599C108.974 108.363 108.7 109.288 108.742 110.227C108.754 110.823 108.922 111.405 109.23 111.916C109.446 112.263 109.605 112.413 109.587 112.432C109.414 112.306 109.264 112.15 109.146 111.972C108.793 111.461 108.586 110.865 108.545 110.245C108.465 109.249 108.73 108.255 109.296 107.43C110.07 106.371 111.171 105.596 112.43 105.225C113.946 104.728 115.569 104.66 117.122 105.028C117.986 105.227 118.8 105.601 119.514 106.126C120.27 106.705 120.851 107.481 121.194 108.369C121.551 109.307 121.748 110.245 122.048 111.109C122.317 112.029 122.841 112.856 123.559 113.492C125.218 114.704 127.227 115.343 129.282 115.312C131.394 115.434 133.561 115.369 135.541 116.072C137.429 116.79 139.028 118.109 140.092 119.826C141.061 121.34 141.7 123.041 141.969 124.818C142.18 126.359 142.18 127.921 141.969 129.462C141.641 131.673 141.081 133.843 140.299 135.937C140.036 136.678 139.82 137.251 139.66 137.635C139.598 137.838 139.513 138.033 139.407 138.217Z" fill="#455A64"/>
<path d="M133.695 147.188C134.628 146.043 135.407 144.781 136.012 143.434C136.616 141.987 136.95 140.442 136.998 138.874C137.059 136.925 136.637 134.99 135.768 133.244C135.309 132.306 134.783 131.433 134.37 130.513C133.97 129.617 133.695 128.67 133.554 127.698C133.448 126.11 133.1 124.547 132.522 123.063C132.081 122.098 131.313 121.321 130.354 120.867C129.987 120.736 129.606 120.644 129.219 120.595C129.219 120.595 129.322 120.595 129.528 120.548C129.847 120.537 130.165 120.585 130.467 120.689C131.519 121.099 132.38 121.89 132.878 122.904C133.514 124.396 133.91 125.979 134.051 127.595C134.193 128.517 134.464 129.414 134.858 130.26C135.262 131.142 135.796 132.015 136.256 132.972C137.155 134.778 137.581 136.783 137.495 138.799C137.429 140.435 137.05 142.044 136.378 143.538C135.923 144.574 135.309 145.534 134.558 146.381C134.368 146.606 134.161 146.816 133.939 147.009C133.788 147.131 133.704 147.197 133.695 147.188Z" fill="#455A64"/>
<path d="M126.459 170.515C125.706 170.944 124.91 171.293 124.085 171.556C122.134 172.331 120.1 172.876 118.023 173.18C115.918 173.472 113.773 173.263 111.764 172.57C111.16 172.355 110.581 172.075 110.038 171.734C109.662 171.481 109.475 171.312 109.493 171.293C109.512 171.275 110.366 171.781 111.867 172.232C113.845 172.801 115.919 172.951 117.957 172.673C120.003 172.375 122.016 171.888 123.972 171.218C124.778 170.91 125.61 170.675 126.459 170.515Z" fill="#FAFAFA"/>
<path d="M146.991 177.102C146.488 175.239 145.479 173.552 144.077 172.227C142.674 170.902 140.932 169.991 139.043 169.595C136.377 168.982 133.63 168.805 130.908 169.07C129.774 169.201 128.634 169.267 127.492 169.267C127.795 169.16 128.11 169.094 128.431 169.07C129.012 168.967 129.866 168.845 130.917 168.732C133.683 168.354 136.495 168.488 139.212 169.126C141.963 169.827 144.358 171.517 145.94 173.874C146.384 174.593 146.702 175.384 146.878 176.211C146.967 176.499 147.005 176.801 146.991 177.102Z" fill="#FAFAFA"/>
<path d="M136.471 198.609C136.377 198.609 136.067 197.464 135.195 195.747C134.688 194.741 134.091 193.783 133.412 192.885C132.573 191.792 131.631 190.783 130.597 189.873C129.547 188.984 128.416 188.196 127.219 187.517C126.234 186.974 125.204 186.516 124.141 186.147C122.311 185.538 121.11 185.387 121.129 185.294C121.41 185.258 121.693 185.258 121.974 185.294C122.305 185.327 122.634 185.381 122.959 185.453C123.393 185.534 123.823 185.64 124.244 185.772C125.35 186.097 126.419 186.534 127.435 187.076C129.94 188.399 132.107 190.281 133.769 192.575C134.445 193.506 135.026 194.503 135.504 195.55C135.691 195.95 135.854 196.36 135.992 196.779C136.118 197.083 136.219 197.397 136.293 197.717C136.397 198.003 136.457 198.304 136.471 198.609Z" fill="#FAFAFA"/>
<path d="M121.562 219.318C121.478 219.318 121.881 217.882 122.181 215.564C122.357 214.198 122.442 212.822 122.435 211.445C122.409 209.766 122.259 208.091 121.984 206.434C121.69 204.778 121.27 203.147 120.727 201.555C120.27 200.255 119.731 198.986 119.113 197.755C118.043 195.653 117.189 194.461 117.236 194.405C117.484 194.649 117.704 194.92 117.893 195.212C118.446 195.97 118.945 196.766 119.385 197.595C120.06 198.799 120.64 200.054 121.121 201.348C121.695 202.961 122.138 204.618 122.444 206.303C122.722 207.993 122.86 209.704 122.857 211.417C122.844 212.813 122.725 214.205 122.5 215.583C122.357 216.513 122.15 217.431 121.881 218.332C121.822 218.674 121.714 219.006 121.562 219.318Z" fill="#FAFAFA"/>
<path d="M100.402 197.727C100.402 197.642 101.406 197.576 102.973 197.182C107.096 196.139 110.711 193.656 113.164 190.182C114.102 188.859 114.515 187.94 114.59 187.977C114.665 188.015 114.543 188.231 114.365 188.653C114.103 189.255 113.789 189.833 113.426 190.379C112.256 192.2 110.735 193.769 108.951 194.995C107.168 196.221 105.158 197.08 103.039 197.52C102.4 197.657 101.75 197.735 101.097 197.755C100.865 197.78 100.631 197.77 100.402 197.727Z" fill="#FAFAFA"/>
<path d="M110.959 176.576C110.959 176.576 110.828 176.792 110.509 177.111C110.04 177.543 109.531 177.93 108.989 178.265C107.173 179.342 105.142 180.002 103.04 180.198C100.956 180.389 98.8565 180.348 96.7812 180.076C95.9203 180.02 95.0679 179.872 94.2383 179.635C95.0995 179.596 95.9626 179.627 96.8187 179.729C98.8698 179.908 100.933 179.908 102.984 179.729C105.024 179.533 107.007 178.94 108.82 177.984C110.199 177.214 110.903 176.511 110.959 176.576Z" fill="#FAFAFA"/>
<path d="M133.772 157.641C133.482 157.843 133.167 158.004 132.833 158.119C132.223 158.401 131.341 158.786 130.234 159.217C127.356 160.423 124.301 161.152 121.189 161.375C118.032 161.571 114.895 160.752 112.237 159.039C111.455 158.514 110.751 157.882 110.144 157.162C109.907 156.906 109.711 156.615 109.562 156.299C110.42 157.236 111.384 158.071 112.434 158.786C115.064 160.362 118.109 161.108 121.17 160.925C124.234 160.694 127.248 160.024 130.121 158.936L132.758 157.997C133.082 157.842 133.422 157.722 133.772 157.641Z" fill="#FAFAFA"/>
<path d="M94.0151 198.318C93.9307 198.318 93.6679 197.182 93.0205 195.4C92.175 193.08 91.0467 190.874 89.6612 188.831C88.2638 186.799 86.6184 184.948 84.7631 183.323C83.3368 182.075 82.361 181.446 82.4079 181.343C82.6711 181.435 82.9181 181.568 83.1398 181.737C83.794 182.136 84.4209 182.578 85.0165 183.06C88.937 186.221 91.844 190.462 93.377 195.259C93.6074 195.982 93.7953 196.719 93.9401 197.464C94.0038 197.744 94.0291 198.031 94.0151 198.318Z" fill="#FAFAFA"/>
<path d="M79.1944 209.052C79.1694 207.962 79.2102 206.872 79.3164 205.787C79.4196 203.769 79.5041 200.992 79.4008 197.914C79.2976 194.836 79.0349 192.078 78.8003 190.07C78.6297 188.994 78.5138 187.91 78.4531 186.823C78.5808 187.089 78.6633 187.374 78.6971 187.667C78.8285 188.221 78.9786 189.028 79.1475 190.023C79.5541 192.633 79.8017 195.265 79.8888 197.905C79.9809 200.54 79.9057 203.179 79.6636 205.806C79.5697 206.819 79.4665 207.635 79.3821 208.189C79.3549 208.483 79.2919 208.773 79.1944 209.052Z" fill="#FAFAFA"/>
<path d="M76.6515 183.304C76.1699 183.977 75.5948 184.577 74.9437 185.087C73.4353 186.394 71.7559 187.489 69.9518 188.343C68.1629 189.192 66.2699 189.801 64.3217 190.154C63.5162 190.339 62.688 190.405 61.8633 190.351C64.5868 189.835 67.2435 189.014 69.7829 187.902C72.2369 186.631 74.5408 185.088 76.6515 183.304Z" fill="#FAFAFA"/>
<path d="M74.5706 171.594C74.0151 172.085 73.3806 172.478 72.6939 172.757C69.4826 174.288 65.8658 174.752 62.3722 174.08C61.644 173.983 60.9388 173.757 60.2891 173.414C62.6931 173.88 65.1513 174 67.5893 173.771C70.008 173.38 72.3586 172.647 74.5706 171.594Z" fill="#FAFAFA"/>
<path d="M71.4184 156.28C70.9109 156.689 70.3362 157.006 69.7201 157.219C68.2731 157.804 66.7502 158.179 65.1973 158.335C63.6323 158.493 62.0529 158.43 60.5056 158.148C59.8546 158.064 59.2211 157.877 58.6289 157.594C60.7672 157.891 62.9297 157.976 65.0847 157.847C67.2439 157.543 69.3663 157.018 71.4184 156.28Z" fill="#FAFAFA"/>
<path d="M143.612 214.429C143.612 214.429 142.983 214.429 141.866 214.504C140.296 214.632 138.746 214.947 137.25 215.442C135.03 216.208 132.874 217.15 130.803 218.257C128.252 219.627 125.605 220.813 122.884 221.804C120.107 222.705 117.183 223.068 114.27 222.874C111.898 222.718 109.564 222.206 107.345 221.354C105.849 220.792 104.426 220.055 103.104 219.158C102.625 218.858 102.287 218.567 102.053 218.398C101.928 218.313 101.814 218.212 101.715 218.098C103.525 219.273 105.453 220.258 107.467 221.035C109.665 221.823 111.966 222.291 114.298 222.424C117.157 222.599 120.022 222.23 122.743 221.335C125.441 220.356 128.068 219.193 130.606 217.854C132.714 216.766 134.912 215.862 137.175 215.151C138.696 214.68 140.274 214.415 141.866 214.363C142.297 214.33 142.73 214.33 143.161 214.363C143.314 214.359 143.466 214.381 143.612 214.429Z" fill="#FAFAFA"/>
<path d="M144.289 201.161C142.762 201.913 141.129 202.426 139.447 202.681C137.797 203.087 136.093 203.233 134.398 203.113C134.398 202.972 136.632 202.737 139.353 202.174C142.074 201.611 144.242 201.02 144.289 201.161Z" fill="#FAFAFA"/>
<path d="M145.902 225.398C145.758 225.483 145.603 225.549 145.442 225.595L144.11 226.064C142.946 226.468 141.239 227.003 139.118 227.566C128.04 230.586 116.568 231.902 105.094 231.469C102.898 231.385 101.125 231.263 99.8954 231.131L98.4879 230.981C98.3221 230.976 98.1579 230.948 98 230.897C98.165 230.875 98.3323 230.875 98.4973 230.897L99.9142 230.953C101.134 231.028 102.907 231.094 105.103 231.131C110.817 231.243 116.531 230.976 122.209 230.334C127.881 229.672 133.505 228.64 139.043 227.247C141.164 226.702 142.881 226.233 144.063 225.896L145.424 225.511C145.58 225.461 145.74 225.423 145.902 225.398Z" fill="#FAFAFA"/>
<g opacity="0.3">
<path opacity="0.3" d="M119.443 220.218C121.99 221.267 124.711 221.831 127.466 221.879C130.238 221.918 132.934 220.974 135.076 219.214C137.59 216.991 138.716 213.584 139.617 210.394C141.366 203.23 142.276 195.886 142.329 188.512C142.329 188.512 136.877 199.772 134.926 203.234C133.19 206.284 131.407 209.399 129.296 213.838C127.607 217.432 123.562 219.89 119.434 220.218" fill="black"/>
</g>
<g opacity="0.3">
<path opacity="0.3" d="M92.2872 172.898C90.4361 177.12 89.4999 181.685 89.5403 186.295C89.5808 190.904 90.5969 195.452 92.5218 199.641L98.5272 194.236L92.2872 172.898Z" fill="black"/>
</g>
<path d="M301.805 377.052L178.386 376.977C171.257 376.972 164.421 374.137 159.382 369.094C154.342 364.051 151.512 357.214 151.512 350.084L151.577 40.6676C151.577 37.1364 152.273 33.6398 153.625 30.3776C154.976 27.1153 156.957 24.1513 159.455 21.6548C161.952 19.1583 164.917 17.1783 168.179 15.8279C171.442 14.4774 174.939 13.7829 178.47 13.7842L301.899 13.8592C309.027 13.8642 315.862 16.7001 320.9 21.7432C325.938 26.7863 328.766 33.6237 328.764 40.752L328.707 350.169C328.706 353.7 328.009 357.197 326.657 360.46C325.304 363.722 323.322 366.686 320.824 369.182C318.326 371.679 315.361 373.658 312.097 375.009C308.834 376.359 305.337 377.053 301.805 377.052Z" fill="#263238"/>
<path d="M301.77 24.8002H277.842C276.266 24.8347 274.768 25.4934 273.677 26.6318C272.586 27.7701 271.992 29.295 272.025 30.8712V35.2064C272.042 35.9864 271.906 36.7623 271.623 37.4896C271.341 38.2169 270.918 38.8815 270.378 39.4452C269.839 40.009 269.194 40.461 268.479 40.7754C267.765 41.0898 266.996 41.2603 266.216 41.2774L219.571 41.2868C217.997 41.2499 216.501 40.59 215.412 39.4519C214.323 38.3139 213.73 36.7904 213.763 35.2157V30.8243C213.798 29.248 213.206 27.7222 212.117 26.5821C211.028 25.4419 209.531 24.7808 207.955 24.7439H199.51H178.566C176.092 24.7427 173.642 25.2289 171.356 26.1747C169.07 27.1206 166.993 28.5076 165.243 30.2565C163.494 32.0053 162.106 34.0818 161.159 36.3673C160.212 38.6528 159.724 41.1024 159.724 43.5763L159.668 345.59C159.667 348.062 160.152 350.509 161.097 352.794C162.042 355.078 163.427 357.154 165.174 358.902C166.921 360.651 168.996 362.039 171.279 362.986C173.562 363.933 176.01 364.421 178.482 364.422L301.657 364.497C306.651 364.497 311.441 362.515 314.974 358.985C318.507 355.456 320.494 350.668 320.499 345.674L320.555 43.6514C320.563 38.6608 318.588 33.8716 315.065 30.3366C311.543 26.8015 306.76 24.8101 301.77 24.8002Z" fill="white"/>
<path d="M305.41 55.2964C305.41 55.3809 302.295 55.4747 298.457 55.5029C294.619 55.531 291.504 55.5029 291.504 55.409C291.504 55.3152 294.619 55.2401 298.457 55.212C302.295 55.1838 305.41 55.2214 305.41 55.2964Z" fill="#263238"/>
<path d="M305.437 58.8523C305.437 58.9368 302.322 59.0306 298.484 59.0588C294.647 59.0869 291.531 59.0588 291.531 58.9743C291.531 58.8899 294.647 58.796 298.484 58.7679C302.322 58.7397 305.437 58.7773 305.437 58.8523Z" fill="#263238"/>
<path d="M305.465 62.4087C305.465 62.4932 302.349 62.587 298.512 62.6152C294.674 62.6433 291.559 62.6152 291.559 62.5307C291.559 62.4463 294.674 62.3524 298.512 62.3243C302.349 62.2961 305.465 62.3337 305.465 62.4087Z" fill="#263238"/>
<path d="M178.969 66.4718H179.25H180.057L183.022 66.4061L182.947 66.4812C182.947 65.8243 182.947 65.1112 182.947 64.3324C182.947 63.9289 182.947 63.5535 182.947 63.0938C182.991 62.8498 183.112 62.6264 183.293 62.4572C183.474 62.288 183.705 62.1821 183.951 62.1554C184.43 62.1554 184.843 62.1554 185.368 62.1554C185.635 62.2043 185.875 62.3461 186.047 62.5558C186.219 62.7654 186.311 63.0292 186.307 63.3002C186.307 64.3042 186.307 65.3552 186.307 66.4342L186.175 66.3029H189.929L189.778 66.4436C189.778 64.9423 189.778 63.3753 189.778 61.7519C189.778 61.3578 189.778 60.9637 189.778 60.5696C189.768 60.3835 189.716 60.2021 189.625 60.0394C189.534 59.8768 189.406 59.7371 189.253 59.6313L187.611 58.0173L186.034 56.4597L185.274 55.709C185.002 55.4557 184.796 55.1929 184.496 55.1273C184.348 55.0887 184.194 55.0839 184.045 55.1132C183.895 55.1424 183.754 55.205 183.632 55.2962C183.407 55.4838 183.163 55.756 182.938 55.9812L181.596 57.3324C180.752 58.2144 179.87 59.012 179.231 59.772C179.042 60.2121 178.977 60.6957 179.044 61.1702C179.044 61.63 179.044 62.1085 179.044 62.4838C179.044 63.3002 179.044 64.0039 179.044 64.6139C179.044 65.2238 179.044 65.6085 179.044 65.9745C179.044 66.3404 179.044 66.453 179.044 66.4624C179.031 66.3125 179.031 66.1618 179.044 66.012C179.044 65.646 179.044 65.205 179.044 64.6702C179.044 64.1353 179.044 63.3471 179.044 62.5308C179.044 62.1085 179.044 61.6581 179.044 61.1889C179.044 60.945 179.044 60.701 179.044 60.4476C179.043 60.1744 179.114 59.9058 179.25 59.6688C179.945 58.8149 180.77 58.0643 181.615 57.1635L182.957 55.7935C183.191 55.5589 183.388 55.3243 183.679 55.0803C183.832 54.9667 184.008 54.8885 184.194 54.8511C184.381 54.8138 184.574 54.8184 184.758 54.8645C185.127 54.9856 185.453 55.2104 185.697 55.512L186.466 56.2627L188.052 57.8109L189.694 59.4249C189.846 59.5616 189.984 59.7124 190.107 59.8753C190.228 60.0667 190.296 60.2869 190.304 60.5133C190.304 60.9074 190.304 61.3015 190.304 61.705C190.304 63.3002 190.304 64.8578 190.304 66.3967V66.5468H190.163H186.41H186.269V66.4155C186.269 65.327 186.269 64.2761 186.269 63.272C186.273 63.0525 186.201 62.8384 186.064 62.6669C185.926 62.4955 185.733 62.3776 185.518 62.3337C185.087 62.3337 184.58 62.3337 184.158 62.3337C183.965 62.356 183.784 62.4374 183.639 62.5668C183.495 62.6962 183.394 62.8672 183.351 63.0562C183.351 63.4409 183.351 63.8726 183.351 64.2573V66.4905H183.276H180.254H179.222C179.137 66.4943 179.052 66.488 178.969 66.4718Z" fill="#263238"/>
<path d="M294.608 85.2668H183.443C177.883 85.2668 173.375 89.7746 173.375 95.3352V99.0792C173.375 104.64 177.883 109.148 183.443 109.148H294.608C300.169 109.148 304.677 104.64 304.677 99.0792V95.3352C304.677 89.7746 300.169 85.2668 294.608 85.2668Z" fill="#F5F5F5"/>
<path d="M294.637 109.157L295.387 109.091C296.123 109.025 296.849 108.884 297.555 108.669C298.695 108.304 299.763 107.742 300.708 107.008C302.002 106.023 303.033 104.733 303.711 103.255C304.116 102.362 304.382 101.413 304.499 100.44C304.593 99.3695 304.624 98.2948 304.593 97.2211C304.632 96.052 304.578 94.8817 304.433 93.7211C304.226 92.4817 303.784 91.2935 303.129 90.2211C302.408 89.0329 301.446 88.009 300.305 87.2155C299.164 86.422 297.869 85.8763 296.504 85.6139C294.988 85.4334 293.46 85.3769 291.934 85.4449H287.083L183.481 85.5106C181.017 85.518 178.645 86.4477 176.832 88.1166C175.019 89.7856 173.896 92.0728 173.685 94.5281C173.61 95.7104 173.685 96.9677 173.685 98.1876C173.624 99.3822 173.751 100.579 174.06 101.734C174.701 104.018 176.144 105.993 178.123 107.299C179.091 107.944 180.169 108.405 181.304 108.659C182.441 108.881 183.6 108.966 184.757 108.913H205.176H251.755L283.161 108.997H291.69H293.914H294.674H293.914H291.69L283.161 109.044L251.755 109.119L205.176 109.176H184.692C183.5 109.229 182.306 109.138 181.135 108.903C179.944 108.64 178.812 108.16 177.795 107.487C175.719 106.115 174.204 104.044 173.526 101.65C173.204 100.452 173.071 99.2109 173.131 97.9718C173.131 96.7425 173.131 95.5415 173.178 94.2653C173.395 91.6882 174.571 89.2862 176.473 87.5346C178.376 85.783 180.867 84.8096 183.453 84.8069L287.055 84.882H291.906C293.451 84.8148 294.999 84.8807 296.532 85.079C298.579 85.4783 300.455 86.4943 301.907 87.9904C303.36 89.4866 304.32 91.3914 304.658 93.449C304.799 94.6226 304.842 95.8057 304.79 96.9865C304.824 98.07 304.786 99.1546 304.677 100.233C304.547 101.208 304.268 102.157 303.851 103.048C303.163 104.562 302.104 105.879 300.774 106.877C299.806 107.609 298.716 108.165 297.555 108.519C296.84 108.727 296.103 108.853 295.359 108.894L294.637 109.157Z" fill="#263238"/>
<path d="M296.636 96.6487C296.589 96.6487 296.589 96.264 296.402 95.6165C296.142 94.7063 295.583 93.9098 294.816 93.3551C294.206 92.8959 293.479 92.6159 292.719 92.5464C291.958 92.477 291.193 92.6208 290.51 92.9619C289.826 93.3029 289.252 93.8277 288.85 94.4773C288.448 95.1268 288.235 95.8755 288.235 96.6393C288.235 97.4031 288.448 98.1518 288.85 98.8014C289.252 99.4509 289.826 99.9757 290.51 100.317C291.193 100.658 291.958 100.802 292.719 100.732C293.479 100.663 294.206 100.383 294.816 99.9235C295.584 99.3654 296.142 98.5658 296.402 97.6527C296.589 97.0053 296.589 96.6205 296.636 96.6205C296.655 96.7135 296.655 96.8091 296.636 96.9021C296.647 97.1701 296.622 97.4383 296.561 97.6996C296.357 98.6908 295.804 99.5761 295.004 100.196C294.408 100.664 293.703 100.975 292.955 101.098C292.207 101.221 291.44 101.152 290.725 100.899C289.845 100.583 289.084 100.003 288.546 99.2379C288.007 98.473 287.719 97.5605 287.719 96.6252C287.719 95.69 288.007 94.7775 288.546 94.0125C289.084 93.2475 289.845 92.6673 290.725 92.3511C291.439 92.0967 292.205 92.027 292.954 92.1484C293.702 92.2698 294.407 92.5784 295.004 93.0455C295.797 93.671 296.348 94.5536 296.561 95.5415C296.622 95.806 296.647 96.0773 296.636 96.3484C296.658 96.4473 296.658 96.5498 296.636 96.6487Z" fill="#263238"/>
<path d="M299.008 104.099C298.202 103.58 297.488 102.93 296.897 102.176C296.189 101.52 295.593 100.753 295.133 99.9048C295.941 100.428 296.658 101.081 297.253 101.838C297.96 102.489 298.553 103.253 299.008 104.099Z" fill="#263238"/>
<path d="M207.651 128.806H178.91V157.547H207.651V128.806Z" fill="#FF725E"/>
<path d="M262.941 131.902C262.941 132.034 253.332 132.146 241.481 132.146C229.63 132.146 220.012 132.034 220.012 131.902C220.012 131.771 229.62 131.658 241.481 131.658C253.341 131.658 262.941 131.761 262.941 131.902Z" fill="#FF725E"/>
<path d="M297.171 140.751C297.171 140.891 279.896 140.995 258.596 140.995C237.296 140.995 220.012 140.891 220.012 140.751C220.012 140.61 237.287 140.507 258.596 140.507C279.906 140.507 297.171 140.572 297.171 140.751Z" fill="#263238"/>
<path d="M296.261 147C296.261 147.131 279.193 147.244 258.136 147.244C237.08 147.244 220.012 147.131 220.012 147C220.012 146.869 237.08 146.756 258.136 146.756C279.193 146.756 296.261 146.869 296.261 147Z" fill="#263238"/>
<path d="M265.032 153.005C265.032 153.137 254.955 153.249 242.512 153.249C230.07 153.249 219.992 153.137 219.992 153.005C219.992 152.874 230.07 152.761 242.512 152.761C254.955 152.761 265.032 152.865 265.032 153.005Z" fill="#263238"/>
<path d="M207.651 176.689H178.91V205.43H207.651V176.689Z" fill="#FF725E"/>
<path d="M262.941 179.776C262.941 179.917 253.332 180.02 241.481 180.02C229.63 180.02 220.012 179.917 220.012 179.776C220.012 179.635 229.62 179.532 241.481 179.532C253.341 179.532 262.941 179.645 262.941 179.776Z" fill="#FF725E"/>
<path d="M297.171 188.606C297.171 188.747 279.896 188.85 258.596 188.85C237.296 188.85 220.012 188.747 220.012 188.606C220.012 188.465 237.287 188.362 258.596 188.362C279.906 188.362 297.171 188.456 297.171 188.606Z" fill="#263238"/>
<path d="M296.261 194.883C296.261 195.015 279.193 195.127 258.136 195.127C237.08 195.127 220.012 195.015 220.012 194.883C220.012 194.752 237.08 194.639 258.136 194.639C279.193 194.639 296.261 194.743 296.261 194.883Z" fill="#263238"/>
<path d="M265.032 200.879C265.032 201.02 254.955 201.123 242.512 201.123C230.07 201.123 219.992 201.02 219.992 200.879C219.992 200.739 230.07 200.635 242.512 200.635C254.955 200.635 265.032 200.748 265.032 200.879Z" fill="#263238"/>
<path d="M207.651 224.572H178.91V253.314H207.651V224.572Z" fill="#FF725E"/>
<path d="M262.941 227.66C262.941 227.8 253.332 227.903 241.481 227.903C229.63 227.903 220.012 227.8 220.012 227.66C220.012 227.519 229.62 227.416 241.481 227.416C253.341 227.416 262.941 227.528 262.941 227.66Z" fill="#FF725E"/>
<path d="M297.171 236.461C297.171 236.592 279.896 236.705 258.596 236.705C237.296 236.705 220.012 236.592 220.012 236.461C220.012 236.33 237.287 236.217 258.596 236.217C279.906 236.217 297.171 236.339 297.171 236.461Z" fill="#263238"/>
<path d="M296.261 242.767C296.261 242.898 279.193 243.011 258.136 243.011C237.08 243.011 220.012 242.898 220.012 242.767C220.012 242.635 237.08 242.513 258.136 242.513C279.193 242.513 296.261 242.626 296.261 242.767Z" fill="#263238"/>
<path d="M265.032 248.763C265.032 248.903 254.955 249.007 242.512 249.007C230.07 249.007 219.992 248.903 219.992 248.763C219.992 248.622 230.07 248.519 242.512 248.519C254.955 248.519 265.032 248.66 265.032 248.763Z" fill="#263238"/>
<path d="M207.651 272.446H178.91V301.188H207.651V272.446Z" fill="#FF725E"/>
<path d="M262.941 275.543C262.941 275.674 253.332 275.787 241.481 275.787C229.63 275.787 220.012 275.674 220.012 275.543C220.012 275.411 229.62 275.299 241.481 275.299C253.341 275.299 262.941 275.411 262.941 275.543Z" fill="#455A64"/>
<path d="M297.171 284.316C297.171 284.448 279.896 284.56 258.596 284.56C237.296 284.56 220.012 284.448 220.012 284.316C220.012 284.185 237.287 284.072 258.596 284.072C279.906 284.072 297.171 284.213 297.171 284.316Z" fill="#263238"/>
<path d="M296.261 290.641C296.261 290.781 279.193 290.885 258.136 290.885C237.08 290.885 220.012 290.781 220.012 290.641C220.012 290.5 237.08 290.397 258.136 290.397C279.193 290.397 296.261 290.509 296.261 290.641Z" fill="#263238"/>
<path d="M265.032 296.646C265.032 296.777 254.955 296.89 242.512 296.89C230.07 296.89 219.992 296.777 219.992 296.646C219.992 296.515 230.07 296.402 242.512 296.402C254.955 296.402 265.032 296.515 265.032 296.646Z" fill="#263238"/>
<path d="M207.651 320.33H178.91V349.071H207.651V320.33Z" fill="#E0E0E0"/>
<path d="M262.941 323.426C262.941 323.558 253.332 323.67 241.481 323.67C229.63 323.67 220.012 323.558 220.012 323.426C220.012 323.295 229.62 323.182 241.481 323.182C253.341 323.182 262.941 323.286 262.941 323.426Z" fill="#E0E0E0"/>
<path d="M297.171 332.237C297.171 332.369 279.896 332.481 258.596 332.481C237.296 332.481 220.012 332.369 220.012 332.237C220.012 332.106 237.287 331.993 258.596 331.993C279.906 331.993 297.171 332.096 297.171 332.237Z" fill="#EBEBEB"/>
<path d="M296.261 338.524C296.261 338.656 279.193 338.768 258.136 338.768C237.08 338.768 220.012 338.656 220.012 338.524C220.012 338.393 237.08 338.28 258.136 338.28C279.193 338.28 296.261 338.393 296.261 338.524Z" fill="#EBEBEB"/>
<path d="M265.032 344.529C265.032 344.661 254.955 344.773 242.512 344.773C230.07 344.773 219.992 344.661 219.992 344.529C219.992 344.398 230.07 344.285 242.512 344.285C254.955 344.285 265.032 344.37 265.032 344.529Z" fill="#EBEBEB"/>
<g opacity="0.3">
<path opacity="0.3" d="M207.651 272.446H178.91V301.188H207.651V272.446Z" fill="black"/>
</g>
<g opacity="0.3">
<path opacity="0.3" d="M207.651 176.689H178.91V205.43H207.651V176.689Z" fill="black"/>
</g>
<path d="M189.378 101.081H188.548V97.7212H184.788V101.081H183.958V93.9419H184.788V96.979H188.548V93.9419H189.378V101.081ZM194.51 101.081L194.349 100.319H194.31C194.043 100.654 193.776 100.882 193.509 101.002C193.245 101.12 192.915 101.178 192.518 101.178C191.987 101.178 191.57 101.042 191.268 100.768C190.968 100.495 190.818 100.106 190.818 99.6011C190.818 98.5203 191.683 97.9539 193.411 97.9019L194.319 97.8726V97.5405C194.319 97.1206 194.228 96.8114 194.046 96.6128C193.867 96.411 193.579 96.3101 193.182 96.3101C192.736 96.3101 192.231 96.4468 191.668 96.7202L191.419 96.1001C191.683 95.9569 191.971 95.8446 192.283 95.7632C192.599 95.6818 192.915 95.6411 193.23 95.6411C193.868 95.6411 194.34 95.7827 194.646 96.0659C194.956 96.3491 195.11 96.8032 195.11 97.4282V101.081H194.51ZM192.679 100.509C193.183 100.509 193.579 100.371 193.865 100.094C194.155 99.8175 194.3 99.4302 194.3 98.9321V98.4487L193.489 98.4829C192.845 98.5057 192.379 98.6066 192.093 98.7856C191.81 98.9614 191.668 99.2365 191.668 99.6108C191.668 99.9038 191.756 100.127 191.932 100.28C192.111 100.433 192.36 100.509 192.679 100.509ZM197.547 95.729V99.1226L197.513 100.011L197.498 100.29L200.394 95.729H201.404V101.081H200.647V97.8091L200.662 97.1646L200.687 96.5298L197.796 101.081H196.785V95.729H197.547ZM199.075 95.021C198.473 95.021 198.034 94.9054 197.757 94.6743C197.48 94.4399 197.326 94.0558 197.293 93.522H198.055C198.084 93.8605 198.172 94.0965 198.318 94.23C198.468 94.3634 198.727 94.4302 199.095 94.4302C199.43 94.4302 199.677 94.3586 199.837 94.2153C200 94.0721 200.099 93.841 200.135 93.522H200.901C200.862 94.0363 200.698 94.4155 200.408 94.6597C200.118 94.9006 199.674 95.021 199.075 95.021ZM206.731 96.4224H204.993V101.081H204.183V96.4224H202.464V95.729H206.731V96.4224ZM208.553 95.729V99.1226L208.519 100.011L208.504 100.29L211.399 95.729H212.41V101.081H211.653V97.8091L211.668 97.1646L211.692 96.5298L208.802 101.081H207.791V95.729H208.553ZM214.012 100.563C214.012 100.345 214.061 100.181 214.158 100.07C214.259 99.9559 214.402 99.8989 214.588 99.8989C214.777 99.8989 214.923 99.9559 215.027 100.07C215.135 100.181 215.188 100.345 215.188 100.563C215.188 100.775 215.135 100.937 215.027 101.051C214.92 101.165 214.773 101.222 214.588 101.222C214.422 101.222 214.284 101.172 214.173 101.071C214.065 100.967 214.012 100.797 214.012 100.563ZM216.678 100.563C216.678 100.345 216.727 100.181 216.824 100.07C216.925 99.9559 217.068 99.8989 217.254 99.8989C217.443 99.8989 217.589 99.9559 217.693 100.07C217.801 100.181 217.854 100.345 217.854 100.563C217.854 100.775 217.801 100.937 217.693 101.051C217.586 101.165 217.439 101.222 217.254 101.222C217.088 101.222 216.95 101.172 216.839 101.071C216.731 100.967 216.678 100.797 216.678 100.563ZM183.719 114.563C183.719 114.345 183.768 114.181 183.865 114.07C183.966 113.956 184.109 113.899 184.295 113.899C184.484 113.899 184.63 113.956 184.734 114.07C184.842 114.181 184.896 114.345 184.896 114.563C184.896 114.775 184.842 114.937 184.734 115.051C184.627 115.165 184.48 115.222 184.295 115.222C184.129 115.222 183.991 115.172 183.88 115.071C183.772 114.967 183.719 114.797 183.719 114.563Z" fill="#ACA9A9"/>
<path d="M281.305 131.965C281.305 132.398 281.156 132.732 280.859 132.967C280.564 133.199 280.142 133.315 279.591 133.315H279.087V135H278.589V130.717H279.699C280.77 130.717 281.305 131.133 281.305 131.965ZM279.087 132.888H279.535C279.977 132.888 280.296 132.816 280.493 132.674C280.69 132.531 280.789 132.303 280.789 131.988C280.789 131.705 280.696 131.494 280.511 131.355C280.325 131.217 280.036 131.147 279.644 131.147H279.087V132.888ZM283.487 135.059C283.013 135.059 282.638 134.914 282.362 134.625C282.089 134.336 281.952 133.935 281.952 133.421C281.952 132.903 282.079 132.492 282.333 132.188C282.589 131.883 282.932 131.73 283.361 131.73C283.764 131.73 284.082 131.863 284.316 132.129C284.551 132.393 284.668 132.741 284.668 133.175V133.482H282.456C282.466 133.859 282.561 134.146 282.74 134.341C282.922 134.536 283.177 134.634 283.505 134.634C283.851 134.634 284.192 134.562 284.53 134.417V134.851C284.358 134.925 284.195 134.978 284.041 135.009C283.889 135.042 283.704 135.059 283.487 135.059ZM283.355 132.138C283.098 132.138 282.892 132.222 282.737 132.39C282.585 132.558 282.495 132.79 282.468 133.087H284.146C284.146 132.78 284.078 132.546 283.941 132.384C283.805 132.22 283.609 132.138 283.355 132.138ZM287.372 131.789H287.905L286.52 133.339L288.02 135H287.451L285.986 133.374V135H285.5V131.789H285.986V133.351L287.372 131.789ZM291.011 135H290.519V132.205H289.555C289.502 132.9 289.429 133.452 289.335 133.86C289.241 134.269 289.119 134.567 288.969 134.757C288.82 134.946 288.631 135.041 288.4 135.041C288.295 135.041 288.211 135.029 288.148 135.006V134.646C288.191 134.657 288.24 134.663 288.295 134.663C288.52 134.663 288.698 134.426 288.831 133.951C288.964 133.477 289.064 132.756 289.133 131.789H291.011V135ZM294.02 135L293.923 134.543H293.899C293.739 134.744 293.579 134.881 293.419 134.953C293.261 135.023 293.062 135.059 292.824 135.059C292.506 135.059 292.256 134.977 292.074 134.812C291.895 134.648 291.805 134.415 291.805 134.112C291.805 133.464 292.323 133.124 293.36 133.093L293.905 133.075V132.876C293.905 132.624 293.851 132.438 293.741 132.319C293.634 132.198 293.461 132.138 293.223 132.138C292.955 132.138 292.652 132.22 292.314 132.384L292.165 132.012C292.323 131.926 292.496 131.858 292.684 131.81C292.873 131.761 293.062 131.736 293.252 131.736C293.635 131.736 293.918 131.821 294.102 131.991C294.287 132.161 294.38 132.434 294.38 132.809V135H294.02ZM292.921 134.657C293.224 134.657 293.461 134.574 293.633 134.408C293.807 134.242 293.894 134.01 293.894 133.711V133.421L293.407 133.441C293.021 133.455 292.741 133.516 292.569 133.623C292.399 133.729 292.314 133.894 292.314 134.118C292.314 134.294 292.367 134.428 292.473 134.52C292.58 134.611 292.729 134.657 292.921 134.657ZM297.052 134.531L297.143 134.259L297.269 133.913L298.139 131.795H298.757V135H298.326V132.349L298.268 132.519L298.098 132.967L297.269 135H296.861L296.032 132.961C295.929 132.699 295.857 132.495 295.818 132.349V135H295.385V131.795H295.979L296.82 133.831C296.904 134.046 296.981 134.279 297.052 134.531ZM301.771 135L301.675 134.543H301.651C301.491 134.744 301.331 134.881 301.171 134.953C301.013 135.023 300.814 135.059 300.576 135.059C300.258 135.059 300.008 134.977 299.826 134.812C299.646 134.648 299.557 134.415 299.557 134.112C299.557 133.464 300.075 133.124 301.112 133.093L301.657 133.075V132.876C301.657 132.624 301.603 132.438 301.493 132.319C301.386 132.198 301.213 132.138 300.975 132.138C300.707 132.138 300.404 132.22 300.066 132.384L299.917 132.012C300.075 131.926 300.248 131.858 300.436 131.81C300.625 131.761 300.814 131.736 301.004 131.736C301.387 131.736 301.67 131.821 301.854 131.991C302.039 132.161 302.132 132.434 302.132 132.809V135H301.771ZM300.673 134.657C300.976 134.657 301.213 134.574 301.385 134.408C301.559 134.242 301.646 134.01 301.646 133.711V133.421L301.159 133.441C300.772 133.455 300.493 133.516 300.321 133.623C300.151 133.729 300.066 133.894 300.066 134.118C300.066 134.294 300.119 134.428 300.225 134.52C300.332 134.611 300.481 134.657 300.673 134.657Z" fill="#FF725E"/>
<rect x="274.246" y="127.864" width="30.4651" height="8.88338" rx="2.75" stroke="#FF725E" stroke-width="0.5"/>
<path d="M281.305 178.965C281.305 179.398 281.156 179.732 280.859 179.967C280.564 180.199 280.142 180.315 279.591 180.315H279.087V182H278.589V177.717H279.699C280.77 177.717 281.305 178.133 281.305 178.965ZM279.087 179.888H279.535C279.977 179.888 280.296 179.816 280.493 179.674C280.69 179.531 280.789 179.303 280.789 178.988C280.789 178.705 280.696 178.494 280.511 178.355C280.325 178.217 280.036 178.147 279.644 178.147H279.087V179.888ZM283.487 182.059C283.013 182.059 282.638 181.914 282.362 181.625C282.089 181.336 281.952 180.935 281.952 180.421C281.952 179.903 282.079 179.492 282.333 179.188C282.589 178.883 282.932 178.73 283.361 178.73C283.764 178.73 284.082 178.863 284.316 179.129C284.551 179.393 284.668 179.741 284.668 180.175V180.482H282.456C282.466 180.859 282.561 181.146 282.74 181.341C282.922 181.536 283.177 181.634 283.505 181.634C283.851 181.634 284.192 181.562 284.53 181.417V181.851C284.358 181.925 284.195 181.978 284.041 182.009C283.889 182.042 283.704 182.059 283.487 182.059ZM283.355 179.138C283.098 179.138 282.892 179.222 282.737 179.39C282.585 179.558 282.495 179.79 282.468 180.087H284.146C284.146 179.78 284.078 179.546 283.941 179.384C283.805 179.22 283.609 179.138 283.355 179.138ZM287.372 178.789H287.905L286.52 180.339L288.02 182H287.451L285.986 180.374V182H285.5V178.789H285.986V180.351L287.372 178.789ZM291.011 182H290.519V179.205H289.555C289.502 179.9 289.429 180.452 289.335 180.86C289.241 181.269 289.119 181.567 288.969 181.757C288.82 181.946 288.631 182.041 288.4 182.041C288.295 182.041 288.211 182.029 288.148 182.006V181.646C288.191 181.657 288.24 181.663 288.295 181.663C288.52 181.663 288.698 181.426 288.831 180.951C288.964 180.477 289.064 179.756 289.133 178.789H291.011V182ZM294.02 182L293.923 181.543H293.899C293.739 181.744 293.579 181.881 293.419 181.953C293.261 182.023 293.062 182.059 292.824 182.059C292.506 182.059 292.256 181.977 292.074 181.812C291.895 181.648 291.805 181.415 291.805 181.112C291.805 180.464 292.323 180.124 293.36 180.093L293.905 180.075V179.876C293.905 179.624 293.851 179.438 293.741 179.319C293.634 179.198 293.461 179.138 293.223 179.138C292.955 179.138 292.652 179.22 292.314 179.384L292.165 179.012C292.323 178.926 292.496 178.858 292.684 178.81C292.873 178.761 293.062 178.736 293.252 178.736C293.635 178.736 293.918 178.821 294.102 178.991C294.287 179.161 294.38 179.434 294.38 179.809V182H294.02ZM292.921 181.657C293.224 181.657 293.461 181.574 293.633 181.408C293.807 181.242 293.894 181.01 293.894 180.711V180.421L293.407 180.441C293.021 180.455 292.741 180.516 292.569 180.623C292.399 180.729 292.314 180.894 292.314 181.118C292.314 181.294 292.367 181.428 292.473 181.52C292.58 181.611 292.729 181.657 292.921 181.657ZM297.052 181.531L297.143 181.259L297.269 180.913L298.139 178.795H298.757V182H298.326V179.349L298.268 179.519L298.098 179.967L297.269 182H296.861L296.032 179.961C295.929 179.699 295.857 179.495 295.818 179.349V182H295.385V178.795H295.979L296.82 180.831C296.904 181.046 296.981 181.279 297.052 181.531ZM301.771 182L301.675 181.543H301.651C301.491 181.744 301.331 181.881 301.171 181.953C301.013 182.023 300.814 182.059 300.576 182.059C300.258 182.059 300.008 181.977 299.826 181.812C299.646 181.648 299.557 181.415 299.557 181.112C299.557 180.464 300.075 180.124 301.112 180.093L301.657 180.075V179.876C301.657 179.624 301.603 179.438 301.493 179.319C301.386 179.198 301.213 179.138 300.975 179.138C300.707 179.138 300.404 179.22 300.066 179.384L299.917 179.012C300.075 178.926 300.248 178.858 300.436 178.81C300.625 178.761 300.814 178.736 301.004 178.736C301.387 178.736 301.67 178.821 301.854 178.991C302.039 179.161 302.132 179.434 302.132 179.809V182H301.771ZM300.673 181.657C300.976 181.657 301.213 181.574 301.385 181.408C301.559 181.242 301.646 181.01 301.646 180.711V180.421L301.159 180.441C300.772 180.455 300.493 180.516 300.321 180.623C300.151 180.729 300.066 180.894 300.066 181.118C300.066 181.294 300.119 181.428 300.225 181.52C300.332 181.611 300.481 181.657 300.673 181.657Z" fill="#FF725E"/>
<rect x="274.246" y="175.719" width="30.4651" height="8.88338" rx="2.75" stroke="#FF725E" stroke-width="0.5"/>
<path d="M84.667 395.842V385.889H87.4766C88.3424 385.889 89.1081 386.08 89.7734 386.463C90.4388 386.846 90.9515 387.39 91.3115 388.097C91.6761 388.803 91.8607 389.614 91.8652 390.53V391.166C91.8652 392.105 91.6829 392.927 91.3184 393.634C90.9583 394.34 90.4411 394.882 89.7666 395.261C89.0967 395.639 88.3151 395.833 87.4219 395.842H84.667ZM85.9795 386.969V394.769H87.3604C88.3721 394.769 89.1582 394.454 89.7188 393.825C90.2839 393.196 90.5664 392.301 90.5664 391.139V390.558C90.5664 389.427 90.2998 388.55 89.7666 387.926C89.238 387.297 88.486 386.978 87.5107 386.969H85.9795ZM96.7256 395.979C95.723 395.979 94.9072 395.65 94.2783 394.994C93.6494 394.333 93.335 393.451 93.335 392.349V392.116C93.335 391.382 93.474 390.729 93.752 390.154C94.0345 389.576 94.4264 389.124 94.9277 388.801C95.4336 388.473 95.9805 388.309 96.5684 388.309C97.5299 388.309 98.2773 388.625 98.8105 389.259C99.3438 389.892 99.6104 390.799 99.6104 391.979V392.506H94.5996C94.6178 393.235 94.8298 393.825 95.2354 394.276C95.6455 394.723 96.165 394.946 96.7939 394.946C97.2406 394.946 97.6188 394.855 97.9287 394.673C98.2386 394.491 98.5098 394.249 98.7422 393.948L99.5146 394.55C98.8949 395.502 97.9652 395.979 96.7256 395.979ZM96.5684 389.348C96.0579 389.348 95.6296 389.535 95.2832 389.908C94.9368 390.277 94.7227 390.797 94.6406 391.467H98.3457V391.371C98.3092 390.729 98.1361 390.232 97.8262 389.881C97.5163 389.525 97.097 389.348 96.5684 389.348ZM105.387 393.88C105.387 393.538 105.257 393.274 104.997 393.087C104.742 392.896 104.293 392.731 103.65 392.595C103.012 392.458 102.504 392.294 102.126 392.103C101.752 391.911 101.474 391.683 101.292 391.419C101.114 391.155 101.025 390.84 101.025 390.476C101.025 389.869 101.281 389.357 101.791 388.938C102.306 388.518 102.962 388.309 103.76 388.309C104.598 388.309 105.277 388.525 105.797 388.958C106.321 389.391 106.583 389.945 106.583 390.619H105.312C105.312 390.273 105.163 389.974 104.867 389.724C104.576 389.473 104.206 389.348 103.76 389.348C103.299 389.348 102.939 389.448 102.68 389.648C102.42 389.849 102.29 390.111 102.29 390.435C102.29 390.74 102.411 390.97 102.652 391.125C102.894 391.28 103.329 391.428 103.958 391.569C104.591 391.711 105.104 391.879 105.496 392.075C105.888 392.271 106.177 392.508 106.364 392.786C106.556 393.06 106.651 393.395 106.651 393.791C106.651 394.452 106.387 394.983 105.858 395.384C105.33 395.78 104.644 395.979 103.801 395.979C103.208 395.979 102.684 395.874 102.229 395.664C101.773 395.454 101.415 395.163 101.155 394.789C100.9 394.411 100.772 394.003 100.772 393.565H102.037C102.06 393.989 102.229 394.326 102.543 394.577C102.862 394.823 103.281 394.946 103.801 394.946C104.279 394.946 104.662 394.851 104.949 394.659C105.241 394.463 105.387 394.203 105.387 393.88ZM109.673 395.842H108.408V388.445H109.673V395.842ZM108.306 386.483C108.306 386.278 108.367 386.105 108.49 385.964C108.618 385.823 108.805 385.752 109.051 385.752C109.297 385.752 109.484 385.823 109.611 385.964C109.739 386.105 109.803 386.278 109.803 386.483C109.803 386.688 109.739 386.859 109.611 386.996C109.484 387.133 109.297 387.201 109.051 387.201C108.805 387.201 108.618 387.133 108.49 386.996C108.367 386.859 108.306 386.688 108.306 386.483ZM111.402 392.082C111.402 390.929 111.669 390.013 112.202 389.334C112.735 388.65 113.442 388.309 114.321 388.309C115.224 388.309 115.928 388.628 116.434 389.266L116.495 388.445H117.65V395.664C117.65 396.621 117.366 397.375 116.796 397.927C116.231 398.478 115.47 398.754 114.513 398.754C113.979 398.754 113.458 398.64 112.947 398.412C112.437 398.184 112.047 397.872 111.778 397.476L112.435 396.717C112.977 397.387 113.64 397.722 114.424 397.722C115.039 397.722 115.518 397.549 115.859 397.202C116.206 396.856 116.379 396.368 116.379 395.739V395.104C115.873 395.687 115.183 395.979 114.308 395.979C113.442 395.979 112.74 395.63 112.202 394.933C111.669 394.235 111.402 393.285 111.402 392.082ZM112.674 392.226C112.674 393.06 112.845 393.716 113.187 394.194C113.528 394.668 114.007 394.905 114.622 394.905C115.42 394.905 116.005 394.543 116.379 393.818V390.441C115.992 389.735 115.41 389.382 114.636 389.382C114.021 389.382 113.54 389.621 113.193 390.1C112.847 390.578 112.674 391.287 112.674 392.226ZM120.761 388.445L120.802 389.375C121.367 388.664 122.105 388.309 123.017 388.309C124.58 388.309 125.368 389.19 125.382 390.954V395.842H124.117V390.947C124.113 390.414 123.99 390.02 123.748 389.765C123.511 389.509 123.14 389.382 122.634 389.382C122.224 389.382 121.864 389.491 121.554 389.71C121.244 389.929 121.002 390.216 120.829 390.571V395.842H119.564V388.445H120.761ZM130.358 395.979C129.356 395.979 128.54 395.65 127.911 394.994C127.282 394.333 126.968 393.451 126.968 392.349V392.116C126.968 391.382 127.107 390.729 127.385 390.154C127.667 389.576 128.059 389.124 128.561 388.801C129.066 388.473 129.613 388.309 130.201 388.309C131.163 388.309 131.91 388.625 132.443 389.259C132.977 389.892 133.243 390.799 133.243 391.979V392.506H128.232C128.251 393.235 128.463 393.825 128.868 394.276C129.278 394.723 129.798 394.946 130.427 394.946C130.873 394.946 131.252 394.855 131.562 394.673C131.871 394.491 132.143 394.249 132.375 393.948L133.147 394.55C132.528 395.502 131.598 395.979 130.358 395.979ZM130.201 389.348C129.691 389.348 129.262 389.535 128.916 389.908C128.57 390.277 128.355 390.797 128.273 391.467H131.979V391.371C131.942 390.729 131.769 390.232 131.459 389.881C131.149 389.525 130.73 389.348 130.201 389.348ZM134.405 392.082C134.405 390.947 134.674 390.036 135.212 389.348C135.75 388.655 136.454 388.309 137.324 388.309C138.19 388.309 138.876 388.605 139.382 389.197V385.342H140.646V395.842H139.484L139.423 395.049C138.917 395.669 138.213 395.979 137.311 395.979C136.454 395.979 135.754 395.628 135.212 394.926C134.674 394.224 134.405 393.308 134.405 392.178V392.082ZM135.67 392.226C135.67 393.064 135.843 393.72 136.189 394.194C136.536 394.668 137.014 394.905 137.625 394.905C138.427 394.905 139.013 394.545 139.382 393.825V390.428C139.004 389.73 138.423 389.382 137.639 389.382C137.019 389.382 136.536 389.621 136.189 390.1C135.843 390.578 135.67 391.287 135.67 392.226ZM152.35 392.226C152.35 393.356 152.09 394.265 151.57 394.953C151.051 395.637 150.354 395.979 149.479 395.979C148.544 395.979 147.822 395.648 147.312 394.987L147.25 395.842H146.088V385.342H147.353V389.259C147.863 388.625 148.567 388.309 149.465 388.309C150.363 388.309 151.067 388.648 151.577 389.327C152.092 390.006 152.35 390.936 152.35 392.116V392.226ZM151.085 392.082C151.085 391.221 150.919 390.555 150.586 390.086C150.253 389.617 149.775 389.382 149.15 389.382C148.316 389.382 147.717 389.769 147.353 390.544V393.743C147.74 394.518 148.344 394.905 149.164 394.905C149.77 394.905 150.242 394.671 150.579 394.201C150.916 393.732 151.085 393.025 151.085 392.082ZM156.287 393.989L158.01 388.445H159.363L156.39 396.983C155.929 398.214 155.198 398.829 154.195 398.829L153.956 398.809L153.484 398.72V397.694L153.826 397.722C154.255 397.722 154.587 397.635 154.824 397.462C155.066 397.289 155.264 396.972 155.419 396.512L155.699 395.76L153.061 388.445H154.441L156.287 393.989ZM168.277 393.88C168.277 393.538 168.147 393.274 167.888 393.087C167.632 392.896 167.184 392.731 166.541 392.595C165.903 392.458 165.395 392.294 165.017 392.103C164.643 391.911 164.365 391.683 164.183 391.419C164.005 391.155 163.916 390.84 163.916 390.476C163.916 389.869 164.171 389.357 164.682 388.938C165.197 388.518 165.853 388.309 166.65 388.309C167.489 388.309 168.168 388.525 168.688 388.958C169.212 389.391 169.474 389.945 169.474 390.619H168.202C168.202 390.273 168.054 389.974 167.758 389.724C167.466 389.473 167.097 389.348 166.65 389.348C166.19 389.348 165.83 389.448 165.57 389.648C165.311 389.849 165.181 390.111 165.181 390.435C165.181 390.74 165.301 390.97 165.543 391.125C165.785 391.28 166.22 391.428 166.849 391.569C167.482 391.711 167.995 391.879 168.387 392.075C168.779 392.271 169.068 392.508 169.255 392.786C169.446 393.06 169.542 393.395 169.542 393.791C169.542 394.452 169.278 394.983 168.749 395.384C168.22 395.78 167.535 395.979 166.691 395.979C166.099 395.979 165.575 395.874 165.119 395.664C164.663 395.454 164.306 395.163 164.046 394.789C163.791 394.411 163.663 394.003 163.663 393.565H164.928C164.951 393.989 165.119 394.326 165.434 394.577C165.753 394.823 166.172 394.946 166.691 394.946C167.17 394.946 167.553 394.851 167.84 394.659C168.132 394.463 168.277 394.203 168.277 393.88ZM172.905 386.654V388.445H174.286V389.423H172.905V394.01C172.905 394.306 172.967 394.529 173.09 394.68C173.213 394.826 173.423 394.898 173.719 394.898C173.865 394.898 174.065 394.871 174.32 394.816V395.842C173.988 395.933 173.664 395.979 173.35 395.979C172.785 395.979 172.358 395.808 172.071 395.466C171.784 395.124 171.641 394.639 171.641 394.01V389.423H170.294V388.445H171.641V386.654H172.905ZM175.298 392.075C175.298 391.351 175.439 390.699 175.722 390.12C176.009 389.541 176.405 389.095 176.911 388.78C177.422 388.466 178.003 388.309 178.654 388.309C179.661 388.309 180.475 388.657 181.095 389.354C181.719 390.052 182.031 390.979 182.031 392.137V392.226C182.031 392.946 181.892 393.593 181.614 394.167C181.341 394.737 180.947 395.181 180.432 395.5C179.921 395.819 179.333 395.979 178.668 395.979C177.665 395.979 176.852 395.63 176.228 394.933C175.608 394.235 175.298 393.312 175.298 392.164V392.075ZM176.569 392.226C176.569 393.046 176.758 393.704 177.137 394.201C177.52 394.698 178.03 394.946 178.668 394.946C179.311 394.946 179.821 394.696 180.199 394.194C180.577 393.688 180.767 392.982 180.767 392.075C180.767 391.264 180.573 390.608 180.186 390.106C179.803 389.601 179.292 389.348 178.654 389.348C178.03 389.348 177.526 389.596 177.144 390.093C176.761 390.59 176.569 391.3 176.569 392.226ZM187.192 389.58C187.001 389.548 186.794 389.532 186.57 389.532C185.741 389.532 185.178 389.885 184.882 390.592V395.842H183.617V388.445H184.848L184.868 389.3C185.283 388.639 185.871 388.309 186.632 388.309C186.878 388.309 187.065 388.34 187.192 388.404V389.58ZM189.735 395.842H188.471V388.445H189.735V395.842ZM188.368 386.483C188.368 386.278 188.43 386.105 188.553 385.964C188.68 385.823 188.867 385.752 189.113 385.752C189.359 385.752 189.546 385.823 189.674 385.964C189.801 386.105 189.865 386.278 189.865 386.483C189.865 386.688 189.801 386.859 189.674 386.996C189.546 387.133 189.359 387.201 189.113 387.201C188.867 387.201 188.68 387.133 188.553 386.996C188.43 386.859 188.368 386.688 188.368 386.483ZM194.835 395.979C193.832 395.979 193.017 395.65 192.388 394.994C191.759 394.333 191.444 393.451 191.444 392.349V392.116C191.444 391.382 191.583 390.729 191.861 390.154C192.144 389.576 192.536 389.124 193.037 388.801C193.543 388.473 194.09 388.309 194.678 388.309C195.639 388.309 196.387 388.625 196.92 389.259C197.453 389.892 197.72 390.799 197.72 391.979V392.506H192.709C192.727 393.235 192.939 393.825 193.345 394.276C193.755 394.723 194.274 394.946 194.903 394.946C195.35 394.946 195.728 394.855 196.038 394.673C196.348 394.491 196.619 394.249 196.852 393.948L197.624 394.55C197.004 395.502 196.075 395.979 194.835 395.979ZM194.678 389.348C194.167 389.348 193.739 389.535 193.393 389.908C193.046 390.277 192.832 390.797 192.75 391.467H196.455V391.371C196.419 390.729 196.245 390.232 195.936 389.881C195.626 389.525 195.206 389.348 194.678 389.348ZM203.496 393.88C203.496 393.538 203.366 393.274 203.106 393.087C202.851 392.896 202.402 392.731 201.76 392.595C201.122 392.458 200.614 392.294 200.235 392.103C199.862 391.911 199.584 391.683 199.401 391.419C199.224 391.155 199.135 390.84 199.135 390.476C199.135 389.869 199.39 389.357 199.9 388.938C200.415 388.518 201.072 388.309 201.869 388.309C202.708 388.309 203.387 388.525 203.906 388.958C204.43 389.391 204.692 389.945 204.692 390.619H203.421C203.421 390.273 203.273 389.974 202.977 389.724C202.685 389.473 202.316 389.348 201.869 389.348C201.409 389.348 201.049 389.448 200.789 389.648C200.529 389.849 200.399 390.111 200.399 390.435C200.399 390.74 200.52 390.97 200.762 391.125C201.003 391.28 201.438 391.428 202.067 391.569C202.701 391.711 203.214 391.879 203.605 392.075C203.997 392.271 204.287 392.508 204.474 392.786C204.665 393.06 204.761 393.395 204.761 393.791C204.761 394.452 204.496 394.983 203.968 395.384C203.439 395.78 202.753 395.979 201.91 395.979C201.318 395.979 200.794 395.874 200.338 395.664C199.882 395.454 199.524 395.163 199.265 394.789C199.009 394.411 198.882 394.003 198.882 393.565H200.146C200.169 393.989 200.338 394.326 200.652 394.577C200.971 394.823 201.391 394.946 201.91 394.946C202.389 394.946 202.771 394.851 203.059 394.659C203.35 394.463 203.496 394.203 203.496 393.88ZM210.134 396.696H209.047L213.203 385.889H214.283L210.134 396.696ZM224.811 391.446H220.634V395.842H219.321V385.889H225.487V386.969H220.634V390.373H224.811V391.446ZM230.259 389.58C230.067 389.548 229.86 389.532 229.637 389.532C228.807 389.532 228.244 389.885 227.948 390.592V395.842H226.684V388.445H227.914L227.935 389.3C228.349 388.639 228.937 388.309 229.698 388.309C229.944 388.309 230.131 388.34 230.259 388.404V389.58ZM234.36 395.979C233.358 395.979 232.542 395.65 231.913 394.994C231.284 394.333 230.97 393.451 230.97 392.349V392.116C230.97 391.382 231.109 390.729 231.387 390.154C231.669 389.576 232.061 389.124 232.562 388.801C233.068 388.473 233.615 388.309 234.203 388.309C235.165 388.309 235.912 388.625 236.445 389.259C236.979 389.892 237.245 390.799 237.245 391.979V392.506H232.234C232.253 393.235 232.465 393.825 232.87 394.276C233.28 394.723 233.8 394.946 234.429 394.946C234.875 394.946 235.254 394.855 235.563 394.673C235.873 394.491 236.145 394.249 236.377 393.948L237.149 394.55C236.53 395.502 235.6 395.979 234.36 395.979ZM234.203 389.348C233.693 389.348 233.264 389.535 232.918 389.908C232.572 390.277 232.357 390.797 232.275 391.467H235.98V391.371C235.944 390.729 235.771 390.232 235.461 389.881C235.151 389.525 234.732 389.348 234.203 389.348ZM241.784 395.979C240.782 395.979 239.966 395.65 239.337 394.994C238.708 394.333 238.394 393.451 238.394 392.349V392.116C238.394 391.382 238.533 390.729 238.811 390.154C239.093 389.576 239.485 389.124 239.986 388.801C240.492 388.473 241.039 388.309 241.627 388.309C242.589 388.309 243.336 388.625 243.869 389.259C244.402 389.892 244.669 390.799 244.669 391.979V392.506H239.658C239.676 393.235 239.888 393.825 240.294 394.276C240.704 394.723 241.224 394.946 241.853 394.946C242.299 394.946 242.677 394.855 242.987 394.673C243.297 394.491 243.568 394.249 243.801 393.948L244.573 394.55C243.953 395.502 243.024 395.979 241.784 395.979ZM241.627 389.348C241.117 389.348 240.688 389.535 240.342 389.908C239.995 390.277 239.781 390.797 239.699 391.467H243.404V391.371C243.368 390.729 243.195 390.232 242.885 389.881C242.575 389.525 242.156 389.348 241.627 389.348ZM252.387 392.226C252.387 393.351 252.129 394.258 251.614 394.946C251.099 395.634 250.402 395.979 249.522 395.979C248.625 395.979 247.918 395.694 247.403 395.124V398.686H246.139V388.445H247.294L247.355 389.266C247.87 388.628 248.586 388.309 249.502 388.309C250.391 388.309 251.092 388.644 251.607 389.313C252.127 389.983 252.387 390.915 252.387 392.109V392.226ZM251.122 392.082C251.122 391.248 250.944 390.59 250.589 390.106C250.233 389.623 249.746 389.382 249.126 389.382C248.36 389.382 247.786 389.721 247.403 390.4V393.935C247.782 394.609 248.36 394.946 249.14 394.946C249.746 394.946 250.227 394.707 250.582 394.229C250.942 393.745 251.122 393.03 251.122 392.082ZM255.374 395.842H254.109V388.445H255.374V395.842ZM254.007 386.483C254.007 386.278 254.068 386.105 254.191 385.964C254.319 385.823 254.506 385.752 254.752 385.752C254.998 385.752 255.185 385.823 255.312 385.964C255.44 386.105 255.504 386.278 255.504 386.483C255.504 386.688 255.44 386.859 255.312 386.996C255.185 387.133 254.998 387.201 254.752 387.201C254.506 387.201 254.319 387.133 254.191 386.996C254.068 386.859 254.007 386.688 254.007 386.483ZM259.469 392.417L258.676 393.244V395.842H257.411V385.342H258.676V391.692L259.353 390.879L261.656 388.445H263.194L260.316 391.535L263.529 395.842H262.046L259.469 392.417Z" fill="#ACA9A9"/>
<path d="M8.10275 230.494C-27.0939 232.974 -79.1744 237.799 -115.895 236.534C-128.713 236.092 -158.205 236.113 -163.078 218.415C-165.556 209.417 -158.645 198.821 -153.453 191.898C-151.26 188.975 -145.24 185.392 -143.072 189.728" stroke="#ACA9A9" stroke-linecap="round" stroke-dasharray="5 5"/>
<path d="M4.70715 165.948C-42.245 174.824 -91.9927 182.636 -139.674 175.007C-156.233 172.357 -171.64 166.112 -177.231 149.339C-180.895 138.349 -176.494 123.225 -172.23 113.197C-165.794 98.0599 -149.019 68.1084 -128.35 71.7699C-105.717 75.7791 -49.4244 165.948 -83.6199 165.948" stroke="#ACA9A9" stroke-linecap="round" stroke-dasharray="5 5"/>
<path d="M349.391 281.635C370.311 279.433 392.295 278.66 413.229 281.034C427.99 282.708 442.042 290.794 454.819 297.87C477.366 310.358 499.765 327.7 515.35 348.48C525.222 361.643 538.281 373.409 546.016 388.066C546.994 389.919 554.28 402.265 549.624 395.281" stroke="#ACA9A9" stroke-linecap="round" stroke-dasharray="5 5"/>
</g>
<defs>
<clipPath id="clip0">
<rect width="350" height="398.794" fill="white"/>
</clipPath>
</defs>
</svg>
