<svg width="340" height="393" viewBox="0 0 340 393" fill="none" xmlns="http://www.w3.org/2000/svg">
<g clip-path="url(#clip0)">
<path d="M444.899 372.236C444.899 372.364 334.254 372.473 197.799 372.473C61.3446 372.473 -49.3281 372.364 -49.3281 372.236C-49.3281 372.109 61.2991 372 197.799 372C334.299 372 444.899 372.1 444.899 372.236Z" fill="#263238"/>
<path d="M279.529 345L168.62 344.491C165.446 344.479 162.305 343.842 159.378 342.616C156.45 341.39 153.792 339.599 151.557 337.346C149.321 335.093 147.552 332.421 146.349 329.484C145.146 326.547 144.534 323.401 144.547 320.227L145.72 42.1999C145.756 35.7953 148.334 29.6672 152.888 25.1631C157.441 20.6591 163.597 18.1479 170.002 18.1817L280.911 18.6999C287.315 18.7288 293.446 21.3001 297.955 25.8485C302.465 30.3968 304.983 36.5498 304.956 42.9545L303.793 320.909C303.785 324.085 303.152 327.229 301.928 330.16C300.704 333.091 298.913 335.751 296.659 337.989C294.406 340.227 291.732 341.998 288.793 343.201C285.853 344.404 282.705 345.015 279.529 345Z" fill="#455A64"/>
<path d="M280.766 28.2544L259.266 28.1816C258.563 28.1946 257.87 28.3461 257.226 28.6274C256.582 28.9087 255.999 29.3143 255.512 29.8209C255.025 30.3276 254.642 30.9254 254.386 31.58C254.131 32.2347 254.006 32.9334 254.021 33.6362V37.5362C254.035 38.2389 253.911 38.9377 253.655 39.5923C253.399 40.247 253.017 40.8448 252.529 41.3514C252.042 41.8581 251.46 42.2637 250.816 42.5449C250.171 42.8262 249.478 42.9777 248.775 42.9907L206.848 42.7271C205.437 42.689 204.098 42.094 203.123 41.072C202.149 40.0501 201.619 38.6842 201.648 37.2725V33.3725C201.677 31.9609 201.147 30.595 200.173 29.5731C199.198 28.5511 197.859 27.9561 196.448 27.918H188.893L170.075 27.8362C167.852 27.8242 165.649 28.2506 163.591 29.0911C161.533 29.9315 159.661 31.1694 158.082 32.734C156.504 34.2986 155.249 36.1592 154.389 38.2093C153.53 40.2594 153.084 42.4588 153.075 44.6816L151.93 316.054C151.911 320.54 153.673 324.849 156.83 328.035C159.988 331.222 164.281 333.024 168.766 333.045L279.448 333.554C281.67 333.565 283.872 333.138 285.929 332.297C287.986 331.456 289.857 330.218 291.435 328.653C293.013 327.089 294.267 325.229 295.126 323.179C295.984 321.13 296.431 318.931 296.439 316.709L297.593 45.3362C297.615 43.1084 297.196 40.8982 296.361 38.8326C295.527 36.767 294.292 34.8866 292.728 33.2995C291.165 31.7123 289.303 30.4496 287.251 29.5838C285.198 28.718 282.994 28.2662 280.766 28.2544Z" fill="#FAFAFA"/>
<path d="M179.701 56.8454C180.085 56.6781 180.41 56.402 180.638 56.0514C180.866 55.7007 180.986 55.2909 180.983 54.8727C181.002 54.5981 180.964 54.3226 180.871 54.0634C180.779 53.8041 180.634 53.5666 180.446 53.3655C180.258 53.1645 180.031 53.0042 179.779 52.8946C179.526 52.7851 179.254 52.7285 178.979 52.7285C178.703 52.7285 178.431 52.7851 178.179 52.8946C177.926 53.0042 177.699 53.1645 177.511 53.3655C177.323 53.5666 177.178 53.8041 177.086 54.0634C176.994 54.3226 176.956 54.5981 176.974 54.8727C176.964 55.2947 177.079 55.7102 177.306 56.0664C177.533 56.4225 177.86 56.7032 178.247 56.8727C177.614 56.9457 177.017 57.2049 176.531 57.6176C176.046 58.0303 175.694 58.5779 175.52 59.1909C176.236 60.0109 177.223 60.5464 178.301 60.6999H179.529C180.623 60.5566 181.63 60.0242 182.365 59.1999C182.21 58.5846 181.873 58.0305 181.398 57.6103C180.922 57.1901 180.331 56.9234 179.701 56.8454Z" fill="#455A64"/>
<path d="M178.939 60.718C178.939 60.718 179.339 60.718 180.029 60.518C181.004 60.2497 181.861 59.6643 182.466 58.8543C182.907 58.2648 183.195 57.5746 183.303 56.8462C183.41 56.1177 183.335 55.3738 183.084 54.6816C182.794 53.8609 182.261 53.1477 181.557 52.6362C180.807 52.0811 179.899 51.7815 178.966 51.7815C178.033 51.7815 177.125 52.0811 176.375 52.6362C175.666 53.1398 175.127 53.8467 174.829 54.6634C174.572 55.3545 174.491 56.099 174.594 56.8293C174.697 57.5597 174.981 58.2526 175.42 58.8453C176.017 59.6587 176.868 60.2504 177.839 60.5271C178.529 60.718 178.939 60.6998 178.939 60.7362C178.839 60.7501 178.738 60.7501 178.639 60.7362C178.357 60.7385 178.076 60.7049 177.802 60.6362C176.933 60.4314 176.143 59.9788 175.526 59.3332C174.91 58.6877 174.494 57.8771 174.329 56.9998C174.058 55.8117 174.257 54.5646 174.886 53.5206C175.515 52.4766 176.524 51.717 177.701 51.4015C178.878 51.086 180.132 51.2392 181.198 51.8289C182.265 52.4185 183.061 53.3987 183.42 54.5634C183.68 55.3047 183.75 56.0993 183.623 56.8744C183.496 57.6495 183.176 58.3804 182.693 58.9998C182.043 59.8305 181.123 60.409 180.093 60.6362C179.819 60.7029 179.538 60.7335 179.257 60.7271C179.151 60.7404 179.043 60.7374 178.939 60.718Z" fill="#455A64"/>
<path d="M226.749 55.9351L190.113 55.8008L190.107 57.628L226.743 57.7623L226.749 55.9351Z" fill="#455A64"/>
<path d="M285.784 53.7271C285.784 53.8317 285.764 53.9353 285.723 54.0318C285.683 54.1284 285.624 54.216 285.55 54.2895C285.475 54.3631 285.387 54.4212 285.29 54.4604C285.193 54.4996 285.089 54.5192 284.984 54.518C284.788 54.4969 284.606 54.4041 284.474 54.2572C284.343 54.1104 284.27 53.9199 284.27 53.7225C284.27 53.5251 284.343 53.3346 284.474 53.1878C284.606 53.0409 284.788 52.9481 284.984 52.9271C285.09 52.9258 285.194 52.9457 285.292 52.9855C285.39 53.0252 285.478 53.0841 285.553 53.1587C285.627 53.2332 285.686 53.3219 285.726 53.4195C285.766 53.5171 285.786 53.6217 285.784 53.7271Z" fill="#455A64"/>
<path d="M285.776 56.5818C285.776 56.7404 285.729 56.8954 285.64 57.0272C285.552 57.1589 285.427 57.2614 285.28 57.3217C285.133 57.382 284.972 57.3973 284.816 57.3657C284.661 57.3341 284.518 57.257 284.407 57.1442C284.295 57.0314 284.22 56.888 284.19 56.7322C284.16 56.5764 284.177 56.4153 284.239 56.2693C284.301 56.1233 284.405 55.999 284.538 55.9122C284.671 55.8254 284.826 55.78 284.985 55.7818C285.195 55.7842 285.397 55.8695 285.545 56.0193C285.693 56.1691 285.776 56.3712 285.776 56.5818Z" fill="#455A64"/>
<path d="M285.768 59.4363C285.768 59.5949 285.721 59.7499 285.632 59.8817C285.544 60.0134 285.419 60.1159 285.272 60.1762C285.125 60.2365 284.964 60.2518 284.809 60.2202C284.653 60.1886 284.511 60.1115 284.399 59.9987C284.288 59.8859 284.212 59.7425 284.182 59.5867C284.152 59.4309 284.17 59.2698 284.232 59.1238C284.293 58.9778 284.397 58.8535 284.53 58.7667C284.663 58.6799 284.818 58.6345 284.977 58.6363C285.188 58.6387 285.389 58.724 285.537 58.8738C285.685 59.0236 285.768 59.2257 285.768 59.4363Z" fill="#455A64"/>
<path d="M237.51 82.3999C237.117 82.4675 236.718 82.4979 236.319 82.4908L233.083 82.5636C230.355 82.609 226.574 82.6363 222.401 82.6363C218.228 82.6363 214.455 82.6363 211.719 82.5636L208.483 82.4908C208.087 82.4986 207.691 82.4682 207.301 82.3999C207.69 82.3258 208.086 82.2953 208.483 82.309L211.719 82.2272C214.446 82.2272 218.228 82.1636 222.401 82.1636C226.574 82.1636 230.346 82.1636 233.083 82.2272L236.319 82.309C236.718 82.2956 237.117 82.3261 237.51 82.3999Z" fill="#455A64"/>
<path d="M284.992 89.8272C284.992 89.9635 267.601 90.0636 246.146 90.0636C224.692 90.0636 207.273 89.9999 207.273 89.8272C207.273 89.6545 224.664 89.5908 246.119 89.5908C267.573 89.5908 284.992 89.6999 284.992 89.8272Z" fill="#455A64"/>
<path d="M260.71 96.8181C260.71 96.9545 248.755 97.0545 234.01 97.0545C219.264 97.0545 207.273 96.9545 207.273 96.8181C207.273 96.6818 219.228 96.5818 233.983 96.5818C248.737 96.5818 260.71 96.6909 260.71 96.8181Z" fill="#455A64"/>
<path d="M286.529 110.427L284.111 108.009L281.82 110.3V103.373H286.529V110.427ZM284.111 107.7L284.193 107.773L286.311 109.909V103.545H282.029V109.754L284.111 107.7Z" fill="#263238"/>
<path d="M222.246 109.527L221.401 109.145C221.065 109.349 220.684 109.465 220.291 109.482C219.755 109.482 219.236 109.298 218.818 108.962C218.401 108.625 218.112 108.156 217.998 107.632C217.885 107.108 217.955 106.561 218.195 106.083C218.436 105.604 218.834 105.222 219.322 105C219.81 104.779 220.359 104.731 220.878 104.866C221.397 105 221.854 105.308 222.174 105.738C222.493 106.168 222.656 106.695 222.634 107.231C222.613 107.766 222.408 108.278 222.055 108.682L222.246 109.527ZM220.255 104.918C219.695 104.954 219.169 105.202 218.785 105.611C218.401 106.021 218.188 106.561 218.188 107.123C218.188 107.684 218.401 108.224 218.785 108.634C219.169 109.043 219.695 109.291 220.255 109.327C220.631 109.3 220.996 109.185 221.319 108.991L221.946 109.264L221.801 108.645C222.093 108.33 222.287 107.936 222.357 107.512C222.427 107.088 222.371 106.653 222.196 106.26C222.02 105.868 221.733 105.535 221.37 105.305C221.008 105.074 220.585 104.956 220.155 104.964L220.255 104.918Z" fill="#263238"/>
<path d="M227.73 109.163L226.748 106.782L224.93 105.109H229.366L227.73 109.163ZM225.339 105.273L226.893 106.7L227.73 108.736L229.121 105.245L225.339 105.273Z" fill="#263238"/>
<path d="M229.267 105.042L226.844 106.619L226.933 106.756L229.356 105.179L229.267 105.042Z" fill="#263238"/>
<path d="M215.266 105.609C215.218 105.275 215.047 104.97 214.788 104.753C214.529 104.536 214.199 104.422 213.862 104.433C213.524 104.445 213.202 104.58 212.958 104.814C212.714 105.047 212.565 105.363 212.539 105.7C212.506 105.364 212.351 105.053 212.103 104.824C211.855 104.596 211.532 104.466 211.195 104.461C210.858 104.455 210.531 104.574 210.276 104.794C210.02 105.014 209.855 105.32 209.811 105.654C209.744 106.127 209.865 106.607 210.148 106.991C210.427 107.371 210.754 107.713 211.12 108.009L212.566 109.3C213.057 108.854 213.475 108.436 213.957 107.991C214.316 107.686 214.637 107.338 214.911 106.954C215.197 106.568 215.324 106.086 215.266 105.609Z" fill="#FF725E"/>
<path d="M291.474 116.564C291.474 116.564 291.474 116.291 291.474 115.791C291.474 115.291 291.474 114.518 291.474 113.536C291.474 111.555 291.474 108.636 291.474 104.864C291.474 97.3091 291.428 86.3273 291.392 72.5455L291.547 72.7091L160.156 72.7818L160.392 72.5455C160.392 87.8455 160.392 102.682 160.392 116.564L160.165 116.336L254.183 116.436L281.628 116.5H288.992H290.901H291.565H290.938H289.056H281.728L254.337 116.564L160.165 116.673H159.938V116.445C159.938 102.564 159.938 87.7273 159.938 72.4273V72.1909H160.183L291.574 72.2727H291.728V72.4273C291.728 86.2455 291.665 97.2636 291.647 104.836C291.647 108.6 291.647 111.5 291.601 113.482C291.601 114.445 291.601 115.191 291.601 115.7C291.601 116.209 291.474 116.564 291.474 116.564Z" fill="#263238"/>
<path d="M165.562 79.9058L165.395 109.005L201.794 109.215L201.962 80.1155L165.562 79.9058Z" fill="#EBEBEB"/>
<path d="M201.938 80.1091H201.238H199.247H191.82H165.574L165.793 79.8909C165.747 88.5546 165.702 98.4818 165.647 108.982L165.42 108.745H170.42H175.32L184.765 108.809L201.811 108.936L201.611 109.136C201.702 100.4 201.784 93.1545 201.829 88.0636C201.829 85.5364 201.902 83.5182 201.92 82.1545C201.92 81.4909 201.92 80.9636 201.92 80.5909C201.92 80.2182 201.92 80.0364 201.92 80.0364C201.929 80.2059 201.929 80.3759 201.92 80.5455C201.92 80.9182 201.92 81.4546 201.92 82.0727C201.92 83.4546 201.92 85.4364 201.92 87.9455C201.92 93.0637 201.92 100.355 201.92 109.136V109.336H201.82L184.774 109.273L175.329 109.227H170.42H165.429L165.184 108.991C165.256 98.4818 165.32 88.5546 165.374 79.9V79.6909H165.584L191.947 79.9455L199.365 80.0455H201.311H201.802L201.938 80.1091Z" fill="#263238"/>
<path d="M166.818 81.7406L166.672 107.177L200.508 107.371L200.654 81.9355L166.818 81.7406Z" fill="#FF725E"/>
<path d="M166.637 107.173L178.546 91.4363L185.809 101.364L190.809 96.109L200.482 107.364L166.637 107.173Z" fill="#FF725E"/>
<path d="M188.205 91.4152C189.245 90.375 189.245 88.6885 188.205 87.6483C187.165 86.608 185.478 86.6081 184.438 87.6483C183.398 88.6885 183.398 90.375 184.438 91.4152C185.478 92.4554 187.165 92.4554 188.205 91.4152Z" fill="#FF725E"/>
<path opacity="0.2" d="M166.637 107.173L178.546 91.4363L185.809 101.364L190.809 96.109L200.482 107.364L166.637 107.173Z" fill="#111111"/>
<g opacity="0.2">
<path opacity="0.2" d="M188.205 91.415C189.245 90.3748 189.245 88.6882 188.205 87.648C187.165 86.6078 185.478 86.6078 184.438 87.648C183.398 88.6882 183.398 90.3748 184.438 91.415C185.478 92.4552 187.165 92.4552 188.205 91.415Z" fill="#111111"/>
</g>
<path d="M255.546 132.818C255.384 132.846 255.22 132.862 255.055 132.864H253.646L248.483 132.936L231.419 133.009L214.364 132.936L209.192 132.864H207.792C207.627 132.862 207.463 132.847 207.301 132.818C207.461 132.776 207.626 132.758 207.792 132.764H209.192L214.364 132.691L231.419 132.627L248.483 132.691L253.637 132.727H255.046C255.216 132.734 255.385 132.765 255.546 132.818Z" fill="#455A64"/>
<path d="M284.992 140.245C284.992 140.372 267.601 140.482 246.146 140.482C224.692 140.482 207.301 140.372 207.301 140.245C207.301 140.118 224.692 140.009 246.146 140.009C267.601 140.009 284.992 140.118 284.992 140.245Z" fill="#455A64"/>
<path d="M260.71 147.273C260.71 147.409 248.755 147.509 234.01 147.509C219.264 147.509 207.273 147.373 207.273 147.273C207.273 147.173 219.228 147.036 233.983 147.036C248.737 147.036 260.71 147.109 260.71 147.273Z" fill="#455A64"/>
<path d="M286.529 160.845L284.111 158.427L281.82 160.718V153.791H286.529V160.845ZM284.111 158.118L284.193 158.191L286.311 160.327V153.964H282.029V160.163L284.111 158.118Z" fill="#263238"/>
<path d="M222.246 159.945L221.401 159.563C221.066 159.767 220.684 159.883 220.292 159.9C219.824 159.903 219.366 159.768 218.976 159.512C218.585 159.255 218.279 158.888 218.097 158.457C217.915 158.027 217.864 157.552 217.952 157.093C218.04 156.634 218.262 156.211 218.59 155.878C218.918 155.545 219.337 155.316 219.795 155.222C220.253 155.127 220.728 155.17 221.161 155.346C221.595 155.521 221.966 155.821 222.229 156.208C222.492 156.595 222.634 157.051 222.637 157.518C222.646 158.096 222.438 158.657 222.056 159.091L222.246 159.945ZM220.256 155.327C219.695 155.363 219.17 155.611 218.786 156.02C218.402 156.43 218.188 156.97 218.188 157.532C218.188 158.093 218.402 158.633 218.786 159.043C219.17 159.452 219.695 159.7 220.256 159.736C220.632 159.718 220.998 159.605 221.319 159.409L221.946 159.691L221.801 159.073C222.092 158.756 222.285 158.362 222.354 157.938C222.424 157.514 222.368 157.078 222.193 156.686C222.018 156.293 221.731 155.96 221.369 155.729C221.007 155.497 220.585 155.376 220.156 155.382L220.256 155.327Z" fill="#263238"/>
<path d="M227.73 159.582L226.748 157.2L224.93 155.527H229.366L227.73 159.582ZM225.339 155.691L226.893 157.118L227.73 159.145L229.121 155.654L225.339 155.691Z" fill="#263238"/>
<path d="M229.263 155.477L226.84 157.053L226.929 157.19L229.352 155.614L229.263 155.477Z" fill="#263238"/>
<path d="M215.266 156.027C215.218 155.693 215.047 155.388 214.788 155.171C214.529 154.954 214.199 154.84 213.862 154.852C213.524 154.863 213.202 154.998 212.958 155.232C212.714 155.466 212.565 155.781 212.539 156.118C212.5 155.784 212.34 155.475 212.088 155.251C211.837 155.027 211.512 154.903 211.175 154.903C210.838 154.903 210.513 155.027 210.262 155.251C210.01 155.475 209.85 155.784 209.811 156.118C209.744 156.59 209.865 157.07 210.148 157.454C210.427 157.834 210.754 158.177 211.12 158.473L212.566 159.754C213.057 159.309 213.475 158.845 213.957 158.445C214.318 158.146 214.639 157.801 214.911 157.418C215.209 157.019 215.336 156.519 215.266 156.027Z" fill="#FF725E"/>
<path d="M291.474 166.982C291.474 166.982 291.474 166.709 291.474 166.2C291.474 165.691 291.474 164.936 291.474 163.954C291.474 161.973 291.474 159.054 291.474 155.282C291.474 147.727 291.428 136.745 291.392 122.963L291.547 123.118L160.156 123.2L160.392 122.963C160.392 138.263 160.392 153.1 160.392 166.982L160.165 166.745L254.183 166.854L281.628 166.918H288.992H290.901C291.337 166.918 291.565 166.918 291.565 166.918H290.938H289.056H281.728L254.337 166.982L160.165 167.091H159.938V166.863C159.938 152.982 159.938 138.145 159.938 122.845V122.727H160.183L291.574 122.809H291.728V122.963C291.728 136.782 291.665 147.8 291.647 155.373C291.647 159.136 291.647 162.036 291.601 164.009C291.601 164.982 291.601 165.727 291.601 166.236C291.601 166.745 291.474 166.982 291.474 166.982Z" fill="#263238"/>
<path d="M165.57 130.323L165.402 159.423L201.802 159.632L201.969 130.533L165.57 130.323Z" fill="#EBEBEB"/>
<path d="M201.938 130.527H201.238H199.247H191.82H165.575L165.793 130.318C165.747 138.982 165.702 148.909 165.647 159.409L165.42 159.173H167.929H170.42H175.32L184.766 159.236L201.811 159.363L201.611 159.554C201.702 150.827 201.784 143.582 201.829 138.491C201.829 135.963 201.902 133.945 201.92 132.582C201.92 131.918 201.92 131.391 201.92 131.009C201.92 130.627 201.92 130.463 201.92 130.463C201.929 130.633 201.929 130.803 201.92 130.973C201.92 131.345 201.92 131.882 201.92 132.5C201.92 133.882 201.92 135.854 201.92 138.363C201.92 143.491 201.92 150.782 201.92 159.563V159.754H201.82L184.775 159.691H175.329H170.42H167.929H165.429C165.638 159.9 165.129 159.4 165.184 159.445C165.257 148.945 165.32 139.018 165.375 130.354V130.145H165.584L191.947 130.4L199.366 130.5H201.311H201.82C201.893 130.518 201.938 130.518 201.938 130.527Z" fill="#263238"/>
<path d="M166.814 132.167L166.668 157.603L200.504 157.798L200.65 132.362L166.814 132.167Z" fill="#FF725E"/>
<path d="M166.637 157.591L178.546 141.845L185.809 151.782L190.809 146.527L200.482 157.782L166.637 157.591Z" fill="#FF725E"/>
<path d="M188.213 141.839C189.253 140.799 189.253 139.112 188.213 138.072C187.173 137.032 185.486 137.032 184.446 138.072C183.406 139.112 183.406 140.799 184.446 141.839C185.486 142.879 187.173 142.879 188.213 141.839Z" fill="#FF725E"/>
<path opacity="0.2" d="M166.637 157.591L178.546 141.845L185.809 151.782L190.809 146.527L200.482 157.782L166.637 157.591Z" fill="#111111"/>
<g opacity="0.2">
<path opacity="0.2" d="M188.213 141.839C189.253 140.799 189.253 139.112 188.213 138.072C187.173 137.032 185.486 137.032 184.446 138.072C183.406 139.112 183.406 140.799 184.446 141.839C185.486 142.879 187.173 142.879 188.213 141.839Z" fill="#111111"/>
</g>
<path d="M217.91 184.8C217.748 184.834 217.583 184.849 217.419 184.845H216.009L210.846 184.918L193.791 184.991L176.728 184.918L171.555 184.845H170.155C169.99 184.85 169.825 184.835 169.664 184.8C169.824 184.759 169.99 184.744 170.155 184.754H171.555L176.728 184.673L193.791 184.609L210.846 184.673L216.009 184.754H217.419C217.584 184.745 217.749 184.76 217.91 184.8Z" fill="#455A64"/>
<path d="M286.529 308.182L284.111 305.755L281.82 308V301.073H286.529V308.182ZM284.111 305.455L284.193 305.527L286.311 307.664V301.3H282.029V307.5L284.111 305.455Z" fill="#263238"/>
<path d="M183.464 307.273L182.618 306.891C182.279 307.086 181.9 307.202 181.509 307.227C181.04 307.233 180.579 307.099 180.186 306.842C179.792 306.585 179.484 306.218 179.3 305.786C179.115 305.354 179.063 304.877 179.15 304.415C179.237 303.954 179.459 303.528 179.788 303.193C180.117 302.858 180.538 302.628 180.998 302.532C181.458 302.436 181.936 302.479 182.371 302.655C182.807 302.831 183.18 303.132 183.444 303.52C183.708 303.909 183.851 304.367 183.855 304.836C183.863 305.417 183.656 305.981 183.273 306.418L183.464 307.273ZM181.473 302.655C180.913 302.691 180.387 302.938 180.003 303.348C179.619 303.757 179.405 304.298 179.405 304.859C179.405 305.42 179.619 305.961 180.003 306.37C180.387 306.78 180.913 307.028 181.473 307.064C181.85 307.042 182.215 306.926 182.537 306.727L183.164 307.009L183.018 306.391C183.311 306.076 183.505 305.682 183.575 305.258C183.645 304.834 183.589 304.398 183.414 304.006C183.238 303.613 182.951 303.281 182.588 303.05C182.225 302.82 181.803 302.701 181.373 302.709L181.473 302.655Z" fill="#263238"/>
<path d="M188.948 306.864L187.967 304.482L186.148 302.818H190.585L188.948 306.864ZM186.558 302.973L188.112 304.409L188.948 306.436L190.339 302.945L186.558 302.973Z" fill="#263238"/>
<path d="M190.497 302.763L188.074 304.34L188.163 304.477L190.586 302.9L190.497 302.763Z" fill="#263238"/>
<path d="M176.485 303.309C176.436 302.975 176.266 302.67 176.007 302.453C175.748 302.236 175.418 302.122 175.08 302.134C174.743 302.145 174.421 302.28 174.177 302.514C173.933 302.748 173.783 303.063 173.757 303.4C173.725 303.065 173.57 302.753 173.322 302.524C173.074 302.296 172.751 302.166 172.414 302.161C172.077 302.155 171.75 302.274 171.494 302.494C171.239 302.714 171.074 303.02 171.03 303.355C170.962 303.827 171.083 304.307 171.366 304.691C171.645 305.071 171.972 305.413 172.339 305.709L173.785 307C174.276 306.555 174.694 306.136 175.176 305.691C175.521 305.385 175.827 305.037 176.085 304.655C176.386 304.274 176.53 303.792 176.485 303.309Z" fill="#FF725E"/>
<path d="M291.473 312.8C291.473 312.8 291.473 312.573 291.473 312.145C291.473 311.718 291.473 311.055 291.473 310.209C291.473 308.509 291.473 305.991 291.473 302.709C291.473 296.146 291.473 286.536 291.418 274.318C291.418 249.909 291.354 215.073 291.309 173.409L291.518 173.618L160.091 173.636L160.327 173.4C160.327 224.618 160.327 272.491 160.327 312.818L160.118 312.618L255.373 312.718L282.045 312.773H289.091H291.518H289.136H282.136L255.5 312.827L160.118 312.936H159.918V312.727C159.918 272.418 159.918 224.545 159.918 173.309V173.073H160.173H291.554H291.763V173.282C291.718 215.027 291.682 249.909 291.654 274.355C291.654 286.546 291.609 296.173 291.6 302.7C291.6 305.955 291.6 308.464 291.6 310.155C291.6 310.991 291.6 311.627 291.6 312.064C291.6 312.5 291.473 312.8 291.473 312.8Z" fill="#263238"/>
<path d="M282.027 286.364C282.027 286.491 257.164 286.6 226.5 286.6C195.836 286.6 170.973 286.491 170.973 286.364C170.973 286.236 195.827 286.127 226.5 286.127C257.173 286.127 282.027 286.209 282.027 286.364Z" fill="#455A64"/>
<path d="M231.418 294.691C231.418 294.818 217.891 294.927 201.2 294.927C184.509 294.927 170.973 294.818 170.973 294.691C170.973 294.564 184.5 294.455 201.2 294.455C217.9 294.455 231.418 294.546 231.418 294.691Z" fill="#455A64"/>
<path d="M271.82 272.345C273.628 272.111 275.453 272.032 277.275 272.109L277.038 272.345V271.263C277.038 270.918 277.038 270.582 277.038 270.245C277.038 269.645 277.038 269.073 277.084 268.509C277.057 267.97 277.116 267.43 277.257 266.909C277.386 267.432 277.441 267.971 277.42 268.509C277.42 269.073 277.42 269.645 277.475 270.245C277.475 270.582 277.475 270.918 277.475 271.263C277.475 271.445 277.475 271.627 277.475 271.809V272.345L277.238 272.582C275.429 272.662 273.616 272.583 271.82 272.345Z" fill="#E0E0E0"/>
<path d="M250.582 272.345C254.105 272.03 257.65 272.03 261.173 272.345C257.65 272.66 254.105 272.66 250.582 272.345Z" fill="#E0E0E0"/>
<path d="M229.402 272.345C232.926 272.03 236.47 272.03 239.993 272.345C236.47 272.66 232.926 272.66 229.402 272.345Z" fill="#E0E0E0"/>
<path d="M208.184 272.345C211.707 272.03 215.251 272.03 218.774 272.345C215.251 272.66 211.707 272.66 208.184 272.345Z" fill="#E0E0E0"/>
<path d="M187.02 272.345C190.546 272.03 194.093 272.03 197.62 272.345C194.093 272.66 190.546 272.66 187.02 272.345Z" fill="#E0E0E0"/>
<path d="M170.974 266.891C171.213 268.699 171.292 270.524 171.211 272.345L170.974 272.109H173.102L174.829 272.164C175.367 272.143 175.906 272.198 176.429 272.327C175.907 272.463 175.368 272.521 174.829 272.5L173.102 272.545H172.074H170.974L170.738 272.309C170.664 270.5 170.743 268.687 170.974 266.891Z" fill="#E0E0E0"/>
<path d="M170.975 247.336C171.29 250.589 171.29 253.865 170.975 257.118C170.659 253.865 170.659 250.589 170.975 247.336Z" fill="#E0E0E0"/>
<path d="M170.975 227.791C171.29 231.041 171.29 234.314 170.975 237.563C170.659 234.314 170.659 231.041 170.975 227.791Z" fill="#E0E0E0"/>
<path d="M170.975 208.236C171.29 211.486 171.29 214.759 170.975 218.009C170.659 214.759 170.659 211.486 170.975 208.236Z" fill="#E0E0E0"/>
<path d="M176.429 193C174.622 193.239 172.796 193.318 170.975 193.236C171.447 192.763 171.111 193.109 171.211 193.009V194.091C171.211 194.445 171.211 194.782 171.211 195.118C171.211 195.718 171.211 196.291 171.166 196.854C171.187 197.39 171.128 197.926 170.993 198.445C170.864 197.925 170.809 197.39 170.829 196.854C170.829 196.291 170.829 195.718 170.775 195.118C170.775 194.782 170.775 194.445 170.775 194.091V193.009C170.884 192.9 170.538 193.236 171.011 192.763C172.821 192.689 174.633 192.768 176.429 193Z" fill="#E0E0E0"/>
<path d="M197.62 193C194.093 193.315 190.546 193.315 187.02 193C190.546 192.685 194.093 192.685 197.62 193Z" fill="#E0E0E0"/>
<path d="M218.802 193C215.279 193.315 211.734 193.315 208.211 193C211.734 192.685 215.279 192.685 218.802 193Z" fill="#E0E0E0"/>
<path d="M240.001 193C236.478 193.315 232.933 193.315 229.41 193C232.933 192.685 236.478 192.685 240.001 193Z" fill="#E0E0E0"/>
<path d="M261.173 193C257.65 193.315 254.105 193.315 250.582 193C254.105 192.685 257.65 192.685 261.173 193Z" fill="#E0E0E0"/>
<path d="M277.275 198.454C277.035 196.647 276.956 194.821 277.038 193C277.511 193.473 277.166 193.136 277.266 193.236H276.175H275.148H273.411C272.875 193.262 272.338 193.204 271.82 193.063C272.34 192.935 272.876 192.88 273.411 192.9L275.148 192.845H277.266C277.375 192.954 277.039 192.609 277.511 193.082C277.583 194.876 277.504 196.673 277.275 198.454Z" fill="#E0E0E0"/>
<path d="M277.272 218.009C276.956 214.759 276.956 211.486 277.272 208.236C277.587 211.486 277.587 214.759 277.272 218.009Z" fill="#E0E0E0"/>
<path d="M277.272 237.563C276.956 234.314 276.956 231.041 277.272 227.791C277.587 231.041 277.587 234.314 277.272 237.563Z" fill="#E0E0E0"/>
<path d="M277.272 257.118C276.956 253.865 276.956 250.589 277.272 247.336C277.587 250.589 277.587 253.865 277.272 257.118Z" fill="#E0E0E0"/>
<path d="M220.004 320.427C220.072 320.894 219.997 321.37 219.786 321.792C219.576 322.214 219.242 322.562 218.828 322.789C218.415 323.015 217.942 323.11 217.473 323.059C217.004 323.009 216.562 322.816 216.206 322.507C215.85 322.198 215.597 321.787 215.481 321.33C215.365 320.873 215.392 320.391 215.558 319.95C215.724 319.509 216.022 319.129 216.41 318.861C216.798 318.594 217.259 318.452 217.731 318.454C218.293 318.419 218.846 318.606 219.271 318.975C219.696 319.344 219.959 319.866 220.004 320.427Z" fill="#455A64"/>
<path d="M227.055 320.463C227.123 320.93 227.047 321.406 226.837 321.829C226.627 322.251 226.293 322.598 225.879 322.825C225.466 323.052 224.993 323.146 224.524 323.096C224.055 323.045 223.613 322.853 223.256 322.544C222.9 322.234 222.647 321.824 222.532 321.367C222.416 320.909 222.443 320.428 222.609 319.986C222.775 319.545 223.072 319.165 223.461 318.898C223.849 318.63 224.31 318.488 224.782 318.491C225.061 318.471 225.34 318.506 225.606 318.595C225.871 318.683 226.116 318.823 226.327 319.006C226.538 319.189 226.711 319.412 226.836 319.662C226.961 319.912 227.035 320.185 227.055 320.463Z" fill="#455A64"/>
<path d="M234.137 320.491C234.205 320.957 234.13 321.433 233.92 321.855C233.71 322.277 233.376 322.625 232.963 322.851C232.55 323.078 232.078 323.173 231.609 323.124C231.141 323.074 230.698 322.882 230.342 322.574C229.985 322.266 229.732 321.856 229.615 321.4C229.498 320.943 229.524 320.462 229.689 320.02C229.853 319.579 230.149 319.198 230.536 318.93C230.923 318.661 231.384 318.518 231.855 318.518C232.418 318.481 232.974 318.667 233.401 319.036C233.828 319.405 234.092 319.928 234.137 320.491Z" fill="#455A64"/>
<path d="M151.82 179.818C150.638 179.155 145.811 184.236 146.057 182.673C146.302 181.109 152.857 176.991 151.584 176.309C149.92 175.455 144.993 180.855 144.529 181.291C144.066 181.727 143.275 181.218 143.72 180.846C144.347 180.309 150.829 174.536 149.175 173.682C148.266 173.209 147.357 174.591 147.357 174.591C147.357 174.591 141.793 180.346 141.047 179.918C140.302 179.491 143.411 176.027 144.566 174.918C145.72 173.809 145.529 172.955 144.502 172.955C143.811 172.955 140.166 176.291 139.048 177.409C137.929 178.527 134.957 181.636 134.875 179.173C134.793 176.709 133.575 174.846 132.793 174.527C132.011 174.209 131.175 174.964 131.602 175.646C131.96 176.411 132.185 177.232 132.266 178.073C132.355 178.654 132.33 179.247 132.193 179.818C129.411 182.118 109.466 198.5 107.138 197.8C104.648 197.055 95.0839 165.873 95.0839 165.873L85.293 194.273C85.293 194.273 92.1566 214.791 104.857 215.009C120.093 215.264 141.757 187.827 141.757 187.827C144.629 186.082 147.702 184.136 149.257 182.909C152.557 180.3 152.275 180.073 151.82 179.818Z" fill="#FFBE9D"/>
<path d="M21.4717 330.045L16.5898 334.4L17.2171 335.155C20.008 338.509 31.6444 352.018 34.2808 353.555C37.2171 355.255 30.2808 343.373 30.2808 343.373L32.2898 341.491" fill="#FF725E"/>
<g opacity="0.5">
<path opacity="0.5" d="M20.5916 338.5C21.4089 337.424 21.7976 336.083 21.6825 334.737C21.5789 333.405 20.9825 332.16 20.0098 331.246L16.7734 334.255L20.5916 338.5Z" fill="white"/>
</g>
<path opacity="0.5" d="M33.4989 349.346C33.4989 349.346 35.708 353.709 34.7443 353.809C33.7807 353.909 21.4989 340.7 16.5625 334.4L16.8443 334.173L31.0261 349.7C31.0261 349.7 32.8443 348.691 33.4989 349.346Z" fill="white"/>
<path d="M16.707 333.982C16.707 333.982 16.7616 334.064 16.8707 334.209L17.3707 334.809L19.1888 336.991C20.7707 338.809 22.9979 341.336 25.5525 344.055C28.107 346.773 30.407 349.173 32.1161 350.891L34.1616 352.909L34.7252 353.455L34.9252 353.627C34.8745 353.555 34.8166 353.488 34.7525 353.427L34.207 352.864L32.2161 350.8C30.5252 349.055 28.207 346.636 25.6888 343.918C23.1707 341.2 20.9343 338.718 19.3252 336.909L17.4161 334.764L16.8888 334.182C16.8354 334.109 16.7744 334.042 16.707 333.982Z" fill="#263238"/>
<path d="M30.9102 349.864C31.3485 349.639 31.8084 349.46 32.2829 349.327C32.7719 349.266 33.2666 349.266 33.7556 349.327C33.2903 349.087 32.7524 349.029 32.2465 349.164C31.7318 349.23 31.2577 349.478 30.9102 349.864Z" fill="#263238"/>
<path d="M29.4338 344.845C29.4338 344.9 29.7974 344.845 30.2156 344.8C30.4783 344.776 30.7326 344.696 30.961 344.564C30.961 344.509 30.6065 344.564 30.1792 344.609C29.752 344.655 29.4247 344.791 29.4338 344.845Z" fill="#263238"/>
<path d="M29.0898 343.446C29.0898 343.5 29.3717 343.573 29.7353 343.6C30.0989 343.627 30.3989 343.6 30.408 343.6C30.4171 343.6 30.1171 343.482 29.7535 343.446C29.3898 343.409 29.0898 343.391 29.0898 343.446Z" fill="#263238"/>
<path d="M29.5977 341.818C29.5977 341.818 29.7795 342.164 30.0795 342.5C30.3795 342.836 30.6704 343.082 30.7067 343.045C30.7431 343.009 30.534 342.709 30.2249 342.364C29.9158 342.018 29.634 341.818 29.5977 341.818Z" fill="#263238"/>
<path d="M30.1797 340.909C30.2312 341.231 30.3803 341.529 30.607 341.764C30.9433 342.191 31.3252 342.418 31.3524 342.373C31.1736 342.116 30.9761 341.873 30.7615 341.646C30.4433 341.264 30.2342 340.909 30.1797 340.909Z" fill="#263238"/>
<path d="M30.8082 344.3C30.9997 344.582 31.2362 344.831 31.5082 345.036C31.7899 345.275 32.0944 345.485 32.4173 345.664C32.6069 345.784 32.8117 345.879 33.0264 345.945C33.1553 345.994 33.2976 345.994 33.4264 345.945C33.4918 345.905 33.5444 345.847 33.5781 345.777C33.6119 345.708 33.6255 345.631 33.6173 345.555C33.5364 345.284 33.3956 345.035 33.2053 344.826C33.0151 344.617 32.7803 344.454 32.5183 344.349C32.2563 344.243 31.9739 344.198 31.6921 344.216C31.4102 344.234 31.1361 344.316 30.89 344.455C30.8056 344.496 30.7312 344.555 30.6719 344.627C30.9732 344.488 31.296 344.402 31.6264 344.373C31.9773 344.359 32.3247 344.448 32.6264 344.627C32.9881 344.821 33.2615 345.147 33.3901 345.536C33.3901 345.736 33.2264 345.818 33.0264 345.764C32.8298 345.7 32.6408 345.614 32.4628 345.509C32.1444 345.34 31.8403 345.146 31.5537 344.927C31.0991 344.545 30.8355 344.273 30.8082 344.3Z" fill="#263238"/>
<path d="M30.9519 344.546C31.1904 344.487 31.4 344.345 31.5428 344.146C31.7176 343.945 31.8395 343.705 31.8974 343.446C31.952 343.281 31.9631 343.105 31.9296 342.934C31.8962 342.764 31.8193 342.605 31.7065 342.473C31.6192 342.411 31.5115 342.387 31.4062 342.404C31.3009 342.421 31.2064 342.478 31.1428 342.564C31.0375 342.689 30.9656 342.839 30.9338 343C30.8611 343.249 30.8184 343.505 30.8065 343.764C30.7782 344.005 30.8126 344.249 30.9065 344.473C30.9065 344.473 30.9065 344.2 30.9065 343.773C30.9373 343.526 30.989 343.283 31.061 343.046C31.1247 342.8 31.3428 342.464 31.5519 342.627C31.6323 342.739 31.6863 342.867 31.7099 343.003C31.7336 343.138 31.7262 343.277 31.6883 343.409C31.6406 343.644 31.5447 343.867 31.4065 344.064C31.1883 344.382 30.9065 344.491 30.9519 344.546Z" fill="#263238"/>
<path d="M20.0898 331.282C20.3607 331.571 20.6156 331.874 20.8535 332.191C21.4123 332.942 21.7466 333.836 21.8174 334.769C21.8882 335.703 21.6926 336.637 21.2535 337.464C20.9262 338.1 20.608 338.427 20.6353 338.454C20.6626 338.482 20.7353 338.391 20.8717 338.236C21.0617 338.017 21.2292 337.78 21.3717 337.527C21.867 336.684 22.0932 335.711 22.0201 334.736C21.947 333.761 21.578 332.832 20.9626 332.073C20.7828 331.842 20.5786 331.632 20.3535 331.445C20.1989 331.327 20.0989 331.273 20.0898 331.282Z" fill="#263238"/>
<path d="M23.0625 338.909C23.4533 339.572 23.9268 340.183 24.4716 340.727C24.9653 341.326 25.5406 341.852 26.1807 342.291C26.1807 342.291 25.4625 341.536 24.608 340.6C23.7534 339.664 23.108 338.882 23.0625 338.909Z" fill="#263238"/>
<path d="M20.9628 336.646C20.9082 336.646 20.8628 336.855 20.7628 337.091C20.6628 337.327 20.5446 337.509 20.5809 337.555C20.6173 337.6 20.8173 337.436 20.9355 337.164C21.0537 336.891 21.0173 336.636 20.9628 336.646Z" fill="#263238"/>
<path d="M21.2343 334.8C21.1798 334.8 21.1252 334.982 21.1161 335.218C21.107 335.455 21.1161 335.636 21.1979 335.636C21.2798 335.636 21.2979 335.455 21.307 335.227C21.3161 335 21.2798 334.8 21.2343 334.8Z" fill="#263238"/>
<path d="M20.582 333.127C20.582 333.173 20.6911 333.318 20.7911 333.545C20.8911 333.773 20.9184 333.982 20.9729 333.982C21.0275 333.982 21.0911 333.745 20.9729 333.464C20.8548 333.182 20.6093 333.082 20.582 333.127Z" fill="#263238"/>
<path d="M19.9989 332.036C19.9535 332.036 19.9535 332.182 19.9989 332.309C20.0444 332.436 20.1353 332.536 20.1808 332.509C20.2262 332.482 20.1808 332.373 20.1808 332.245C20.1808 332.118 20.0535 332.018 19.9989 332.036Z" fill="#263238"/>
<path d="M120.127 362.036L120.709 364.764C120.709 364.764 134.754 365.055 131.7 366.709C128.972 368.182 110.991 371.127 106.572 371.773L105.582 371.909L104.391 365.336L120.127 362.036Z" fill="#FF725E"/>
<g opacity="0.5">
<path opacity="0.5" d="M111.293 370.636C110.78 369.348 109.808 368.296 108.565 367.682C107.349 367.061 105.945 366.918 104.629 367.282L105.538 371.7L111.293 370.636Z" fill="white"/>
</g>
<path opacity="0.5" d="M127.618 365.164C127.618 365.164 132.6 365.564 132.164 366.454C131.727 367.345 113.682 371 105.573 371.909L105.527 371.554L126.627 367.464C126.627 367.464 126.709 365.382 127.618 365.164Z" fill="white"/>
<path d="M105.293 371.609H105.566L106.357 371.491L109.257 371.037C111.702 370.627 115.075 370.027 118.784 369.273C122.493 368.518 125.829 367.773 128.238 367.2L131.093 366.5L131.866 366.291L132.129 366.209L131.848 366.255L131.075 366.418L128.211 367.064C125.793 367.609 122.447 368.337 118.738 369.082C115.029 369.827 111.675 370.455 109.229 370.9L106.348 371.418L105.557 371.564L105.293 371.609Z" fill="#263238"/>
<path d="M126.681 367.727C126.705 367.225 126.791 366.727 126.935 366.246C127.142 365.788 127.394 365.352 127.69 364.946C127.261 365.253 126.935 365.684 126.755 366.18C126.574 366.677 126.549 367.216 126.681 367.727Z" fill="#263238"/>
<path d="M121.535 366.309C121.711 366.103 121.838 365.861 121.908 365.6C122.063 365.191 122.154 364.836 122.099 364.818C121.924 365.024 121.796 365.266 121.726 365.527C121.572 365.936 121.481 366.282 121.535 366.309Z" fill="#263238"/>
<path d="M120.118 365.891C120.118 365.891 120.373 365.7 120.6 365.4C120.827 365.1 120.964 364.837 120.918 364.8C120.873 364.764 120.664 364.991 120.436 365.291C120.209 365.591 120.073 365.855 120.118 365.891Z" fill="#263238"/>
<path d="M119 364.545C119.283 364.58 119.571 364.558 119.845 364.482C120.309 364.391 120.673 364.282 120.655 364.227C120.086 364.205 119.52 364.314 119 364.545Z" fill="#263238"/>
<path d="M118.508 363.564C118.823 363.659 119.156 363.687 119.483 363.647C119.81 363.606 120.125 363.497 120.408 363.327C120.102 363.342 119.797 363.385 119.499 363.455C119.166 363.46 118.834 363.497 118.508 363.564Z" fill="#263238"/>
<path d="M121.816 364.818C122.163 364.804 122.504 364.73 122.825 364.6C123.185 364.483 123.532 364.331 123.862 364.145C124.068 364.042 124.26 363.914 124.435 363.764C124.539 363.67 124.604 363.54 124.616 363.4C124.619 363.321 124.598 363.244 124.556 363.177C124.514 363.11 124.452 363.058 124.38 363.027C123.955 362.914 123.503 362.953 123.103 363.137C122.703 363.321 122.38 363.639 122.189 364.036C122.071 364.268 122.006 364.522 121.998 364.782C121.998 364.964 121.998 365.064 121.998 365.064C122.032 364.728 122.127 364.401 122.28 364.1C122.46 363.79 122.721 363.536 123.035 363.364C123.217 363.255 123.421 363.184 123.631 363.156C123.842 363.128 124.057 363.143 124.262 363.2C124.453 363.282 124.426 363.491 124.262 363.627C124.1 363.767 123.923 363.889 123.735 363.991C123.419 364.179 123.087 364.34 122.744 364.473C122.171 364.709 121.816 364.782 121.816 364.818Z" fill="#263238"/>
<path d="M122.064 364.818C122.152 364.581 122.152 364.319 122.064 364.082C121.976 363.825 121.83 363.591 121.637 363.4C121.525 363.272 121.384 363.174 121.225 363.114C121.067 363.054 120.896 363.033 120.728 363.055C120.63 363.097 120.552 363.175 120.512 363.274C120.471 363.372 120.47 363.483 120.51 363.582C120.564 363.742 120.658 363.885 120.782 364C120.956 364.201 121.158 364.376 121.382 364.518C121.578 364.667 121.805 364.77 122.046 364.818C122.046 364.818 121.81 364.673 121.464 364.409C121.263 364.251 121.078 364.074 120.91 363.882C120.728 363.7 120.555 363.336 120.8 363.236C120.94 363.223 121.081 363.243 121.212 363.293C121.343 363.344 121.46 363.424 121.555 363.527C121.741 363.696 121.887 363.904 121.982 364.136C122.033 364.36 122.06 364.589 122.064 364.818Z" fill="#263238"/>
<path d="M104.735 367.218C104.735 367.218 105.171 367.082 105.908 367.027C106.86 366.937 107.818 367.12 108.67 367.554C109.522 367.989 110.232 368.658 110.717 369.482C110.911 369.83 111.087 370.188 111.244 370.555C111.244 370.555 111.244 370.437 111.18 370.237C111.097 369.951 110.982 369.677 110.835 369.418C110.367 368.543 109.642 367.831 108.758 367.379C107.874 366.928 106.873 366.757 105.89 366.891C105.581 366.924 105.276 366.988 104.98 367.082C104.826 367.155 104.726 367.209 104.735 367.218Z" fill="#263238"/>
<path d="M112.973 368.691C113.765 368.72 114.557 368.64 115.327 368.455C116.11 368.334 116.873 368.114 117.6 367.8C117.6 367.745 116.564 368.018 115.291 368.264C114.018 368.509 112.964 368.636 112.973 368.691Z" fill="#263238"/>
<path d="M109.871 369.318C109.871 369.364 109.998 369.518 110.153 369.736C110.307 369.954 110.407 370.145 110.453 370.136C110.498 370.127 110.453 369.873 110.307 369.618C110.162 369.364 109.889 369.273 109.871 369.318Z" fill="#263238"/>
<path d="M108.41 368.1C108.41 368.1 108.51 368.291 108.71 368.427C108.91 368.564 109.092 368.627 109.119 368.582C109.147 368.536 109.019 368.391 108.819 368.264C108.619 368.136 108.437 368.055 108.41 368.1Z" fill="#263238"/>
<path d="M106.6 367.773C106.6 367.827 106.827 367.773 107.082 367.818C107.336 367.864 107.518 367.945 107.554 367.9C107.591 367.854 107.409 367.664 107.109 367.627C106.809 367.591 106.573 367.727 106.6 367.773Z" fill="#263238"/>
<path d="M105.344 367.709C105.344 367.709 105.444 367.818 105.58 367.845C105.716 367.873 105.844 367.845 105.853 367.791C105.862 367.736 105.762 367.673 105.616 367.655C105.471 367.636 105.353 367.655 105.344 367.709Z" fill="#263238"/>
<path d="M59.8778 232.727C60.7415 233.945 67.6051 284.836 67.6051 284.836L21.4688 330.018L32.2869 341.464C32.2869 341.464 86.5597 295.718 87.6688 290.473C88.996 284.218 85.296 236.427 85.296 236.427L59.8778 232.727Z" fill="#EB996E"/>
<path d="M60.7071 260.664H70.7344L57.7344 240.064L60.7071 260.664Z" fill="#263238"/>
<path d="M90.2344 289.009C93.2798 303.755 104.471 365.618 104.471 365.618L119.971 362.891L112.698 284.782C112.525 282.721 112.107 280.689 111.453 278.728L93.6344 225.118L59.998 203.737C59.6616 203.737 54.5435 217.546 55.2889 227.118C55.6287 231.414 57.0963 235.544 59.5435 239.091C61.6798 242.209 64.6616 246.564 65.3253 247.564C66.3616 249.091 90.2344 289.009 90.2344 289.009Z" fill="#FFBE9D"/>
<path d="M58.443 203.736C58.443 203.736 51.1703 223.891 55.1612 234.418C59.1521 244.945 70.6885 263.009 70.6885 263.009L107.052 246.645L89.7794 215.736V209.864L58.443 203.736Z" fill="#455A64"/>
<path d="M73.5068 261.4C73.3732 261.245 73.2545 261.078 73.1523 260.9L72.2432 259.409C71.4432 258.118 70.3069 256.227 68.9614 253.846C65.3725 247.696 62.5051 241.153 60.4159 234.346C59.3249 230.573 58.6482 226.692 58.3978 222.773C58.1849 219.572 58.3374 216.357 58.8523 213.191C59.1942 211.057 59.7359 208.96 60.4705 206.927C60.7159 206.2 60.9796 205.664 61.125 205.291C61.1941 205.099 61.2856 204.916 61.3978 204.746C61.3546 204.945 61.2938 205.139 61.2159 205.327C61.0978 205.709 60.8614 206.237 60.6432 206.982C59.9812 209.022 59.4916 211.114 59.1796 213.237C58.7197 216.378 58.5978 219.56 58.8159 222.727C59.0868 226.613 59.7695 230.459 60.8523 234.2C62.9393 240.975 65.7526 247.503 69.2432 253.673C70.5432 256.064 71.6341 257.973 72.3796 259.3L73.2341 260.837C73.3503 261.011 73.4421 261.201 73.5068 261.4Z" fill="#263238"/>
<path d="M83.2168 256.945C83.0898 256.806 82.9771 256.653 82.8805 256.491C82.6441 256.145 82.3441 255.7 81.9714 255.145C81.1986 253.964 80.0986 252.255 78.7804 250.109C75.2647 244.564 72.2497 238.716 69.7714 232.636C67.2978 226.519 65.9756 219.998 65.8714 213.4C65.8639 211.409 66.0159 209.421 66.3259 207.455C66.4259 206.755 66.5623 206.218 66.635 205.855C66.6645 205.668 66.7132 205.485 66.7804 205.309C66.7869 205.499 66.7686 205.688 66.7259 205.873C66.7259 206.245 66.5804 206.782 66.5077 207.482C66.2683 209.445 66.1681 211.423 66.2077 213.4C66.4055 219.951 67.7629 226.414 70.2168 232.491C72.6954 238.537 75.6628 244.372 79.0895 249.936L82.1441 255.045L82.9713 256.445C83.0749 256.601 83.1575 256.769 83.2168 256.945Z" fill="#263238"/>
<path d="M93.5695 251.9C93.5695 251.9 93.4423 251.782 93.2423 251.527L92.3332 250.4C91.5786 249.427 90.515 247.964 89.3423 246.127C88.1695 244.291 86.7605 242.027 85.3514 239.473C83.9423 236.918 82.5514 234.018 81.2241 230.927C79.8968 227.836 78.8332 224.791 77.9514 222.009C77.0695 219.227 76.415 216.682 75.9423 214.527C75.4696 212.373 75.1241 210.618 74.9423 209.4C74.8605 208.827 74.7968 208.364 74.7423 207.991C74.7161 207.828 74.7161 207.663 74.7423 207.5C74.8 207.653 74.8426 207.811 74.8695 207.973C74.9513 208.345 75.0423 208.8 75.1604 209.364C75.3968 210.573 75.7786 212.309 76.2968 214.445C76.815 216.582 77.5241 219.109 78.4059 221.882C79.2877 224.655 80.3968 227.645 81.6968 230.736C82.9968 233.827 84.4241 236.7 85.7786 239.264C87.1332 241.827 88.5059 244.091 89.6605 245.945C90.815 247.8 91.815 249.291 92.5241 250.291L93.315 251.473C93.4182 251.603 93.5038 251.747 93.5695 251.9Z" fill="#263238"/>
<path d="M101.263 248.918C100.968 248.422 100.704 247.909 100.472 247.382C99.9807 246.382 99.2353 244.964 98.2444 243.255C96.2899 239.8 93.1262 235.318 90.0626 230.091C88.6073 227.627 87.3546 225.049 86.3171 222.382C85.4622 220.202 84.8524 217.933 84.499 215.618C84.2617 214.06 84.1886 212.482 84.2808 210.909C84.2808 210.345 84.3808 209.918 84.408 209.627C84.4236 209.48 84.451 209.334 84.4899 209.191C84.5199 209.763 84.5199 210.337 84.4899 210.909C84.4691 212.471 84.5909 214.032 84.8535 215.573C85.251 217.851 85.8848 220.081 86.7444 222.227C87.7942 224.863 89.0464 227.413 90.4899 229.855C93.5626 235.055 96.6899 239.582 98.5808 243.091C99.5444 244.827 100.244 246.282 100.681 247.3C100.917 247.809 101.063 248.209 101.172 248.491C101.216 248.63 101.247 248.773 101.263 248.918Z" fill="#263238"/>
<path d="M90.6826 195.564L104.274 186.727C104.274 186.727 97.0008 159.091 85.8008 158.2L85.3008 168.3L90.6826 195.564Z" fill="#263238"/>
<path d="M66.135 154.618C66.135 154.618 48.7441 152.746 53.4078 177.609L57.8805 203.773L89.0896 209.9L95.9078 178.318C97.9896 168.782 94.1623 164.218 94.1623 164.218C93.2479 162.694 92.0307 161.374 90.586 160.339C89.1412 159.304 87.4995 158.576 85.7623 158.2L66.0987 154.618" fill="#263238"/>
<path d="M90.4477 170.127C90.1721 171.324 90.1721 172.567 90.4477 173.764C90.7878 175.06 91.3016 176.305 91.975 177.464C92.8331 178.899 93.5748 180.401 94.1931 181.955C95.2063 184.872 95.2477 188.039 94.3113 190.982C94.0288 191.861 93.654 192.709 93.1932 193.509C93.0359 193.811 92.837 194.09 92.6022 194.337C93.1475 193.221 93.6094 192.066 93.9841 190.882C94.8044 188.002 94.7219 184.94 93.7477 182.109C93.1363 180.579 92.4132 179.097 91.584 177.673C90.9144 176.471 90.4215 175.179 90.1204 173.837C89.9338 172.922 89.9338 171.979 90.1204 171.064C90.1654 170.733 90.2767 170.414 90.4477 170.127Z" fill="#455A64"/>
<path d="M81.5724 190.4C80.2107 191.144 78.7797 191.753 77.2996 192.218C75.8695 192.812 74.3832 193.259 72.8633 193.555C74.2186 192.798 75.651 192.188 77.136 191.737C78.5639 191.137 80.0509 190.689 81.5724 190.4Z" fill="#455A64"/>
<path d="M85.4991 119.582C86.3861 121.32 86.7493 123.278 86.5445 125.218C86.4082 126.482 86.0627 127.882 86.7627 128.945C87.6172 130.227 89.6263 130.336 90.4627 131.673C91.6718 133.545 89.5536 136.218 90.5173 138.191C91.1536 139.518 92.8354 139.909 93.9809 140.845C94.7545 141.53 95.2788 142.453 95.4713 143.468C95.6638 144.483 95.5137 145.534 95.0445 146.455C94.2172 148.064 92.59 149.073 91.0445 150.009L87.4991 152.145C86.9088 152.6 86.1801 152.837 85.4354 152.818C84.1354 152.636 83.5263 151.055 82.3445 150.464C80.89 149.736 79.1991 150.745 77.5718 150.855C76.9638 150.898 76.3536 150.81 75.7825 150.597C75.2114 150.383 74.6928 150.05 74.2618 149.619C73.8307 149.188 73.4974 148.669 73.2842 148.098C73.0711 147.527 72.9831 146.917 73.0263 146.309" fill="#FF725E"/>
<path d="M81.5085 156.8C81.1176 152.709 80.7812 148.409 80.7812 148.409C80.7812 148.409 85.9539 147.018 86.3721 140.046C86.763 133.4 84.1994 118.391 84.1994 118.391C80.3189 117.258 76.1848 117.339 72.3516 118.622C68.5184 119.906 65.1694 122.331 62.7539 125.573L66.463 158.691C66.5984 159.627 66.9182 160.528 67.4038 161.34C67.8894 162.151 68.5313 162.859 69.2922 163.421C70.0531 163.983 70.918 164.389 71.8368 164.615C72.7556 164.841 73.71 164.882 74.6448 164.736C76.5941 164.56 78.3989 163.635 79.6792 162.154C80.9595 160.674 81.6153 158.754 81.5085 156.8Z" fill="#FFBE9D"/>
<path d="M84.7447 130.227C84.7638 130.455 84.6968 130.681 84.5571 130.861C84.4173 131.041 84.215 131.162 83.9901 131.2C83.8789 131.221 83.7646 131.219 83.6541 131.195C83.5436 131.171 83.439 131.125 83.3466 131.06C83.2542 130.994 83.1759 130.911 83.1162 130.815C83.0565 130.719 83.0167 130.612 82.9992 130.5C82.9803 130.271 83.0485 130.044 83.1901 129.864C83.3318 129.683 83.5363 129.563 83.7628 129.527C83.8735 129.507 83.9872 129.508 84.0972 129.533C84.2071 129.557 84.3111 129.603 84.4028 129.668C84.4945 129.734 84.572 129.817 84.6307 129.913C84.6895 130.009 84.7282 130.116 84.7447 130.227Z" fill="#263238"/>
<path d="M84.7442 129.264C84.6442 129.382 83.926 128.955 82.9806 129.055C82.0351 129.155 81.3896 129.691 81.2715 129.582C81.1533 129.473 81.2715 129.318 81.5897 129.073C81.9723 128.748 82.4449 128.549 82.9442 128.5C83.4376 128.452 83.9335 128.56 84.3624 128.809C84.6715 129.009 84.7897 129.2 84.7442 129.264Z" fill="#263238"/>
<path d="M74.8971 131.509C74.916 131.738 74.8478 131.965 74.7062 132.145C74.5645 132.326 74.36 132.446 74.1335 132.482C74.0223 132.501 73.9083 132.498 73.7983 132.473C73.6883 132.448 73.5845 132.4 73.493 132.334C73.4015 132.268 73.3241 132.185 73.2655 132.088C73.2069 131.992 73.1682 131.884 73.1516 131.773C73.1325 131.546 73.1995 131.319 73.3392 131.139C73.479 130.959 73.6813 130.838 73.9062 130.8C74.0179 130.781 74.1324 130.784 74.243 130.809C74.3536 130.834 74.458 130.881 74.5502 130.947C74.6425 131.013 74.7206 131.097 74.7802 131.193C74.8397 131.29 74.8795 131.397 74.8971 131.509Z" fill="#263238"/>
<path d="M74.9004 130.573C74.8004 130.7 74.0823 130.273 73.1368 130.373C72.1914 130.473 71.5459 131.009 71.4277 130.9C71.3095 130.791 71.4277 130.636 71.7459 130.391C72.1254 130.061 72.5997 129.861 73.1004 129.818C73.5911 129.769 74.0846 129.877 74.5095 130.127C74.8277 130.327 74.9459 130.518 74.9004 130.573Z" fill="#263238"/>
<path d="M79.0268 137.273C79.5083 137.063 80.0159 136.919 80.5359 136.845C80.7722 136.791 80.9995 136.727 81.0268 136.555C81.0189 136.303 80.9367 136.059 80.7904 135.855L79.8813 134.036C79.0659 132.543 78.3727 130.987 77.8086 129.382C78.7436 130.804 79.5614 132.3 80.2541 133.855C80.5541 134.482 80.845 135.073 81.1631 135.673C81.3346 135.943 81.4113 136.263 81.3813 136.582C81.3521 136.669 81.3045 136.749 81.2418 136.817C81.1791 136.884 81.1027 136.937 81.0177 136.973C80.8861 137.023 80.7487 137.057 80.6086 137.073C80.0924 137.208 79.5605 137.276 79.0268 137.273Z" fill="#263238"/>
<path d="M80.7788 148.409C77.5531 148.772 74.29 148.234 71.3516 146.854C71.3516 146.854 74.0788 151.4 80.8425 150.036L80.7788 148.409Z" fill="#EB996E"/>
<path d="M78.8442 139.582C78.6447 139.374 78.3959 139.22 78.1209 139.134C77.8459 139.048 77.5538 139.034 77.2715 139.091C77.0651 139.132 76.8689 139.213 76.6941 139.33C76.5193 139.447 76.3695 139.597 76.2533 139.773C76.1367 139.939 76.0742 140.138 76.0742 140.341C76.0742 140.544 76.1367 140.742 76.2533 140.909C76.4219 141.065 76.6334 141.166 76.8603 141.2C77.0873 141.234 77.3192 141.199 77.526 141.1C77.9558 140.898 78.3418 140.614 78.6624 140.264C78.7639 140.178 78.8474 140.073 78.9078 139.954C78.943 139.902 78.9618 139.84 78.9618 139.777C78.9618 139.714 78.943 139.652 78.9078 139.6" fill="#FF725E"/>
<path d="M76.2991 138.182C76.4537 138.182 76.5537 139.191 77.5082 139.827C78.4628 140.464 79.5446 140.255 79.5628 140.391C79.5809 140.527 79.3446 140.618 78.8809 140.673C78.2808 140.743 77.6753 140.598 77.1719 140.264C76.7014 139.934 76.3759 139.436 76.2628 138.873C76.1446 138.455 76.2264 138.182 76.2991 138.182Z" fill="#263238"/>
<path d="M82.4082 116.691C82.7873 117.706 82.8285 118.816 82.5254 119.856C82.2223 120.896 81.5913 121.811 80.7263 122.463C78.9627 123.727 76.6172 123.673 74.4809 124.045C72.3445 124.418 69.9354 125.7 69.8082 127.863C69.7263 129.182 70.5082 130.536 70.0354 131.763C69.4809 133.2 67.5172 133.582 66.8263 134.991C65.7172 137.2 68.6445 139.627 68.2082 142.063C67.9627 143.509 66.5991 144.554 66.2991 145.991C65.8809 148.036 67.6627 150.454 66.2991 152.073C65.29 153.309 63.2991 152.891 61.8809 152.145C60.4627 151.4 58.9445 150.4 57.3991 150.809C56.5199 151.194 55.6848 151.672 54.9082 152.236C54.1291 152.655 53.2429 152.833 52.3626 152.746C51.4822 152.66 50.6475 152.313 49.965 151.75C49.2824 151.188 48.7828 150.435 48.5298 149.587C48.2768 148.739 48.2819 147.835 48.5445 146.991C49.0372 145.795 49.7152 144.684 50.5536 143.7C51.3903 142.699 51.7987 141.409 51.69 140.109C51.4018 139.162 50.9495 138.272 50.3536 137.482C50.0603 137.082 49.873 136.615 49.8094 136.124C49.7458 135.633 49.8079 135.133 49.99 134.673C50.8263 133.154 53.3536 133.573 54.4445 132.218C55.9354 130.354 53.2809 127.473 54.2809 125.309C55.4173 122.863 59.8809 123.818 61.0172 121.373C61.4354 120.463 61.2263 119.427 61.4354 118.463C61.8991 116.263 64.39 115.1 66.6354 114.963C68.8809 114.827 71.1809 115.363 73.3627 115.036C74.5809 114.854 75.7536 114.418 76.9991 114.127C78.2042 113.796 79.4858 113.883 80.6354 114.373C81.1944 114.633 81.6488 115.074 81.9245 115.626C82.2002 116.177 82.281 116.806 82.1536 117.409" fill="#FF725E"/>
<path d="M80.9083 121.327C81.4248 122.502 82.204 123.542 83.1859 124.368C84.1678 125.194 85.3263 125.783 86.5719 126.091C86.781 124.403 86.781 122.697 86.5719 121.009C86.3467 119.299 85.5788 117.705 84.381 116.464C83.7809 115.857 83.0364 115.413 82.2174 115.172C81.3985 114.932 80.532 114.904 79.6992 115.091" fill="#FF725E"/>
<g opacity="0.3">
<path opacity="0.3" d="M53.052 151.982C52.9052 151.876 52.7866 151.735 52.7065 151.573C52.6047 151.336 52.563 151.077 52.5852 150.82C52.6074 150.563 52.6928 150.316 52.8338 150.1C53.031 149.786 53.3068 149.529 53.6338 149.354C54.0255 149.139 54.4402 148.968 54.8702 148.845C55.3681 148.699 55.8495 148.501 56.3066 148.254C56.5729 148.116 56.808 147.924 56.9972 147.691C57.1864 147.458 57.3258 147.189 57.4065 146.9C57.5121 146.249 57.3832 145.582 57.0429 145.018C56.7429 144.418 56.3429 143.845 56.0793 143.2C55.8189 142.496 55.726 141.74 55.8081 140.994C55.8901 140.248 56.1448 139.531 56.552 138.9C56.9823 138.214 57.588 137.655 58.3066 137.282C59.052 136.909 59.8975 136.718 60.7066 136.373C61.1273 136.196 61.51 135.94 61.8338 135.618C62.1603 135.278 62.3759 134.847 62.452 134.382C62.4923 133.466 62.4097 132.548 62.2065 131.654C62.0858 130.758 62.205 129.845 62.552 129.009C62.8897 128.196 63.3839 127.458 64.0066 126.836C65.2131 125.673 66.6912 124.829 68.3066 124.382C69.765 123.968 71.2463 123.641 72.7429 123.4C74.0568 123.189 75.354 122.886 76.6247 122.491C77.6772 122.166 78.6736 121.681 79.5793 121.054C80.2719 120.588 80.8856 120.014 81.3975 119.354C81.7209 118.941 81.987 118.485 82.1884 118C82.2603 117.832 82.3181 117.659 82.3611 117.482C82.3611 117.482 82.2975 117.654 82.152 117.982C81.9393 118.458 81.6642 118.905 81.3338 119.309C80.0934 120.779 78.4403 121.843 76.5884 122.364C75.3228 122.755 74.0319 123.058 72.7247 123.273C71.2188 123.507 69.7282 123.832 68.2611 124.245C66.6139 124.7 65.1052 125.555 63.8702 126.736C63.2312 127.377 62.7246 128.137 62.3793 128.973C62.0193 129.834 61.8938 130.775 62.0156 131.7C62.228 132.592 62.3107 133.511 62.2611 134.427C62.196 134.855 61.999 135.253 61.6975 135.564C61.392 135.864 61.0307 136.102 60.6338 136.264C59.852 136.618 58.9975 136.809 58.2338 137.173C57.4863 137.566 56.8583 138.153 56.4156 138.873C55.9941 139.525 55.7324 140.267 55.6519 141.04C55.5713 141.812 55.6741 142.593 55.952 143.318C56.2247 144 56.6247 144.564 56.9247 145.136C57.2546 145.681 57.3832 146.324 57.2884 146.954C57.2124 147.225 57.0822 147.478 56.9056 147.696C56.729 147.915 56.5097 148.096 56.2611 148.227C55.8149 148.476 55.3423 148.674 54.852 148.818C54.4195 148.953 54.0021 149.133 53.6066 149.354C53.2671 149.542 52.9821 149.815 52.7793 150.145C52.6393 150.373 52.5578 150.631 52.5419 150.898C52.5261 151.164 52.5764 151.43 52.6884 151.673C52.7778 151.808 52.9039 151.915 53.052 151.982Z" fill="white"/>
</g>
<g opacity="0.3">
<path opacity="0.3" d="M54.6797 130.746H54.7615L55.0161 130.791C55.3403 130.856 55.6682 130.902 55.9979 130.927C56.5188 130.988 57.0461 130.97 57.5615 130.873C58.2733 130.736 58.9158 130.357 59.3797 129.8C59.9067 129.136 60.2877 128.367 60.4979 127.546C60.7245 126.623 60.9975 125.713 61.3161 124.818C61.7358 123.858 62.3813 123.012 63.1979 122.355C64.0835 121.649 65.0825 121.099 66.1524 120.727C68.2582 120.111 70.4325 119.76 72.6252 119.682C73.6342 119.591 74.5979 119.491 75.4979 119.346C76.3255 119.206 77.1404 119 77.9343 118.727C79.1013 118.356 80.1829 117.757 81.1161 116.964C81.4548 116.671 81.7597 116.342 82.0252 115.982L81.9615 116.036L81.7888 116.227C81.5631 116.466 81.3233 116.69 81.0706 116.9C80.1323 117.666 79.055 118.243 77.8979 118.6C77.1078 118.855 76.2994 119.05 75.4797 119.182C74.5706 119.327 73.6615 119.418 72.6161 119.5C70.4075 119.568 68.2168 119.919 66.0979 120.546C65.0083 120.923 63.9908 121.482 63.0888 122.2C62.2438 122.878 61.5814 123.756 61.1615 124.755C60.8372 125.662 60.567 126.588 60.3524 127.527C60.15 128.329 59.7849 129.081 59.2797 129.736C58.8507 130.268 58.255 130.64 57.5888 130.791C57.0805 130.894 56.5602 130.925 56.0433 130.882C55.6161 130.882 55.2888 130.809 55.0615 130.782L54.6797 130.746Z" fill="white"/>
</g>
<g opacity="0.3">
<path opacity="0.3" d="M90.911 149.091L91.0474 149.046C91.1729 148.99 91.2944 148.927 91.411 148.855C91.8413 148.587 92.2125 148.234 92.5019 147.818C92.946 147.201 93.2046 146.469 93.2474 145.709C93.2848 144.772 92.9776 143.854 92.3838 143.127C91.7973 142.396 90.9745 141.891 90.0565 141.7C89.3216 141.66 88.5916 141.557 87.8747 141.391C87.6459 141.313 87.4367 141.186 87.261 141.02C87.0854 140.853 86.9474 140.652 86.8565 140.427C86.8023 140.257 86.7837 140.078 86.802 139.9C86.802 139.9 86.8019 139.946 86.7565 140.037C86.727 140.174 86.727 140.317 86.7565 140.455C86.8387 140.698 86.9745 140.92 87.1538 141.104C87.3332 141.288 87.5516 141.43 87.7929 141.518C88.5134 141.707 89.2499 141.829 89.9928 141.882C90.8657 142.071 91.6464 142.556 92.202 143.255C92.7656 143.943 93.0625 144.811 93.0383 145.7C93.0005 146.427 92.7681 147.13 92.3656 147.736C92.093 148.15 91.7444 148.508 91.3383 148.791C91.0474 148.982 90.911 149.091 90.911 149.091Z" fill="white"/>
</g>
<path d="M63.6868 118.509C63.9442 117.082 63.6919 115.61 62.974 114.351C62.2561 113.091 61.1183 112.124 59.7596 111.618C59.244 111.414 58.6895 111.327 58.1361 111.363C57.5827 111.399 57.0442 111.558 56.5596 111.827C55.8381 112.338 55.3275 113.094 55.1232 113.955C54.878 114.865 54.8809 115.824 55.1315 116.733C55.3822 117.642 55.8715 118.467 56.5487 119.123C57.2258 119.778 58.0662 120.241 58.9825 120.462C59.8988 120.684 60.8576 120.656 61.7596 120.382C62.2602 120.269 62.7227 120.027 63.102 119.681C63.4813 119.336 63.7643 118.897 63.9232 118.409" fill="#FF725E"/>
<path d="M64.0004 116.518C64.0794 116.906 64.068 117.307 63.9671 117.69C63.8662 118.074 63.6785 118.428 63.4185 118.727C62.6549 119.827 61.5458 120.136 61.5276 120.018C61.5095 119.9 62.3549 119.427 63.0276 118.454C63.7004 117.482 63.8549 116.5 64.0004 116.518Z" fill="#455A64"/>
<path d="M91.8255 168.464L71.7617 244.78L167.218 269.875L187.282 193.56L91.8255 168.464Z" fill="#F5F5F5"/>
<path d="M187.271 193.582L186.808 193.473L185.462 193.136L180.28 191.791L160.726 186.709L91.8168 168.691L92.0714 168.536L72.0714 244.845L71.8168 244.545L167.271 269.691L167.026 269.827C173.117 246.855 178.162 227.809 181.68 214.491C183.499 207.836 184.853 202.609 185.799 199.036C186.28 197.218 186.644 195.891 186.899 194.964C187.153 194.036 187.29 193.555 187.29 193.555C187.29 193.555 187.18 194.018 186.944 194.927L185.908 198.982L181.899 214.436C178.417 227.791 173.426 246.9 167.408 269.945L167.362 270.136L167.171 270.082L71.7168 245.027L71.4805 244.964L71.5441 244.736L91.635 168.436L91.6895 168.227L91.8986 168.282L160.908 186.545L180.39 191.718L185.526 193.1L186.835 193.455L187.271 193.582Z" fill="#263238"/>
<path d="M93.083 172.305L75.8398 239.209L164.851 262.15L182.094 195.246L93.083 172.305Z" fill="#FF725E"/>
<path opacity="0.2" d="M76.3242 240.855L118.224 207.545L130.606 238.536L147.279 228.091L165.07 264.191L76.3242 240.855Z" fill="#111111"/>
<g opacity="0.2">
<path opacity="0.2" d="M146.919 209.655C146.557 211.038 145.793 212.283 144.724 213.232C143.654 214.181 142.327 214.791 140.911 214.986C139.494 215.181 138.052 214.951 136.766 214.326C135.48 213.7 134.409 212.708 133.687 211.473C132.965 210.239 132.626 208.818 132.712 207.391C132.798 205.964 133.306 204.594 134.171 203.455C135.035 202.317 136.218 201.46 137.57 200.994C138.922 200.528 140.381 200.473 141.764 200.836C143.61 201.334 145.185 202.538 146.15 204.188C147.115 205.839 147.391 207.802 146.919 209.655Z" fill="#111111"/>
</g>
<path d="M52.8719 201.427C61.481 210.264 74.1174 215.718 78.6628 217.491C79.3628 217.391 80.1719 217.264 81.1265 217.064C81.9448 216.893 82.7286 216.586 83.4447 216.155C84.3508 215.646 85.1828 215.016 85.9174 214.282C86.032 214.116 86.1954 213.991 86.3848 213.923C86.5743 213.856 86.7801 213.849 86.9736 213.904C87.1671 213.959 87.3385 214.073 87.4637 214.231C87.5889 214.388 87.6618 214.581 87.6719 214.782C87.6265 215.646 86.0174 217.736 83.2537 219.1C80.4901 220.464 85.2174 221.536 86.9356 221.964C88.6537 222.391 93.8901 223.946 94.2083 224.582C94.6265 225.491 93.7174 226.127 92.0083 225.664C90.2992 225.2 85.1083 224.164 84.9265 225.082C84.7447 226 93.5083 228.027 93.5083 228.027C93.5083 228.027 95.4446 228.164 95.2719 229.227C94.9628 231.145 85.8083 228.318 84.9447 228C84.3447 227.8 84.1174 228.782 84.7719 228.973C85.4265 229.164 93.5537 230.791 93.2537 232.764C93.0265 234.264 85.7083 230.482 83.8356 231.082C81.9628 231.682 89.681 233.382 89.3992 234.809C89.2992 235.346 89.1446 235.718 84.8537 234.1C81.8123 232.803 78.8442 231.34 75.9628 229.718V229.764C75.9628 229.764 30.6628 216.364 35.6719 196.227C40.9901 174.845 42.0356 172.882 42.0356 172.882L58.7901 176.7C58.7901 176.7 51.3265 199.836 52.8719 201.427Z" fill="#FFBE9D"/>
<path d="M39.582 178.4C39.582 178.4 46.7548 155.173 65.2729 154.927V157.755L57.6729 184.118L39.582 178.4Z" fill="#263238"/>
<path d="M61.4437 172.882C61.4373 173.19 61.3884 173.496 61.2982 173.791C61.1709 174.364 60.971 175.182 60.671 176.2C60.08 178.227 59.1346 181.045 57.88 184.209L57.7982 184.409L57.5982 184.345L54.28 183.236C50.271 181.882 46.6437 180.636 44.0255 179.709L40.9346 178.591C40.5474 178.47 40.1729 178.312 39.8164 178.118C40.2166 178.178 40.6096 178.278 40.9891 178.418L44.1255 179.391C46.7709 180.236 50.4164 181.436 54.4346 182.782L57.7437 183.9L57.4528 184.036C58.7255 180.891 59.7255 178.109 60.3891 176.109L61.1437 173.755C61.2138 173.454 61.3143 173.162 61.4437 172.882Z" fill="#455A64"/>
<path d="M63.1168 167.491C63.0654 166.798 63.0654 166.102 63.1168 165.409C63.207 163.767 62.9467 162.125 62.3532 160.591C61.7041 159.09 60.4936 157.902 58.9805 157.282C58.3315 157.081 57.6592 156.965 56.9805 156.936C56.9805 156.936 57.1714 156.836 57.535 156.8C58.0589 156.754 58.5867 156.81 59.0896 156.964C59.9126 157.245 60.6673 157.697 61.3047 158.289C61.9421 158.881 62.448 159.6 62.7896 160.4C63.4196 161.996 63.6475 163.722 63.4532 165.427C63.4443 166.128 63.331 166.824 63.1168 167.491Z" fill="#455A64"/>
<path d="M76.1553 385V375.047H78.9648C79.8307 375.047 80.5964 375.238 81.2617 375.621C81.9271 376.004 82.4398 376.549 82.7998 377.255C83.1644 377.961 83.349 378.772 83.3535 379.688V380.324C83.3535 381.263 83.1712 382.086 82.8066 382.792C82.4466 383.498 81.9294 384.041 81.2549 384.419C80.585 384.797 79.8034 384.991 78.9102 385H76.1553ZM77.4678 376.127V383.927H78.8486C79.8604 383.927 80.6465 383.612 81.207 382.983C81.7721 382.354 82.0547 381.459 82.0547 380.297V379.716C82.0547 378.586 81.7881 377.708 81.2549 377.084C80.7262 376.455 79.9743 376.136 78.999 376.127H77.4678ZM88.2139 385.137C87.2113 385.137 86.3955 384.809 85.7666 384.152C85.1377 383.492 84.8232 382.61 84.8232 381.507V381.274C84.8232 380.541 84.9622 379.887 85.2402 379.312C85.5228 378.734 85.9147 378.283 86.416 377.959C86.9219 377.631 87.4688 377.467 88.0566 377.467C89.0182 377.467 89.7656 377.784 90.2988 378.417C90.832 379.05 91.0986 379.957 91.0986 381.138V381.664H86.0879C86.1061 382.393 86.318 382.983 86.7236 383.435C87.1338 383.881 87.6533 384.104 88.2822 384.104C88.7288 384.104 89.1071 384.013 89.417 383.831C89.7269 383.649 89.998 383.407 90.2305 383.106L91.0029 383.708C90.3831 384.66 89.4535 385.137 88.2139 385.137ZM88.0566 378.506C87.5462 378.506 87.1178 378.693 86.7715 379.066C86.4251 379.436 86.2109 379.955 86.1289 380.625H89.834V380.529C89.7975 379.887 89.6243 379.39 89.3145 379.039C89.0046 378.684 88.5853 378.506 88.0566 378.506ZM96.875 383.038C96.875 382.696 96.7451 382.432 96.4854 382.245C96.2301 382.054 95.7812 381.89 95.1387 381.753C94.5007 381.616 93.9925 381.452 93.6143 381.261C93.2406 381.069 92.9626 380.841 92.7803 380.577C92.6025 380.313 92.5137 379.998 92.5137 379.634C92.5137 379.028 92.7689 378.515 93.2793 378.096C93.7943 377.676 94.4505 377.467 95.248 377.467C96.0866 377.467 96.7656 377.683 97.2852 378.116C97.8092 378.549 98.0713 379.103 98.0713 379.777H96.7998C96.7998 379.431 96.6517 379.132 96.3555 378.882C96.0638 378.631 95.6947 378.506 95.248 378.506C94.7878 378.506 94.4277 378.606 94.168 378.807C93.9082 379.007 93.7783 379.269 93.7783 379.593C93.7783 379.898 93.8991 380.128 94.1406 380.283C94.3822 380.438 94.8174 380.586 95.4463 380.728C96.0798 380.869 96.5924 381.037 96.9844 381.233C97.3763 381.429 97.6657 381.666 97.8525 381.944C98.0439 382.218 98.1396 382.553 98.1396 382.949C98.1396 383.61 97.8753 384.141 97.3467 384.542C96.818 384.938 96.1322 385.137 95.2891 385.137C94.6966 385.137 94.1725 385.032 93.7168 384.822C93.2611 384.613 92.9033 384.321 92.6436 383.947C92.3883 383.569 92.2607 383.161 92.2607 382.724H93.5254C93.5482 383.147 93.7168 383.485 94.0312 383.735C94.3503 383.981 94.7695 384.104 95.2891 384.104C95.7676 384.104 96.1504 384.009 96.4375 383.817C96.7292 383.621 96.875 383.362 96.875 383.038ZM101.161 385H99.8965V377.604H101.161V385ZM99.7939 375.642C99.7939 375.437 99.8555 375.263 99.9785 375.122C100.106 374.981 100.293 374.91 100.539 374.91C100.785 374.91 100.972 374.981 101.1 375.122C101.227 375.263 101.291 375.437 101.291 375.642C101.291 375.847 101.227 376.018 101.1 376.154C100.972 376.291 100.785 376.359 100.539 376.359C100.293 376.359 100.106 376.291 99.9785 376.154C99.8555 376.018 99.7939 375.847 99.7939 375.642ZM102.891 381.24C102.891 380.087 103.157 379.171 103.69 378.492C104.224 377.809 104.93 377.467 105.81 377.467C106.712 377.467 107.416 377.786 107.922 378.424L107.983 377.604H109.139V384.822C109.139 385.779 108.854 386.534 108.284 387.085C107.719 387.636 106.958 387.912 106.001 387.912C105.468 387.912 104.946 387.798 104.436 387.57C103.925 387.342 103.535 387.03 103.267 386.634L103.923 385.875C104.465 386.545 105.128 386.88 105.912 386.88C106.527 386.88 107.006 386.707 107.348 386.36C107.694 386.014 107.867 385.526 107.867 384.897V384.262C107.361 384.845 106.671 385.137 105.796 385.137C104.93 385.137 104.228 384.788 103.69 384.091C103.157 383.394 102.891 382.443 102.891 381.24ZM104.162 381.384C104.162 382.218 104.333 382.874 104.675 383.353C105.017 383.826 105.495 384.063 106.11 384.063C106.908 384.063 107.493 383.701 107.867 382.977V379.6C107.48 378.893 106.899 378.54 106.124 378.54C105.509 378.54 105.028 378.779 104.682 379.258C104.335 379.736 104.162 380.445 104.162 381.384ZM112.249 377.604L112.29 378.533C112.855 377.822 113.593 377.467 114.505 377.467C116.068 377.467 116.856 378.349 116.87 380.112V385H115.605V380.105C115.601 379.572 115.478 379.178 115.236 378.923C114.999 378.668 114.628 378.54 114.122 378.54C113.712 378.54 113.352 378.649 113.042 378.868C112.732 379.087 112.491 379.374 112.317 379.729V385H111.053V377.604H112.249ZM121.847 385.137C120.844 385.137 120.028 384.809 119.399 384.152C118.771 383.492 118.456 382.61 118.456 381.507V381.274C118.456 380.541 118.595 379.887 118.873 379.312C119.156 378.734 119.548 378.283 120.049 377.959C120.555 377.631 121.102 377.467 121.689 377.467C122.651 377.467 123.398 377.784 123.932 378.417C124.465 379.05 124.731 379.957 124.731 381.138V381.664H119.721C119.739 382.393 119.951 382.983 120.356 383.435C120.767 383.881 121.286 384.104 121.915 384.104C122.362 384.104 122.74 384.013 123.05 383.831C123.36 383.649 123.631 383.407 123.863 383.106L124.636 383.708C124.016 384.66 123.086 385.137 121.847 385.137ZM121.689 378.506C121.179 378.506 120.751 378.693 120.404 379.066C120.058 379.436 119.844 379.955 119.762 380.625H123.467V380.529C123.43 379.887 123.257 379.39 122.947 379.039C122.637 378.684 122.218 378.506 121.689 378.506ZM125.894 381.24C125.894 380.105 126.162 379.194 126.7 378.506C127.238 377.813 127.942 377.467 128.812 377.467C129.678 377.467 130.364 377.763 130.87 378.355V374.5H132.135V385H130.973L130.911 384.207C130.405 384.827 129.701 385.137 128.799 385.137C127.942 385.137 127.243 384.786 126.7 384.084C126.162 383.382 125.894 382.466 125.894 381.336V381.24ZM127.158 381.384C127.158 382.222 127.331 382.879 127.678 383.353C128.024 383.826 128.503 384.063 129.113 384.063C129.915 384.063 130.501 383.703 130.87 382.983V379.586C130.492 378.889 129.911 378.54 129.127 378.54C128.507 378.54 128.024 378.779 127.678 379.258C127.331 379.736 127.158 380.445 127.158 381.384ZM143.838 381.384C143.838 382.514 143.578 383.423 143.059 384.111C142.539 384.795 141.842 385.137 140.967 385.137C140.033 385.137 139.31 384.806 138.8 384.146L138.738 385H137.576V374.5H138.841V378.417C139.351 377.784 140.055 377.467 140.953 377.467C141.851 377.467 142.555 377.806 143.065 378.485C143.58 379.164 143.838 380.094 143.838 381.274V381.384ZM142.573 381.24C142.573 380.379 142.407 379.714 142.074 379.244C141.742 378.775 141.263 378.54 140.639 378.54C139.805 378.54 139.205 378.927 138.841 379.702V382.901C139.228 383.676 139.832 384.063 140.652 384.063C141.258 384.063 141.73 383.829 142.067 383.359C142.405 382.89 142.573 382.184 142.573 381.24ZM147.775 383.147L149.498 377.604H150.852L147.878 386.142C147.418 387.372 146.686 387.987 145.684 387.987L145.444 387.967L144.973 387.878V386.853L145.314 386.88C145.743 386.88 146.076 386.793 146.312 386.62C146.554 386.447 146.752 386.13 146.907 385.67L147.188 384.918L144.549 377.604H145.93L147.775 383.147ZM159.766 383.038C159.766 382.696 159.636 382.432 159.376 382.245C159.121 382.054 158.672 381.89 158.029 381.753C157.391 381.616 156.883 381.452 156.505 381.261C156.131 381.069 155.853 380.841 155.671 380.577C155.493 380.313 155.404 379.998 155.404 379.634C155.404 379.028 155.66 378.515 156.17 378.096C156.685 377.676 157.341 377.467 158.139 377.467C158.977 377.467 159.656 377.683 160.176 378.116C160.7 378.549 160.962 379.103 160.962 379.777H159.69C159.69 379.431 159.542 379.132 159.246 378.882C158.954 378.631 158.585 378.506 158.139 378.506C157.678 378.506 157.318 378.606 157.059 378.807C156.799 379.007 156.669 379.269 156.669 379.593C156.669 379.898 156.79 380.128 157.031 380.283C157.273 380.438 157.708 380.586 158.337 380.728C158.97 380.869 159.483 381.037 159.875 381.233C160.267 381.429 160.556 381.666 160.743 381.944C160.935 382.218 161.03 382.553 161.03 382.949C161.03 383.61 160.766 384.141 160.237 384.542C159.709 384.938 159.023 385.137 158.18 385.137C157.587 385.137 157.063 385.032 156.607 384.822C156.152 384.613 155.794 384.321 155.534 383.947C155.279 383.569 155.151 383.161 155.151 382.724H156.416C156.439 383.147 156.607 383.485 156.922 383.735C157.241 383.981 157.66 384.104 158.18 384.104C158.658 384.104 159.041 384.009 159.328 383.817C159.62 383.621 159.766 383.362 159.766 383.038ZM164.394 375.812V377.604H165.774V378.581H164.394V383.168C164.394 383.464 164.455 383.688 164.578 383.838C164.701 383.984 164.911 384.057 165.207 384.057C165.353 384.057 165.553 384.029 165.809 383.975V385C165.476 385.091 165.152 385.137 164.838 385.137C164.273 385.137 163.847 384.966 163.56 384.624C163.272 384.282 163.129 383.797 163.129 383.168V378.581H161.782V377.604H163.129V375.812H164.394ZM166.786 381.233C166.786 380.509 166.927 379.857 167.21 379.278C167.497 378.7 167.894 378.253 168.399 377.938C168.91 377.624 169.491 377.467 170.143 377.467C171.15 377.467 171.963 377.815 172.583 378.513C173.207 379.21 173.52 380.137 173.52 381.295V381.384C173.52 382.104 173.381 382.751 173.103 383.325C172.829 383.895 172.435 384.339 171.92 384.658C171.41 384.977 170.822 385.137 170.156 385.137C169.154 385.137 168.34 384.788 167.716 384.091C167.096 383.394 166.786 382.471 166.786 381.322V381.233ZM168.058 381.384C168.058 382.204 168.247 382.863 168.625 383.359C169.008 383.856 169.518 384.104 170.156 384.104C170.799 384.104 171.309 383.854 171.688 383.353C172.066 382.847 172.255 382.14 172.255 381.233C172.255 380.422 172.061 379.766 171.674 379.265C171.291 378.759 170.781 378.506 170.143 378.506C169.518 378.506 169.015 378.754 168.632 379.251C168.249 379.748 168.058 380.459 168.058 381.384ZM178.681 378.738C178.489 378.706 178.282 378.69 178.059 378.69C177.229 378.69 176.666 379.044 176.37 379.75V385H175.105V377.604H176.336L176.356 378.458C176.771 377.797 177.359 377.467 178.12 377.467C178.366 377.467 178.553 377.499 178.681 377.562V378.738ZM181.224 385H179.959V377.604H181.224V385ZM179.856 375.642C179.856 375.437 179.918 375.263 180.041 375.122C180.169 374.981 180.355 374.91 180.602 374.91C180.848 374.91 181.035 374.981 181.162 375.122C181.29 375.263 181.354 375.437 181.354 375.642C181.354 375.847 181.29 376.018 181.162 376.154C181.035 376.291 180.848 376.359 180.602 376.359C180.355 376.359 180.169 376.291 180.041 376.154C179.918 376.018 179.856 375.847 179.856 375.642ZM186.323 385.137C185.321 385.137 184.505 384.809 183.876 384.152C183.247 383.492 182.933 382.61 182.933 381.507V381.274C182.933 380.541 183.072 379.887 183.35 379.312C183.632 378.734 184.024 378.283 184.525 377.959C185.031 377.631 185.578 377.467 186.166 377.467C187.128 377.467 187.875 377.784 188.408 378.417C188.941 379.05 189.208 379.957 189.208 381.138V381.664H184.197C184.215 382.393 184.427 382.983 184.833 383.435C185.243 383.881 185.763 384.104 186.392 384.104C186.838 384.104 187.216 384.013 187.526 383.831C187.836 383.649 188.107 383.407 188.34 383.106L189.112 383.708C188.493 384.66 187.563 385.137 186.323 385.137ZM186.166 378.506C185.656 378.506 185.227 378.693 184.881 379.066C184.535 379.436 184.32 379.955 184.238 380.625H187.943V380.529C187.907 379.887 187.734 379.39 187.424 379.039C187.114 378.684 186.695 378.506 186.166 378.506ZM194.984 383.038C194.984 382.696 194.854 382.432 194.595 382.245C194.34 382.054 193.891 381.89 193.248 381.753C192.61 381.616 192.102 381.452 191.724 381.261C191.35 381.069 191.072 380.841 190.89 380.577C190.712 380.313 190.623 379.998 190.623 379.634C190.623 379.028 190.878 378.515 191.389 378.096C191.904 377.676 192.56 377.467 193.357 377.467C194.196 377.467 194.875 377.683 195.395 378.116C195.919 378.549 196.181 379.103 196.181 379.777H194.909C194.909 379.431 194.761 379.132 194.465 378.882C194.173 378.631 193.804 378.506 193.357 378.506C192.897 378.506 192.537 378.606 192.277 378.807C192.018 379.007 191.888 379.269 191.888 379.593C191.888 379.898 192.008 380.128 192.25 380.283C192.492 380.438 192.927 380.586 193.556 380.728C194.189 380.869 194.702 381.037 195.094 381.233C195.486 381.429 195.775 381.666 195.962 381.944C196.153 382.218 196.249 382.553 196.249 382.949C196.249 383.61 195.985 384.141 195.456 384.542C194.927 384.938 194.242 385.137 193.398 385.137C192.806 385.137 192.282 385.032 191.826 384.822C191.37 384.613 191.013 384.321 190.753 383.947C190.498 383.569 190.37 383.161 190.37 382.724H191.635C191.658 383.147 191.826 383.485 192.141 383.735C192.46 383.981 192.879 384.104 193.398 384.104C193.877 384.104 194.26 384.009 194.547 383.817C194.839 383.621 194.984 383.362 194.984 383.038ZM201.622 385.854H200.535L204.691 375.047H205.771L201.622 385.854ZM216.299 380.604H212.122V385H210.81V375.047H216.976V376.127H212.122V379.531H216.299V380.604ZM221.747 378.738C221.556 378.706 221.348 378.69 221.125 378.69C220.296 378.69 219.733 379.044 219.437 379.75V385H218.172V377.604H219.402L219.423 378.458C219.838 377.797 220.425 377.467 221.187 377.467C221.433 377.467 221.619 377.499 221.747 377.562V378.738ZM225.849 385.137C224.846 385.137 224.03 384.809 223.401 384.152C222.772 383.492 222.458 382.61 222.458 381.507V381.274C222.458 380.541 222.597 379.887 222.875 379.312C223.158 378.734 223.549 378.283 224.051 377.959C224.557 377.631 225.104 377.467 225.691 377.467C226.653 377.467 227.4 377.784 227.934 378.417C228.467 379.05 228.733 379.957 228.733 381.138V381.664H223.723C223.741 382.393 223.953 382.983 224.358 383.435C224.769 383.881 225.288 384.104 225.917 384.104C226.364 384.104 226.742 384.013 227.052 383.831C227.362 383.649 227.633 383.407 227.865 383.106L228.638 383.708C228.018 384.66 227.088 385.137 225.849 385.137ZM225.691 378.506C225.181 378.506 224.753 378.693 224.406 379.066C224.06 379.436 223.846 379.955 223.764 380.625H227.469V380.529C227.432 379.887 227.259 379.39 226.949 379.039C226.639 378.684 226.22 378.506 225.691 378.506ZM233.272 385.137C232.27 385.137 231.454 384.809 230.825 384.152C230.196 383.492 229.882 382.61 229.882 381.507V381.274C229.882 380.541 230.021 379.887 230.299 379.312C230.581 378.734 230.973 378.283 231.475 377.959C231.98 377.631 232.527 377.467 233.115 377.467C234.077 377.467 234.824 377.784 235.357 378.417C235.891 379.05 236.157 379.957 236.157 381.138V381.664H231.146C231.165 382.393 231.377 382.983 231.782 383.435C232.192 383.881 232.712 384.104 233.341 384.104C233.787 384.104 234.166 384.013 234.476 383.831C234.785 383.649 235.057 383.407 235.289 383.106L236.062 383.708C235.442 384.66 234.512 385.137 233.272 385.137ZM233.115 378.506C232.605 378.506 232.176 378.693 231.83 379.066C231.484 379.436 231.27 379.955 231.188 380.625H234.893V380.529C234.856 379.887 234.683 379.39 234.373 379.039C234.063 378.684 233.644 378.506 233.115 378.506ZM243.875 381.384C243.875 382.509 243.618 383.416 243.103 384.104C242.588 384.793 241.89 385.137 241.011 385.137C240.113 385.137 239.407 384.852 238.892 384.282V387.844H237.627V377.604H238.782L238.844 378.424C239.359 377.786 240.074 377.467 240.99 377.467C241.879 377.467 242.581 377.802 243.096 378.472C243.615 379.142 243.875 380.074 243.875 381.268V381.384ZM242.61 381.24C242.61 380.406 242.433 379.748 242.077 379.265C241.722 378.782 241.234 378.54 240.614 378.54C239.849 378.54 239.274 378.88 238.892 379.559V383.093C239.27 383.767 239.849 384.104 240.628 384.104C241.234 384.104 241.715 383.865 242.07 383.387C242.43 382.904 242.61 382.188 242.61 381.24ZM246.862 385H245.598V377.604H246.862V385ZM245.495 375.642C245.495 375.437 245.557 375.263 245.68 375.122C245.807 374.981 245.994 374.91 246.24 374.91C246.486 374.91 246.673 374.981 246.801 375.122C246.928 375.263 246.992 375.437 246.992 375.642C246.992 375.847 246.928 376.018 246.801 376.154C246.673 376.291 246.486 376.359 246.24 376.359C245.994 376.359 245.807 376.291 245.68 376.154C245.557 376.018 245.495 375.847 245.495 375.642ZM250.957 381.575L250.164 382.402V385H248.899V374.5H250.164V380.851L250.841 380.037L253.145 377.604H254.683L251.805 380.693L255.018 385H253.534L250.957 381.575Z" fill="#ACA9A9"/>
</g>
<defs>
<clipPath id="clip0">
<rect width="340" height="393" fill="white"/>
</clipPath>
</defs>
</svg>
