<svg width="450" height="426" viewBox="0 0 450 426" fill="none" xmlns="http://www.w3.org/2000/svg">
<g clip-path="url(#clip0)">
<path d="M304.43 94.5113H364.499C364.499 94.5113 364.499 80.7618 357.403 80.7618C354.864 80.6761 352.375 81.4792 350.365 83.0325C348.355 84.5858 346.95 86.7918 346.393 89.2702C346.393 89.2702 346.393 63.6088 333.477 67.3695C321.259 70.9346 319.864 87.3643 319.864 87.3643C319.864 87.3643 317.677 79.1281 311.058 83.7737C304.438 88.4193 304.43 94.5113 304.43 94.5113Z" fill="#EBEBEB"/>
<path d="M103.836 142.32H140.422C140.422 142.32 140.422 133.939 136.1 133.939C134.55 133.888 133.032 134.38 131.806 135.329C130.581 136.278 129.725 137.625 129.387 139.138C129.387 139.138 129.387 123.5 121.525 125.788C114.072 127.958 113.238 137.972 113.238 137.972C113.238 137.972 111.893 132.935 107.86 135.777C103.827 138.619 103.836 142.32 103.836 142.32Z" fill="#E0E0E0"/>
<path d="M177.99 320.444L164.641 374.761H171.686L184.082 320.444H177.99Z" fill="#E0E0E0"/>
<path d="M202.578 320.443L214.056 374.761H221.314L208.432 320.443H202.578Z" fill="#E0E0E0"/>
<path d="M168.895 276.48L176.569 316.776H185.29L177.088 276.48H168.895Z" fill="#E0E0E0"/>
<path d="M35.2091 320.443L21.8594 374.761H28.9043L41.3011 320.443H35.2091Z" fill="#E0E0E0"/>
<path d="M59.7969 320.444L71.2747 374.761H78.5324L65.6507 320.444H59.7969Z" fill="#E0E0E0"/>
<path d="M26.1133 276.48L33.7879 316.776H42.509L34.3069 276.48H26.1133Z" fill="#E0E0E0"/>
<path d="M185.543 272.822H10.4062V280.148H185.543V272.822Z" fill="#F0F0F0"/>
<path d="M187.985 287.822H12.8477V295.148H187.985V287.822Z" fill="#F0F0F0"/>
<path d="M190.778 301.776H15.6406V309.102H190.778V301.776Z" fill="#F0F0F0"/>
<path d="M213.681 316.776H26.6836V324.102H213.681V316.776Z" fill="#F0F0F0"/>
<path d="M387.806 319.295C382.115 317.705 376.808 314.973 372.206 311.267C367.604 307.56 363.805 302.956 361.039 297.735C358.273 292.514 356.599 286.784 356.117 280.895C355.636 275.006 356.358 269.081 358.239 263.48C361.158 254.767 366.79 247.092 369.173 238.235C371.912 228.17 370.279 217.492 368.594 207.205C366.909 196.918 365.191 186.266 367.743 176.158C370.296 166.05 378.404 156.589 388.81 155.831C398.467 155.168 407.384 162.315 411.408 171.146C415.433 179.978 415.467 190.035 414.522 199.667C413.578 209.298 411.749 218.913 412.327 228.595C413.493 248.165 424.443 266.551 423.158 286.095C422.486 296.305 418.547 302.789 411.808 310.446C405.997 317.04 396.331 321.379 387.772 319.363" fill="#F0F0F0"/>
<path d="M391.063 225.09C391.352 225.09 391.063 258.647 390.484 300.032C389.906 341.417 389.157 374.965 388.868 374.965C388.578 374.965 388.868 341.408 389.438 300.015C390.008 258.621 390.773 225.081 391.063 225.09Z" fill="#E0E0E0"/>
<path d="M409.739 245.459C409.969 245.638 406.097 251.041 401.086 257.541C396.074 264.042 391.837 269.155 391.607 268.976C391.378 268.798 395.249 263.395 400.26 256.903C405.272 250.411 409.518 245.28 409.739 245.459Z" fill="#E0E0E0"/>
<path d="M390.691 267.291C390.512 267.521 386.616 264.781 381.979 261.165C377.341 257.549 373.734 254.444 373.913 254.214C374.091 253.984 377.988 256.766 382.625 260.34C387.262 263.914 390.87 267.07 390.691 267.291Z" fill="#E0E0E0"/>
<path d="M389.651 306.158C389.438 306.379 385.244 302.686 379.909 298.347C374.574 294.008 370.116 290.63 370.286 290.383C370.456 290.136 375.195 293.157 380.564 297.539C385.933 301.921 389.838 305.962 389.651 306.158Z" fill="#E0E0E0"/>
<path d="M411.375 282.139C411.596 282.317 407.342 287.984 401.88 294.782C396.417 301.58 391.797 306.958 391.567 306.779C391.338 306.6 395.592 300.934 401.063 294.127C406.534 287.32 411.145 281.952 411.375 282.139Z" fill="#E0E0E0"/>
<path d="M500.089 375.476C500.089 375.603 388.135 375.705 250.061 375.705C111.986 375.705 0.015625 375.603 0.015625 375.476C0.015625 375.348 111.944 375.22 250.052 375.22C388.16 375.22 500.089 375.348 500.089 375.476Z" fill="#263238"/>
<path d="M349.263 337.324C348.242 337.405 347.247 337.692 346.339 338.167C345.431 338.643 344.628 339.296 343.979 340.089C342.689 341.683 341.781 343.552 341.325 345.552C340.338 349.381 341.002 353.882 342.125 357.676C346.251 356.162 348.761 351.72 349.893 349.406C351.688 345.722 352.692 337.979 349.263 337.324Z" fill="#FF725E"/>
<path d="M336.21 362.356C336.824 361.389 337.171 360.276 337.216 359.132C337.261 357.987 337.002 356.851 336.466 355.839C335.91 354.838 335.162 353.959 334.263 353.25C333.365 352.542 332.335 352.019 331.233 351.712C330.741 351.515 330.212 351.428 329.683 351.457C329.153 351.486 328.637 351.632 328.17 351.882C327.78 352.186 327.478 352.588 327.295 353.047C327.111 353.506 327.052 354.005 327.123 354.494C327.289 355.473 327.709 356.391 328.34 357.157C330.374 359.863 332.841 362.109 336.21 362.356Z" fill="#FF725E"/>
<path d="M336.177 375.493C336.285 375.235 336.353 374.963 336.382 374.685C336.484 374.166 336.62 373.4 336.756 372.455C337.153 369.988 337.219 367.479 336.952 364.994C336.658 362.481 335.691 360.094 334.152 358.085C333.676 357.488 333.127 356.954 332.519 356.494C332.308 356.312 332.069 356.166 331.812 356.06C332.565 356.744 333.262 357.486 333.897 358.28C335.327 360.293 336.226 362.635 336.509 365.087C336.766 367.538 336.743 370.01 336.441 372.455C336.295 373.462 336.207 374.476 336.177 375.493Z" fill="#455A64"/>
<path d="M347.979 343.153C347.745 343.544 347.543 343.954 347.375 344.378C347 345.178 346.524 346.343 345.877 347.781C344.644 350.674 343.001 354.707 341.3 359.208C339.598 363.709 338.16 367.818 337.173 370.805C336.68 372.302 336.322 373.519 336.033 374.361C335.881 374.791 335.761 375.232 335.676 375.68C335.889 375.275 336.063 374.851 336.195 374.412C336.527 373.511 336.952 372.336 337.471 370.907C338.535 367.946 340.024 363.862 341.725 359.361C343.427 354.86 345.018 350.853 346.175 347.9L347.536 344.429C347.725 344.019 347.873 343.591 347.979 343.153Z" fill="#455A64"/>
<path d="M340.506 366.117C341.868 364.123 343.685 362.482 345.806 361.33C347.928 360.177 350.293 359.546 352.707 359.489C353.932 359.489 355.387 359.77 355.872 360.893C356.357 362.016 355.557 363.309 354.707 364.16C352.828 365.905 350.474 367.056 347.943 367.466C345.411 367.876 342.815 367.528 340.48 366.466" fill="#FF725E"/>
<path d="M350.604 362.501C350.339 362.46 350.069 362.46 349.804 362.501C349.492 362.517 349.182 362.557 348.877 362.62C348.47 362.681 348.066 362.763 347.668 362.867C346.621 363.131 345.603 363.502 344.631 363.973C343.448 364.56 342.33 365.27 341.296 366.091C340.279 366.935 339.355 367.885 338.539 368.925C337.882 369.782 337.312 370.702 336.837 371.673C336.649 372.039 336.485 372.417 336.344 372.804C336.222 373.081 336.12 373.365 336.037 373.655C335.941 373.903 335.884 374.164 335.867 374.429C335.952 374.429 336.259 373.366 337.118 371.775C337.608 370.851 338.177 369.971 338.82 369.146C340.437 367.126 342.468 365.475 344.775 364.304C345.714 363.829 346.694 363.439 347.702 363.139C349.481 362.671 350.612 362.586 350.604 362.501Z" fill="#455A64"/>
<path d="M301.055 293.2L216.073 292.808C213.643 292.797 211.239 292.307 208.998 291.367C206.757 290.427 204.723 289.054 203.013 287.328C201.302 285.602 199.948 283.555 199.029 281.306C198.109 279.056 197.641 276.648 197.653 274.217L198.503 61.1669C198.526 56.2558 200.498 51.5547 203.986 48.0972C207.473 44.6397 212.192 42.7088 217.103 42.7292L302.085 43.1205C306.993 43.1431 311.692 45.1141 315.148 48.6004C318.604 52.0866 320.534 56.8026 320.514 61.7114L319.654 274.77C319.644 277.202 319.155 279.608 318.215 281.85C317.275 284.093 315.902 286.128 314.174 287.84C312.447 289.551 310.399 290.905 308.148 291.825C305.897 292.745 303.487 293.212 301.055 293.2Z" fill="#263238"/>
<path d="M301.568 50.591L285.087 50.5144C284.003 50.5345 282.972 50.984 282.219 51.764C281.466 52.5441 281.053 53.591 281.071 54.675V57.6615C281.081 58.1989 280.986 58.7331 280.789 59.2336C280.593 59.734 280.3 60.1908 279.927 60.578C279.554 60.9651 279.108 61.275 278.616 61.4899C278.123 61.7049 277.593 61.8206 277.055 61.8306L244.953 61.6774C243.868 61.6463 242.84 61.1864 242.094 60.3986C241.347 59.6107 240.944 58.5592 240.971 57.4743V54.4878C240.996 53.4036 240.592 52.3533 239.846 51.566C239.1 50.7786 238.073 50.3181 236.989 50.2847H231.195L216.756 50.1996C215.053 50.1918 213.364 50.5197 211.788 51.1646C210.211 51.8096 208.777 52.7589 207.567 53.9583C206.357 55.1578 205.396 56.5839 204.737 58.1551C204.079 59.7263 203.737 61.4118 203.73 63.1154L202.879 271.069C202.871 272.771 203.199 274.458 203.843 276.033C204.487 277.608 205.435 279.041 206.632 280.25C207.83 281.459 209.254 282.42 210.823 283.078C212.393 283.736 214.076 284.079 215.778 284.087L300.59 284.479C302.293 284.488 303.981 284.161 305.558 283.517C307.134 282.873 308.569 281.924 309.778 280.725C310.988 279.527 311.95 278.101 312.608 276.53C313.267 274.96 313.609 273.274 313.616 271.571L314.467 63.6174C314.476 61.9149 314.149 60.2274 313.506 58.6513C312.862 57.0751 311.914 55.6412 310.717 54.4315C309.519 53.2217 308.094 52.2599 306.524 51.6009C304.955 50.942 303.27 50.5988 301.568 50.591Z" fill="white"/>
<path d="M271.415 76.103L249.531 76.0037L249.513 80.0196L271.396 80.1189L271.415 76.103Z" fill="#455A64"/>
<path d="M225.722 103.062C226.312 102.8 226.812 102.371 227.161 101.829C227.51 101.286 227.693 100.653 227.688 100.008C227.719 99.5816 227.663 99.1537 227.521 98.7506C227.38 98.3474 227.157 97.9778 226.866 97.6647C226.576 97.3517 226.223 97.102 225.832 96.9312C225.44 96.7605 225.018 96.6724 224.591 96.6724C224.163 96.6724 223.741 96.7605 223.349 96.9312C222.958 97.102 222.605 97.3517 222.315 97.6647C222.024 97.9778 221.801 98.3474 221.66 98.7506C221.518 99.1537 221.462 99.5816 221.493 100.008C221.483 100.658 221.665 101.297 222.016 101.845C222.367 102.393 222.872 102.825 223.467 103.088C222.491 103.204 221.572 103.609 220.826 104.25C220.081 104.891 219.543 105.739 219.281 106.687C220.38 107.938 221.888 108.759 223.535 109.001H225.441C227.131 108.78 228.682 107.951 229.806 106.67C229.563 105.73 229.044 104.884 228.316 104.241C227.589 103.598 226.685 103.187 225.722 103.062Z" fill="#455A64"/>
<path d="M224.53 109.052C224.53 109.001 225.152 109.052 226.232 108.746C227.74 108.339 229.07 107.441 230.01 106.193C230.695 105.275 231.14 104.201 231.305 103.067C231.47 101.933 231.35 100.777 230.954 99.7014C230.728 99.0909 230.413 98.5174 230.018 97.9997C229.613 97.4464 229.121 96.961 228.563 96.5617C227.395 95.704 225.984 95.2414 224.535 95.2414C223.085 95.2414 221.674 95.704 220.506 96.5617C219.95 96.9634 219.459 97.4484 219.051 97.9997C218.656 98.5174 218.341 99.0909 218.115 99.7014C217.718 100.777 217.597 101.935 217.764 103.069C217.93 104.203 218.379 105.277 219.068 106.193C220.005 107.44 221.332 108.338 222.837 108.746C223.909 109.027 224.539 109.001 224.539 109.052C224.389 109.071 224.238 109.071 224.088 109.052C223.664 109.051 223.242 109.002 222.829 108.907C221.248 108.545 219.842 107.642 218.855 106.355C218.163 105.472 217.69 104.436 217.477 103.334C217.22 102.073 217.306 100.766 217.724 99.5482C218.213 98.183 219.103 96.997 220.276 96.1448C221.516 95.2222 223.019 94.7239 224.565 94.7239C226.11 94.7239 227.613 95.2222 228.853 96.1448C229.441 96.5743 229.958 97.0941 230.384 97.6849C230.797 98.2524 231.119 98.8811 231.337 99.5482C231.775 100.764 231.875 102.075 231.626 103.343C231.367 104.689 230.724 105.932 229.774 106.921C228.825 107.909 227.609 108.602 226.275 108.916C225.854 109.016 225.423 109.067 224.99 109.069C224.837 109.083 224.682 109.077 224.53 109.052Z" fill="#455A64"/>
<path d="M306.883 115.399C306.883 115.399 307.105 115.399 307.513 115.314C308.124 115.191 308.688 114.896 309.138 114.464C309.499 114.113 309.777 113.687 309.954 113.217C310.13 112.746 310.201 112.242 310.159 111.741C310.159 110.533 310.159 109.188 310.159 107.58C310.159 104.441 310.159 100.603 310.159 96.1535C310.159 95.0389 310.159 93.8902 310.159 92.699C310.19 92.1062 310.057 91.5163 309.775 90.9941C309.493 90.4718 309.072 90.0373 308.559 89.7381C307.513 89.0745 306.143 89.3638 304.824 89.3042H300.723L213.087 89.3723C212.587 89.3738 212.095 89.4942 211.651 89.7235C211.207 89.9528 210.824 90.2845 210.534 90.6911C210.245 91.0972 210.058 91.5671 209.99 92.0609C209.93 92.5374 209.99 93.0989 209.99 93.618V99.9057C209.99 104.075 209.99 108.173 209.99 112.2C210.007 112.673 210.133 113.134 210.357 113.55C210.581 113.966 210.898 114.325 211.283 114.6C211.659 114.873 212.093 115.056 212.551 115.136C213.034 115.191 213.52 115.21 214.006 115.195H231.269L270.655 115.238L297.209 115.314L304.424 115.357H306.305H306.943C306.943 115.357 306.722 115.357 306.305 115.357H304.424H297.209L270.655 115.425L231.269 115.476H213.946C213.438 115.498 212.928 115.478 212.423 115.416C211.896 115.331 211.397 115.121 210.968 114.804C210.533 114.491 210.174 114.083 209.92 113.612C209.665 113.14 209.52 112.617 209.496 112.081C209.496 108.043 209.496 103.936 209.496 99.761V93.5924C209.496 93.0564 209.496 92.5544 209.539 91.9758C209.611 91.4102 209.825 90.8719 210.16 90.4103C210.489 89.9444 210.925 89.5643 211.431 89.3022C211.937 89.0401 212.499 88.9037 213.07 88.9043L300.706 88.9724H306.781C307.268 88.9551 307.752 89.0394 308.204 89.2197C308.657 89.4001 309.066 89.6727 309.407 90.0201C309.748 90.3674 310.013 90.782 310.185 91.2374C310.357 91.6928 310.432 92.179 310.406 92.665C310.406 93.8562 310.406 95.0048 310.406 96.1194C310.406 100.569 310.406 104.407 310.363 107.546C310.363 109.112 310.363 110.499 310.363 111.707C310.399 112.224 310.319 112.743 310.129 113.226C309.939 113.709 309.644 114.143 309.266 114.498C308.796 114.945 308.204 115.241 307.564 115.348C307.34 115.396 307.111 115.413 306.883 115.399Z" fill="#E0E0E0"/>
<path d="M262.88 95.9663H238.129V97.8211H262.88V95.9663Z" fill="#455A64"/>
<path d="M281.488 106.457H238.129V108.312H281.488V106.457Z" fill="#455A64"/>
<path d="M300.963 101.088H238.129V102.943H300.963V101.088Z" fill="#455A64"/>
<path d="M225.722 169.606C226.312 169.344 226.812 168.915 227.161 168.373C227.51 167.83 227.693 167.197 227.688 166.552C227.719 166.126 227.663 165.698 227.521 165.295C227.38 164.892 227.157 164.522 226.866 164.209C226.576 163.896 226.223 163.646 225.832 163.475C225.44 163.305 225.018 163.217 224.591 163.217C224.163 163.217 223.741 163.305 223.349 163.475C222.958 163.646 222.605 163.896 222.315 164.209C222.024 164.522 221.801 164.892 221.66 165.295C221.518 165.698 221.462 166.126 221.493 166.552C221.483 167.202 221.665 167.842 222.016 168.389C222.367 168.937 222.872 169.369 223.467 169.632C222.491 169.748 221.572 170.153 220.826 170.794C220.081 171.435 219.543 172.283 219.281 173.231C220.38 174.483 221.888 175.303 223.535 175.545H225.441C227.131 175.324 228.682 174.495 229.806 173.214C229.563 172.274 229.044 171.428 228.316 170.785C227.589 170.142 226.685 169.732 225.722 169.606Z" fill="#455A64"/>
<path d="M224.529 175.596C224.529 175.545 225.15 175.596 226.231 175.29C227.739 174.883 229.069 173.985 230.009 172.738C230.694 171.82 231.139 170.745 231.304 169.611C231.469 168.478 231.348 167.321 230.953 166.246C230.727 165.635 230.412 165.062 230.017 164.544C229.611 163.991 229.12 163.505 228.562 163.106C227.394 162.248 225.983 161.786 224.534 161.786C223.084 161.786 221.673 162.248 220.505 163.106C219.949 163.508 219.458 163.993 219.05 164.544C218.655 165.062 218.34 165.635 218.114 166.246C217.722 167.32 217.606 168.475 217.775 169.606C217.945 170.737 218.395 171.808 219.084 172.721C220.021 173.967 221.347 174.866 222.853 175.273C223.925 175.554 224.555 175.528 224.555 175.579C224.405 175.598 224.254 175.598 224.104 175.579C223.668 175.582 223.234 175.531 222.811 175.426C221.229 175.064 219.824 174.161 218.837 172.874C218.144 171.991 217.672 170.955 217.459 169.853C217.214 168.585 217.314 167.275 217.748 166.058C218.238 164.693 219.127 163.507 220.301 162.655C221.54 161.732 223.044 161.234 224.589 161.234C226.134 161.234 227.638 161.732 228.877 162.655C229.465 163.085 229.982 163.604 230.409 164.195C230.828 164.753 231.158 165.373 231.387 166.033C231.825 167.248 231.925 168.56 231.676 169.828C231.417 171.174 230.774 172.416 229.824 173.405C228.875 174.394 227.659 175.087 226.325 175.401C225.904 175.501 225.472 175.552 225.04 175.554C224.872 175.592 224.701 175.606 224.529 175.596Z" fill="#455A64"/>
<path d="M306.883 181.944C306.883 181.944 307.105 181.944 307.513 181.859C308.124 181.735 308.688 181.44 309.138 181.008C309.499 180.657 309.777 180.232 309.954 179.761C310.13 179.29 310.201 178.786 310.159 178.285C310.159 177.077 310.159 175.69 310.159 174.124C310.159 170.985 310.159 167.148 310.159 162.698C310.159 161.583 310.159 160.434 310.159 159.243C310.19 158.65 310.057 158.061 309.775 157.538C309.493 157.016 309.072 156.581 308.559 156.282C307.513 155.619 306.143 155.908 304.824 155.848H300.723L213.087 155.916C212.587 155.918 212.095 156.038 211.651 156.268C211.207 156.497 210.824 156.829 210.534 157.235C210.245 157.641 210.058 158.111 209.99 158.605C209.93 159.082 209.99 159.643 209.99 160.162V166.45C209.99 170.619 209.99 174.717 209.99 178.744C210.007 179.217 210.133 179.679 210.357 180.095C210.581 180.511 210.898 180.869 211.283 181.144C211.659 181.417 212.093 181.6 212.551 181.68C213.034 181.735 213.52 181.755 214.006 181.739H231.269L270.655 181.782L297.209 181.859H304.424H306.305H306.943C306.943 181.859 306.722 181.859 306.305 181.859H304.424L297.209 181.901L270.655 181.969L231.269 182.02H213.946C213.438 182.042 212.928 182.022 212.423 181.961C211.896 181.875 211.397 181.665 210.968 181.348C210.533 181.035 210.174 180.627 209.92 180.156C209.665 179.684 209.52 179.161 209.496 178.625C209.496 174.587 209.496 170.48 209.496 166.305V160.017C209.496 159.481 209.496 158.979 209.539 158.401C209.611 157.835 209.825 157.297 210.16 156.835C210.49 156.371 210.926 155.992 211.432 155.73C211.939 155.468 212.5 155.331 213.07 155.329L300.706 155.397H306.781C307.268 155.38 307.752 155.464 308.204 155.645C308.657 155.825 309.066 156.098 309.407 156.445C309.748 156.792 310.013 157.207 310.185 157.662C310.357 158.118 310.432 158.604 310.406 159.09C310.406 160.281 310.406 161.43 310.406 162.544C310.406 166.994 310.406 170.832 310.363 173.971C310.363 175.537 310.363 176.924 310.363 178.132C310.399 178.649 310.319 179.168 310.129 179.651C309.939 180.134 309.644 180.568 309.266 180.923C308.796 181.37 308.204 181.666 307.564 181.773C307.346 181.861 307.117 181.919 306.883 181.944Z" fill="#E0E0E0"/>
<path d="M262.388 162.51H237.637V164.365H262.388V162.51Z" fill="#455A64"/>
<path d="M281.488 173.001H238.129V174.856H281.488V173.001Z" fill="#455A64"/>
<path d="M300.963 167.633H238.129V169.487H300.963V167.633Z" fill="#455A64"/>
<path d="M225.722 202.874C226.311 202.614 226.811 202.186 227.16 201.645C227.51 201.104 227.693 200.472 227.688 199.828C227.719 199.402 227.663 198.974 227.521 198.571C227.38 198.168 227.157 197.798 226.866 197.485C226.576 197.172 226.223 196.923 225.832 196.752C225.44 196.581 225.018 196.493 224.591 196.493C224.163 196.493 223.741 196.581 223.349 196.752C222.958 196.923 222.605 197.172 222.315 197.485C222.024 197.798 221.801 198.168 221.66 198.571C221.518 198.974 221.462 199.402 221.493 199.828C221.482 200.479 221.664 201.119 222.015 201.667C222.366 202.215 222.871 202.647 223.467 202.908C222.491 203.025 221.572 203.429 220.826 204.07C220.081 204.711 219.543 205.56 219.281 206.507C220.378 207.762 221.887 208.583 223.535 208.822H225.441C227.132 208.604 228.685 207.775 229.806 206.49C229.563 205.549 229.045 204.702 228.317 204.058C227.589 203.413 226.686 203.001 225.722 202.874Z" fill="#455A64"/>
<path d="M224.531 208.864C224.531 208.813 225.152 208.864 226.232 208.566C227.74 208.158 229.068 207.26 230.01 206.014C230.696 205.098 231.142 204.025 231.307 202.892C231.472 201.76 231.35 200.604 230.954 199.53C230.73 198.919 230.415 198.345 230.019 197.829C229.617 197.272 229.125 196.786 228.564 196.391C227.395 195.533 225.984 195.071 224.535 195.071C223.086 195.071 221.674 195.533 220.506 196.391C219.946 196.788 219.455 197.274 219.051 197.829C218.655 198.345 218.339 198.919 218.115 199.53C217.718 200.606 217.597 201.764 217.764 202.898C217.93 204.032 218.379 205.106 219.068 206.022C220.008 207.266 221.333 208.164 222.837 208.575C223.909 208.856 224.539 208.822 224.539 208.873C224.39 208.895 224.238 208.895 224.088 208.873C223.652 208.872 223.218 208.817 222.795 208.711C221.213 208.351 219.807 207.448 218.821 206.159C218.13 205.275 217.658 204.239 217.443 203.138C217.199 201.867 217.299 200.554 217.732 199.335C218.222 197.97 219.111 196.784 220.285 195.931C221.525 195.011 223.029 194.515 224.573 194.515C226.118 194.515 227.621 195.011 228.861 195.931C230.02 196.789 230.894 197.975 231.371 199.335C231.776 200.469 231.89 201.687 231.701 202.876C231.512 204.066 231.027 205.189 230.291 206.141C229.301 207.429 227.893 208.332 226.309 208.694C225.889 208.8 225.457 208.855 225.024 208.856C224.861 208.885 224.694 208.888 224.531 208.864Z" fill="#455A64"/>
<path d="M306.883 215.211C306.883 215.211 307.104 215.211 307.513 215.126C308.124 215.001 308.687 214.706 309.138 214.276C309.499 213.925 309.777 213.499 309.954 213.029C310.13 212.558 310.201 212.054 310.159 211.553C310.159 210.345 310.159 208.949 310.159 207.384C310.159 204.244 310.159 200.407 310.159 195.957C310.159 194.851 310.159 193.694 310.159 192.503C310.189 191.91 310.056 191.32 309.774 190.798C309.492 190.276 309.072 189.841 308.559 189.542C307.513 188.878 306.143 189.167 304.824 189.108H300.723L213.087 189.176C212.587 189.175 212.094 189.295 211.65 189.524C211.206 189.754 210.823 190.086 210.534 190.495C210.245 190.898 210.059 191.365 209.99 191.856C209.93 192.332 209.99 192.894 209.99 193.413V199.709C209.99 203.873 209.99 207.971 209.99 212.004C210.009 212.475 210.135 212.935 210.359 213.349C210.583 213.764 210.899 214.121 211.283 214.395C211.657 214.674 212.091 214.86 212.551 214.939C213.034 214.991 213.52 215.008 214.006 214.99H231.269L270.654 215.041L297.209 215.109H304.424H306.305H306.943H306.305H304.424H297.209L270.654 215.186L231.269 215.228H213.946C213.438 215.242 212.929 215.222 212.423 215.169C211.897 215.077 211.399 214.864 210.968 214.548C210.532 214.236 210.172 213.829 209.917 213.357C209.662 212.885 209.518 212.361 209.496 211.825C209.496 207.792 209.496 203.688 209.496 199.513V193.217C209.496 192.681 209.496 192.179 209.539 191.601C209.613 191.038 209.826 190.503 210.16 190.044C210.489 189.578 210.925 189.198 211.431 188.936C211.937 188.673 212.499 188.537 213.07 188.538L300.706 188.597H306.781C307.45 188.571 308.112 188.74 308.687 189.082C309.234 189.411 309.681 189.883 309.981 190.446C310.281 191.01 310.422 191.644 310.389 192.281C310.389 193.472 310.389 194.63 310.389 195.736C310.389 200.186 310.389 204.023 310.346 207.163C310.346 208.728 310.346 210.123 310.346 211.332C310.381 211.849 310.301 212.368 310.111 212.85C309.921 213.333 309.627 213.767 309.249 214.122C308.774 214.562 308.184 214.857 307.547 214.973C307.34 215.087 307.116 215.167 306.883 215.211Z" fill="#E0E0E0"/>
<path d="M262.88 195.787H238.129V197.642H262.88V195.787Z" fill="#455A64"/>
<path d="M281.488 206.269H238.129V208.124H281.488V206.269Z" fill="#455A64"/>
<path d="M300.963 200.9H238.129V202.755H300.963V200.9Z" fill="#455A64"/>
<path d="M225.722 236.151C226.312 235.888 226.812 235.46 227.161 234.917C227.51 234.374 227.693 233.741 227.688 233.096C227.719 232.67 227.663 232.242 227.521 231.839C227.38 231.436 227.157 231.066 226.866 230.753C226.576 230.44 226.223 230.19 225.832 230.02C225.44 229.849 225.018 229.761 224.591 229.761C224.163 229.761 223.741 229.849 223.349 230.02C222.958 230.19 222.605 230.44 222.315 230.753C222.024 231.066 221.801 231.436 221.66 231.839C221.518 232.242 221.462 232.67 221.493 233.096C221.483 233.747 221.665 234.386 222.016 234.934C222.367 235.481 222.872 235.914 223.467 236.176C222.491 236.293 221.572 236.697 220.826 237.338C220.081 237.979 219.543 238.827 219.281 239.775C220.38 241.027 221.888 241.847 223.535 242.089H225.441C227.131 241.868 228.682 241.039 229.806 239.758C229.563 238.818 229.044 237.972 228.316 237.329C227.589 236.686 226.685 236.276 225.722 236.151Z" fill="#455A64"/>
<path d="M224.531 242.141C224.531 242.09 225.152 242.141 226.232 241.834C227.741 241.428 229.07 240.529 230.01 239.282C230.695 238.364 231.141 237.289 231.305 236.156C231.47 235.022 231.35 233.865 230.955 232.79C230.729 232.179 230.413 231.606 230.019 231.088C229.613 230.535 229.122 230.05 228.564 229.65C227.396 228.792 225.984 228.33 224.535 228.33C223.086 228.33 221.674 228.792 220.506 229.65C219.95 230.052 219.459 230.537 219.051 231.088C218.657 231.606 218.341 232.179 218.115 232.79C217.718 233.865 217.597 235.023 217.764 236.157C217.93 237.292 218.379 238.366 219.068 239.282C220.005 240.529 221.332 241.427 222.837 241.834C223.91 242.115 224.539 242.09 224.539 242.141C224.389 242.159 224.238 242.159 224.088 242.141C223.652 242.143 223.218 242.092 222.795 241.987C221.214 241.625 219.809 240.722 218.822 239.435C218.129 238.552 217.656 237.516 217.443 236.414C217.199 235.146 217.299 233.836 217.732 232.62C218.222 231.254 219.111 230.068 220.285 229.216C221.526 228.299 223.029 227.804 224.573 227.804C226.117 227.804 227.62 228.299 228.861 229.216C229.45 229.646 229.967 230.166 230.393 230.756C230.813 231.314 231.143 231.934 231.371 232.594C231.809 233.81 231.909 235.121 231.661 236.389C231.402 237.735 230.758 238.978 229.809 239.967C228.859 240.955 227.644 241.648 226.309 241.962C225.889 242.066 225.457 242.118 225.024 242.115C224.862 242.146 224.696 242.154 224.531 242.141Z" fill="#455A64"/>
<path d="M306.883 248.488C306.883 248.488 307.105 248.488 307.513 248.403C308.124 248.279 308.688 247.984 309.138 247.552C309.499 247.202 309.777 246.776 309.954 246.305C310.13 245.834 310.201 245.33 310.159 244.829C310.159 243.621 310.159 242.234 310.159 240.669C310.159 237.529 310.159 233.692 310.159 229.242C310.159 228.127 310.159 226.979 310.159 225.787C310.19 225.195 310.057 224.605 309.775 224.082C309.493 223.56 309.072 223.126 308.559 222.826C307.513 222.163 306.143 222.452 304.824 222.393H300.723L213.087 222.452C212.587 222.454 212.095 222.574 211.651 222.803C211.207 223.033 210.824 223.364 210.534 223.771C210.245 224.177 210.058 224.647 209.99 225.141C209.93 225.617 209.99 226.179 209.99 226.698V232.985C209.99 237.155 209.99 241.253 209.99 245.28C210.007 245.752 210.133 246.214 210.357 246.63C210.581 247.046 210.898 247.405 211.283 247.679C211.659 247.953 212.093 248.136 212.551 248.215C213.033 248.275 213.52 248.295 214.006 248.275H231.269L270.654 248.318L297.209 248.394L304.424 248.437H306.305H306.943C306.943 248.437 306.722 248.437 306.305 248.437H304.424H297.209L270.654 248.505L231.269 248.556H213.946C213.438 248.578 212.928 248.558 212.423 248.496C211.896 248.411 211.397 248.201 210.968 247.884C210.533 247.571 210.174 247.163 209.92 246.691C209.665 246.22 209.52 245.697 209.496 245.161C209.496 241.122 209.496 237.016 209.496 232.841V226.553C209.496 226.017 209.496 225.515 209.539 224.937C209.611 224.371 209.825 223.833 210.16 223.371C210.49 222.907 210.926 222.528 211.432 222.266C211.939 222.004 212.5 221.866 213.07 221.865L300.706 221.933H306.781C307.449 221.916 308.109 222.083 308.687 222.418C309.235 222.748 309.682 223.221 309.982 223.786C310.282 224.351 310.422 224.987 310.389 225.626C310.389 226.817 310.389 227.965 310.389 229.08C310.389 233.53 310.389 237.367 310.346 240.507C310.346 242.072 310.346 243.459 310.346 244.667C310.382 245.185 310.302 245.704 310.112 246.186C309.922 246.669 309.627 247.104 309.249 247.458C308.779 247.906 308.187 248.202 307.547 248.309C307.335 248.398 307.112 248.458 306.883 248.488Z" fill="#E0E0E0"/>
<path d="M262.88 229.055H238.129V230.91H262.88V229.055Z" fill="#455A64"/>
<path d="M281.488 239.545H238.129V241.4H281.488V239.545Z" fill="#455A64"/>
<path d="M300.963 234.177H238.129V236.032H300.963V234.177Z" fill="#455A64"/>
<path d="M254.001 264.815C253.978 265.156 253.856 265.483 253.649 265.756C253.443 266.028 253.161 266.234 252.839 266.348C252.517 266.462 252.168 266.48 251.836 266.399C251.504 266.318 251.203 266.141 250.97 265.891C250.737 265.641 250.583 265.328 250.525 264.992C250.467 264.655 250.51 264.308 250.646 263.995C250.783 263.682 251.008 263.415 251.295 263.229C251.581 263.042 251.915 262.943 252.257 262.944C252.736 262.961 253.189 263.168 253.516 263.519C253.843 263.87 254.017 264.336 254.001 264.815Z" fill="#455A64"/>
<path d="M259.416 264.841C259.392 265.182 259.27 265.509 259.063 265.781C258.857 266.053 258.575 266.259 258.253 266.374C257.931 266.488 257.582 266.506 257.251 266.424C256.919 266.343 256.617 266.167 256.384 265.917C256.151 265.667 255.997 265.354 255.939 265.017C255.882 264.68 255.924 264.334 256.06 264.02C256.197 263.707 256.423 263.441 256.709 263.254C256.995 263.067 257.33 262.968 257.671 262.969C257.909 262.977 258.143 263.031 258.359 263.13C258.576 263.228 258.771 263.368 258.933 263.542C259.095 263.716 259.221 263.92 259.304 264.143C259.387 264.366 259.425 264.603 259.416 264.841Z" fill="#455A64"/>
<path d="M264.845 264.867C264.822 265.209 264.698 265.538 264.489 265.811C264.281 266.084 263.997 266.29 263.672 266.402C263.348 266.515 262.997 266.53 262.664 266.446C262.331 266.361 262.031 266.18 261.8 265.926C261.568 265.672 261.417 265.355 261.364 265.016C261.312 264.676 261.36 264.329 261.503 264.016C261.646 263.704 261.878 263.441 262.17 263.259C262.461 263.077 262.8 262.986 263.143 262.995C263.616 263.021 264.059 263.232 264.377 263.582C264.696 263.933 264.864 264.394 264.845 264.867Z" fill="#455A64"/>
<path d="M270.636 116.142L176.797 122.711C174.95 122.84 173.558 124.442 173.687 126.288L175.057 145.858C175.186 147.704 176.788 149.097 178.635 148.967L272.474 142.399C274.321 142.269 275.713 140.668 275.584 138.821L274.214 119.252C274.085 117.405 272.483 116.013 270.636 116.142Z" fill="#FF725E"/>
<path d="M226.574 125.175L201.887 126.953L202.02 128.803L226.707 127.025L226.574 125.175Z" fill="#FAFAFA"/>
<path d="M245.887 134.302L202.641 137.417L202.774 139.267L246.021 136.152L245.887 134.302Z" fill="#FAFAFA"/>
<path d="M265.553 128.497L202.719 132.895L202.849 134.75L265.683 130.351L265.553 128.497Z" fill="#FAFAFA"/>
<path d="M190.027 134.901C190.599 134.6 191.069 134.138 191.379 133.573C191.689 133.007 191.826 132.362 191.771 131.719C191.777 131.29 191.694 130.865 191.527 130.47C191.36 130.075 191.113 129.719 190.801 129.424C190.49 129.129 190.121 128.902 189.718 128.757C189.314 128.611 188.885 128.551 188.457 128.58C188.029 128.609 187.612 128.726 187.232 128.924C186.851 129.122 186.516 129.397 186.247 129.731C185.978 130.065 185.782 130.451 185.669 130.865C185.557 131.279 185.531 131.711 185.594 132.136C185.632 132.785 185.86 133.409 186.251 133.93C186.641 134.451 187.176 134.844 187.79 135.062C186.824 135.249 185.936 135.718 185.237 136.41C184.539 137.103 184.062 137.987 183.867 138.951C185.059 140.134 186.641 140.845 188.317 140.95L190.214 140.823C191.883 140.48 193.371 139.543 194.401 138.185C194.083 137.264 193.496 136.459 192.717 135.873C191.937 135.288 191.001 134.949 190.027 134.901Z" fill="#FAFAFA"/>
<path d="M189.295 140.959C189.295 140.908 189.925 140.891 190.997 140.533C192.471 140.015 193.729 139.017 194.571 137.7C195.151 136.804 195.512 135.784 195.626 134.722C195.752 133.504 195.556 132.275 195.056 131.157C194.789 130.555 194.43 129.998 193.992 129.506C193.554 128.978 193.03 128.527 192.443 128.171C191.216 127.398 189.775 127.038 188.328 127.142C186.882 127.246 185.507 127.809 184.403 128.749C183.37 129.622 182.621 130.784 182.25 132.084C181.928 133.184 181.889 134.346 182.136 135.465C182.383 136.583 182.908 137.621 183.663 138.483C184.685 139.668 186.075 140.477 187.611 140.78C188.7 140.984 189.312 140.908 189.312 140.959C189.168 140.999 189.019 141.019 188.87 141.018C188.435 141.045 187.998 141.022 187.568 140.95C185.966 140.699 184.499 139.903 183.416 138.696C182.667 137.86 182.125 136.861 181.833 135.777C181.493 134.529 181.493 133.213 181.833 131.965C182.015 131.292 182.302 130.652 182.684 130.068C183.065 129.444 183.545 128.887 184.105 128.417C185.273 127.422 186.728 126.825 188.259 126.715C189.79 126.605 191.315 126.987 192.614 127.805C193.826 128.568 194.783 129.676 195.362 130.987C195.886 132.17 196.083 133.471 195.932 134.756C195.797 135.871 195.401 136.938 194.775 137.87C193.883 139.227 192.543 140.227 190.988 140.695C190.578 140.831 190.152 140.916 189.721 140.95C189.58 140.969 189.437 140.972 189.295 140.959Z" fill="#FAFAFA"/>
<path d="M155.286 368.533L154.035 375.757L165.164 376.565L165.198 369.469L155.286 368.533Z" fill="#FF725E"/>
<path d="M160.286 368.635C160.336 369.736 160.27 370.84 160.09 371.928C160.018 373.028 159.841 374.119 159.563 375.186C159.513 374.085 159.579 372.982 159.759 371.894C159.83 370.793 160.007 369.702 160.286 368.635Z" fill="#263238"/>
<path d="M165.162 375.782C164.624 375.799 164.085 375.759 163.554 375.663L159.683 375.238C158.177 375.059 156.807 374.88 155.829 374.71C155.29 374.65 154.759 374.53 154.246 374.353C154.785 374.347 155.322 374.387 155.854 374.472L159.726 374.906C161.232 375.076 162.601 375.263 163.588 375.433C164.125 375.489 164.653 375.606 165.162 375.782Z" fill="#263238"/>
<path d="M201.215 374.302L202.636 367.988L190.826 365.249L188.656 374.463L189.371 374.685C192.587 375.621 205.801 379.211 208.132 379.058C210.727 378.879 201.215 374.302 201.215 374.302Z" fill="#FF725E"/>
<path d="M192.952 375.365C193.006 374.329 192.679 373.31 192.033 372.498C191.399 371.698 190.488 371.164 189.481 371L188.715 374.302L192.952 375.365Z" fill="#EBEBEB"/>
<path d="M205.811 376.718C205.811 376.718 209.086 378.547 208.516 379.024C207.946 379.5 194.46 376.369 188.641 374.463L188.717 374.208L204.415 377.994C204.415 377.994 205.13 376.582 205.811 376.718Z" fill="#EBEBEB"/>
<path d="M188.547 374.157L188.751 374.225L189.321 374.395L191.448 374.991C193.244 375.476 195.702 376.114 198.502 376.761C201.301 377.407 203.794 377.935 205.615 378.292L207.784 378.701L208.38 378.803H208.584L208.38 378.743L207.793 378.616L205.64 378.165C203.819 377.782 201.301 377.237 198.536 376.591C195.771 375.944 193.278 375.323 191.474 374.889L189.338 374.344L188.76 374.2L188.547 374.157Z" fill="#263238"/>
<path d="M204.379 378.173C204.557 377.841 204.771 377.53 205.017 377.245C205.302 376.994 205.613 376.775 205.944 376.59C205.555 376.666 205.197 376.858 204.917 377.14C204.638 377.422 204.45 377.782 204.379 378.173Z" fill="#263238"/>
<path d="M201.307 375.604C201.307 375.604 201.546 375.467 201.784 375.229C202.022 374.991 202.184 374.787 202.158 374.761C202.133 374.736 201.92 374.897 201.682 375.127C201.443 375.357 201.282 375.57 201.307 375.604Z" fill="#263238"/>
<path d="M200.466 374.872C200.466 374.872 200.704 374.872 200.951 374.693C201.198 374.514 201.376 374.412 201.359 374.378C201.342 374.344 201.121 374.429 200.883 374.566C200.645 374.702 200.449 374.838 200.466 374.872Z" fill="#263238"/>
<path d="M200.125 373.621C200.306 373.735 200.509 373.811 200.721 373.842C200.923 373.909 201.137 373.935 201.35 373.919C201.35 373.876 201.095 373.783 200.755 373.698C200.414 373.613 200.134 373.579 200.125 373.621Z" fill="#263238"/>
<path d="M200.102 372.779C200.102 372.779 200.348 373.017 200.74 373.145C200.971 373.241 201.226 373.265 201.471 373.213C201.249 373.121 201.018 373.05 200.782 373C200.561 372.911 200.333 372.837 200.102 372.779Z" fill="#263238"/>
<path d="M201.945 374.659C202.186 374.76 202.442 374.82 202.703 374.838C202.986 374.864 203.27 374.864 203.553 374.838C203.726 374.824 203.897 374.796 204.064 374.753C204.166 374.721 204.251 374.651 204.302 374.557C204.327 374.503 204.336 374.444 204.329 374.385C204.321 374.326 204.297 374.271 204.26 374.225C204.003 374.019 203.683 373.906 203.353 373.906C203.024 373.906 202.704 374.019 202.447 374.225C202.295 374.348 202.171 374.502 202.081 374.676C202.022 374.804 202.005 374.872 202.013 374.88C202.144 374.664 202.311 374.471 202.507 374.31C202.725 374.15 202.985 374.055 203.256 374.038C203.564 374.016 203.868 374.113 204.106 374.31C204.209 374.429 204.106 374.557 203.979 374.608C203.826 374.65 203.669 374.678 203.511 374.693C203.228 374.719 202.943 374.719 202.66 374.693C202.243 374.702 201.954 374.642 201.945 374.659Z" fill="#263238"/>
<path d="M202.132 374.744C202.264 374.61 202.34 374.43 202.345 374.242C202.364 374.038 202.338 373.831 202.268 373.638C202.166 373.434 202.056 373.162 201.724 373.102C201.643 373.102 201.566 373.133 201.507 373.188C201.448 373.244 201.413 373.319 201.409 373.4C201.399 373.524 201.416 373.649 201.46 373.766C201.521 373.956 201.603 374.139 201.707 374.31C201.796 374.472 201.921 374.612 202.073 374.719C202.073 374.719 201.954 374.548 201.8 374.259C201.712 374.091 201.641 373.914 201.588 373.732C201.52 373.544 201.52 373.238 201.715 373.247C201.911 373.255 202.056 373.51 202.141 373.689C202.209 373.863 202.244 374.047 202.243 374.234C202.221 374.407 202.184 374.578 202.132 374.744Z" fill="#263238"/>
<path d="M189.539 370.966C189.539 370.966 189.879 371.009 190.39 371.196C191.074 371.428 191.678 371.851 192.13 372.415C192.582 372.979 192.864 373.66 192.942 374.378C193.002 374.931 192.942 375.272 192.942 375.28C192.975 375.204 192.995 375.124 193.002 375.042C193.021 374.818 193.021 374.593 193.002 374.37C192.949 373.627 192.673 372.918 192.21 372.334C191.747 371.751 191.118 371.322 190.407 371.103C190.197 371.035 189.98 370.99 189.76 370.966C189.687 370.953 189.612 370.953 189.539 370.966Z" fill="#263238"/>
<path d="M191.906 366.355C191.634 367.14 191.412 367.941 191.242 368.754C191.022 369.555 190.846 370.368 190.715 371.188C190.988 370.403 191.21 369.602 191.379 368.788C191.599 367.988 191.775 367.175 191.906 366.355Z" fill="#455A64"/>
<path d="M194.746 374.557C195.285 374.822 195.858 375.014 196.448 375.127C197.02 375.296 197.613 375.384 198.209 375.391C198.209 375.348 197.435 375.221 196.507 374.991C195.58 374.761 194.746 374.523 194.746 374.557Z" fill="#263238"/>
<path d="M192.395 374.021C192.395 374.021 192.395 374.2 192.463 374.395C192.531 374.591 192.505 374.753 192.548 374.761C192.59 374.77 192.65 374.591 192.607 374.361C192.565 374.131 192.429 373.995 192.395 374.021Z" fill="#263238"/>
<path d="M191.781 372.728C191.781 372.728 191.781 372.889 191.883 373.042C191.985 373.196 192.079 373.306 192.113 373.281C192.147 373.255 192.113 373.119 192.011 372.966C191.909 372.813 191.815 372.711 191.781 372.728Z" fill="#263238"/>
<path d="M190.637 371.945C190.637 371.987 190.798 372.022 190.96 372.124C191.122 372.226 191.215 372.345 191.258 372.328C191.3 372.311 191.258 372.124 191.037 371.996C190.815 371.868 190.637 371.902 190.637 371.945Z" fill="#263238"/>
<path d="M189.805 371.503C189.805 371.503 189.805 371.613 189.932 371.673C190.06 371.732 190.111 371.758 190.128 371.724C190.145 371.69 190.128 371.613 190.009 371.554C189.89 371.494 189.83 371.469 189.805 371.503Z" fill="#263238"/>
<path d="M262.749 137.36C261.898 136.075 256.334 139.504 255.84 139.759C255.347 140.014 254.989 139.317 255.423 139.112C256.078 138.815 262.851 135.513 262 134.246C261.524 133.548 260.299 134.518 260.299 134.518C260.299 134.518 254.181 138.066 253.798 137.453C253.415 136.841 256.929 134.62 258.163 133.965C259.397 133.31 259.575 132.467 258.844 132.161C258.333 131.957 254.487 133.863 253.279 134.569C252.071 135.275 248.787 137.172 249.629 134.909C250.471 132.646 250.276 130.578 249.833 130.059C249.72 129.949 249.574 129.877 249.418 129.854C249.261 129.831 249.101 129.857 248.96 129.929C248.819 130.002 248.705 130.116 248.632 130.257C248.56 130.398 248.534 130.558 248.557 130.715C248.531 131.531 248.397 132.341 248.157 133.122C248.008 133.771 247.718 134.378 247.306 134.901C247.068 135.164 246.855 135.42 246.651 135.658L246.013 136.509C245.213 137.47 244.813 138.015 244.813 138.015L212.805 178.515L214.506 195.344L251.629 144.915V144.873C253.994 144.28 256.326 143.562 258.614 142.72C261.949 141.342 261.83 141.018 261.6 140.678C260.988 139.708 255.645 142.89 256.402 141.529C257.159 140.167 263.43 138.347 262.749 137.36Z" fill="#E5BAAB"/>
<path d="M172.176 166.373L176.643 140.253C177.145 139.606 177.885 138.653 178.719 137.487C179.119 136.934 179.611 136.453 180.174 136.067C180.852 135.555 181.6 135.143 182.394 134.841C182.556 134.812 182.705 134.732 182.818 134.613C182.932 134.494 183.005 134.342 183.028 134.179C183.051 134.016 183.021 133.85 182.944 133.705C182.867 133.559 182.746 133.442 182.599 133.369C181.943 133.114 179.85 133.625 177.919 135.233C175.988 136.841 176.745 132.961 177 131.54C177.255 130.119 177.851 125.695 177.443 125.269C176.889 124.648 176.124 125.125 175.911 126.554C175.698 127.984 174.737 132.195 173.997 132.025C173.256 131.855 174.635 124.657 174.635 124.657C174.635 124.657 175.179 123.159 174.328 122.955C172.788 122.555 171.895 130.323 171.827 131.064C171.776 131.583 170.976 131.429 171.044 130.876C171.112 130.323 172.584 123.712 171.044 123.295C169.845 122.964 170.253 129.677 169.189 130.876C168.126 132.076 169.402 125.771 168.245 125.491C167.811 125.397 167.479 125.38 167.266 129.115C167.238 131.808 167.349 134.5 167.598 137.181C167.42 138.151 162.272 166.305 161.932 170.509C161.591 174.712 176.03 199.556 176.03 199.556L186.002 189.346L172.176 166.373Z" fill="#E5BAAB"/>
<path d="M165.744 183.331C165.396 184.096 171.7 192.92 174.908 199.607L177.733 218.232C174.491 224.188 170.773 231.088 168.978 238.72C181.783 244.676 196.358 243.979 210.362 241.273L207.427 220.708L212.319 200.288L224.41 185.704L215.621 174.014L206.006 184.275L201.471 185.398C197.336 186.428 189.696 185.756 185.799 184.011L179.281 175.613L165.744 183.331Z" fill="#FF725E"/>
<path d="M196.783 217.075C196.182 217.458 195.524 217.745 194.835 217.926C193.187 218.479 191.467 218.791 189.73 218.853C187.996 218.914 186.263 218.728 184.582 218.3C183.879 218.162 183.202 217.915 182.574 217.568C184.91 218.143 187.307 218.429 189.713 218.419C192.115 218.259 194.489 217.807 196.783 217.075Z" fill="#263238"/>
<path d="M215.564 196.757C215.435 196.904 215.279 197.025 215.105 197.114C214.648 197.393 214.156 197.611 213.642 197.761C211.918 198.286 210.058 198.122 208.454 197.303C206.849 196.484 205.625 195.074 205.04 193.37C204.851 192.871 204.737 192.346 204.699 191.813C204.699 191.439 204.699 191.226 204.699 191.226C204.862 191.915 205.064 192.594 205.303 193.26C205.931 194.839 207.112 196.136 208.626 196.908C210.141 197.68 211.884 197.874 213.531 197.454C214.833 197.157 215.522 196.68 215.564 196.757Z" fill="#263238"/>
<path d="M222.758 187.517C222.319 186.916 221.932 186.278 221.601 185.611C220.921 184.428 219.976 182.795 218.87 181.025C217.764 179.255 216.709 177.69 215.935 176.558C215.478 175.97 215.074 175.344 214.727 174.686C215.28 175.193 215.772 175.764 216.19 176.388C217.041 177.477 218.13 179.025 219.245 180.804C220.359 182.582 221.27 184.249 221.882 185.483C222.248 186.127 222.542 186.809 222.758 187.517Z" fill="#263238"/>
<path d="M180.574 176.975C179.943 177.427 179.274 177.823 178.574 178.158L173.699 180.855L168.866 183.645C168.22 184.072 167.537 184.439 166.824 184.743C167.403 184.225 168.033 183.766 168.705 183.373C169.896 182.59 171.58 181.544 173.478 180.472C175.375 179.4 177.145 178.498 178.43 177.919C179.112 177.535 179.83 177.218 180.574 176.975Z" fill="#263238"/>
<path d="M177.143 193.336C177.022 194.07 176.817 194.786 176.53 195.472C176.374 196.199 176.131 196.904 175.807 197.574C175.706 196.814 175.809 196.042 176.105 195.336C176.262 194.587 176.621 193.896 177.143 193.336Z" fill="#263238"/>
<path d="M199.231 185.39C199.078 183.492 198.992 181.34 198.992 181.34C198.992 181.34 203.578 180.217 203.247 175.384C202.915 170.551 201.162 159.49 201.162 159.49L192.118 156.282L183.754 164.859L188.314 188.682L196.967 188.112C197.624 188.039 198.226 187.715 198.648 187.207C199.07 186.7 199.279 186.048 199.231 185.39Z" fill="#E5BAAB"/>
<path d="M197.972 172.533C197.972 172.533 197.972 172.627 197.929 172.755C197.871 172.839 197.795 172.911 197.707 172.963C197.619 173.016 197.521 173.05 197.419 173.061C196.874 173.061 196.278 172.576 195.989 171.87C195.855 171.532 195.799 171.168 195.827 170.806C195.824 170.65 195.86 170.495 195.933 170.356C196.006 170.218 196.113 170.1 196.244 170.015C196.301 169.991 196.362 169.978 196.423 169.978C196.485 169.978 196.545 169.991 196.602 170.015C196.69 170.045 196.766 170.105 196.814 170.185C196.9 170.321 196.857 170.415 196.814 170.406C196.772 170.398 196.814 170.33 196.704 170.245C196.647 170.196 196.574 170.169 196.5 170.169C196.425 170.169 196.352 170.196 196.295 170.245C196.201 170.322 196.127 170.422 196.08 170.535C196.033 170.647 196.013 170.77 196.023 170.891C196.015 171.214 196.073 171.536 196.193 171.836C196.449 172.474 196.968 172.942 197.376 172.942C197.542 172.94 197.701 172.873 197.818 172.755C197.929 172.601 197.955 172.533 197.972 172.533Z" fill="#D78776"/>
<path d="M199.923 155.772L200.11 156.027C198.445 154.835 196.39 154.318 194.359 154.581C192.239 154.683 190.157 155.185 188.224 156.061C187.705 156.299 187.186 156.538 186.676 156.793C186.953 156.35 187.17 155.872 187.322 155.372C187.575 154.61 187.593 153.789 187.373 153.016C187.153 152.244 186.705 151.556 186.088 151.041C185.395 150.596 184.563 150.418 183.747 150.54C182.932 150.662 182.189 151.076 181.656 151.705C181.16 152.365 180.892 153.168 180.892 153.994C180.892 154.819 181.16 155.622 181.656 156.282C182.021 156.75 182.479 157.136 183.003 157.416C183.526 157.696 184.101 157.863 184.693 157.907C184.353 158.137 184.021 158.375 183.706 158.631C182.376 159.744 181.374 161.199 180.81 162.839C180.247 164.48 180.142 166.243 180.507 167.939C180.755 168.858 181.08 169.754 181.477 170.619C181.544 171.383 181.512 172.152 181.383 172.908C181.237 173.835 180.873 174.715 180.321 175.475C179.769 176.235 179.046 176.854 178.21 177.281C177.57 177.47 176.986 177.812 176.508 178.277C176.314 178.599 176.211 178.968 176.211 179.344C176.211 179.721 176.314 180.09 176.508 180.412C176.844 180.985 177.295 181.481 177.832 181.871C178.37 182.26 178.982 182.534 179.631 182.675C179.835 182.725 180.043 182.762 180.252 182.786C180.102 183.811 180.232 184.857 180.626 185.815C181.471 187.167 182.693 188.243 184.141 188.909C185.589 189.576 187.201 189.805 188.777 189.567L188.905 187.313L189.756 189.865C189.756 189.865 192.597 190.929 199.004 188.036C201.14 187.057 198.009 179.298 198.009 179.298C196.418 177.724 196.928 175.111 196.928 175.111C195.584 175.282 194.274 171.768 194.554 170.593C194.663 169.997 194.969 169.454 195.422 169.052C195.876 168.65 196.451 168.41 197.056 168.373C197.592 168.373 197.456 171.13 198.851 170.823C200.034 170.823 199.591 168.62 199.957 167.513C200.808 165.106 202.408 161.736 201.821 159.269C203.675 157.048 201.821 154.368 199.923 155.772Z" fill="#263238"/>
<path d="M178.079 163.54C177.795 163.02 177.719 162.412 177.866 161.838C177.966 161.222 178.211 160.639 178.581 160.137C179.035 159.5 179.682 159.029 180.427 158.792C181.155 158.621 181.9 158.532 182.648 158.528C183.217 158.518 183.773 158.353 184.256 158.052C184.473 157.91 184.66 157.726 184.806 157.511C184.952 157.297 185.054 157.055 185.107 156.801C185.107 156.801 185.192 156.954 185.107 157.261C185.009 157.685 184.757 158.058 184.401 158.307C183.891 158.685 183.281 158.903 182.648 158.937C181.934 158.957 181.225 159.048 180.529 159.209C179.936 159.421 179.406 159.78 178.988 160.251C178.57 160.723 178.278 161.292 178.138 161.906C178.061 162.447 178.041 162.995 178.079 163.54Z" fill="#263238"/>
<path d="M198.396 187.73C198.77 187.188 199.103 186.619 199.392 186.028C199.69 185.306 199.833 184.529 199.813 183.748C199.792 182.967 199.608 182.198 199.273 181.493C198.846 180.723 198.375 179.978 197.86 179.264C197.426 178.651 197.106 177.965 196.916 177.239C196.799 176.908 196.757 176.555 196.794 176.206C196.831 175.858 196.945 175.521 197.129 175.222C197.01 175.867 197.042 176.531 197.222 177.162C197.445 177.833 197.772 178.465 198.192 179.034C198.738 179.75 199.233 180.503 199.673 181.289C200.087 182.125 200.277 183.054 200.226 183.986C200.184 184.738 199.996 185.475 199.673 186.155C199.456 186.609 199.169 187.025 198.822 187.389C198.584 187.636 198.413 187.747 198.396 187.73Z" fill="#263238"/>
<path d="M169.463 238.925L151.484 369.341L169.352 369.886C169.352 369.886 187.577 255.091 188.777 255.763C189.976 256.435 202.16 305.299 201.624 308.294C201.318 309.995 187.56 368.593 188.538 368.363C189.517 368.133 205.777 369.775 205.777 369.775C205.777 369.775 219.79 308.149 219.586 306.66C219.101 303.035 209.886 237.342 209.886 237.342L169.463 238.925Z" fill="#263238"/>
<path d="M195.478 257.337C194.724 257.306 193.976 257.189 193.249 256.988C189.7 256.214 186.242 255.073 182.928 253.584C182.228 253.31 181.561 252.959 180.938 252.538C181.664 252.729 182.373 252.982 183.056 253.295C184.349 253.797 186.136 254.469 188.161 255.133C190.186 255.797 191.998 256.324 193.343 256.69C194.071 256.847 194.785 257.063 195.478 257.337Z" fill="#455A64"/>
<path d="M200.458 369.265C200.577 369.265 200.577 369.775 200.458 370.345C200.338 370.915 200.134 371.366 200.015 371.341C199.896 371.315 199.896 370.83 200.015 370.252C200.134 369.673 200.338 369.265 200.458 369.265Z" fill="#455A64"/>
<path d="M202.234 361.037C202.248 362.452 201.958 363.854 201.384 365.147C201.315 364.438 201.393 363.722 201.613 363.045C201.684 362.341 201.895 361.658 202.234 361.037Z" fill="#455A64"/>
<path d="M204.023 352.835C204.03 354.246 203.74 355.644 203.172 356.936C203.163 355.524 203.453 354.126 204.023 352.835Z" fill="#455A64"/>
<path d="M205.811 344.59C205.879 345.299 205.801 346.015 205.581 346.692C205.5 347.398 205.277 348.081 204.926 348.7C204.852 347.992 204.928 347.276 205.147 346.598C205.229 345.891 205.455 345.207 205.811 344.59Z" fill="#455A64"/>
<path d="M207.585 336.422C207.592 337.834 207.302 339.231 206.735 340.523C206.725 339.112 207.015 337.714 207.585 336.422Z" fill="#455A64"/>
<path d="M209.366 328.212C209.361 329.629 209.056 331.029 208.473 332.321C208.478 330.904 208.782 329.503 209.366 328.212Z" fill="#455A64"/>
<path d="M211.143 320.01C211.212 320.715 211.136 321.427 210.921 322.103C210.842 322.811 210.616 323.494 210.258 324.111C210.255 322.699 210.545 321.303 211.109 320.01H211.143Z" fill="#455A64"/>
<path d="M212.932 311.799C212.927 313.217 212.623 314.617 212.039 315.909C212.044 314.491 212.349 313.091 212.932 311.799Z" fill="#455A64"/>
<path d="M213.466 303.546C213.773 304.188 213.947 304.885 213.976 305.596C214.054 306.121 214.099 306.649 214.113 307.179V307.222C214.002 307.528 213.917 307.698 213.866 307.69C213.815 307.681 213.798 307.477 213.866 307.153V307.205C213.734 306.692 213.634 306.172 213.568 305.647C213.39 304.961 213.355 304.246 213.466 303.546Z" fill="#455A64"/>
<path d="M212.277 295.242C212.584 295.883 212.755 296.581 212.779 297.292C212.952 297.983 212.976 298.702 212.847 299.402C212.54 298.761 212.369 298.063 212.345 297.352C212.172 296.661 212.149 295.942 212.277 295.242Z" fill="#455A64"/>
<path d="M211.121 286.912C211.432 287.553 211.606 288.251 211.632 288.963C211.8 289.654 211.823 290.372 211.7 291.073C211.392 290.431 211.218 289.733 211.189 289.022C211.026 288.33 211.003 287.613 211.121 286.912Z" fill="#455A64"/>
<path d="M209.973 278.591C210.28 279.233 210.454 279.93 210.483 280.641C210.646 281.333 210.669 282.051 210.551 282.751C210.24 282.111 210.066 281.413 210.041 280.701C209.872 280.01 209.849 279.291 209.973 278.591Z" fill="#455A64"/>
<path d="M208.82 270.27C209.127 270.911 209.298 271.609 209.322 272.32C209.495 273.01 209.519 273.73 209.39 274.43C209.088 273.787 208.917 273.09 208.888 272.38C208.72 271.689 208.697 270.97 208.82 270.27Z" fill="#455A64"/>
<path d="M207.666 261.957C207.977 262.597 208.151 263.296 208.177 264.007C208.345 264.698 208.368 265.417 208.245 266.117C207.937 265.476 207.767 264.778 207.743 264.067C207.574 263.376 207.548 262.658 207.666 261.957Z" fill="#455A64"/>
<path d="M206.516 253.635C206.823 254.277 206.997 254.975 207.026 255.686C207.194 256.377 207.217 257.096 207.094 257.796C206.787 257.154 206.613 256.457 206.584 255.746C206.421 255.054 206.397 254.336 206.516 253.635Z" fill="#455A64"/>
<path d="M205.647 247.373C205.774 247.373 205.936 247.816 206.013 248.394C206.089 248.973 206.064 249.458 205.945 249.475C205.825 249.492 205.655 249.032 205.579 248.454C205.502 247.875 205.528 247.39 205.647 247.373Z" fill="#455A64"/>
<path d="M186.707 370.788L206.549 371.953L207.595 366.27L187.822 365.479L186.707 370.788Z" fill="#455A64"/>
<path d="M150.309 369.333L170.159 370.49L171.197 364.815L151.423 364.023L150.309 369.333Z" fill="#455A64"/>
<path d="M185.066 256.443C184.947 256.443 184.947 255.924 185.066 255.354C185.185 254.784 185.372 254.333 185.491 254.359C185.61 254.384 185.619 254.869 185.491 255.439C185.364 256.009 185.185 256.46 185.066 256.443Z" fill="#455A64"/>
<path d="M183.389 264.611C183.314 263.907 183.383 263.195 183.593 262.518C183.662 261.815 183.877 261.135 184.222 260.519C184.236 261.928 183.945 263.324 183.372 264.611H183.389Z" fill="#455A64"/>
<path d="M181.753 272.822C181.672 272.119 181.735 271.406 181.94 270.729C182.01 270.025 182.221 269.342 182.561 268.721C182.653 269.424 182.589 270.138 182.374 270.814C182.309 271.519 182.097 272.203 181.753 272.822Z" fill="#455A64"/>
<path d="M180.155 281.024C180.069 280.322 180.13 279.609 180.334 278.931C180.399 278.227 180.607 277.544 180.946 276.923C181.033 277.626 180.972 278.338 180.768 279.016C180.701 279.72 180.493 280.403 180.155 281.024Z" fill="#455A64"/>
<path d="M178.582 289.235C178.495 288.533 178.553 287.82 178.753 287.142C178.815 286.435 179.021 285.749 179.357 285.125C179.454 285.826 179.399 286.54 179.195 287.218C179.136 287.926 178.927 288.613 178.582 289.235Z" fill="#455A64"/>
<path d="M177.084 297.454C177.036 296.046 177.291 294.645 177.833 293.344C177.924 294.046 177.869 294.758 177.671 295.437C177.614 296.142 177.414 296.829 177.084 297.454Z" fill="#455A64"/>
<path d="M175.624 305.681C175.572 304.273 175.819 302.87 176.347 301.563C176.446 302.263 176.397 302.976 176.203 303.656C176.153 304.364 175.955 305.054 175.624 305.681Z" fill="#455A64"/>
<path d="M174.207 313.909C174.153 312.503 174.391 311.101 174.904 309.791C175.014 310.493 174.97 311.209 174.777 311.893C174.732 312.598 174.538 313.285 174.207 313.909Z" fill="#455A64"/>
<path d="M172.863 322.154C172.747 321.456 172.784 320.742 172.973 320.061C173.015 319.355 173.204 318.665 173.526 318.036C173.632 318.734 173.594 319.446 173.416 320.129C173.374 320.835 173.185 321.524 172.863 322.154Z" fill="#455A64"/>
<path d="M171.57 330.407C171.492 329.002 171.71 327.596 172.208 326.28C172.288 327.685 172.071 329.091 171.57 330.407Z" fill="#455A64"/>
<path d="M170.34 338.677C170.228 337.978 170.257 337.263 170.425 336.575C170.455 335.868 170.635 335.175 170.953 334.542C171.065 335.241 171.036 335.956 170.868 336.644C170.838 337.351 170.658 338.044 170.34 338.677Z" fill="#455A64"/>
<path d="M169.224 346.947C169.095 346.25 169.116 345.534 169.284 344.845C169.313 344.14 169.487 343.448 169.794 342.812C169.917 343.507 169.893 344.22 169.726 344.905C169.698 345.613 169.528 346.307 169.224 346.947Z" fill="#455A64"/>
<path d="M168.085 355.226C167.935 354.536 167.935 353.823 168.085 353.133C168.107 352.426 168.275 351.73 168.578 351.091C168.69 352.492 168.508 353.9 168.042 355.226H168.085Z" fill="#455A64"/>
<path d="M167.044 363.522C166.917 362.12 167.091 360.707 167.555 359.378C167.697 360.068 167.697 360.781 167.555 361.471C167.536 362.184 167.362 362.883 167.044 363.522Z" fill="#455A64"/>
<path d="M166.314 369.784C166.194 369.784 166.152 369.29 166.22 368.703C166.288 368.116 166.441 367.657 166.56 367.674C166.679 367.691 166.722 368.176 166.654 368.754C166.586 369.333 166.441 369.801 166.314 369.784Z" fill="#455A64"/>
<path d="M213.345 308.004C211.62 308.003 209.896 307.912 208.18 307.732C206.453 307.695 204.729 307.565 203.016 307.341C206.473 307.05 209.953 307.274 213.345 308.004Z" fill="#455A64"/>
<path d="M212.368 305.877C209.508 306.494 206.562 306.604 203.664 306.2C205.107 306.034 206.559 305.96 208.012 305.979C209.46 305.851 210.915 305.817 212.368 305.877Z" fill="#455A64"/>
<path d="M167.35 312.088C165.724 309.933 164.338 307.608 163.215 305.154C164.841 307.308 166.227 309.634 167.35 312.088Z" fill="#455A64"/>
<path d="M210.396 242.251C210.396 242.251 210.396 242.472 210.396 242.847C210.32 243.385 210.203 243.917 210.047 244.438C209.828 245.235 209.416 245.965 208.847 246.565C208.477 246.926 208.035 247.206 207.55 247.386C207.065 247.566 206.547 247.643 206.031 247.612C205.03 247.56 204.047 247.326 203.13 246.922C202.372 246.619 201.67 246.19 201.054 245.655C200.442 245.195 200.035 244.514 199.922 243.757C200.258 244.39 200.711 244.953 201.258 245.416C201.871 245.893 202.554 246.272 203.283 246.539C204.159 246.904 205.092 247.117 206.039 247.169C206.503 247.203 206.969 247.14 207.408 246.987C207.847 246.833 208.25 246.591 208.592 246.276C209.134 245.73 209.542 245.066 209.783 244.336C210.175 243.077 210.319 242.234 210.396 242.251Z" fill="#455A64"/>
<path d="M185.493 254.401C185.493 254.401 185.348 254.299 185.135 254.086C184.793 253.819 184.477 253.52 184.191 253.193C183.741 252.707 183.375 252.149 183.11 251.542C182.966 250.751 182.929 249.944 183 249.143C183.093 247.441 183.289 245.978 183.434 244.889C183.478 244.31 183.589 243.739 183.765 243.187C183.91 243.187 183.663 245.893 183.442 249.194C183.374 249.948 183.394 250.708 183.502 251.457C183.739 252.02 184.054 252.547 184.438 253.023C184.727 253.474 185.076 253.72 185.288 254.001C185.501 254.282 185.518 254.342 185.493 254.401Z" fill="#455A64"/>
<path d="M129.155 398V388.047H131.965C132.831 388.047 133.596 388.238 134.262 388.621C134.927 389.004 135.44 389.549 135.8 390.255C136.164 390.961 136.349 391.772 136.354 392.688V393.324C136.354 394.263 136.171 395.086 135.807 395.792C135.447 396.498 134.929 397.041 134.255 397.419C133.585 397.797 132.803 397.991 131.91 398H129.155ZM130.468 389.127V396.927H131.849C132.86 396.927 133.646 396.612 134.207 395.983C134.772 395.354 135.055 394.459 135.055 393.297V392.716C135.055 391.586 134.788 390.708 134.255 390.084C133.726 389.455 132.974 389.136 131.999 389.127H130.468ZM141.214 398.137C140.211 398.137 139.396 397.809 138.767 397.152C138.138 396.492 137.823 395.61 137.823 394.507V394.274C137.823 393.541 137.962 392.887 138.24 392.312C138.523 391.734 138.915 391.283 139.416 390.959C139.922 390.631 140.469 390.467 141.057 390.467C142.018 390.467 142.766 390.784 143.299 391.417C143.832 392.05 144.099 392.957 144.099 394.138V394.664H139.088C139.106 395.393 139.318 395.983 139.724 396.435C140.134 396.881 140.653 397.104 141.282 397.104C141.729 397.104 142.107 397.013 142.417 396.831C142.727 396.649 142.998 396.407 143.23 396.106L144.003 396.708C143.383 397.66 142.453 398.137 141.214 398.137ZM141.057 391.506C140.546 391.506 140.118 391.693 139.771 392.066C139.425 392.436 139.211 392.955 139.129 393.625H142.834V393.529C142.798 392.887 142.624 392.39 142.314 392.039C142.005 391.684 141.585 391.506 141.057 391.506ZM149.875 396.038C149.875 395.696 149.745 395.432 149.485 395.245C149.23 395.054 148.781 394.89 148.139 394.753C147.501 394.616 146.993 394.452 146.614 394.261C146.241 394.069 145.963 393.841 145.78 393.577C145.603 393.313 145.514 392.998 145.514 392.634C145.514 392.028 145.769 391.515 146.279 391.096C146.794 390.676 147.451 390.467 148.248 390.467C149.087 390.467 149.766 390.683 150.285 391.116C150.809 391.549 151.071 392.103 151.071 392.777H149.8C149.8 392.431 149.652 392.132 149.355 391.882C149.064 391.631 148.695 391.506 148.248 391.506C147.788 391.506 147.428 391.606 147.168 391.807C146.908 392.007 146.778 392.269 146.778 392.593C146.778 392.898 146.899 393.128 147.141 393.283C147.382 393.438 147.817 393.586 148.446 393.728C149.08 393.869 149.592 394.037 149.984 394.233C150.376 394.429 150.666 394.666 150.853 394.944C151.044 395.218 151.14 395.553 151.14 395.949C151.14 396.61 150.875 397.141 150.347 397.542C149.818 397.938 149.132 398.137 148.289 398.137C147.697 398.137 147.173 398.032 146.717 397.822C146.261 397.613 145.903 397.321 145.644 396.947C145.388 396.569 145.261 396.161 145.261 395.724H146.525C146.548 396.147 146.717 396.485 147.031 396.735C147.35 396.981 147.77 397.104 148.289 397.104C148.768 397.104 149.15 397.009 149.438 396.817C149.729 396.621 149.875 396.362 149.875 396.038ZM154.161 398H152.896V390.604H154.161V398ZM152.794 388.642C152.794 388.437 152.855 388.263 152.979 388.122C153.106 387.981 153.293 387.91 153.539 387.91C153.785 387.91 153.972 387.981 154.1 388.122C154.227 388.263 154.291 388.437 154.291 388.642C154.291 388.847 154.227 389.018 154.1 389.154C153.972 389.291 153.785 389.359 153.539 389.359C153.293 389.359 153.106 389.291 152.979 389.154C152.855 389.018 152.794 388.847 152.794 388.642ZM155.891 394.24C155.891 393.087 156.157 392.171 156.69 391.492C157.224 390.809 157.93 390.467 158.81 390.467C159.712 390.467 160.416 390.786 160.922 391.424L160.983 390.604H162.139V397.822C162.139 398.779 161.854 399.534 161.284 400.085C160.719 400.636 159.958 400.912 159.001 400.912C158.468 400.912 157.946 400.798 157.436 400.57C156.925 400.342 156.535 400.03 156.267 399.634L156.923 398.875C157.465 399.545 158.128 399.88 158.912 399.88C159.527 399.88 160.006 399.707 160.348 399.36C160.694 399.014 160.867 398.526 160.867 397.897V397.262C160.361 397.845 159.671 398.137 158.796 398.137C157.93 398.137 157.228 397.788 156.69 397.091C156.157 396.394 155.891 395.443 155.891 394.24ZM157.162 394.384C157.162 395.218 157.333 395.874 157.675 396.353C158.017 396.826 158.495 397.063 159.11 397.063C159.908 397.063 160.493 396.701 160.867 395.977V392.6C160.48 391.893 159.899 391.54 159.124 391.54C158.509 391.54 158.028 391.779 157.682 392.258C157.335 392.736 157.162 393.445 157.162 394.384ZM165.249 390.604L165.29 391.533C165.855 390.822 166.593 390.467 167.505 390.467C169.068 390.467 169.856 391.349 169.87 393.112V398H168.605V393.105C168.601 392.572 168.478 392.178 168.236 391.923C167.999 391.668 167.628 391.54 167.122 391.54C166.712 391.54 166.352 391.649 166.042 391.868C165.732 392.087 165.491 392.374 165.317 392.729V398H164.053V390.604H165.249ZM174.847 398.137C173.844 398.137 173.028 397.809 172.399 397.152C171.771 396.492 171.456 395.61 171.456 394.507V394.274C171.456 393.541 171.595 392.887 171.873 392.312C172.156 391.734 172.548 391.283 173.049 390.959C173.555 390.631 174.102 390.467 174.689 390.467C175.651 390.467 176.398 390.784 176.932 391.417C177.465 392.05 177.731 392.957 177.731 394.138V394.664H172.721C172.739 395.393 172.951 395.983 173.356 396.435C173.767 396.881 174.286 397.104 174.915 397.104C175.362 397.104 175.74 397.013 176.05 396.831C176.36 396.649 176.631 396.407 176.863 396.106L177.636 396.708C177.016 397.66 176.086 398.137 174.847 398.137ZM174.689 391.506C174.179 391.506 173.751 391.693 173.404 392.066C173.058 392.436 172.844 392.955 172.762 393.625H176.467V393.529C176.43 392.887 176.257 392.39 175.947 392.039C175.637 391.684 175.218 391.506 174.689 391.506ZM178.894 394.24C178.894 393.105 179.162 392.194 179.7 391.506C180.238 390.813 180.942 390.467 181.812 390.467C182.678 390.467 183.364 390.763 183.87 391.355V387.5H185.135V398H183.973L183.911 397.207C183.405 397.827 182.701 398.137 181.799 398.137C180.942 398.137 180.243 397.786 179.7 397.084C179.162 396.382 178.894 395.466 178.894 394.336V394.24ZM180.158 394.384C180.158 395.222 180.331 395.879 180.678 396.353C181.024 396.826 181.503 397.063 182.113 397.063C182.915 397.063 183.501 396.703 183.87 395.983V392.586C183.492 391.889 182.911 391.54 182.127 391.54C181.507 391.54 181.024 391.779 180.678 392.258C180.331 392.736 180.158 393.445 180.158 394.384ZM196.838 394.384C196.838 395.514 196.578 396.423 196.059 397.111C195.539 397.795 194.842 398.137 193.967 398.137C193.033 398.137 192.31 397.806 191.8 397.146L191.738 398H190.576V387.5H191.841V391.417C192.351 390.784 193.055 390.467 193.953 390.467C194.851 390.467 195.555 390.806 196.065 391.485C196.58 392.164 196.838 393.094 196.838 394.274V394.384ZM195.573 394.24C195.573 393.379 195.407 392.714 195.074 392.244C194.742 391.775 194.263 391.54 193.639 391.54C192.805 391.54 192.205 391.927 191.841 392.702V395.901C192.228 396.676 192.832 397.063 193.652 397.063C194.258 397.063 194.73 396.829 195.067 396.359C195.405 395.89 195.573 395.184 195.573 394.24ZM200.775 396.147L202.498 390.604H203.852L200.878 399.142C200.418 400.372 199.686 400.987 198.684 400.987L198.444 400.967L197.973 400.878V399.853L198.314 399.88C198.743 399.88 199.076 399.793 199.312 399.62C199.554 399.447 199.752 399.13 199.907 398.67L200.188 397.918L197.549 390.604H198.93L200.775 396.147ZM212.766 396.038C212.766 395.696 212.636 395.432 212.376 395.245C212.121 395.054 211.672 394.89 211.029 394.753C210.391 394.616 209.883 394.452 209.505 394.261C209.131 394.069 208.853 393.841 208.671 393.577C208.493 393.313 208.404 392.998 208.404 392.634C208.404 392.028 208.66 391.515 209.17 391.096C209.685 390.676 210.341 390.467 211.139 390.467C211.977 390.467 212.656 390.683 213.176 391.116C213.7 391.549 213.962 392.103 213.962 392.777H212.69C212.69 392.431 212.542 392.132 212.246 391.882C211.954 391.631 211.585 391.506 211.139 391.506C210.678 391.506 210.318 391.606 210.059 391.807C209.799 392.007 209.669 392.269 209.669 392.593C209.669 392.898 209.79 393.128 210.031 393.283C210.273 393.438 210.708 393.586 211.337 393.728C211.97 393.869 212.483 394.037 212.875 394.233C213.267 394.429 213.556 394.666 213.743 394.944C213.935 395.218 214.03 395.553 214.03 395.949C214.03 396.61 213.766 397.141 213.237 397.542C212.709 397.938 212.023 398.137 211.18 398.137C210.587 398.137 210.063 398.032 209.607 397.822C209.152 397.613 208.794 397.321 208.534 396.947C208.279 396.569 208.151 396.161 208.151 395.724H209.416C209.439 396.147 209.607 396.485 209.922 396.735C210.241 396.981 210.66 397.104 211.18 397.104C211.658 397.104 212.041 397.009 212.328 396.817C212.62 396.621 212.766 396.362 212.766 396.038ZM217.394 388.812V390.604H218.774V391.581H217.394V396.168C217.394 396.464 217.455 396.688 217.578 396.838C217.701 396.984 217.911 397.057 218.207 397.057C218.353 397.057 218.553 397.029 218.809 396.975V398C218.476 398.091 218.152 398.137 217.838 398.137C217.273 398.137 216.847 397.966 216.56 397.624C216.272 397.282 216.129 396.797 216.129 396.168V391.581H214.782V390.604H216.129V388.812H217.394ZM219.786 394.233C219.786 393.509 219.927 392.857 220.21 392.278C220.497 391.7 220.894 391.253 221.399 390.938C221.91 390.624 222.491 390.467 223.143 390.467C224.15 390.467 224.963 390.815 225.583 391.513C226.207 392.21 226.52 393.137 226.52 394.295V394.384C226.52 395.104 226.381 395.751 226.103 396.325C225.829 396.895 225.435 397.339 224.92 397.658C224.41 397.977 223.822 398.137 223.156 398.137C222.154 398.137 221.34 397.788 220.716 397.091C220.096 396.394 219.786 395.471 219.786 394.322V394.233ZM221.058 394.384C221.058 395.204 221.247 395.863 221.625 396.359C222.008 396.856 222.518 397.104 223.156 397.104C223.799 397.104 224.309 396.854 224.688 396.353C225.066 395.847 225.255 395.14 225.255 394.233C225.255 393.422 225.061 392.766 224.674 392.265C224.291 391.759 223.781 391.506 223.143 391.506C222.518 391.506 222.015 391.754 221.632 392.251C221.249 392.748 221.058 393.459 221.058 394.384ZM231.681 391.738C231.489 391.706 231.282 391.69 231.059 391.69C230.229 391.69 229.666 392.044 229.37 392.75V398H228.105V390.604H229.336L229.356 391.458C229.771 390.797 230.359 390.467 231.12 390.467C231.366 390.467 231.553 390.499 231.681 390.562V391.738ZM234.224 398H232.959V390.604H234.224V398ZM232.856 388.642C232.856 388.437 232.918 388.263 233.041 388.122C233.169 387.981 233.355 387.91 233.602 387.91C233.848 387.91 234.035 387.981 234.162 388.122C234.29 388.263 234.354 388.437 234.354 388.642C234.354 388.847 234.29 389.018 234.162 389.154C234.035 389.291 233.848 389.359 233.602 389.359C233.355 389.359 233.169 389.291 233.041 389.154C232.918 389.018 232.856 388.847 232.856 388.642ZM239.323 398.137C238.321 398.137 237.505 397.809 236.876 397.152C236.247 396.492 235.933 395.61 235.933 394.507V394.274C235.933 393.541 236.072 392.887 236.35 392.312C236.632 391.734 237.024 391.283 237.525 390.959C238.031 390.631 238.578 390.467 239.166 390.467C240.128 390.467 240.875 390.784 241.408 391.417C241.941 392.05 242.208 392.957 242.208 394.138V394.664H237.197C237.215 395.393 237.427 395.983 237.833 396.435C238.243 396.881 238.763 397.104 239.392 397.104C239.838 397.104 240.216 397.013 240.526 396.831C240.836 396.649 241.107 396.407 241.34 396.106L242.112 396.708C241.493 397.66 240.563 398.137 239.323 398.137ZM239.166 391.506C238.656 391.506 238.227 391.693 237.881 392.066C237.535 392.436 237.32 392.955 237.238 393.625H240.943V393.529C240.907 392.887 240.734 392.39 240.424 392.039C240.114 391.684 239.695 391.506 239.166 391.506ZM247.984 396.038C247.984 395.696 247.854 395.432 247.595 395.245C247.34 395.054 246.891 394.89 246.248 394.753C245.61 394.616 245.102 394.452 244.724 394.261C244.35 394.069 244.072 393.841 243.89 393.577C243.712 393.313 243.623 392.998 243.623 392.634C243.623 392.028 243.878 391.515 244.389 391.096C244.904 390.676 245.56 390.467 246.357 390.467C247.196 390.467 247.875 390.683 248.395 391.116C248.919 391.549 249.181 392.103 249.181 392.777H247.909C247.909 392.431 247.761 392.132 247.465 391.882C247.173 391.631 246.804 391.506 246.357 391.506C245.897 391.506 245.537 391.606 245.277 391.807C245.018 392.007 244.888 392.269 244.888 392.593C244.888 392.898 245.008 393.128 245.25 393.283C245.492 393.438 245.927 393.586 246.556 393.728C247.189 393.869 247.702 394.037 248.094 394.233C248.486 394.429 248.775 394.666 248.962 394.944C249.153 395.218 249.249 395.553 249.249 395.949C249.249 396.61 248.985 397.141 248.456 397.542C247.927 397.938 247.242 398.137 246.398 398.137C245.806 398.137 245.282 398.032 244.826 397.822C244.37 397.613 244.013 397.321 243.753 396.947C243.498 396.569 243.37 396.161 243.37 395.724H244.635C244.658 396.147 244.826 396.485 245.141 396.735C245.46 396.981 245.879 397.104 246.398 397.104C246.877 397.104 247.26 397.009 247.547 396.817C247.839 396.621 247.984 396.362 247.984 396.038ZM254.622 398.854H253.535L257.691 388.047H258.771L254.622 398.854ZM269.299 393.604H265.122V398H263.81V388.047H269.976V389.127H265.122V392.531H269.299V393.604ZM274.747 391.738C274.556 391.706 274.348 391.69 274.125 391.69C273.296 391.69 272.733 392.044 272.437 392.75V398H271.172V390.604H272.402L272.423 391.458C272.838 390.797 273.425 390.467 274.187 390.467C274.433 390.467 274.619 390.499 274.747 390.562V391.738ZM278.849 398.137C277.846 398.137 277.03 397.809 276.401 397.152C275.772 396.492 275.458 395.61 275.458 394.507V394.274C275.458 393.541 275.597 392.887 275.875 392.312C276.158 391.734 276.549 391.283 277.051 390.959C277.557 390.631 278.104 390.467 278.691 390.467C279.653 390.467 280.4 390.784 280.934 391.417C281.467 392.05 281.733 392.957 281.733 394.138V394.664H276.723C276.741 395.393 276.953 395.983 277.358 396.435C277.769 396.881 278.288 397.104 278.917 397.104C279.364 397.104 279.742 397.013 280.052 396.831C280.362 396.649 280.633 396.407 280.865 396.106L281.638 396.708C281.018 397.66 280.088 398.137 278.849 398.137ZM278.691 391.506C278.181 391.506 277.753 391.693 277.406 392.066C277.06 392.436 276.846 392.955 276.764 393.625H280.469V393.529C280.432 392.887 280.259 392.39 279.949 392.039C279.639 391.684 279.22 391.506 278.691 391.506ZM286.272 398.137C285.27 398.137 284.454 397.809 283.825 397.152C283.196 396.492 282.882 395.61 282.882 394.507V394.274C282.882 393.541 283.021 392.887 283.299 392.312C283.581 391.734 283.973 391.283 284.475 390.959C284.98 390.631 285.527 390.467 286.115 390.467C287.077 390.467 287.824 390.784 288.357 391.417C288.891 392.05 289.157 392.957 289.157 394.138V394.664H284.146C284.165 395.393 284.377 395.983 284.782 396.435C285.192 396.881 285.712 397.104 286.341 397.104C286.787 397.104 287.166 397.013 287.476 396.831C287.785 396.649 288.057 396.407 288.289 396.106L289.062 396.708C288.442 397.66 287.512 398.137 286.272 398.137ZM286.115 391.506C285.605 391.506 285.176 391.693 284.83 392.066C284.484 392.436 284.27 392.955 284.188 393.625H287.893V393.529C287.856 392.887 287.683 392.39 287.373 392.039C287.063 391.684 286.644 391.506 286.115 391.506ZM296.875 394.384C296.875 395.509 296.618 396.416 296.103 397.104C295.588 397.793 294.89 398.137 294.011 398.137C293.113 398.137 292.407 397.852 291.892 397.282V400.844H290.627V390.604H291.782L291.844 391.424C292.359 390.786 293.074 390.467 293.99 390.467C294.879 390.467 295.581 390.802 296.096 391.472C296.615 392.142 296.875 393.074 296.875 394.268V394.384ZM295.61 394.24C295.61 393.406 295.433 392.748 295.077 392.265C294.722 391.782 294.234 391.54 293.614 391.54C292.849 391.54 292.274 391.88 291.892 392.559V396.093C292.27 396.767 292.849 397.104 293.628 397.104C294.234 397.104 294.715 396.865 295.07 396.387C295.43 395.904 295.61 395.188 295.61 394.24ZM299.862 398H298.598V390.604H299.862V398ZM298.495 388.642C298.495 388.437 298.557 388.263 298.68 388.122C298.807 387.981 298.994 387.91 299.24 387.91C299.486 387.91 299.673 387.981 299.801 388.122C299.928 388.263 299.992 388.437 299.992 388.642C299.992 388.847 299.928 389.018 299.801 389.154C299.673 389.291 299.486 389.359 299.24 389.359C298.994 389.359 298.807 389.291 298.68 389.154C298.557 389.018 298.495 388.847 298.495 388.642ZM303.957 394.575L303.164 395.402V398H301.899V387.5H303.164V393.851L303.841 393.037L306.145 390.604H307.683L304.805 393.693L308.018 398H306.534L303.957 394.575Z" fill="#ACA9A9"/>
</g>
<defs>
<clipPath id="clip0">
<rect width="450" height="425.42" fill="white"/>
</clipPath>
</defs>
</svg>
