<svg width="151" height="183" viewBox="0 0 151 183" fill="none" xmlns="http://www.w3.org/2000/svg">
<g filter="url(#filter0_d)">
<rect x="14" y="13" width="117" height="149" rx="5" fill="white"/>
<rect x="14.5" y="13.5" width="116" height="148" rx="4.5" stroke="#F5F5F5"/>
</g>
<rect x="21.7695" y="29.4634" width="101.036" height="5.18135" fill="#F5F5F5"/>
<rect x="21.7695" y="29.4634" width="14.692" height="5.18878" fill="#ACA9A9"/>
<rect x="108.039" y="29.4634" width="14.692" height="5.18878" fill="#ACA9A9"/>
<rect x="21.7695" y="20.396" width="5.18135" height="6.47668" fill="#F5F5F5"/>
<rect x="32.3906" y="20.396" width="5.18135" height="6.47668" fill="#F5F5F5"/>
<rect x="43.0117" y="20.396" width="5.18135" height="6.47668" fill="#F5F5F5"/>
<rect x="53.6367" y="20.396" width="5.18135" height="6.47668" fill="#F5F5F5"/>
<rect x="64.2578" y="20.396" width="5.18135" height="6.47668" fill="#F5F5F5"/>
<rect x="74.8789" y="20.396" width="5.18135" height="6.47668" fill="#F5F5F5"/>
<rect x="85.5" y="20.396" width="5.18135" height="6.47668" fill="#F5F5F5"/>
<rect x="96.1211" y="20.396" width="5.18135" height="6.47668" fill="#F5F5F5"/>
<rect x="106.742" y="20.396" width="5.18135" height="6.47668" fill="#F5F5F5"/>
<rect x="117.367" y="20.396" width="5.18135" height="6.47668" fill="#F5F5F5"/>
<rect x="21.7695" y="41.6321" width="31.0881" height="33.6788" fill="#F5F5F5"/>
<rect x="56.7422" y="41.6321" width="31.0881" height="33.6788" fill="#F5F5F5"/>
<rect x="91.7188" y="41.6321" width="31.0881" height="33.6788" fill="#F5F5F5"/>
<rect x="21.7695" y="79.1968" width="31.0881" height="33.6788" fill="#FF1E1E"/>
<rect x="56.7422" y="79.1968" width="31.0881" height="33.6788" fill="#F5F5F5"/>
<rect x="91.7188" y="79.1968" width="31.0881" height="33.6788" fill="#F5F5F5"/>
<rect x="21.5156" y="116.762" width="31.0881" height="33.6788" fill="#F5F5F5"/>
<rect x="56.4883" y="116.762" width="31.0881" height="33.6788" fill="#F5F5F5"/>
<rect x="91.4648" y="116.762" width="31.0881" height="33.6788" fill="#F5F5F5"/>
<defs>
<filter id="filter0_d" x="0" y="0" width="151" height="183" filterUnits="userSpaceOnUse" color-interpolation-filters="sRGB">
<feFlood flood-opacity="0" result="BackgroundImageFix"/>
<feColorMatrix in="SourceAlpha" type="matrix" values="0 0 0 0 0 0 0 0 0 0 0 0 0 0 0 0 0 0 127 0" result="hardAlpha"/>
<feOffset dx="3" dy="4"/>
<feGaussianBlur stdDeviation="8.5"/>
<feColorMatrix type="matrix" values="0 0 0 0 0.729167 0 0 0 0 0.729167 0 0 0 0 0.729167 0 0 0 0.25 0"/>
<feBlend mode="normal" in2="BackgroundImageFix" result="effect1_dropShadow"/>
<feBlend mode="normal" in="SourceGraphic" in2="effect1_dropShadow" result="shape"/>
</filter>
</defs>
</svg>
