<svg width="151" height="143" viewBox="0 0 151 143" fill="none" xmlns="http://www.w3.org/2000/svg">
<g filter="url(#filter0_d)">
<rect x="14" y="13" width="117" height="109" rx="5" fill="white"/>
<rect x="14.5" y="13.5" width="116" height="108" rx="4.5" stroke="#F5F5F5"/>
</g>
<rect x="28.2461" y="46.3523" width="43.5233" height="2.59067" fill="#ACA9A9" fill-opacity="0.4"/>
<rect x="28.2461" y="51.2747" width="60.6218" height="2.59067" fill="#ACA9A9" fill-opacity="0.4"/>
<rect x="28.2461" y="56.4558" width="60.6218" height="2.59067" fill="#ACA9A9" fill-opacity="0.4"/>
<rect x="28.2461" y="61.6372" width="58.2902" height="2.59067" fill="#ACA9A9" fill-opacity="0.4"/>
<rect x="28.2461" y="21.4819" width="60.6218" height="22.2797" fill="#F5F5F5"/>
<line x1="0.25" y1="-0.25" x2="64.3362" y2="-0.25" transform="matrix(0.938617 0.34496 -0.350671 0.936499 28.2461 21.4819)" stroke="#ACA9A9" stroke-width="0.5" stroke-linecap="round"/>
<line x1="0.25" y1="-0.25" x2="64.3362" y2="-0.25" transform="matrix(0.938617 -0.34496 0.350671 0.936499 28.2461 43.7617)" stroke="#ACA9A9" stroke-width="0.5" stroke-linecap="round"/>
<rect x="103.379" y="21" width="19.4301" height="14.5078" fill="#F5F5F5"/>
<rect x="103.121" y="41.7253" width="19.4301" height="14.5078" fill="#F5F5F5"/>
<rect x="103.379" y="60.1191" width="19.4301" height="14.5078" fill="#F5F5F5"/>
<rect x="28.25" y="69.6685" width="60.6218" height="11.658" fill="#FF1E1E"/>
<rect x="29.0234" y="85.9897" width="10.3627" height="1.5544" rx="0.777202" fill="#ACA9A9" fill-opacity="0.4"/>
<rect x="29.0234" y="88.5803" width="66.3212" height="1.5544" fill="#ACA9A9" fill-opacity="0.4"/>
<rect x="29.0234" y="91.1711" width="66.3212" height="1.5544" fill="#ACA9A9" fill-opacity="0.4"/>
<circle cx="24.7501" cy="89.4871" r="2.73834" fill="#F5F5F5" stroke="#ACA9A9"/>
<rect x="38.0938" y="96.8704" width="10.3627" height="1.5544" rx="0.777202" fill="#ACA9A9" fill-opacity="0.4"/>
<rect x="38.0938" y="99.4609" width="57.2539" height="1.5544" fill="#ACA9A9" fill-opacity="0.4"/>
<rect x="38.0938" y="102.052" width="57.2539" height="1.5544" fill="#ACA9A9" fill-opacity="0.4"/>
<circle cx="33.8204" cy="100.368" r="2.73834" fill="#F5F5F5" stroke="#ACA9A9"/>
<rect x="38.0938" y="107.233" width="10.3627" height="1.5544" rx="0.777202" fill="#ACA9A9" fill-opacity="0.4"/>
<rect x="38.0938" y="109.824" width="57.2539" height="1.5544" fill="#ACA9A9" fill-opacity="0.4"/>
<rect x="38.0938" y="112.415" width="57.2539" height="1.5544" fill="#ACA9A9" fill-opacity="0.4"/>
<circle cx="33.8204" cy="110.731" r="2.73834" fill="#F5F5F5" stroke="#ACA9A9"/>
<line x1="28.5273" y1="116.574" x2="28.5273" y2="95.5752" stroke="#ACA9A9"/>
<defs>
<filter id="filter0_d" x="0" y="0" width="151" height="143" filterUnits="userSpaceOnUse" color-interpolation-filters="sRGB">
<feFlood flood-opacity="0" result="BackgroundImageFix"/>
<feColorMatrix in="SourceAlpha" type="matrix" values="0 0 0 0 0 0 0 0 0 0 0 0 0 0 0 0 0 0 127 0" result="hardAlpha"/>
<feOffset dx="3" dy="4"/>
<feGaussianBlur stdDeviation="8.5"/>
<feColorMatrix type="matrix" values="0 0 0 0 0.729167 0 0 0 0 0.729167 0 0 0 0 0.729167 0 0 0 0.25 0"/>
<feBlend mode="normal" in2="BackgroundImageFix" result="effect1_dropShadow"/>
<feBlend mode="normal" in="SourceGraphic" in2="effect1_dropShadow" result="shape"/>
</filter>
</defs>
</svg>
