<svg width="185" height="201" viewBox="0 0 185 201" fill="none" xmlns="http://www.w3.org/2000/svg">
<path d="M123.965 68.3519C123.965 68.3519 132.284 71.096 135.836 91.7986C139.205 111.442 146.517 121.203 146.517 121.203L174.549 126.092L161.35 149.408L123.227 136.018L121.238 97.0264L123.965 68.3519Z" fill="#FF725E"/>
<path d="M73.3982 67.8482C73.3982 67.8482 60.8411 69.4895 57.3154 82.2202C53.7897 94.9509 49.9514 124.902 49.9514 124.902L26.9648 163.806L42.2053 173.272L64.966 142.452C67.6075 138.932 69.335 134.811 69.994 130.46C70.2272 128.8 70.297 127.122 70.2025 125.449L69.6554 115.897L73.3982 67.8482Z" fill="#FF725E"/>
<path d="M70.3249 68.5168L65.7918 99.979C65.1339 104.528 65.4596 109.166 66.7471 113.578L72.3396 132.744C72.3396 132.744 67.546 143.512 73.8158 147.272C75.049 148.01 105.825 148.505 105.825 148.505H119.363L124.279 100.787L123.966 68.3518C123.966 68.3518 112.677 64.2356 108.239 63.7406C100.022 63.1998 91.7756 63.2665 83.568 63.9404L70.3249 68.5168Z" fill="#FF725E"/>
<path d="M57.8456 130.642C56.7799 129.369 55.5901 128.206 54.2939 127.169C53.3624 126.471 52.3398 125.904 51.2545 125.484C50.7813 125.339 50.3332 125.122 49.9258 124.841C50.4213 124.876 50.908 124.991 51.3674 125.18C52.5187 125.528 53.6002 126.074 54.5631 126.795C55.9919 127.749 57.1282 129.081 57.8456 130.642Z" fill="#263238"/>
<path d="M68.674 84.9296C68.5845 85.4231 68.4538 85.9082 68.2832 86.3798C68.1356 86.8488 67.9619 87.4132 67.7969 88.1166C67.6319 88.82 67.3975 89.5321 67.2412 90.3832C66.7978 92.3589 66.4759 94.36 66.2772 96.3751C66.0619 98.8468 66.0068 101.33 66.1122 103.809C66.3511 108.315 66.9787 112.792 67.988 117.191C68.3614 118.927 68.6827 120.247 68.9258 121.194C69.0701 121.676 69.1718 122.17 69.2298 122.67C69.0353 122.205 68.8756 121.726 68.7522 121.237C68.4656 120.308 68.0922 118.953 67.6754 117.26C66.5688 112.858 65.8941 108.359 65.6607 103.826C65.5556 101.329 65.6252 98.8277 65.8691 96.3404C66.0851 94.3098 66.4391 92.2962 66.9285 90.3137C67.1109 89.4453 67.3628 88.7072 67.5538 88.0472C67.7104 87.4765 67.8958 86.9142 68.1096 86.3625C68.2606 85.8711 68.4493 85.392 68.674 84.9296Z" fill="#263238"/>
<path d="M123.838 86.7446C123.904 87.2309 123.936 87.7213 123.933 88.2122C123.933 89.1587 123.994 90.5221 124.003 92.2155C124.003 95.6022 124.003 100.274 123.733 105.433C123.464 110.591 123.125 115.254 122.795 118.623C122.622 120.308 122.474 121.672 122.353 122.609C122.311 123.098 122.233 123.583 122.118 124.06C122.096 123.57 122.116 123.079 122.179 122.592C122.248 121.567 122.353 120.221 122.474 118.597C122.726 115.228 123.039 110.565 123.282 105.415C123.525 100.266 123.629 95.5935 123.69 92.2155C123.69 90.5829 123.742 89.2369 123.759 88.2122C123.741 87.7216 123.768 87.2304 123.838 86.7446Z" fill="#263238"/>
<g opacity="0.3">
<path opacity="0.3" d="M111.527 124.138C112.161 125.189 111.162 127.169 108.679 129.279C107.222 130.48 105.624 131.498 103.92 132.309C99.7532 134.306 95.1927 135.344 90.5725 135.349C88.6849 135.351 86.8041 135.123 84.9714 134.672C81.8191 133.847 80.0562 132.492 80.1778 131.267C80.2994 130.043 82.1925 129.096 84.954 128.271C87.7155 127.446 91.3888 126.665 95.3748 125.762C99.3607 124.859 103.043 123.964 105.891 123.504C108.739 123.044 110.867 123.052 111.527 124.138Z" fill="black"/>
</g>
<path d="M112.795 125.362C112.498 125.744 112.173 126.104 111.823 126.439C111.438 126.857 111.026 127.248 110.59 127.611C110.039 128.119 109.459 128.595 108.853 129.036L107.794 129.809C107.42 130.078 107.003 130.304 106.586 130.564C105.696 131.116 104.777 131.62 103.834 132.075C101.655 133.087 99.3758 133.867 97.034 134.402C94.6882 134.906 92.2951 135.156 89.8958 135.149C88.8479 135.136 87.8014 135.066 86.7609 134.941C86.2746 134.871 85.797 134.837 85.3541 134.75L84.0688 134.498C83.3297 134.349 82.5992 134.161 81.8805 133.933C81.333 133.785 80.7963 133.599 80.2739 133.378C79.8135 133.23 79.3686 133.038 78.9453 132.804C78.9453 132.709 80.8732 133.551 84.1557 134.185L85.4322 134.411C85.8751 134.48 86.344 134.507 86.8303 134.567C87.7943 134.698 88.8363 134.698 89.9305 134.732C94.6735 134.737 99.3588 133.693 103.651 131.676C104.589 131.242 105.502 130.758 106.387 130.225C106.804 129.973 107.255 129.756 107.594 129.496L108.653 128.758C111.345 126.839 112.717 125.284 112.795 125.362Z" fill="#263238"/>
<path d="M125.667 69.3506C125.788 69.4374 124.494 71.0874 123.591 73.5623C122.688 76.0372 122.506 78.1127 122.367 78.0953C122.289 74.8624 123.472 71.726 125.667 69.3506Z" fill="#263238"/>
<g opacity="0.5">
<path opacity="0.5" d="M128.707 101.004C126.892 101.664 127.639 101.447 126.858 102.975C126.432 103.727 126.191 104.57 126.157 105.434C126.122 106.298 126.294 107.158 126.658 107.942C127.462 109.202 128.696 110.128 130.132 110.547C131.808 111.138 133.822 111.329 135.238 110.261C135.914 109.66 136.396 108.873 136.625 107.998C136.854 107.123 136.818 106.2 136.523 105.346C136.277 104.522 135.869 103.757 135.321 103.095C134.774 102.433 134.099 101.887 133.337 101.491C132.575 101.095 131.74 100.856 130.884 100.789C130.027 100.721 129.166 100.827 128.351 101.099" fill="white"/>
<path opacity="0.5" d="M106.397 119.344C105.755 118.163 102.802 117.477 101.717 118.276C101.324 118.824 101.113 119.482 101.113 120.156C101.113 120.83 101.324 121.488 101.717 122.036C102.136 122.566 102.726 122.934 103.386 123.078C104.046 123.222 104.736 123.133 105.338 122.827C105.923 122.488 106.358 121.941 106.554 121.294C106.751 120.648 106.695 119.951 106.397 119.344Z" fill="white"/>
<path opacity="0.5" d="M65.5841 122.47C64.9414 121.289 61.9802 120.603 60.9034 121.394C60.5114 121.944 60.3008 122.603 60.3008 123.278C60.3008 123.954 60.5114 124.612 60.9034 125.163C61.323 125.692 61.9129 126.06 62.573 126.204C63.233 126.348 63.9226 126.259 64.5246 125.953C65.1066 125.612 65.5387 125.064 65.735 124.419C65.9313 123.773 65.8775 123.078 65.5841 122.47Z" fill="white"/>
<path opacity="0.5" d="M76.3945 71.0959C74.7178 71.3339 73.1224 71.9696 71.7416 72.9501C70.3607 73.9306 69.2346 75.2273 68.4573 76.7319C67.933 77.6754 67.6777 78.7447 67.7192 79.8234C67.7471 80.3596 67.9107 80.88 68.1947 81.3357C68.4788 81.7914 68.8739 82.1674 69.3431 82.4286C70.7673 83.1407 72.4607 82.3852 73.8327 81.5602C75.0544 80.8985 76.177 80.0683 77.1674 79.0939C78.1688 78.1185 78.8191 76.8391 79.017 75.4553C79.1076 74.7652 79.0194 74.0634 78.7609 73.4172C78.5024 72.7709 78.0823 72.2019 77.5408 71.7646C76.9856 71.3452 76.302 71.1315 75.6067 71.16C74.9114 71.1885 74.2476 71.4575 73.7285 71.9209" fill="white"/>
<path opacity="0.5" d="M52.3748 137.068C50.697 137.306 49.1004 137.942 47.7182 138.922C46.336 139.903 45.2082 141.199 44.429 142.704C43.9113 143.65 43.6592 144.718 43.6995 145.796C43.728 146.331 43.891 146.85 44.1733 147.305C44.4556 147.761 44.8482 148.137 45.3147 148.401C46.7389 149.113 48.4323 148.401 49.8044 147.532C51.0252 146.869 52.15 146.042 53.1477 145.075C54.1444 144.093 54.7938 142.812 54.9974 141.428C55.0854 140.738 54.996 140.037 54.7377 139.391C54.4794 138.745 54.0606 138.176 53.5211 137.737C52.9645 137.321 52.2816 137.109 51.5872 137.137C50.8928 137.166 50.2294 137.433 49.7088 137.893" fill="white"/>
<path opacity="0.5" d="M112.719 71.5215C110.904 72.1815 111.66 71.9644 110.869 73.5014C110.443 74.2523 110.203 75.094 110.168 75.9565C110.134 76.819 110.305 77.6773 110.67 78.46C111.474 79.7203 112.708 80.646 114.143 81.0652C115.819 81.6557 117.834 81.8467 119.249 80.7786C119.925 80.1779 120.408 79.3905 120.637 78.5158C120.865 77.641 120.83 76.7181 120.535 75.8635C120.29 75.0395 119.882 74.2733 119.335 73.6105C118.788 72.9477 118.113 72.4018 117.35 72.0055C116.588 71.6092 115.753 71.3706 114.896 71.3038C114.039 71.2371 113.178 71.3436 112.363 71.617" fill="white"/>
<path opacity="0.5" d="M105.45 93.8914C105.589 95.2374 105.572 94.6903 106.475 95.4892C106.916 95.9068 107.45 96.2136 108.033 96.3843C108.616 96.5549 109.231 96.5844 109.827 96.4705C110.826 96.1342 111.669 95.4459 112.198 94.534C112.586 94.0443 112.851 93.468 112.969 92.8542C113.087 92.2403 113.055 91.6071 112.875 91.0083C112.584 90.4424 112.132 89.9754 111.575 89.6663C111.019 89.3572 110.383 89.2198 109.749 89.2715C109.146 89.2965 108.554 89.4428 108.009 89.7017C107.464 89.9606 106.977 90.3267 106.576 90.7783C106.176 91.2298 105.87 91.7574 105.678 92.3296C105.486 92.9018 105.412 93.5068 105.459 94.1085" fill="white"/>
<path opacity="0.5" d="M54.7114 107.916C54.8504 109.262 54.833 108.715 55.7448 109.514C56.184 109.931 56.7164 110.238 57.2979 110.409C57.8793 110.58 58.493 110.609 59.0882 110.495C60.0859 110.161 60.9284 109.476 61.4589 108.567C61.8487 108.078 62.1139 107.502 62.2319 106.888C62.3498 106.274 62.3171 105.64 62.1363 105.042C61.8478 104.473 61.3959 104.004 60.8388 103.695C60.2818 103.386 59.6449 103.25 59.01 103.305C58.407 103.332 57.8157 103.48 57.271 103.741C56.7264 104.001 56.2395 104.368 55.8394 104.82C55.4393 105.272 55.1341 105.799 54.9418 106.372C54.7496 106.944 54.6741 107.549 54.7201 108.151" fill="white"/>
<path opacity="0.5" d="M93.3053 91.017C93.1534 90.7612 92.9308 90.5546 92.6643 90.4221C92.3978 90.2896 92.0987 90.2369 91.803 90.2702C91.2135 90.35 90.6446 90.5416 90.127 90.8347L89.4844 92.0678C89.6384 92.3396 89.8467 92.5768 90.0965 92.7645C90.3462 92.9523 90.6319 93.0866 90.9358 93.1591C91.2396 93.2316 91.5552 93.2408 91.8628 93.186C92.1703 93.1312 92.4633 93.0137 92.7235 92.8407C93.0124 92.6473 93.2272 92.3617 93.3329 92.0305C93.4386 91.6993 93.4289 91.342 93.3053 91.017Z" fill="white"/>
<path opacity="0.5" d="M64.7554 90.4613C64.6001 90.207 64.3753 90.0025 64.1076 89.8717C63.8399 89.7409 63.5404 89.6894 63.2444 89.7231C62.6543 89.8003 62.085 89.9921 61.5684 90.2876L60.9258 91.5207C61.0807 91.7916 61.2896 92.0278 61.5393 92.2148C61.7891 92.4018 62.0745 92.5357 62.3781 92.6081C62.6816 92.6805 62.9968 92.69 63.3041 92.6359C63.6114 92.5818 63.9043 92.4653 64.1649 92.2936C64.4549 92.0989 64.6708 91.8123 64.7779 91.4798C64.8851 91.1474 64.8771 90.7886 64.7554 90.4613Z" fill="white"/>
<path opacity="0.5" d="M119.994 114.082C119.842 113.826 119.619 113.619 119.353 113.487C119.086 113.354 118.787 113.302 118.491 113.335C117.899 113.415 117.327 113.606 116.807 113.899L116.164 115.133C116.319 115.405 116.528 115.642 116.779 115.83C117.029 116.018 117.316 116.152 117.62 116.224C117.925 116.297 118.241 116.306 118.549 116.251C118.857 116.196 119.151 116.079 119.412 115.905C119.701 115.712 119.916 115.426 120.021 115.095C120.127 114.764 120.117 114.407 119.994 114.082Z" fill="white"/>
<path opacity="0.5" d="M77.4898 140.759C77.3361 140.503 77.1116 140.297 76.8435 140.166C76.5753 140.035 76.275 139.985 75.9788 140.021C75.3892 140.095 74.8198 140.284 74.3028 140.577L73.6602 141.81C73.8133 142.082 74.0212 142.321 74.2708 142.509C74.5204 142.698 74.8063 142.832 75.1106 142.905C75.4148 142.978 75.7308 142.986 76.0387 142.931C76.3465 142.875 76.6396 142.757 76.8993 142.583C77.1886 142.389 77.4042 142.104 77.5113 141.773C77.6185 141.442 77.6109 141.085 77.4898 140.759Z" fill="white"/>
<path opacity="0.5" d="M99.511 104.399C98.0667 102.762 96.0938 101.683 93.9359 101.351C91.4002 101.438 89.5939 103.088 87.8571 104.929C87.3775 105.296 87.002 105.782 86.7678 106.339C86.5336 106.896 86.4486 107.505 86.5214 108.105C86.5942 108.704 86.8222 109.275 87.1828 109.759C87.5435 110.244 88.0243 110.627 88.5778 110.869C89.7925 111.671 91.1658 112.203 92.6043 112.428C94.0428 112.653 95.5129 112.565 96.9145 112.171C98.0565 111.897 99.0851 111.275 99.8583 110.391C101.187 108.706 100.84 106.092 99.511 104.399Z" fill="white"/>
<path opacity="0.5" d="M112.911 103.522C112.425 102.654 110.193 102.107 109.377 102.706C109.078 103.121 108.918 103.619 108.918 104.13C108.918 104.641 109.078 105.139 109.377 105.554C109.694 105.954 110.139 106.232 110.638 106.341C111.136 106.45 111.657 106.384 112.112 106.153C112.552 105.896 112.879 105.482 113.027 104.994C113.175 104.506 113.134 103.981 112.911 103.522Z" fill="white"/>
<path opacity="0.5" d="M97.5584 141.792C97.0721 140.924 94.8403 140.377 94.0153 140.976C93.7183 141.392 93.5586 141.889 93.5586 142.4C93.5586 142.911 93.7183 143.409 94.0153 143.824C94.3324 144.224 94.7779 144.502 95.2763 144.611C95.7747 144.72 96.2956 144.654 96.7508 144.424C97.191 144.166 97.5183 143.753 97.6679 143.266C97.8175 142.778 97.7784 142.252 97.5584 141.792Z" fill="white"/>
<path opacity="0.5" d="M132.363 86.6142C131.877 85.7458 129.636 85.2074 128.82 85.8066C128.523 86.2221 128.363 86.7201 128.363 87.2308C128.363 87.7416 128.523 88.2395 128.82 88.655C129.137 89.0547 129.583 89.3327 130.081 89.4419C130.579 89.551 131.1 89.4848 131.555 89.2542C131.998 88.9967 132.327 88.5818 132.476 88.0924C132.626 87.603 132.586 87.0751 132.363 86.6142Z" fill="white"/>
<path opacity="0.5" d="M80.1994 118.372C79.8785 118.104 79.5073 117.903 79.1077 117.78C78.708 117.658 78.2879 117.617 77.8721 117.66C76.2569 117.66 74.9196 118.293 74.7806 119.804C74.7138 120.565 74.8249 121.33 75.1053 122.04C75.3856 122.75 75.8275 123.385 76.3958 123.895C76.8104 124.309 77.3335 124.598 77.9049 124.728C78.4763 124.859 79.0728 124.826 79.6262 124.633C80.0354 124.418 80.3926 124.116 80.6731 123.748C80.9536 123.381 81.1505 122.957 81.2501 122.505C81.4654 121.786 81.4813 121.021 81.2963 120.293C81.1112 119.565 80.7321 118.901 80.1994 118.372Z" fill="white"/>
<path opacity="0.5" d="M118.425 134.168C118.281 133.594 118.017 133.057 117.648 132.594C117.279 132.131 116.816 131.753 116.288 131.484C115.722 131.278 115.113 131.217 114.517 131.307C113.921 131.396 113.357 131.633 112.876 131.997C111.921 132.736 111.176 133.712 110.713 134.828C110.095 136.075 109.797 137.457 109.845 138.848C109.932 140.229 111.998 141.792 113.605 141.341C114.762 141.433 115.91 141.082 116.818 140.359C117.654 139.592 118.251 138.599 118.536 137.501C118.821 136.402 118.782 135.245 118.425 134.168Z" fill="white"/>
<path opacity="0.5" d="M74.1526 92.2154C72.3376 92.8754 73.0931 92.6583 72.3029 94.1954C71.8771 94.9462 71.6368 95.788 71.602 96.6505C71.5673 97.513 71.7391 98.3713 72.1032 99.1539C72.9075 100.414 74.1417 101.34 75.5768 101.759C77.2528 102.35 79.2675 102.541 80.683 101.473C81.3588 100.872 81.8415 100.084 82.0702 99.2097C82.299 98.335 82.2635 97.412 81.9682 96.5574C81.7236 95.7335 81.3157 94.9673 80.7686 94.3045C80.2215 93.6416 79.5465 93.0958 78.7838 92.6995C78.0212 92.3032 77.1866 92.0645 76.3297 91.9978C75.4729 91.931 74.6114 92.0376 73.7966 92.311" fill="white"/>
</g>
<path d="M104.663 176.424C104.663 176.424 137.914 185.629 139.252 186.098C141.249 186.802 140.919 194.148 137.801 194.027C136.325 193.975 112.253 194.895 109.214 194.739C106.174 194.582 97.0039 190.935 97.0039 190.935L104.663 176.424Z" fill="#FF725E"/>
<path d="M118.467 189.112C118.632 189.112 118.857 187.375 119.934 185.542C121.011 183.71 122.383 182.616 122.288 182.486C122.192 182.355 120.551 183.293 119.448 185.264C118.345 187.236 118.328 189.129 118.467 189.112Z" fill="#263238"/>
<path d="M115.003 187.54C115.168 187.54 115.498 186.003 116.384 184.266C117.27 182.529 118.32 181.313 118.199 181.192C118.077 181.07 116.809 182.173 115.889 184.014C114.968 185.855 114.855 187.531 115.003 187.54Z" fill="#263238"/>
<path d="M111.748 186.671C111.922 186.671 111.792 185.004 112.53 183.198C113.268 181.391 114.458 180.202 114.336 180.08C114.214 179.959 112.782 180.949 112.009 182.989C111.236 185.03 111.609 186.723 111.748 186.671Z" fill="#263238"/>
<path d="M112.34 182.381C112.635 181.592 112.756 180.747 112.696 179.906C112.681 178.446 112.387 177.001 111.828 175.651C111.724 175.336 111.539 175.054 111.289 174.835C111.125 174.705 110.92 174.639 110.711 174.649C110.502 174.658 110.303 174.743 110.152 174.887C109.895 175.139 109.738 175.475 109.709 175.834C109.674 176.122 109.659 176.412 109.665 176.702C109.672 177.249 109.739 177.794 109.865 178.326C110.09 179.217 110.435 180.073 110.89 180.87C111.257 181.625 111.764 182.303 112.384 182.868C112.462 182.816 111.906 182.043 111.237 180.688C110.853 179.899 110.562 179.069 110.369 178.213C110.263 177.714 110.21 177.204 110.213 176.693C110.213 176.181 110.213 175.547 110.516 175.304C110.571 175.245 110.645 175.208 110.725 175.2C110.805 175.192 110.885 175.214 110.951 175.261C111.12 175.42 111.245 175.621 111.315 175.842C111.514 176.32 111.682 176.811 111.819 177.31C112.056 178.161 112.204 179.034 112.262 179.915C112.401 181.426 112.253 182.364 112.34 182.381Z" fill="#263238"/>
<path d="M112.304 182.043C111.626 181.76 110.891 181.641 110.159 181.695C109.363 181.695 108.569 181.791 107.797 181.982C107.32 182.082 106.86 182.252 106.433 182.486C106.16 182.622 105.938 182.845 105.803 183.12C105.669 183.394 105.627 183.705 105.686 184.005C105.76 184.292 105.911 184.554 106.122 184.762C106.333 184.97 106.597 185.117 106.885 185.186C107.375 185.308 107.888 185.308 108.378 185.186C109.862 184.743 111.161 183.829 112.078 182.581C111.473 182.942 110.893 183.342 110.341 183.78C109.725 184.196 109.035 184.491 108.309 184.648C107.904 184.747 107.481 184.747 107.076 184.648C106.882 184.601 106.704 184.503 106.56 184.364C106.416 184.225 106.313 184.05 106.259 183.858C106.229 183.67 106.261 183.477 106.35 183.31C106.439 183.142 106.582 183.008 106.754 182.929C107.136 182.723 107.541 182.565 107.962 182.46C108.694 182.256 109.444 182.125 110.202 182.069C111.47 182.043 112.286 182.13 112.304 182.043Z" fill="#263238"/>
<path d="M123.575 189.468C123.74 189.468 123.575 188.035 124.235 186.472C124.895 184.908 125.972 183.997 125.859 183.866C125.746 183.736 124.418 184.518 123.723 186.263C123.028 188.009 123.445 189.528 123.575 189.468Z" fill="#263238"/>
<path d="M100.379 191.005C100.785 191.252 101.215 191.456 101.664 191.612C102.87 192.078 104.106 192.461 105.364 192.759C109.531 193.673 113.795 194.075 118.06 193.957C123.035 193.905 127.534 193.679 130.79 193.549L134.637 193.341C135.113 193.347 135.588 193.297 136.053 193.193C135.584 193.125 135.11 193.105 134.637 193.132H130.773L118.051 193.375C113.826 193.483 109.602 193.139 105.45 192.351C102.272 191.717 100.414 190.9 100.379 191.005Z" fill="#263238"/>
<path d="M99.3906 191.76C100.24 191.427 101.072 191.051 101.883 190.631C103.843 189.704 106.024 189.343 108.179 189.589C110.68 189.971 112.46 191.656 113.615 192.828C114.205 193.526 114.847 194.18 115.534 194.782C115.094 193.97 114.544 193.222 113.902 192.559C113.251 191.788 112.514 191.095 111.705 190.492C110.68 189.736 109.489 189.239 108.231 189.042C105.973 188.77 103.687 189.201 101.683 190.275C100.849 190.652 100.076 191.153 99.3906 191.76Z" fill="#263238"/>
<g opacity="0.3">
<path opacity="0.3" d="M104.663 176.424C104.663 176.424 137.914 185.629 139.252 186.098C141.249 186.802 140.919 194.148 137.801 194.027C136.325 193.975 112.253 194.895 109.214 194.739C106.174 194.582 97.0039 190.935 97.0039 190.935L104.663 176.424Z" fill="black"/>
</g>
<path d="M75.1353 147.489L64.3064 160.09C64.3064 160.09 28.2678 149.13 19.1496 149.669C10.0314 150.207 2.64999 153.811 0.913191 161.184C-0.823608 168.557 -1.0928 178.734 9.50167 185.794C20.0961 192.854 72.7385 196.762 72.7385 196.762H93.5801L127.63 151.866L124.634 149.365L75.1353 147.489Z" fill="#263238"/>
<path d="M82.3531 176.624C82.1249 176.645 81.8952 176.645 81.667 176.624C81.2155 176.624 80.5555 176.624 79.7132 176.476C77.3181 176.202 74.9523 175.714 72.6444 175.017C69.2259 173.984 65.8952 172.68 62.6838 171.118C59.0452 169.381 55.1548 167.289 51.0733 165.092C47.2554 163 43.3274 161.116 39.3065 159.447C36.0254 158.092 32.6154 157.074 29.1289 156.408C26.7762 155.962 24.3849 155.753 21.9906 155.782C21.1222 155.782 20.4883 155.86 20.0454 155.86C19.8174 155.885 19.5874 155.885 19.3594 155.86C19.5811 155.804 19.8082 155.772 20.0367 155.765C20.4796 155.765 21.1396 155.609 21.9906 155.6C24.3979 155.502 26.8088 155.665 29.181 156.086C32.7031 156.712 36.1495 157.708 39.4628 159.056C43.5061 160.703 47.4522 162.579 51.2818 164.675C55.3719 166.872 59.245 169.017 62.8662 170.754C66.053 172.323 69.3536 173.649 72.7399 174.722C75.0102 175.434 77.3331 175.965 79.6871 176.311C80.5555 176.45 81.1894 176.476 81.6323 176.546C81.8745 176.548 82.116 176.574 82.3531 176.624Z" fill="#455A64"/>
<path d="M106.971 193.063C113.666 190.457 150.478 178.717 163.513 163.659C174.359 151.119 157.104 139.899 157.104 139.899C157.104 139.899 144.998 139.508 140.96 139.899C136.922 140.29 79.1562 179.325 79.1562 179.325C79.1562 179.325 89.247 198.994 89.0299 199.758L106.971 193.063Z" fill="#263238"/>
<path d="M125.106 149.4C125.106 149.4 125.054 149.452 124.95 149.53C124.846 149.608 124.655 149.721 124.464 149.86L122.579 151.084L115.58 155.539L92.4283 170.094L79.8452 177.909L79.9234 177.649L86.5232 193.514L88.3729 198.073L88.8505 199.289C88.912 199.429 88.9614 199.575 88.9981 199.723C88.9162 199.594 88.8464 199.457 88.7897 199.315L88.2513 198.125L86.2887 193.618C84.6214 189.702 82.2854 184.231 79.5413 177.814L79.4805 177.701L79.6281 177.605L92.1938 169.729L115.424 155.287L122.492 150.945L124.429 149.79L124.933 149.495C124.986 149.456 125.044 149.423 125.106 149.4Z" fill="#455A64"/>
<path d="M74.2683 166.768C73.6599 166.643 73.0742 166.427 72.5315 166.125C71.2049 165.488 69.9404 164.729 68.754 163.858C67.5652 162.988 66.4578 162.011 65.4454 160.941C64.9973 160.521 64.6165 160.035 64.3164 159.499C64.4206 159.404 66.2703 161.496 69.0145 163.494C71.7586 165.491 74.2683 166.637 74.2683 166.768Z" fill="#455A64"/>
<path d="M89.978 148.175C90.0686 148.939 90.0977 149.708 90.0648 150.476C90.0648 151.892 90.143 153.854 90.334 156.008C90.5251 158.162 90.829 160.098 91.0635 161.505C91.2326 162.257 91.3429 163.02 91.3934 163.789C91.0911 163.076 90.8754 162.33 90.7508 161.566C90.3418 159.749 90.0517 157.907 89.8824 156.052C89.7183 154.195 89.6719 152.33 89.7435 150.468C89.7289 149.697 89.8076 148.927 89.978 148.175Z" fill="#455A64"/>
<path d="M95.1083 150.112C95.1083 150.112 95.282 150.068 95.5598 150.172C95.9569 150.336 96.2937 150.618 96.5238 150.98C96.7002 151.25 96.8157 151.556 96.8622 151.875C96.9087 152.195 96.8851 152.52 96.793 152.83C96.6522 153.213 96.3982 153.545 96.0648 153.78C95.7314 154.016 95.3342 154.145 94.9259 154.15C94.5177 154.188 94.1077 154.098 93.7539 153.89C93.4001 153.683 93.1205 153.37 92.9546 152.995C92.845 152.687 92.8106 152.358 92.8544 152.035C92.8982 151.712 93.019 151.403 93.2065 151.136C93.4375 150.771 93.7967 150.504 94.2138 150.39C94.509 150.32 94.6741 150.39 94.6741 150.39C94.1797 150.543 93.7574 150.87 93.4844 151.31C93.3442 151.536 93.2581 151.792 93.2325 152.057C93.2069 152.322 93.2426 152.589 93.3367 152.838C93.4782 153.125 93.7035 153.361 93.9827 153.517C94.262 153.672 94.5819 153.738 94.8998 153.707C95.2207 153.706 95.5343 153.611 95.8015 153.434C96.0687 153.256 96.2776 153.004 96.4022 152.708C96.4839 152.452 96.5123 152.182 96.4854 151.915C96.4585 151.647 96.3769 151.388 96.2459 151.154C95.9753 150.704 95.5801 150.342 95.1083 150.112Z" fill="#455A64"/>
<path d="M80.7892 148.514C80.9367 148.717 81.0429 148.947 81.1018 149.191C81.3157 149.85 81.4184 150.54 81.4057 151.232C81.3943 152.264 81.1665 153.281 80.7371 154.219C80.2124 155.381 79.3807 156.378 78.3316 157.102C77.266 157.803 76.0282 158.196 74.7538 158.24C73.722 158.291 72.6914 158.119 71.7318 157.736C71.0986 157.488 70.5115 157.136 69.995 156.694C69.6216 156.373 69.4565 156.156 69.4739 156.138C70.2181 156.666 71.0228 157.104 71.8707 157.441C72.8001 157.758 73.7823 157.891 74.7625 157.832C75.9561 157.759 77.1107 157.379 78.1145 156.729C79.0951 156.05 79.8798 155.124 80.3897 154.046C80.8189 153.163 81.067 152.203 81.1192 151.223C81.1185 150.31 81.0077 149.4 80.7892 148.514Z" fill="#455A64"/>
<path d="M115.132 155.365C114.668 155.438 114.194 155.371 113.768 155.174C112.699 154.791 111.784 154.068 111.163 153.116C110.531 152.162 110.226 151.028 110.295 149.886C110.285 149.416 110.415 148.954 110.668 148.557C110.738 148.557 110.599 149.078 110.616 149.895C110.616 150.951 110.922 151.985 111.499 152.87C112.076 153.755 112.897 154.453 113.864 154.879C114.628 155.218 115.14 155.296 115.132 155.365Z" fill="#455A64"/>
<path d="M153.406 130.356C153.406 130.356 159.033 122.236 160.267 121.55C161.5 120.864 171.903 118.745 172.711 119.145C173.518 119.544 185.146 123.391 183.557 124.607C181.968 125.823 173.874 122.992 173.874 122.992L172.667 123.382C172.667 123.382 179.693 125.623 181.073 126.726C182.454 127.829 181.612 129.383 180.318 129.044C179.024 128.706 172.945 126.543 172.502 126.743C172.059 126.943 179.05 129.47 179.753 130.043C180.7 130.816 180.518 132.648 179.224 132.388C178.46 132.214 171.955 129.435 171.955 129.435C171.955 129.435 177.009 132.318 177.426 132.865C178.121 133.734 177.305 134.828 176.176 134.394C175.411 134.098 171.894 131.719 170.861 131.32C170.861 131.32 169.819 131.432 168.603 133.317C167.387 135.201 160.093 139.326 160.093 139.326L153.406 130.356Z" fill="#FFBE9D"/>
<path d="M156.113 130.894C156.474 131.246 156.936 131.477 157.434 131.553C157.933 131.629 158.443 131.548 158.892 131.32C159.821 130.929 160.629 130.243 161.497 129.8C164.181 128.454 167.576 129.392 170.242 127.924C170.616 127.716 170.998 127.351 170.876 126.951C170.754 126.552 170.303 126.465 169.912 126.422L160.038 125.163" fill="#A36957"/>
<path d="M160.041 125.163C160.398 125.112 160.761 125.112 161.118 125.163C161.813 125.215 162.855 125.31 164.044 125.44L168.386 125.935L169.628 126.083C170.147 126.067 170.652 126.254 171.035 126.604C171.125 126.744 171.173 126.907 171.173 127.073C171.173 127.239 171.125 127.402 171.035 127.542C170.888 127.776 170.685 127.97 170.445 128.106C170.015 128.345 169.561 128.537 169.09 128.68C167.197 129.227 165.356 129.105 163.775 129.366C163.028 129.457 162.298 129.662 161.613 129.974C160.979 130.277 160.432 130.677 159.876 130.99C159.462 131.294 158.985 131.502 158.481 131.6C157.976 131.697 157.456 131.682 156.958 131.554C156.255 131.302 156.09 130.868 156.09 130.868C156.368 131.076 156.679 131.234 157.01 131.337C157.475 131.413 157.951 131.391 158.407 131.273C158.863 131.155 159.29 130.943 159.659 130.651C160.171 130.321 160.71 129.904 161.396 129.548C162.117 129.199 162.887 128.962 163.68 128.845C165.33 128.558 167.153 128.654 168.89 128.133C169.316 128.008 169.727 127.836 170.115 127.62C170.479 127.412 170.688 127.09 170.531 126.934C170.375 126.778 169.932 126.674 169.515 126.621L168.265 126.448L163.923 125.84C162.698 125.658 161.708 125.501 161.022 125.38C160.688 125.347 160.358 125.274 160.041 125.163Z" fill="#7C3B29"/>
<path d="M183.529 124.633C182.799 124.872 182.029 124.964 181.263 124.902C180.431 124.892 179.602 124.801 178.788 124.633C177.92 124.39 176.912 124.094 175.879 123.764L173.699 123.104H173.838C170.729 123.712 168.471 124.068 168.445 123.973C170.167 123.373 171.936 122.917 173.734 122.609H173.795H173.873L176.035 123.243L178.901 124.112C179.684 124.296 180.479 124.424 181.28 124.494C182.661 124.616 183.521 124.546 183.529 124.633Z" fill="#FFBE9D"/>
<path d="M132.451 40.676C130.132 37.8971 127.292 35.0574 127.24 31.4362C127.188 29.517 127.883 27.3547 126.737 25.8177C125.729 24.4716 123.741 24.2632 122.612 23.0214C121.109 21.3715 121.743 18.7663 121.24 16.5866C120.894 15.4176 120.27 14.3498 119.421 13.4742C118.573 12.5986 117.525 11.9414 116.368 11.5585C114.042 10.8236 111.578 10.6393 109.169 11.0201L106.902 60.8315C108.005 59.6158 110.88 59.0947 112.417 59.6939C113.954 60.2931 115.378 61.2223 117.01 61.3526C120.675 61.6565 123.263 57.9918 126.389 56.064C129.515 54.1362 133.484 53.6412 135.134 50.541C136.784 47.4408 134.778 43.4548 132.451 40.676Z" fill="#263238"/>
<path d="M125.607 56.4461C126.042 56.3501 126.456 56.1797 126.832 55.9425C127.326 55.6161 127.694 55.1312 127.875 54.5677C128.057 54.0041 128.041 53.3956 127.831 52.8423C127.493 52.0903 126.908 51.4772 126.172 51.1055C125.75 50.8454 125.374 50.5166 125.06 50.1329C124.726 49.6924 124.56 49.1476 124.591 48.5958C124.771 47.5097 125.11 46.4562 125.599 45.4696C125.802 44.9666 125.914 44.4314 125.929 43.8891C125.924 43.3382 125.758 42.8007 125.451 42.3433C124.775 41.4402 123.939 40.669 122.985 40.0681C122.075 39.4606 121.239 38.7496 120.493 37.9492C119.27 36.5343 118.446 34.8201 118.104 32.982C117.866 31.7574 117.866 30.4984 118.104 29.2739C118.159 28.9391 118.246 28.6105 118.365 28.2926C118.434 28.0755 118.478 27.9626 118.495 27.9713C118.513 27.98 118.382 28.4402 118.278 29.2999C118.081 30.7954 118.205 32.3157 118.643 33.7593C119.08 35.2029 119.82 36.5366 120.814 37.6713C121.541 38.4462 122.36 39.1286 123.254 39.7034C124.265 40.3356 125.149 41.1514 125.859 42.1088C126.197 42.6263 126.384 43.2278 126.398 43.8456C126.38 44.4417 126.257 45.0298 126.033 45.5824C125.558 46.5259 125.219 47.5315 125.026 48.5697C124.992 49.0278 125.121 49.483 125.39 49.855C125.682 50.1922 126.021 50.4848 126.398 50.7234C126.779 50.9802 127.137 51.2709 127.466 51.5918C127.773 51.8993 128.005 52.2738 128.143 52.686C128.391 53.3892 128.357 54.161 128.048 54.8396C127.806 55.3387 127.422 55.7556 126.945 56.038C126.65 56.2195 126.323 56.3405 125.981 56.394C125.861 56.4356 125.734 56.4533 125.607 56.4461Z" fill="#455A64"/>
<path d="M107.447 67.5182L107.299 59.1556C107.299 59.1556 115.601 57.9311 117.503 47.1543C118.458 41.7963 118.372 32.9907 118.015 25.7743C117.72 19.2873 110.86 12.6962 104.39 13.2607L83.375 16.8732V20.3468L83.9568 67.8569C83.9934 70.9481 85.2477 73.9002 87.4475 76.0723C89.6472 78.2444 92.6149 79.4612 95.7063 79.4587C97.265 79.459 98.8082 79.1488 100.246 78.5463C101.684 77.9438 102.987 77.0611 104.08 75.9496C105.173 74.8382 106.033 73.5202 106.611 72.0726C107.189 70.625 107.474 69.0768 107.447 67.5182Z" fill="#FFBE9D"/>
<path d="M114.683 33.2599C114.681 33.6224 114.537 33.9697 114.283 34.2277C114.028 34.4856 113.682 34.6338 113.32 34.6406C113.144 34.65 112.968 34.6242 112.802 34.5649C112.636 34.5056 112.484 34.4138 112.354 34.295C112.224 34.1762 112.118 34.0328 112.044 33.8729C111.97 33.7131 111.929 33.5401 111.922 33.3641C111.924 33.0039 112.067 32.6587 112.32 32.4024C112.573 32.1461 112.916 31.9988 113.277 31.992C113.453 31.979 113.63 32.0019 113.798 32.0593C113.965 32.1166 114.119 32.2072 114.251 32.3257C114.382 32.4441 114.488 32.588 114.563 32.7485C114.637 32.9091 114.678 33.083 114.683 33.2599Z" fill="#263238"/>
<path d="M116.027 30.3247C115.853 30.5071 114.811 29.7081 113.326 29.6821C111.841 29.656 110.721 30.3855 110.565 30.2031C110.409 30.0208 110.669 29.795 111.155 29.465C111.806 29.0275 112.577 28.803 113.361 28.8224C114.137 28.8286 114.89 29.0878 115.506 29.5605C115.949 29.9166 116.114 30.2466 116.027 30.3247Z" fill="#263238"/>
<path d="M100.997 32.8778C100.992 33.2388 100.847 33.5839 100.593 33.84C100.338 34.0961 99.9943 34.2431 99.6334 34.2498C99.4567 34.2604 99.2797 34.2355 99.1128 34.1767C98.9459 34.1179 98.7924 34.0264 98.6614 33.9075C98.5304 33.7886 98.4244 33.6447 98.3497 33.4843C98.2751 33.3238 98.2332 33.1501 98.2266 32.9733C98.231 32.6123 98.3758 32.2672 98.6303 32.0111C98.8848 31.7549 99.2289 31.608 99.5899 31.6012C99.7665 31.5907 99.9435 31.6156 100.11 31.6744C100.277 31.7331 100.431 31.8247 100.562 31.9436C100.693 32.0625 100.799 32.2064 100.874 32.3668C100.948 32.5272 100.99 32.701 100.997 32.8778Z" fill="#263238"/>
<path d="M101.371 30.3421C101.188 30.5244 100.155 29.7255 98.6701 29.7081C97.1851 29.6908 96.0649 30.4115 95.9086 30.2205C95.7523 30.0295 96.0128 29.821 96.4991 29.4824C97.15 29.0449 97.9208 28.8203 98.7049 28.8397C99.4796 28.8545 100.23 29.1128 100.85 29.5779C101.301 29.9339 101.458 30.2639 101.371 30.3421Z" fill="#263238"/>
<path d="M106.579 41.4923C107.371 41.2664 108.188 41.1353 109.011 41.1016C109.393 41.1016 109.749 40.9974 109.818 40.7455C109.861 40.3512 109.779 39.9534 109.584 39.6079L108.516 36.6901C107.022 32.5391 105.91 29.1177 106.119 29.0655C106.327 29.0134 107.63 32.3221 109.124 36.4817L110.148 39.4169C110.379 39.8791 110.441 40.4077 110.322 40.9105C110.264 41.0448 110.176 41.164 110.064 41.2589C109.953 41.3537 109.821 41.4217 109.679 41.4576C109.469 41.5103 109.253 41.5365 109.037 41.5358C108.219 41.6259 107.393 41.6112 106.579 41.4923Z" fill="#263238"/>
<path d="M107.266 59.1555C102.176 59.1419 97.1887 57.717 92.8594 55.0393C92.8594 55.0393 96.4806 62.5857 107.31 61.7694L107.266 59.1555Z" fill="#7C3B29"/>
<path d="M105.884 45.0788C105.608 44.7159 105.243 44.4297 104.825 44.2473C104.407 44.0649 103.95 43.9924 103.496 44.0367C103.162 44.0554 102.836 44.1421 102.538 44.2914C102.239 44.4407 101.974 44.6496 101.759 44.9051C101.557 45.1518 101.434 45.4542 101.408 45.7722C101.381 46.0902 101.452 46.4087 101.611 46.6853C101.847 46.956 102.157 47.1508 102.504 47.2451C102.85 47.3394 103.216 47.3289 103.557 47.215C104.264 46.9752 104.919 46.6007 105.484 46.1122C105.651 45.9945 105.796 45.8473 105.91 45.678C105.966 45.596 105.995 45.4992 105.995 45.4001C105.995 45.301 105.966 45.2042 105.91 45.1222" fill="#7C3B29"/>
<path d="M102.18 42.4475C102.423 42.4475 102.397 44.0541 103.76 45.2351C105.124 46.4161 106.852 46.2598 106.86 46.4856C106.869 46.7114 106.47 46.7895 105.74 46.7982C104.786 46.7983 103.863 46.4598 103.135 45.843C102.438 45.2576 101.998 44.4219 101.911 43.5157C101.876 42.8383 102.058 42.4388 102.18 42.4475Z" fill="#263238"/>
<path d="M101.857 24.5064C101.701 24.9146 100.216 24.6888 98.4613 24.8712C96.7072 25.0535 95.2917 25.5051 95.0659 25.1404C94.9617 24.958 95.2135 24.5846 95.7954 24.2025C96.57 23.731 97.4422 23.4428 98.3452 23.36C99.2483 23.2773 100.158 23.402 101.006 23.7249C101.605 23.9941 101.926 24.3154 101.857 24.5064Z" fill="#263238"/>
<path d="M115.55 26.0001C115.29 26.3387 114.265 26.0001 113.032 25.9306C111.799 25.8611 110.748 26.113 110.514 25.7569C110.409 25.5832 110.583 25.2446 111.043 24.9319C111.665 24.5621 112.383 24.3839 113.106 24.4194C113.828 24.4549 114.525 24.7027 115.107 25.1317C115.533 25.4877 115.672 25.8351 115.55 26.0001Z" fill="#263238"/>
<path d="M88.8796 29.6039C92.4314 25.2619 102.531 17.4463 107.463 15.258C108.245 14.9106 108.983 14.1812 109.461 14.1812C110.5 14.7186 111.473 15.3743 112.361 16.1351C114.966 18.4276 117.068 23.8291 118.075 27.1637C119.534 23.0128 119.056 17.0469 116.173 13.7209C113.29 10.3949 110.216 8.5626 105.822 8.34551C101.77 8.08331 97.7443 9.16374 94.3679 11.4196C92.883 12.288 87.5336 16.7863 86.0312 19.3481L88.8796 29.6039Z" fill="#455A64"/>
<path d="M107.797 8.56257C108.517 8.64941 103.62 4.62872 100.563 4.07295C97.4579 3.52523 94.2611 4.19382 91.6358 5.94002C89.899 7.10367 88.4314 8.73626 86.4949 9.56124C85.0186 10.1865 83.3773 10.2907 81.8403 10.7509C79.8137 11.3931 78.0217 12.6189 76.6886 14.2749C75.3555 15.9308 74.5406 17.9433 74.346 20.0602C74.2158 21.8491 74.5371 23.6467 74.5631 25.4443C74.7172 27.2555 74.1736 29.0572 73.0434 30.481C71.9927 31.6273 70.4382 32.157 69.1269 32.982C67.5649 33.9917 66.3254 35.4285 65.5558 37.1217C64.7861 38.815 64.5186 40.6936 64.7849 42.5344C65.1062 44.4969 66.0354 46.5203 65.358 48.3874C64.9065 49.6205 63.8383 50.5063 63.1176 51.6005C62.4159 52.7075 62.0631 53.9998 62.1049 55.3098C62.1467 56.6199 62.5812 57.8871 63.352 58.9471C65.1844 59.1468 66.6259 60.5189 68.0501 61.6912C69.4743 62.8636 71.2892 63.9404 73.0521 63.428C75.3446 62.7507 76.4302 59.6852 78.7922 59.3553C81.1543 59.0253 82.8042 61.4828 84.9925 62.3078C87.4848 63.2544 90.4027 61.8302 91.9397 59.6331C93.4768 57.4361 93.8155 54.6485 93.8676 51.9826C93.9371 48.6305 93.5116 45.0961 91.5229 42.4302C90.0987 40.4936 87.8409 38.8263 87.8062 36.4295C87.7715 34.0327 89.873 32.2959 90.229 30.0207C90.5416 28.0234 89.4648 26.1129 88.6311 24.2719C87.7975 22.4309 86.2691 19.7041 87.4327 18.0542C87.4675 18.0194 95.4307 7.1905 107.797 8.56257Z" fill="#263238"/>
<path d="M108.768 10.3776C108.768 10.3776 109.142 10.5512 109.437 11.1157C109.626 11.4875 109.728 11.897 109.737 12.3137C109.746 12.7305 109.661 13.144 109.488 13.5235C109.315 13.9029 109.06 14.2387 108.74 14.5059C108.42 14.773 108.044 14.9648 107.639 15.0669C107.023 15.2232 106.632 15.0669 106.641 15.0669C106.649 15.0669 107.014 14.9975 107.509 14.7804C108.186 14.5178 108.738 14.009 109.055 13.3562C109.333 12.687 109.355 11.9388 109.116 11.2546C108.951 10.7076 108.708 10.421 108.768 10.3776Z" fill="#263238"/>
<path d="M111.79 14.9887C111.79 15.1016 111.043 14.9887 110.348 14.4243C109.653 13.8598 109.358 13.2172 109.48 13.1564C109.601 13.0956 110.027 13.5819 110.652 14.0248C111.277 14.4677 111.833 14.8672 111.79 14.9887Z" fill="#263238"/>
<path d="M104.664 12.1578C104.664 12.0275 105.324 12.0536 106.053 11.8538C106.783 11.6541 107.33 11.3241 107.417 11.4283C107.504 11.5325 107.017 12.0622 106.166 12.2967C105.315 12.5312 104.664 12.2707 104.664 12.1578Z" fill="#263238"/>
<path d="M104.739 10.1778C104.739 10.0563 105.382 10.0476 106.137 10.1778C106.893 10.3081 107.492 10.4905 107.475 10.612C107.457 10.7336 106.823 10.7423 106.068 10.612C105.312 10.4818 104.713 10.2994 104.739 10.1778Z" fill="#263238"/>
<path d="M112.039 10.8464C112.039 10.968 111.796 11.0896 111.474 11.1156C111.153 11.1417 110.884 11.0549 110.875 10.9333C110.867 10.8117 111.118 10.6901 111.44 10.6641C111.761 10.638 112.03 10.7249 112.039 10.8464Z" fill="#263238"/>
<path d="M112.124 12.0796C112.124 12.2099 111.75 12.3054 111.255 12.3054C110.76 12.3054 110.387 12.2099 110.387 12.0796C110.387 11.9493 110.76 11.8538 111.255 11.8538C111.75 11.8538 112.124 11.958 112.124 12.0796Z" fill="#263238"/>
<path d="M93.0941 19.3481C93.1896 19.4436 92.052 20.6073 90.9144 22.2312C89.7768 23.8551 89.0474 25.3053 88.9258 25.2445C89.6676 22.8931 91.1248 20.8318 93.0941 19.3481Z" fill="#263238"/>
<path d="M93.4924 16.1784C93.5879 16.2652 92.2766 17.9152 90.9306 20.0862C89.5846 22.2572 88.7075 24.1764 88.5859 24.1243C89.5299 21.1064 91.217 18.3741 93.4924 16.1784Z" fill="#263238"/>
<path d="M64.3571 31.5317C64.2596 31.4497 64.1721 31.3564 64.0965 31.2539C63.8784 30.9627 63.7111 30.6368 63.6015 30.2899C63.3984 29.6444 63.3467 28.9608 63.4507 28.2921C63.5546 27.6234 63.8112 26.9877 64.2007 26.4342C64.8249 25.6324 65.6793 25.0405 66.6494 24.7379C67.6194 24.4352 68.6588 24.4362 69.6282 24.7409C70.7328 25.1426 71.7607 25.7299 72.6676 26.4777C73.138 26.8158 73.6642 27.0686 74.2221 27.2245C74.495 27.2889 74.7787 27.2928 75.0533 27.2358C75.3278 27.1787 75.5866 27.0623 75.8113 26.8945C76.2483 26.5199 76.5528 26.0144 76.6797 25.453C76.817 24.8847 76.8493 24.2961 76.7752 23.7162C76.6362 22.5699 76.3583 21.4149 76.3323 20.3034C76.1381 18.304 76.6817 16.3026 77.8607 14.6761C78.6931 13.6077 79.8949 12.8891 81.2301 12.6614C81.5902 12.6124 81.9554 12.6124 82.3156 12.6614C82.4411 12.6754 82.564 12.7076 82.6803 12.757C82.207 12.7364 81.7329 12.7626 81.2648 12.8351C80.0019 13.1121 78.8821 13.837 78.1125 14.8759C77.0275 16.4557 76.5439 18.3718 76.7491 20.2773C76.7491 21.3628 77.0617 22.457 77.2094 23.6727C77.3394 24.316 77.3022 24.9819 77.1016 25.6068C76.9009 26.2316 76.5433 26.7946 76.0631 27.2419C75.7858 27.4495 75.4666 27.5944 75.1277 27.6664C74.7888 27.7384 74.4383 27.7357 74.1005 27.6587C73.478 27.491 72.89 27.2147 72.3637 26.8424C71.4986 26.1237 70.5179 25.557 69.4632 25.1664C68.5693 24.8757 67.6083 24.8619 66.7064 25.1269C65.8045 25.3919 65.0038 25.9233 64.4092 26.6513C64.0347 27.167 63.7783 27.7587 63.6583 28.3845C63.5382 29.0104 63.5574 29.655 63.7144 30.2726C63.8757 30.7173 64.0916 31.1402 64.3571 31.5317Z" fill="#263238"/>
<path d="M130.712 32.3393C130.712 32.3393 130.582 32.3393 130.348 32.3393C130.174 32.3565 130.007 32.4113 129.857 32.4998C129.707 32.5882 129.578 32.7084 129.479 32.8517C129.31 33.0536 129.216 33.3088 129.216 33.5725C129.216 33.8362 129.31 34.0914 129.479 34.2932C129.72 34.545 130.031 34.7186 130.372 34.7914C130.712 34.8642 131.067 34.8328 131.39 34.7014C131.77 34.5 132.092 34.2057 132.328 33.8458C132.563 33.4859 132.704 33.0721 132.736 32.6433C132.776 31.6185 132.586 30.5977 132.18 29.656C131.854 28.581 131.194 27.638 130.295 26.964C129.799 26.677 129.223 26.5582 128.654 26.6253C128.039 26.708 127.432 26.8416 126.839 27.0247C126.21 27.2351 125.547 27.3236 124.885 27.2853C124.549 27.2577 124.223 27.1627 123.924 27.0061C123.626 26.8494 123.362 26.6343 123.148 26.3734C122.427 25.3696 122.133 24.1201 122.332 22.8998C122.462 21.7709 122.714 20.7462 122.732 19.7823C122.742 18.887 122.565 17.9995 122.211 17.1771C121.692 15.9735 120.85 14.9367 119.779 14.1811C119.006 13.6688 118.503 13.5038 118.52 13.4604C118.537 13.4169 118.65 13.4604 118.885 13.5559C119.231 13.6829 119.563 13.8459 119.875 14.0422C121.02 14.7654 121.926 15.8106 122.48 17.0468C122.873 17.9084 123.077 18.844 123.079 19.791C123.079 20.807 122.827 21.8578 122.723 22.9433C122.549 24.0473 122.814 25.1755 123.461 26.0869C123.639 26.3027 123.858 26.4807 124.105 26.6105C124.353 26.7403 124.624 26.8191 124.903 26.8424C125.512 26.8627 126.12 26.7775 126.7 26.5905C127.315 26.3976 127.946 26.2582 128.585 26.1737C129.25 26.1036 129.92 26.2497 130.495 26.5905C131.482 27.3103 132.202 28.3362 132.545 29.5084C132.968 30.5117 133.149 31.6004 133.074 32.6867C133.03 33.1748 132.862 33.6434 132.585 34.0478C132.309 34.4522 131.933 34.7789 131.494 34.9967C131.112 35.1516 130.69 35.1821 130.29 35.0839C129.889 34.9857 129.529 34.7637 129.262 34.4496C129.153 34.3178 129.072 34.1651 129.024 34.0008C128.976 33.8365 128.963 33.6641 128.984 33.4943C129.021 33.2149 129.139 32.9524 129.323 32.7388C129.439 32.5865 129.589 32.4632 129.76 32.3788C129.932 32.2944 130.121 32.2512 130.313 32.2525C130.452 32.2359 130.593 32.2665 130.712 32.3393Z" fill="#263238"/>
<path d="M59.7744 46.5724C59.7744 46.5724 59.8873 46.6332 60.1131 46.6332C60.2738 46.6206 60.4287 46.5678 60.5637 46.4798C60.6987 46.3918 60.8095 46.2714 60.886 46.1295C61.0087 45.9394 61.0523 45.7088 61.0075 45.4869C60.9731 45.3597 60.913 45.2409 60.8308 45.1378C60.7487 45.0348 60.6463 44.9496 60.5299 44.8877C60.2396 44.7254 59.9035 44.6645 59.5747 44.7149C59.2459 44.7652 58.9434 44.9238 58.715 45.1656C58.1503 45.7848 57.8402 46.5942 57.8466 47.4321C57.8316 47.8844 57.9493 48.3312 58.1852 48.7174C58.4459 49.1086 58.8417 49.3899 59.2968 49.5076C59.793 49.6472 60.3191 49.6393 60.8109 49.4851C61.3028 49.331 61.7392 49.0371 62.067 48.6392C62.7781 47.7376 63.1555 46.6177 63.1351 45.4696C63.1051 44.2911 62.9949 43.116 62.8051 41.9525C62.626 40.8282 62.6525 39.6807 62.8833 38.5658C63.1482 37.5563 63.6825 36.6378 64.429 35.9085C65.063 35.2777 65.7965 34.7554 66.6 34.3627C67.7564 33.8221 68.9758 33.4282 70.2299 33.1904C70.6825 33.074 71.1446 32.9984 71.6107 32.9646C71.1766 33.132 70.7293 33.2628 70.2734 33.3554C69.0542 33.6559 67.8718 34.0898 66.7477 34.6493C65.9948 35.039 65.3089 35.5461 64.7156 36.1516C64.028 36.8419 63.5416 37.7066 63.3088 38.6526C63.0991 39.7177 63.0815 40.8118 63.2567 41.8831C63.4604 43.0655 63.5765 44.2614 63.604 45.4609C63.6241 46.7205 63.2067 47.9481 62.423 48.9345C62.0242 49.3979 61.5039 49.7408 60.9207 49.9244C60.3534 50.0885 59.7512 50.0885 59.1839 49.9244C58.631 49.7713 58.1545 49.4186 57.8466 48.9345C57.5728 48.4831 57.4425 47.9592 57.4731 47.4321C57.479 46.5017 57.8429 45.6092 58.4892 44.9398C58.7659 44.6563 59.1312 44.4759 59.5245 44.4285C59.9178 44.3812 60.3154 44.4696 60.6515 44.6793C60.792 44.7634 60.9138 44.8753 61.0094 45.0082C61.105 45.1411 61.1724 45.2922 61.2073 45.4522C61.2297 45.6111 61.2177 45.773 61.172 45.9269C61.1264 46.0808 61.0483 46.2231 60.9429 46.3441C60.8375 46.4652 60.7072 46.5622 60.5611 46.6285C60.4149 46.6949 60.2562 46.7291 60.0957 46.7287C59.9724 46.7202 59.8573 46.6641 59.7744 46.5724Z" fill="#263238"/>
<path d="M89.8948 5.34952C89.8948 5.34952 89.8427 5.21926 89.7472 5.00216C89.5924 4.69782 89.338 4.45569 89.0264 4.31612C88.522 4.10883 87.9629 4.07522 87.4372 4.22059C87.0976 4.29856 86.7893 4.47691 86.5523 4.73244C86.3154 4.98798 86.1608 5.3089 86.1086 5.65346C85.8307 7.19053 87.6109 9.12706 89.7385 8.76233C90.837 8.57441 91.8602 8.08083 92.691 7.33816C93.5925 6.51652 94.402 5.5993 95.1052 4.60269C95.8294 3.57818 96.6685 2.63998 97.6062 1.80645C98.5074 1.01372 99.6217 0.503369 100.811 0.338848C101.903 0.248689 102.993 0.533563 103.902 1.14647C104.68 1.66701 105.337 2.34805 105.83 3.14379C106.503 4.29595 106.948 5.56655 107.141 6.88659C107.219 7.34684 107.254 7.70288 107.28 7.94603C107.303 8.07236 107.303 8.2018 107.28 8.32813C107.28 8.32813 107.167 7.82445 106.968 6.92132C106.714 5.64392 106.238 4.42109 105.561 3.30877C105.076 2.57041 104.443 1.9406 103.702 1.45909C102.859 0.912258 101.855 0.66456 100.854 0.75569C99.7514 0.921863 98.7218 1.40799 97.8928 2.15381C96.9818 2.96467 96.166 3.87655 95.4612 4.87189C94.741 5.89689 93.9079 6.83777 92.9776 7.67683C92.0775 8.46711 90.973 8.98778 89.7906 9.17916C89.244 9.25946 88.6862 9.2127 88.1606 9.04252C87.635 8.87234 87.1557 8.5833 86.7599 8.19786C86.3985 7.87555 86.1216 7.4695 85.9535 7.0153C85.7855 6.56111 85.7314 6.07263 85.796 5.59267C85.8576 5.16474 86.0664 4.77167 86.3865 4.48112C86.6687 4.23058 87.0089 4.05447 87.3764 3.96876C87.9584 3.8181 88.5753 3.88286 89.1132 4.15112C89.4509 4.31689 89.7121 4.606 89.8427 4.95874C89.8863 5.08413 89.9041 5.21707 89.8948 5.34952Z" fill="#263238"/>
<path d="M103.183 8.36285C103.148 8.3091 103.122 8.25058 103.104 8.18917C103.058 8.01788 102.982 7.85617 102.879 7.71155C102.477 7.16008 101.912 6.7497 101.263 6.5392C100.236 6.18808 99.1519 6.03486 98.0677 6.08764C97.3973 6.10264 96.7318 6.2048 96.0878 6.39158C95.3827 6.64312 94.7273 7.0164 94.1513 7.49445C92.7917 8.58335 91.6311 9.89963 90.7211 11.3849C90.4799 11.7905 90.2708 12.2145 90.0958 12.6527C89.9265 13.1497 89.6542 13.6054 89.2969 13.9901C88.5441 14.7667 87.6009 15.3326 86.5614 15.6313C86.0368 15.775 85.5029 15.8824 84.9636 15.9526C84.4387 16.0673 83.9287 16.2422 83.4439 16.4737C82.4415 16.9406 81.5792 17.6622 80.9429 18.5665C80.3081 19.518 79.9891 20.6453 80.0311 21.7883C80.0767 22.9904 80.219 24.1868 80.4566 25.3661C80.7148 26.5817 80.7706 27.8317 80.6216 29.0655C80.4394 30.2954 79.8234 31.4197 78.8848 32.2351C77.0959 33.859 74.8554 34.5103 73.2836 35.8998C72.5024 36.527 71.9028 37.3514 71.5468 38.2879C71.2695 39.19 71.3536 40.1646 71.7813 41.006C72.1634 41.8744 72.7018 42.6038 73.0665 43.4288C73.4814 44.2301 73.6159 45.1473 73.4486 46.034C73.2068 46.8062 72.6991 47.4677 72.0157 47.9011C71.4527 48.2788 70.9133 48.6906 70.4005 49.1342C70.0234 49.5107 69.738 49.9689 69.5663 50.4733C69.3947 50.9778 69.3413 51.515 69.4105 52.0433C69.4725 52.7292 69.6034 53.4071 69.8013 54.0667C69.8808 54.2959 69.9418 54.5311 69.9837 54.7701C69.9837 54.7701 69.9837 54.718 69.9055 54.6051C69.8274 54.4922 69.7926 54.3185 69.7145 54.0928C69.4821 53.4347 69.322 52.7534 69.2369 52.0607C69.1733 51.5535 69.1997 51.039 69.315 50.541C69.4479 49.9397 69.7491 49.3885 70.1834 48.9518C70.6975 48.4928 71.2399 48.0665 71.8073 47.6753C72.4328 47.2701 72.892 46.6538 73.1012 45.9385C73.2298 45.1352 73.0927 44.3119 72.7105 43.5938C72.3631 42.8123 71.8421 42.0567 71.4079 41.1797C70.9312 40.2542 70.8346 39.1793 71.1387 38.1837C71.5117 37.1635 72.1538 36.2632 72.997 35.5785C74.6557 34.1196 76.8962 33.4509 78.5722 31.9138C79.4257 31.1561 79.9877 30.1241 80.1613 28.996C80.3003 27.811 80.2446 26.6113 79.9963 25.4443C79.7518 24.2395 79.6066 23.0168 79.5621 21.7883C79.5196 20.554 79.8692 19.338 80.5608 18.3147C81.2431 17.3475 82.1688 16.5776 83.2442 16.0829C83.7607 15.8413 84.3024 15.6578 84.8594 15.5358C85.3896 15.4704 85.9148 15.3689 86.4312 15.2319C87.4147 14.9597 88.3117 14.4394 89.0364 13.7209C89.3578 13.3729 89.6033 12.9618 89.7572 12.5138C89.9432 12.0561 90.1668 11.6146 90.4258 11.1938C91.3707 9.68004 92.5727 8.34289 93.9776 7.24262C94.5867 6.74109 95.2808 6.35284 96.027 6.09632C96.7001 5.91054 97.3954 5.81706 98.0938 5.81844C99.2042 5.78071 100.311 5.96371 101.35 6.35685C102.026 6.59006 102.602 7.04643 102.983 7.65075C103.078 7.80566 103.146 7.97614 103.183 8.15443C103.197 8.22319 103.197 8.29408 103.183 8.36285Z" fill="#455A64"/>
<g opacity="0.3">
<path opacity="0.3" d="M68.0427 137.164C63.2231 124.52 63.0668 110.07 66.0193 96.8701C65.3072 103.913 66.4014 110.903 67.869 117.833C69.2411 124.329 70.8997 124.398 69.7187 131.623C69.5528 132.604 69.3029 133.569 68.9719 134.507L68.0427 137.164Z" fill="black"/>
</g>
<path d="M81.2145 181.973C81.2145 181.973 47.9635 191.17 46.6261 191.639C44.6201 192.351 44.9589 199.689 48.0764 199.576C49.5527 199.515 73.616 200.444 76.6554 200.279C79.6948 200.114 87.8838 196.858 87.8838 196.858L81.2145 181.973Z" fill="#FF725E"/>
<path d="M67.3187 194.661C67.145 194.661 66.9192 192.924 65.8511 191.091C64.783 189.259 63.3935 188.156 63.4977 188.026C63.6019 187.896 65.2345 188.834 66.3287 190.814C67.4229 192.793 67.4663 194.669 67.3187 194.661Z" fill="#263238"/>
<path d="M70.7953 193.089C70.6303 193.089 70.2916 191.543 69.4059 189.806C68.5201 188.069 67.478 186.854 67.5996 186.741C67.7211 186.628 68.989 187.713 69.9095 189.554C70.83 191.395 70.9342 193.08 70.7953 193.089Z" fill="#263238"/>
<path d="M74.0408 192.212C73.8758 192.212 74.0408 190.544 73.2679 188.738C72.4951 186.932 71.3401 185.751 71.453 185.629C71.5659 185.508 73.0161 186.498 73.7803 188.53C74.5445 190.562 74.1798 192.264 74.0408 192.212Z" fill="#263238"/>
<path d="M73.4532 187.922C73.1677 187.13 73.0465 186.287 73.0972 185.447C73.1071 184.534 73.2207 183.625 73.4358 182.737C73.5637 182.211 73.7291 181.694 73.9308 181.192C74.0306 180.877 74.2136 180.595 74.4605 180.375C74.6262 180.244 74.8341 180.178 75.0451 180.189C75.2561 180.201 75.4558 180.288 75.6068 180.436C75.8643 180.684 76.0219 181.018 76.0497 181.374C76.0849 181.662 76.0994 181.952 76.0931 182.242C76.0838 182.79 76.0139 183.334 75.8847 183.866C75.6638 184.758 75.3189 185.615 74.86 186.411C74.4918 187.167 73.9852 187.847 73.3664 188.417C73.2969 188.356 73.8527 187.548 74.5126 186.228C74.9005 185.441 75.192 184.61 75.381 183.753C75.4825 183.256 75.5349 182.75 75.5374 182.242C75.5374 181.73 75.5373 181.087 75.2334 180.844C75.1727 180.789 75.0938 180.759 75.0119 180.759C74.9301 180.759 74.8512 180.789 74.7905 180.844C74.6224 181.005 74.4971 181.205 74.4258 181.426C74.2258 181.901 74.0575 182.388 73.9221 182.885C73.6888 183.736 73.5433 184.609 73.4879 185.49C73.401 186.967 73.5487 187.904 73.4532 187.922Z" fill="#263238"/>
<path d="M73.4961 187.583C74.1735 187.299 74.9087 187.18 75.6411 187.236C76.4371 187.235 77.2302 187.332 78.0031 187.522C78.4759 187.626 78.9318 187.796 79.3578 188.026C79.6339 188.16 79.8579 188.382 79.9946 188.657C80.1313 188.932 80.173 189.245 80.1133 189.546C80.0312 189.83 79.8781 190.088 79.6684 190.296C79.4587 190.504 79.1994 190.655 78.9149 190.735C78.4245 190.858 77.9117 190.858 77.4213 190.735C76.6342 190.538 75.8974 190.177 75.259 189.676C74.6561 189.264 74.1324 188.746 73.7132 188.148C74.3205 188.508 74.9009 188.911 75.45 189.355C76.0697 189.77 76.762 190.064 77.4908 190.223C77.8959 190.322 78.3188 190.322 78.7239 190.223C78.9168 190.176 79.0935 190.077 79.2356 189.938C79.3776 189.799 79.4798 189.625 79.5315 189.433C79.5621 189.245 79.5303 189.053 79.4408 188.885C79.3514 188.717 79.2094 188.583 79.0365 188.504C78.6583 188.298 78.2556 188.14 77.8381 188.035C77.1059 187.831 76.3555 187.7 75.5977 187.644C74.3298 187.54 73.5135 187.67 73.4961 187.583Z" fill="#263238"/>
<path d="M62.2128 195.017C62.0478 195.017 62.2128 193.575 61.5615 192.012C60.9102 190.449 59.8247 189.537 59.9289 189.407C60.0331 189.277 61.3791 190.058 62.0738 191.795C62.7686 193.532 62.3517 195.069 62.2128 195.017Z" fill="#263238"/>
<path d="M85.416 196.545C85.0103 196.792 84.5795 196.996 84.1308 197.153C82.9249 197.618 81.689 198.001 80.4314 198.299C76.2635 199.212 72.0006 199.617 67.7354 199.506C62.7508 199.445 58.2612 199.22 55.0047 199.089L51.149 198.89C50.6757 198.891 50.2037 198.838 49.7422 198.733C50.2107 198.665 50.685 198.645 51.1577 198.673H55.0134L67.7354 198.924C71.9623 199.038 76.1893 198.7 80.3446 197.917C83.5229 197.266 85.3813 196.449 85.416 196.545Z" fill="#263238"/>
<path d="M86.4239 197.309C86.3805 197.379 85.4687 196.849 83.9316 196.18C81.9753 195.249 79.7972 194.885 77.6444 195.129C75.1348 195.512 73.3632 197.196 72.2082 198.369C71.6152 199.064 70.9739 199.717 70.2891 200.322C70.7266 199.511 71.273 198.763 71.913 198.099C72.567 197.331 73.3072 196.641 74.1187 196.041C75.1414 195.281 76.3334 194.78 77.5923 194.582C79.848 194.31 82.1325 194.744 84.1313 195.824C84.9716 196.19 85.7461 196.692 86.4239 197.309Z" fill="#263238"/>
<path d="M53.0434 198.742C52.9826 198.742 53.2691 198.264 53.5297 197.492C53.8828 196.489 53.9668 195.411 53.7733 194.366C53.5797 193.32 53.1155 192.344 52.4268 191.534C51.9057 190.9 51.4889 190.588 51.5584 190.527C51.6278 190.466 52.0881 190.701 52.7047 191.317C53.506 192.128 54.0447 193.162 54.2507 194.283C54.4567 195.404 54.3204 196.562 53.8596 197.604C53.4689 198.395 53.0868 198.777 53.0434 198.742Z" fill="#263238"/>
<path d="M87.7463 147.619C87.7463 147.337 87.8573 147.065 88.0555 146.864C88.2537 146.663 88.5232 146.547 88.8057 146.543L119.686 146.152L131.844 108.35C132.047 107.732 132.444 107.195 132.975 106.82C133.507 106.445 134.145 106.25 134.796 106.266L181.69 107.586C182.169 107.601 182.637 107.73 183.056 107.962C183.476 108.195 183.833 108.523 184.1 108.922C184.367 109.32 184.534 109.776 184.589 110.252C184.645 110.728 184.585 111.21 184.417 111.659L169.654 150.737L88.7276 148.714C88.4559 148.689 88.2034 148.563 88.0212 148.36C87.8391 148.157 87.7408 147.892 87.7463 147.619Z" fill="#455A64"/>
<path d="M157.01 127.429C156.454 126.413 154.135 126.066 153.024 126.908C152.311 127.318 151.787 127.992 151.565 128.784C151.411 129.41 151.49 130.07 151.788 130.642C152.085 131.214 152.58 131.658 153.18 131.893C153.791 132.032 154.43 131.989 155.017 131.768C155.604 131.547 156.112 131.159 156.48 130.651C156.866 130.22 157.12 129.688 157.214 129.117C157.308 128.546 157.237 127.961 157.01 127.429Z" fill="white"/>
</svg>
