<svg width="30" height="54" viewBox="0 0 30 54" fill="none" xmlns="http://www.w3.org/2000/svg">
<path d="M15 7.15256e-07C23.2843 7.15256e-07 30 6.74383 30 15.0628C30 23.3817 15 54 15 54C15 54 0 23.3817 0 15.0628C0 6.74383 6.71573 7.15256e-07 15 7.15256e-07Z" fill="#FF1E1E"/>
<ellipse cx="15" cy="15.0502" rx="12" ry="12.0502" fill="white"/>
<path d="M11.6875 20.625H18.625C19.221 20.6251 19.7993 20.4223 20.2647 20.05C20.7301 19.6778 21.055 19.1582 21.1859 18.5768C21.3168 17.9954 21.246 17.3867 20.985 16.8509C20.724 16.315 20.2885 15.884 19.75 15.6286V11.8125C19.75 11.7879 19.7452 11.7635 19.7357 11.7407C19.7263 11.718 19.7125 11.6973 19.6951 11.6799L17.4451 9.42991C17.4277 9.4125 17.407 9.39869 17.3843 9.38927C17.3615 9.37985 17.3371 9.375 17.3125 9.375H11.6875C11.4389 9.37528 11.2007 9.47414 11.0249 9.6499C10.8491 9.82565 10.7503 10.0639 10.75 10.3125V19.6875C10.7503 19.9361 10.8491 20.1743 11.0249 20.3501C11.2007 20.5259 11.4389 20.6247 11.6875 20.625V20.625ZM20.875 18C20.875 18.445 20.743 18.88 20.4958 19.25C20.2486 19.62 19.8972 19.9084 19.486 20.0787C19.0749 20.249 18.6225 20.2936 18.186 20.2068C17.7496 20.12 17.3487 19.9057 17.034 19.591C16.7193 19.2763 16.505 18.8754 16.4182 18.439C16.3314 18.0025 16.376 17.5501 16.5463 17.139C16.7166 16.7278 17.005 16.3764 17.375 16.1292C17.745 15.882 18.18 15.75 18.625 15.75C19.2215 15.7507 19.7934 15.9879 20.2153 16.4097C20.6371 16.8316 20.8743 17.4035 20.875 18V18ZM17.5 10.0151L19.1099 11.625H18.0625C17.9134 11.6248 17.7704 11.5655 17.6649 11.4601C17.5595 11.3546 17.5002 11.2116 17.5 11.0625V10.0151ZM11.125 10.3125C11.1252 10.1634 11.1845 10.0204 11.2899 9.91494C11.3954 9.80949 11.5384 9.75017 11.6875 9.75H17.125V11.0625C17.1253 11.3111 17.2241 11.5493 17.3999 11.7251C17.5757 11.9009 17.8139 11.9997 18.0625 12H19.375V15.4844C18.7624 15.3016 18.1041 15.3487 17.5237 15.6168C16.9434 15.885 16.4808 16.3557 16.2229 16.9407C15.9651 17.5257 15.9296 18.1848 16.1232 18.7941C16.3167 19.4034 16.7261 19.9211 17.2743 20.25H11.6875C11.5384 20.2498 11.3954 20.1905 11.2899 20.0851C11.1845 19.9796 11.1252 19.8366 11.125 19.6875V10.3125Z" fill="#111111"/>
<path d="M13.75 12.9375C13.75 12.9872 13.7698 13.0349 13.8049 13.0701C13.8401 13.1052 13.8878 13.125 13.9375 13.125H18.4375C18.4872 13.125 18.5349 13.1052 18.5701 13.0701C18.6052 13.0349 18.625 12.9872 18.625 12.9375C18.625 12.8878 18.6052 12.8401 18.5701 12.8049C18.5349 12.7698 18.4872 12.75 18.4375 12.75H13.9375C13.8878 12.75 13.8401 12.7698 13.8049 12.8049C13.7698 12.8401 13.75 12.8878 13.75 12.9375Z" fill="#111111"/>
<path d="M12.0625 14.25H15.8125C15.8622 14.25 15.9099 14.2302 15.9451 14.1951C15.9802 14.1599 16 14.1122 16 14.0625C16 14.0128 15.9802 13.9651 15.9451 13.9299C15.9099 13.8948 15.8622 13.875 15.8125 13.875H12.0625C12.0128 13.875 11.9651 13.8948 11.9299 13.9299C11.8948 13.9651 11.875 14.0128 11.875 14.0625C11.875 14.1122 11.8948 14.1599 11.9299 14.1951C11.9651 14.2302 12.0128 14.25 12.0625 14.25V14.25Z" fill="#111111"/>
<path d="M16.5625 15H15.0625C15.0128 15 14.9651 15.0198 14.9299 15.0549C14.8948 15.0901 14.875 15.1378 14.875 15.1875C14.875 15.2372 14.8948 15.2849 14.9299 15.3201C14.9651 15.3552 15.0128 15.375 15.0625 15.375H16.5625C16.6122 15.375 16.6599 15.3552 16.6951 15.3201C16.7302 15.2849 16.75 15.2372 16.75 15.1875C16.75 15.1378 16.7302 15.0901 16.6951 15.0549C16.6599 15.0198 16.6122 15 16.5625 15V15Z" fill="#111111"/>
<path d="M12.0625 16.5H15.4375C15.4872 16.5 15.5349 16.4802 15.5701 16.4451C15.6052 16.4099 15.625 16.3622 15.625 16.3125C15.625 16.2628 15.6052 16.2151 15.5701 16.1799C15.5349 16.1448 15.4872 16.125 15.4375 16.125H12.0625C12.0128 16.125 11.9651 16.1448 11.9299 16.1799C11.8948 16.2151 11.875 16.2628 11.875 16.3125C11.875 16.3622 11.8948 16.4099 11.9299 16.4451C11.9651 16.4802 12.0128 16.5 12.0625 16.5V16.5Z" fill="#111111"/>
<path d="M12.0625 13.125H13.1875C13.2372 13.125 13.2849 13.1052 13.3201 13.0701C13.3552 13.0349 13.375 12.9872 13.375 12.9375C13.375 12.8878 13.3552 12.8401 13.3201 12.8049C13.2849 12.7698 13.2372 12.75 13.1875 12.75H12.0625C12.0128 12.75 11.9651 12.7698 11.9299 12.8049C11.8948 12.8401 11.875 12.8878 11.875 12.9375C11.875 12.9872 11.8948 13.0349 11.9299 13.0701C11.9651 13.1052 12.0128 13.125 12.0625 13.125V13.125Z" fill="#111111"/>
<path d="M18.4375 13.875H16.5625C16.5128 13.875 16.4651 13.8948 16.4299 13.9299C16.3948 13.9651 16.375 14.0128 16.375 14.0625C16.375 14.1122 16.3948 14.1599 16.4299 14.1951C16.4651 14.2302 16.5128 14.25 16.5625 14.25H18.4375C18.4872 14.25 18.5349 14.2302 18.5701 14.1951C18.6052 14.1599 18.625 14.1122 18.625 14.0625C18.625 14.0128 18.6052 13.9651 18.5701 13.9299C18.5349 13.8948 18.4872 13.875 18.4375 13.875Z" fill="#111111"/>
<path d="M12.0625 15.375H14.3125C14.3622 15.375 14.4099 15.3552 14.4451 15.3201C14.4802 15.2849 14.5 15.2372 14.5 15.1875C14.5 15.1378 14.4802 15.0901 14.4451 15.0549C14.4099 15.0198 14.3622 15 14.3125 15H12.0625C12.0128 15 11.9651 15.0198 11.9299 15.0549C11.8948 15.0901 11.875 15.1378 11.875 15.1875C11.875 15.2372 11.8948 15.2849 11.9299 15.3201C11.9651 15.3552 12.0128 15.375 12.0625 15.375V15.375Z" fill="#111111"/>
<path d="M15.0625 18.375H14.3125C14.2628 18.375 14.2151 18.3948 14.1799 18.4299C14.1448 18.4651 14.125 18.5128 14.125 18.5625C14.125 18.6122 14.1448 18.6599 14.1799 18.6951C14.2151 18.7302 14.2628 18.75 14.3125 18.75H15.0625C15.1122 18.75 15.1599 18.7302 15.1951 18.6951C15.2302 18.6599 15.25 18.6122 15.25 18.5625C15.25 18.5128 15.2302 18.4651 15.1951 18.4299C15.1599 18.3948 15.1122 18.375 15.0625 18.375Z" fill="#111111"/>
<path d="M12.0625 18.75H13.5625C13.6122 18.75 13.6599 18.7302 13.6951 18.6951C13.7302 18.6599 13.75 18.6122 13.75 18.5625C13.75 18.5128 13.7302 18.4651 13.6951 18.4299C13.6599 18.3948 13.6122 18.375 13.5625 18.375H12.0625C12.0128 18.375 11.9651 18.3948 11.9299 18.4299C11.8948 18.4651 11.875 18.5128 11.875 18.5625C11.875 18.6122 11.8948 18.6599 11.9299 18.6951C11.9651 18.7302 12.0128 18.75 12.0625 18.75V18.75Z" fill="#111111"/>
<path d="M12.0625 17.625H13.1875C13.2372 17.625 13.2849 17.6052 13.3201 17.5701C13.3552 17.5349 13.375 17.4872 13.375 17.4375C13.375 17.3878 13.3552 17.3401 13.3201 17.3049C13.2849 17.2698 13.2372 17.25 13.1875 17.25H12.0625C12.0128 17.25 11.9651 17.2698 11.9299 17.3049C11.8948 17.3401 11.875 17.3878 11.875 17.4375C11.875 17.4872 11.8948 17.5349 11.9299 17.5701C11.9651 17.6052 12.0128 17.625 12.0625 17.625V17.625Z" fill="#111111"/>
<path d="M12.0625 12H14.3125C14.3622 12 14.4099 11.9802 14.4451 11.9451C14.4802 11.9099 14.5 11.8622 14.5 11.8125C14.5 11.7628 14.4802 11.7151 14.4451 11.6799C14.4099 11.6448 14.3622 11.625 14.3125 11.625H12.0625C12.0128 11.625 11.9651 11.6448 11.9299 11.6799C11.8948 11.7151 11.875 11.7628 11.875 11.8125C11.875 11.8622 11.8948 11.9099 11.9299 11.9451C11.9651 11.9802 12.0128 12 12.0625 12V12Z" fill="#111111"/>
<path d="M15.0625 17.25H13.9375C13.8878 17.25 13.8401 17.2698 13.8049 17.3049C13.7698 17.3401 13.75 17.3878 13.75 17.4375C13.75 17.4872 13.7698 17.5349 13.8049 17.5701C13.8401 17.6052 13.8878 17.625 13.9375 17.625H15.0625C15.1122 17.625 15.1599 17.6052 15.1951 17.5701C15.2302 17.5349 15.25 17.4872 15.25 17.4375C15.25 17.3878 15.2302 17.3401 15.1951 17.3049C15.1599 17.2698 15.1122 17.25 15.0625 17.25Z" fill="#111111"/>
<g clip-path="url(#clip0)">
<path d="M20.3389 17.9216C20.3317 17.9124 20.1572 17.6936 19.8582 17.4739C19.4586 17.1803 19.0238 17.0251 18.6008 17.0251C18.1778 17.0251 17.743 17.1803 17.3433 17.4739C17.0443 17.6936 16.8699 17.9124 16.8626 17.9216L16.8008 17.9998L16.8626 18.078C16.8699 18.0872 17.0443 18.3061 17.3434 18.5258C17.743 18.8194 18.1778 18.9745 18.6008 18.9745C19.0238 18.9745 19.4586 18.8194 19.8582 18.5258C20.1572 18.3061 20.3317 18.0872 20.3389 18.078L20.4008 17.9998L20.3389 17.9216ZM18.6008 18.6827C18.2243 18.6827 17.9179 18.3764 17.9179 17.9998C17.9179 17.9408 17.9255 17.8836 17.9396 17.8289L17.7837 17.8027C17.7684 17.866 17.7603 17.932 17.7603 17.9998C17.7603 18.243 17.8642 18.4624 18.0299 18.616C17.8166 18.5372 17.6353 18.4267 17.4984 18.3267C17.3288 18.2029 17.2018 18.0776 17.1293 17.9998C17.2018 17.922 17.3288 17.7968 17.4984 17.6729C17.6353 17.573 17.8166 17.4624 18.0299 17.3836L18.1345 17.5015C18.2566 17.3872 18.4206 17.317 18.6008 17.317C18.9773 17.317 19.2836 17.6233 19.2836 17.9998C19.2836 18.3764 18.9773 18.6827 18.6008 18.6827ZM19.7031 18.3267C19.5663 18.4267 19.3849 18.5372 19.1717 18.616C19.3373 18.4624 19.4412 18.2431 19.4412 17.9998C19.4412 17.7566 19.3373 17.5372 19.1717 17.3836C19.3849 17.4624 19.5663 17.573 19.7031 17.6729C19.8727 17.7968 19.9998 17.9221 20.0722 17.9998C19.9998 18.0776 19.8727 18.2029 19.7031 18.3267Z" fill="#111111"/>
<path d="M18.1662 17.8672C18.1534 17.9092 18.1465 17.9537 18.1465 17.9999C18.1465 18.2508 18.3499 18.4542 18.6008 18.4542C18.8516 18.4542 19.055 18.2508 19.055 17.9999C19.055 17.749 18.8516 17.5457 18.6008 17.5457C18.4786 17.5457 18.3677 17.594 18.2861 17.6725L18.5101 17.9251L18.1662 17.8672Z" fill="#111111"/>
</g>
<defs>
<clipPath id="clip0">
<rect width="3.6" height="3.6" fill="white" transform="translate(16.8008 16.2)"/>
</clipPath>
</defs>
</svg>
