<?xml version="1.0" encoding="utf-8"?>
<!-- Generator: Adobe Illustrator 25.0.1, SVG Export Plug-In . SVG Version: 6.00 Build 0)  -->
<svg version="1.1" xmlns="http://www.w3.org/2000/svg" xmlns:xlink="http://www.w3.org/1999/xlink" x="0px" y="0px"
	 viewBox="0 0 480 480" style="enable-background:new 0 0 480 480;" xml:space="preserve">
<style type="text/css">
	.st0{fill:#ED1C24;}
	.st1{fill:#F2F2F2;}
</style>
<g id="Capa_1">
	<path class="st0" d="M109,282.3l131,187.4l131-187.4c23.4-33.1,35.9-72.8,36-113.4C406.2,104,365.4,46.5,304.5,24.4l-7.7-2.9
		c-36.8-14-77.2-14.9-114.6-2.3C117.9,39.4,73.9,98.7,72.9,166.1v2.9C73.1,209.5,85.6,249,109,282.3L109,282.3z"/>
	<circle class="st1" cx="241.2" cy="179.8" r="132.6"/>
	<path d="M308.1,14.6l-7.6-2.9C261.5-3.1,218.6-4,178.9,9.2C110.4,31,63.5,94.1,62.5,166v2.9c0,42.7,13.3,84.4,37.8,119.3
		l77.4,110.8c-0.4,0-0.8,0-1,0.1c0.7,0.7,1.2,1.4,1.7,2.3c0.3,0.5,0.5,0.9,0.8,1.4c0.1,0.1,0.4,0.4,0.5,0.5c2.6,2.7,4.3,6,6.1,9.3
		c2,1.8,3.4,3.9,4.6,6.1c0.4-0.1,0.7-0.3,1-0.4l40.1,57.3c3.3,4.7,9.8,5.9,14.5,2.6c1-0.7,1.8-1.6,2.6-2.6l40.1-57.3
		c0.1,0.1,0.4,0.1,0.5,0.1c1.6-3,3.8-5.7,6-8.4c0.4-0.9,0.8-1.7,1.3-2.6c0.7-1,1.4-2.1,2.2-2.9c0.7-2.2,2-4.2,3.5-5.9l77.4-110.5
		c24.7-35,37.8-76.6,37.8-119.3C416.8,99.7,373.2,38.1,308.1,14.6z M362.5,276.3L240,451.4L117.5,276.1
		c-22.2-31.4-34.1-68.9-34.1-107.4v-2.9c1-62.9,42.1-118.1,102.2-137c35-11.6,72.9-10.8,107.5,2.2l7.6,2.9
		c57,20.5,95.3,74.2,95.9,134.8C396.6,207.4,384.6,244.8,362.5,276.3z"/>
</g>
<g id="icon">
	<path d="M356.9,211.7l-1.8-3.9c0.8-5.1,1.2-10.3,1.2-15.5v-4H251.1v105.2h4c13.9,0,27.8-2.9,40.4-8.4v0.3c0,6.1,2,12.1,5.7,17
		l6.5,8.6v14.8h40.4v-15.6l12.6-41c2.4-7.7,3.6-15.6,3.6-23.6C364.4,233.9,361.8,222.2,356.9,211.7z M259.2,285.2v-88.9h88.9
		c-0.8,19.8-7.9,38.4-20.1,53.8v-1.2c0-8.9-7.3-16.2-16.2-16.2c-8.9,0-16.2,7.3-16.2,16.2V276C284.2,281.5,272,284.6,259.2,285.2z
		 M353.1,266.7l-12.8,41.6l-0.2,9.3h-24.3v-9.4l-8.1-10.8c-2.6-3.5-4-7.8-4-12.1v-36.4c0-4.5,3.6-8.1,8.1-8.1c4.5,0,8.1,3.6,8.1,8.1
		v32.4h8.1v-18.9c11.3-11.8,19.5-25.8,24.1-41.1c2.7,7.8,4.2,16,4.2,24.2C356.3,252.7,355.2,259.8,353.1,266.7z"/>
	<path d="M340.1,176.1c0-55.8-45.4-101.1-101.1-101.1s-101.1,45.4-101.1,101.1S183.2,277.2,239,277.2h4v-97.1h97.1V176.1z
		 M323.9,138l-34,34h-25l49.8-49.8C318.3,127.1,321.4,132.4,323.9,138z M309.8,115.8L253.5,172H243v-14.5l54-54
		C301.7,107.1,305.9,111.3,309.8,115.8z M243,121.1L274.2,90c5.7,2.4,11.2,5.3,16.3,8.7L243,146.1V121.1z M243,109.7V83.1
		c7.9,0.3,15.5,1.6,22.7,3.8L243,109.7z M234.9,269c-49.4-2.1-89-43-89-92.9s39.6-90.8,89-92.9V269z M301.3,172l25.8-25.8
		c2.8,8.1,4.4,16.8,4.8,25.8H301.3z"/>
	<path d="M209.2,146.9c5.3,0,9.6,5.5,9.6,12.2c0,2.2,1.4,4.1,3.2,4.1c1.8,0,3.2-1.8,3.2-4.1c0-11.2-7.2-20.3-16-20.3h-9.6v-16.3
		c0-2.2-1.4-4.1-3.2-4.1c-1.8,0-3.2,1.8-3.2,4.1v16.3h-9.6c-4.5,0-8.8,2.4-11.8,6.7c-3,4.2-4.5,9.9-4.1,15.7
		c0.8,10.3,8,18.4,16.5,18.4h9v24.4h-9.6c-5.3,0-9.6-5.5-9.6-12.2c0-2.2-1.4-4.1-3.2-4.1c-1.8,0-3.2,1.8-3.2,4.1
		c0,11.2,7.2,20.3,16,20.3h9.6v16.3c0,2.2,1.4,4.1,3.2,4.1c1.8,0,3.2-1.8,3.2-4.1V212h9c8.5,0,15.7-8.1,16.5-18.4
		c0.4-5.7-1.1-11.4-4.1-15.7c-3-4.2-7.3-6.7-11.8-6.7h-9.6v-24.4H209.2z M193.2,171.3h-9c-5.2,0-9.6-4.8-10.1-11
		c-0.3-3.5,0.6-6.8,2.4-9.4c1.8-2.5,4.4-4,7.1-4h9.6V171.3z M209.2,179.5c2.7,0,5.3,1.5,7.1,4c1.8,2.6,2.7,5.9,2.4,9.4
		c-0.5,6.2-4.9,11-10.1,11h-9v-24.4H209.2z"/>
</g>
</svg>
