<svg width="30" height="54" viewBox="0 0 30 54" fill="none" xmlns="http://www.w3.org/2000/svg">
<path d="M15 0C23.2843 0 30 6.74383 30 15.0628C30 23.3817 15 54 15 54C15 54 0 23.3817 0 15.0628C0 6.74383 6.71573 0 15 0Z" fill="#FF1E1E"/>
<ellipse cx="15" cy="15.0502" rx="12" ry="12.0502" fill="white"/>
<path d="M19.6249 20.9999H10.3749C9.61642 20.9999 9 20.3834 9 19.625V12.3749C9 11.6164 9.61642 11 10.3749 11H12.125C12.332 11 12.5 11.168 12.5 11.375C12.5 11.582 12.332 11.75 12.125 11.75H10.3749C10.0304 11.75 9.75 12.0304 9.75 12.3749V19.625C9.75 19.9694 10.0304 20.2499 10.3749 20.2499H19.6249C19.9694 20.2499 20.2499 19.9694 20.2499 19.625V15.3749C20.2499 15.1679 20.4179 14.9999 20.6249 14.9999C20.8319 14.9999 20.9999 15.1679 20.9999 15.3749V19.625C20.9999 20.3834 20.3834 20.9999 19.6249 20.9999Z" fill="#111111"/>
<path d="M12.3744 16.9936C12.347 16.9936 12.3194 16.9906 12.292 16.9835C12.1225 16.9441 12 16.7991 12 16.6251V15.8751C12 13.1871 14.187 11.0001 16.875 11.0001H16.9999V9.37509C16.9999 9.22211 17.093 9.08459 17.235 9.0271C17.3764 8.97015 17.5389 9.00458 17.6449 9.11508L20.8949 12.4901C21.0349 12.6351 21.0349 12.8651 20.8949 13.0101L17.6449 16.3851C17.5389 16.4956 17.3754 16.5296 17.235 16.473C17.093 16.4156 16.9999 16.278 16.9999 16.1251V14.5001H16.406C14.833 14.5001 13.4194 15.3741 12.7165 16.7806C12.6519 16.9106 12.5164 16.9936 12.3744 16.9936ZM16.875 11.7501C14.775 11.7501 13.036 13.3276 12.7815 15.36C13.6904 14.3461 14.9939 13.7501 16.406 13.7501H17.3749C17.5819 13.7501 17.7499 13.9181 17.7499 14.1251V15.1951L20.1044 12.7501L17.7499 10.3051V11.3751C17.7499 11.5821 17.5819 11.7501 17.3749 11.7501H16.875Z" fill="#111111"/>
</svg>
