<svg width="30" height="54" viewBox="0 0 30 54" fill="none" xmlns="http://www.w3.org/2000/svg">
<path d="M15 0C23.2843 0 30 6.74383 30 15.0628C30 23.3817 15 54 15 54C15 54 0 23.3817 0 15.0628C0 6.74383 6.71573 0 15 0Z" fill="#FF1E1E"/>
<ellipse cx="15" cy="15.0502" rx="12" ry="12.0502" fill="white"/>
<g clip-path="url(#clip0)">
<path d="M20.4544 14.0503V12.3638C20.4544 11.7919 20.0108 11.3267 19.4503 11.2816L17.884 8.5459C17.7389 8.29288 17.5045 8.11204 17.2241 8.03694C16.9449 7.96236 16.653 8.00153 16.4032 8.14694L11.0339 11.2729H10.0909C9.48926 11.2729 9 11.7621 9 12.3638V18.9091C9 19.5107 9.48924 20 10.0909 20H19.3635C19.9651 20 20.4544 19.5108 20.4544 18.9091V17.2225C20.7711 17.1096 20.9998 16.8097 20.9998 16.4546V14.8183C20.9998 14.4632 20.7711 14.1633 20.4544 14.0503ZM18.8165 11.2729H16.4395L18.2223 10.2349L18.8165 11.2729ZM17.9513 9.76157L15.3554 11.2729H14.2787L17.682 9.29135L17.9513 9.76157ZM16.6778 8.61833C16.8011 8.54615 16.9452 8.52698 17.0829 8.56374C17.2222 8.60102 17.3383 8.69104 17.4105 8.81702L17.4111 8.81801L13.1947 11.2729H12.118L16.6778 8.61833ZM19.9089 18.9091C19.9089 19.2098 19.6642 19.4545 19.3635 19.4545H10.0909C9.79022 19.4545 9.54546 19.2098 9.54546 18.9091V12.3638C9.54546 12.0631 9.79022 11.8183 10.0909 11.8183H19.3635C19.6642 11.8183 19.9089 12.0631 19.9089 12.3638V14.0001H18.2726C17.3702 14.0001 16.6362 14.7341 16.6362 15.6364C16.6362 16.5388 17.3702 17.2728 18.2726 17.2728H19.9089V18.9091ZM20.4544 16.4546C20.4544 16.6051 20.3321 16.7273 20.1817 16.7273H18.2726C17.671 16.7273 17.1817 16.2381 17.1817 15.6364C17.1817 15.0348 17.6709 14.5455 18.2726 14.5455H20.1817C20.3321 14.5455 20.4544 14.6678 20.4544 14.8183V16.4546Z" fill="#111111"/>
<path d="M18.272 15.0911C17.9713 15.0911 17.7266 15.3358 17.7266 15.6365C17.7266 15.9372 17.9713 16.1819 18.272 16.1819C18.5727 16.1819 18.8174 15.9372 18.8174 15.6365C18.8175 15.3358 18.5727 15.0911 18.272 15.0911Z" fill="#111111"/>
</g>
<defs>
<clipPath id="clip0">
<rect width="12" height="12" fill="white" transform="translate(9 8)"/>
</clipPath>
</defs>
</svg>
