<svg width="31" height="30" viewBox="0 0 31 30" fill="none" xmlns="http://www.w3.org/2000/svg">
<g clip-path="url(#clip0)">
<path d="M29.7349 28.3679L21.9894 20.7461C24.0177 18.5424 25.2639 15.628 25.2639 12.421C25.2629 5.56065 19.6123 0 12.6412 0C5.67022 0 0.0195312 5.56065 0.0195312 12.421C0.0195312 19.2814 5.67022 24.842 12.6412 24.842C15.6532 24.842 18.4157 23.8002 20.5856 22.0683L28.3612 29.7201C28.74 30.0933 29.3551 30.0933 29.734 29.7201C30.1137 29.3469 30.1137 28.7411 29.7349 28.3679ZM12.6412 22.931C6.743 22.931 1.96156 18.2255 1.96156 12.421C1.96156 6.61651 6.743 1.91105 12.6412 1.91105C18.5395 1.91105 23.3209 6.61651 23.3209 12.421C23.3209 18.2255 18.5395 22.931 12.6412 22.931Z" fill="#ACA9A9"/>
</g>
<defs>
<clipPath id="clip0">
<rect width="30" height="30" fill="white" transform="translate(0.0195312)"/>
</clipPath>
</defs>
</svg>
