<svg width="34" height="28" viewBox="0 0 34 28" fill="none" xmlns="http://www.w3.org/2000/svg">
<path d="M33.2815 7.6502L24.5315 0.150205C24.3472 -0.00846675 24.0872 -0.044502 23.8638 0.0568066C23.6422 0.15876 23.5 0.380303 23.5 0.624463V5.00804C16.5163 5.20216 13.1472 8.65913 11.5457 11.5724C10.1528 14.1047 9.84035 16.612 9.77016 17.6411C9.75674 17.7986 9.75 17.9591 9.75 18.1227V18.1245V18.1257V18.1269V18.1287V18.1305V18.1323V18.1347V18.1366V18.1384V18.1402V18.1426L9.75059 18.1444V18.1468V18.1486V18.1504V18.1523V18.1547V18.1565L9.75117 18.1583V18.1601V18.1625V18.1643V18.1661L9.75176 18.1686V18.1704V18.1722V18.1741L9.75234 18.1765V18.1783V18.1801V18.182L9.75293 18.1838V18.1856V18.188L9.75352 18.1898V18.191V18.1922V18.1934L9.7541 18.1953V18.1971V18.1989L9.75469 18.2007V18.2025C9.79377 18.5107 10.0568 18.7488 10.3748 18.7488C10.7196 18.7488 10.9992 18.4699 10.9998 18.125C10.9998 18.0933 11.0004 18.0151 11.0059 17.8968C11.2787 12.6996 20.8802 11.5204 23.4998 11.2952V15.6238C23.4998 15.868 23.642 16.0895 23.8635 16.1915C24.0863 16.2928 24.3457 16.2574 24.5313 16.0981L33.2812 8.59808C33.4198 8.47966 33.4997 8.30634 33.4997 8.12382C33.5 7.94194 33.42 7.76862 33.2815 7.6502ZM24.75 14.2658V10.6244C24.75 10.4535 24.6804 10.2906 24.5565 10.1728C24.4406 10.0611 24.2855 9.99946 24.125 9.99946C24.1158 9.99946 24.1061 9.99946 24.0963 10C23.6562 10.0202 15.7656 10.4267 11.8782 13.769C13.1643 10.3773 16.3296 6.24946 24.1219 6.24946H24.125C24.291 6.24946 24.4497 6.18355 24.5669 6.06636C24.6841 5.94917 24.75 5.7905 24.75 5.62444V1.98308L31.9149 8.1244L24.75 14.2658Z" fill="#ACA9A9"/>
<path d="M25.3809 17.3233C25.0387 17.3233 24.7618 17.6747 24.7618 18.109V24.8574C24.7618 25.7237 24.2062 26.4288 23.5237 26.4288H2.4762C1.79371 26.4288 1.23813 25.7237 1.23813 24.8574V9.14312C1.23813 8.27687 1.79371 7.57172 2.4762 7.57172H11.0497C11.3919 7.57172 11.6688 7.22028 11.6688 6.78598C11.6688 6.35168 11.3919 6.00024 11.0497 6.00024H2.4762C1.11051 6.00032 0 7.40981 0 9.14312V24.8574C0 26.5907 1.11051 28.0002 2.4762 28.0002H23.5238C24.8894 28.0002 26 26.5907 26 24.8574V18.1089C25.9999 17.6747 25.7231 17.3233 25.3809 17.3233Z" fill="#ACA9A9"/>
</svg>
