<svg width="31" height="30" viewBox="0 0 31 30" fill="none" xmlns="http://www.w3.org/2000/svg">
<g clip-path="url(#clip0)">
<path d="M26.8945 30H3.14453C1.42078 30 0.0195312 28.5987 0.0195312 26.875V3.125C0.0195312 1.40125 1.42078 0 3.14453 0H26.8945C28.6183 0 30.0195 1.40125 30.0195 3.125V26.875C30.0195 28.5987 28.6183 30 26.8945 30ZM3.14453 1.25C2.11078 1.25 1.26953 2.09125 1.26953 3.125V26.875C1.26953 27.9088 2.11078 28.75 3.14453 28.75H26.8945C27.9283 28.75 28.7695 27.9088 28.7695 26.875V3.125C28.7695 2.09125 27.9283 1.25 26.8945 1.25H3.14453Z" fill="#ACA9A9"/>
<path d="M10.6445 13.75H5.64453C4.61078 13.75 3.76953 12.9088 3.76953 11.875V6.875C3.76953 5.84125 4.61078 5 5.64453 5H10.6445C11.6783 5 12.5195 5.84125 12.5195 6.875V11.875C12.5195 12.9088 11.6783 13.75 10.6445 13.75ZM5.64453 6.25C5.30078 6.25 5.01953 6.53125 5.01953 6.875V11.875C5.01953 12.2188 5.30078 12.5 5.64453 12.5H10.6445C10.9883 12.5 11.2695 12.2188 11.2695 11.875V6.875C11.2695 6.53125 10.9883 6.25 10.6445 6.25H5.64453Z" fill="#ACA9A9"/>
<path d="M25.6445 7.5H16.8945C16.5495 7.5 16.2695 7.22 16.2695 6.875C16.2695 6.53 16.5495 6.25 16.8945 6.25H25.6445C25.9895 6.25 26.2695 6.53 26.2695 6.875C26.2695 7.22 25.9895 7.5 25.6445 7.5Z" fill="#ACA9A9"/>
<path d="M25.6445 12.5H16.8945C16.5495 12.5 16.2695 12.22 16.2695 11.875C16.2695 11.53 16.5495 11.25 16.8945 11.25H25.6445C25.9895 11.25 26.2695 11.53 26.2695 11.875C26.2695 12.22 25.9895 12.5 25.6445 12.5Z" fill="#ACA9A9"/>
<path d="M8.14484 11.25C7.98484 11.25 7.82484 11.1888 7.70234 11.0675L5.20234 8.56754C4.95859 8.32379 4.95859 7.92754 5.20234 7.68379C5.44609 7.44004 5.84234 7.44004 6.08609 7.68379L8.14484 9.74129L13.9523 3.93379C14.1961 3.69004 14.5923 3.69004 14.8361 3.93379C15.0798 4.17754 15.0798 4.57379 14.8361 4.81754L8.58609 11.0675C8.46484 11.1888 8.30484 11.25 8.14484 11.25Z" fill="#ACA9A9"/>
<path d="M10.6445 26.25H5.64453C4.61078 26.25 3.76953 25.4087 3.76953 24.375V19.375C3.76953 18.3412 4.61078 17.5 5.64453 17.5H10.6445C11.6783 17.5 12.5195 18.3412 12.5195 19.375V24.375C12.5195 25.4087 11.6783 26.25 10.6445 26.25ZM5.64453 18.75C5.30078 18.75 5.01953 19.0312 5.01953 19.375V24.375C5.01953 24.7187 5.30078 25 5.64453 25H10.6445C10.9883 25 11.2695 24.7187 11.2695 24.375V19.375C11.2695 19.0312 10.9883 18.75 10.6445 18.75H5.64453Z" fill="#ACA9A9"/>
<path d="M25.6445 20H16.8945C16.5495 20 16.2695 19.72 16.2695 19.375C16.2695 19.03 16.5495 18.75 16.8945 18.75H25.6445C25.9895 18.75 26.2695 19.03 26.2695 19.375C26.2695 19.72 25.9895 20 25.6445 20Z" fill="#ACA9A9"/>
<path d="M25.6445 25H16.8945C16.5495 25 16.2695 24.72 16.2695 24.375C16.2695 24.03 16.5495 23.75 16.8945 23.75H25.6445C25.9895 23.75 26.2695 24.03 26.2695 24.375C26.2695 24.72 25.9895 25 25.6445 25Z" fill="#ACA9A9"/>
</g>
<defs>
<clipPath id="clip0">
<rect width="30" height="30" fill="white" transform="translate(0.0195312)"/>
</clipPath>
</defs>
</svg>
